<svg xmlns="http://www.w3.org/2000/svg" viewBox="0 0 512 512"><path d="M256,348.1V512h87.2l36.7-163.9H256z" fill="#3e322e"/><path d="M132.1,348.1L168.8,512H256V348.1H132.1z" fill="#53433f"/><path d="M256 276.1h146.9v72H256v-72z" fill="#68544f"/><path d="M109.1,276.1v72H256v-72H109.1z" fill="#725d57"/><path d="M458.3 0v16.1c0 74.6-56.8 135.6-129.2 143.7H313V80.1C336.9 32.9 385.6 0 442.1 0h16.2z" fill="#93bf00"/><path d="M183.8,0h-16.1v16.1c0,74.6,56.8,135.6,129.2,143.7H313V80.1C289.1,32.9,240.3,0,183.8,0z" fill="#a8d32a"/><path d="M258.6 165.9v37.9c0 21-16 37.9-35.8 37.9H199v-66c6.4-6.1 14.5-9.9 23.8-9.9h35.8z" fill="#93bf00"/><path d="M175.2 165.9h-35.8v37.9c0 21 16 37.9 35.8 37.9H199v-66c-6.4-6-14.5-9.8-23.8-9.8z" fill="#a8d32a"/><path d="M296.3 159.8h16.6V276h-16.6V159.8z" fill="#93bf00"/><path d="M312.9 159.8h16.6V276h-16.6V159.8zm-113.8 82h14.2v34.3h-14.2v-34.3z" fill="#81a713"/><path d="M184.9,241.8h14.2v34.3h-14.2V241.8z" fill="#93bf00"/></svg>