<svg xmlns="http://www.w3.org/2000/svg" width="682.667" height="682.667" viewBox="0 0 512 512" preserveAspectRatio="xMidYMid meet"><path d="M167.8.7c-.7 1.2-.2 23.9.6 30.3 1.3 10.6 1.6 12.4 3.6 20.1 4.9 19.1 14.7 39.6 25 52.3 18 22.4 37.1 36.8 62 47.1 7.5 3 27.8 8.5 31.8 8.5 5.8 0 5.5-3.1 5.6 59.4l.1 57.6-41.5-.2-41.5-.3v-33.7l8.5-.3c4.7-.1 10.5-1 12.9-1.9 9.1-3.4 16.7-11 20.8-20.8 2.6-6.1 2.7-7.1 3-29.6l.3-23.2-2.3-.1c-1.2-.1-10.7-.1-21.2-.1-20.8 0-25.3.9-32.8 6.6l-3.6 2.8-4.3-3c-8.9-6.1-17.8-7.2-51.4-6.3l-4.2.1v21.2c0 22.9.9 28.8 5.3 36.5 3.6 6 10 11.9 16.4 14.9 5.2 2.5 7.1 2.8 22.8 3.4.8 0 1.2 4.7 1.2 17l.1 17h-76v36c0 28.1.3 36 1.3 36.1.6.1 5.8.1 11.5.2 9.6 0 10.3.1 10.7 2.1 1.2 4.9 5.7 25.3 6.1 27.6.3 1.4.7 3.3 1 4.2.3 1 .8 3 1 4.5.3 1.5 1.4 6.3 2.4 10.8l2.3 10.5 2 9 12.2 54c.2.8 1.9 8.9 3.9 18l4.4 19.5.8 3h174.9l3.7-16 4.1-19c.3-1.7 1.7-8.2 3.2-14.5l3-13c.2-.8 1.3-5.8 2.5-11l2.6-11.9c.3-1.2 1.2-5.3 2-9 .9-3.6 1.7-7.3 1.9-8.2 1.3-6.5 4.8-22.4 6-26.9.8-3 1.6-6.6 1.9-8 .3-2.1 3.7-17.3 5.1-23 .2-.8.4-1.8.4-2.1.1-.4 5.3-.6 11.6-.5l11.5.1V276l-36.7-.2-36.8-.3v-57.8c0-37.9.3-57.7 1-57.8 1.1-.1 1.8-.2 11.5-2 8.2-1.5 22-6 30.5-9.8 3.6-1.7 6.6-2.9 6.8-2.9.1.1 3.9-2.2 8.5-5 37-23 60.8-57.5 68.7-99.7.9-5.3 1.9-19.7 1.9-30l.1-10h-16c-8.8 0-18 .3-20.5.7-2.5.5-6.3 1.1-8.5 1.4-6.5 1-26.5 7.9-34.5 11.9-16.1 8.1-26.4 15.7-40.2 29.6-8.9 9-22.6 27.6-24.3 32.8-.8 2.7-2.2 2.7-3 0-2.6-8.1-23.4-33.5-36.4-44.3-14-11.7-37.1-23.7-53.5-27.7-2.2-.5-5-1.2-6.1-1.5C204.9.7 168.9-1.4 167.8.7z"/></svg>