<svg xmlns="http://www.w3.org/2000/svg" viewBox="0 0 1075.85 705"><defs><style>.cls-1{fill:#fa9436;}</style></defs><g id="Layer_2" data-name="Layer 2"><g id="Layer_1-2" data-name="Layer 1"><path class="cls-1" d="M107.85,705c-5.4-3.34-11.75-3.44-17.64-4.92-18.53-4.63-35.8-11.69-51.12-23.31-7.58-5.76-9.69-14.18-10-22.5-.86-26.72-4.95-53.15-6.44-79.82-1.19-21.52-5.33-42.79-8.59-64.12-2.74-18-4-36.2-6.34-54.26-1.37-10.71-4-21.26-5.16-32C1.79,416.8-.95,409.6.34,402.2c1.73-10,10.84-13.06,17.78-18.32,17.77-13.46,38.22-19.83,59.75-23.27,12-1.91,23.87-4.63,36.1-4.54,5.46,0,8.25-1.66,8-8.09-.72-19.77.35-39.68-1.46-59.33a95.33,95.33,0,0,0-14.3-42.95c-6.33-10-13.74-11.79-23.09-12.61-25.24-2.21-41.29-16.67-53.79-37.57-7-11.76-7-25-11.35-37.24-1.4-4,4.2-8.16,8.85-7.21,19.76,4,38.21,11.46,54.65,23,12.41,8.74,22.52,19.33,27,35,1.82,6.39,1.29,12.6,2.74,18.73,2.51,10.58,9.93,18.87,14.62,29,0-5.48.85-11.13-.19-16.41-1.78-9.05.28-18-.6-27-1.79-18.55-.1-37.29-1.53-55.81-1.13-14.69-2-29.64-7.52-43.87-3.09-8-9.89-8.73-16-11.06A70.61,70.61,0,0,1,65.09,75.09c-5-7.43-12.73-12.85-17.26-20.92-5.42-9.68-5.07-20.55-6.85-31-.8-4.69-.67-9.53-1.18-14.27A10.19,10.19,0,0,1,42.85,0h3C51.5,3.67,58.24,3.61,64.46,5.23c19.05,4.95,33.57,15,44.06,32.32a169.34,169.34,0,0,1,18,42.57c1.31,4.65.37,10.3-.78,15.2-1.93,8.22.64,15.58,3.17,22.94,2.12,6.17,4.45,12.24,5,18.81.09,1.14.4,1.91,1.72,1.89a2.45,2.45,0,0,0,2.4-1.25c1.21-1.88,1-3.84.9-5.79-.57-21.13,6.52-39.16,19.87-55.67C175.63,55.39,198,48,223.36,46.07c1.33-.1,2.68.13,4,0,3.07-.39,6.82-2.78,8.53,1.59,1.46,3.71.3,7.7-1.51,11.2-4.89,9.42-9.42,19.09-15.11,28-5.09,8-11.63,15-17.37,22.62a183.29,183.29,0,0,1-16.59,18.76c-9.14,9.16-20.14,14.35-32.46,16.72-9.87,1.9-8.81,9.66-10,16.27-3.71,20.73-1.84,41.55-1.12,62.4.85,24.59.75,49.22,1.06,73.83a18.29,18.29,0,0,0,1.11,7.43c4.63-9.89,10.4-19.43,13.58-29.78,3.8-12.34,11.12-21.89,19.67-30.74a124,124,0,0,1,37.22-26.86c14.08-6.47,29.57-7.27,45-6.33,3.38.2,5.62,3,4.12,6.4-8,17.92-16.29,35.68-29.92,50.26-10.86,11.61-22.95,21.57-38.38,26.21-7.85,2.36-15.73,4.86-24.53,3.31-7.09-1.25-10.62,5.68-13.52,10.55-7.64,12.82-12.59,26.64-11.3,42,.35,4.22,1.3,6.3,6.34,6.28,17.61-.06,35.3-.39,52.82,1.06a209.81,209.81,0,0,1,44.68,8.41,130.48,130.48,0,0,1,31,14.24c9,5.61,15.28,20.27,13.26,30.67-3,15.3-5.66,30.7-6,46.31-.56,26.78-4.79,53.25-6.34,80-.67,11.4-.8,22.95-2.28,34.14-1.09,8.3-1.55,17.16-5,25.19-1.46,3.38-.78,7.19-1.16,10.74-1.54,14.49-3.79,28.91-4.59,43.52C268,660.35,266,670.73,257,677.18a116,116,0,0,1-29.35,15.21c-10.49,3.7-21.27,6.09-31.73,9.64-5.94,2-12.5-.53-18.1,3Zm14.66-259c-17.21-.16-32,.86-46.58-2.09-8.32-1.69-16.52-4-24.78-5.93C35.81,434.3,20.75,430.3,14,413.51c-1-2.56-2-5.19-.49-7.57,3.23-4.92,5.91-11,10.5-14.08a125.69,125.69,0,0,1,28.13-14.59A191.5,191.5,0,0,1,118.26,366c1.5,0,4.23,1.34,4.41-1.48S120.2,362,118.23,362a187,187,0,0,0-33.41,3.1c-22.88,4.21-45.91,8.69-64.33,24.26C10.26,398,1.84,407.66,12.74,421c7.19,8.81,14.72,18.26,26.86,21.54,2,.54,5.91,1.11,4.8,4.38-.8,2.34-4.57,1.52-6.24.78-7-3.08-14.32-5.76-19.27-12.32-2.17-2.86-5.34-5-8.12-7.35-.38-.33-1.16-.2-1.75-.28,0,.82-.09,1.65,0,2.47.66,13.61,5.21,26.55,6.32,40.23a343.17,343.17,0,0,0,4.94,38.47c4.54,23,2.87,46.58,7.49,69.56,3,14.73,4.54,29.75,7.08,44.58,2,11.74,3.4,23.57,5.54,35.31,1.28,7,4.08,11.83,9.16,15.43A118.07,118.07,0,0,0,98,693.8a281,281,0,0,0,36.36,3.75c12.32.51,25.06,1.78,36.8-.08,26.24-4.17,52.58-9.24,75.58-24.58,8-5.36,11.66-13,13.77-21,2.88-10.82,2.88-22.37,4.09-33.58,2.87-26.74,8.19-53.26,9.76-80,1.48-25.13,5.43-50,5.81-75.26.14-9.43-.76-19.22,2-28.56.43-1.46,1.43-3.14.07-4.08s-3.24-.26-5.05.57c-6.37,2.92-12.91,5.49-19.42,8.09-8.59,3.42-17.95,3.55-26.71,6-15,4.2-30.3,6.78-45.71,8.88-11.39,1.55-22.9,1.49-34.29,3.59-7.09,1.31-14.61.47-21.93.26-1.75-.05-4.37-.81-4.07-3.42s2.67-1,4.09-1.37c7.81-1.83,15.94-1.13,23.76-1.52,28.83-1.45,57.06-6.05,85-12.66,15.35-3.63,30.65-7.77,42.26-19.66,4.22-4.33,6.31-16.3,3.43-21.6-5.83-10.73-15.63-17-26-22.5-10.75-5.66-22.82-6.85-34.46-8.88a277.11,277.11,0,0,0-55.2-4.23c-4.58.13-9.2,1-13.7.54-3.09-.3-7-1.52-7.72,1.79-1.05,4.55-.18,9.55,0,14.35a3,3,0,0,0,1.82.31c3.07-.94,6.18.12,9.14-.13,18.55-1.61,36.84-.72,54.88,4.17,8.48,2.3,17.73,3,25.35,6.91,10.86,5.58,20.57,13.41,24.61,26,.39,1.25,1.1,2.71,2.81,2,4-1.77,7.63-3.59,7.87-9,.54-11.9-7.29-18.29-15.82-23.66-12.42-7.83-26.55-11.26-41-12-9.89-.51-19.82-2.59-29.73-.85-2.32.4-4.21,1-5.66-1.11-.58-.85-1.07-2.4-.68-3.16,1.13-2.23,3.48-2.16,5.62-2,10.54.63,21.1,1.13,31.62,2,16.64,1.45,32.43,5.92,46.79,14.64,6.17,3.74,12.33,8.49,15.25,14.79,4.94,10.65-.88,21.69-12.58,25.91a355.78,355.78,0,0,1-65.7,17.17A442.94,442.94,0,0,1,122.51,446ZM123.85,402c0-14.68-1.79-15.85-15.41-15.26-5.2.23-10,1.88-15.06,2.32-14,1.2-27.64,4.45-40.16,10.9s-14.45,11-12.48,23.48a5.1,5.1,0,0,0,3.69,4.62,129.56,129.56,0,0,0,33.81,7.51,629.1,629.1,0,0,0,64.66,1.59c12.69-.36,25.87-.19,38.94-2.44,14.56-2.5,29.39-4.43,44-6.85,6.61-1.09,12.7-4.31,18.42-7.88,2.52-1.58,3.22-4,2.14-6.93-3.77-10.38-12.25-15.14-21.71-19.32C200.2,382.93,174.29,385,148.56,385c-1.82,0-2.77.5-2.71,2.52.1,4.16-.45,8.41.17,12.48,1.76,11.54-2.8,16.75-14.55,15.95-6.76-.46-9.43-4.16-7.82-10.64A12.32,12.32,0,0,0,123.85,402ZM70.22,72.38A11.07,11.07,0,0,0,71,74.53c9.43,14,23.67,21,38.93,26.36,3,1,4.06-.32,3.54-4.06-1.16-8.2-6.83-14.37-8.92-22.16a45.43,45.43,0,0,0-7.23-15.26c-4.54-6.06-10.88-10.77-15.46-16.8-9-11.85-20.6-21-31.19-31.12a4.1,4.1,0,0,0-3.08-1.17c-1.48.33-.94,2-.77,3,1.7,9.46,1.7,19.17,5.06,28.41,1.34,3.69,5.18,5.7,5.77,9.15,1.85,10.88,9.33,16,18.37,20.35,5.44,2.59,10.43,6.12,15.6,9.27,1.37.84,1.37,2.3,1,3.58a1.44,1.44,0,0,1-2.42.59C86.29,80,79.33,79.85,75.83,74.58,74.67,72.83,73,71.11,70.22,72.38Zm-16,107.87c-1.82-4.32-3-6.87-4-9.46-.73-1.85-.86-3.85,1.4-4.55s3.52,1,4.08,2.79a58.69,58.69,0,0,0,17.44,26.72c.92.81,1.56,2.64,3.07,1.82.61-.34.44-2.06.67-3.14.26-1.27-.82-3.4,1.72-3.3,1.95.09,2.11,1.72,2.19,3.31.1,2.4-.29,4.66,1.71,6.93,6.38,7.24,12.37,14.83,18.56,22.25.45.55,1.5,1.21,2,1,1.44-.54.79-2,.75-3-.74-17.85-8.92-32-22.87-42.45-15.17-11.38-32-19.34-51-22.54-6.12-1-6.87.64-5.94,5.29,2.17,10.8,6.29,20.94,11.14,30.81a3.65,3.65,0,0,0,3.79,2.33C48.55,195,57.16,200,66.61,201c1.67.18,3.68,2.25,4.83.29.92-1.58-1.58-2.59-2.64-3.74A5.94,5.94,0,0,0,65.87,196c-9.88-2.23-19.14-6.11-28.12-10.65-1.59-.81-5.21-.95-3.41-4,1.66-2.86,4-.16,5.4.83,5.74,4.12,12.38,5.86,19.07,7.82-5.87-4.93-12.08-9.33-18.22-13.83-1.69-1.23-4.88-2.46-2.93-5,1.79-2.36,3.64.38,5.28,1.49Zm122.33,112.1c12.33-1.62,24.78-5.34,35.76-13.27A114.91,114.91,0,0,0,244,243.77a118.76,118.76,0,0,0,8.72-18.51c.5-1.29,0-2.95,0-4.43-.89.18-2.25.06-2.59.6-2,3.21-6,3.2-8.63,5.31-7.61,6-15.3,12-22.91,18-.84.66-2.37,1.86-1.28,2.73.91.71,3,.63,4.21.06a3,3,0,0,1,4.29,1,2.51,2.51,0,0,1,.51,2.12c-.85,1.62-2.6,1.34-4,1.17-5.39-.65-10.43,1.2-15.57,2.14-3.35.61-5.17,3.74-7.66,5.76,2.43,2.78,5,.27,7.56.36,1.71.07,4.58-1.45,5,1.31.34,2.22-2.35,2.39-4.06,2.45-17.24.64-27.68,11.41-36.62,24.44-.69,1-2.87,2.22-1.57,3C171,292.4,173.44,292,176.53,292.35ZM130.94,153.93c-2.8-1.56-2.17.9-2.1,2.4.26,5.77,1.65,11.69.77,17.27-2.47,15.65-.92,31.39-.26,46.88.69,16.21,1.1,32.43,1.46,48.65,0,1.84-.38,3.79-2,4.17-3.51.83-3.34,3.36-2.89,5.67,4.08,21,2.52,42.31,3.8,63.45.48,7.88-1,15.87-.81,23.79.31,13.22,1.29,26.43,1.84,39.64.1,2.31.7,3.19,3.14,3.21s3.08-1,3.05-3.27c-.1-6.38-.82-12.89.14-19.13a167.11,167.11,0,0,0,1.48-40.42c-.74-8.21,3.06-15.66-.88-24.94-6.16-14.48-3.65-31.42-3.26-47.08.57-22.8.48-45.52-.71-68.25-.84-15.87-2-31.71,1-47.48C135.22,155.65,134.49,153.89,130.94,153.93Zm83.25-81.74c.65.66,3.06-1.26,3.24.83s-2.26,1.61-3.77,2c-6.26,1.86-12.48,3.71-19.06,4.2a2.88,2.88,0,0,0-2.55,3.65c.8,2.26,2.36.37,3.66.24a58.11,58.11,0,0,0,10.91-2.6c4.5-1.38,10.43.43,13.55-4.45a86.42,86.42,0,0,0,9.47-20.82c.76-2.42.58-4.61-3.14-4.31-6.25.5-13-.61-18.68,1.43-7,2.53-17.06,1.28-19.72,11.66a1.88,1.88,0,0,1-1.62.81c-8.94-4.23-7.21,4.43-9.46,8-.86,1.35,0,4.13-2.62,4-2.14-.15-2.35-2.34-2.56-4.17-.1-.88.43-2.32-1-2.37a3.38,3.38,0,0,0-2.32,1.58c-1.89,3-3,6.72-5.45,9.19-11.39,11.64-14.29,26.87-18.2,41.69-.24.91-.76,2.58.78,3,1.38.36,1.74-1,2.3-2.09,3.57-6.68,8.33-12.36,13.17-18.24,11.45-13.94,22.94-27.27,39.2-35.87,2.36-1.25,4.19-3.11,6.94-2.22,1,.3,2.41,1.78,2.26,2.36-.71,2.8-3.67.6-5.38,2-1.19,1-2.89,1.67-2.09,3.3.64,1.31,1.8-.49,2.78-.46C208.07,74.66,210.26,71.28,214.19,72.19ZM115.25,370.74c-15.1,1.71-30.24,2.79-45,7.34-13,4-26.09,7.27-37.51,15C22,400.3,19.13,409.74,24.53,419.47c1,1.87,2.19,3.13,4.22,2.36s1.05-2.43.64-3.82c-1.27-4.36.12-7.66,3-11.28,5.51-7,13.41-9.44,20.92-12.93,20.54-9.53,42.4-13.35,64.72-14.59,5.78-.32,5.61-3.29,4.67-6.49C121.55,368.91,117.7,372.1,115.25,370.74Zm-62-158.66c3.9,0,6.13-.65,7.64.12,7,3.59,15.06.48,22.14,3.65,1.13.51,4.84,1.05,3.41-1.9s-4.52-6.31-7.24-6.63A199.68,199.68,0,0,1,43,199.15c-.84-.27-1.91.18-2.88.3.14.9,0,2,.46,2.69A69.19,69.19,0,0,0,53.89,217c12.6,10.74,28.16,12.24,43.66,13.94,2.25.25,3-1.67,2.11-2.7-2.37-2.65-4.29-7.08-7.9-7a57.36,57.36,0,0,1-17.48-2.55C68,216.85,60.83,217.2,53.29,212.08Zm105.14-94.53c6.79-1.43,11.8-2.27,16.69-3.55,6.32-1.66,13.07-1,19.17-3.76,1.08-.5,2.44-.93,2.28-2.23-.22-1.68-1.91-1.08-2.85-1a93.85,93.85,0,0,0-11.08,2C175,111.11,166.21,109.46,158.43,117.55Zm50-30.88c-8.23,2-17.27,4.18-26.31,6.35-1.5.36-2.36,1.16-2.22,2.77a1.22,1.22,0,0,0,1.79,1.09c9.09-4.11,18.84-5,28.55-6.19,1-.12,2.87-.59,2.45-2.48S210.56,87.34,208.48,86.67ZM155,130.24c9.09-2.9,19.36-1.41,28-7.62-3.63-1.55-5.43,1.23-7.87,1.28-3.15,0-2.83-1.08.92-6.29C171,125.38,161.56,125.11,155,130.24Zm40.67,105.2c-8.17,8.68-3.12,21.15-11.28,28.68C190.34,262.41,193.22,254.69,195.69,235.44Zm-15.16,13.62c-4.25,2.88-8.5,19.41-7,29.13C176.07,267.62,178.23,258.61,180.53,249.06ZM112.34,57V80.75h2.17C113,73.57,116.7,66.44,112.34,57Zm90.84,43.1c-7.76,2.7-16.43,1.23-23.81,5.69C186.89,102,196.15,106.22,203.18,100.13ZM99.66,38.81c-1.78-.9-1.87.39-1.82,2.1.08,2.79,0,5.58,0,8.38,0,1.23-.33,3,1.81,2.58s.57-1.68.33-2.6a7.89,7.89,0,0,1,1.64-6.85c.65-.84,2.76-.75,2-2.56C103,38.31,101.29,39.31,99.66,38.81Zm-22-20.71c-.56,4.63-1.67,9.39,1.43,13.37a8.3,8.3,0,0,0,1.9,1.34c.29-.51.92-1.12.8-1.51C80.43,26.88,79,22.5,77.61,18.1Zm-8.49-.16c.63-.3,3,.84,2.59-1.73-.6-3.69-5-1.51-6.77-4-.39-.55-1.22.9-1,1.64C64.69,16.1,65.42,18.45,69.12,17.94Zm122.19,97.53-11.22,2.3c.39.65.64,1.74,1.18,1.89C184.85,120.72,188,119.93,191.31,115.47Zm31.62,119.89c-.25-1.05.08-2.79-1.43-2.05a8.56,8.56,0,0,0-4.6,6.09,1.19,1.19,0,0,0,1.42,1.52C221.55,240.4,222,237.59,222.93,235.36Zm-10.24-7.71c.17-1.53-.76-1.66-1.81-1.69-4.49-.13-2.14,4.57-4.33,6.23-.82.62.7.76,1.07.74C211,232.78,211,229.37,212.69,227.65Zm0-143.56c1.15-.25,2.92.57,3-1.54.1-1.79-1.37-1.46-2.48-1.54-1.45-.12-3,.23-3.15,1.73C209.91,84.55,211.7,83.82,212.7,84.09Zm13.45,137.06c-2.14-.16-2.33.84-2.25,1.89s-.58,2.52,1.14,2.85,1.88-.91,1.82-2.15C226.82,222.66,227.22,221.28,226.15,221.15ZM199.52,95.47l-7.56.94C194.5,98.15,196.85,98.85,199.52,95.47ZM101.3,51.11c-.34,4-1.3,6,.82,8C103.18,56.9,103.19,55.07,101.3,51.11ZM90.13,26.68c-3.18.17-5.48.49-3.37,4.58Z"/><path class="cls-1" d="M1006.85,705c-2.24-3.21-5.8-2-8.68-2.2-7.84-.6-14.64-4.49-22.1-6.27-11.6-2.75-12.33-12.95-14.27-22.26-3.26-15.62-1.31-31.28-1.09-47,.13-9.36-1.14-18.74-1.88-28.11-.31-3.89-3.23-6.55-5.57-9.06-12.87-13.77-5.08-26.2,10.8-30.12,7.29-1.8,14.32-4.67,22-5,2.48-.13,2-1.56,1.18-3.07-7.43-13.29-14.67-26.71-22.35-39.87-18.61-31.9-39.15-62.61-57.51-94.69-11.05-19.3-24.48-37.23-35.71-56.44-11.8-20.2-24.63-39.73-36.74-59.72q-21.21-35-42.93-69.78c-15.89-25.49-32-50.86-48.06-76.24-2.66-4.21-6.67-7.19-10.69-9.92-5-3.41-10.08-.59-11.18,6.87-3.06,20.6-2.69,41.34-1.31,62.07a19.74,19.74,0,0,1,0,4c-.86,6.23,3,6.81,7.32,5.62,5-1.38,6.75.41,6.72,5.17,0,9.17-.35,18.35.06,27.5.72,15.58,2.38,31.13,2.62,46.71.07,4.68.47,9.41.22,14.06-.28,5-4.43,7-8.83,6.58-5.11-.46-5.74,2.21-4.93,5.84a47,47,0,0,1,.7,15.84c-.86,7.19,2.6,8.8,8.65,8.58a170.49,170.49,0,0,1,49.4,5.47c19.56,5.17,39.33,11,56.38,23.08,6.66,4.73,12.42,9.71,14.95,17.77.52,1.66,1.09,3.07.24,4.71-6.37,12.26-3.82,25.81-5.28,38.73-2.36,20.78-3.76,41.68-4.94,62.57-.44,7.89,1,15.88-.19,23.81-2.78,19-1.48,38.29-2.88,57.42-1.33,18.22-2.39,36.56-1.81,54.79a43.85,43.85,0,0,1-6.64,25.24c-6,9.73-15.88,15.26-25.09,21.47a82.53,82.53,0,0,1-38.29,14c-1.48.15-2.86,1.24-4.29,1.89h-105c-12.36-4.43-23.22-11.7-34.5-18.19-14.36-8.25-21.08-21.6-23.31-37.07-2.48-17.19-3-34.58-6.79-51.69-3.19-14.45-4.19-29.38-6.37-44.07-2.44-16.48-5.21-32.91-7.63-49.4-1-7.15-1.47-14.39-2.37-21.57-1.44-11.36-3-22.7-4.57-34s-3-22.42-4.44-33.65c-.82-6.66-3.87-13-.29-20.14,4.32-8.58,10.23-14.95,18.73-19.36,23.5-12.21,48.91-15.92,74.87-17.9,10.42-.79,20.71-1.55,31.1,0,2.33.35,4.56-.36,4.64-3.67.22-8.28.43-16.56,1-24.82.31-4.53-1.46-6.15-5.73-5.5-6.62,1-8.82-1.81-8.46-8.38.71-12.94,1.89-26,.79-38.83-.83-9.72-.1-19.44-1.21-29.17a80.74,80.74,0,0,1-.37-17.61c.36-3.31,2.24-5.15,5.57-4.92,3.69.26,4.47-1.52,4.45-4.79-.11-16.43.46-32.89-.23-49.29-.5-11.71,1.1-23.05,3.19-34.41,2.16-11.73,19.93-22.81,31.83-20.68,15.46,2.77,25.85,11.35,33.17,25.13,12.84,24.15,28.48,46.63,43,69.77C818,230,829.43,249.7,841.43,269c16.32,26.27,33.35,52.12,49.26,78.64,11.2,18.66,22.86,37,34.25,55.58,14.22,23.13,27.44,46.88,42.68,69.43,12.33,18.25,22.83,37.73,34.3,56.56,4.39,7.2,9.27,14.13,12.48,22,1,2.51,2.73,3.1,5.09,2.86,15.65-1.6,30.39,2.71,44.94,7.44,4.18,1.36,7.63,4.94,11.42,7.5v20c-4.29,4.32-4.74,10.07-6.09,15.58-1.75,7.13.15,14.21-.44,21.4-1.07,13.14-2.8,26.57-.56,39.71,3,17.27-4.77,30.8-21.25,36.56-4.55,1.59-9.4.5-13.66,2.75ZM832.93,385.9l-2.15-.84c-.88-2.18-2.4-3.37-4.84-3.15-2.35-1.63-4.47-3.87-7.07-4.79-12-4.24-23.85-9-36.16-11.9C767.13,361.56,751,361.85,735,361c-7.27-.4-10.71-.32-9.92,9.82.67,8.7-.33,11.94,10.23,10.68,9.19-1.09,19,1,28.23,2.89,3.82.78,9.74-2.17,12.09,5.11-15.09-2.89-29.81-2.46-44.51-2.53a4.32,4.32,0,0,1-1.77-.78c-4.12-2.27-5,1-4.36,3.4,1.58,6.28.12,12.6.93,18.8,1,7.53-4.08,7.35-8.91,7.45a20.25,20.25,0,0,1-6.81-.87c-4.35-1.48-11.26-.74-11-7.42.21-4.91.16-9.9.64-14.81.54-5.37-2-6.8-7-6.87-11.78-.17-23.43,1.19-35.15,1.95-14.42,1-28.29,3.79-41.17,10.19C613,399.7,609,403.4,611.8,408.7c2.67,5,6.23,9.28,11.69,11.6,18.94,8.06,39.21,10.61,59.3,12.39,26.35,2.33,52.83-.29,79.18-2,14.27-.91,28.3-4.84,42.09-8.87a81.34,81.34,0,0,0,14-5.93c4-2.07,5.5-5.83,2.35-9.4-2.16-2.45-5.59-3.93-8.65-5.43C801.34,396,790.89,390.88,779,389.85c-1.51-.13-2.65-1.34-1.9-2.77.49-.92,2.4-2.07,3.11-1.77,10.12,4.3,21.37,4.6,31.4,9.68,6.48,3.27,14.36,3.88,18.88,10.53,1.29,1.9,1.93,4.74,4.9,3.09a5.36,5.36,0,0,0,2.26-6.57c-2-5.75-5.32-10.69-10.87-13.57a192.83,192.83,0,0,0-37.09-14.42c-3.27-.92-6.75-1.1-10.09-1.79-1.27-.27-2.82-.94-2.47-2.59s1.87-1.83,3.24-1.58c4.16.76,8.47,1.18,12.43,2.56,10.88,3.78,21.61,8,32.4,12a6.44,6.44,0,0,0,5.61,2.32l1.32,1.63c1.08,1.09,1.76,3,4,1.87C835.57,387,834.69,385.9,832.93,385.9Zm177.86,170.16-.86-2.13c-3.8-7.33-6.49-15.34-13.12-20.89-.85-6.8-6.5-10.73-9.75-16.09,2.62,5.73,3.64,12.44,9.82,16,2.52,8.13,7.33,15,12.33,21.67l1.65,1.36c-.45,2.71,1.64,4.19,2.91,6.07a7.43,7.43,0,0,0,.51,1.85c1.24,2.18,1,6.92,4.33,5.64,2.24-.88-2.48-3.55-2.13-6.21.07-.57-1.29-1.34-2-2C1013.62,559.33,1013.5,556.79,1010.79,556.06ZM821.83,249l.08.08c-.21-1.37-.07-2.94-.69-4.1-6.13-11.54-14.19-21.86-20.58-33.32-9.09-16.28-19.57-31.8-29.82-47.41-3.15-4.79-4.05-11.51-11.88-15,2.59,3.89,4.41,6.22,5.79,8.78,7.17,13.23,14.9,26.13,23.32,38.6,1.13,1.68,3.15,3.51.91,4.93-1.91,1.21-4,.32-5.55-2.32-7.66-12.76-16.61-24.85-23.16-38.13-2.67-5.41-13.79-10.41-4.56-19.15.26-.25,0-1.34-.28-1.85-5-8.29-12.45-15.94-20.92-17.57-17.88-3.43-30.57,3.11-31.6,24.58-.55,11.58-1.09,23.14-.7,34.83.4,12.16.17,24.53-.33,36.79-.15,3.54,1,5,5.07,5.45,10.13,1.06,6.21-5.74,6.47-10.2a3.56,3.56,0,0,0-.53,2.19c0,3-1.43,4.6-4.45,4.77-3.95.23-2.39-2.78-2.53-4.55-.44-5.6-1.43-11.3-.82-16.81,1.36-12.3.35-24.58.78-36.85.06-1.71-.65-4.3,1.87-4.4s2.93,2.54,3,4.42c.17,6.33.71,12.75-.13,19-1.34,9.91,1.58,19.3,1.48,29.66,2.57-1.94,2.94-3.76,2.84-5.79-.36-7.43,0-15-1.21-22.26-1.51-9.38.26-18.83-1.66-28.19-.86-4.2-1.41-9.4,2.19-12.72,11.1-10.25,29.27-5.89,35.9,8.23,8.77,18.7,19.46,36.35,30.77,53.55,10.18,15.48,19.38,31.53,29.12,47.27C822.91,272.36,836.15,293,848.73,314c9.22,15.44,18.82,30.67,28.21,46,12,19.67,24.95,38.86,36.78,58.69,8.43,14.12,16.34,28.55,25,42.54,10.8,17.49,22.38,34.51,33.12,52C983.26,532,994.16,551,1005.18,570c1.17,2,2.62,2.58,4.42,1.95,2.28-.81,1.21-2.53.66-4.09-3.22-9.21-10.6-15.87-14.82-24.56-5.84-12-15.25-22.07-20.63-34.46-.67-1.54-1.89-3.39-.18-4.43s3,.35,4.44,1.83c3,3,3.39,7.86,8.27,10.91-1-2.87-1.37-4.82-2.34-6.39-6.88-11.07-13.43-22.4-20.56-33.25-16-24.37-30.53-49.66-46-74.35-12-19.09-24.14-38.11-35.71-57.47q-25.9-43.35-52.39-86.33C828.06,255.62,827.3,250.22,821.83,249Zm18.38,163.34c-2.11,1.55-4.14,3.21-6.34,4.62-13.25,8.53-28.23,12.19-43.23,16.33-12.5,3.46-25.21,5.58-37.87,7.41-16.31,2.36-33,.5-49.46.86-19.46.42-38.85-2.88-58.08-6.45-21.37-4-41.61-10.49-59.55-23.17-8-5.66-9.11-15.23-2.26-22,2.79-2.76,5.75-5.33,9.42-8.71-8.94.76-20.41,14.78-17.67,20.95,2.86,6.42,5.69,13.11,11.26,18,1.27,1.12,4.34,2.49,2.67,4.34-1.11,1.24-4.39,1.15-6.49-.41a25.86,25.86,0,0,0-2.72-2.12,9.71,9.71,0,0,0-2.68-.61,9.37,9.37,0,0,0-.05,2.36c3.56,14.66,3.62,29.8,6.39,44.63,3.54,19,5.09,38.3,8,57.43,3.79,25.23,5.83,50.69,11.12,75.75,3.47,16.41,5.52,33.13,8.19,49.71,1.19,7.42,3,14.29,8.67,20,13.63,13.77,31,21,49,24.19,23.93,4.24,48.38,5.13,73,3.84,23.16-1.22,43.67-8.25,63-20.23,17.56-10.85,28.83-24.78,27.48-47-1.25-20.5,1.29-41,2.8-61.43,2-27.66,2.95-55.39,4.69-83.08,1.32-21.08,2.47-42.17,4.27-63.22.08-1,.73-2.58-.73-3-.62-.18-1.75.69-2.38,1.34-11.95,12.38-27.16,18.18-43.41,22.44-19.79,5.2-40,7.36-60.24,8.67-25.84,1.68-51.53-1.82-77.24-3.85-2.1-.17-3-1.24-2.82-3.25.19-2.44,2.15-1.78,3.43-1.64,17.81,2,35.56,3.92,53.6,3.16,18.66-.78,37.36.34,55.93-3.12,16.25-3,32.75-5.26,47.38-13.45,8.73-4.88,18.29-9.17,23.63-18.57,4-.55,2.72-3.16,2.86-5.67C840.77,408.32,841.12,410.71,840.21,412.34Zm189.57,189.6c-4.63,0-8.3.09-12,0-1.58-.06-3.61-.3-3.82-2.28s1.78-2.28,3.11-2.54a40.18,40.18,0,0,1,8.29-1,106.5,106.5,0,0,0,33.14-4.19c6.72-2,10.94-7.28,13.15-13.66,1.66-4.78-3-7.07-5.83-9.48a25.5,25.5,0,0,0-9.06-4.65c-9.76-2.88-19.63-5.42-30-5.14-2,.06-4.3-2.7-5.76-.06s1.8,3.83,2.77,5.77c2.12,4.23,6.42,8.44,4.06,13.41-3,6.33-17.17,8.12-22.13,3.19-4.71-4.67-7.66-10.55-10-16.71-1.36-3.56-3.75-4.89-7.67-4.73a76.16,76.16,0,0,0-22.44,4.59c-4.3,1.55-11.07,3.15-10.72,10s3.83,12.1,10.75,14.43c3.36,1.12,6.43,3.19,10.15,3.14,1.3,0,2.6.41,2.7,1.65.14,1.87-1.76.84-2.59,1.37-3.1,2-6.11-.71-9.14-.05-.91.19-3.35-.91-2,1.71,3.61,7.24,1.48,14.94,2,22.43.25,3.68,1,5.83,5.22,3.31,6-3.54,13.09-2.46,19.54-4.2a1.7,1.7,0,0,1,2.1,1.59c.14,1.19-1,.93-1.76,1.14-4.6,1.3-9.21,2.59-13.79,4s-8.35,4.64-9,8.88,3.29,7,7.48,8.6c5.77,2.25,10.76,6.42,17.34,6.76.92,0,2.53,1.82,2.46,2.68-.15,1.88-2.1,1-3.25,1-5.56,0-10.2-3.28-15.43-4.55-3.16-.77-7-3.11-9.3-2-3.57,1.69.79,5.93-.52,9.07-.35.85,0,2,0,3,0,10.43,0,10.43,9.21,5.54a6.31,6.31,0,0,1,1.76-.88c2.94-.47,7.2-3,8.46.51,1.45,4.1-3.76,3.26-6.07,4.31-4.32,2-7.3,5.14-8.28,9.52-1.15,5.16,2.77,7.64,6.34,10.68,4.08,3.47,9,3.56,13.48,5.32,18.92,7.46,37.75,5.81,56.19-1.54,8.84-3.53,10.61-11.88,5.55-20a12.81,12.81,0,0,0-8-5.92c-1.89-.52-3.77-1.43-3.18-3.58.54-2,2.89-1.73,4.35-1.3,2.78.81,5.36,2.28,8.11,3.22a10.23,10.23,0,0,0,4.3.38c.33,0,.94-1.88.65-2.54-1.64-3.71-.82-7.56-.8-11.32s-1.1-4.72-4.65-3c-16.36,7.8-33.59,9.53-51.38,7.18-2-.27-4.85-1-4.53-2.85.38-2.27,3.41-1.27,5.11-1,18.24,2.64,34.77-1.74,50.29-11.32,4.47-2.75,3.57-5.5,1-8.35-5.12-5.6-11.78-8.08-19.27-8.43-1.56-.07-3.35-.09-3.3-2.06s1.87-2.18,3.4-1.94c7.13,1.09,14.35,2,20,7.21,1.35,1.24,3.1,3.11,4.52,2.31,1.8-1,.63-3.61.69-5.51.19-6.86.12-13.74.54-20.58.1-1.75,1.39-3.83-.13-5s-3.39-.15-5.19.37C1047.78,600.41,1038.53,602.79,1029.78,601.94ZM691.86,299.05h.95c0,5.33.07,10.66,0,16,0,2.68.85,4.07,3.73,4,10.6-.39,21.25.84,31.82-1,.9-.16,2.12.28,2.4-1.11.34-1.67-.92-1.67-2.05-2.07-5.53-2-11.21-.34-16.78-.95-2.07-.23-5.63,1.28-5.65-2,0-2.84,3.41-1.72,5.37-1.77,5-.14,10,0,15-.09,1.16,0,3,.62,3.08-1.44s-1.81-1.52-3-1.53c-5.83-.08-11.66-.05-17.5-.05-1.88,0-3.42-.56-3.28-2.75a2.32,2.32,0,0,1,3.26-2.11c5.73,2.52,12-1.64,17.69,1.72,1.23.73,3.41.29,3.59-1.55.22-2.23-1.9-1.14-3-1.26-4.25-.5-8.53-.69-12.76-1.29-1.06-.15-2.88-.4-2.81-2.23.09-2.17,1.9-1.42,3-1.44,4.33-.09,8.66-.07,13,0,2.31,0,4-.69,2.14-3.08-1.61-2.11-.89-3.84-.47-6,.68-3.55-.19-5.84-4.83-4.64-3,.76-6.23.51-9.36.63-1.31,0-2.4-.63-2.17-2,.06-.43,1.54-.78,2.41-.89,3.91-.52,7.92.82,11.82-.85,1.33-.57,2.43-.72,2.28-2.53-.18-2.12-1.73-1.6-2.94-1.67-5.75-.35-11.58.75-17.28-1-1.4-.44-2.64-.8-2.57-2.44.1-2.15,1.92-1.46,3.05-1.44,4.62.08,9.24-.39,13.84.79,1.82.47,4.52.16,4.7-2.28.21-2.73-2.43-1.43-3.79-1.55-4.58-.4-9.25.59-13.78-1-1.25-.45-3-.36-2.95-2,0-2,1.85-2.08,3.36-2,4.44.32,8.92-.75,13.36.73,1.21.41,3.54,1.22,4-1.42s-1.57-2.28-3.22-2.39c-4.6-.32-9.19-.72-13.79-1.05-1.63-.12-4,.13-3.58-2.14.22-1.33,2.49-2.14,4.22-1.53,4.39,1.54,8.89.35,13.33.68,1.4.1,3.16.42,3.08-2s-1.89-1.88-3.25-1.9c-5.49-.06-11,0-16.49,0-1.69,0-3.06-.56-3.13-2.43-.08-2.23,1.79-1.54,2.92-1.54,5.15,0,10.31,0,15.45.35,1.63.12,3.15,1.56,3.5-1.36.3-2.52-.88-3-3.14-3.06-5.11-.17-10.19-.7-15.29-1-1.4-.08-3.13-.17-3.27-1.59-.19-1.88,1.9-2.15,3.19-2.22,3.83-.22,7.71.24,11.48-.22,2.83-.35,11.16,3.37,5.12-5.57-.69-1,.68-3.47-1.81-3.26-2.06.17-5.57.61-5.85,1.63-2.42,8.89-5.66,2.44-8.46.6-5.31-3.49-10.59-.11-15.75.32-3.18.27-2.17,4.67-2.18,7.39Q691.82,269.05,691.86,299.05ZM680.4,380c4.49,0,9.05.46,13.45-.2,2.06-.31,6.42.82,5.92-3.78-.43-3.88-.76-7.62-6.79-7.16-20.62,1.58-41.29,2.69-61.54,7.29C618,379.23,604,380.65,592.73,390c-4.78,3.94-6.42,12.29-2.83,17.27.57.79,1.09,1.95,2.24,1.41a2.5,2.5,0,0,0,.71-2.09c-1-6.5,3.55-8.27,8.23-10.51A110.46,110.46,0,0,1,629,387.39C646,384.23,662.91,380.05,680.4,380Zm37.44-42.42c0-3.33,0-6.66,0-10,0-2.19-.08-5.46-2.91-4.34-3,1.18-7.44-1.69-9.19,3.61-1.67,5.05.68,9.8,0,14.59a124.65,124.65,0,0,0-.14,30.09c.41,4.08,3,8.59,1.66,11.82-2.92,6.88.08,13.62-1.2,20.38-.7,3.67,3.15,5.57,6.49,6.14,1.61.28,5,1.39,5-1.24,0-4.4,2.51-8.45,2.1-12.49C717.68,376.68,720.62,357.05,717.84,337.61Zm-30.23,26.45h3.66c2.75,0,7.13.05,7.12-2.37,0-3.71-4.27-1.72-6.4-1.62-21.93,1.05-43.84,2.85-65.37,7.23-9.69,2-19,5.69-28.5,8.73-2,.66-4.25,2.06-3.82,4.4.2,1.09,2.56.7,3.94-.16,14.88-9.3,32.52-8.8,48.8-12.59C660.49,364.54,675.15,365.12,687.61,364.06ZM844.4,404.18c2.93-6.88-1.73-14.94-8.82-14.67C841.17,393.05,842,398.69,844.4,404.18Zm175.2,171.76c-2.23.4-4.3-1-5.59,1.2-.2.34.25,1.57.52,1.61C1016.67,579.08,1018.32,578.34,1019.6,575.94Z"/><path class="cls-1" d="M435.44,559.22c2.21-7.83-1-9.54-8.27-9.46-19.31.23-38.63-.49-57.94-.72-3.93,0-5.56-1.38-5.47-5.57.24-11.54.1-23.09.07-34.64,0-4.28,1.09-5.28,6.16-5.15,16.56.41,33.2,1.5,49.76-.53a12.9,12.9,0,0,1,4,0c13.09,2.48,15.41.11,12.47-13.28a4.6,4.6,0,0,1,.89-4.1c1.08-1.34,2.59-.71,4.05,0q25.68,12.16,51.41,24.21,15.7,7.37,31.42,14.67c1.36.64,2.85,1.07,2.78,3s-1.73,2.41-3,2.91c-27.88,11-54.48,24.8-82.09,36.33C432.25,570.78,437.68,561.7,435.44,559.22ZM406.62,509c-10.66,0-21.32.11-32-.07-3.12-.06-4,1-3.91,4,.16,8.82.23,17.66,0,26.47-.11,3.66.85,4.81,4.66,4.77,18.64-.2,37.29.07,55.94-.14,7.46-.09,12.15,1.62,10.6,10.47-.94,5.36,2,5.38,5.82,3.62,5.63-2.63,11.19-5.39,16.87-7.91q23.79-10.56,47.65-21c1.07-.47,2.56-.84,2.32-2.11-.15-.79-1.5-1.53-2.46-2q-32.49-15.24-65-30.4c-2.7-1.27-4.46-1.39-4.32,2.35a48.79,48.79,0,0,0,0,5c.75,5.3-1.05,7.35-6.75,7.08C426.28,508.67,416.44,509,406.62,509Z"/><path class="cls-1" d="M79.88,65.11a13.09,13.09,0,0,1-7.63-5.69c-.81-1.36,1.16-1.6,1.73-1.26A58.6,58.6,0,0,1,82.52,64C83.14,64.56,81.21,64.82,79.88,65.11Z"/><path class="cls-1" d="M1010.23,589c14.59-2.21,30.46,1.24,44.43-7,3.88-2.29,11.22-3.51,4.55-10.58a2.57,2.57,0,0,1,.36-2.06c1.26-.22,2.81-.55,3.84,0,5.3,2.66,5.64,8.77,1.45,13.19-7.67,8.1-18.15,9.15-27.94,10.08-8.7.83-17.81.34-26.57.8-15.12.8-29.06-3.35-43.35-6.44-5.17-1.12-8.37-4.61-8.87-9.32-.42-4,2.21-7.48,6.59-8.51,2.1-.5,5.47-.3,3.84,2.82-5.4,10.26,2.74,10.74,8.7,12.74C987.83,588.25,998.93,588,1010.23,589Z"/><path class="cls-1" d="M1028.12,619.54c-1.42.74-3.5.06-4.08,2-1.59,5.38-5.42,7.83-10.47,6-5.69-2-4.91-7.51-4.58-12.3a8.52,8.52,0,0,1,1.07-2.72c1.64-3.4,2-8.67,7-8.26,4.42.36,5.1,5.46,6.6,8.85C1024.74,615.64,1025.87,617.82,1028.12,619.54Zm-10.23-1.91c-.44-1.12.78-3.14-1-3.3s-2.14,1.75-2,3.28c.1,1.17-.72,3,1.26,3.22C1018.71,621.09,1017.48,618.84,1017.89,617.63Z"/><path class="cls-1" d="M1010.76,691c-4.24-.68-9.51,1.41-14.26-1.73-1.27-.83-2.9-1.3-2.52-3.14s2.19-1.17,3.31-1.09c10,.75,19.92,2.17,29.92.07,1.47-.31,2.52.84,2.56,2.39s-1.13,2.07-2.56,2.44C1022,691.31,1016.76,691,1010.76,691Z"/><path class="cls-1" d="M1018.13,665.32c-8.49-2.25-17.14-.5-25.14-3.48-1.58-.59-4.69-.72-3.57-3.53.89-2.21,3.39-1.53,5.29-.83,11.27,4.14,22.81,4.46,34.55,2.66a33.39,33.39,0,0,1,5.48,0c1.07,0,2.16.3,1.84,1.64a2.17,2.17,0,0,1-1.72,1.2C1029,662.42,1023.43,663.8,1018.13,665.32Z"/><path class="cls-1" d="M1013.61,673.26c-6.43-.8-12.29-1.49-18.14-2.29-1.94-.26-3.72-1.39-3.28-3.47.35-1.64,2.38-1.71,3.86-1.3a75.77,75.77,0,0,0,37.51,1c.63-.15,1.86.21,2,.65.75,1.81-1,2.53-2,2.69C1026.76,671.63,1019.92,672.44,1013.61,673.26Z"/><path class="cls-1" d="M1015,680.86c-5.62,1.13-11.06-1.28-16.72-1.09-1.77.06-4.24-.71-4.33-3.23s2.28-1.68,3.37-1.46a101.19,101.19,0,0,0,31.45,1c1.29-.14,3.79-1.17,3.8,1.61,0,2.28-2,2.1-3.73,2.23C1024.29,680.33,1019.77,681.66,1015,680.86Z"/><path class="cls-1" d="M821.83,249c4.08,10.38,10.5,19.44,16.33,28.84,8.33,13.43,16.51,27,24.76,40.45.91,1.48,1.81,3.42.21,4.41-2,1.21-3.88-.21-5-2-10.59-17.51-20.72-35.31-31.85-52.45-5.5-8.47-9.37-18-16.26-25.58-1.54-1.7-2.9-3.76-1.79-6.26.26-.57,1.53-1.28,1.91-1.09,2,1,3.73,2,4.89,4.45,1.62,3.43,4.51,6.26,6.86,9.35Z"/><path class="cls-1" d="M892,369c3.06-.22,4.61,1.76,5.62,3.76,6.56,13,15.06,24.79,22.57,37.2,7.7,12.71,15.14,25.58,22.7,38.37.87,1.48,1.81,3.3.11,4.37-1.38.87-3,.17-4.13-1.56-8.48-12.61-15.9-25.81-23.32-39.06-7.15-12.79-15.93-24.66-24-36.95-1-1.5-2.09-3-1.7-5C890.2,368.7,891.41,369.22,892,369Z"/><path class="cls-1" d="M724.6,132.82c-2.89-.4-8,3.14-8.17-1.59-.16-4.45,5.57-3.71,9.07-4.15,1.68-.21,3.46.62,5.21.82,2.49.29,3.69,1.66,3,4-.73,2.51-2.72,2.29-4.81,1.66A32.2,32.2,0,0,0,724.6,132.82Z"/><path class="cls-1" d="M961.71,477.38c.2,1.88-.3,2.59-1.58,2.53a6.79,6.79,0,0,1-6.07-3.59c-.65-1.24-.08-2.89-1.38-4.09-1.87-1.76-4.93-4.26-1.72-6.36,2.9-1.9,3.9,2.18,5.34,4.08C958.26,472.55,960.13,475.21,961.71,477.38Z"/><path class="cls-1" d="M970.79,495.22c.11,1.08-.47,1.8-2,1.76-2-.05-3-1.08-2.94-3.07,0-1.45.62-2.92,2.13-2.61S970.75,493,970.79,495.22Z"/><path class="cls-1" d="M721.5,291.85c-1.63-2.74-7.6,1.23-7.16-2.58.62-5.23,5.36-.23,8.19-1.12,1.06-.33,3.4-.88,3.17,1.65C725.5,292,723.62,292,721.5,291.85Z"/><path class="cls-1" d="M706.72,280.05c.91.34,2.61-.66,2.75,1s-1.36,2-2.76,1.95c-1,0-2.53.59-2.73-1.14C703.74,279.69,705.46,280.19,706.72,280.05Z"/></g></g></svg>