<?xml version="1.0" encoding="utf-8"?>
<!-- Generator: Adobe Illustrator 24.1.1, SVG Export Plug-In . SVG Version: 6.00 Build 0)  -->
<svg version="1.1" id="Layer_1" xmlns="http://www.w3.org/2000/svg" xmlns:xlink="http://www.w3.org/1999/xlink" x="0px" y="0px"
	 viewBox="0 0 306.5 149.9" style="enable-background:new 0 0 306.5 149.9;" xml:space="preserve">
<style type="text/css">
	.st0{fill:#f99436;}
</style>
<g id="Layer_2_1_">
	<g id="Layer_1-2">
		<path class="st0" d="M40.2,34c0.8-0.8,0.9-0.8,1.5,0.1c0.5,0.9,1.1,1.8,1.7,2.7c0.6,0.7,1,0.7,1.3-0.1s1.1-0.8,2.3-0.2
			c0.4,0.2,0.8,0.4,1.2,0.7c0.8,0.5,1.3,0.1,1.7-0.5s1.1-0.8,1.8-0.3c0.6,0.4,1.1,0.9,1.4,1.5c0.1,0.4,0.3,0.4,0.7,0.1
			c0.9-1,1.3-1,2.4-0.2c0.7,0.4,1.2,0.9,1.5,1.6c0.2,0.4,0.4,0.5,0.8,0.1c0.9-0.8,2.3-0.7,3.1,0.2c0.1,0.1,0.2,0.2,0.3,0.4
			c0.4,0.7,1,1.2,1.4,1.9c0.2,0.3,0.6,0.2,0.8,0c0.6-0.4,0.9-0.1,1.3,0.2c1.4,1.4,2.6,2.9,3.6,4.5c0.1,0.1,0.1,0.3,0.1,0.5
			c0.1,0.4,0.2,0.6,0.7,0.4c0.8-0.3,1.8,0.6,2.2,1.7c0.7,1.6,1.1,3.4,1,5.2c0,0.3,0.2,0.5,0.4,0.4c0.6-0.1,1.1,0.3,1.3,0.8
			c0.8,1.4,1.1,3.1,0.8,4.7c0,0.2-0.1,0.4,0.2,0.5c1.3,0.3,1.6,1.5,1.7,2.5c0.2,1.8,0.1,3.7-0.5,5.5c-0.1,0.3-0.2,0.7,0.4,0.7
			c0.1,0,0.2,0.1,0.3,0.2c0.4,0.9,0.5,1.9,0.4,2.8c-0.2,1.4-0.6,2.9-1.1,4.2c-0.1,0.3-0.2,0.5-0.3,0.8c-0.3,0.5-0.7,0.8,0.2,1.3
			c0.6,0.3,0.3,1.2,0.2,1.8c-0.2,1-0.4,2-0.6,3c-0.1,0.4-0.3,0.9-0.5,1.3c-0.1,0.2-0.3,0.4,0,0.4c0.7,0,0.6,0.5,0.6,0.9
			c0,1.9-0.6,3.7-1.7,5.2c-0.3,0.4-0.7,0.8,0.1,1.2c0.5,0.3,0.2,1,0.1,1.6c-0.1,1.1-0.4,2.2-0.9,3.2c-0.3,0.6-0.7,1.2-1.1,1.8
			c-0.3,0.5-0.6,0.9-1,1.3c-0.3,0.2-0.2,0.5,0.1,0.7c0.4,0.2,0.7,0.7,0.5,1.2c-0.5,1.9-1.4,3.7-2.8,5.1c-0.3,0.4-0.5,0.7,0,1
			c0.2,0.1,0.2,0.3,0.1,0.6c-0.3,0.8-0.8,1.6-1.3,2.3c-0.7,1.2-1.8,1.9-2.8,2.8c-0.2,0.2-0.5,0.4-0.5,0.8c0,1.3-1.1,2-1.8,2.9
			c-0.9,1-1.9,2-3,2.9c-0.7,0.6-1.2,1.3-1.9,1.9c-1.5,1.2-2.9,2.5-5,2.5c-0.9-0.1-1.7-0.3-2.5-0.6c-0.2,0-0.4-0.2-0.5,0
			c-0.1,0.2-0.1,0.5,0,0.7c0.8,1.2,1.6,2.4,2.4,3.6c0.7,1.2,1.6,2.2,2.7,3.1c1,0.8,2.2,1.3,3.4,1.4c0.9,0.1,1.8,0.4,2.7,0.8
			c0.8,0.4,1.3,1.1,1.3,1.9c0.1,0.9-0.6,1.1-1.2,1.3c-1.4,0.4-2.3,1.7-2.2,3.1c0,0.3-0.2,0.6-0.5,0.7c-1.3,0.7-2.6,0.4-3-0.6
			c-0.2-0.6-0.4-1.3-0.7-1.9c-0.5-1-1.1-1.9-1.8-2.8c-1-1.5-2-3.1-3.1-4.5c-1-1.5-1.9-3-2.7-4.5c-0.2-0.3-0.5-0.5-0.9-0.5
			c-0.9-0.1-1.8-0.2-2.7-0.3c-0.5-0.1-0.7,0-0.8,0.6c-0.2,1.6-0.1,3.3-0.8,4.8c-0.6,1.3-1.5,2.3-2.7,3c-0.2,0.1-0.4,0.2-0.5,0
			c-0.1-0.2-0.1-0.5,0.1-0.6c0.7-0.6,1.4-1.3,1.9-2.1c0.2-0.2,0.3-0.4,0.3-0.6l0.5-3.5c0-0.1,0.1-0.2-0.1-0.2s-0.3,0.1-0.4,0.3
			c-0.8,1.4-1.7,2.7-2.7,3.9c-1,1.2-2.3,2.2-3.8,2.8c-0.2,0.1-0.6,0.2-0.5,0.6s0.4,0.3,0.7,0.3c1.5,0,2.9,0,4.4,0.1
			c0.1,0,0.2,0,0.2,0c0.8,1.1,1.7,0.3,2.6,0.1c1-0.2,1.4-1.2,2.1-1.8s1.1-2,2.4-2.3c1-0.4,2.2-0.1,3,0.7c0.1,0.1,0.2,0.3,0.1,0.5
			c-0.1,0.2-0.2,0.1-0.4,0.1c-2.6-0.7-2.8-0.4-4.3,1.6c-0.8,1.1-1.7,2.3-3.1,2.6c-0.9,0.2-1.9,0.4-2.8,0.4c-0.4,0-0.9-0.3-0.5-0.9
			c0-0.1,0.1-0.2,0.1-0.3c-0.1,0-0.2,0-0.3,0c-1.4,0.1-2.8,0.2-4.2,0.1c-0.5,0.1-1.1-0.3-1.2-0.8c0-0.1,0-0.2,0-0.3
			c0-0.3-0.1-0.4-0.4-0.5c-1.6-0.3-3.2-0.7-4.8-1.2c-0.6-0.3-1.2-0.5-0.8-1.4c0.1-0.2,0-0.4-0.2-0.5c0,0-0.1,0-0.1,0
			c-1.8-0.4-3.3-1.6-5-2.3c-0.3-0.2-0.6-0.4-0.9-0.6c-0.2-0.1-0.3-0.4-0.1-0.6c0,0,0.1-0.1,0.1-0.1c0.8-0.5,0.2-0.7-0.2-0.9
			c-1.4-0.8-2.7-1.6-4-2.6l-1.1-0.8c-0.1-0.1-0.2-0.2-0.1-0.3c0.4-0.9-0.4-1.2-0.9-1.6c-0.9-0.6-1.7-1.3-2.4-2.1
			c-0.3-0.3-0.5-0.7-0.1-1.2s0.1-0.6-0.1-0.9c-1.2-1.2-2.4-2.4-3.5-3.7c-0.5-0.5-0.8-1.1-0.1-1.7c0.4-0.3,0.1-0.6-0.1-0.8
			c-1.3-1.5-2.5-3-3.5-4.7c-0.3-0.5-0.3-1,0.4-1.2c0.4-0.1,0.4-0.4,0.1-0.7c-1.2-1.5-2.3-3.1-3.4-4.7c-0.6-0.9-0.5-1.5,0.5-2.1
			c0.3-0.2,0.2-0.4,0-0.6C1.9,95.8,1,93.9,0.3,92C0.1,91.5,0,90.9,0,90.4c0-0.7,0.6-0.8,1-1.2s0-1-0.1-1.6c-0.2-0.8-0.4-1.7-0.6-2.5
			c-0.2-0.9,0.3-1.8,1.1-2.2c0.7-0.5,0.4-1.3,0.2-2c-0.2-1.2-0.2-2.5-0.1-3.7c0-0.4,0.1-0.8,0.2-1.2C1.9,75.5,2,74.9,3,75
			c0.3,0,0.3-0.5,0.3-0.8c-0.1-1.2,0-2.4,0.1-3.6c0.1-0.6,0.3-1.3,1.1-1.3c0.3,0,0.4-0.2,0.4-0.5c0.1-1.4,0.3-2.9,0.7-4.2
			c0.2-0.4,0.4-0.8,0.7-1.2c0.1-0.2,0.3-0.3,0.5-0.2c0,0,0,0,0.1,0c0.5,0.3,0.7,0,0.8-0.5c0.2-1.6,0.8-3.1,1.6-4.5
			c0.3-0.6,0.8-0.5,1.3-0.4s0.5,0,0.6-0.4c0.3-1.1,0.7-2.3,1.2-3.3c0.8-1.5,0.5-1.1,1.9-0.6c0.6,0.2,0.6,0,0.6-0.3
			c0.4-1.3,1-2.6,1.8-3.7c0.1-0.1,0.2-0.2,0.3-0.4c0.2-0.4,0.6-0.6,1-0.5c0.2,0.1,0.3,0.2,0.4,0.4c0.1,0.1,0.1,0.4,0.3,0.3
			c0.1-0.1,0.2-0.2,0.3-0.4c0.3-1.1,0.8-2.2,1.5-3.2c0.3-0.7,1.1-1,1.8-0.7c0.4,0.2,0.6,0,0.7-0.3c0.7-2,1.4-4,2.1-6
			c0.2-0.5,0.1-1.1,0.5-1.5s0.5-0.4,0.9-0.1s0.6,0.3,0.7-0.2c0.2-1.4,0.6-2.8,0.6-4.3c0.1-0.8,0.2-1.5,0.5-2.2
			c0.1-0.4,0.5-0.7,0.9-0.7c0.4,0,0.5-0.1,0.6-0.5c0.4-2.1,0.8-4.1,1.1-6.2c0.4-1.7,0.6-3.5,0.7-5.3c0.1-2,0.3-4,0.7-6
			c0.1-0.7,0.2-1.9,1.5-1.6c0.1,0,0.1,0,0.2,0c0.4,0,0.8-0.7,1.2-0.4c0.5,0.5,0.9,1,1.1,1.7c0.6,2,1,4,1.3,6
			c0.2,1.1,0.2,2.2,0.2,3.4c0,0.1,0,0.4,0.2,0.4c1.1,0,1.2,0.9,1.2,1.6c0.2,1.1,0.2,2.3,0,3.4c-0.1,0.3,0,0.5,0.3,0.6c0,0,0,0,0,0
			c0.5,0.2,0.5,0.8,0.6,1.3c0.3,1.7-0.1,3.4,0,5.1C40.2,33.5,40.2,33.7,40.2,34z M53,55.8c0.6-0.1,0.9-0.7,1.2-1.1
			c1.5-1.6,3-3.2,4.5-4.8c0.2-0.3,1.2-0.4,0.2-1c-0.1-0.1-0.1-0.3,0-0.5c0.2-0.5,0.4-1,0.5-1.5c0.8-1.6,1.2-3.5,2.1-5.1
			c0.1-0.2,0.1-0.5,0-0.7c-0.5-0.5-1-0.9-1.5-1.2c-0.3-0.2-0.8-0.1-0.8,0.4c0.1,1.1-0.6,1.9-0.9,2.9c-0.1,0.3-0.3,0.3-0.5,0.2
			s-0.2-0.3-0.1-0.5c0.2-0.6,0.4-1.3,0.6-1.9c0.1-0.3,0.1-0.5-0.3-0.4s-0.7-0.1-1-0.4c-0.4-0.5-0.8-0.9-1.2-1.3
			c-0.8-0.6-1.9-0.5-2.6,0.2c-0.1,0.1-0.1,0.2-0.2,0.3c-0.6,1.1-1.2,2.2-1.8,3.3c-0.1,0.2-0.3,0.3-0.5,0.2c-0.1,0-0.2-0.1-0.1-0.3
			c0,0,0-0.1,0-0.1c0.4-0.7,0.6-1.5,1.1-2.2c0.8-0.9,0.6-2.3-0.3-3.1c-0.1,0-0.1-0.1-0.2-0.1c-0.2-0.2-0.5-0.2-0.8,0
			c-0.2,0.2-0.2,0.4,0,0.6c0,0,0,0,0,0c0.2,0.2,0,0.3,0,0.5c-0.4,1.2-1.3,2.2-1.7,3.4c-0.2,0.6-0.5,1.2-1,1.7
			c-0.1,0.1-0.3,0.3-0.5,0.1s-0.1-0.3,0-0.5s0.3-0.4,0.3-0.6c0.5-1.4,1.2-2.7,2-4c0.1-0.1,0.1-0.3,0-0.4c-0.1-0.1-0.3-0.1-0.4,0
			c0,0,0,0,0,0c-0.2,0.3-0.5,0.3-0.8,0.2c-0.6-0.2-1.1-0.2-1.5,0.6c-0.4,0.9-0.9,1.8-1.5,2.7c-0.1,0.3-0.4,0.4-0.7,0.3c0,0,0,0,0,0
			c-0.3-0.2,0-0.4,0.1-0.6c0.5-1,1.1-1.9,1.6-2.9c0.1-0.2,0.2-0.5-0.1-0.6c-0.6-0.2-1.2-0.5-1.7,0.2c-0.3,0.5-1,0.7-1.5,0.4
			c-0.3-0.2-0.7-0.1-0.9,0.1c0,0,0,0.1-0.1,0.1c-0.2,0.3-0.3,0.8-0.6,0.7s0-0.6,0.1-0.9c0.5-1.4-0.5-2.3-1.1-3.2
			c-0.1-0.2-0.3-0.2-0.5-0.1c-1,0.6-1-0.1-1-0.7c0.1-1.9,0-3.9-0.2-5.8c0-0.2,0-0.4-0.3-0.4c-0.7-0.1-0.7-0.6-0.6-1
			c0.2-1.1,0.2-2.3,0.1-3.4c0-0.4,0.2-1.2-0.8-1.1c-0.6,0-0.8-0.4-0.7-1c0.1-0.2,0.1-0.4,0.1-0.6c-0.1-2.6-0.5-5.2-1.2-7.7
			c0-0.1,0.1-0.4-0.2-0.4s-0.2,0.3-0.1,0.4c0.2,1.1,0.2,2.3,0.3,3.4c0.1,0.9,0.1,1.8,0.1,2.7c-0.1,1.7,0.4,3.4,0.3,5.1
			c0,0.3-0.2,0.7-0.1,0.9c0.3,0.9,0.4,1.8,0.3,2.6c0,1.5,0,2.9-0.1,4.4c0,0.2-0.1,0.4,0.1,0.4s0.3-0.2,0.3-0.4
			c0.4-0.9,0.9-1.7,1.5-2.4c0.1-0.2,0.3-0.2,0.4-0.1c0,0,0,0,0,0c0.2,0.1,0.1,0.3,0,0.4c-0.5,0.7-0.9,1.5-1.4,2.2
			c-0.7,1.2-1.1,2.5-1,3.9c0,0.2,0.1,0.5,0.2,0.5c0.3,0.1,0.2-0.3,0.3-0.4s0.2-0.5,0.5-0.3s0.3,0.4,0.2,0.6
			c-0.1,0.2-0.2,0.5-0.3,0.7c-0.1,0.3-0.4,0.6-0.1,0.9c0.5,0.4,0.3,0.7,0,1.1s-0.4,0.6-0.7,0.9c-0.1,0.1-0.1,0.3,0,0.4
			s0.2-0.1,0.3-0.2c0.9-1.3,1.8-2.5,2.7-3.8c0.2-0.2,0.3-0.3,0.5-0.2s0.1,0.4-0.1,0.6c-0.3,0.4-0.6,0.8-0.9,1.2
			c-0.5,1-1.2,1.9-2,2.7c-0.5,0.4-0.8,1-0.7,1.7c0,0.1,0,0.3,0.1,0.3s0.3-0.1,0.3-0.2c0.3-0.5,0.6-1.1,0.9-1.6
			c0.1-0.2,0.3-0.5,0.5-0.4s0.2,0.4,0.2,0.6c-0.3,0.9-0.8,1.7-1.5,2.3c-0.5,0.5-0.8,0.8-0.5,1.5c0,0.1-0.1,0.3,0.1,0.3
			s0.2-0.1,0.3-0.2c1.3-1.5,2.6-3.1,3.7-4.8c0.2-0.2,0.2-0.8,0.7-0.5s0.1,0.7-0.1,1c-0.4,0.7-0.8,1.3-1.3,1.9
			c-0.5,0.8-1.1,1.6-1.7,2.4c-0.5,0.6-1.1,1.2-1.5,1.8c-0.2,0.2-0.4,0.8-0.1,1s0.3-0.4,0.5-0.5s0.3-0.3,0.6-0.2
			c0.1,0.1,0.2,0.2,0.1,0.3c0,0,0,0,0,0c-0.1,0.2-0.3,0.4-0.4,0.6c-0.3,0.6-0.9,1-0.7,1.9c0.8-0.7,1-1.7,1.7-2.3
			c0.3-0.2,0.6-0.5,0.8-0.9c0.1-0.2,0.3-0.4,0.5-0.3s0.1,0.4,0,0.6c-0.9,1.4-2,2.7-3.1,3.9c-0.2,0.2-0.3,0.5-0.1,0.8
			c0.2,0.2,0.3-0.1,0.5-0.3c0.8-0.9,1.5-1.9,2.1-3c0.1-0.2,0.2-0.4,0.5-0.3s0.1,0.3,0,0.5c-0.4,0.8-0.9,1.6-1.5,2.2
			c-0.6,0.6-1.1,1.2-1.6,1.9c-0.1,0.2-0.1,0.5,0.1,0.7c0.1,0.1,0.2,0.1,0.3,0c0,0,0,0,0,0c0.2-0.4,0.6-0.5,0.8-0.8
			c1-1.4,2.3-2.6,3.2-4.2s1.9-3.1,2.9-4.7c0.2-0.3,0.5-1.1,1-0.8c0.7,0.4-0.1,0.9-0.3,1.3s-0.7,0.7-0.7,1.3c0.9-0.6,1.6-1.2,2.3-2
			c0.2-0.2,0.4-0.4,0.7-0.1s0,0.5-0.2,0.6c-0.6,0.6-1.3,1.1-2,1.6c-1.6,1-2.8,2.4-3.8,4c-1,1.6-2.3,3.1-3.6,4.4
			c-0.6,0.5-1,1.3-0.8,2.1c0.1,0.9,0.1,1.8,0,2.7c0,1.4,0.5,2.8,0.3,4.4c1.3-1.2,2.5-2.5,3.7-3.9c0.9-1.2,1.7-2.5,2.7-3.6
			c1.6-2,3-4.2,4.3-6.4c0.7-1.5,1.6-2.9,2.5-4.2c0.2-0.2,0.2-0.6,0.5-0.4s0,0.5-0.1,0.8c-0.6,1.4-1.4,2.8-2.2,4.1
			c-0.1,0.2-0.3,0.4-0.1,0.6s0.3-0.1,0.5-0.3c0.9-0.9,1.8-1.8,2.7-2.7s1.9-1.9,2.9-2.8c0.1-0.2,0.2-0.4,0.3-0.6c0.2-1,0.5-2,1.1-2.9
			c0.1-0.2,0.2-0.5,0.5-0.3c0.2,0.1,0.3,0.3,0.2,0.5c0,0,0,0.1-0.1,0.1c-0.5,1-0.9,2-1.2,3.1c-0.4,1.2-1.2,2.1-1.5,3.3
			c-0.1,0.3-0.4,0.5-0.7,0.4c0,0,0,0-0.1,0c-0.3-0.2,0-0.5,0.1-0.7s0.3-0.4,0.4-0.6s0.1-0.3,0.1-0.3s-0.2,0-0.3,0.1
			s-0.2,0.2-0.3,0.3c-1,1.2-2.2,2.2-3.4,3.3c-1,0.8-2,1.6-2.8,2.6c-0.5,0.8-0.9,1.6-1.5,2.3c-1.4,1.7-2.8,3.4-4.2,5.1
			c-1.1,1.3-2.3,2.6-3.5,3.8c-0.2,0.2-0.4,0.5-0.3,0.8c0.1,1.7,0.1,3.5,0.3,5.2c0.1,0.8,0.2,1.7,0.2,2.5c0,0.3,0,0.8,0.6,0.5
			c0.2-0.1,0.4-0.4,0.7-0.2c0.1,0.1,0.1,0.2,0.1,0.2c0,0,0,0-0.1,0.1c-0.2,0.2-0.3,0.7-0.8,0.6c-0.1,0-0.3-0.3-0.3,0.1
			c0,0.4,0.1,0.8,0.2,1.2c0.2,0,0.3,0,0.5-0.1c0.8-0.5,1.5-1.2,2-1.9c1-1.3,2.1-2.6,3.1-4c1.3-2,3-3.7,4.2-5.7c1.4-2,2.7-4,3.8-6.2
			c0.8-1.8,1.7-3.7,2.6-5.5c1.1-2.3,2-4.8,3.2-7.1c0.1-0.3,0.4-0.5,0.6-0.4s0.1,0.4,0.1,0.6c0,0.2-0.1,0.5-0.2,0.7
			c-0.4,1.2-1,2.4-1.5,3.6c-0.5,1.5-1.2,2.9-2,4.3C53.4,54.2,53.1,55,53,55.8V56h0.1L53,55.8z M46.5,100.4L46.5,100.4
			c0,0.4-0.2,0.7-0.5,0.9c-0.3,0.1-0.5,0.3-0.7,0.5c-0.7,0.8-1.5,1.5-2.5,2.1c-0.9,0.6-0.2,1.1-0.1,1.6s0.4,0,0.6,0
			c0.4,0,0.8-0.3,1.1-0.6c0.5-0.4,1-0.9,1.5-1.3c0.1-0.1,0.3-0.3,0.5-0.1c0.1,0.1,0.1,0.2,0,0.3c0,0,0,0,0,0c-0.8,1-1.8,1.8-3,2.4
			c-0.4,0.2-0.5,0.3-0.4,0.6c0.1,0.3,0.1,0.6,0.3,0.9c0.2,0.4,0.4,0.4,0.8,0.2c1.4-0.9,2.7-1.8,3.9-2.9c2.4-2.2,4.8-4.3,6.9-6.7
			c1.3-1.4,2.5-2.8,3.7-4.3c1.3-1.6,2.5-3.4,4-5c1.8-1.9,3-4.1,4.6-6.1c1.1-1.4,1.9-2.9,2.9-4.4c0.8-1.3,1.7-2.6,2.5-3.9
			c0.1-0.2,0.3-0.4,0.6-0.3s0.2,0.4,0.1,0.6c-0.4,1-0.9,1.9-1.5,2.7c-1.2,1.4-1.9,3.1-3.1,4.5c-0.8,1-1.3,2.2-2,3.1
			s-1.6,2.2-2.5,3.2c-1.1,1.1-2,2.2-2.8,3.6c-0.8,1.5-2.3,2.6-3.4,4c-0.7,0.9-1.5,1.7-2.2,2.5c-1.6,1.9-3.7,3.4-5.3,5.3
			c-1.5,1.7-3.3,3.1-5.2,4.3c-0.4,0.3-1.3,0.4-1.3,1.1c0,0.9,0.2,1.8,0.6,2.6c0.4,0.7,0.6,1.5,0.8,2.3c0.1,0.8,0.5,0.8,1,0.4
			c1.3-0.8,2.4-1.8,3.6-2.7s2.3-1.9,3.5-2.9c1-1,2-2.1,2.9-3.3c2-2.2,3.8-4.6,5.5-7.1c0.6-0.9,1.5-1.6,2-2.5
			c0.8-1.2,1.6-2.5,2.4-3.7c1.3-1.6,2.4-3.3,3.4-5.2c0.9-1.8,1.9-3.6,3-5.3c0.2-0.3,0.4-0.6,0.7-0.3s0.1,0.6-0.1,0.8
			s-0.6,0.5-0.7,0.8c-0.3,0.9-0.7,1.7-1.2,2.5c-0.5,1.2-1.1,2.3-1.8,3.4c-1,1.7-2.4,3.2-3.4,5c-1.2,1.8-2.4,3.5-3.8,5.1
			c-0.4,0.5-0.7,1.1-1.2,1.7c1.9-0.8,3-2.4,4.4-3.5c1.1-1,2.2-2,3.1-3.1c1.3-1.4,2.5-2.8,3.7-4.2c0.2-0.2,0.4-0.4,0.6-0.2
			s0.1,0.4,0,0.6c-1.1,1.4-2.3,2.7-3.5,3.9s-2.5,2.6-3.8,3.8c-0.9,0.9-1.8,1.7-2.8,2.5c-1.3,0.9-2.9,1.6-4,2.8
			c-0.5,0.6-1,1.3-1.5,1.9c-1.9,2.4-4,4.5-6.4,6.4c-0.7,0.6-1.5,1.2-2.3,1.7s-1.6,1.2-2.5,1.8c-0.2,0.1-0.5,0.3-0.3,0.5
			s0.1,1.2,0.8,1.1c0.4-0.1,0.9-0.2,1.2-0.5c1.1-0.8,2.1-1.6,3.1-2.4c0.2-0.1,0.3-0.2,0.5,0s0,0.4-0.1,0.5c-0.5,0.4-0.9,0.8-1.4,1.2
			c-0.8,0.7-1.7,1.3-2.7,1.6c-0.6,0.2-0.5,0.4-0.4,0.8c0,0.2,0.1,0.5,0.2,0.7c0.3,0.4,0.2,1.2,0.9,1.2c0.5,0,1-0.2,1.4-0.5
			c1.2-1.1,2.7-1.6,3.9-2.6c2.2-1.7,4.4-3.5,6.4-5.4c1-0.9,1.7-1.9,2.6-2.8s1.8-2,2.6-3c0.4-0.6,0.9-1.2,1.4-1.7
			c0.2-0.1,0.4-0.3,0.5-0.1s0,0.4-0.1,0.5c-1,1.3-2,2.6-3,3.9c-0.5,0.6-1,1.1-1.5,1.6c-1.8,1.7-3.5,3.5-5.4,5.1c-1.3,1-2.6,2-4,3.1
			c-1.3,0.9-2.7,1.8-4.1,2.5c-0.2,0.1-0.4,0.1-0.4,0.4c0,0.2,0.1,0.4,0.4,0.5c1.5,0.5,2.8,1.6,4.4,2c1,0.2,1.8,0.6,2.8-0.1
			c2.5-1.8,4.7-4,6.6-6.4c0.3-0.3,0.7-0.8,0.7-1.1c0-0.6-0.7-0.3-1.1-0.6c-0.1-0.1-0.3-0.1-0.3-0.3s0.2-0.2,0.4-0.2
			c0.4,0,0.8-0.1,1.2-0.2c2.1-1.1,3.7-2.8,4.9-4.8c0.2-0.2,0.1-0.5-0.1-0.7c0,0,0,0-0.1,0c-0.6-0.4-0.5-1-0.1-1.4s0.8-0.8,1.2-1.2
			c0.8-1,1.4-2.1,1.8-3.4c-0.2,0.1-0.3,0.1-0.4,0.2c-1.4,1.4-2.8,2.8-4,4.4c-1,1.3-2.1,2.5-3.1,3.7c-0.2,0.2-0.3,0.7-0.7,0.4
			s0-0.6,0.2-0.8c1.4-1.5,2.8-3,4-4.7c1.2-1.3,2.3-2.7,3.6-3.9c0.2-0.2,0.3-0.4,0.1-0.7c-0.6-0.6-0.3-1.1,0.1-1.7
			c0.4-0.5,0.8-1.1,1.2-1.7c0.9-1.5,1.4-3.1,1.6-4.8c0.1-0.3-0.1-0.6-0.4-0.7c-0.2-0.1-0.4-0.2-0.6,0c-1.1,1.3-2.2,2.7-3.2,4
			c-0.8,1-1.6,1.9-2.4,2.9c-0.1,0.1-0.3,0.2-0.4,0.1c0,0-0.1,0-0.1-0.1c-0.1-0.1-0.1-0.3,0-0.4c0,0,0,0,0,0c1-1.2,1.9-2.4,2.9-3.5
			c1.2-1.3,2.1-2.8,3.4-4c1.2-1.3,2-2.9,2.2-4.6c0.1-0.6,0.3-1.2-0.4-1.6c-0.3-0.2-0.4-0.6-0.2-0.9c0,0,0,0,0,0c0.6-1.3,1-2.6,1.3-4
			c0.2-0.5,0.4-1.4-0.6-1.6c-0.3-0.1-0.4-0.5-0.3-0.8s0.3-0.7,0.4-1c0.9-2,1.4-4.2,1.4-6.4c0-0.4-0.2-0.8-0.6-1
			c-0.4-0.1-0.6-0.5-0.5-0.9c0,0,0,0,0,0c0.5-1.9,0.6-3.8,0.4-5.7c-0.1-0.8-0.1-1.8-1.4-1.9c-0.6-0.1-0.9-0.6-0.5-1.2
			c0.2-0.3,0.2-0.7,0.3-1.1c0-0.8-0.2-1.5-0.4-2.2c-0.2-0.7-0.4-1.7-1.7-1.4c-0.4,0.1-0.5-0.4-0.6-0.9c-0.2,0.6-0.5,1.2-0.8,1.7
			c-0.2,0.2-0.4,0.3-0.5,0.6c-0.4,1.5-1,2.8-1.9,4c-1,1.4-2,2.8-2.9,4.2c-0.5,0.9-1,1.8-1.6,2.6c-0.6,0.6-1,1.2-1.3,2
			c-0.3,0.1-0.5,0.2-0.4,0.7l0.5-0.6c0.6-0.3,0.8-0.9,1.3-1.2c0.1-0.1,0.3-0.3,0.5-0.1s0,0.3-0.1,0.5c-0.4,0.6-0.9,1.2-1.5,1.7
			c-0.7,0.6-1.4,1.2-2,1.9c-0.6,0.6-1.1,1.4-1.7,2c-1.1,1.1-1.8,2.5-3,3.6c-1.3,1.4-2.5,2.9-3.6,4.4c-1.3,1.6-2.8,3.1-4.2,4.6
			c-1.4,1.6-3,3.1-4.8,4.5c-1.1,0.8-1.8,2-3,2.6c-0.3,0.2-0.8,0.4-0.5,0.9c0.2,0.4,0.3,0.9,0.4,1.4c0.2,1.3,0.5,2.5,0.8,3.7
			c0,0.2,0.2,0.4,0.4,0.2c0.6-0.6,1.2-1.1,1.9-1.5c2.1-1.7,4.1-3.6,5.9-5.7c1.2-1.2,2.4-2.5,3.5-3.7c1.5-1.6,2.8-3.3,4.2-4.9
			c1-1.2,1.8-2.5,2.8-3.6c0.8-0.9,1.5-1.9,2.1-2.9c0.7-1,1.3-2,1.9-3s1.4-2.2,2.1-3.3c1-1.7,2-3.3,2.9-5.1c0.8-1.7,1.6-3.4,2.6-5
			c0.1-0.2,0.3-0.3,0.4-0.2c0.2,0.1,0.3,0.3,0.2,0.5c-0.3,0.7-0.7,1.5-1.1,2.2s-0.8,1.6-1.2,2.4c-0.3,0.8-0.6,1.5-1,2.2
			c-0.8,1.2-1.5,2.3-2.2,3.5c-0.7,1.3-1.5,2.5-2.4,3.6c-0.6,0.7-1,1.5-1.3,2.3c0.1,0,0.2-0.1,0.3-0.2c1.4-1.2,2.8-2.5,4-3.9
			c2-2.4,4.1-4.7,6.1-7.1c0.2-0.2,0.3-0.4,0.6-0.3s0.1,0.4,0,0.6c-0.6,1.1-1.6,1.9-2.3,3s-1.8,1.9-2.6,3C68,76,65.9,77.5,64,79.2
			c-1.6,1.2-3,2.5-4.2,4c-1.7,2.4-3.7,4.6-5.5,6.9c-1,1.3-2.1,2.5-3.3,3.6c-1.8,1.7-3.4,3.7-5.4,5.3c-0.9,0.7-1.7,1.6-2.7,2.2
			c-0.7,0.3-1.1,0.9-1,1.6c0,0.3,0,0.6,0.3,0.7c0.3,0.1,0.6,0,0.8-0.2c0.6-0.5,1.1-1,1.7-1.4S45.6,100.6,46.5,100.4z M26.2,119.2
			c-0.9-0.9-2-1.2-2.9-2c-1.1-1-2.4-1.8-3.6-2.7c-1.6-1.3-3.1-2.7-4.6-4c-1.4-1.2-2.7-2.6-3.9-4.1c-1.1-1.3-2.3-2.5-3.3-3.9
			c-0.8-0.9-1.5-1.8-2.1-2.8c-0.1-0.2-0.2-0.5-0.1-0.7s0.3,0.1,0.5,0.3c1.1,1.3,2.3,2.5,3.4,3.8s2.4,2.8,3.6,4.2c1,1,2,2,3.1,2.9
			c1,0.9,2,1.9,3,2.8c1.4,1.3,3,2.3,4.5,3.4c0.9,0.8,2.1,1.2,3,2c0.9,0.7,1.8,1.2,2.8,1.7c1.4,0.5,2.7,1.2,4,1.9
			c0.4,0.3,1,0.5,1.5,0.6c2.2,0.3,4.2,1.5,6.5,1.8c1.5,0.4,3.1,0.6,4.7,0.6c0.1,0,0.3,0.1,0.4-0.1c0-0.1,0-0.3-0.1-0.4
			c-0.9-1.1-1.2-2.4-1.9-3.6s-1-2.9-2.9-3.1c-1.5-0.3-3-0.8-4.4-1.6c-1.7-0.7-3.4-1.5-5.1-2.3c-1.7-1-3.4-2.2-5.1-3.3
			c-1.4-0.8-2.6-1.8-3.6-2.9c-0.4-0.5-0.9-1.1-1.7-0.7c-0.1,0-0.3,0-0.4-0.1c-1-0.4-1.9-0.8-2.7-1.4c-1.5-0.7-3-1.5-4.4-2.4
			c-2.2-1.5-4.4-3.2-6.4-5.1c-1-1.1-2-2.2-3-3.3c-1.2-1.2-2.2-2.5-3-4c-0.1-0.2-0.2-0.4,0-0.5s0.4,0.1,0.5,0.2
			c1.1,1.2,1.9,2.7,3.1,3.9s2.7,2.6,3.9,4c0.5,0.6,1.1,1.1,1.6,1.5c0.9,0.7,2,1.3,2.9,2c1.5,1.1,3.1,2,4.8,2.7
			c0.5,0.3,1,0.5,1.6,0.8c0.2,0.1,0.4,0.4,0.5,0.2s-0.1-0.4-0.3-0.5c-1.7-1.2-2.9-2.8-4.3-4.3c-1-1-1.9-2-2.8-3s-2.1-2.3-3-3.5
			c-1.1-1.4-2-2.9-3-4.4c-1.5-2.3-2.7-4.7-3.5-7.3c-0.1-0.3-0.3-0.6,0.1-0.8s0.5,0.2,0.7,0.5c0.4,1.4,0.9,2.8,1.7,4.1
			c0.7,1,1.1,2.2,1.8,3.2s1.6,2,2.3,3.1c1.5,2.3,3.3,4.4,5.2,6.4c1.5,1.5,2.9,2.9,4.4,4.4c1.5,1.4,3,2.8,4.6,4
			c0.4,0.3,0.4,0.9,0.9,1.1c1,0.5,2,1.1,2.9,1.8c0.5,0.5,1,0.8,1.6,1.1c1.3,0.5,2.5,1.1,3.6,1.8c1.3,0.8,2.8,1.2,4.1,2
			c1.4,0.8,3,1.3,4.6,1.6c0.1,0,0.3,0.1,0.4,0c0.1-0.1,0.1-0.3,0.1-0.4c-0.2-0.5-0.3-1-0.5-1.4c-0.4-1-0.8-2-1.1-3s-0.4-1.7-1.6-2.2
			c-3.6-1.5-7.1-3.4-10.3-5.6c-2-1.3-3.9-2.7-5.6-4.4c-1.4-1.4-2.8-2.8-4.3-4.2c-1.5-1.4-2.7-3-4-4.5c-0.7-0.8-1.1-1.7-1.7-2.5
			c-1.4-1.8-2.6-3.6-3.8-5.5c-0.9-1.3-1.7-2.7-2.4-4.2c-1-1.9-1.7-3.8-2.6-5.7c-0.1-0.2-0.3-0.6,0.1-0.7s0.5,0.2,0.6,0.5
			c0.1,0.6,0.3,1.1,0.6,1.7c0.8,1.3,1.7,2.5,2.5,3.7c1.4,2,3.1,3.7,5,5.3c1.5,1.2,3.1,2.3,4.7,3.3c0.2,0.1,0.5,0.4,0.6,0.2
			s-0.2-0.4-0.3-0.6s-0.4-0.5-0.6-0.7c-0.7-1-1.3-2.1-2.1-3c-1.5-2-3-4.1-4.2-6.3c-1-1.6-1.8-3.4-2.7-5c-0.3-0.7-0.6-1.4-0.9-2.1
			c-0.1-0.2-0.2-0.5,0.1-0.7s0.4,0.1,0.4,0.2c0.9,1.7,1.9,3.4,2.8,5.1c0.8,1.6,1.7,3.2,2.8,4.8c0.7,1.1,1.2,2.4,2.3,3.2
			c0,0,0.1,0.1,0.1,0.2c0.4,1,0.9,1.9,1.6,2.7c1.4,2,3.1,3.9,4.9,5.6c0.9,0.8,1.5,1.9,2.5,2.6c0.7,0.4,1.3,0.9,1.9,1.5
			c1,1,2.4,1.6,3.4,2.6c0.8,0.5,1.6,1,2.5,1.4c0.6,0.5,1.2,1,1.9,1.3c0.6,0.2,1.2,0.4,1.8,0.6c0.2,0.1,0.4,0.2,0.6,0.1
			s0.1-0.4,0.1-0.6c-0.3-1.8-0.7-3.6-1-5.4c-0.1-0.7-0.1-1.5-1.2-1.3c-0.1,0-0.2-0.1-0.2-0.1c-1.8-0.8-3.4-1.8-4.9-3.1
			c-2.4-1.8-4.8-3.6-6.6-6c-1.3-1.7-2.8-3.1-3.9-4.9c-0.4-0.7-0.8-1.6-1.7-1.9c-0.3-0.1-0.7-0.1-1-0.3c-1.3-0.7-2.6-1.6-3.7-2.7
			c-2.4-2.4-4.5-5.1-6.2-8c-0.2-0.3-0.4-0.7-0.4-1.2c0-0.2,0-0.3,0.2-0.3s0.3-0.1,0.4,0.1c0.1,0.4,0.4,0.6,0.6,1
			c1.1,2,2.4,3.9,3.9,5.7c0.8,1.1,1.8,2,2.9,2.7c0.8,0.8,1.8,1.4,2.9,1.9c-0.1-0.2-0.1-0.3-0.2-0.3c-1-1.6-2.1-3.1-3-4.7
			c-1.3-2.3-2.4-4.7-3.3-7.2c-0.1-0.3-0.3-0.5,0.1-0.7s0.4,0.2,0.5,0.4c0.4,1.1,0.8,2.1,1.4,3.1c0.9,1.2,1.1,2.6,1.9,3.8
			c0.5,0.8,0.9,1.7,1.5,2.6c0.9,1.4,1.9,2.8,2.9,4.2c0.6,1,1.3,1.9,2,2.7c0.9,0.9,1.7,1.8,2.4,2.8c0.4,0.7,0.9,1.3,1.6,1.8
			c1,0.8,1.9,1.7,3,2.4s2,1.9,3.2,2.6c0.3,0.2,0.6,0.4,0.8,0.6c1,0.8,2.1,1.4,3.3,1.9c0.2,0.1,0.5,0.1,0.4-0.3
			c-0.1-1.6-0.2-3.2-0.3-4.9c-0.1-1.2-0.3-2.1-1.6-2.7c-1.6-0.7-2.8-2.1-4.1-3.3c-2-1.7-3.7-3.7-5.3-5.7c-1-1.2-1.4-2.8-2.7-3.7
			c-1.3-0.9-2.6-2-3.7-3.2c-1.7-1.8-3.1-3.7-4.4-5.8c-0.8-1.2-1.4-2.5-2-3.9c-0.1-0.3-0.1-0.4,0.2-0.6s0.4-0.1,0.5,0.2
			c0.4,0.9,0.8,1.7,1.3,2.5c0.6,1.1,1.3,2.3,2,3.4c1.1,1.6,2.4,3.1,3.7,4.6c0.6,0.5,1.2,1.1,1.8,1.5c-0.1-0.3-0.1-0.4-0.1-0.4
			c-0.8-1-1.4-2.1-1.9-3.3c-0.8-1.6-1.6-3.1-2.3-4.7c-0.5-1-0.8-2.2-1.2-3.3c-0.1-0.2-0.1-0.6,0.2-0.7c0.4-0.1,0.3,0.3,0.4,0.5
			c0.3,0.7,0.5,1.4,0.7,2c0.6,1.4,1.3,2.8,2.1,4.2c0.8,1.4,1.4,2.9,2.3,4.2c1.4,1.9,2.5,4,3.8,5.9c0.2,0.3,0.5,0.5,0.7,0.8
			c1.5,1.9,3.2,3.7,5,5.3c1.1,1,2.3,1.9,3.6,2.8c0.2,0.1,0.4,0.5,0.7,0.3s0.1-0.5,0.1-0.7c-0.2-1.2-0.3-2.3-0.3-3.5
			c-0.1-1.4-0.3-2.8-0.5-4.2c0-0.1-0.1-0.3-0.2-0.3c-1.3-0.6-2.5-1.6-3.4-2.7c-0.8-0.7-1.5-1.5-2.2-2.3c-1.6-1.6-2.9-3.4-4-5.4
			c-0.8-1.5-1.9-2.8-3.2-3.8c-0.3-0.2-0.6-0.5-0.9-0.8c-0.9-1.2-1.8-2.4-2.6-3.6c-0.8-1.2-1.5-2.4-2-3.8c-0.1-0.3,0-0.7,0.4-0.8
			s0.4,0.3,0.5,0.5c0.3,0.9,0.8,1.8,1.1,2.6c0.7,1.1,1.4,2.2,2.2,3.3c0.6,0.8,1.2,1.6,1.9,2.3c0.1,0.1,0.2,0.1,0.4,0.2
			c0-0.1,0-0.3,0-0.3c-0.4-0.7-0.6-1.4-1-2c-0.7-1.1-1.2-2.4-1.6-3.6c-0.1-0.4-0.5-1-0.1-1.1s0.7,0.6,0.8,1c0.4,1.8,1.6,3.2,2.3,4.9
			c0.5,1.1,1.2,2,1.7,3.1c0.6,1.4,1.4,2.7,2.2,4c0.9,1.2,2,2.3,2.9,3.4c1.3,1.5,2.7,2.8,4.2,4.1c0.1,0.1,0.3,0.3,0.5,0.2
			s0.1-0.3,0.1-0.5c-0.2-1.6,0-3.2-0.1-4.8c-0.1-1.1,0.1-2.2-1.1-2.9c-0.4-0.3-0.8-0.6-1.1-1c-1.5-1.3-2.7-2.8-3.8-4.5
			c-1.6-2.1-3-4.4-4-6.9c-0.8-1.7-1.4-3.5-1.9-5.3c0-0.2-0.1-0.3,0.1-0.4s0.4,0.1,0.4,0.2c0,0.6,0.5,1,0.5,1.5
			c0.3,1.5,0.9,3,1.6,4.3c0.8,1.8,2.1,3.5,3,5.3c0.7,1.1,1.5,2.1,2.4,3c0.8,1.3,1.9,2.4,3.2,3.3c0.4,0.3,0.4,0.1,0.4-0.2
			c0-1-0.1-2.1-0.1-3.2c0-1.5,0.1-3,0.1-4.6c-0.1-2-0.1-4.1-0.1-6.2c0-0.3,0-0.5-0.2-0.7c-1.3-0.9-1.7-2.8-3.5-3.2
			c-0.1,0-0.1-0.1-0.2-0.2c-0.6-0.6-1.2-1.2-1.7-1.9c-1-1.2-1.9-2.5-2.6-3.9c-0.3-0.5-0.5-1-0.8-1.6c-0.7,1.7-1.1,3.4-1.6,5
			c-0.2,0.7-0.8,0.9-1.5,0.4c-0.4-0.3-0.8-0.3-1,0.1c-0.6,1-1.4,1.9-1.5,3.2c0,0.5-0.3,1-0.8,1.2c-0.5,0.3-0.7-0.2-0.9-0.5
			c-0.4-0.5-0.7-0.3-0.9,0.2c-0.2,0.6-0.4,1.1-0.8,1.6c-0.4,0.5-0.7,1.2-0.7,1.9c0,0.5-0.2,1-0.6,1.4c-0.4,0.3-0.8-0.3-1.1-0.5
			s-0.6-0.4-0.8,0c-0.7,1.2-1.1,2.4-1.3,3.8c-0.1,0.8-0.5,1.2-1.3,0.8c-0.4-0.2-0.7-0.1-0.9,0.3s-0.3,0.7-0.5,1.1
			C9,61.8,8.7,62.9,8.3,64c-0.1,0.3-0.3,0.7-0.7,0.6c-0.8-0.1-1,0.4-1.1,1c-0.2,1.1-0.3,2.2-0.4,3.2C6,69.5,6,70.4,4.9,70.4
			c-0.3,0-0.5,0.2-0.5,0.5c0,0.1,0,0.1,0,0.2c0.1,0.3,0,0.6-0.1,0.8c-0.1,0.3-0.2,0.7-0.2,1c0.2,0.9,0.2,1.8,0,2.7
			c-0.2,0.5-0.5,0.8-1,0.6c-0.4-0.1-0.3,0-0.4,0.3c-0.2,0.7-0.2,1.3-0.2,2c-0.1,1.4,0,2.9,0.3,4.3c0.1,0.8,0,1.3-0.9,1.4
			c-0.4,0-0.4,0.2-0.4,0.5c0.1,1.4,0.3,2.8,0.6,4.2c0.1,0.6,0,1.3-0.4,1.4c-0.6,0.2-0.6,0.6-0.6,1c-0.2,2.2,1.4,3.6,2.3,5.3
			c0.3,0.5,0.5,1,0.7,1.5c0.3,0.9-0.6,0.8-1,1c-0.2,0.1-0.2,0.2-0.1,0.4c0.3,0.4,0.5,0.9,0.8,1.4c0.9,1.2,1.8,2.5,2.8,3.8
			c0.6,0.8,0.7,1.2-0.1,1.8c-0.2,0.1-0.3,0.2-0.2,0.5c0.3,0.5,0.6,0.9,1,1.4c0.7,1,1.5,1.9,2.4,2.7c0.9,0.7,0.9,1.4-0.1,2
			c-0.2,0.1-0.2,0.3-0.1,0.4c0,0,0,0.1,0,0.1c1,1.4,2.4,2.4,3.4,3.6c0.4,0.5,1.3,0.9,0.6,1.8c-0.1,0.2,0,0.4,0.2,0.6
			c0.4,0.3,0.7,0.7,1.1,1c0.7,0.7,1.8,0.8,2.2,1.8c0.1,0.3,0.6,0.5,0.6,0.9c0,0.2,0.1,0.4,0.2,0.5c0.8,0.7,1.6,1.3,2.5,1.8
			c0.4,0.2,0.8,0.4,1.1,0.1c0.4-0.3,0.8-0.4,1.3-0.3c0.9,0.1,1.9,0.1,2.8,0c2.5-0.2,5-0.7,7.5-1.5c0.4-0.1,1,0.2,1-0.4
			s-0.7-0.4-1-0.6c-2.3-1.3-4.8-2.3-7.4-2.9c-2.4-0.6-4.8-1.4-7-2.5c-1-0.5-1.9-1-2.9-1.4c-1.7-0.8-3.2-1.8-4.7-3
			c-0.2-0.2-0.4-0.4-0.2-0.7s0.4,0,0.6,0.1c1.1,0.6,2,1.5,3.1,2.2s2.1,0.8,3,1.6c0.6,0.4,1.3,0.8,2,1c1.1,0.5,2.3,0.7,3.4,1.2
			C24,118.8,25.1,119.1,26.2,119.2z M71.9,53.4c-0.2-1.6-0.6-3.1-1.4-4.4c-0.2-0.4-0.7-0.7-1.1-0.5c0,0,0,0,0,0
			c-0.4,0.2-0.6,0-0.8-0.4c-0.4-0.8-0.9-1.6-1.4-2.5c-0.2-0.3-0.4-0.3-0.5,0c-0.2,0.4-0.4,0.8-0.5,1.3c-0.1,0.3-0.2,0.6-0.5,0.5
			s-0.2-0.4-0.2-0.6c0.1-0.6,0.3-1.1,0.4-1.7c0.1-0.3,0.4-0.7,0.1-1.1c-0.7-0.7-1.3-1.5-2.5-1.1c-0.3,0.1-0.5,0-0.7-0.1
			c-0.6-0.7-0.6,0-0.8,0.3c-0.3,0.7-0.5,1.5-0.8,2.2c-0.4,1-0.9,2-1.3,3c-0.1,0.2-0.1,0.3,0,0.4s0.3-0.1,0.4-0.2s0.4-0.3,0.6-0.2
			c0.2,0.2,0.1,0.5-0.1,0.6c-0.4,0.4-0.7,0.8-1.1,1.2c-0.9,1-1.8,1.9-2.7,2.9c-1,1.2-2.1,2.3-3.2,3.4c-0.6,0.5-1.3,0.8-1.7,1.5
			c-1.1,2-2.5,3.8-3.8,5.7c-0.9,1.5-2,2.8-3,4.2c-0.9,1.2-1.6,2.5-2.6,3.6c-1.3,1.6-2.7,3.1-4.2,4.5c-0.5,0.3-0.7,0.8-0.6,1.4
			c0.2,1.2,0.3,2.3,0.5,3.5s0.3,2.6,0.5,3.9c0,0.4,0.3,0.4,0.5,0.2c0.7-0.5,1.4-1.1,2-1.7c1.6-1.6,3-3.3,4.6-4.9
			c1-1.2,1.9-2.4,2.7-3.7c1.1-1.5,2.2-3.1,3.3-4.6c0.7-1,1.4-2,2-3.1c0.8-1.5,1.6-2.9,2.6-4.3c1.3-1.6,2-3.4,3.2-5
			c0.5-0.8,0.9-1.6,1.4-2.4c0.8-1.2,1.4-2.5,1.9-3.9c0.5-1.2,1-2.3,1.5-3.4c0-0.2,0.2-0.3,0.4-0.3c0,0,0,0,0,0
			c0.2,0.1,0.4,0.3,0.3,0.6c0,0,0,0,0,0C65,48.8,65,49,64.8,49.2c-0.6,1-0.9,2.1-1.3,3.1c-0.3,0.7-0.6,1.5-1,2.2c-0.6,1-1.2,2-1.7,3
			c-0.4,0.8-0.9,1.5-1.3,2.3c-0.6,1.1-1.3,2.2-2,3.3c-0.2,0.3-0.7,0.7-0.4,1c0.4,0.3,0.5-0.4,0.7-0.7c0.5-0.7,1.3-1.1,1.8-1.8
			c1-1.3,2.2-2.3,3.1-3.5s2.2-2.6,3.2-3.9c0.8-1.1,1.6-2.2,2.4-3.3c0.1-0.2,0.4-0.3,0.6-0.2s0,0.3-0.1,0.5c-0.3,0.4-0.6,0.8-0.9,1.3
			c-0.6,1.1-1.2,2.1-2,3c-0.5,0.8-1.1,1.5-1.7,2.2c-1,1-1.9,2.1-2.5,3.4c-0.2,0.5-0.5,1.2-1.3,1.1c-0.3-0.1-0.6,0-0.8,0.3
			c-0.7,0.8-1.4,1.5-2.1,2.3c-1,1-2,2-3,2.9c-0.5,0.4-0.6,1.1-1,1.6c-1.2,1.5-2.3,3.1-3.4,4.6s-2,2.8-2.9,4.3
			c-0.7,1-1.8,1.7-2.6,2.7c-0.7,0.9-1.5,1.8-2.4,2.6c-1,1-2.1,1.9-3.2,2.9c-0.3,0.2-0.4,0.6-0.4,1c0.1,1.1,0.2,2.1,0.4,3.2
			c0.2,1,0.4,2,0.5,3.1c0.1,0.6,0.4,0.7,0.8,0.3s1-1,1.6-1.5c1.5-1.2,2.9-2.5,4.2-3.9c1.8-1.9,3.6-3.7,5.3-5.6
			c2.2-2.6,4.2-5.3,6.3-7.8c1.3-1.6,2.4-3.4,3.7-5.1c0.8-1.1,1.5-2.1,2.3-3.2c1.1-1.5,1.7-3.3,3-4.7c1.6-1.8,2.4-4.2,3.6-6.3
			c0.3-0.5,0.4-1.1,0.8-1.5C71.8,54.1,71.9,53.7,71.9,53.4z M9,80.5c0,0-0.1,0-0.1,0.1s0,0.3,0.1,0.4c0.9,1.2,1.8,2.4,2.5,3.7
			c1,1.6,2.1,3.1,3.3,4.7c0.5,0.7,1.2,1.3,1.7,2.1c0.5,0.8,1.1,1.6,1.8,2.2c1.3,1.3,2.5,2.7,3.9,4s2.7,2.6,4.1,3.8
			c1.1,1,2.4,1.8,3.7,2.4c2,1,3.8,2.6,5.8,3.6c0.6,0.4,1.3,0.7,1.9,1c0.7,0.3,1.4,0.6,2.1,0.9c0.1,0,0.2,0,0.3,0.1
			c0-0.1,0-0.3,0-0.4c-0.5-1.9-1-3.9-1.5-5.8c-0.2-0.6-0.3-1.2-1.1-1.3c-1.5-0.3-2.9-1-4.1-1.9c-2.2-1.4-4.3-2.9-6.3-4.5
			c-0.8-0.6-1.6-1.2-2.3-1.9c-0.8-1-1.8-1.7-2.5-2.7c-0.5-0.8-1.2-1.5-2.1-2c-1.2-0.6-2.4-1.3-3.6-2c-2.3-1.4-4.5-3.2-6.3-5.3
			C9.8,81.4,9.4,80.9,9,80.5z M30.3,46.5c-0.4-0.7-0.8-1.4-1.3-2c-0.7-1.2-1.3-2.5-1.8-3.8c-0.1-0.2,0-0.5,0.3-0.6
			c0.3-0.1,0.3,0.2,0.4,0.3c0.6,1.8,1.4,3.5,2.5,5.1c0.9,1.7,2.1,3.3,3.5,4.7c0.1,0.1,0.2,0.2,0.3,0.2s0.1-0.2,0.1-0.4
			c0-1.6-0.1-3.2-0.1-4.8c0.2-1.1-0.2-2.2-1-3c-0.3-0.3-0.6-0.6-0.8-1c-0.1-0.2-0.3-0.5-0.1-0.6s0.5,0,0.7,0.2
			c0.3,0.4,0.6,0.8,1,1.3c0.1,0.1,0.2,0.2,0.3,0.2s0.2-0.2,0.2-0.3c0-1,0.1-2,0.1-2.9c0-0.9,0-1.7,0.2-2.5c0.2-0.6,0-1.2-0.6-1.5
			c-0.5-0.4-0.9-0.9-1-1.5c-0.1-0.2-0.1-0.5,0.2-0.6s0.4,0.2,0.5,0.3c0.2,0.3,0.4,0.7,0.5,1.1c0.1,0.2,0.1,0.3,0.3,0.3
			s0.2-0.2,0.2-0.4c-0.1-0.4-0.1-0.8-0.1-1.1c-0.1-1.7,0.1-3.4-0.1-5s0-3.1-0.1-4.7c0-1.1-0.1-2.3,0-3.4s-0.5-2-0.4-3.1
			c0.1-0.9,0.1-1.8,0.1-2.7c0-0.8-0.1-1.5-0.3-2.3c0-0.2-0.1-0.4-0.3-0.4s-0.2,0.1-0.2,0.2c-0.1,1.6-0.4,3.1-0.8,4.7
			c-0.2,0.9,0.2,1.7,0,2.5c-0.3,1.2-0.5,2.5-0.6,3.7c0,1.9-1.1,3.6-1,5.6c0,0.4-0.1,0.8-0.2,1.1c-0.1,0.5-0.3,1.3-0.6,1.4
			c-0.9,0.1-1,0.5-1.2,1.3c-0.4,1.4-0.6,2.8-0.7,4.3c0,0.6-0.2,1.3-0.5,1.8c-0.3,0.5-0.7,0.8-1.3,0.4c-0.3-0.2-0.6-0.2-0.7,0.3
			c0,0.3-0.1,0.6-0.3,0.8c-0.1,0.2-0.1,0.8,0,0.8c0.9,0.3,1,1.2,1.4,1.8C27.8,43.8,28.9,45.3,30.3,46.5z M34.3,133.8h0.5
			c0,0,0.1,0,0.2-0.1c1.5-0.5,2.8-1.5,3.8-2.8c0.9-0.9,1.6-1.9,2.2-3.1c0.2-0.5,0.5-0.9,0.9-1.2c0.3-0.2,0.4-0.5,0.3-0.8
			c0-0.2-0.2-0.3-0.5-0.4c-1.5-0.2-2.9-0.5-4.3-1.1c-0.7-0.3-1.6-0.8-2.3-0.5c-1.1,0.6-2.7,0.3-3.2,1.8c-0.1,0.3-0.5,0.3-0.8,0.6
			c-0.6,0.8-1.2,1.5-1.9,2.2c-0.8,0.7-1.8,1.1-2.8,1.2c-0.2,0-0.3,0.1-0.3,0.3c0,0,0,0,0,0c0,0.1,0,0.3,0.1,0.3c0.3,0,0.6,0.3,1,0.3
			c0.7,0,1.7,0.9,1.5,1.3c-0.3,0.7,0,0.7,0.5,0.9C31,133.5,32.7,133.3,34.3,133.8L34.3,133.8z M35.4,59.6c-0.3,0.2-0.3,0.5-0.3,0.7
			c0,1.8,0,3.6,0.1,5.4c0,0.8-0.4,1.5-0.2,2.2c0.3,1.8,0.4,3.5,0.5,5.3c0.1,1.2-0.2,2.3,0.1,3.4c0.3,0.7,0.4,1.4,0.4,2.1
			c0,1.5,0.1,2.9,0.3,4.4c0.2,2.2,0.6,4.3,0.7,6.5c0.1,2.1,0.4,4.2,0.8,6.2c0.2,1.2,0.6,2.4,0.7,3.7c0.1,1,0.4,2.1,0.7,3.1
			c0.3,1.1,0.6,2.3,0.8,3.4c0.5,2.1,1.1,4.1,1.9,6.1c0.4,1.2,0.9,2.4,1.2,3.6c0.4,1.4,2,2.1,1.7,3.7l0,0c0.2,0.5,0.4,1,0.6,1.4
			c0.5,0.8,0.7,1.8,1.2,2.7c0.8,1.3,1.5,2.7,2.3,4.1c0.5,0.9,1,1.8,1.7,2.7c0.8,1,1.6,2.1,2.3,3.2c1.1,1.4,2.1,3,3.1,4.5
			c0.1,0.2,0.4,0.4,0.6,0.4c0.3,0,0.3-0.3,0.4-0.5c0.4-0.9,1-1.8,1.7-2.5c0.2-0.3,0.8,0,0.8-0.3s-0.7-0.1-1-0.3c0,0-0.1,0-0.2,0
			c-2-0.3-3.9-1.3-5.2-2.8c-1.4-1.5-2.5-3.2-3.5-5c-1.2-2-2-4.1-3-6.2c-1.1-2.4-1.9-4.9-2.9-7.3c-0.8-2-1.4-4-2-6
			c-0.7-2.4-1.3-4.9-2-7.4c-0.6-1.8-1-3.7-1.3-5.6c-0.3-1.9-0.5-3.7-0.9-5.6c-0.3-1.4-0.2-2.9-0.4-4.3c-0.4-2.4-0.3-4.8-0.7-7.1
			c-0.1-0.6-0.5-1.2-0.3-1.8c0.1-0.8,0.1-1.6,0-2.3c-0.1-3.3-0.6-6.7-0.6-10C35.7,62.1,35.7,60.9,35.4,59.6L35.4,59.6z M31,125.3
			c-1.2,0.2-2.3,0.3-3.5,0.6c-1.4,0.3-2.9,0.3-4.4,0.2c-0.4,0-0.9-0.3-1,0s0.4,0.6,0.7,0.8s0.6,0.6,0.2,1s-0.2,0.5,0.1,0.7
			c0.2,0.1,0.3,0.2,0.5,0.3c0.7,0.5,1.4,1.3,2.3,0.3c0.4-0.4,1-0.2,1.4-0.4C29,128,29.8,126.5,31,125.3z M35.3,46.5
			c0-0.8,0-1.6,0-2.5c0-0.1,0.1-0.4-0.2-0.4S35,43.9,35,44c0,1.6,0,3.3,0,4.9c0,0.1,0,0.3,0.2,0.3s0.2-0.2,0.2-0.3
			C35.4,48.1,35.4,47.3,35.3,46.5L35.3,46.5z M35.3,54.5c-0.1-1.7,0.3-3.2,0-4.9C34.8,50.4,34.7,53.7,35.3,54.5L35.3,54.5z
			 M60.6,136.9c0.3-0.1,0.7,0.1,0.6-0.4S61,136,60.6,136c-0.2,0-0.5-0.1-0.4,0.2S60.1,137.1,60.6,136.9L60.6,136.9z M35.5,58.8
			c0-0.8,0-1.5,0-2.3c0-0.1-0.1-0.2-0.1-0.2s-0.2,0.1-0.2,0.2C35.5,57.3,34.9,58.1,35.5,58.8z M35.5,41.2c-0.3,0.3-0.2,0.6-0.2,0.9
			C35.5,41.8,35.6,41.5,35.5,41.2L35.5,41.2z M35.5,39L35.5,39v0.8l0,0V39z M59.5,136.5l-0.1-0.1c0,0-0.1,0.1-0.1,0.1s0,0.1,0,0.1
			L59.5,136.5z M61,101.2l-0.1,0.2H61C61,101.3,61.1,101.2,61,101.2L61,101.2z M59.1,136.9l0.1-0.1l-0.1-0.1L59.1,136.9
			C59.1,136.9,59.1,136.9,59.1,136.9L59.1,136.9z"/>
		<path class="st0" d="M148,136.1c0.2,1.1,0.6,2.3,1.1,3.3c0.3,0.8,0.5,1.7,0.6,2.6c0.1,0.5,0.3,0.9,0.5,1.4
			c0.1,0.2,0.2,0.3-0.1,0.4s-0.3-0.1-0.4-0.2c-0.4-0.6-0.2-1.4-0.5-2c-0.1-0.3-0.2-0.5-0.4-0.7c-0.1,0.4-0.1,0.8,0.1,1.2
			c0.3,1.1,0.7,2.1,1,3.2s0.5,2.1,0.7,3.2c0.1,0.5-0.2,0.9-0.4,1.3c-0.1,0.1-0.2,0.1-0.4,0.1c-0.2-0.1-0.3-0.3-0.3-0.6
			c0.1-1.1,0-2.1-0.4-3.2c-0.4-1-0.7-2.1-1-3.1c-0.6-2-1.4-3.9-1.9-6s-1.3-4-1.9-6c-0.5-1.6-1-3.2-1.5-4.8c-0.6-2-1.3-4-1.9-6.1
			c-0.9-3.4-2.1-6.8-2.7-10.3c-0.3-1.8-1.1-3.6-1.6-5.4c-0.7-2.7-1.4-5.5-2-8.3c-0.5-2.2-0.8-4.3-1.1-6.5s-0.6-4.5-0.8-6.8
			c-0.2-1.8-0.3-3.6-0.3-5.3c0-1.3-0.2-2.6-0.1-3.9s0.2-2.7,0.2-4s0-2.7,0.2-4.1c0.1-2.4,0.4-4.9,0.8-7.3c0.3-1.4,0.3-2.9,0.6-4.3
			c0.2-1.1,0.5-2.2,0.7-3.3c0.4-2.2,1-4.4,1.5-6.5c0.8-2.9,2-5.7,3.6-8.3c1.1-1.9,2.3-3.8,3.3-5.7c1.6-3,3.7-5.6,5.5-8.4
			c1.1-1.7,2.1-3.4,3-5.1c0.6-1.2,1.4-2.4,2-3.6s1.2-2.5,1.7-3.8c0.6-1.4,1.4-2.8,1.9-4.3s1.9-2.6,2.5-4.1c0.3-0.5,0.8-0.9,1.4-1
			c0.8-0.3,1.5,0.4,1.5,1.5c0,1.2-0.1,2.3-0.3,3.5c-0.2,1.2-0.4,2.3-0.4,3.5c-0.2,2.8-0.2,5.6,0,8.4c0.1,2.4,0.3,4.8,0.6,7.2
			c0.2,0.9,0.4,1.9,0.7,2.8c0.6,1.8,1.4,3.6,2.4,5.2c0.9,1.6,1.6,3.2,2.4,4.8c0.6,1.3,1.1,2.7,1.4,4.1c0.3,1.4,0.3,2.8,0.8,4.2
			c0.2,1,0.3,2,0.2,2.9c0,1.2,0.2,2.5,0.1,3.7c-0.1,1.1,0.1,2.2,0,3.2c-0.1,1.3-0.1,2.7,0,4c0,2-0.2,4-0.2,6s-0.2,3.8-0.1,5.8
			c0.1,2.6,0.1,5.3,0,7.9c0,1.2-0.1,2.5-0.1,3.7s-0.1,2.6-0.1,3.8c-0.1,1.8-0.1,3.6-0.4,5.3c-0.3,2.8-0.7,5.7-1.1,8.5
			c-0.3,1.9-0.7,3.8-1.2,5.7c-0.3,1.2-0.5,2.5-0.7,3.8c-0.3,1.4-0.7,2.8-1.2,4.1c-0.6,1.8-1.4,3.7-1.9,5.5c-1,2.9-2.2,5.8-3.5,8.6
			c-1.2,2.4-2.1,4.9-2.8,7.5c-0.3,1.6-0.5,3.3-0.8,4.9c-0.4,2.7-0.7,5.3-0.9,8c0,0.3-0.2,0.5-0.5,0.5c-0.3,0-0.5-0.2-0.5-0.5
			c0-1,0.1-2,0.4-2.9c0.1-0.2,0.1-0.4,0.1-0.6c0.1-1.6,0.3-3.3,0.6-4.9c0,0,0,0,0-0.1c0-0.4,0.2-1.1-0.1-1.1c-0.5,0-0.1,0.6-0.2,0.9
			c-0.4,1.7-0.6,3.5-0.7,5.3c-0.1,1.1-0.2,2.3-0.4,3.4c0,0.2,0,0.4-0.3,0.4s-0.1-0.3-0.1-0.4c0-0.4-0.1-0.9-0.4-1.2
			c-0.3-0.3,0.1-0.7,0.1-1c0.1-0.9,0.1-1.9-0.1-2.8c-0.2-1.1-0.2-2.1-0.1-3.2c0-1-0.1-2-0.3-3c-0.2,0.2-0.3,0.4-0.2,0.7
			c0,3.6,0,7.1,0.1,10.7c0,0.4-0.1,0.7-0.6,0.9s-0.6-0.2-0.8-0.5c-0.6-0.6-0.2-1.5-0.4-2.2c-0.4-1.9-0.8-3.8-1.1-5.7
			c-0.2-1.2-0.4-2.4-0.6-3.6c-0.2-1.3-0.5-2.5-0.9-3.8c-0.1-0.1-0.1-0.3-0.3-0.3s-0.1,0.3-0.1,0.4c0.2,0.7,0.3,1.4,0.4,2.1
			C148.5,135.9,148.4,136,148,136.1c-0.4-2.1-0.9-4.1-1.4-6c-0.5-2.2-1-4.4-1.6-6.5c-0.8-3.3-1.7-6.6-2.5-9.9
			c-0.6-2.4-0.9-4.8-1.6-7.2c-0.5-1.8-0.7-3.6-1.2-5.4c-0.4-1-0.6-2.1-0.8-3.1c-0.3-1.8-0.6-3.6-1.1-5.4c-0.5-2.3-0.8-4.6-0.9-6.9
			c0-1.1-0.1-2.3-0.3-3.4c-0.4-2.3-0.5-4.6-0.8-6.8c-0.2-1.7-0.2-3.4-0.3-5.1c-0.1-1.5-0.1-3.1,0-4.6s0.1-3.2,0.1-4.8
			c0.1-2,0.6-3.9,0.4-5.9c0-0.1,0-0.2,0.1-0.2c0.3-1.4,0.4-2.9,0.3-4.3c-0.3,0.8-0.5,1.7-0.4,2.6c-0.3,1.8-0.4,3.7-0.6,5.5
			c-0.3,3-0.5,6.1-0.5,9.1c0,3.5,0.2,7,0.4,10.6c0,0.4,0,0.9,0,1.3c0.3,2.9,0.7,5.7,1,8.6c0.1,1.5,0.6,3,0.8,4.5
			c0.3,2.1,0.9,4.2,1.3,6.3c0.4,1.9,0.9,3.8,1.3,5.8c0.2,1.2,0.6,2.3,0.9,3.5c0.4,1.8,0.6,3.6,1.2,5.3c1,3,1.4,6.1,2.4,9.1
			c1.2,3.9,1.9,7.9,3.3,11.7C147.6,134.8,147.5,135.6,148,136.1z M142.4,108.8L142.4,108.8L142.4,108.8L142.4,108.8
			c0-0.3,0-0.6,0-0.8c0-0.1-0.1-0.1-0.1-0.2c-0.1,0-0.2,0-0.2,0.1C142.1,108.2,141.9,108.7,142.4,108.8L142.4,108.8z M161.4,30.3
			c0.1,0.7,0.2,1.2,0.3,1.8c0.6,2.8,0.9,5.7,1.3,8.6c0,0.1,0,0.2,0.1,0.3c0.2,1.4,0.7,2.8,0.7,4.3c0,1.5,0.1,3.1,0.4,4.6
			c0.5,3.2,0.4,6.4,0.7,9.6c0.2,2-0.1,4.1,0.1,6.2c0.1,2.1,0,4.2-0.1,6.3c0,1.6,0,3.2-0.1,4.8c-0.2,2.6-0.1,5.2-0.4,7.8
			c-0.2,2-0.2,3.9-0.3,5.9c-0.1,1.2-0.3,2.5-0.5,3.7c-0.2,1.5-0.6,3-0.8,4.5c-0.2,1.4-0.5,2.8-0.9,4.2c-0.4,1.7-0.7,3.5-1.2,5.2
			s-0.7,3.2-1.1,4.8c-0.5,2-0.5,4-1.3,6c-0.2,0.8-0.4,1.6-0.5,2.4c-0.6,2.3-1,4.7-1.6,7c-0.4,1.4-0.7,2.9-0.9,4.4
			c0,0.2,0,0.7-0.4,0.6s-0.1-0.4-0.2-0.7c0-0.1,0-0.2,0-0.3c0.3-1.5,0.6-3.1,0.9-4.6c0.3-1.7,0.7-3.5,1.1-5.2
			c0.2-1.2,0.6-2.4,0.7-3.6c0.3-1.9,0.6-3.8,1-5.8c0.2-0.8,0.7-1.5,0.8-2.3c0.2-1.4,0.6-2.7,0.9-4c0.4-1.8,0.8-3.5,1.2-5.2
			c0.4-2.1,0.6-4.2,1.1-6.3c0.5-2.7,0.8-5.4,0.9-8.1c0.1-1.9,0.2-3.9,0.5-5.8c0.3-2.6,0-5.2,0.3-7.9c0.2-1.4,0-3,0.1-4.4
			c0-0.6,0-1.3,0-1.9c0.1-1.6,0.1-3.2,0-4.8c0-1.3-0.2-2.7-0.3-4c-0.3-3-0.2-6.1-0.5-9.2c-0.2-2.8-0.6-5.5-1.1-8.2
			c-0.5-2.8-0.7-5.6-1.4-8.4c-0.4-1.9-0.7-3.7-1.3-5.6c-0.1-0.4,0.1-0.9-0.4-1.2c0,0.4,0,0.7,0,1.1c0.2,2.5,0.2,5,0.6,7.5
			c0.3,1.8,0.4,3.7,0.6,5.6c0.1,0.8,0.2,1.7,0.1,2.5c-0.1,0.6-0.2,1.2-0.2,1.8c0.1,0.9,0.2,1.8,0.2,2.7c0.1,4,0.1,8,0.1,12
			c0,0.8-0.1,1.7,0,2.5c0.1,3.8,0.1,7.5,0.1,11.3c0,2.7-0.2,5.3-0.3,8c-0.1,1.4-0.2,2.8-0.3,4.3c-0.2,2.2-0.3,4.4-0.5,6.6
			c-0.1,1.5-0.2,2.9-0.4,4.4c-0.3,2.1-0.3,4.2-0.6,6.3c-0.2,1.2-0.2,2.4-0.4,3.5c-0.5,2.4-0.5,4.9-0.9,7.3c-0.2,1.2-0.3,2.3-0.6,3.5
			s-0.4,2.5-0.6,3.8c-0.3,1.4-0.4,2.9-0.6,4.4c0,0.2,0,0.4-0.3,0.4s-0.1-0.3-0.1-0.5c-0.1-1.3,0.4-2.5,0.4-3.7
			c0.1-1.9,0.4-3.9,0.8-5.7c0.5-2,0.4-4.1,0.7-6.1s0.7-4,0.9-6.1c0-0.7,0.1-1.4,0.2-2.1c0.2-1.8,0.5-3.7,0.7-5.5s0.3-3.7,0.5-5.6
			c0.2-2.1,0.4-4.2,0.6-6.3c0.1-1.8,0-3.6,0.2-5.4c0.2-2,0.3-4,0.2-6c-0.1-2.5-0.1-5.1,0-7.6c0.1-1.2,0-2.5,0-3.7
			c0-1.9-0.1-3.9,0-5.8c0.1-1.9,0-3.7-0.2-5.5c0-0.2,0-0.4,0-0.7c0.1-0.6,0.1-1.3,0.1-1.9c-0.1-1.6-0.2-3.2-0.2-4.8
			c0-0.6,0.1-1.2,0.1-1.8c0-1.7-0.6-3.2-0.7-4.9c-0.2-2.8-0.5-5.6-0.7-8.5c-0.2-1.2-0.3-2.5-0.2-3.8c-0.2,0.1-0.3,0.2-0.2,0.4
			c0,1.4-0.1,2.8-0.1,4.1c0,2.4-0.1,4.8,0.1,7.2c0.1,2.2,0.1,4.4,0.1,6.7c0,2.6-0.2,5.1-0.2,7.7c0,2.4,0,4.8,0,7.2
			c0,0.2,0.1,0.6-0.3,0.6s-0.3-0.4-0.3-0.6c0.1-0.9,0.1-1.9,0.1-2.9c-0.2-1.6-0.2-3.1-0.2-4.7c0.1-1.7,0.2-3.3,0.3-4.9
			c0.1-1.1,0-2.2,0-3.3c0-2.8-0.1-5.5-0.3-8.2c-0.1-1.4-0.1-2.8-0.1-4.3c0-0.2,0-0.4-0.3-0.5c-0.3,0.9-0.5,1.8-0.6,2.7
			c0,1.9-0.2,3.7-0.4,5.6c-0.2,2.1,0,4.3-0.4,6.4c-0.3,1.5-0.3,3-0.6,4.5s-0.3,2.8-0.5,4.3c-0.3,2.5-0.3,5-0.5,7.5
			c-0.1,0.8-0.1,1.6-0.1,2.4c0,0.3-0.1,0.5-0.4,0.5s-0.3-0.3-0.3-0.5c0.2-1.5,0.3-3,0.3-4.5c0-1.1,0.1-2.2,0.2-3.3
			c0.1-1.8,0.3-3.6,0.6-5.4c0.3-2.2,0.7-4.5,0.9-6.7c0.2-2.5,0.4-5.1,0.5-7.6c-0.1-1.8,0.2-3.6,0.6-5.3c0.2-0.5,0.1-1.1-0.3-1.6
			c-0.2,1.9-0.6,3.8-1,5.7c-0.3,1.4-0.3,2.8-0.5,4.2c-0.2,0.9-0.2,1.8-0.3,2.8c-0.2,2-0.5,4.1-0.7,6.1s-0.2,4-0.4,5.9
			c-0.4,3.1-0.5,6.3-0.7,9.4c-0.1,1.8-0.3,3.5-0.4,5.2c-0.2,3-0.5,6.1-0.6,9.1c-0.1,1.6-0.2,3.3-0.2,4.9c-0.1,3.5,0,7-0.1,10.4
			c0,1.9-0.1,3.8-0.1,5.7c0.1,1,0.1,2,0.1,3c-0.1,1.7-0.1,3.3,0,5c0.1,2.2,0.2,4.4,0.3,6.6c0.2,4.2,0.6,8.4,0.8,12.6
			c0,0.2,0,0.5,0.2,0.5c0.3,0,0.2-0.3,0.2-0.5c0-1.8-0.1-3.6-0.4-5.3c-0.1-1.3-0.2-2.6-0.1-3.9c-0.1-3.5,0-6.9-0.4-10.4
			c-0.2-2.1-0.2-4.2-0.1-6.3c0-2.9,0.4-5.9,0.4-8.8c0.1-5.4-0.1-10.8,0.4-16.1c0.2-1.7,0.1-3.5,0.2-5.2c0-0.6,0.1-1.2,0.1-1.8
			c0-0.3,0.1-0.7,0.5-0.7s0.2,0.4,0.2,0.6c0,1,0,1.9-0.1,2.9c-0.1,0.8,0.1,1.6,0,2.4c-0.3,1.8-0.4,3.7-0.4,5.5c-0.1,2.3,0,4.6-0.1,7
			c-0.1,3.7-0.2,7.4-0.4,11.2c-0.1,3.3-0.1,6.5,0.1,9.8c0.1,2.4,0.2,4.7,0.2,7.1s0.3,4.8,0.5,7.2c0.1,1.3,0,2.6,0.1,3.9
			c0.2,2.8,0.4,5.7,0.6,8.5c0.1,1.3,0.1,2.7,0.3,4c0.2,2.1,0.2,4.1,0.2,6.2c0.1-0.2,0.2-0.3,0.2-0.5c0.2-2.2,0.5-4.5,1.1-6.6
			c0.3-1.8,0.8-3.5,1.4-5.2c1.8-4,3.3-8.2,4.6-12.4c0.9-2.8,1.8-5.7,2.4-8.5c0.7-2.2,1.2-4.4,1.5-6.7c0-0.5,0.2-1,0.2-1.4
			c0-0.2,0.1-0.5,0.5-0.5c0.2,0,0.4,0.1,0.3,0.3c-0.4,0.8-0.1,1.6-0.3,2.4c-0.5,1.7-0.9,3.5-1.2,5.2c-0.7,4.1-1.8,8.1-3.3,11.9
			c-0.4,1.1-1.1,2.1-1.4,3.3c-0.5,1.5-1.1,3-1.6,4.5c-0.3,0.8-0.4,1.5-0.7,2.4c0.3-0.1,0.5-0.4,0.6-0.7c0.6-1.4,1.2-2.8,1.7-4.3
			c1.1-2.9,2.4-5.7,3.3-8.6c0.6-2.2,1.4-4.4,2-6.6c0.8-2.7,1.1-5.4,1.7-8.1c0.5-2.2,0.9-4.5,1.1-6.7c0.1-2.1,0.5-4.1,0.7-6.2
			c0.1-1.7,0.2-3.3,0.1-5c0-3.3,0-6.7-0.1-10c0-1.4,0.3-2.8,0.3-4.2c0-2.1,0-4.2,0-6.4c0-1.1,0.1-2.2,0-3.3
			c-0.1-1.6,0.3-3.1,0.3-4.7c0.2-3.8,0-7.5-0.6-11.2c-0.2-1.4-0.6-2.8-1.1-4.1c-1-2.2-2.2-4.4-3.3-6.6c-0.6-1.2-1.4-2.3-2.2-3.7
			c0,0.2,0,0.3,0,0.5c0.5,1.4,0.9,2.8,1.1,4.3c0,0.3,0,0.7,0.1,1c0.9,2.2,1.7,4.4,2.6,6.5c1.3,3.1,2,6.5,2,9.9c0,3,0,6,0,9.1
			c0,0.8-0.1,1.7-0.2,2.5c-0.1,1.2-0.3,2.4-0.3,3.6c-0.2,2.7,0.1,5.5-0.2,8.3c0,0.3,0,0.7-0.4,0.7s-0.3-0.4-0.3-0.7
			c0.2-2.1,0.3-4.2,0.2-6.3c0-2,0.1-4.1,0.3-6.1c0-1.4,0-2.8,0.2-4.1c0.2-0.6,0.2-1.3,0-1.9c-0.1-0.4-0.2-0.9-0.1-1.4
			c0.1-0.8,0.1-1.7,0.2-2.6c0.3-2.3-0.4-4.6-0.8-6.9c-0.4-1.7-1-3.4-1.7-5c-0.8-2.1-1.7-4.1-2.5-6.2
			C162.3,32.8,162.3,31.5,161.4,30.3L161.4,30.3z M142,70.1c-0.1,1.8-0.1,3.6-0.1,5.4c0,2,0.1,4,0.2,6c0,1,0.2,2,0.3,2.9
			c0.2,2,0.6,4.1,0.8,6.1c0.2,2.1,0.5,4.2,1,6.3c0.4,1.6,0.4,3.3,0.9,5c0.4,1.3,0.4,2.6,0.8,3.9c0.6,2.5,0.9,5,1.5,7.4
			c0.4,1.6,0.6,3.3,0.9,5s0.6,3.5,1,5.3c0.7,3.3,1.1,6.5,1.8,9.8c0.3,1.6,0.4,3.3,0.6,4.9c0,0.2-0.1,0.5,0.2,0.5
			c0.1,0,0.2-0.3,0.2-0.5c0-1.2,0-2.4-0.1-3.6c-0.2-1,0-2.1-0.2-3.1c-0.3-1.8-0.4-3.6-0.6-5.4c-0.2-1.5-0.3-3-0.5-4.4
			c-0.2-1.6-0.5-3.2-0.8-4.8s-0.4-3.5-0.7-5.2s-0.6-3.3-0.8-4.9c-0.2-1.4-0.3-2.9-0.6-4.3c-0.4-2.2-0.8-4.5-1.1-6.7
			c-0.4-3.2-0.7-6.5-1-9.7c-0.3-3.5-0.4-6.9-0.5-10.4c-0.1-2.3,0.1-4.6,0-6.8c-0.1-1.8,0.2-3.6,0.2-5.5c0.1-3,0.4-6,0.6-9
			c0.1-1.3,0-2.5,0.1-3.8c0.1-1,0.1-2.1,0.3-3.1c0.3-2.3,0.8-4.6,1.2-6.9c0.4-2.6,1-5.1,1.4-7.7c0.4-2.2,0.9-4.3,1.5-6.4
			c0.6-2.4,1.2-4.9,1.9-7.3c0.1-0.5,0.3-1,0.5-1.5c0-0.1,0.1-0.3-0.1-0.4s-0.2,0.1-0.3,0.2c-0.8,1.3-1.5,2.6-2.1,4
			c-0.8,2.3-1.9,4.5-2.7,6.8c-0.5,1.6-1,3.3-1.3,5c-0.4,2-0.7,4.1-1.1,6.1c-0.4,2-0.8,4.1-1,6.2c0,0.7-0.2,1.3-0.3,1.9
			c-0.2,1.6-0.5,3.2-0.7,4.8s-0.3,3.1-0.5,4.7s-0.4,3.2-0.5,4.8C141.9,64.4,141.9,67.3,142,70.1z M157.3,8c-0.4,0.2-0.6,0.6-0.6,1
			c-0.2,1.1-0.5,2.1-1.1,3c-0.9,2-1.4,4.2-2.4,6.1c-0.1,0.1-0.1,0.2-0.1,0.3c-0.3,1.3-0.6,2.6-1.1,3.8c-0.4,1.5-0.8,3-1,4.6
			c-0.5,2.9-1.2,5.6-1.7,8.5c-0.3,1.8-0.7,3.5-1.1,5.3c-0.3,1-0.2,2.1-0.4,3.2c-0.3,1.6-0.6,3.2-0.9,4.8c-0.2,1.7-0.4,3.5-0.4,5.2
			c-0.2,3-0.4,6-0.5,9c-0.1,2.7-0.2,5.4-0.2,8.1c0,1.2,0.1,2.4,0.1,3.6c0.1,2.2,0,4.3,0.1,6.5c0.1,1.2,0.2,2.4,0.3,3.6
			c0.2,2.3,0.4,4.7,0.7,7c0.2,1.5,0.2,3,0.6,4.5c0.2,1,0.4,2,0.5,3.1c0.3,2,0.5,3.9,0.8,5.9c0.1,0.4-0.1,0.9,0.4,1.4
			c-0.1-1.3,0-2.5-0.1-3.7c-0.2-2.5,0-5-0.2-7.5c-0.2-2,0-4.1,0-6.2c-0.1-0.9-0.1-1.9-0.1-2.8c0.3-2.7-0.2-5.5,0.1-8.2
			c0.1-1.2,0.1-2.4,0.2-3.6c0.1-1.4,0.1-2.8,0.2-4.2c0.2-1.2-0.1-2.4,0.1-3.6c0.4-3.3,0.2-6.6,0.6-9.9c0.3-2.2,0.2-4.5,0.5-6.7
			c0.5-3.2,0.8-6.5,1.1-9.8c0.3-2.5,0.7-4.9,0.9-7.3c0.3-2.9,1-5.7,1.4-8.6c0.3-2,0.8-4,1.2-6c0.2-0.5,0.4-1.1,0.4-1.7
			c0-1.4,0.2-2.7,0.6-4C156.6,11,157,9.5,157.3,8z M152,145.5c0.1-0.5,0.5-0.9,0.4-1.4c-0.1-1.5-0.2-3-0.3-4.5c0-0.4,0-0.8-0.6-0.6
			c-0.1,0.1-0.2,0-0.3-0.1c0,0,0-0.1,0-0.1c0-0.8-0.3-1.5-0.3-2.3c-0.3-2.3-0.7-4.6-1.3-6.9c-0.6-2.4-1.1-4.8-1.5-7.3
			s-0.9-4.7-1.4-7.1c-0.6-2.6-1.1-5.3-1.7-7.9c-0.4-1.8-0.6-3.7-1.1-5.6c-0.5-2.3-0.9-4.7-1.2-7c-0.4-2.6-0.6-5.3-0.9-7.9
			c-0.3-3.2-0.7-6.4-0.7-9.6c0-5.9-0.3-11.8,0.4-17.7c0.2-1.9,0.4-3.8,0.6-5.7c0.3-2.5,0.6-4.9,1-7.4c0.4-3.2,1-6.3,1.6-9.5
			c0.3-1.7,0.7-3.4,0.8-5.1c0.1-1.3,0.4-2.6,1-3.8c0.4-1,0.7-1.9,0.9-2.9c-0.1,0-0.2,0-0.2,0l-0.2,0.2c-1.4,2.1-2.4,4.3-3.2,6.7
			c-0.6,2.1-1.4,4.2-2,6.3c-0.8,2.7-1.1,5.5-1.7,8.2c-0.3,1.5-0.3,3-0.6,4.6c-0.4,2.3-0.7,4.7-0.7,7c-0.1,3.5-0.3,6.9-0.4,10.4
			c0,1.3,0.2,2.7,0.2,4c0,0.9,0,1.8,0,2.7c0,3.5,0.7,7,0.9,10.5c0.1,1.4,0.2,2.9,0.5,4.3c0.3,1.7,0.6,3.3,0.8,4.9
			c0.3,2.3,0.8,4.6,1.2,6.9c0.3,1.9,0.8,3.8,1.3,5.7c0.3,1.2,0.6,2.5,0.9,3.7c0.7,2.5,1,5,1.7,7.5c0.3,1.2,0.6,2.3,0.9,3.5
			s0.8,2.5,1,3.8c0.4,1.6,0.3,3.3,0.9,4.8c0.6,1.8,1.1,3.6,1.5,5.4c0.4,1.7,0.7,3.4,1,5.1C151.5,142.9,151.8,144.2,152,145.5z
			 M143,32.6c-1.4,1.3-1.8,3.1-2.3,4.7c-0.4,1.3-0.9,2.5-1.2,3.8c-0.2,1.1-0.7,2.1-0.9,3.2c-0.2,1.3-0.5,2.6-0.7,4
			c-0.1,1.2-0.6,2.3-0.6,3.4c-0.1,2.1-0.3,4.2-0.5,6.2c-0.2,2.3-0.2,4.7-0.4,7c-0.2,2.6-0.2,5.2,0.1,7.9c0.1,0.6-0.3,1.2,0,1.7
			c0.3,0.6,0.4,1.3,0.2,1.9c0,0.1,0,0.3,0,0.4c0.4,0.9,0.1,1.9,0.3,2.8c0.4,2.1,0.4,4.2,0.6,6.3c0.2,2.8,0.6,5.6,1.2,8.3
			c0.5,2,0.8,4.1,1.3,6.1c0.4,1.6,0.7,3.2,1.1,4.8c0.2,0.8,0,1.7,0.8,2.5c-0.2-0.9-0.3-1.6-0.5-2.4c-0.3-1.3-0.5-2.6-0.7-3.9
			c-0.3-1.8-0.7-3.6-0.9-5.5s-0.4-3.6-0.6-5.5c-0.3-2.4-0.5-4.8-0.7-7.3c-0.1-1.2-0.3-2.4-0.3-3.6c0-1.4-0.3-2.8-0.3-4.1
			c0-1.1,0-2.2,0.1-3.3s-0.4-2.4-0.3-3.7c0.2-0.7,0.3-1.5,0.3-2.3c-0.3-1.7,0-3.4-0.1-5.1c-0.2-2.6,0.4-5.2,0.7-7.8s0.6-5.3,1-7.9
			c0.5-3.3,1.3-6.6,2.3-9.8C142.4,34.4,142.6,33.5,143,32.6L143,32.6z M147.3,136.6c-0.1-0.3-0.1-0.5-0.1-0.6
			c-0.3-1.6-1-3.1-1.4-4.7c-0.6-2.7-1.6-5.4-2.3-8.1c-0.4-1.6-0.6-3.2-1-4.8c-0.5-2.1-1.2-4.2-1.7-6.4c-0.7-3.4-1.5-6.9-2.4-10.3
			c-0.4-1.6-0.6-3.2-1.1-4.7s-0.6-3.1-0.9-4.7c-0.3-1.1-0.5-2.2-0.6-3.3c0.1-2.2-0.6-4.2-0.7-6.4c-0.2-2.9-0.4-5.9-0.6-8.8
			c-0.2-1.9,0-3.7,0-5.6c-0.1-3.9,0.1-7.9,0.6-11.8c0.2-1.4,0.2-2.9,0.6-4.3c0.1-0.5,0.1-1,0.1-1.5c-0.2,0.1-0.3,0.2-0.3,0.3
			c-0.3,1.9-0.6,3.9-0.9,5.8c-0.2,1.2-0.1,2.4-0.3,3.6c-0.2,1.4-0.4,2.8-0.5,4.2c-0.3,3.4,0.2,6.8,0.2,10.2c0,2.9,0.4,5.7,0.6,8.5
			c0.2,3.2,0.5,6.4,1.1,9.5c0.3,1.4,0.4,2.8,0.6,4.2c0.4,2.2,1,4.4,1.5,6.5c0.4,1.7,0.7,3.3,1.1,5c0.6,2.5,1.1,4.9,1.8,7.4
			c0.8,2.9,1.7,5.9,2.6,8.8c0.6,1.9,1.2,3.7,1.9,5.6c0.3,1.2,0.6,2.4,1,3.5C146.6,134.5,146.5,135.6,147.3,136.6L147.3,136.6z
			 M155.8,20.1c-0.6,0.4-0.5,1-0.6,1.4c-0.4,1.7-0.8,3.4-1,5.1c-0.3,2.4-0.8,4.8-1.1,7.1c-0.3,2.1-0.5,4.2-0.7,6.3
			c-0.1,1.2-0.3,2.3-0.4,3.5c-0.2,2-0.5,4-0.7,6c-0.2,1.8-0.4,3.6-0.5,5.3c-0.1,2.3-0.3,4.7-0.5,7c-0.2,2.3-0.3,4.8-0.4,7.1
			c-0.1,2.8-0.3,5.5-0.3,8.3c0,2.3-0.1,4.7-0.1,7c0,1.6,0.2,3.2,0.2,4.8c0,0.2-0.1,0.6,0.2,0.6s0.1-0.4,0.1-0.6
			c0-3.9-0.1-7.8,0.1-11.7c0.1-2,0.3-4,0.4-6c0.2-3.2,0.5-6.4,0.7-9.6c0.2-3.4,0.5-6.8,0.8-10.1c0.2-2.6,0.3-5.1,0.5-7.7
			c0.1-0.9,0.1-1.7,0.2-2.6s0.3-1.7,0.4-2.5c0.2-1.8,0.4-3.6,0.7-5.4c0.3-1.8,0.7-3.3,0.9-5c0.2-2.1,0.4-4.1,0.8-6.1
			C155.6,21.8,155.7,21,155.8,20.1L155.8,20.1z M161.8,25.9c0-0.4,0-0.7,0-1.1c-0.5-2.9-0.7-5.8-0.8-8.7c-0.1-1.9,0-3.8,0-5.7
			c0-1.4,0.3-2.8,0.4-4.1c0.1-1.5,0.5-3.1,0.5-4.7c0-0.2,0-0.5-0.3-0.6c-0.2,0-0.4,0.1-0.5,0.3c-0.6,1.1-1.1,2.3-1.3,3.6
			c-0.3,1.2-0.5,2.4-0.6,3.7c-0.1,1.6-0.1,3.1-0.1,4.7c0.2,1,0.3,2,0.3,3c0,1.4,0.2,2.9,0.6,4.3c0.4,1.9,1,3.7,1.8,5.4L161.8,25.9z
			 M146.3,123.9l-2.3-9.5c-0.3-1.3-0.6-2.6-0.9-4c-0.1-0.2,0.1-0.7-0.2-0.7s-0.2,0.5-0.1,0.7c0.5,2.4,1.1,4.8,1.6,7.2
			c0.4,1.4,0.7,2.9,1.2,4.3c0.1,0.7-0.1,1.4,0.7,2.1L146.3,123.9z M136.9,49.9c0.6-3.6,1.4-7.2,2.3-10.8c-0.3,0.2-0.5,0.6-0.6,1
			c-0.2,1.4-0.9,2.7-1.1,4.1c-0.1,1-0.7,1.9-0.7,3c0,0.4,0.3,1.3-0.7,1.3c-0.1,0-0.1,0.5,0.1,0.5c0.5,0.2,0.3,0.7,0.5,1L136.9,49.9z
			 M152.8,132.6c-0.1,0.8-0.1,1.6,0.1,2.5c0,0.3-0.1,0.8,0.2,0.8s0-0.5,0-0.8V135c0.2-2.5-0.3-4.9-0.2-7.4c0-0.2,0-0.6-0.2-0.6
			s-0.3,0.4-0.2,0.6c0,1.8,0.2,3.6,0.3,5.1L152.8,132.6z M134.4,87.8c-0.3-2.8-0.2-5.8-0.8-8.6c0,2.9,0.2,5.8,0.7,8.7L134.4,87.8z
			 M134.9,91.8c0,1.3,0.2,2.6,0.5,3.9c0-1.3-0.2-2.6-0.6-3.9L134.9,91.8z M155.7,137.8c0.4-1.1,0.6-2.2,0.7-3.4
			c-0.5,1.1-0.8,2.3-0.8,3.5L155.7,137.8z M157,24c-0.3,0.8-0.4,1.7-0.1,2.5c0.2-0.8,0.2-1.6,0-2.4L157,24z M146.6,126.6
			c0,0.7,0.2,1.4,0.6,2C147,128,147.1,127.2,146.6,126.6z M146.4,126.5c0.1-0.6,0-1.2-0.3-1.7C146,125.3,146.1,125.9,146.4,126.5z
			 M150,90.5c-0.5,0.3-0.5,0.8,0,1.2V90.5z M150.1,93.7c-0.1-0.2,0.1-0.5-0.1-0.5s-0.2,0.3-0.2,0.5s-0.1,0.5,0.2,0.5
			S150,93.8,150.1,93.7L150.1,93.7z M159.1,22.4c-0.4,0.4-0.4,1,0,1.4c0,0,0,0,0,0V22.4z M156.6,133.1c-0.3,0.4-0.4,0.7-0.3,1.1
			c0,0,0.1,0,0.1,0C156.7,133.9,156.6,133.5,156.6,133.1L156.6,133.1z M157,23.1c0.3-0.4,0.4-0.7,0.1-1.1
			C156.9,22.3,156.8,22.7,157,23.1L157,23.1z M159.1,24.1c-0.1,0.4-0.1,0.8,0.3,1c0.1-0.4-0.1-0.8-0.4-1L159.1,24.1z M156.4,16.3
			c-0.1,0.3-0.4,0.6-0.2,1C156.5,17.1,156.5,16.7,156.4,16.3L156.4,16.3z M134.5,89.8c0.2-0.3,0.1-0.7-0.2-1
			C134.2,89.2,134.4,89.5,134.5,89.8z M155.8,19.5c0.2-0.3,0.2-0.6,0.1-0.9C155.7,18.8,155.7,19.2,155.8,19.5z M133.4,77.7v-1
			C133.1,77,133.1,77.4,133.4,77.7C133.4,77.7,133.4,77.7,133.4,77.7z M152.2,124.7c-0.1,0.3-0.1,0.6,0.2,0.8
			C152.6,125.1,152.4,124.9,152.2,124.7L152.2,124.7z M149.2,107.1v1C149.5,107.5,149.1,107.3,149.2,107.1L149.2,107.1z M135.7,97.3
			c0-0.5,0.1-0.7-0.2-1C135.4,96.7,135.5,97.1,135.7,97.3z M147.7,131.3c0.1,0.2-0.2,0.4,0.2,0.6C148,131.6,147.9,131.4,147.7,131.3
			L147.7,131.3z M156.8,131.1v0.7C157.1,131.6,157.1,131.4,156.8,131.1L156.8,131.1z"/>
		<path class="st0" d="M233.5,97.5c0.4-0.3,0.6-0.8,0.4-1.3c-0.4-1.5,0.1-2.9,0.1-4.3c0-1.1,0-2.3-0.1-3.4c-0.1-1.4-0.3-2.8-0.3-4.3
			c-0.1-2.1-0.2-4.3-0.2-6.4c0-1.4-0.3-2.9-0.2-4.3c0-1.2-0.1-2.4,0-3.6c0-0.9-0.1-1.8-0.2-2.7c-0.1-1.9,0-3.8-0.1-5.6s0-4-0.2-6
			c-0.1-1.7,0.3-3.5,0.1-5.3s0.1-3.2,0-4.8c-0.1-1.2-0.1-2.4,0.2-3.6c0.1-0.5,0-1-0.1-1.4c0-1.3,0-2.7,0.1-4c0.1-2.4,0-4.8,0.2-7.2
			c0.1-1.2,0.1-2.4,0.2-3.6c0.1-1.9,0-3.8,0-5.7c0-0.7,0.1-1.3,0.1-2c0-0.3,0.2-0.6,0.4-0.5s0.1,0.4,0.1,0.5c0,2.4-0.1,4.8-0.1,7.2
			c0,0.2-0.1,0.4,0.2,0.6c0.1-1,0.2-2,0.2-2.9c0-1.3,0.1-2.7,0.1-4c0-0.2,0.1-0.4,0.3-0.5c0.1-0.1,0.3,0,0.4,0.1s0.1,0.4,0.1,0.6
			c-0.3,0.8-0.4,1.9-0.1,2.3c1,1.1,0.4,2.4,0.5,3.5c0.1,1.2,0.1,2.5-0.1,3.7c-0.1,2.1,0.1,4.2-0.1,6.3c-0.3,3.7-0.2,7.3-0.2,10.9
			c0,2.2-0.2,4.5-0.1,6.7c0.1,2.7,0.3,5.4,0.3,8c0.1,2.5,0.1,4.9,0.2,7.4c0.1,4,0.3,8,0.4,12c0,1.4,0.2,2.9,0.3,4.3
			c0.1,1.1,0.2,2.3,0.1,3.4c0,0.2,0,0.5,0,1c0.7-1.6,1.4-3.3,1.9-5c1-2.7,2-5.4,3-8c0.9-2.3,1.9-4.6,2.8-6.9c0.5-1.2,1-2.4,1.6-3.6
			c0.7-1.5,1.2-3.1,1.8-4.6c0.5-1.3,1.3-2.4,1.7-3.6s1.1-2.5,1.5-3.9c0.5-1.7,1.2-3.4,2.1-5c1.1-2,2.1-4,3.2-6
			c0.7-1.3,1.6-2.6,2.2-4c0.8-1.7,1.8-3.4,2.9-4.9c1.3-2,2.3-4.3,4.1-6.1c0.4-0.4,0.6-1,1.1-1.3c1-0.6,2.2-0.8,3.3-0.5
			c0.8,0.1,1.5,0.3,2.3,0.6c1.2,0.5,2.2,1.2,3.2,2c0.5,0.5,1.1,0.9,1.8,0.6c0.5-0.2,0.6,0.4,0.9,0.5c2.2,0.6,4.2,1.6,6.1,2.8
			c0.7,0.6,1.4,1.3,1.9,2c1.2,1.6,2.4,3.2,3.5,4.9c1.4,2.3,2.7,4.6,4,6.9s2.3,4.7,3.6,7c0.9,1.6,1.7,3.2,2.4,4.8
			c1.1,2.3,2.1,4.7,3.2,7c0.7,1.4,1.4,2.8,2,4.2s1.1,3,1.6,4.5c0.1,0.2,0.1,0.5-0.1,0.6s-0.3,0-0.5-0.2l-2.8-4.5
			c-2.2-3.5-4.4-7-6.5-10.5c-1.8-3-4-5.8-5.9-8.7c-1.6-2.5-3.7-4.7-5.4-7.2c-1.2-1.5-2.6-2.9-4.1-4c-0.7-0.6-1.4-1.1-2-1.8
			c-0.6-0.6-1.4-0.9-2-1.5c-0.8-0.7-1.6-1.4-2.4-2.1s-1.9-1.5-2.8-2.2c-0.6-0.5-1.4-0.5-1.9,0.1c0,0,0,0.1-0.1,0.1
			c-1.1,1.2-2,2.5-2.6,4c-0.4,0.9-1.1,1.8-1.4,2.8c-1.1,3.2-2.6,6.2-4,9.2c-1,2.3-2,4.7-3.2,7s-2,4.4-3,6.5
			c-1.2,2.5-2.3,5.1-3.4,7.7c-0.7,1.5-1.4,3.1-1.9,4.8c-0.4,1.7-1.2,3.2-1.8,4.8s-1.2,3.1-1.8,4.7c-0.7,1.5-1.3,3-1.8,4.6
			c-0.5,1.6-1.1,3.2-1.7,4.8s-1.2,3.5-1.7,5.3c-0.7,2.5-1.4,4.9-2.1,7.3c-0.3,1.1-0.5,2.2-0.8,3.2c-0.2,0.7-0.2,1.3,0,2
			c0.2,1,0.3,2.1,0.3,3.1c-0.1,1,0.1,2.1,0.4,3.1c0.4,1.6,0.4,3.3-0.2,4.9c-1,3.1-1.2,6.4-0.8,9.7c0.1,1.4,0.6,2.9-0.6,4.1
			c-0.1,0.1-0.1,0.3-0.3,0.3c-0.2,0-0.3-0.2-0.2-0.4c0-0.5-0.4-0.8-0.6-1.3c-0.2-1.1-0.3-2.1-0.1-3.2c-0.1-1-0.2-2.1-0.2-3.2
			c-0.1,0.7-0.2,1.4-0.2,2.1c0,1.2,0,2.3,0,3.5c0,0.2,0,0.5-0.3,0.5s-0.3-0.3-0.3-0.5l-0.1-1c0-0.1,0-0.2,0-0.2
			c-1.3-0.3-0.8-1.4-0.9-2.1c-0.1-2.9-0.4-5.8-0.6-8.7c-0.1-0.6-0.4-0.7-0.8-0.5c-0.5,0.3-1.2,0.3-1.7,0c-0.2-0.1-0.4-0.1-0.6,0.1
			c-0.1,0.2-0.1,0.5,0,0.7c0.7,1.4,0.6,3,1.1,4.5c0.5,1.7,0.3,3.6,0.9,5.3c0.3,1-0.2,2-0.3,3c0,0.5-0.7,0.4-1.1,0.4
			s-0.2-0.4-0.3-0.6c-0.4-2-0.4-4-0.2-6c-0.1-2.1-0.4-4.2-0.9-6.3c-0.1-0.3-0.3-0.6-0.6-0.9c-0.5-0.8-0.5-1.8-0.2-2.7
			c0.2-0.5,0.3-1,0.4-1.5c-0.2-1.7,0.4-3.4,0.6-5.1c0.1-1.5,0.3-3.1,0.8-4.5c0.2-0.6,0.3-1.3,0.2-2c-0.3-2.2,0-4.4-0.2-6.6
			s-0.2-4.5-0.3-6.8c-0.3-5.5-0.8-11-0.8-16.5c0-2.2-0.1-4.5-0.2-6.7s-0.2-4.4-0.2-6.6c0-1.7,0.1-3.3,0-5c-0.1-1.9,0-3.9,0-5.8
			c0-1.4-0.3-2.8-0.2-4.2c0.2-2.3,0.1-4.7,0.1-7c0-0.8,0-1.7,0-2.5c-0.1-4.8-0.1-9.7-0.1-14.6c0-0.8,0.1-1.5,0.1-2.3
			c0-0.2,0.1-0.5,0.4-0.5s0.4,0.2,0.4,0.5c0,0.5-0.1,1,0.6,1.1c0.2,0,0.1,0.4,0.1,0.5c0,1.7,0,3.5,0,5.2c0,1.6,0.2,3.1,0.1,4.7
			c-0.1,2.5,0,5.1-0.3,7.6c-0.1,0.8,0,1.7,0,2.5c-0.1,4.1-0.1,8.1-0.2,12.2c-0.1,1.8-0.2,3.7-0.2,5.5c0,2.2,0.1,4.5,0.1,6.7
			c0,2.7,0.2,5.4,0.3,8.1c0.1,2.5,0.4,5,0.4,7.4c0,2.8,0.2,5.7,0.3,8.5c0.1,1.4,0.4,2.8,0.3,4.3s-0.1,2.7-0.1,4
			c0.1,1.2,0.1,2.4,0,3.6c0,0.1,0,0.3,0.1,0.4s0.2-0.1,0.2-0.1c0.1-1.1,1-2,0.8-3.2c-0.3-1.5-0.1-3.1-0.4-4.6
			c-0.1-0.9-0.1-1.9,0-2.8c0.1-0.4,0-0.8-0.2-1.2c-0.1-0.2-0.2-0.5,0.1-0.5s0.4,0.2,0.4,0.4c0.1,0.9,0.2,1.9,0.2,2.8
			C233.4,94.4,233.4,95.9,233.5,97.5z M294.9,53.6l-0.1-0.1v0.1L294.9,53.6c-0.1,0.3,0.1,0.3,0.3,0.4
			C295.3,53.7,295.2,53.6,294.9,53.6z M262.9,35.9l-0.6,1.1l-1.1,2c0.6-0.5,1-1.2,1.1-2C262.9,36.9,262.8,36.4,262.9,35.9
			c0.3,0,0.3-0.3,0.3-0.6C263,35.4,262.9,35.7,262.9,35.9L262.9,35.9z M286.4,36.5c0,0.2-0.2,0.5,0.1,0.7
			C286.7,36.9,286.5,36.7,286.4,36.5l-0.3-1.3C286,35.7,285.9,36.1,286.4,36.5L286.4,36.5z M258,46.2c0.4-0.4,0.7-1,0.9-1.6
			c0.1-0.1,0.1-0.2,0.1-0.3h-0.1c0,0.1-0.2,0.2,0,0.3C258.2,44.9,258.3,45.7,258,46.2L258,46.2L258,46.2L258,46.2z M255.6,51.8
			c0.5-0.2,0.5-0.7,0.6-1c0.5-1,0.9-2.1,1.4-3.2c0.1-0.1,0.1-0.3-0.1-0.4s-0.2,0.2-0.2,0.3c-0.4,1-0.8,2.1-1.3,3.1
			C255.8,50.9,255.7,51.4,255.6,51.8l0,0.2h0.1L255.6,51.8z M285,39.3L285,39.3L285,39.3L285,39.3c0.3,0.8,0.7,1.5,1.1,2.2
			c0.8,1.3,1.8,2.7,2.8,3.9c0.9,1.2,1.8,2.3,2.6,3.5c0.4,0.6,0.7,1.3,1.1,1.9c0.2,0.3,0.3,0.7,0.6,0.6s0-0.5,0-0.7
			c0-0.3,0-0.5-0.1-0.8c-0.3-0.5-0.4-1.4-1.4-1.1c0.1-0.6-0.1-1.2-0.5-1.7c-1.4-1.9-2.8-3.9-4.2-5.8C286.4,40.6,285.8,39.9,285,39.3
			z M265.8,35.5c-0.1,0-0.2,0-0.2,0c-0.4,0.8-0.8,1.5-1.1,2.3c-0.4,1.1-0.8,2.1-1.3,3.1c-1.2,2.1-2,4.4-3,6.6
			c-1.4,3.1-2.8,6.2-4,9.3c-1.4,3.6-3.2,7.1-4.8,10.6c-0.1,0.3-0.2,0.7-0.6,0.6s-0.2-0.6-0.1-0.9c0.6-1.3,1.2-2.6,1.8-3.9
			c0.8-1.6,1.5-3.2,2.3-4.8s1.4-3.3,2.1-5c0.9-2,1.8-4,2.6-6c0.7-1.5,1.3-3.1,2-4.7s1.8-2.7,1.6-4.5c0-0.2,0.1-0.4,0.4-0.5
			c0.1-0.1,0.3-0.1,0.3-0.3c0.2-1,0.6-1.9,1.3-2.7c0.2-0.3,0.3-0.7,0.3-1.1c-0.1,0.1-0.2,0.1-0.2,0.2c-0.7,1.3-1.5,2.6-2.1,3.9
			c-0.5,1-1,2-1.5,3c-0.4,0.8-0.7,1.7-1.1,2.5c-0.7,1.3-1.4,2.6-1.9,3.9c-0.5,1.3-1,2.7-1.6,4c-0.3,0.5-0.6,1-0.8,1.6
			c-0.8,2.1-1.6,4.1-2.4,6.2c-0.6,1.5-1.2,3.1-1.8,4.6c-0.5,1.2-0.9,2.5-1.4,3.8c-0.7,1.7-1.4,3.5-2.1,5.2c-0.6,1.3-1.1,2.7-1.6,4
			c-0.5,0.8-0.7,1.7-0.8,2.6c0.3,0,0.5-0.2,0.5-0.5c0.2-0.9,0.6-1.9,1-2.7c0.8-2.1,1.6-4.2,2.4-6.2c0.1-0.2,0.3-0.6,0.6-0.5
			s0.2,0.5,0,0.8c-0.4,0.8-0.7,1.7-1,2.6c-0.4,1.3-0.9,2.5-1.4,3.7c-0.8,1.8-1.5,3.7-2.2,5.6c-0.4,1.1-0.9,2.2-1.4,3.3
			c-0.6,1.5-1.1,3-1.6,4.5c-0.6,2-1.1,4-1.7,6c-0.4,1.4-0.8,2.8-1.2,4.3c-0.3,1-0.6,1.9-0.9,2.9s-0.7,2.1-1.1,3.1
			c0,0.1-0.1,0.3-0.3,0.3c-0.1,0-0.2-0.1-0.2-0.2c0,0,0,0,0-0.1c0.4-0.6,0.2-1.4,0.5-2.1c0.6-1.5,1-3,1.4-4.6
			c0.3-1.4,0.7-2.7,1.1-4.1c0.5-1.7,1-3.4,1.3-5.1c-0.8,0.8-0.8,2-1.1,3c-0.5,1.2-0.9,2.4-1.2,3.7c-0.3,1.3-1,2.4-1.3,3.7
			c-0.5,2-1.1,3.9-1.7,5.8c-0.1,0.5-0.2,1.1-0.3,1.6c-0.1,0.2-0.2,0.4-0.5,0.3s-0.2-0.3-0.1-0.5c0.6-2.1,1.1-4.3,1.7-6.4
			c0.1-0.5,0.5-1,0.3-1.8c-0.3,0.7-0.6,1.4-0.8,2.1c-0.7,2.2-1.3,4.4-1.9,6.6c-0.1,0.5-0.2,0.9-0.3,1.4c-0.1,0.3-0.2,0.5-0.5,0.4
			s-0.1-0.4-0.1-0.6c0.1-0.4,0.3-0.8,0.3-1.3c0.3-2,0.9-4,1.5-5.9c1.2-3.6,2.6-7.2,3.6-10.8c0.8-2.8,1.6-5.5,2.6-8.2
			c1.2-3.4,2.4-6.9,3.9-10.2c0.9-2,1.5-4.2,2.4-6.3s1.8-4.2,2.6-6.3c1.1-3.1,2.8-6,4-9.1c0.6-1.7,1.5-3.3,2.3-5
			c0.9-2,1.8-4.1,2.8-6.1c0.7-1.6,1.5-3.2,2.3-4.7c1-1.8,1.7-3.8,3.2-5.4c1.1-1.1,2-1.9,3.6-1.5c1.2,0.3,2.6,0.5,3.5,1.5
			s2,1.5,2.8,2.5c0.5,0.5,1,1,1.6,1.4c1.4,1.1,2.8,2.1,4.3,3.1c0.6,0.6,1.3,1.2,2.1,1.6c-0.3-0.4-0.4-0.6-0.5-0.8
			c-0.2-0.2-0.4-0.4-0.6-0.7c-1.7-2.8-4.1-5-6.2-7.4c-1.5-1.7-3.4-3-5.6-3.6c-1.2-0.6-2.7-0.4-3.7,0.5c-0.7,0.6-1.2,1.2-1.7,2
			c-0.4,0.7-0.8,1.3-1.2,1.9c-1.1,1.6-2.2,3.3-3.2,5c-0.8,1.3-1.5,2.7-2.1,4s-1.7,2.8-2.4,4.3s-1.6,2.9-2.3,4.4
			c-1.3,2.5-2.3,5-3.2,7.6c-0.8,2.6-2.4,4.9-3.1,7.5c-0.5,1.4-1.1,2.7-1.8,4c-1,2.6-2,5.2-3,7.7c-0.6,1.4-1.1,2.8-1.6,4.1
			c-1.1,2.9-2.1,5.8-3.2,8.6c-0.4,1.2-1,2.4-1.3,3.7c-0.2,0.8-0.6,1.4-0.8,2.2c-0.5,1.9-1.1,3.8-1.9,5.6c-0.5,1.3-1,2.5-1.3,3.8
			c-0.4,1.5-0.7,2.9-0.9,4.4c-0.3,1.9-0.3,3.8-0.5,5.7c0,0.2-0.1,0.5-0.1,0.7c-0.3,1-0.4,2.1-0.5,3.2c0,0.2,0,0.4,0.3,0.4
			c1.1,0.1,2.1,0.1,3.2,0c1.4-0.3,2.7-0.7,4.1-1c0.1,0,0.3-0.1,0.3,0.1c0,0.1,0,0.3-0.1,0.4c-0.2,0.1-0.4,0.2-0.6,0.3
			c-2.4,0.4-4.7,1.3-7.1,0.9c-0.2,0-0.5,0-0.6,0.3s0.2,0.3,0.5,0.4c1,0.1,1.9,0.2,2.9,0.2c1.5,0.1,2.9-0.1,4.3-0.5
			c0.6-0.2,1.1-0.4,1-1.2c-0.1-0.5-0.1-1-0.2-1.5c-0.3-2.3-0.5-4.6-0.5-6.9c-0.1-1.4,0.5-2.6,0.9-3.9c1.2-3.9,2.1-7.8,3.4-11.6
			c0.4-1.3,0.7-2.7,1.3-4c0.6-1.4,1.1-3,1.7-4.4c0.5-1.3,1.1-2.6,1.6-3.8c0.7-1.9,1.5-3.7,2.2-5.6c0.3-0.8,0.6-1.7,1-2.5
			s0.4-1.6,0.7-2.3c0.8-1.9,1.5-3.9,2.5-5.8s1.5-3.8,2.4-5.6c1.1-2.3,2-4.7,3.2-7s2.1-4.4,3-6.7c0.4-1,1-2,1.4-3
			c0.6-1.7,1-3.4,1.7-5C265.4,37,265.7,36.2,265.8,35.5c0.2-0.1,0.2-0.2,0.3-0.3c0.3-0.3,0.5-0.7,0.5-1.1c0-0.1-0.1-0.1-0.1-0.1
			c-0.4,0.2-0.3,0.6-0.5,1C265.8,35.1,265.7,35.3,265.8,35.5z M239.6,93.7c4.6-14,10.6-27.5,15.6-41.4
			C249.3,65.9,243.6,79.5,239.6,93.7z M234.7,93.2c0.2-0.4,0.4-0.8,0.4-1.2c0-3.1-0.4-6.2-0.3-9.4c0-0.4,0-0.8,0-1.2
			c-0.3-2-0.4-4-0.4-6c0-0.2,0.1-0.4-0.2-0.4s-0.2,0.3-0.2,0.5c0,2,0.2,3.9,0.2,5.9c0,3.7,0.5,7.3,0.4,10.9
			C234.7,92.5,234.7,92.7,234.7,93.2z M243,86.8c0.2-0.1,0.2-0.2,0.2-0.4c0.2-0.7,0.4-1.4,0.7-2.1c0.7-1.6,1.3-3.2,1.8-4.8
			c0-0.1,0.2-0.3,0-0.4s-0.3,0.2-0.3,0.3c-0.9,2.3-1.7,4.7-2.6,7C242.8,86.5,242.8,86.7,243,86.8L243,86.8z M235.1,125.1h0.1
			c0-0.4-0.1-0.8-0.1-1.1c0-1.3,0-2.5,0-3.7c0-0.1,0-0.4-0.2-0.3s-0.1,0.2-0.1,0.3c0,1.4,0.1,2.9,0.1,4.3
			C235,124.7,235,124.9,235.1,125.1z M233.8,40.5h0.2v-4.1h-0.1L233.8,40.5z M236,121.1c0,0.4,0,0.7,0,1.1c0,0.1-0.1,0.3,0.1,0.3
			s0.2-0.1,0.2-0.3c0-0.7,0.1-1.3,0.1-2c0-0.2-0.1-0.5-0.2-0.5s-0.2,0.3-0.2,0.5S236,120.8,236,121.1z M235.7,88.2
			c0.1-1.3-0.2-2.4,0-3.5C235.3,85.9,235.3,87.1,235.7,88.2L235.7,88.2z M237.2,121.4c-0.4,1-0.5,2-0.3,3.1
			C236.9,123.4,237.4,122.4,237.2,121.4L237.2,121.4z M294.6,53.4l-0.4-1.7c0-0.1-0.1-0.3-0.3-0.3c-0.2,0-0.2,0.2-0.2,0.3
			C293.7,52.5,294.1,53.1,294.6,53.4L294.6,53.4z M290.5,43.7l-0.4-0.4c-0.2-0.2-0.1-0.8-0.5-0.6s0,0.6,0.1,1c0,0.1,0.1,0.2,0.1,0.3
			c0.1,0.1,0.1,0.4,0.3,0.2S290.4,43.9,290.5,43.7L290.5,43.7z M287.6,40.9c-0.2-0.5,0-1-0.5-1.4c-0.1-0.1-0.2,0-0.2,0.1
			c-0.1,0.5,0.1,1,0.5,1.2L287.6,40.9z M293.8,49.7c0.1-0.6-0.1-1.1-0.4-1.6C293.5,48.6,293.2,49.1,293.8,49.7L293.8,49.7z
			 M234.2,57c0,0.6-0.5,1.2,0.1,1.8C234.1,58.2,234.5,57.6,234.2,57z M235.1,126l0.1,1.6C235.4,127.1,235.6,126.5,235.1,126z
			 M234.2,72.3c-0.2,0.6-0.2,1.2,0,1.7V72.3z M292.5,47.7c-0.2-0.3,0.2-0.7-0.2-1c0,0-0.2,0.1-0.3,0.2
			C292,47.2,292.2,47.4,292.5,47.7L292.5,47.7z M233.9,34.4c0,0.3-0.1,0.6-0.1,0.8s-0.1,0.6,0.2,0.4s0.1-0.8,0.1-1.2L233.9,34.4z
			 M237.4,120.6c0.1-0.3,0.4-0.6,0.2-1c0,0-0.1,0-0.1,0C237.2,119.9,237.4,120.3,237.4,120.6z M296,55.2c0,0.5,0.1,0.9,0.5,1.3
			C296.6,56,296.4,55.6,296,55.2z M239.1,95.3c0.3-0.3,0.5-0.8,0.4-1.3C239.3,94.6,238.9,94.8,239.1,95.3z M238,98.9l0.3-1.1
			C238,98.1,237.9,98.5,238,98.9z M298,56.9c-0.1-0.5,0-0.8-0.2-1.1c-0.1,0-0.1,0-0.2,0.1C297.5,56.3,297.6,56.5,298,56.9z
			 M235.4,78.2c0-0.2,0-0.4-0.2-0.4s-0.1,0.2-0.1,0.3s0,0.4,0.2,0.4S235.4,78.3,235.4,78.2L235.4,78.2z M236.1,123
			c-0.2,0.4-0.3,0.9-0.2,1.4L236.1,123z M233.8,45.8c0.2-0.3,0.2-0.8,0-1.1V45.8z M233.9,69.2c0-0.4,0.1-0.8-0.1-1.2
			C233.8,68.4,233.6,68.8,233.9,69.2L233.9,69.2z M292.2,45.8c0-0.1,0.1-0.3-0.2-0.4s-0.2,0.2-0.2,0.3s0,0.3,0.2,0.4
			S292.1,45.9,292.2,45.8z M235.2,77.2c0.1-0.4,0.1-0.8,0-1.3C235,76.4,235,76.8,235.2,77.2L235.2,77.2z M242.6,87.6
			c-0.1,0.3-0.4,0.4-0.3,0.8C242.6,88.2,242.8,88,242.6,87.6L242.6,87.6z M286.1,38.9c0,0.3-0.1,0.6,0.1,0.7c0,0,0.2,0,0.2-0.1
			C286.4,39.3,286.3,39,286.1,38.9L286.1,38.9z M233.9,42.6v-1C233.7,42.1,233.7,42.3,233.9,42.6L233.9,42.6z M267.2,32.5
			c-0.2,0.1-0.4,0.4-0.3,0.6c0,0,0,0.1,0.1,0.1C267,33,267.3,32.8,267.2,32.5z M265.3,33.6c0.2-0.1,0.4-0.3,0.4-0.5
			c0,0-0.1-0.1-0.1-0.1C265.4,33.1,265.3,33.3,265.3,33.6L265.3,33.6z M297.4,57.8c0.1-0.3,0.1-0.5-0.1-0.6c0,0-0.1,0-0.1,0
			C297.1,57.5,297.2,57.6,297.4,57.8L297.4,57.8z M235.5,130.6c0.1-0.4,0.2-0.6-0.1-0.9C235.3,130,235.3,130.3,235.5,130.6
			L235.5,130.6z M238.4,96.9c0.3-0.2,0.5-0.3,0.3-0.7L238.4,96.9z M233.8,47c0.2-0.2,0.2-0.5,0.1-0.7
			C233.7,46.5,233.7,46.7,233.8,47z M234.4,61.7c-0.1,0.2-0.1,0.4,0,0.6C234.6,62.1,234.6,61.9,234.4,61.7L234.4,61.7z M233.9,33
			c0.2-0.2,0.2-0.4,0.1-0.7C233.9,32.5,233.8,32.8,233.9,33z M233.9,47.2c-0.2,0.2-0.2,0.4-0.1,0.6C234,47.7,234,47.4,233.9,47.2
			L233.9,47.2z M286.5,37.7c-0.1,0.3-0.1,0.5,0.1,0.7C286.6,38.1,286.7,37.9,286.5,37.7L286.5,37.7z M260.8,40.3
			c0.2-0.1,0.2-0.3,0.2-0.5c-0.1,0-0.1,0-0.2,0C260.7,39.9,260.7,40.1,260.8,40.3z M260.4,40.8l-0.2,0.6c0,0,0.1,0.1,0.1,0
			C260.5,41.3,260.5,41.1,260.4,40.8L260.4,40.8z M233.7,64.5L233.7,64.5v-0.8l0,0V64.5z"/>
		<path class="st0" d="M25,44.6c0-0.3,0-0.6,0.2-0.6s0.2,0.2,0.3,0.4c1,1.7,1.3,3.7,2.3,5.4c0.7,1.3,1.3,2.8,2.1,4.1
			c1,1.8,2.3,3.4,3.8,4.8c0.2,0.2,0.6,0.5,0.3,0.8s-0.6-0.1-0.8-0.3c-2.2-2.3-4-4.9-5.3-7.7c-0.7-1.4-1.3-2.8-1.9-4.2
			C25.6,46.4,25.3,45.5,25,44.6z"/>
		<path class="st0" d="M69.8,82.7c-0.3-0.1-0.1-0.3,0-0.5c0.5-0.7,1-1.4,1.4-2.1c1.1-2.1,2.8-3.7,3.9-5.7c0.1-0.2,0.3-0.5,0.6-0.3
			s0.2,0.5,0,0.7c-1.8,2.6-3.6,5.2-5.4,7.7C70.2,82.7,70,82.7,69.8,82.7z"/>
		<path class="st0" d="M46,94.7c0,0.4-0.2,0.7-0.5,1c-1,1-2,1.9-3,2.8c-0.2,0.2-0.4,0.3-0.6,0.1s0-0.4,0.1-0.6
			c1.1-1.2,2.6-2,3.5-3.3c0.1-0.1,0.2-0.2,0.3-0.2C45.9,94.5,46,94.7,46,94.7z"/>
		<path class="st0" d="M45.4,111c-0.1,0-0.3,0.1-0.4-0.1s0.1-0.2,0.2-0.3c1.4-0.9,2.8-1.9,4-3.1c0.2-0.2,0.4-0.5,0.7-0.2
			s-0.2,0.4-0.3,0.6c-1.1,1.1-2.3,2.2-3.6,3C45.8,111,45.6,111,45.4,111z"/>
		<path class="st0" d="M45.4,93.3c-0.3,0.3-0.5,0.7-0.8,1c-0.8,0.8-1.7,1.6-2.5,2.4c-0.1,0.1-0.3,0.4-0.5,0.2
			c-0.1-0.2-0.1-0.5,0.1-0.6c0.7-0.7,1.4-1.4,2.1-2c0.3-0.3,0.6-0.6,0.9-1c0.1-0.2,0.3-0.3,0.5-0.2S45.3,93.2,45.4,93.3z"/>
		<path class="st0" d="M71.4,88.3c-0.4,0-0.3-0.3-0.2-0.5c0.2-0.4,0.5-0.8,0.8-1.2c0.9-0.9,1-2.2,2-3.1c0.1-0.1,0.2-0.3,0.4-0.2
			c0.1,0.1,0.2,0.4,0,0.5c0,0,0,0,0,0c-0.9,0.9-1.2,2.3-2.2,3.2c-0.2,0.3-0.3,0.6-0.4,0.9C71.8,88,71.6,88.2,71.4,88.3z"/>
		<path class="st0" d="M70.7,74.1c-0.3-0.1-0.3-0.3-0.2-0.5c0.8-1.1,1.6-2.1,2.3-3.2c0.1-0.2,0.3-0.4,0.5-0.2s0.1,0.3,0,0.6
			c-0.7,0.9-1.3,1.9-1.9,2.8C71.2,73.9,70.9,73.9,70.7,74.1z"/>
		<path class="st0" d="M63.1,83.2c-0.3-0.2-0.3-0.4-0.1-0.5c0.9-1.1,1.8-2.2,2.7-3.3c0.1-0.2,0.3-0.2,0.5-0.1c0.3,0.1,0.1,0.3,0,0.4
			c-0.4,0.9-1.3,1.3-1.8,2.1c-0.3,0.4-0.6,0.8-1,1.2C63.3,83.1,63.2,83.2,63.1,83.2z"/>
		<path class="st0" d="M52.3,116.4c-0.3,0.6-0.8,1-1.4,1.3c-0.8,0.4-1.5,0.9-2.3,1.4c-0.2,0.1-0.5,0.3-0.6,0.1s0.1-0.4,0.3-0.6
			c1.1-0.8,2.4-1.2,3.4-2.2c0.1-0.1,0.3-0.2,0.4-0.1C52.2,116.2,52.3,116.3,52.3,116.4z"/>
		<path class="st0" d="M64.8,90.2c-0.2,0.2-0.3,0.4-0.4,0.6c-0.4,0.9-1,1.8-1.6,2.6c-0.1,0.2-0.3,0.5-0.5,0.4s-0.2-0.5,0-0.7
			c0.7-1,1.3-2,2-3c0.1-0.1,0.2-0.2,0.4-0.1C64.7,90.1,64.8,90.2,64.8,90.2z"/>
		<path class="st0" d="M66.9,110.5c0.1,0.1,0.2,0.1,0.3,0.2c0.1,0.2,0,0.4-0.1,0.5c-0.7,0.8-1.5,1.5-2.2,2.3
			c-0.2,0.2-0.4,0.4-0.7,0.2s0.1-0.4,0.2-0.6c0.8-0.8,1.6-1.7,2.3-2.5C66.7,110.6,66.8,110.6,66.9,110.5z"/>
		<path class="st0" d="M46.7,112.8c-0.3,0-0.4,0-0.5-0.2s0-0.3,0.2-0.4c0.7-0.4,1.4-0.9,2-1.5c0.2-0.2,0.5-0.4,0.7-0.2
			s-0.1,0.5-0.3,0.6C48.1,111.8,47.3,112.3,46.7,112.8z"/>
		<path class="st0" d="M74,64.2c-0.3,0.4-0.6,0.8-1,1.3c-0.1,0.2-0.3,0.3-0.4,0.5s-0.2,0.4-0.5,0.3s-0.1-0.5,0-0.6
			c0.5-0.5,0.9-1,1.2-1.6c0.1-0.2,0.3-0.2,0.5-0.2S74,64,74,64.2z"/>
		<path class="st0" d="M51.8,122.9c-0.1,0-0.2-0.1-0.2-0.1c0-0.1,0-0.2,0.1-0.3c0.4-0.3,0.8-0.6,1.3-0.8c0.1-0.1,0.2-0.1,0.3-0.1
			c0.3,0,0.5-0.7,0.8-0.2s-0.3,0.5-0.6,0.7C53,122.5,52.4,122.7,51.8,122.9z"/>
		<path class="st0" d="M72.2,59.2c-0.2,0.8-0.6,1.4-1.1,2c0,0-0.2,0-0.3,0s-0.1-0.2-0.1-0.4c0.3-0.6,0.7-1.2,1.1-1.7
			C71.9,59,72,59,72.1,59C72.1,59,72.2,59.1,72.2,59.2z"/>
		<path class="st0" d="M67.6,101.7c-0.3,0.8-0.8,1.4-1.5,1.9c-0.1,0-0.3,0-0.3,0c-0.1-0.1-0.1-0.3,0-0.4c0.4-0.5,0.9-1,1.4-1.5
			C67.2,101.6,67.4,101.6,67.6,101.7C67.7,101.6,67.6,101.7,67.6,101.7z"/>
		<path class="st0" d="M46.5,100.4c0.1-0.1,0.3-0.3,0.3-0.1S46.7,100.5,46.5,100.4L46.5,100.4z"/>
		<path class="st0" d="M64,43.9c-0.2,0.5-0.4,1.2-0.7,1.9c-0.4,1.2-0.9,2.4-1.5,3.5c-0.9,1.8-1.3,3.9-2.5,5.6
			c-0.6,1-1.1,2.1-1.6,3.2c-0.6,1-1.2,2.1-1.8,3.1c-0.1,0.2-0.3,0.5-0.6,0.3s-0.1-0.4,0-0.6c1.5-2.5,2.8-5.1,4-7.8
			c1-1.9,1.8-3.9,2.5-5.9c0.4-1.2,0.9-2.4,1.5-3.6c0.1-0.2,0.2-0.4,0.5-0.4S64.1,43.5,64,43.9z"/>
		<path class="st0" d="M65.2,60.7l-0.3-0.2c-0.2-0.2,0-0.3,0-0.4c0.9-1.3,1.7-2.6,2.4-4c0.7-1.2,1.2-2.4,1.7-3.7
			c0.1-0.2,0.1-0.4,0.4-0.3s0.1,0.3,0.1,0.5c-0.6,1.6-1.3,3.2-2.1,4.7c-0.6,1.1-1.4,2.1-2,3.2C65.3,60.5,65.2,60.6,65.2,60.7z"/>
		<path class="st0" d="M68,48.3c-0.1,0.2-0.2,0.5-0.4,0.7c-1,1.5-1.5,3.2-2.4,4.7c-0.1,0.1-0.2,0.4-0.4,0.2s-0.2-0.3-0.1-0.5
			c0.7-1.8,1.6-3.6,2.7-5.2c0.1-0.2,0.3-0.3,0.5-0.3S68,48.1,68,48.3z"/>
		<path class="st0" d="M43,76.8c-0.2,0.2-0.4,0.5-0.6,0.8c-0.8,1.1-1.7,2.2-2.7,3.2c-0.2,0.2-0.2,0.4-0.4,0.6s-0.3,0.5-0.6,0.2
			s-0.2-0.5,0-0.7c1.1-1.1,2.1-2.2,3.1-3.5c0.2-0.2,0.3-0.5,0.5-0.7c0.1-0.1,0.3-0.2,0.5-0.1C42.8,76.6,42.9,76.7,43,76.8z"/>
		<path class="st0" d="M41,91.6c-0.1-0.1-0.2-0.1-0.2-0.2s0.1-0.3,0.2-0.4c1.2-1,2.3-2.1,3.3-3.2c0.2-0.2,0.4-0.4,0.6-0.7
			c0.1-0.1,0.3-0.2,0.4-0.1c0,0,0,0,0,0c0.1,0.1,0.2,0.2,0.1,0.4c0,0,0,0,0,0.1c-1.1,1.5-2.5,2.9-4,4C41.3,91.6,41.1,91.6,41,91.6z"
			/>
		<path class="st0" d="M42.2,75.1c-0.4,0.6-0.8,1.2-1.3,1.7c-0.7,0.5-1,1.3-1.7,1.9c-0.2,0.2-0.4,0.5-0.6,0.3s-0.1-0.5,0.1-0.7
			c0.7-0.8,1.5-1.5,2.2-2.3c0.3-0.3,0.5-0.7,0.8-1c0.1-0.1,0.2-0.1,0.4-0.1C42,74.8,42.1,74.9,42.2,75.1z"/>
		<path class="st0" d="M42.8,79.8c-0.2,0.6-0.8,1-1.2,1.6c-0.4,0.6-0.9,1.1-1.5,1.6c-0.2,0.2-0.3,0.3-0.5,0.2s0-0.4,0.1-0.5
			c0.9-0.9,1.8-2,2.5-3.1c0.1-0.1,0.3-0.2,0.4-0.2C42.9,79.4,42.8,79.6,42.8,79.8z"/>
		<path class="st0" d="M55.6,69.5c0.1-0.4,0.3-0.7,0.6-1c0.5-0.4,0.9-1,1.2-1.5c0.1-0.2,0.3-0.3,0.4-0.2c0,0,0,0,0.1,0
			c0.2,0.1,0.1,0.3,0,0.4c-0.5,0.9-1.1,1.8-1.8,2.5c-0.1,0.1-0.3,0.2-0.4,0.1C55.7,69.8,55.7,69.6,55.6,69.5z"/>
		<path class="st0" d="M61.3,65.6c0.3,0,0.3,0.1,0.2,0.3c-0.3,1.1-1.3,1.8-1.8,2.7c-0.1,0.1-0.3,0.1-0.5,0c0,0,0,0,0,0
			c-0.1-0.1-0.1-0.3,0-0.4c0,0,0,0,0,0l1.6-2.3C60.9,65.7,61.1,65.6,61.3,65.6z"/>
		<path class="st0" d="M44.3,85.5c0.2,0.1,0.2,0.3,0.1,0.4c-0.2,0.3-0.4,0.6-0.7,0.9c-0.6,0.6-1.1,1.4-1.9,1.9
			c-0.2,0.1-0.3,0.2-0.4,0.1s0-0.3,0.1-0.4c0.9-1,1.7-1.9,2.6-2.8C44.2,85.6,44.3,85.5,44.3,85.5z"/>
		<path class="st0" d="M42.5,85.3c-0.2,0.3-0.4,0.5-0.6,0.8c-0.5,0.6-1,1.1-1.6,1.7c-0.1,0.1-0.3,0.3-0.5,0.1s0-0.3,0.2-0.4l2-2.1
			c0.1-0.1,0.2-0.3,0.4-0.2S42.4,85.2,42.5,85.3z"/>
		<path class="st0" d="M55.2,58.1c-0.3,0.9-0.8,1.7-1.5,2.4c-0.4,0.2-0.3-0.2-0.3-0.3c0.4-0.8,0.8-1.5,1.2-2.3c0-0.1,0.3-0.1,0.4,0
			S55.1,58.1,55.2,58.1z"/>
		<path class="st0" d="M38.1,71.5c-0.2-0.2-0.3-0.2-0.4-0.3c-0.1-0.2-0.1-0.4,0.1-0.5c0.5-0.6,1.1-1.1,1.6-1.7
			c0.9-1.1,1.8-2.3,2.7-3.4c0.2-0.2,0.3-0.6,0.5-0.3s0.1,0.4-0.1,0.7c-0.9,1.2-1.8,2.5-2.7,3.7C39.3,70.3,38.7,70.9,38.1,71.5z"/>
		<path class="st0" d="M42,63.7c-0.2,0.3-0.5,0.5-0.7,0.8c-1,1.6-2.2,3.1-3.4,4.5c-0.2,0.2-0.4,0.3-0.6,0.1s-0.1-0.4,0.1-0.6
			c1.3-1.3,2.5-2.8,3.5-4.4c0.2-0.2,0.4-0.4,0.6-0.6c0.1-0.1,0.3-0.1,0.4-0.1C41.9,63.4,42,63.6,42,63.7z"/>
		<path class="st0" d="M37,59.9c-0.4-0.1-0.4-0.3-0.2-0.5c1.3-1.7,2.6-3.4,3.9-5.1c0.1-0.1,0.2-0.3,0.4-0.1c0.1,0.1,0.1,0.3,0,0.4
			c-1,1.5-2,3-3.1,4.4C37.6,59.4,37.3,59.7,37,59.9z"/>
		<path class="st0" d="M51.6,50.8c-0.1,0.3-0.3,0.6-0.5,0.9c-0.8,1.1-1.4,2.2-2,3.3c-0.2,0.3-0.4,0.6-0.7,0.4s0.1-0.5,0.2-0.7
			c0.7-1.4,1.5-2.7,2.4-3.9c0.1-0.1,0.1-0.3,0.3-0.3S51.5,50.7,51.6,50.8z"/>
		<path class="st0" d="M40.9,62.3c0,0.3-0.2,0.4-0.3,0.6c-0.9,1.2-1.9,2.4-2.9,3.5c-0.1,0.1-0.3,0.3-0.5,0.2s0-0.6,0.1-0.7
			c0.8-0.8,1.5-1.7,2.2-2.6c0.3-0.3,0.6-0.7,0.9-1c0.1-0.1,0.2-0.1,0.3-0.2C40.8,62.1,40.9,62.2,40.9,62.3z"/>
		<path class="st0" d="M46.7,46.1c-0.4,0.7-0.8,1.5-1.4,2.2c-0.2,0.3-0.3,0.9-0.8,0.6s0.1-0.7,0.3-1c0.4-0.7,0.9-1.5,1.4-2.2
			c0.1-0.1,0.2-0.2,0.3-0.2C46.7,45.6,46.6,45.8,46.7,46.1z"/>
		<path class="st0" d="M38.9,73c-0.3-0.1-0.3-0.3-0.2-0.5c0.6-0.9,1.3-1.9,1.9-2.8c0.1-0.2,0.3-0.2,0.5-0.1c0.1,0,0.2,0.2,0.1,0.3
			c0,0,0,0.1-0.1,0.1c-0.9,0.8-1,2.1-2,2.8C39.1,72.8,39,72.9,38.9,73z"/>
		<path class="st0" d="M37,57.5c-0.3-0.1-0.4-0.3-0.2-0.5c0.6-0.9,1.3-1.7,2-2.5c0.1,0,0.2,0,0.3,0c0.1,0.1,0.1,0.2,0.1,0.3
			c-0.5,1-1.2,1.9-1.9,2.8C37.2,57.5,37.1,57.5,37,57.5z"/>
		<path class="st0" d="M31.8,29.3c0.6,0.2,0.4,0.9,0.7,1.3c0.1,0.1,0.1,0.3,0.1,0.5c0,0.2,0.3,0.5,0,0.6s-0.5-0.1-0.6-0.4
			c-0.2-0.5-0.4-1-0.6-1.5C31.4,29.5,31.5,29.4,31.8,29.3z"/>
		<path class="st0" d="M33.1,24.9c0.1,0.1,0.2,0.2,0.2,0.3c0.3,0.4,0.5,0.9,0.8,1.3c0.1,0.2,0.2,0.4,0,0.6s-0.4,0-0.5-0.1
			c-0.4-0.4-0.7-1-0.8-1.6C32.7,25.1,32.7,24.9,33.1,24.9z"/>
		<path class="st0" d="M30.5,36.5c0.2,0,0.2,0.2,0.3,0.3c0.1,0.3,0.1,0.6,0.3,0.8c0,0.1,0,0.2,0,0.3c-0.1,0.1-0.2,0.1-0.3,0
			c0,0,0,0,0,0c-0.4-0.3-0.6-0.7-0.5-1.1C30.3,36.6,30.4,36.5,30.5,36.5z"/>
		<path class="st0" d="M155.5,104.7c0.1,2.1,0.1,4.1,0,6.2c-0.3,2.5,0,4.9-0.3,7.4c-0.1,0.9-0.2,1.9-0.4,2.8c0,0.2-0.1,0.3-0.3,0.3
			s-0.2-0.2-0.2-0.4c0.1-2.1,0.2-4.2,0.4-6.2c0.3-3.4,0.5-6.7,0.5-10.1c0-0.2,0.1-0.6,0.3-0.5C155.9,104.2,155.5,104.7,155.5,104.7z
			"/>
		<path class="st0" d="M167.6,84.4c-0.1,1.2-0.2,2.6-0.4,4c-0.1,0.8-0.1,1.8-0.1,2.6c-0.2,1.3-0.3,2.7-0.3,4c0,0.3,0,0.5-0.1,0.8
			c0,0.3,0,0.6-0.4,0.6s-0.2-0.4-0.2-0.7c0.3-3.4,0.6-6.9,0.8-10.3c0-0.7,0-1.4,0.1-2.1c0.1-0.2,0-0.6,0.4-0.6s0.2,0.4,0.2,0.6
			S167.6,83.9,167.6,84.4z"/>
		<path class="st0" d="M157,76.8c0.3,0.4,0.5,0.9,0.4,1.4c-0.1,2.6-0.2,5.2-0.4,7.8c0,0.8-0.1,1.6-0.1,2.4c0,0.3-0.2,0.5-0.5,0.6
			c-0.3,0-0.2-0.3-0.2-0.5c0.4-2.1,0.2-4.3,0.5-6.5c0.1-1,0.1-2,0-3C156.7,78.3,156.8,77.6,157,76.8z"/>
		<path class="st0" d="M155.5,96.9c0-0.6,0-1.3,0.1-1.9c0.1-0.2,0.1-0.3,0.3-0.3s0.2,0.2,0.2,0.3c0.1,1.3,0,2.7-0.2,4
			c0,0.8-0.1,1.7-0.2,2.5c-0.1,0.3-0.2,0.7-0.5,0.7s-0.1-0.4-0.1-0.7C155.1,100,155.6,98.5,155.5,96.9z"/>
		<path class="st0" d="M153.5,62.6c-0.1,0.5-0.2,1-0.3,1.4c0,0.2-0.1,0.4-0.4,0.3c-0.2-0.1-0.2-0.2-0.2-0.4c0-0.5,0.1-1,0.1-1.5
			c0-0.2,0.2-0.4,0.4-0.4C153.4,62.2,153.5,62.4,153.5,62.6z"/>
		<path class="st0" d="M137,63.3c0.2,0,0.2,0.1,0.2,0.2s-0.1,0.2-0.3,0.2s-0.2,0-0.2-0.2S137,63.3,137,63.3z"/>
	</g>
</g>
</svg>
