<?xml version="1.0" encoding="UTF-8" standalone="no"?>
<!-- Created with Inkscape (http://www.inkscape.org/) -->
<svg
   xmlns:svg="http://www.w3.org/2000/svg"
   xmlns="http://www.w3.org/2000/svg"
   version="1.0"
   width="1236"
   height="722"
   viewBox="0 0 1236 722"
   id="svg3850">
  <defs
     id="defs4003" />
  <path
     d="M 955.4,505.4 L 929.7,570.8 L 912,561.4 L 951.9,503.6 L 955.4,505.4 z"
     id="polygon3856"
     style="font-size:60px;fill:#000000;stroke:#000000;stroke-width:4;stroke-linecap:round;font-family:Helvetica" />
  <path
     d="M 1213.7,279.79999 L 1189,204"
     id="line3858"
     style="font-size:60px;stroke:#000000;stroke-width:4;stroke-linecap:round;font-family:Helvetica" />
  <path
     d="M 436,401.70001 L 384,401.70001"
     id="line3862"
     style="font-size:60px;stroke:#000000;stroke-width:4;stroke-linecap:butt;font-family:Helvetica" />
  <path
     d="M 332,401.70001 L 284,401.70001"
     id="line3864"
     style="font-size:60px;stroke:#000000;stroke-width:4;stroke-linecap:butt;font-family:Helvetica" />
  <path
     d="M 1077.5,157.2 L 1052.4,80"
     id="line3866"
     style="font-size:60px;stroke:#000000;stroke-width:4;stroke-linecap:butt;font-family:Helvetica" />
  <path
     d="M 120,401.70001 L 72,401.70001"
     id="line3870"
     style="font-size:60px;stroke:#000000;stroke-width:4;stroke-linecap:butt;font-family:Helvetica" />
  <path
     d="M 924,377.20001 L 868,336.5"
     id="line3872"
     style="font-size:60px;stroke:#000000;stroke-width:4;stroke-linecap:butt;font-family:Helvetica" />
  <path
     d="M 224,401.70001 L 172,401.70001"
     id="line3876"
     style="font-size:60px;stroke:#000000;stroke-width:4;stroke-linecap:butt;font-family:Helvetica" />
  <path
     d="M 1006.6,235.8 L 1039.3,336.5"
     id="line3878"
     style="font-size:60px;stroke:#000000;stroke-width:4;stroke-linecap:butt;font-family:Helvetica" />
  <path
     d="M 1033.5,241 L 1058,316.5"
     id="line3880"
     style="font-size:60px;stroke:#000000;stroke-width:4;stroke-linecap:butt;font-family:Helvetica" />
  <path
     d="M 928,235.8 L 1006.6,235.8"
     id="line3882"
     style="font-size:60px;stroke:#000000;stroke-width:4;stroke-linecap:butt;font-family:Helvetica" />
  <path
     d="M 920.79999,566.09998 L 920.79999,636"
     id="line3884"
     style="font-size:60px;stroke:#000000;stroke-width:4;stroke-linecap:butt;font-family:Helvetica" />
  <path
     d="M 351.20001,364 L 351.20001,320"
     id="line3886"
     style="font-size:60px;stroke:#000000;stroke-width:4;stroke-linecap:butt;font-family:Helvetica" />
  <path
     d="M 367.20001,364 L 367.20001,320"
     id="line3888"
     style="font-size:60px;stroke:#000000;stroke-width:4;stroke-linecap:butt;font-family:Helvetica" />
  <path
     d="M 782.40002,507.5 L 840,481.10001"
     id="line3890"
     style="font-size:60px;stroke:#000000;stroke-width:4;stroke-linecap:butt;font-family:Helvetica" />
  <path
     d="M 815,567.90002 L 815,636"
     id="line3892"
     style="font-size:60px;stroke:#000000;stroke-width:4;stroke-linecap:butt;font-family:Helvetica" />
  <path
     d="M 868,336.5 L 892.79999,260"
     id="line3894"
     style="font-size:60px;stroke:#000000;stroke-width:4;stroke-linecap:butt;font-family:Helvetica" />
  <path
     d="M 893.90002,334.29999 L 912.59998,277"
     id="line3896"
     style="font-size:60px;stroke:#000000;stroke-width:4;stroke-linecap:butt;font-family:Helvetica" />
  <path
     d="M 562.79999,364 L 562.79999,320"
     id="line3898"
     style="font-size:60px;stroke:#000000;stroke-width:4;stroke-linecap:butt;font-family:Helvetica" />
  <path
     d="M 578.79999,364 L 578.79999,320"
     id="line3900"
     style="font-size:60px;stroke:#000000;stroke-width:4;stroke-linecap:butt;font-family:Helvetica" />
  <path
     d="M 147.60001,424 L 147.60001,472"
     id="line3902"
     style="font-size:60px;stroke:#000000;stroke-width:4;stroke-linecap:butt;font-family:Helvetica" />
  <path
     d="M 359.20001,424 L 359.20001,472"
     id="line3904"
     style="font-size:60px;stroke:#000000;stroke-width:4;stroke-linecap:butt;font-family:Helvetica" />
  <path
     d="M 953.59998,504.5 L 953.59998,424"
     id="line3906"
     style="font-size:60px;stroke:#000000;stroke-width:4;stroke-linecap:butt;font-family:Helvetica" />
  <path
     d="M 570.79999,424 L 570.79999,472"
     id="line3908"
     style="font-size:60px;stroke:#000000;stroke-width:4;stroke-linecap:butt;font-family:Helvetica" />
  <path
     d="M 784.2,506.5 L 823.8,563.1 L 806.2,572.6 L 780.7,508.4 L 784.2,506.5 z"
     id="polygon3910"
     style="font-size:60px;fill:#000000;stroke:#000000;stroke-width:4;stroke-linecap:butt;font-family:Helvetica" />
  <path
     d="M 1172,326.10001 L 1213.7,279.79999"
     id="line3912"
     style="font-size:60px;stroke:#000000;stroke-width:4;stroke-linecap:butt;font-family:Helvetica" />
  <path
     d="M 1159.4,304.20001 L 1190.6,269.60001"
     id="line3914"
     style="font-size:60px;stroke:#000000;stroke-width:4;stroke-linecap:butt;font-family:Helvetica" />
  <path
     d="M 544,401.70001 L 496,401.70001"
     id="line3916"
     style="font-size:60px;stroke:#000000;stroke-width:4;stroke-linecap:butt;font-family:Helvetica" />
  <path
     d="M 1039.3,336.5 L 980,379.5"
     id="line3918"
     style="font-size:60px;stroke:#000000;stroke-width:4;stroke-linecap:butt;font-family:Helvetica" />
  <path
     d="M 920.79999,566.09998 L 815,567.90002"
     id="line3922"
     style="font-size:60px;stroke:#000000;stroke-width:20;stroke-linecap:round;font-family:Helvetica" />
  <path
     d="M 782.40002,507.5 L 782.40002,401.70001"
     id="line3926"
     style="font-size:60px;stroke:#000000;stroke-width:4;stroke-linecap:butt;font-family:Helvetica" />
  <path
     d="M 648,401.70001 L 596,401.70001"
     id="line3928"
     style="font-size:60px;stroke:#000000;stroke-width:4;stroke-linecap:butt;font-family:Helvetica" />
  <path
     d="M 1152,173 L 1077.5,157.2"
     id="line3930"
     style="font-size:60px;stroke:#000000;stroke-width:4;stroke-linecap:butt;font-family:Helvetica" />
  <path
     d="M 1137.7,194.5 L 1081.8,182.7"
     id="line3932"
     style="font-size:60px;stroke:#000000;stroke-width:4;stroke-linecap:butt;font-family:Helvetica" />
  <path
     d="M 900,481.79999 L 953.59998,504.5"
     id="line3934"
     style="font-size:60px;stroke:#000000;stroke-width:4;stroke-linecap:butt;font-family:Helvetica" />
  <path
     d="M 782.40002,401.70001 L 708,401.70001"
     id="line3936"
     style="font-size:60px;stroke:#000000;stroke-width:4;stroke-linecap:butt;font-family:Helvetica" />
  <path
     d="M 1077.5,157.2 L 1006.6,235.8"
     id="line3938"
     style="font-size:60px;stroke:#000000;stroke-width:4;stroke-linecap:butt;font-family:Helvetica" />
  <path
     d="M 139.60001,364 L 139.60001,320"
     id="line3942"
     style="font-size:60px;stroke:#000000;stroke-width:4;stroke-linecap:butt;font-family:Helvetica" />
  <path
     d="M 155.60001,364 L 155.60001,320"
     id="line3944"
     style="font-size:60px;stroke:#000000;stroke-width:4;stroke-linecap:butt;font-family:Helvetica" />
  <path
     d="M 1039.3,336.5 L 1116,352.79999"
     id="line3946"
     style="font-size:60px;stroke:#000000;stroke-width:4;stroke-linecap:butt;font-family:Helvetica" />
  <path
     d="M 656.1004,396.78204 C 656.1004,389.65317 658.01446,384.07212 661.84259,380.03888 C 665.6707,376.00572 670.6121,373.98912 676.66681,373.98907 C 680.63163,373.98912 684.20584,374.93638 687.38947,376.83087 C 690.57302,378.72544 692.99978,381.36704 694.66974,384.75568 C 696.33962,388.14438 697.17458,391.98715 697.17462,396.284 C 697.17458,400.63948 696.29567,404.53596 694.5379,407.97345 C 692.78005,411.41096 690.28982,414.01349 687.0672,415.78107 C 683.84451,417.54865 680.36795,418.43243 676.63751,418.43243 C 672.59452,418.43243 668.98125,417.45587 665.79767,415.50275 C 662.61407,413.54963 660.20196,410.88361 658.56134,407.5047 C 656.92071,404.12581 656.1004,400.55159 656.1004,396.78204 L 656.1004,396.78204 z M 661.95978,396.86993 C 661.95977,402.04573 663.35137,406.12288 666.13458,409.10138 C 668.91777,412.0799 672.40898,413.56916 676.60822,413.56915 C 680.88553,413.56916 684.40604,412.06525 687.16974,409.05743 C 689.93337,406.04963 691.31521,401.78206 691.31525,396.2547 C 691.31521,392.75863 690.72439,389.70688 689.54279,387.09943 C 688.36111,384.49204 686.6326,382.47056 684.35724,381.03497 C 682.08182,379.59946 679.52811,378.88169 676.69611,378.88165 C 672.67265,378.88169 669.21074,380.26353 666.31036,383.02716 C 663.40996,385.79086 661.95977,390.40512 661.95978,396.86993 L 661.95978,396.86993 z"
     id="text3948"
     style="font-size:60px;fill:#000000;stroke-linecap:round;font-family:Helvetica" />
  <path
     d="M 553.82892,417.70001 L 553.82892,374.75079 L 570.03009,374.75079 C 572.88163,374.75084 575.05936,374.88756 576.56329,375.16095 C 578.67264,375.51255 580.44022,376.1815 581.86603,377.16779 C 583.29177,378.15415 584.43923,379.53599 585.30841,381.31329 C 586.17751,383.09067 586.61208,385.04379 586.61212,387.17267 C 586.61208,390.82504 585.44998,393.91586 583.12579,396.44513 C 580.80154,398.97444 576.60233,400.23909 570.52814,400.23907 L 559.51251,400.23907 L 559.51251,417.70001 L 553.82892,417.70001 z M 559.51251,395.17072 L 570.61603,395.17072 C 574.28788,395.17074 576.8953,394.48714 578.43829,393.11993 C 579.98123,391.75277 580.75272,389.82895 580.75275,387.34845 C 580.75272,385.55161 580.29861,384.01352 579.39044,382.73419 C 578.48221,381.45493 577.28592,380.61021 575.80157,380.20001 C 574.84452,379.94614 573.07694,379.81919 570.49884,379.81915 L 559.51251,379.81915 L 559.51251,395.17072 z"
     id="text3950"
     style="font-size:60px;fill:#000000;stroke-linecap:round;font-family:Helvetica" />
  <path
     d="M 444.1004,396.78204 C 444.1004,389.65317 446.01446,384.07212 449.84259,380.03888 C 453.6707,376.00572 458.6121,373.98912 464.66681,373.98907 C 468.63163,373.98912 472.20584,374.93638 475.38947,376.83087 C 478.57302,378.72544 480.99978,381.36704 482.66974,384.75568 C 484.33962,388.14438 485.17458,391.98715 485.17462,396.284 C 485.17458,400.63948 484.29567,404.53596 482.5379,407.97345 C 480.78005,411.41096 478.28982,414.01349 475.0672,415.78107 C 471.84451,417.54865 468.36795,418.43243 464.63751,418.43243 C 460.59452,418.43243 456.98125,417.45587 453.79767,415.50275 C 450.61407,413.54963 448.20196,410.88361 446.56134,407.5047 C 444.92071,404.12581 444.1004,400.55159 444.1004,396.78204 L 444.1004,396.78204 z M 449.95978,396.86993 C 449.95977,402.04573 451.35137,406.12288 454.13458,409.10138 C 456.91777,412.0799 460.40898,413.56916 464.60822,413.56915 C 468.88553,413.56916 472.40604,412.06525 475.16974,409.05743 C 477.93337,406.04963 479.31521,401.78206 479.31525,396.2547 C 479.31521,392.75863 478.72439,389.70688 477.54279,387.09943 C 476.36111,384.49204 474.6326,382.47056 472.35724,381.03497 C 470.08182,379.59946 467.52811,378.88169 464.69611,378.88165 C 460.67265,378.88169 457.21074,380.26353 454.31036,383.02716 C 451.40996,385.79086 449.95977,390.40512 449.95978,396.86993 L 449.95978,396.86993 z"
     id="text3952"
     style="font-size:60px;fill:#000000;stroke-linecap:round;font-family:Helvetica" />
  <path
     d="M 341.82892,417.70001 L 341.82892,374.75079 L 358.03009,374.75079 C 360.88163,374.75084 363.05936,374.88756 364.56329,375.16095 C 366.67264,375.51255 368.44022,376.1815 369.86603,377.16779 C 371.29177,378.15415 372.43923,379.53599 373.30841,381.31329 C 374.17751,383.09067 374.61208,385.04379 374.61212,387.17267 C 374.61208,390.82504 373.44998,393.91586 371.12579,396.44513 C 368.80154,398.97444 364.60233,400.23909 358.52814,400.23907 L 347.51251,400.23907 L 347.51251,417.70001 L 341.82892,417.70001 z M 347.51251,395.17072 L 358.61603,395.17072 C 362.28788,395.17074 364.8953,394.48714 366.43829,393.11993 C 367.98123,391.75277 368.75272,389.82895 368.75275,387.34845 C 368.75272,385.55161 368.29861,384.01352 367.39044,382.73419 C 366.48221,381.45493 365.28592,380.61021 363.80157,380.20001 C 362.84452,379.94614 361.07694,379.81919 358.49884,379.81915 L 347.51251,379.81915 L 347.51251,395.17072 z"
     id="text3954"
     style="font-size:60px;fill:#000000;stroke-linecap:round;font-family:Helvetica" />
  <path
     d="M 336.1004,290.98203 C 336.1004,283.85315 338.01446,278.2721 341.84259,274.23886 C 345.6707,270.2057 350.6121,268.1891 356.66681,268.18906 C 360.63163,268.1891 364.20584,269.13636 367.38947,271.03085 C 370.57302,272.92542 372.99978,275.56702 374.66974,278.95566 C 376.33962,282.34436 377.17458,286.18713 377.17462,290.48398 C 377.17458,294.83946 376.29567,298.73594 374.5379,302.17343 C 372.78005,305.61094 370.28982,308.21347 367.0672,309.98105 C 363.84451,311.74863 360.36795,312.63242 356.63751,312.63242 C 352.59452,312.63242 348.98125,311.65585 345.79767,309.70273 C 342.61407,307.74961 340.20196,305.08359 338.56134,301.70468 C 336.92071,298.32579 336.1004,294.75157 336.1004,290.98203 L 336.1004,290.98203 z M 341.95978,291.06992 C 341.95977,296.24571 343.35137,300.32286 346.13458,303.30136 C 348.91777,306.27988 352.40898,307.76914 356.60822,307.76913 C 360.88553,307.76914 364.40604,306.26523 367.16974,303.25742 C 369.93337,300.24961 371.31521,295.98204 371.31525,290.45468 C 371.31521,286.95861 370.72439,283.90686 369.54279,281.29941 C 368.36111,278.69202 366.6326,276.67054 364.35724,275.23495 C 362.08182,273.79945 359.52811,273.08167 356.69611,273.08163 C 352.67265,273.08167 349.21074,274.46351 346.31036,277.22714 C 343.40996,279.99085 341.95977,284.6051 341.95978,291.06992 L 341.95978,291.06992 z"
     id="text3956"
     style="font-size:60px;fill:#000000;stroke-linecap:round;font-family:Helvetica" />
  <path
     d="M 548.1004,290.98203 C 548.1004,283.85315 550.01446,278.2721 553.84259,274.23886 C 557.6707,270.2057 562.6121,268.1891 568.66681,268.18906 C 572.63163,268.1891 576.20584,269.13636 579.38947,271.03085 C 582.57302,272.92542 584.99978,275.56702 586.66974,278.95566 C 588.33962,282.34436 589.17458,286.18713 589.17462,290.48398 C 589.17458,294.83946 588.29567,298.73594 586.5379,302.17343 C 584.78005,305.61094 582.28982,308.21347 579.0672,309.98105 C 575.84451,311.74863 572.36795,312.63242 568.63751,312.63242 C 564.59452,312.63242 560.98125,311.65585 557.79767,309.70273 C 554.61407,307.74961 552.20196,305.08359 550.56134,301.70468 C 548.92071,298.32579 548.1004,294.75157 548.1004,290.98203 L 548.1004,290.98203 z M 553.95978,291.06992 C 553.95977,296.24571 555.35137,300.32286 558.13458,303.30136 C 560.91777,306.27988 564.40898,307.76914 568.60822,307.76913 C 572.88553,307.76914 576.40604,306.26523 579.16974,303.25742 C 581.93337,300.24961 583.31521,295.98204 583.31525,290.45468 C 583.31521,286.95861 582.72439,283.90686 581.54279,281.29941 C 580.36111,278.69202 578.6326,276.67054 576.35724,275.23495 C 574.08182,273.79945 571.52811,273.08167 568.69611,273.08163 C 564.67265,273.08167 561.21074,274.46351 558.31036,277.22714 C 555.40996,279.99085 553.95977,284.6051 553.95978,291.06992 L 553.95978,291.06992 z"
     id="text3958"
     style="font-size:60px;fill:#000000;stroke-linecap:round;font-family:Helvetica" />
  <path
     d="M 548.1004,502.58203 C 548.1004,495.45315 550.01446,489.8721 553.84259,485.83887 C 557.6707,481.80571 562.6121,479.78911 568.66681,479.78906 C 572.63163,479.78911 576.20584,480.73637 579.38947,482.63086 C 582.57302,484.52543 584.99978,487.16703 586.66974,490.55566 C 588.33962,493.94437 589.17458,497.78714 589.17462,502.08398 C 589.17458,506.43947 588.29567,510.33595 586.5379,513.77344 C 584.78005,517.21094 582.28982,519.81348 579.0672,521.58105 C 575.84451,523.34863 572.36795,524.23242 568.63751,524.23242 C 564.59452,524.23242 560.98125,523.25586 557.79767,521.30273 C 554.61407,519.34961 552.20196,516.6836 550.56134,513.30469 C 548.92071,509.92579 548.1004,506.35158 548.1004,502.58203 L 548.1004,502.58203 z M 553.95978,502.66992 C 553.95977,507.84572 555.35137,511.92286 558.13458,514.90137 C 560.91777,517.87989 564.40898,519.36914 568.60822,519.36914 C 572.88553,519.36914 576.40604,517.86524 579.16974,514.85742 C 581.93337,511.84962 583.31521,507.58205 583.31525,502.05469 C 583.31521,498.55862 582.72439,495.50686 581.54279,492.89941 C 580.36111,490.29203 578.6326,488.27054 576.35724,486.83496 C 574.08182,485.39945 571.52811,484.68168 568.69611,484.68164 C 564.67265,484.68168 561.21074,486.06351 558.31036,488.82715 C 555.40996,491.59085 553.95977,496.20511 553.95978,502.66992 L 553.95978,502.66992 z M 615.61505,483.45947 L 594.34552,483.45947 L 594.34552,479.76807 L 615.61505,479.76807 L 615.61505,483.45947 z"
     id="text3960"
     style="font-size:60px;fill:#000000;stroke-linecap:round;font-family:Helvetica" />
  <path
     d="M 336.1004,502.58203 C 336.1004,495.45315 338.01446,489.8721 341.84259,485.83887 C 345.6707,481.80571 350.6121,479.78911 356.66681,479.78906 C 360.63163,479.78911 364.20584,480.73637 367.38947,482.63086 C 370.57302,484.52543 372.99978,487.16703 374.66974,490.55566 C 376.33962,493.94437 377.17458,497.78714 377.17462,502.08398 C 377.17458,506.43947 376.29567,510.33595 374.5379,513.77344 C 372.78005,517.21094 370.28982,519.81348 367.0672,521.58105 C 363.84451,523.34863 360.36795,524.23242 356.63751,524.23242 C 352.59452,524.23242 348.98125,523.25586 345.79767,521.30273 C 342.61407,519.34961 340.20196,516.6836 338.56134,513.30469 C 336.92071,509.92579 336.1004,506.35158 336.1004,502.58203 L 336.1004,502.58203 z M 341.95978,502.66992 C 341.95977,507.84572 343.35137,511.92286 346.13458,514.90137 C 348.91777,517.87989 352.40898,519.36914 356.60822,519.36914 C 360.88553,519.36914 364.40604,517.86524 367.16974,514.85742 C 369.93337,511.84962 371.31521,507.58205 371.31525,502.05469 C 371.31521,498.55862 370.72439,495.50686 369.54279,492.89941 C 368.36111,490.29203 366.6326,488.27054 364.35724,486.83496 C 362.08182,485.39945 359.52811,484.68168 356.69611,484.68164 C 352.67265,484.68168 349.21074,486.06351 346.31036,488.82715 C 343.40996,491.59085 341.95977,496.20511 341.95978,502.66992 L 341.95978,502.66992 z M 403.61505,483.45947 L 382.34552,483.45947 L 382.34552,479.76807 L 403.61505,479.76807 L 403.61505,483.45947 z"
     id="text3964"
     style="font-size:60px;fill:#000000;stroke-linecap:round;font-family:Helvetica" />
  <path
     d="M 848.1004,463.38202 C 848.1004,456.25314 850.01446,450.67209 853.84259,446.63885 C 857.6707,442.60569 862.6121,440.58909 868.66681,440.58905 C 872.63163,440.58909 876.20584,441.53636 879.38947,443.43085 C 882.57302,445.32542 884.99978,447.96702 886.66974,451.35565 C 888.33962,454.74435 889.17458,458.58712 889.17462,462.88397 C 889.17458,467.23946 888.29567,471.13594 886.5379,474.57343 C 884.78005,478.01093 882.28982,480.61347 879.0672,482.38104 C 875.84451,484.14862 872.36795,485.03241 868.63751,485.03241 C 864.59452,485.03241 860.98125,484.05585 857.79767,482.10272 C 854.61407,480.1496 852.20196,477.48359 850.56134,474.10468 C 848.92071,470.72578 848.1004,467.15157 848.1004,463.38202 L 848.1004,463.38202 z M 853.95978,463.46991 C 853.95977,468.64571 855.35137,472.72285 858.13458,475.70135 C 860.91777,478.67988 864.40898,480.16913 868.60822,480.16913 C 872.88553,480.16913 876.40604,478.66523 879.16974,475.65741 C 881.93337,472.64961 883.31521,468.38203 883.31525,462.85468 C 883.31521,459.35861 882.72439,456.30685 881.54279,453.6994 C 880.36111,451.09201 878.6326,449.07053 876.35724,447.63495 C 874.08182,446.19944 871.52811,445.48167 868.69611,445.48163 C 864.67265,445.48167 861.21074,446.8635 858.31036,449.62714 C 855.40996,452.39084 853.95977,457.00509 853.95978,463.46991 L 853.95978,463.46991 z"
     id="text3968"
     style="font-size:60px;fill:#000000;stroke-linecap:round;font-family:Helvetica" />
  <path
     d="M 792.1004,668.78204 C 792.1004,661.65317 794.01446,656.07212 797.84259,652.03888 C 801.6707,648.00572 806.6121,645.98912 812.66681,645.98907 C 816.63163,645.98912 820.20584,646.93638 823.38947,648.83087 C 826.57302,650.72544 828.99978,653.36704 830.66974,656.75568 C 832.33962,660.14438 833.17458,663.98715 833.17462,668.284 C 833.17458,672.63948 832.29567,676.53596 830.5379,679.97345 C 828.78005,683.41096 826.28982,686.01349 823.0672,687.78107 C 819.84451,689.54865 816.36795,690.43243 812.63751,690.43243 C 808.59452,690.43243 804.98125,689.45587 801.79767,687.50275 C 798.61407,685.54963 796.20196,682.88361 794.56134,679.5047 C 792.92071,676.12581 792.1004,672.55159 792.1004,668.78204 L 792.1004,668.78204 z M 797.95978,668.86993 C 797.95977,674.04573 799.35137,678.12288 802.13458,681.10138 C 804.91777,684.0799 808.40898,685.56916 812.60822,685.56915 C 816.88553,685.56916 820.40604,684.06525 823.16974,681.05743 C 825.93337,678.04963 827.31521,673.78206 827.31525,668.2547 C 827.31521,664.75863 826.72439,661.70688 825.54279,659.09943 C 824.36111,656.49204 822.6326,654.47056 820.35724,653.03497 C 818.08182,651.59946 815.52811,650.88169 812.69611,650.88165 C 808.67265,650.88169 805.21074,652.26353 802.31036,655.02716 C 799.40996,657.79086 797.95977,662.40512 797.95978,668.86993 L 797.95978,668.86993 z M 840.64532,689.70001 L 840.64532,646.75079 L 846.32892,646.75079 L 846.32892,664.38751 L 868.65314,664.38751 L 868.65314,646.75079 L 874.33673,646.75079 L 874.33673,689.70001 L 868.65314,689.70001 L 868.65314,669.45587 L 846.32892,669.45587 L 846.32892,689.70001 L 840.64532,689.70001 z"
     id="text3970"
     style="font-size:60px;fill:#000000;stroke-linecap:round;font-family:Helvetica" />
  <path
     d="M 900.1004,666.98206 C 900.1004,659.85318 902.01446,654.27213 905.84259,650.23889 C 909.6707,646.20573 914.6121,644.18913 920.66681,644.18909 C 924.63163,644.18913 928.20584,645.1364 931.38947,647.03088 C 934.57302,648.92545 936.99978,651.56705 938.66974,654.95569 C 940.33962,658.34439 941.17458,662.18716 941.17462,666.48401 C 941.17458,670.83949 940.29567,674.73598 938.5379,678.17346 C 936.78005,681.61097 934.28982,684.2135 931.0672,685.98108 C 927.84451,687.74866 924.36795,688.63245 920.63751,688.63245 C 916.59452,688.63245 912.98125,687.65588 909.79767,685.70276 C 906.61407,683.74964 904.20196,681.08362 902.56134,677.70471 C 900.92071,674.32582 900.1004,670.7516 900.1004,666.98206 L 900.1004,666.98206 z M 905.95978,667.06995 C 905.95977,672.24574 907.35137,676.32289 910.13458,679.30139 C 912.91777,682.27991 916.40898,683.76917 920.60822,683.76917 C 924.88553,683.76917 928.40604,682.26526 931.16974,679.25745 C 933.93337,676.24965 935.31521,671.98207 935.31525,666.45471 C 935.31521,662.95864 934.72439,659.90689 933.54279,657.29944 C 932.36111,654.69205 930.6326,652.67057 928.35724,651.23499 C 926.08182,649.79948 923.52811,649.0817 920.69611,649.08167 C 916.67265,649.0817 913.21074,650.46354 910.31036,653.22717 C 907.40996,655.99088 905.95977,660.60513 905.95978,667.06995 L 905.95978,667.06995 z M 948.64532,687.90002 L 948.64532,644.95081 L 954.32892,644.95081 L 954.32892,662.58752 L 976.65314,662.58752 L 976.65314,644.95081 L 982.33673,644.95081 L 982.33673,687.90002 L 976.65314,687.90002 L 976.65314,667.65588 L 954.32892,667.65588 L 954.32892,687.90002 L 948.64532,687.90002 z"
     id="text3972"
     style="font-size:60px;fill:#000000;stroke-linecap:round;font-family:Helvetica" />
  <path
     d="M 954.0047,72.599998 L 954.0047,29.65078 L 959.68829,29.65078 L 959.68829,47.287498 L 982.01251,47.287498 L 982.01251,29.65078 L 987.69611,29.65078 L 987.69611,72.599998 L 982.01251,72.599998 L 982.01251,52.355858 L 959.68829,52.355858 L 959.68829,72.599998 L 954.0047,72.599998 z M 1015.2132,81.798729 L 1015.2132,85.599998 L 993.92169,85.599998 C 993.89239,84.647851 994.0462,83.732325 994.38312,82.853416 C 994.92511,81.403225 995.79303,79.975004 996.98688,78.568748 C 998.18072,77.162507 999.90557,75.536532 1002.1614,73.690819 C 1005.6624,70.81974 1008.0281,68.545572 1009.2586,66.868309 C 1010.4891,65.191083 1011.1043,63.605392 1011.1043,62.111229 C 1011.1043,60.543871 1010.544,59.221851 1009.4234,58.145164 C 1008.3028,57.068533 1006.8416,56.530203 1005.0399,56.530174 C 1003.1355,56.530203 1001.6121,57.101492 1000.4695,58.244041 C 999.32696,59.386646 998.74835,60.968675 998.7337,62.990135 L 994.66876,62.572655 C 994.94708,59.540454 995.99444,57.229666 997.81085,55.640282 C 999.62725,54.050958 1002.0662,53.256281 1005.1277,53.256248 C 1008.2186,53.256281 1010.6648,54.113214 1012.4666,55.827049 C 1014.2683,57.540945 1015.1692,59.664966 1015.1693,62.19912 C 1015.1692,63.488204 1014.9056,64.755293 1014.3782,66.000389 C 1013.8509,67.245525 1012.9756,68.556558 1011.7525,69.933495 C 1010.5293,71.310462 1008.4969,73.200109 1005.6551,75.60244 C 1003.282,77.594635 1001.7586,78.945952 1001.0848,79.656395 C 1000.4109,80.366849 999.8543,81.08096 999.41486,81.798729 L 1015.2132,81.798729 z M 1022.1785,72.599998 L 1022.1785,29.65078 L 1028.0086,29.65078 L 1050.5672,63.371483 L 1050.5672,29.65078 L 1056.0164,29.65078 L 1056.0164,72.599998 L 1050.1863,72.599998 L 1027.6277,38.849998 L 1027.6277,72.599998 L 1022.1785,72.599998 z"
     id="text3974"
     style="font-size:60px;fill:#000000;stroke-linecap:round;font-family:Helvetica" />
  <path
     d="M 1161.7703,195.2 L 1161.7703,152.25078 L 1167.6003,152.25078 L 1190.1589,185.97148 L 1190.1589,152.25078 L 1195.6082,152.25078 L 1195.6082,195.2 L 1189.7781,195.2 L 1167.2195,161.45 L 1167.2195,195.2 L 1161.7703,195.2 z"
     id="text3980"
     style="font-size:60px;fill:#000000;stroke-linecap:round;font-family:Helvetica" />
  <path
     d="M 1125.7703,374.39999 L 1125.7703,331.45078 L 1131.6003,331.45078 L 1154.1589,365.17148 L 1154.1589,331.45078 L 1159.6082,331.45078 L 1159.6082,374.39999 L 1153.7781,374.39999 L 1131.2195,340.64999 L 1131.2195,374.39999 L 1125.7703,374.39999 z"
     id="text3982"
     style="font-size:60px;fill:#000000;stroke-linecap:round;font-family:Helvetica" />
  <path
     d="M 933.77032,414.70001 L 933.77032,371.75079 L 939.6004,371.75079 L 962.159,405.4715 L 962.159,371.75079 L 967.60822,371.75079 L 967.60822,414.70001 L 961.77814,414.70001 L 939.21954,380.95001 L 939.21954,414.70001 L 933.77032,414.70001 z"
     id="text3984"
     style="font-size:60px;fill:#000000;stroke-linecap:round;font-family:Helvetica" />
  <path
     d="M 881.77032,251.8 L 881.77032,208.85078 L 887.6004,208.85078 L 910.159,242.57149 L 910.159,208.85078 L 915.60822,208.85078 L 915.60822,251.8 L 909.77814,251.8 L 887.21954,218.05 L 887.21954,251.8 L 881.77032,251.8 z"
     id="text3986"
     style="font-size:60px;fill:#000000;stroke-linecap:round;font-family:Helvetica" />
  <path
     d="M 232.10039,396.78204 C 232.10038,389.65317 234.01445,384.07212 237.84258,380.03888 C 241.67069,376.00572 246.61209,373.98912 252.66679,373.98907 C 256.63161,373.98912 260.20583,374.93638 263.38945,376.83087 C 266.57301,378.72544 268.99976,381.36704 270.66972,384.75568 C 272.3396,388.14438 273.17456,391.98715 273.17461,396.284 C 273.17456,400.63948 272.29566,404.53596 270.53789,407.97345 C 268.78004,411.41096 266.2898,414.01349 263.06718,415.78107 C 259.8445,417.54865 256.36794,418.43243 252.6375,418.43243 C 248.59451,418.43243 244.98123,417.45587 241.79765,415.50275 C 238.61405,413.54963 236.20194,410.88361 234.56133,407.5047 C 232.9207,404.12581 232.10038,400.55159 232.10039,396.78204 L 232.10039,396.78204 z M 237.95976,396.86993 C 237.95975,402.04573 239.35135,406.12288 242.13457,409.10138 C 244.91775,412.0799 248.40896,413.56916 252.6082,413.56915 C 256.88552,413.56916 260.40602,412.06525 263.16972,409.05743 C 265.93336,406.04963 267.31519,401.78206 267.31523,396.2547 C 267.31519,392.75863 266.72437,389.70688 265.54277,387.09943 C 264.36109,384.49204 262.63258,382.47056 260.35722,381.03497 C 258.0818,379.59946 255.5281,378.88169 252.69609,378.88165 C 248.67263,378.88169 245.21072,380.26353 242.31035,383.02716 C 239.40995,385.79086 237.95975,390.40512 237.95976,396.86993 L 237.95976,396.86993 z"
     id="text3988"
     style="font-size:60px;fill:#000000;stroke-linecap:round;font-family:Helvetica" />
  <path
     d="M 129.8289,417.70001 L 129.8289,374.75079 L 146.03008,374.75079 C 148.88161,374.75084 151.05935,374.88756 152.56328,375.16095 C 154.67262,375.51255 156.4402,376.1815 157.86601,377.16779 C 159.29176,378.15415 160.43922,379.53599 161.3084,381.31329 C 162.1775,383.09067 162.61207,385.04379 162.61211,387.17267 C 162.61207,390.82504 161.44996,393.91586 159.12578,396.44513 C 156.80153,398.97444 152.60231,400.23909 146.52812,400.23907 L 135.5125,400.23907 L 135.5125,417.70001 L 129.8289,417.70001 z M 135.5125,395.17072 L 146.61601,395.17072 C 150.28786,395.17074 152.89528,394.48714 154.43828,393.11993 C 155.98122,391.75277 156.7527,389.82895 156.75273,387.34845 C 156.7527,385.55161 156.2986,384.01352 155.39043,382.73419 C 154.48219,381.45493 153.28591,380.61021 151.80156,380.20001 C 150.8445,379.94614 149.07693,379.81919 146.49883,379.81915 L 135.5125,379.81915 L 135.5125,395.17072 z"
     id="text3990"
     style="font-size:60px;fill:#000000;stroke-linecap:round;font-family:Helvetica" />
  <path
     d="M 124.10039,290.98203 C 124.10038,283.85315 126.01445,278.2721 129.84258,274.23886 C 133.67069,270.2057 138.61209,268.1891 144.66679,268.18906 C 148.63161,268.1891 152.20583,269.13636 155.38945,271.03085 C 158.57301,272.92542 160.99976,275.56702 162.66972,278.95566 C 164.3396,282.34436 165.17456,286.18713 165.17461,290.48398 C 165.17456,294.83946 164.29566,298.73594 162.53789,302.17343 C 160.78004,305.61094 158.2898,308.21347 155.06718,309.98105 C 151.8445,311.74863 148.36794,312.63242 144.6375,312.63242 C 140.59451,312.63242 136.98123,311.65585 133.79765,309.70273 C 130.61405,307.74961 128.20194,305.08359 126.56133,301.70468 C 124.9207,298.32579 124.10038,294.75157 124.10039,290.98203 L 124.10039,290.98203 z M 129.95976,291.06992 C 129.95975,296.24571 131.35135,300.32286 134.13457,303.30136 C 136.91775,306.27988 140.40896,307.76914 144.6082,307.76913 C 148.88552,307.76914 152.40602,306.26523 155.16972,303.25742 C 157.93336,300.24961 159.31519,295.98204 159.31523,290.45468 C 159.31519,286.95861 158.72437,283.90686 157.54277,281.29941 C 156.36109,278.69202 154.63258,276.67054 152.35722,275.23495 C 150.0818,273.79945 147.5281,273.08167 144.69609,273.08163 C 140.67263,273.08167 137.21072,274.46351 134.31035,277.22714 C 131.40995,279.99085 129.95975,284.6051 129.95976,291.06992 L 129.95976,291.06992 z"
     id="text3992"
     style="font-size:60px;fill:#000000;stroke-linecap:round;font-family:Helvetica" />
  <path
     d="M 20.100391,396.78204 C 20.100388,389.65317 22.014449,384.07212 25.842579,380.03888 C 29.670691,376.00572 34.612093,373.98912 40.666798,373.98907 C 44.631614,373.98912 48.205829,374.93638 51.389454,376.83087 C 54.57301,378.72544 56.999766,381.36704 58.669727,384.75568 C 60.339606,388.14438 61.174566,391.98715 61.17461,396.284 C 61.174566,400.63948 60.295661,404.53596 58.537891,407.97345 C 56.780039,411.41096 54.289807,414.01349 51.067188,415.78107 C 47.844501,417.54865 44.367942,418.43243 40.637501,418.43243 C 36.594513,418.43243 32.981235,417.45587 29.797657,415.50275 C 26.614054,413.54963 24.201947,410.88361 22.561329,407.5047 C 20.9207,404.12581 20.100388,400.55159 20.100391,396.78204 L 20.100391,396.78204 z M 25.959766,396.86993 C 25.959758,402.04573 27.351358,406.12288 30.134571,409.10138 C 32.917758,412.0799 36.408966,413.56916 40.608204,413.56915 C 44.88552,413.56916 48.406024,412.06525 51.169727,409.05743 C 53.933362,406.04963 55.315197,401.78206 55.315235,396.2547 C 55.315197,392.75863 54.724377,389.70688 53.542774,387.09943 C 52.361098,384.49204 50.632585,382.47056 48.357227,381.03497 C 46.081808,379.59946 43.528099,378.88169 40.696095,378.88165 C 36.672638,378.88169 33.210727,380.26353 30.310352,383.02716 C 27.409951,385.79086 25.959758,390.40512 25.959766,396.86993 L 25.959766,396.86993 z M 87.61504,377.65948 L 66.345509,377.65948 L 66.345509,373.96808 L 87.61504,373.96808 L 87.61504,377.65948 z"
     id="text3994"
     style="font-size:60px;fill:#000000;stroke-linecap:round;font-family:Helvetica" />
  <path
     d="M 124.10039,502.58203 C 124.10038,495.45315 126.01445,489.8721 129.84258,485.83887 C 133.67069,481.80571 138.61209,479.78911 144.66679,479.78906 C 148.63161,479.78911 152.20583,480.73637 155.38945,482.63086 C 158.57301,484.52543 160.99976,487.16703 162.66972,490.55566 C 164.3396,493.94437 165.17456,497.78714 165.17461,502.08398 C 165.17456,506.43947 164.29566,510.33595 162.53789,513.77344 C 160.78004,517.21094 158.2898,519.81348 155.06718,521.58105 C 151.8445,523.34863 148.36794,524.23242 144.6375,524.23242 C 140.59451,524.23242 136.98123,523.25586 133.79765,521.30273 C 130.61405,519.34961 128.20194,516.6836 126.56133,513.30469 C 124.9207,509.92579 124.10038,506.35158 124.10039,502.58203 L 124.10039,502.58203 z M 129.95976,502.66992 C 129.95975,507.84572 131.35135,511.92286 134.13457,514.90137 C 136.91775,517.87989 140.40896,519.36914 144.6082,519.36914 C 148.88552,519.36914 152.40602,517.86524 155.16972,514.85742 C 157.93336,511.84962 159.31519,507.58205 159.31523,502.05469 C 159.31519,498.55862 158.72437,495.50686 157.54277,492.89941 C 156.36109,490.29203 154.63258,488.27054 152.35722,486.83496 C 150.0818,485.39945 147.5281,484.68168 144.69609,484.68164 C 140.67263,484.68168 137.21072,486.06351 134.31035,488.82715 C 131.40995,491.59085 129.95975,496.20511 129.95976,502.66992 L 129.95976,502.66992 z M 191.61504,483.45947 L 170.3455,483.45947 L 170.3455,479.76807 L 191.61504,479.76807 L 191.61504,483.45947 z"
     id="text3998"
     style="font-size:60px;fill:#000000;stroke-linecap:round;font-family:Helvetica" />
</svg>
