<svg xmlns="http://www.w3.org/2000/svg" viewBox="0 0 560.8 771.31"><defs><style>.cls-1{fill:#fb9434;}</style></defs><g id="Layer_2" data-name="Layer 2"><g id="Layer_1-2" data-name="Layer 1"><path class="cls-1" d="M274.32,0c1,26.46,1.55,52.94,3.19,79.36.51,8.27.49,16.52.78,24.78.31,8.55,1.55,17.2,1.56,25.54,0,23.93,2.06,47.77,2.19,71.63.12,22.29,1.73,44.54,1.26,66.83,0,1.75.69,3.52,1,5.29.53,3.33-.95,6.84.92,10.06,3.27-2.36,6.78-4.46,9.77-7.14,9.63-8.61,19.44-17,29.66-24.91,7.95-6.18,14.91-13.63,22.63-20.13,9.28-7.8,18.73-15.41,28.43-22.68,6.49-4.86,9.44-11.2,6.15-18.29-9.55-20.6-16.08-42.37-24.55-63.39-6.11-15.14-12.29-30.4-17.18-46.07-.52-1.69-1.53-3.22-2.18-4.88-.9-2.32-1.77-5.43.39-6.72,2.59-1.55,4.71.42,6.14,3.18C349,81.32,354,90,358.58,98.83q20.75,40.15,41.23,80.43c2.25,4.47,4.32,4.54,7.77,1.59,12.8-10.93,25.72-21.72,38.53-32.64,18.46-15.73,37.67-30.68,54.94-47.63,8.49-8.33,18.39-14.9,26.38-23.66,2.42-2.66,6.27-4.68,8.62-2.2,2.55,2.69-.59,5.16-3,7.85-11.27,12.54-24,23.6-34.67,36.81-7.47,9.29-16.68,17.15-25.05,25.72-5.74,5.88-11.35,11.88-17,17.82-.81.86-1.7,1.73-1.1,3s2.07.86,3.09.79c16.9-1.25,33.79-2.6,50.68-3.85,10.52-.77,21.05-1.41,31.58-2.09,5.27-.34,10.53-.68,15.8-.92,2-.09,4.22-.37,4.45,2.6.21,2.81-1.64,2.92-3.82,3.32-15.9,2.9-31.92,5.33-47.61,9.13-25.23,6.11-50.84,10.18-76.26,15.27-9,1.81-14,9.59-20,15.35-10.73,10.2-20.5,21.4-30.89,32-9.25,9.4-18.88,18.42-28.16,27.79-21.83,22.06-43.51,44.25-65.36,66.29a8.17,8.17,0,0,0-2.37,6.65c.71,25.17,1.06,50.37,2.12,75.53.82,19.18,1.43,38.37,2,57.56.94,29.28,2.27,58.55,3,87.85.44,18,.89,36.09,2.11,54,.82,12,.71,24.11,1.22,36.13q.69,15.93,1.39,31.91c.76,17.41.25,34.87,1.27,52.25.47,7.94.31,15.88.94,23.78.62,7.67-4.2,10.43-10.09,11.51-20.64,3.8-41.36,2.78-62,.1-4.4-.58-7-2.27-6.86-7.65.91-25.51.91-51,2.28-76.53,1-18.89,1.47-37.76,1.86-56.66.49-24,.87-48.05,2.07-72q1.54-30.51,1.95-61c.34-22.52,1.23-45,1.94-67.55.62-20.07.59-40.19,2.24-60.18,1.16-13.88,1.08-27.82,1.19-41.6.12-15.66,2.11-31.19,1.81-46.87-.14-7.6-2.38-12.82-7.51-17.86-15.15-14.9-30.31-29.8-45-45.16-11.12-11.64-23-22.53-33.94-34.37s-22.54-23.24-34.2-34.47c-5.07-4.89-12.7-3.63-19.16-5-15.78-3.44-31.71-6.2-47.58-9.28-15-2.91-30-5.94-45.09-8.78-2.63-.5-4.87-1.47-4.06-4.29.67-2.36,2.77-3,5.64-2.33a48,48,0,0,0,13.67,1.46c12-.83,23.56,2.62,35.54,2.37,10.28-.22,20.61,1.56,30.91,2.53,1,.09,2.22.56,2.5-.63.38-1.55.75-3.33-.8-4.63C70.34,103.91,57.1,85.49,40.54,70.39,33.72,64.18,28.41,56.45,20.68,51.2c-2-1.37-2.79-3.34-1-5.52,1.6-1.94,3.45-2.42,5.58-.67C32.62,51.06,40,57,47.34,63.14,61.57,75,75.81,86.91,89.91,99c13.4,11.45,26.62,23.13,39.94,34.68,9.69,8.41,19.37,16.85,29.15,25.16q15.06,12.78,30.34,25.31c15,12.24,29.82,24.6,43.82,37.94,1.51,1.43,3.1,2.25,4.87,1.51,1.93-.82.19-2.54.25-3.81.53-11.24,1.23-22.5,1.06-33.74-.27-16.94,1.34-33.76,2-50.63.19-4.74-1-9.53-.9-14.28C241,95.58,241,70,242.64,44.58c.93-14.87-.37-29.79,1.74-44.58ZM248.37,215.31c3.59-1.07,6.67-3,9.41-.33.75.73.8,3.22.14,4.15-2.09,2.92-4.89,1.4-7.6.66-3.1-.84-3,1.39-3,3.52q0,15,0,30c0,2.76-.57,5.49,4.1,3.63a4.16,4.16,0,0,1,5.81,3.63c.34,3.69-2.72,3.3-4.9,3-6.07-.82-6.89,3.08-7,7.52-.11,8.18-.5,16.39.07,24.53,1.17,16.67-2,33.17-1.27,49.87.56,11.87-1.71,23.85-1.62,35.77.2,27.92-1.53,55.78-2,83.67-.37,20.36-1.18,40.7-2,61-1,25.5-1.34,51-2.12,76.52-.51,16.69-1.37,33.37-1.94,50.06-.74,21.57-1.31,43.14-2,64.7-.35,10.59.71,21.17-.86,31.78-.82,5.52-2.22,12.49,7.28,12.79,13.65.44,27.31,1.44,40.94,0,7.67-.81,11.71-3.91,10.78-13-1.51-14.78-1.63-29.7-2.2-44.56-.74-19.36-1.68-38.72-1.94-58.08-.4-28.81-1.81-57.57-2.95-86.35-.75-18.72-.77-37.47-1.13-56.21a13.1,13.1,0,0,0-.29-2.94c-.51-2-1-3.5-3.61-1.5-2.87,2.23-6,1.53-8.47-.92-1.14-1.12-.58-2.62.56-3.49,2.81-2.13,5.93-2.29,8.57,0,3,2.61,3.13-.64,3.1-1.66a179.35,179.35,0,0,0-1.36-19.68c-1.57-10.59-1.45-21.44-1.65-31.9-.23-11.84-.55-23.92-.09-35.9.39-10.2-2.11-20.53-1.41-30.67.78-11.3-2.34-22.25-.73-33.71,1.37-9.75-1.43-20-1.4-30,0-12.67-1.67-25.2-1.45-37.91.31-18.69-1-37.42-1.8-56.12-.35-7.89,0-15.85-.38-23.62-.5-9.85-1.9-19.7-1.49-29.61.25-6.18.61-11.65-8.38-9.21a2.67,2.67,0,0,1-3.62-2.41c-.24-2,.78-2.88,2.5-3.75,2.12-1.08,4.24-.74,6.33-.65,2.9.13,3.23-1.3,3.08-3.66-.71-11.23-1.48-22.47-1.9-33.71-.14-3.67,0-6.52-5.06-5.82-2,.26-4.5-.64-4.86-3.22-.26-1.84,1.51-3.63,2.95-3.38,8.45,1.45,5.62-4.66,5.94-8.58.39-4.93.5-9.88,1-14.8.36-3.6-1.33-4.63-4.31-3.64-3.38,1.11-6.93,1.52-7.45-2.64-.69-5.49,4.17-3.15,6.81-3.49,2.19-.29,4.15.27,3.94-3.28-.34-5.68,0-11.4-.06-17.1,0-2.12.74-6-2.9-4.79a22.47,22.47,0,0,1-7.63,1.06c-2.47,0-3.49.57-3.53,3.31-.16,11.48-.49,23-.92,34.44-.12,3,.4,4.81,4,4.31,2.19-.3,3.89.25,4.1,3,.23,3.07-1.79,3.45-4,3.85-1.56.29-4.3-.93-4,2.17,1.2,11.2-4.07,22.1-1.3,33.44.66,2.73,1.38,4.31,4.05,4.39s5.06.83,5,3.59-3,3.44-5.24,3.31c-4-.22-4.71,1.73-4.61,5.16.19,6.15.08,12.31,0,18.47,0,2-.1,3.67,2.73,3.52s6.91-.13,6.72,3-4.17,4.17-7.57,3.86c-2.45-.22-4,.09-3.94,3.31C248.46,187.72,248.37,201.36,248.37,215.31Zm17.79-177.9c-1-6.81-.85-13.41-.74-20a54.24,54.24,0,0,0-1-12.25c-.68-3.18-2.95-3-5.19-3.2-2-.16-3.12.55-4,2.74-3.46,8.88-1,17.85-.9,26.78,0,2,.88,2.82,2.69,2.5C260.64,33.35,263.37,34.84,266.16,37.41Zm19.28,285.83c6.47-4.13,9.32-8.63,4.17-15.24-1-1.27-1-3.35-1.29-5.09-.41-2.72-1.45-5-4.7-7.69C286.11,305.14,284.82,314,285.44,323.24Zm-48-77.72h0c0-3,.07-6,0-8.92a2.2,2.2,0,0,0-1.16-1.71,2.12,2.12,0,0,0-1.78,1.05c-1.76,4.35-4.12,8.64-3.91,13.45.14,3.18,2.45,6.86,5.05,6.88,4,0,1.16-4.11,1.82-6.31C237.78,248.59,237.45,247,237.45,245.52Zm60.09,65.15c1.83-7.36-1-13.53-3.62-19.69-.44-1,.22-3.71-2.14-3.06-2,.54-1.89,2.85-1.37,4.29C292.63,298.42,295.14,304.53,297.54,310.67Zm9.76-11.57c-1.85-5.14-3.64-10.31-5.64-15.39-.22-.56-1.67-.63-2.54-.93-.27.87-.94,1.86-.73,2.59,1.55,5.1,3.28,10.14,4.93,15.21.43,1.3,1.51,1.06,2.44,1C307.48,301.57,307.25,300.23,307.3,299.1Zm1.17-24c-2.22,1.31-2.8,3.19-1.5,6,1.5,3.2,2.56,6.61,3.93,9.88.57,1.36-.38,4.51,2.66,3.38,2.66-1,1.85-3.22.86-5.37C312.31,284.46,310.46,279.81,308.47,275.14Zm13.72,7.76c-1.24-3.53-2.64-7.66-4.17-11.74a2.11,2.11,0,0,0-2.83-1.36c-1.48.57-1.08,2.05-.79,3,1.18,3.88,2.53,7.71,3.91,11.53.46,1.27.47,3.43,2.43,3C322.43,287,322.29,285,322.19,282.9Zm15.25-14.14c-1.12-3.69-2.25-7.74-3.62-11.7a2.88,2.88,0,0,0-2.35-1.27c-1.73.09-1.39,1.75-1.17,2.69.87,3.79,1.84,7.57,3.05,11.26.38,1.18.65,3.25,2.77,2.76C338,272.06,336.93,270.31,337.44,268.76ZM328.67,281c1.59-7.9-2.57-13-3.63-18.71-.05-.29-1.13-.62-1.68-.54-1.4.19-1.24,1.48-1.07,2.33A50.55,50.55,0,0,0,328.67,281Zm16.52-20.75c-1.33-3.16-2.85-6.87-4.49-10.53-.2-.44-1.05-.59-1.6-.87a7.5,7.5,0,0,0-.85,2c-.43,4.11,2.53,7.29,3.23,11.13.15.81.39,3,2.39,2.26C345.32,263.74,345.33,262.25,345.19,260.29Zm.86-14.81c.8,4.07,2,8.28,5.64,11,1.23.91,1.7-1.21,1.48-2.24a24.49,24.49,0,0,0-6.1-12.18C346.48,241.43,346.59,244.1,346.05,245.48Zm-117-17.62c-.33.25-1,.46-1.09.84-1.58,4.77-3.11,9.55-4.55,14.36-.11.36.59,1.36.9,1.35a2,2,0,0,0,1.57-.91q2.32-6.92,4.41-13.91A1.23,1.23,0,0,0,229.1,227.86Zm131.25,18.22c-1.12-3.19-2.31-6.73-3.64-10.22-.17-.45-1-.64-1.58-1a8.58,8.58,0,0,0-.91,2c-.69,4,1.68,7.24,3,10.72.29.77,1.41,1.85,2,1.76C360.86,249.12,359.85,247.51,360.35,246.08ZM209.94,231.71c4.51-3.44,5.64-8.47,7.41-13.19.21-.57-.62-1.81-1.28-2.38-.85-.73-1.33-.06-1.62.89C213,221.93,211.45,226.82,209.94,231.71ZM361.85,231c1.52,2.84,1.18,7.17,4.71,9.45,1.34.87,1.78-1.1,1.54-2.17-.83-3.74-1.38-7.87-4.66-10.22C362,227.07,362.51,229.49,361.85,231ZM222,222.7c-1.82,4.25-3.7,8.48-5.41,12.78a2.16,2.16,0,0,0,.74,2,2.14,2.14,0,0,0,2-.61C221.41,232.49,223.68,228.13,222,222.7Zm153.29,7.84c-.14-3.42-.89-6.9-4-8.43-1.56-.77-1.25,2-1,2.95.81,3.29-.15,7.83,3.57,9.31C375.87,235.18,374.66,231.88,375.28,230.54ZM378,218.63c.42,2.9.85,6.26,3.59,7.81,1.69.95,1.85-1.73,1.48-2.67-1.2-3,.08-7.43-3.67-8.77C377.55,214.33,378.58,217.23,378,218.63ZM209.77,212c-4.46,3.25-5.85,7.7-5.05,14C208.22,221.39,208.74,216.6,209.77,212ZM192,213.1c3.78-3.28,3.1-7.8,5.27-11a2.18,2.18,0,0,0-.49-2.1,1.45,1.45,0,0,0-2.31.94C193.76,204.78,190.41,208.09,192,213.1Zm-8.37-21.85c-.41-1.14.39-3.19-1.07-2.71-3.51,1.16-2.83,5.05-3.92,7.75-.34.85-.59,3.66.91,3.08C183.05,198,181.8,193.66,183.61,191.25Zm203.44,18.23c-.92.62-2.95-.34-2.22,1.22,1.18,2.51,1.25,6,4.72,7,1.35.35,1.84-.88,1.54-1.86C390.35,213.32,389.87,210.56,387.05,209.48Zm7-4.07c.48,1.87-.87,4.6,2.3,5.19,2.12.39,1.72-1.41,1.78-2.64.12-2.39-.31-5.18-2.62-5.76S394.73,204.32,394,205.41Zm12-6.11c-.61-1-.05-3.41-2.88-3.58-1.83-.11-2.45,1-2,2.42.61,2,.88,4.84,3.27,5.27C406,203.69,406.15,201.48,406,199.3Zm-217.52-6.21c-1.56,4.23-2.81,7.48-3.94,10.79a1.26,1.26,0,0,0,1.12,1.79c.92.11,1.71-.13,1.74-1.2C187.54,201.05,190.9,198.23,188.52,193.09Zm14.42,11.38c-3.14,4.91-4.59,8.76-4.59,13.14C200.21,213.86,204,210.89,202.94,204.47ZM173,193c2.27-3.66,4-6.46,3-11.24C173.2,185.64,171.77,188.56,173,193Zm246.16-11.28c-1.87-.19-2.21.94-2.09,2.43.15,1.79,1.19,2.49,2.92,2.57s2.17-1,2.06-2.45C421.9,182.48,420.84,181.75,419.14,181.75Zm-259.42-2.3c3.28-1.65,3.43-4.64,3.71-7.49.09-1-.73-.73-1.33-.41C158.74,173.32,159.45,176.32,159.72,179.45ZM410.08,191c.12,1.79-.55,4.19,1.81,4.49,1.92.24,1.15-1.9,1.2-3,.08-1.71.49-4.12-1.81-4.4C409.31,187.84,410.48,190,410.08,191ZM169,177.63c-1.71,2.75-3.7,4.64-3.14,7.62a2,2,0,0,0,1.68.35C170,183.65,169.86,181.07,169,177.63Zm-17.12-6.15c2.45.59,4.52.58,4.58-2.61,0-1,.6-3-.92-2.77C152.87,166.52,153,169.5,151.89,171.48Zm-5.17-3.92c3.56-2,3.12-4.45,2.36-7.37C145.79,162.06,146.59,164.63,146.72,167.56ZM444,162c-.3-.61.38-2.11-1.1-2s-1.95,1.41-1.91,2.84c0,1.08.28,1.92,1.59,1.83C444.34,164.6,443.9,163.24,444,162Zm-8.3,4.94c-1.4.61-1.74,1.73-1.68,3.15.06,1.26.71,1.77,1.85,1.56,1.66-.3,1.11-1.71,1.14-2.72S437.25,166.89,435.73,167ZM122.56,138.68c0-1.08-.29-1.88-1.61-1.78s-1.37,1.08-1.36,2,.33,1.87,1.63,1.79S122.54,139.65,122.56,138.68Zm306.49,38.25c0-1,0-2.06-1.46-2.08s-1.52,1-1.5,2c0,.84.06,1.68,1.19,1.81C428.6,178.82,429.07,178.13,429.05,176.93Z"/><path class="cls-1" d="M246.18,682.11c-3.17.21-5.82-.59-5.66-4s3.56-3.71,5.82-3.82c2.76-.13,6,1.32,5.78,4.61S248.74,682.37,246.18,682.11Z"/><path class="cls-1" d="M261.37,526.35a3.52,3.52,0,0,1,4.57,3.6c-.22,2.94-2.69,4.58-6,4.39-2.75-.15-4.55-1.42-4.41-4.16C255.69,526.74,258.25,526.08,261.37,526.35Z"/><path class="cls-1" d="M262.83,268.63c2.86.73,5.41,2.38,5.19,5.1-.21,2.51-3.09,3.77-5.62,3.75a4.54,4.54,0,0,1-4.77-4.55C257.69,270.07,260.71,269.56,262.83,268.63Z"/><path class="cls-1" d="M245,589.15c-3,.54-4.32-1.13-4.63-4s1.79-3.85,3.92-3.67c2.66.23,6.42.57,6.59,3.74C251,587.66,248.27,589.52,245,589.15Z"/><path class="cls-1" d="M246.37,721.53a3.87,3.87,0,0,1-4.47,4.26c-2.14-.25-5.74-.57-5.39-4.2.3-3.08,3.07-4.38,5.71-4.24C244.38,717.46,246.8,718.59,246.37,721.53Z"/><path class="cls-1" d="M260.58,601.3c2.37-.32,5.43.18,5.3,2.76-.14,2.9-2.93,4.34-6.23,4.23-2.61-.09-5.14-.72-5.1-3.43C254.6,601.4,257.61,601.08,260.58,601.3Z"/><path class="cls-1" d="M265,233.64c-2.28-.46-5.55-.33-5.37-3.58.17-3,3.12-4.21,5.82-4.16,2.18,0,5.09.67,4.71,3.74C269.84,232.13,268.31,234.31,265,233.64Z"/><path class="cls-1" d="M252.52,353.52c-3.5-.11-6.06-1.41-5.9-4.1.18-3,3.47-3.5,5.93-3.69a4.07,4.07,0,0,1,4.59,4C257.26,353.36,253.78,352.52,252.52,353.52Z"/><path class="cls-1" d="M269.31,709.86c-.21,3.94-3.58,3.62-5.81,4s-4-.69-4.14-3.6c-.13-3.47,2-4.06,4.66-4.24C266.89,705.87,268.77,707,269.31,709.86Z"/><path class="cls-1" d="M263.07,190.63c2.63.71,5.8,1.37,5.93,4.29s-3.24,3.44-5.38,3.64c-2.31.21-5.08-.55-5.21-3.81S261.16,191.65,263.07,190.63Z"/><path class="cls-1" d="M265.88,341.49c-2.64.26-5.29-.43-5.34-3.48-.05-2.7,2.34-3.64,5-3.45,2.38.17,5.46-.35,5.6,3.11C271.25,340.84,268.8,341.68,265.88,341.49Z"/><path class="cls-1" d="M248.3,524.26c-2.65.4-5.71-.33-5.55-2.76.28-4.1,4.69-3.25,7.45-4a3.19,3.19,0,0,1,4,3.33C253.87,524.23,251.05,524.63,248.3,524.26Z"/><path class="cls-1" d="M269.86,514.31c2.71.08,5.39-.51,5.33,2.8-.06,4-3.24,3.93-6.06,4.15-2.51.19-4.69-1-4.59-3.39C264.68,514.39,267.65,514.13,269.86,514.31Z"/><path class="cls-1" d="M278,744c-2.54.28-5.3-.37-5.33-3,0-3,2.74-4,5.67-4s4.93,1,4.84,4.19C283.06,744.92,280.09,743.82,278,744Z"/><path class="cls-1" d="M269.86,575.18c-3.22.72-5.16-1.27-5.19-3.77,0-2.68,2.59-3.2,5.13-3.21,2.77,0,5.2.64,5.35,3.7C275.32,575.62,272.07,574.85,269.86,575.18Z"/><path class="cls-1" d="M277.48,552.12c-4.39.41-6.93-.33-7-3.39,0-2.38,2.1-3.52,4.57-3.37,2.62.16,5.76.13,6,3.52C281.4,552.44,278.19,552,277.48,552.12Z"/><path class="cls-1" d="M249.08,446.42c2.87-.15,5.19.82,5.08,3.59s-2.52,3.62-5.13,3.33c-2.44-.26-5.56-.39-5.38-3.63C243.82,446.7,246.6,446.14,249.08,446.42Z"/><path class="cls-1" d="M243.5,702.14c-2-.67-4.84-.62-5.06-3.91-.23-3.67,3.23-3.57,5.18-3.86s4.76.62,4.7,3.71C248.27,700.86,246.47,702.06,243.5,702.14Z"/><path class="cls-1" d="M268.94,586.21c2.26.21,5.19-.72,5.3,2.85.11,3.35-2.68,4.06-5.08,4-2.62-.11-5.64-1.3-5.56-4.42C263.68,585.07,267,586.65,268.94,586.21Z"/><path class="cls-1" d="M273.35,690.05c-1.72-.52-4.91-.37-4.94-4,0-4,3.29-2.68,5.5-2.89,2.56-.24,4.57.21,4.44,3.58C278.24,689.8,276.47,690.26,273.35,690.05Z"/><path class="cls-1" d="M259.41,750.7c-4.13.55-6.78-.31-6.63-2.56.2-2.82,3.14-4,5.9-4,2.39-.06,4.79.48,4.56,3.71C263,751.49,259.92,750.6,259.41,750.7Z"/><path class="cls-1" d="M250.27,361.4c2.82.61,5.66.6,6,3.84s-2.36,4.15-4.5,4c-2.52-.17-5.26-1.35-5.37-4.72C246.31,361.47,249.16,362.43,250.27,361.4Z"/><path class="cls-1" d="M247,551.13c-1.33-.28-4.54.61-4.51-3.17a3.64,3.64,0,0,1,4.53-3.37c2.1.77,6.23-.64,6.11,3.39C253,550.79,250.46,551.45,247,551.13Z"/><path class="cls-1" d="M248.43,469.25c-3.61.27-5.85-.75-5.86-3.46a3.44,3.44,0,0,1,4.5-3.29c2.27.55,6-.05,6,3.48C253.11,469.21,249.69,468.73,248.43,469.25Z"/><path class="cls-1" d="M266.16,446.61c4.57-.38,6.27.35,6.17,3.31-.12,3.75-3,3.28-5.31,3.4-2.69.13-4.78-1.17-4.55-3.94C262.76,445.93,265.87,446.64,266.16,446.61Z"/><path class="cls-1" d="M245.24,434.36c.39-5.12,3.56-4.51,5.92-4.78,2.69-.31,3.4,1.48,3.18,3.82-.31,3.28-2.85,3.87-5.34,3.87S244.91,436,245.24,434.36Z"/><path class="cls-1" d="M265.61,296.61c-2.77.22-5-.73-5.09-3.49-.07-2.13,1.94-4,4-3.24,2.27.85,6.56-.83,6.54,3.39C271,296.27,268.2,296.89,265.61,296.61Z"/><path class="cls-1" d="M273.34,667.18c2.36.09,5.18-.48,4.91,3.14-.2,2.73-2,4.11-4.71,3.75-2.38-.32-5.14-.73-5.15-4C268.38,666.38,271.34,667.41,273.34,667.18Z"/><path class="cls-1" d="M260.91,476.37c-1.63-.25-4.52.12-4.44-3.15s2.92-3.65,5.38-3.7c2.29,0,4.64.28,4.5,3.65S263.81,476.4,260.91,476.37Z"/><path class="cls-1" d="M265.72,361.62c-1.92-.9-5.46,1.67-5.38-2.91.06-3.62,2.66-3,4.9-3.12,2.77-.12,5.85,0,5.83,3.51S267.62,360.94,265.72,361.62Z"/><path class="cls-1" d="M267.6,379.45c-2.44.28-4.87-.54-5.05-3.26s2.12-3.82,4.78-3.68,5.07.27,5,3.89C272.28,379.7,270,379.43,267.6,379.45Z"/><path class="cls-1" d="M252.1,409.39c-2.49.28-5.39-.25-5.3-2.91.11-3.06,3.27-3,5.82-3s5.41.29,5.32,3C257.83,409.5,254.68,409.59,252.1,409.39Z"/><path class="cls-1" d="M247,660.18c-2.27-.31-5.48,1-5.46-3.09,0-3.66,2.88-2.78,5.06-2.94,2.68-.19,5.47.27,5.59,3.34C252.31,661.06,249,659.87,247,660.18Z"/><path class="cls-1" d="M259.29,651.11c-2.62,0-5.09.23-4.89-3.07a3.74,3.74,0,0,1,4.24-3.83c2.48.11,5.38.5,5.57,3.59C264.45,651.53,261.13,650.74,259.29,651.11Z"/><path class="cls-1" d="M251.62,305.59c2.43.72,5.17,1.52,5.39,4s-2.38,3.61-4.68,3.92c-2.67.37-4.69-.8-4.81-3.68C247.41,307.1,250.11,306.84,251.62,305.59Z"/><path class="cls-1" d="M251.58,498.32c-2.38.4-4.92-.63-4.84-2.79.12-2.91,3.13-4,5.82-4,2,0,4.74.66,4.55,3.35C256.9,497.92,254.36,498.61,251.58,498.32Z"/><path class="cls-1" d="M258.89,560.29c2.45-.33,5.22-.12,5.14,2.79s-3,3.36-5.59,3.2c-2.21-.13-5,.63-5-3C253.52,559.25,256.69,560.54,258.89,560.29Z"/><path class="cls-1" d="M272.37,421.22c-3.81.39-6.68-.06-6.61-2.75.09-3.08,3.2-3.06,5.73-3,2.26.09,5-.45,4.77,3.17S273.09,421.11,272.37,421.22Z"/><path class="cls-1" d="M261.16,387.4c2.12.72,5.29-1.36,5.19,2.87-.08,3.61-2.59,3.17-4.87,3.15s-5.2.59-5.13-3.37C256.42,385.69,259.86,388.6,261.16,387.4Z"/><path class="cls-1" d="M250.12,630.15c-2.92.29-5.56-.45-5.55-3.46,0-3.45,3.24-2.29,5.34-2.49,2.51-.25,5,.43,5.07,3.19C255,630.43,252.31,630.45,250.12,630.15Z"/><path class="cls-1" d="M258.78,325.75c-4.11-.4-7,0-7.13-2.69-.1-3.12,2.74-3.43,5.41-3.47,2.38,0,4.91.59,4.88,2.91A3.3,3.3,0,0,1,258.78,325.75Z"/><path class="cls-1" d="M277,624.17c2.67.06,5.35-.42,5.29,3.13-.06,3.19-2.49,2.81-4.63,2.91-2.55.12-5-.57-5-3.31C272.64,624.39,275,623.76,277,624.17Z"/></g></g></svg>