<svg xmlns="http://www.w3.org/2000/svg" viewBox="0 0 297.86 238.06"><defs><style>.cls-1{fill:#fd9433;}</style></defs><g id="Layer_2" data-name="Layer 2"><g id="Layer_1-2" data-name="Layer 1"><path class="cls-1" d="M184.23,188.1c36,0,72,.07,108-.08,4.38,0,5.75,1.24,5.66,5.65-.27,13.32-.23,26.66,0,40,.06,3.6-1.07,4.4-4.51,4.4q-108.21-.15-216.42,0c-4.36,0-4.76-1.74-5.33-5.54-1.9-12.52,1.69-25.06-.71-37.53-.91-4.74.73-7.06,6.39-7C112.92,188.23,148.58,188.11,184.23,188.1Z"/><path class="cls-1" d="M183.31,146H80.89c-11.71,0-11.84,0-12-11.2s.16-22.42-.16-33.62C68.59,96.87,70,95.78,74.05,96c14,.85,28.05-.33,42.06-.42,15.39-.1,30.87-.81,46.25-.29,9.41.32,18.73-.38,28.09-.24,14,.21,28.06.84,42.09,1,18.17.17,36.44,1.12,54.49-.39,10-.84,10,3,9.77,10.2-.38,11.31-.32,22.65,0,34,.13,4.74-1.12,6.29-6.08,6.26C254.92,145.88,219.11,146,183.31,146ZM98.7,104c.17-1.45-.52-1.84-1.71-2-1.86-.19-3.14.3-3.88,2.17-3.87,9.88-7.89,19.69-11.63,29.62-.58,1.52-3.24,3.78-.22,5.11s4.5-1.12,5.47-3.57q4.59-11.57,9.06-23.2C96.84,109.38,97.76,106.58,98.7,104Zm10,36.1c1.9-.64,2.81-2.4,3.73-4.14,4.93-9.25,8-19.22,11.5-29.06.58-1.64,2.09-3.57-.21-4.65s-3.57.66-4.38,2.74c-4.13,10.61-8.34,21.19-12.39,31.83C106.48,137.92,105.94,139.88,108.67,140.05ZM96.61,139c.44-.3,1.63-.66,1.94-1.4q6.7-16.18,13.12-32.5c.39-1,.65-2.89-1.43-3-1.52-.09-2.82-.5-3.72,1.92-3.9,10.54-8.31,20.89-12.42,31.35C93.44,137,93,139.15,96.61,139Zm187.16-33.63c-.3-1.14.71-2.82-1.28-3.28-2.59-.59-3.58,1.21-4.35,3.11-4.07,10.09-8.14,20.18-12.07,30.32-.53,1.37-1.24,3.47.75,4.37s3.67-.46,4.5-2.14c1.2-2.45,1.93-5.12,2.92-7.68Q279,117.73,283.77,105.37ZM199.69,137.3c.49.74-.57,2.42,1.2,2.64,2.4.29,4-1.71,4.46-3.32,2.92-10.39,8.07-19.89,11.65-30,.58-1.64,2-3.62-.63-4.47-2.26-.72-3.75.93-4.53,2.92-2.62,6.69-5.11,13.43-7.76,20.11C202.52,129.11,199.9,132.65,199.69,137.3ZM188.64,139c1.3-.17,2.53.31,3.3-1.85,3.66-10.28,7.75-20.39,11.53-30.62.5-1.37,1.21-3.55-.79-4.35s-3.22.17-4,2.39c-3.88,10.49-7.94,20.9-12,31.31C185.75,138.09,185.61,139.45,188.64,139Zm56.11-36.37c-.05.4-1,.49-1.79.39-2.27-.27-4.14,0-5.09,2.58-3,8.14-6.14,16.19-9.07,24.33-1.14,3.19-5.33,7.82-2,9.5,5,2.57,5.37-4,6.62-7C237.36,123.22,240.64,113.65,244.75,102.66Zm7.33,36.26c2.64-.07,4.95,1.05,6.31-2,4.42-9.94,6.58-20.76,12-30.31.71-1.26,1.57-3.69-1.07-4.51-2.28-.71-3.72.46-4.52,2.61C260.64,116,256.42,127.26,252.08,138.92Zm-21.26-33.83c-.07-1.77.11-3-1.66-3.08-2.37-.09-3.63,1.22-4.41,3.25q-5.7,14.83-11.41,29.65c-.58,1.51-1.67,3.3.78,4,1.75.5,2.88.07,4-2.15,4.14-8,5.45-17.16,10.48-24.79C230,109.87,230.23,107,230.82,105.09Zm-57.55,31.57c1,1.2-.15,3.18,1.5,3.06s3.48-.76,4-3c2.15-8.79,6.67-16.64,10-25,1.18-3,4.16-7.65.94-9.23-4.78-2.34-4.42,3.58-5.91,6.29a11.72,11.72,0,0,0-.64,1.34C179.84,119,176.54,127.88,173.27,136.66Zm66.23,0c.64,1.31-.43,3.11,1.69,3.37s3-.88,3.77-2.94c3.84-10.23,7.94-20.36,12-30.5.63-1.57,1.68-3.38-.15-4.31-2.12-1.09-3.93.44-4.82,2.35-1.73,3.69-3.26,7.48-4.72,11.29C244.63,122.84,242.07,129.81,239.5,136.65ZM133.61,136c.54,1.05-.54,2.86,1.64,3.05,1.86.17,2.9-.49,3.65-2.45,3-7.92,6.55-15.65,9.28-23.65,1.17-3.41,5.8-8.76,2-10.34-6.23-2.62-5.11,5.15-6.62,8.37C139.77,119,136.89,127.52,133.61,136ZM122.2,139c3.43.22,3.79-2.44,4.67-4.74,3.58-9.38,7.26-18.73,10.8-28.13.47-1.24,2.66-3.08,0-4-2-.67-4-.43-5,2.46-3.83,10.4-8,20.68-12.13,31C119.58,137.78,119.28,139.08,122.2,139Zm40,0c2.62-.13,2.95-2.4,3.63-4.12,3.48-8.77,6.86-17.57,10.23-26.37.79-2.07,3.74-4.73.53-6.24-3.4-1.59-4.17,2.28-5.1,4.55q-5.83,14.2-11.36,28.55C159.42,137.13,159.06,139.19,162.15,139Zm-12.87,0c2,.58,2.74-1.09,3.31-2.59,3.76-9.88,7.53-19.75,11-29.72.44-1.27,2.91-3.43,0-4.55-2.4-.92-4,.78-4.89,3-3.9,10-7.81,20.06-11.64,30.11C146.45,137.05,146,139.05,149.28,139Zm139.53-23.52c-5.69,6-4.75,13.59-8.76,18.92-1.06,1.41-2.36,4.23-1,4.89,2.19,1,5.16.81,7.73.53,2.09-.23,2-2.32,2-4Zm-211,4.75,1.32.34c1.79-4.62,3.68-9.21,5.29-13.9.44-1.27.5-3.68-.16-4.07a7.14,7.14,0,0,0-4.71-.41c-1.78.37-1.76,2.13-1.75,3.67C77.78,110.69,77.77,115.48,77.77,120.27Z"/><path class="cls-1" d="M175,.1C205.32.1,235.64,0,266,.14c8.61,0,17.21.65,25.82.86,2.65.06,4,.89,4,3.75q-.07,21.23,0,42.47c0,3-1.4,4.9-4.45,4.71-16-1-32-.06-47.95-.36-11.43-.22-23.13,0-34.58-.12-17.74-.13-35.55-.63-53.28-.16-13.15.36-26.28-.72-39.49.43C102.09,52.93,88,52,73.93,52c-5.69,0-6.93-2.64-6.65-8.16.64-12.62.59-25.28.37-37.92C67.57,1.26,69,0,73.58,0,107.39.18,141.2.1,175,.1ZM109.08,7C97.84,7,88.5,7.24,79.18,7c-4.29-.13-5.5,1.64-5.44,5.51.12,7.67.53,15.38-.12,23-.69,8.08,3.1,10.61,10.13,9.53,15.2-2.33,30.44,0,45.68-.61,19.12-.82,38.35,1.14,57.48.44,17.19-.62,34.31-.09,51.46.18,1.22,0,3.24.24,1.72-2-1.09-1.62-2.18-3.17-.33-4.76,2.09-1.79,4.77-1.43,7.16-1,2.09.41,1.92,2.51,1.74,4.15-.3,2.8.71,3.76,3.61,3.71q15-.26,30,0c3.52.06,4.25-1.32,4.7-4.64,1.31-9.82-.23-19.56-.09-29.33.06-3.48-1.6-4.16-4.62-4.13-12.33.1-24.67.22-37,0-34.1-.57-68.19.66-102.31-.64C131.17,5.92,119.1,6.56,109.08,7Z"/><path class="cls-1" d="M18,212.65c4.91,1.52,7.76,4.72,7.63,9.79C25.54,228,22,231.39,17,232.61s-10.31,1-14.58-2.69c-.6-.52-.67-2.32-.26-3.17.66-1.32,1.7,0,2.52.28,1.9.53,3.71,1.58,5.63,1.8,4.06.47,8-.51,9.27-4.8,1.36-4.67-1.34-7.53-5.86-8.63-1.27-.31-2.64-.16-3.93-.39-1.52-.28-4.07,1.13-4-2.11.08-2.85,2.33-1.68,3.74-1.82,2.8-.29,5.7-.29,7.34-3.14s2.24-5.9-.21-8.64c-2.9-3.23-6.14-2.22-9.42-.51-1.33.69-2.86,3.27-4.22,1-1.17-2,.85-3.57,2.65-4.65,5.89-3.53,13.72-2.78,16.51,2.16C25.69,203.39,23.92,208.68,18,212.65Z"/><path class="cls-1" d="M6.35,138.12c5.63,0,10.09,0,14.56,0,1.28,0,2.81-.26,2.78,1.83,0,1.92-1.39,2-2.77,2-5.32,0-10.63.06-16,0-1.72,0-4,.73-4.78-1.52-.69-1.9.63-3.52,1.83-4.88,3.61-4.1,7.44-8,10.87-12.24,1.4-1.72,2.07-4.06,2.92-6.18,1.28-3.21.89-6.25-1.94-8.4s-5.76-1.33-8.71.22c-1.2.63-2.65,3.1-4,1s.19-3.71,2.22-4.71C9.27,102.29,15,101.29,20,106.88c3.77,4.19,2.7,12.38-2.48,18.54C14.17,129.44,10.61,133.31,6.35,138.12Z"/><path class="cls-1" d="M16.51,23.23c0,3.33.07,6.65,0,10-.08,3.8-.93,8.06,5.37,6.92,1.14-.21,1.8.5,1.86,1.75C23.8,43.4,23.06,44,21.64,44L4.18,44c-1.33,0-2.24-.42-2.2-2C2,40,3.53,39.89,4.8,40.14c5.85,1.12,6.4-2,6.1-6.73a139.06,139.06,0,0,1,0-16.46c.25-4.43-1-5.11-4.7-2.88C5,14.76,3.41,17,2.08,15s1-3.29,2.52-4C8,9.25,10.94,4.25,14.93,6.55c3.58,2.06,1,7.05,1.52,10.7A49.64,49.64,0,0,1,16.51,23.23Z"/><path class="cls-1" d="M160.63,30c-2.87-.08-5.57-1.2-5.62-4.17-.06-3.51,3.23-3.54,5.88-3.71s4.71,1,4.77,3.79C165.73,29.06,163.52,30.09,160.63,30Z"/><path class="cls-1" d="M226.83,30.1c-2-1.29-6.32,0-5.79-4.15.39-3.05,3.7-3.72,6.48-3.79s4.15,1.57,4.24,4.32C231.86,29.94,229.19,29.6,226.83,30.1Z"/><path class="cls-1" d="M129.84,29c-2.65.14-5.08.27-5.06-3.53a4,4,0,0,1,4.35-4.22c2.84.07,6.35,1.2,6.31,4.69C135.4,28.9,132.4,29.29,129.84,29Z"/><path class="cls-1" d="M98.15,21.16c1.37.3,4.38.37,4.47,3.94.07,3-2.56,3.84-4.78,3.8-2.75-.06-5.94-.91-5.91-4.43C92,21.76,94.31,20.79,98.15,21.16Z"/><path class="cls-1" d="M113.79,18.94c-3.82.21-6,.11-6.06-3.37,0-4,2.72-3.59,5.17-3.42,2.21.14,5.67-1.3,5.68,2.75C118.59,18.79,115.25,18.72,113.79,18.94Z"/><path class="cls-1" d="M178.34,34.11c2.8-.2,5.32.64,5.28,3.75-.05,3.42-3.07,3.17-5.52,3.17s-5.88-.38-6-3C172,34.74,175.27,33.91,178.34,34.11Z"/><path class="cls-1" d="M82.62,10.18c3.59-.27,5.89.57,5.91,3.43s-2.1,4.23-4.92,4.36c-3.13.13-5.52-1.66-5.61-4.37C77.9,10.49,81.16,10.46,82.62,10.18Z"/><path class="cls-1" d="M177.17,10.76c2.66,1,5.59,1,5.46,4.44-.13,3-2.68,3.77-4.92,3.71-2.67-.08-5.66-1.36-5.75-4.33C171.86,11.34,175.42,11.89,177.17,10.76Z"/><path class="cls-1" d="M255.06,30c-2.8.16-5.11-.7-5.21-3.84-.09-2.81,1.85-4.18,4.55-4s5.3.77,5.39,4.41S257.48,30,255.06,30Z"/><path class="cls-1" d="M113.17,41.17c-2.18-.64-5.24-.77-5.19-3.49s2.31-4.58,5.36-4.63a4.75,4.75,0,0,1,5.12,4.29C118.67,40.5,115.52,40.59,113.17,41.17Z"/><path class="cls-1" d="M84.5,32.13c2.73-.31,4.22.57,4.25,3.76,0,3.52-2,4.09-4.71,4.06-2.86,0-5-1.93-5-4.41C79,32.42,81.74,31.89,84.5,32.13Z"/><path class="cls-1" d="M238.05,10c2.45.37,4.57.5,4.72,3.84.18,3.83-2.7,3.81-4.81,3.94-2.38.15-5.19-.48-5.1-3.88S235.87,10.64,238.05,10Z"/><path class="cls-1" d="M274.63,12.24c.79.12,3.8-.54,3.94,2.7.15,3.43-2.45,4.14-5.44,4.14-2.58,0-5.08-.6-5.16-3.32C267.88,12.66,270.47,11.88,274.63,12.24Z"/><path class="cls-1" d="M276.33,42.07c-2.94-.27-6.08-.39-6.31-3.33-.24-3.14,2.91-3.45,5.39-3.69,2.85-.27,5.08.77,5.17,3.9S277.83,41.52,276.33,42.07Z"/><path class="cls-1" d="M209.37,12.22c1.11.21,4.1-.56,4.29,2.76.16,2.77-1.77,4.3-4.5,4-2.53-.28-5.88-.58-6-3.77C203,12.39,205.82,11.88,209.37,12.22Z"/><path class="cls-1" d="M146.76,35c2.17.65,5.65-.21,5.78,3.42s-3.46,3.15-5.52,3.41c-2.34.31-5.24-.49-5.15-3.79C142,35.13,144.54,35.27,146.76,35Z"/><path class="cls-1" d="M192.31,31c-1.75-.25-4.61,0-4.42-3.3.18-3.1,2.64-3.87,5.4-3.61,2.33.22,4.66.38,4.48,3.77C197.59,31.46,195.09,31,192.31,31Z"/><path class="cls-1" d="M144.11,18c-2.13-.28-5.07.31-5.17-2.94-.14-4.32,4.06-3.05,6.25-3.76,2-.65,4.36,1.57,4.21,3.68C149.21,17.67,146.65,18.24,144.11,18Z"/><path class="cls-1" d="M212.08,41.06c-2.37-.14-5.14.68-5.22-3-.07-3.21,2.21-3.13,4.43-3.06,2.66.09,6,.25,6.21,3.32C217.75,42.22,214,40.62,212.08,41.06Z"/></g></g></svg>