<svg xmlns="http://www.w3.org/2000/svg" viewBox="0 0 534 772.12"><defs><style>.cls-1{fill:#fb9434;}</style></defs><g id="Layer_2" data-name="Layer 2"><g id="Layer_1-2" data-name="Layer 1"><path class="cls-1" d="M0,11C8.81,22,18.46,32.24,27.27,43.26c9.19,11.5,20.28,21.47,29.56,32.9,8.8,10.84,18,21.32,27.07,31.91Q95.78,122,107.8,135.72c1.61,1.84,3.53,2,5.17-.34,9.32-13,18.05-26.56,28.18-38.92C152.3,82.85,159.87,67,170.44,53S192.66,25.16,201,9.33a14.42,14.42,0,0,1,4.53-4.57,5.16,5.16,0,0,1,6.06,0c2.07,1.52.88,3.62-.1,5.33C194,40.78,175.33,70.88,159.33,102.33c-9.27,18.23-19.76,35.7-29.18,53.79-3.09,5.93,2.87,10.15,6.08,13.22,10.33,9.86,17.94,21.8,27,32.56,9.77,11.56,19.68,23,29.51,34.51,11.43,13.38,22.8,26.81,34.25,40.16,8.6,10,17.29,20,25.95,29.94,1.43,1.66,2.8,1.42,4.17-.12,8-9,16.1-17.91,24-27,11.85-13.67,23.8-27.27,35.28-41.26,12-14.61,24.68-28.62,36.81-43.1,9-10.69,17.88-21.62,27.9-31.46,2.33-2.28,2.84-4.31,1.15-7.39C370.66,135,357.75,114.58,346.77,93a485.64,485.64,0,0,0-24.51-42.8C313.71,37,307.36,22.46,298.42,9.48c-1.49-2.16-.3-3.74.94-4.62a4.77,4.77,0,0,1,7,1.16q20.6,28.35,41,56.87c15.21,21.28,30.24,42.7,45.58,63.88,2.29,3.17,5.05,6,7.14,9.4,2.33,3.76,4.47,1.17,6.13-.77,11.41-13.32,22.63-26.8,34.11-40.06,12.1-14,24.5-27.69,36.62-41.65C492.32,35.86,508.58,18.71,523,0h11c-17.87,25.42-35.64,50.93-53.66,76.24-19.42,27.29-39.24,54.29-58.62,81.61-20,28.15-39.5,56.61-59.44,84.78-17.3,24.43-35,48.6-52.34,73-8.35,11.72-16.35,23.68-24.54,35.5a16.16,16.16,0,0,0-2.93,9.71c.42,34.54,2.58,69,2.22,103.62-.15,14.33-1.33,28.89.24,43,2.16,19.42-2.05,38.77.73,57.85,3.24,22.2,1.12,44.35,1.63,66.51.78,33.88.29,67.79,1.53,101.65.32,8.78,1.59,17.67,1.63,26.56,0,8.1-3.4,11.75-12.58,11.92-16.47.3-32.94.24-49.41,0-8.26-.11-10.39-3.41-10-12.32.61-13.12.87-26.25,1.14-39.38.39-18.53.54-37.07,1-55.6.31-12.55-.63-25.38.71-37.55s.39-24.25.71-36.25c.33-12.34,1.36-24.76,1.29-37.18-.09-15.91,0-32,.76-48.08.59-12.12.9-24.45,1-36.67a217.69,217.69,0,0,1,1.13-23.13,149.33,149.33,0,0,0,0-29.52c-.33-3.75.53-7.13.57-10.69.1-10.21.76-20.37.36-30.64-.21-5.36-2.95-11.71,1.3-17.11.66-.83.3-2.44-.63-3.69-8.51-11.42-17.64-22.46-25.2-34.48q-14-22.31-29.86-43.25c-14.14-18.7-25-39.45-39-58.24-12.84-17.34-24.5-35.56-37.26-53q-21-28.69-41.06-58.09C43,88.83,29.5,71.31,17,53.14,11.51,45.24,6.23,37.26,0,30ZM237.72,376.81c3.25-3.77,6.51-4.17,9.84-2.18,1.94,1.16,1.41,4.35.7,4.81-2.87,1.86-5.94,1.61-9-.45-2.29-1.52-2.75.43-2.67,2.32.18,3.95.92,8.11.58,11.77-.57,6.24-.2,8.79,6.86,6.69,2-.59,5.42,1.22,5.08,4.08-.25,2.15-3.48,4.3-5.37,3.32-9.72-5-6.82,2.57-7.11,6.85-.19,2.64,0,5.32,0,8-.12,3.53-.59,6.86,5,4.59,2.55-1,5.56.09,5.79,3.58.18,2.83-2.84,4.59-4.5,4.05-8.67-2.84-5.91,3.47-6.31,7.35-.3,2.93-.91,5.85-1,8.79-.54,16.6.88,33.21-.83,49.84-1.28,12.5,1,25.18-1.18,37.72-.69,4,1,6,5.25,5.46,2.73-.35,5.66.39,5.52,3.38-.15,3.29-4.2,4.68-6.27,4-5.53-1.8-4.51,1.68-4.52,4.55,0,18.86,1.15,37.81-.38,56.55-1.2,14.56-1.37,29-1.62,43.57,0,2.6-.1,5.14,3.68,2.83,2.32-1.43,4.92-1.57,6.84.33.79.77.88,3.1.32,4.24-1.35,2.74-4.48,1.71-6.14,1.1-5.57-2-5.58.9-5.7,5-.38,13.73,1.58,27.59-1.15,41.19-1.28,6.39-.42,12.72-.37,19,0,8.22,1.1,16.3-1.1,24.47-1.28,4.73-1.52,9.36,5.53,10.48,13.1,2.1,26,1.42,39.1-.33,6.09-.81,7.41-3.7,7.11-9.22-.51-9.24-.66-18.51-.93-27.75-.9-30-.89-60-1.13-90-.12-14.75-.39-29.49-.36-44.24,0-15.16-1-30.35-.85-45.56.11-13.57-.78-27.13-1.7-40.69-1.22-18,0-36.15-.88-54.25-1.22-26-1-52.11-1.26-78.17-.16-17.27,0-17.48-17.38-17.22C235.85,356.88,237.2,352.05,237.72,376.81Zm17.5-28.32c3.44-.34,6.23-.94,9-.8,4.54.23,5.33-1.53,3.33-5.21-3.45-6.3-7-12.54-10.41-18.87-1.28-2.4-2.3-2.53-3.6-.1-2.64,4.91-5.38,9.76-7.93,14.72-4.44,8.6-4.39,8.6,5.47,9.42A29,29,0,0,1,255.22,348.49Zm6.25-32.12a5.71,5.71,0,0,0,.55,2.15c5,8.06,10.21,16,13.88,24.76.76,1.83,2.87,1.7,4.37.81,1.73-1,1.66-2.85.78-4.4q-7.21-12.72-14.61-25.34c-.67-1.13-.74-3.21-2.91-2.67S261.42,314,261.47,316.37Zm9.21-9.9a17.35,17.35,0,0,0,1.18,3c4,7.07,8.22,14,11.94,21.2,1.14,2.2,2.08,3.91,4.5,2.81,2.73-1.25,1-3.48.17-5-4.38-8.32-8.91-16.56-13.43-24.8-.66-1.2-1.08-3.43-2.88-2.67C270.77,301.55,270.29,303.53,270.68,306.47Zm-30.17.25c.06-2.52.26-4.15-1.44-4.89a1.74,1.74,0,0,0-2.5.72c-5,9-10,17.91-14.86,26.95a2.77,2.77,0,0,0,1.36,3.82c1.44.7,2.55.07,3.31-1.24,2.42-4.2,4.86-8.38,7.22-12.61C236.1,315,238.51,310.42,240.51,306.72Zm-24,16.77c.35-.16.77-.21.89-.43,5.08-9.44,10.2-18.86,15.12-28.38.63-1.21-.33-2.69-1.88-3-1.05-.2-2.28-.56-3,.86-4.61,8.61-9.4,17.14-13.82,25.85C212.61,320.64,214.33,322.45,216.46,323.49Zm33.08-7.56c.15-1.65-.38-2.89-1.89-3.18-1.18-.24-2.39-.5-3.28,1.2-4.56,8.8-9.3,17.51-14,26.24-.8,1.5-1.77,3.24.25,4.16,1.87.84,3.23-.29,4.24-2.24,2.09-4,4.57-7.84,6.79-11.79C244.35,325.51,247,320.64,249.54,315.93Zm46.89,3.23a7.89,7.89,0,0,0-1.08-4.31c-3.47-6.25-6.41-12.79-10.73-18.59-1.23-1.63-1.41-4.72-4.12-3.35-2.35,1.19-1.1,3.74-.08,5.62,3.91,7.19,7.89,14.34,11.77,21.55.74,1.39,1.41,2.85,3.23,2.33S296.08,320.15,296.43,319.16ZM222.57,285.5c-.4-1.12.91-2.95-1-3.7a2.19,2.19,0,0,0-1.91.87c-4.67,7.82-9.34,15.64-13.77,23.6-.63,1.13-1.23,3.35.94,4.2,1.68.66,2.59-.43,3.44-1.84,2.77-4.59,6-8.91,8.43-13.68C220.15,292,222.87,289.42,222.57,285.5Zm-8.13-9.36c.28-2.71-.18-4-1.67-4.36-1.13-.26-2.54-.74-3.23,1.18-2.7,7.45-7.53,13.74-11.33,20.6-1.39,2.52-1.08,5.22,1.53,6.4,3,1.35,2.41-2.19,3.38-3.49a56,56,0,0,0,3.57-6.35C209.45,285.12,212.23,280.13,214.44,276.14Zm97.87,20.52a7.31,7.31,0,0,0-1.46-5.38c-3.19-5.1-6-10.41-8.87-15.72-1-1.78-1-5-4-3.62-2.74,1.27-2.28,4.67-1,6.53,4.18,6.07,7.44,12.6,10.79,19.11.76,1.47,1.6,2.46,3.39,2S312.09,297.37,312.31,296.66Zm-8,11.65a6.28,6.28,0,0,0-1.22-4.81c-3.63-6.19-7.18-12.43-10.41-18.84-.89-1.77-1.34-3.89-3.53-2.65-1.65.93-2.65,3.49-1.31,5.26,5,6.59,7.84,14.36,12.1,21.34.73,1.2,1.26,2.18,2.94,2C305,310.34,304.19,308.72,304.28,308.31ZM181.92,272.13c-.47,3.42-.1,4.82,1.58,5.4,2.14.74,2.46-1.32,3.09-2.4,2.83-4.91,5.33-10,8.23-14.86a10.49,10.49,0,0,0,1.71-7.46c-.24-1.29-1.63-3.05-2.6-1.49C189.41,258.61,185.31,266.17,181.92,272.13Zm24.16-6.52a18.76,18.76,0,0,0-2.22-3.73c-.3-.31-2.18.12-2.51.69-4,6.88-7.87,13.8-11.52,20.84a3.74,3.74,0,0,0,1.82,5c2,.89,2.82-1.15,3.41-2.67,1.59-4.1,3.25-8.07,6.17-11.54C203.25,271.82,204.4,268.69,206.08,265.61ZM320.34,286c0-.93.24-1.71,0-2.24q-5.12-10-10.36-19.9a2.53,2.53,0,0,0-3.51-.95c-1.94,1.19-1.3,3.23-.48,4.79,3.43,6.46,7,12.85,10.52,19.26.59,1.08,1.43,1.88,2.77,1.61C321,288.18,320.14,286.69,320.34,286ZM173.51,261.82c.39,1.65-.59,3.31,1.33,3.78a2.51,2.51,0,0,0,3.17-1.46c3.3-5.93,6.85-11.72,10.24-17.61,1-1.79.33-3.6-.74-5.08-1.21-1.69-2.95,0-3.27.52C180.47,248.62,176.94,255.4,173.51,261.82ZM354,239.76c-3-5.4-6-10.62-8.95-15.8-.92-1.6-1.66-4.4-4.11-2.79a4.07,4.07,0,0,0-.95,5.7q4.28,7.11,8.17,14.44c.77,1.45,1.55,2.95,3.18,2.15C352.45,242.93,353,241.27,354,239.76Zm-37.53,12.92c-3.64.65-2.45,3.78-1.7,5.27,2.94,5.85,6.38,11.46,9.71,17.11.74,1.26,1.14,3.63,3.41,2.27,2.12-1.26,1.78-3,.63-5.08-3.21-5.64-6.14-11.43-9.33-17.08C318.66,254.19,318.52,252.4,316.49,252.68Zm-140.2-21.16c-2.78,4.55-5.79,9.27-8.59,14.13-1.37,2.38-3.13,4.95-1.57,7.83.76,1.4,2.45,2,3.53.18,3.35-5.79,6.68-11.6,9.73-17.54C180.37,234.2,179.79,232.17,176.29,231.52Zm160.48,30.42c-2.74-5.37-5.83-11.22-8.72-17.17-.86-1.78-1.21-4.14-3.86-3s-2.13,3.31-.95,5.41c3,5.38,6.16,10.71,8.94,16.22.75,1.5.83,3.45,3,3.06S335.93,264,336.77,261.94Zm-2.24-31.21c-3.2,1.09-5.43,2.63-3.63,5.9,2.91,5.28,6.26,10.33,9.17,15.61,1.16,2.09,2.86,1.73,4.23,1.29,2.37-.75.31-2.27-.07-3.11-2.73-6-5.65-12-8.55-18A11.56,11.56,0,0,0,334.53,230.73Zm26.93-3.36c-2.58-4.15-4.45-9.38-8.31-13.5-1.08-1.15-1.65-3.2-3.71-1.63-1.57,1.19-1.43,2.91-.57,4.45q3.67,6.62,7.52,13.13c.67,1.14.72,3.4,2.77,2.73S361.26,229.91,361.46,227.37ZM157.2,238.88c.83,1.67-.24,3.49,1.87,3.72.89.09,1.89.36,2.56-.84,2.85-5.09,5.84-10.09,8.65-15.21a3.33,3.33,0,0,0-.43-4.15c-1-1-2.46-1.13-3.08-.11C163.42,227.83,160.27,233.5,157.2,238.88ZM368.36,217.2c.3-5-3.82-8.1-5.47-12.27-.68-1.71-1.52-4.33-4.08-2.82-2.39,1.4-2,3.83-.63,6,2.12,3.41,4.19,6.85,6.38,10.21.63,1,.8,2.81,2.68,2.24S368,218.35,368.36,217.2Zm-213.5-12.77c-.4-1.51.43-2.92-1-3.49-.52-.21-1.67-.07-1.82.26-2.52,5.27-6.91,9.54-8.27,15.39-.23,1-.59,2.53.89,3,.85.25,2.44.2,2.76-.3C150.43,214.46,153.39,209.58,154.86,204.43Zm221.41,1.65c.63-4.75-3.28-7.48-4.47-11.32-.63-2-2.08-3.94-4.3-2.83s-1.5,3.87-.67,5.62a95.9,95.9,0,0,0,5.48,9.24c.71,1.14.73,3.27,2.77,2.83S375.87,207.14,376.27,206.08Zm-240.65-.28c-.08,1.63.18,3.13,1.81,3.75a2.32,2.32,0,0,0,2.12-.53c2.16-4.7,4.24-9.44,6.14-14.24.34-.87.58-2.46-1-2.91-.74-.21-2.2-.17-2.33.15C140.52,196.8,136.27,200.44,135.62,205.8Zm-8.5-12.55c.89,1.73,1.24,3.67,2.24,4.11,1.81.78,2.14-1.41,2.92-2.54,1.67-2.39,3.5-4.68,5-7.19a4.7,4.7,0,0,0-.16-5.49c-.56-.64-3.21-.64-3.58-.07C131.17,185.65,129.21,189.48,127.12,193.25Zm272.21-28.77c-1.85,1.54-6.23-2-5.87,2.79.24,3.22,2.49,6.16,5.11,8.42,2.23-2.91,5.78-5.58,6.35-8.79C405.65,162.76,401.14,166,399.33,164.48ZM151.67,228c0,.87-.24,2.48,1.38,3.31.36.19,1.49-.21,1.52-.44.89-6.27,6.22-10.65,7.16-16.87a2.58,2.58,0,0,0-1.82-3.11,1.68,1.68,0,0,0-2.32,1.14C155.72,217.18,153.79,222.31,151.67,228ZM113.1,164.62c-1.68,1.14-5.38-1.78-5.18,2.37.17,3.61,2.79,7.16,6,7.38,2.9.2,4.36-3.91,4.69-6.76C119.23,162.63,115,165.79,113.1,164.62Zm272.29,30.45c-.16-5.58-5-7.4-6.12-11.38a2.32,2.32,0,0,0-3-1.79c-1.73.59-1.25,2.43-.85,3.38,1.64,3.89,3.53,7.68,5.46,11.43a2.08,2.08,0,0,0,3,.75A2.71,2.71,0,0,0,385.39,195.07ZM125.72,170.75c-1.14,1.67-3,3.44-3.64,5.58-.82,2.87-3.5,5.46-2.06,8.76a2,2,0,0,0,3,.42c2.54-3.87,5.74-7.55,5.63-12.6C128.63,171.64,127.64,170.93,125.72,170.75Zm260.63,1c-1.73,0-3.37.86-3,2.5a22.36,22.36,0,0,0,6.38,10.35,2.38,2.38,0,0,0,3.41-.84C393.69,182.71,387.53,171.85,386.35,171.76Z"/><path class="cls-1" d="M265,552.15c-3.88.37-7,.1-7.14-3.19s3.13-4.62,5.89-4.5,5.66,1.35,5.65,4.9C269.34,553.39,266.05,552,265,552.15Z"/><path class="cls-1" d="M251.07,527.26c-3.58.2-6.09-1.45-6.3-4.46-.18-2.64,2.35-3.63,5-3.41,3.08.26,6.42,1,6.54,4.52C256.38,526.86,253.48,527.54,251.07,527.26Z"/><path class="cls-1" d="M263.53,442.36c1.92-.24,4.71.4,4.76,3.42s-3,4.67-5.57,4.37-6.22-.82-6.06-4.55S260.18,442.58,263.53,442.36Z"/><path class="cls-1" d="M250.56,445.86a5.42,5.42,0,0,1-5.28,4.29c-2.13-.08-5.47,0-5.7-3.88-.21-3.38,2-4.71,4.46-4.57S249.68,442.38,250.56,445.86Z"/><path class="cls-1" d="M248.56,470c-.41,3.62-3.52,3.23-5.84,3.23s-5.41-.63-5-4c.5-4.07,4.25-3.45,7-3.62C247.23,465.42,249.15,466.7,248.56,470Z"/><path class="cls-1" d="M251.09,606.21c-2.85.18-5.48-.6-5.25-3.68a4.71,4.71,0,0,1,5.12-4.28c2.77.09,6,1.22,6.06,3.81C257.08,604.89,254.28,606.64,251.09,606.21Z"/><path class="cls-1" d="M252,634.05c1.7,1.49,5.38.3,5.41,3.86a4.73,4.73,0,0,1-4.88,5.07c-2.65,0-5.59-1.2-5.75-4.23S249.66,635.23,252,634.05Z"/><path class="cls-1" d="M250,566.49c4.36-.59,5.47.72,5.53,3.74.08,3.77-3,4.43-5.17,4.71-2.62.34-4.6-1.94-4.66-4.64C245.63,566.62,249,566.93,250,566.49Z"/><path class="cls-1" d="M264.09,625.12c-3.32.14-5.47-.94-5.45-3.73,0-3.89,3.29-3.82,6.1-4.15,3.14-.37,4.44,1.84,4.49,4.1C269.31,625,266,624.73,264.09,625.12Z"/><path class="cls-1" d="M261.81,471.35c-3.17,0-5.17-1.08-5.19-3.89,0-3.32,2.84-4.16,5.2-3.82,2.19.32,5.95,0,5.53,4C267,471.22,263.9,471,261.81,471.35Z"/><path class="cls-1" d="M254.07,487.32c-3.38.08-5.54-1-5.44-4.15s2.81-3.84,5-3.56,5.9-.17,5.76,3.81C259.25,487.08,256.12,486.92,254.07,487.32Z"/><path class="cls-1" d="M258.56,368.51c-2.55.05-5.17.34-4.91-3.2.2-2.73,1.82-5,4.56-4.54,2.45.4,6.23.78,6.1,4.37C264.18,368.45,261.13,368.76,258.56,368.51Z"/><path class="cls-1" d="M254.34,737.94c-4,.32-6.62-.4-6.55-3.52.07-2.86,3.08-4.29,5.35-4.11,2.11.17,5.65.21,5.4,4.26C258.3,738.3,255.43,737.67,254.34,737.94Z"/><path class="cls-1" d="M259.28,419.49c-2.91-.4-6.28-1.05-6.38-4.2-.09-2.76,3.51-3.33,5.72-3.53,2.62-.23,5.57,1.13,5.69,4.16C264.42,418.79,261.4,418.88,259.28,419.49Z"/><path class="cls-1" d="M263.33,713c-2.25-.65-5.16-1-4.79-4.69.39-4,3.57-3,6-3.18,2.6-.23,4.17.67,3.95,3.59S266.55,713.08,263.33,713Z"/><path class="cls-1" d="M259.11,383.55c3.29-.06,5.4,1.06,5.31,4.16s-2.72,3.6-5,3.6c-2.52,0-5.43-1.22-5.53-3.83C253.82,384.38,256.68,383.49,259.11,383.55Z"/><path class="cls-1" d="M265.46,589.16c-2.59.06-5.12.29-4.94-3.31.2-3.93,3.18-3.43,5.75-3.61s5.07.79,5,3.5C271.11,589.26,268,589.34,265.46,589.16Z"/><path class="cls-1" d="M242.84,498.37c2.6-.3,5.37.28,5.49,3.31s-2.6,3.8-5.35,3.59c-2.39-.18-5.2.29-5.36-3.44C237.46,497.91,240.21,498.32,242.84,498.37Z"/><path class="cls-1" d="M238.94,711.27c-2.38-.87-5.25-.91-5.12-3.59a4.38,4.38,0,0,1,4.94-4.37c2.24.32,5.8,0,5.72,3.9S240.38,709.52,238.94,711.27Z"/><path class="cls-1" d="M266.46,501.33c-2.17-.19-5.46-.25-5.53-3.07s2.76-4.05,5.72-3.9c2.76.14,5.57,1.12,5.62,4C272.33,501.66,269.09,501.19,266.46,501.33Z"/><path class="cls-1" d="M241,618.12a4.13,4.13,0,0,1,3.21,4.09c-.07,2.51-3,3.75-5.48,3.9a4.31,4.31,0,0,1-4.9-4.29C233.71,619,236,618.16,241,618.12Z"/><path class="cls-1" d="M265.86,664.22c-2.56-.31-5.36-.08-5.32-3.73,0-3.43,2.74-3.2,4.95-3.23,2.48,0,5.6.23,5.72,3.28S268.15,663.78,265.86,664.22Z"/><path class="cls-1" d="M237.35,754c-2.64.29-5.35-.32-5.53-3.28-.2-3.16,3-4.51,5.38-4.43a4.46,4.46,0,0,1,4.37,4.74C241.64,754.52,239.52,754.06,237.35,754Z"/><path class="cls-1" d="M250.39,686.07c-1.54-.18-3.84-.33-3.91-3.89-.08-4.46,3.09-2.79,5.13-2.94s5.05-.62,4.84,3C256.28,685.3,254.15,686.28,250.39,686.07Z"/><path class="cls-1" d="M269.22,759c-2-.34-4.88,1.16-4.77-3,.09-3.6,2.36-3.83,4.95-4,2.91-.15,5,1,5,4.09C274.43,759.89,271.33,758.64,269.22,759Z"/><path class="cls-1" d="M240.53,582.23c2.06.18,5-.67,4.77,2.6-.24,3-3.06,4.19-5.73,4.22-2.22,0-5-.69-4.88-3.61C234.86,581.71,238.15,582.45,240.53,582.23Z"/></g></g></svg>