<svg xmlns="http://www.w3.org/2000/svg" viewBox="0 0 519.08 777.03"><defs><style>.cls-1{fill:#fb9434;}</style></defs><g id="Layer_2" data-name="Layer 2"><g id="Layer_1-2" data-name="Layer 1"><path class="cls-1" d="M206.62,777c-7.38-1.21-8.83-4.61-8.43-12.61.82-16.34,2-32.69,2.36-49,.76-35.76.16-71.54,1.25-107.28,1-32,1.26-64,2-96q.81-34,2-68.06c.69-20.36,1.24-40.72,2-61.06.77-21.69,1.67-43.36,1.93-65.06a297.17,297.17,0,0,1,2.07-33.08c1-8.3-3.62-14.21-7.68-19.66-10.56-14.15-22.32-27.4-33.54-41.06-15.19-18.46-30.23-37-45.51-55.43-9.89-11.9-20.21-23.44-30.11-35.33-8.29-10-16.22-20.22-24.37-30.29Q48.33,75.57,26,48.17C18.2,38.63,10.2,29.24,2.26,19.81c-1.35-1.61-3.63-3-1.16-5.32,2.23-2.13,5-2.26,7.18-.44,5.1,4.32,10,8.88,14.75,13.61C28.4,33,33.12,39.1,38.78,44.1c5.9,5.21,10.8,11.33,16.5,16.65C66,70.8,76.4,81.3,86.69,91.77c12.8,13,25.7,26,38.49,39,14.92,15.21,30.24,30,45.07,45.3,11.85,12.22,24.78,23.4,35.7,36.53a7.79,7.79,0,0,0,1.4,1.41c1.92,1.38,1.75,6.4,5.14,4.32,1.71-1.05,2.6-5.57,1.94-8-2.49-9,.83-17.72.55-26.61-.23-7.15.83-14.53,1.41-21.77,1.68-21.24,2.1-42.58,3.23-63.87,1.2-22.73,3.62-45.38,4-68.17.16-8.71,1.36-17.39,1.86-26.1C225.7,1,226.77-.09,229.48,0s5.33.06,8,0c3.57-.07,5,1.68,5.06,5.19.15,4.76.79,9.66.68,14.26-.43,17.83,2.15,35.46,2.42,53.23.3,19.78.08,39.69,2.31,59.29,1.62,14.27-.08,28.55,1.85,42.56,2.69,19.53,1.73,39.18,3.59,58.71,1,10.86.51,21.86,1.13,32.78,1.41,24.76,3.39,49.47,3.17,74.32-.13,13.69,0,27.59,2.23,41a127.56,127.56,0,0,1,1.82,29.9c-.71,9.45,3.67,18.45.83,27.72a5,5,0,0,0,.42,3.35c1.85,3.51-1.91,9.77,3.79,10.78,4.27.76,5.74-5.06,8.91-7.47Q286,437.8,296,429.45c13.42-11.28,26.64-22.81,40.08-34.07,17.78-14.89,35.77-29.51,53.5-44.46,12.36-10.41,24.31-21.33,36.67-31.74s25.39-20.63,38-31.08c11.08-9.21,22-18.64,32.95-28,4.64-3.95,9.15-8,13.94-11.81,2.07-1.62,4.7-2.8,7,0s.26,4.47-1.52,6.31c-17,17.58-34.21,35-51.79,52.08-11.55,11.21-22.62,23-33.65,34.76a414.68,414.68,0,0,1-30.69,29.73c-9.45,8.19-17.39,18.1-26.15,27.1-7.33,7.53-14.69,15.05-22.4,22.18-4.84,4.48-9,9.6-13.75,14.16-11.79,11.22-22.46,23.61-33.82,35.3-11.72,12.06-23.7,23.86-35.63,35.72-3.71,3.69-5.33,7.43-2.89,12.75,1.15,2.51.64,5.84.65,8.81.05,13.66-1.44,27.51.32,41,3.69,28.17,1,56.53,3.86,84.63,1.36,13.29.32,26.52.88,39.76,1,23.63,1.56,47.28,3.15,70.87.55,8.08-3.25,10.81-9.65,12.5-.89.23-2.06-.23-2.48,1.07Zm150.71-375.5c-3.8,0-9,4.41-10.34-3.44-.15-.9-1.35-.24-2,.28-2.41,1.9-4.84,3.77-8.28,6.44,5,1.09,8.93-.07,8.62,4.73-.22,3.26-2.91,3.8-5.37,3.84-2.19,0-3.28-2.05-4.43-3.62-1.49-2.06-3.21-1.66-4.48-.2-1.07,1.23-1.41,2.88.64,4.12,1.78,1.09,4.93,2.09,2.78,5s-5.24,2.56-7.83.4c-1.72-1.43-3.77-2.62-5.23-.92-5,5.8-12.1,9.44-16.67,16.07,3,.55,6.62-.51,7.55,3.55.31,1.37.09,3.12-1.36,3.33-3.12.46-6.56,1.49-8.57-2.51-1-2-3-1.54-4.1-.28-3.72,4-8.35,6.91-12.47,10.42-14.69,12.5-29.34,25.06-43.72,37.91a134.69,134.69,0,0,0-22,25.06c-3.4,5.06-7,10.66-7.42,17-1,16.16-1.79,32.36-2,48.55-.32,20.36-1.11,40.69-1.9,61-.87,22.16-1.05,44.35-2.07,66.53-.83,18.22-.73,36.49-1.06,54.73a7.94,7.94,0,0,1-.27,3c-2.59,5.7,1,7.16,5.39,7.55,13.58,1.2,27.06,2.93,40.84,1.2,12.05-1.51,14.06-2.65,13.9-14.6-.19-14.59,0-29.22-1.09-43.75-1.72-23-2.15-46.12-3.24-69.15-.75-15.89-1.07-31.94-2-47.85-.4-6.73,1.14-13.28-.06-20.07-1.91-10.83-.33-21.91-1.95-33-1-6.9,1.35-15,.06-22.11-2-10.72,1.28-17.68,9.11-24.93,14.36-13.27,27.49-27.86,41.17-41.86q23.69-24.23,47.4-48.4c1.11-1.14,2.79-2,2.41-4.06,1.33.05,2.86.34,3.58-1.09,2.3-4.58,7-6.93,10-10.82,1.3-1.68,4.94-3,3-5.39s-6.16-4.12-9-2.21c-5.53,3.75-10.37,8.51-15.75,13.06C353.13,396.28,359.63,393.61,357.33,401.53Zm22.27-22.11a3.6,3.6,0,0,0,3.59-1.45c11.53-11.85,23-23.73,34.68-35.45,6.09-6.12,12.5-11.91,18.77-17.86,1-.93,2.15-2,1.3-3.39s-1.66-.2-2.36.41c-10.49,9.15-20.82,18.49-31.51,27.4-8.76,7.31-16.74,15.59-26.45,21.74-1.75,1.11-5.07,2.08-4,4.18S377.87,378.24,379.6,379.42ZM234.16,438.53c5.13,0,10.26-.14,15.39,0,3.54.13,3.94-1.78,4.06-4.67s-1.1-3.56-3.77-3.52q-14.9.18-29.79,0c-3.09,0-4.52.83-4.53,4.2,0,3.57,1.86,4.05,4.73,4C224.88,438.45,229.52,438.53,234.16,438.53Zm.22-13c4.82,0,9.64-.08,14.46,0,2.86.07,4.76-.33,4.76-3.95s-1.66-4.14-4.64-4.1c-9.64.11-19.28.13-28.92,0-3.12,0-4.55.83-4.5,4.22,0,3.23,1.61,3.9,4.38,3.83C224.74,425.4,229.56,425.48,234.38,425.48Zm.69,30c-5.63,0-11.26,0-16.9,0-1.82,0-3.38.31-3.57,2.48s-.21,4.12,2.54,4.56c1.91.31,3.9,1,5.75.77a95.3,95.3,0,0,1,26.51.05c2.47.36,5.08.67,5.24-3.28.12-3.14-.28-4.93-4.16-4.66C245.36,455.72,240.21,455.45,235.07,455.45Zm-1.45-66.85c4.3,0,8.6,0,12.91,0,3.16,0,5.19-.89,5.09-4.82-.1-4.28-2.89-4.65-5.63-4.12-8.37,1.6-16.78.52-25.16.8-2.79.1-4.29.81-4.35,3.94s1.73,4.08,4.24,4.16C225,388.69,229.32,388.59,233.62,388.6Zm.93,24c5,0,9.95,0,14.93,0,1.85,0,3.31-.16,3.13-2.6-.14-1.8.29-4-2.2-4.35a171.56,171.56,0,0,0-30.14-1.06c-3.08.14-3.72,2.59-3.77,5.39-.05,3.42,2.32,2.55,4.12,2.58C225.26,412.62,229.9,412.57,234.55,412.57Zm.14,30.9c-5.48,0-11,0-16.44,0-2.43,0-3.73.82-3.71,3.44s1,3.65,3.58,3.64c10.81,0,21.63-.09,32.45,0,2.92,0,3.74-1.63,4-3.92.24-2.79-1.65-3.19-3.89-3.17C245.32,443.5,240,443.47,234.69,443.47Zm.5-75.9c-4.81,0-9.62,0-14.42,0-2,0-3.19.85-3.14,2.93,0,1.74-.63,4.59,1.57,4.66,10,.35,20.11,1.38,30.08-.54,2.95-.56,2.31-3.27,2.17-5.33-.17-2.74-2.44-1.63-3.84-1.67C243.48,367.47,239.33,367.56,235.19,367.57ZM226,392.05c-3.89,1.23-9.16-1.57-9.24,4.18-.09,6,5.2,4.3,8.64,4.27,7.5-.08,15-1.8,22.52,0,3.32.79,4.13-2.2,4.58-4.57.58-3.09-2-2.06-3.62-2.41C241,391.76,232.92,395.49,226,392.05Zm5.76,75.38c-4.47,0-8.95.05-13.42,0-2.37,0-3.94.7-3.73,3.36.18,2.31.31,4.72,3.66,4.66,3.64-.07,7.29.08,10.93,0,5.92-.19,12.37,1.63,17-4.05.72-.87,3-.68,2-2.68-.7-1.39-2.19-1.24-3.52-1.23Zm-.47-103.88c4.52.72,10-.85,15.6-.88,2.81,0,2.71-1.63,2.68-3.54s.29-3.62-2.61-3.58c-8.59.11-17.19.09-25.78,0-3,0-3.58,1.49-3.59,4.05s.79,4.08,3.68,4S227.19,363.55,231.26,363.55Zm2.39-74.82c3.15,0,6.38.46,9.42-.1,6.66-1.21,3.05-6.66,3.27-10.07s-2.92-1.83-4.83-1.36c-6,1.47-11.91,3.18-17.94,4.39-2.67.54-3.15,1.88-3,4.12s1.55,3,3.66,3C227.36,288.68,230.5,288.71,233.65,288.73Zm.1,41.82c-3.82,0-7.64.11-11.45,0-2.61-.11-4.05.42-3.83,3.48.18,2.52.23,4.7,3.61,4.67,7.8-.05,15.6.06,23.39-.07,2.51,0,4.21-1.12,4.14-4.26s-1.67-3.89-4.41-3.81C241.38,330.63,237.56,330.55,233.75,330.55Zm-.6-4.94c3.81,0,7.63-.16,11.43,0s3.54-2.84,3.89-4.95c.45-2.76-1.7-3.09-3.9-3.08-7.29,0-14.59.12-21.88,0-3.39-.08-4.11,1.44-4.24,4.5-.16,3.51,1.65,3.66,4.25,3.56C226.18,325.51,229.67,325.61,233.15,325.61Zm.92,18c-4.15,0-8.3.15-12.44,0-2.9-.13-3.78,1.46-4,3.82-.24,2.73,1.48,3.3,3.79,3.28,8.12,0,16.25-.06,24.37,0,2.82,0,3.68-1.24,3.79-3.93.13-2.9-1.27-3.23-3.6-3.16C242,343.69,238.05,343.6,234.07,343.59Zm-.59-30.91c3.64,0,7.29-.16,10.91.06,2.53.15,3.65-1.12,4.09-3.22.51-2.39-.57-3.56-3-4-7-1.39-14.15,1-21.2-.82-3.17-.82-4.65.76-4.76,4.35-.12,3.86,1.91,3.81,4.6,3.72C227.2,312.61,230.35,312.69,233.48,312.68Zm10.39-44.89c-.89-3.4-1.49-7.25-4.52-8.88-2.88-1.55-4.43,2.06-6.26,3.76-3.45,3.2-5.76,7.5-10,10-1.45.88-2.63,4.08-.09,3.68,6.67-1.05,13.13-3.44,19.61-5.51C243.29,270.66,243.45,268.91,243.87,267.79ZM234,293.67c-3.82,0-7.65,0-11.47,0-2.45,0-3,1.54-3,3.65,0,1.92.61,3.34,2.76,3.35,7.15,0,14.3.1,21.44-.08,2.48-.07,3.85-1.81,3.7-4.37s-2.08-2.58-4-2.57C240.34,293.67,237.18,293.66,234,293.67Zm-15.53-24.86c.6-.13,1.25-.06,1.53-.35,4.37-4.57,8.86-9,12.95-13.86,1.75-2.06.38-4.63-1.34-6.13-1.41-1.22-3.74-1.71-5.08.43-3.18,5.11-6.21,10.31-9.23,15.51C216.29,266.18,215.47,268.1,218.49,268.81Zm4.71,211.54c-2.41,2.12-9.42-3.79-9.31,3.79.11,7.08,6.8,3.34,10.6,4.32a4.77,4.77,0,0,0,1,0c4.68.2,7.06-4.22,7.49-6.75s-4.24-.78-6.58-1.34A17.73,17.73,0,0,0,223.2,480.35ZM212,261.74c3.4-5.69,6.85-11.36,10.17-17.09.89-1.52,1-3.32-.71-4.4-.63-.4-2.48-.24-2.59.07C216.41,247.39,210.42,253.17,212,261.74ZM194.7,216.11c-.27-1.14.61-2.71-.89-3.09s-1.84.93-2.16,2.13c-1.22,4.69-1.59,9.66-4.86,13.67a1.76,1.76,0,0,0,1,2.79,2.19,2.19,0,0,0,2.74-1.58C192,225.39,193.33,220.7,194.7,216.11Zm7.05,5.46L201,219c-.68.35-1.81.55-2,1.07q-2.82,8.55-5.33,17.2c-.19.64.35,1.49.56,2.25.68-.35,1.94-.69,2-1.07C196.48,232.36,200.52,227.53,201.75,221.57Zm5.72,27.73c2.64-5.62,4.47-9.25,6-13,.37-.9-.15-2.23-.51-3.28-.05-.16-2-.09-2.12.24C209.11,237.74,206.11,242,207.47,249.3Zm6.13,249.47c.85.82-1.19,3.82,1.5,3.41,3.58-.54,4-4.87,6.17-7.26,1.28-1.42-1.75-1.32-3-1.51C214.38,492.83,213.59,495.26,213.6,498.77Zm-37.8-281.5c3.9-5.06,4.1-10.26,5.94-14.8.36-.89,1.87-2-.27-2.58a2.13,2.13,0,0,0-2.69,1.6C177.47,206.29,175.52,211,175.8,217.27Zm29.14,10.42c-.7,8.05-6.29,13-4.74,21.17C204.32,242.05,206.82,236.31,204.94,227.69Zm-22.35-4.18c2-5.69,5.46-11,4-17.51C185.13,211.8,180.8,217,182.59,223.51Zm-18.92-21.66c2-4.82,3.57-8.5,4.94-12.26.25-.72-.41-1.77-.65-2.66-.71.23-2,.37-2,.7C165.28,192,161.16,195.63,163.67,201.85ZM173.8,191.1c-2.08,6.28-3.65,10.88-5.07,15.53-.16.52.55,1.31.86,2,.55-.31,1.56-.59,1.58-.94C171.49,202.66,176,198.53,173.8,191.1Zm-11-9c-.44-.51-.69-1.11-1-1.14-1.2-.12-2.65-.79-3.16,1.17-.94,3.54-2,7.06-2.93,10.58.74-.24,1.74-.25,2.17-.75C160.35,189.06,159.45,184.58,162.85,182.08Zm-12.26,5.21c2.21-5.29,5-8.67,3.36-15.12C151.63,177.54,148.8,180.87,150.59,187.29Zm-8.33-8.8c5.61-3.16,5.31-7.29,7.48-10.75C143,168.41,145.3,173.85,142.26,178.49Zm-6.54-22.1c0-1.51-.25-3-1.44-2.4-2.57,1.21-2.47,4.23-3.49,6.48-.31.71.36,2.75,1,2.06C133.55,160.72,134.61,158.24,135.72,156.39Zm3,15.91c1.07-3,1.95-5.37,2.71-7.73.91-2.81-.57-4.71-1.6-3C138,164.53,136.85,168,138.69,172.3Zm-9-23.45c.13-1.67-.73-2.35-1.77-1.88-2.61,1.16-2,4.15-3.05,6.22-.35.68.27,1.95,1.24,1.43C128.43,153.37,128.59,150.62,129.67,148.85Zm-9.88.81c1.24-4,1.91-6.24,2.58-8.43-.62-.08-1.74-.34-1.79-.19C119.77,143.14,118.5,145.21,119.79,149.66Zm-7-9.14c2.76-1.19,3.37-2.86,2.74-5a1.79,1.79,0,0,0-1.63-.56C111.72,136.3,113.14,138.37,112.81,140.52Zm-10-18.71c0-1.15-.32-2-1.68-1.85-1.81.21-1.25,1.67-1.27,2.71,0,.87-.25,2.31,1.34,1.91A2.37,2.37,0,0,0,102.82,121.81Zm4.26,11.07c2.3-2.29,2.1-4,.8-6.55C106.23,128.69,106.79,130.44,107.08,132.88ZM95.8,114.72c-.23-.46.34-1.77-1.15-1.13-.87.37-1.92.51-1.81,1.87a1.31,1.31,0,0,0,1.55,1.38C95.79,116.81,95.83,115.83,95.8,114.72Z"/><path class="cls-1" d="M220.08,545.33c-2.83.22-5.19-.68-5.32-3.78-.15-3.6,2.82-4,5.5-4.15,2.84-.1,5.05,1.57,5.11,4.27C225.45,544.8,222.85,545.53,220.08,545.33Z"/><path class="cls-1" d="M250.28,545.46c-3-.34-5.73-.24-5.64-3.87.07-2.79,1.61-4.33,4.39-4.23,3,.12,6,1.29,6.25,4.41S252,544.59,250.28,545.46Z"/><path class="cls-1" d="M233.39,509.38c2.6-.17,5,.81,4.9,3.51-.1,3.07-3.06,4.28-5.66,4.33-2.32,0-5.23-.69-5-4.05S230.47,509.13,233.39,509.38Z"/><path class="cls-1" d="M247.6,674.26c2.74-.33,5.54.24,5.69,3.23s-2.94,4.55-5.48,4.34c-2-.17-5-.69-5.21-4.08C242.41,673.81,245.09,674.16,247.6,674.26Z"/><path class="cls-1" d="M223.09,531.37c-2.3-.23-5.56.83-5.4-3.16.13-3.13,2.48-4,5.29-3.8,2.59.17,5.58-.27,5.52,3.79S225.4,531.17,223.09,531.37Z"/><path class="cls-1" d="M243.53,640.08c.39,3-1,4.34-4,4.06-2.65-.24-5.73-.33-5.87-3.81s3-3.77,5.62-4S243.93,636.81,243.53,640.08Z"/><path class="cls-1" d="M233.89,659.2c-2.75,0-5.25.34-5.19-2.9.08-3.58,3-4.66,5.67-5a4.44,4.44,0,0,1,4.94,4.37C239.17,659,235.84,658.91,233.89,659.2Z"/><path class="cls-1" d="M301.18,453.51c-3.23-.2-5.48-1.69-5.56-4.62-.07-2.59,3-3.75,4.55-3.15,2.14.82,6.38-.56,6.1,3.91C306.07,452.86,303.29,453,301.18,453.51Z"/><path class="cls-1" d="M222.23,558.33c-2.45-.34-5.48.8-5.48-2.88,0-3.42,2.36-4.18,5.37-4.17s5.44.75,5.37,4.16C227.4,559.46,224,557.74,222.23,558.33Z"/><path class="cls-1" d="M224,631.11c2.69.35,5.6,0,5.56,3.66s-3,3.17-5.38,3.35c-2.73.2-5.35-.37-5.39-3.6C218.72,630.89,222,631.58,224,631.11Z"/><path class="cls-1" d="M247.62,698.08c-2.39-.28-5.12,0-5-3.78.13-4,3.12-3,5.42-3.15,2.74-.2,5.43.55,5.25,3.64S250.37,698.37,247.62,698.08Z"/><path class="cls-1" d="M250.25,492.38c-3-.17-5.65-1.26-5.36-4,.31-3.06,3.78-3.53,6.17-3.65,2.11-.12,4.5.92,4.5,4C255.55,493,251.9,491.31,250.25,492.38Z"/><path class="cls-1" d="M265.53,489.38c-2.91.22-6-.2-5.77-3.63.16-2.91,3.26-3.28,5.77-3.24,2.26,0,4.76-.05,4.91,3.32C270.61,489.67,268.06,489.53,265.53,489.38Z"/><path class="cls-1" d="M215,755c-1.79-.2-5.09-.2-5.13-3.6,0-2.74,2.92-4.25,5.32-4.13s5.22,1.32,5.21,4.32C220.36,754.05,218.32,755.2,215,755Z"/><path class="cls-1" d="M243.94,528.24c-3.09.71-5-1.14-5-3.79s2.81-3.83,5-3.84c2.42,0,5.3,1.26,5.38,4.06C249.42,527.73,246.82,528.57,243.94,528.24Z"/><path class="cls-1" d="M223.18,616.45c1.11.23,4.41-.67,4.28,3.09-.11,3.09-2.54,3.78-5.35,3.75s-5.37-.63-5.26-3.76C217,616.75,219.45,616,223.18,616.45Z"/><path class="cls-1" d="M236,556.18c-3.68.26-6.31-.46-6.2-3.58.1-2.7,2.57-3.33,5.16-3.32,2.76,0,5.26.52,5.45,3.64C240.63,556.75,237.25,555.76,236,556.18Z"/><path class="cls-1" d="M272.47,474.42c-1.42,1.85-2.52,4.35-5.19,3.8-2.11-.43-5.65,0-5.56-3.35.07-2.49,2.22-4.15,5-4.39C269.74,470.23,271,472.37,272.47,474.42Z"/><path class="cls-1" d="M235.9,541.23c-3.84.33-6.17-.66-6.16-3.38s2.41-3.49,5-3.49,5.53.28,5.52,3.44S237.05,540.85,235.9,541.23Z"/><path class="cls-1" d="M219.29,710.3c-2-1.5-5.53-.37-5.62-4-.06-2.54,1.49-3.95,4-4.06,2.86-.13,5.29,1,5.79,3.94S220.87,709,219.29,710.3Z"/><path class="cls-1" d="M232.36,694.15c2.09.58,5.1.54,5.1,3.87s-3.25,3.55-5.35,3.81c-1.88.23-4.43-.7-4.46-3.51S229.43,694.29,232.36,694.15Z"/><path class="cls-1" d="M281.86,471.44c-2.49-.09-5.86-.38-5.95-2.95s2.65-4.17,5.77-4c2.71.12,4.53,1.08,4.66,3.94C286.49,471.64,284.09,471.47,281.86,471.44Z"/><path class="cls-1" d="M215.46,733.11c-2.22.23-4.49-.76-4.61-3.42s2.21-3.54,4.8-3.57,5.56.14,5.57,3.17C221.22,731.86,218.62,733.13,215.46,733.11Z"/><path class="cls-1" d="M252.26,752c-2.26-.07-4.92.32-4.64-2.93.32-3.62,3.31-3.86,6.15-4s3.86,1.16,3.76,3.85C257.37,753,254.35,751.74,252.26,752Z"/><path class="cls-1" d="M240,721.34c-3.76-.47-6.42-.34-6.43-4s2.59-3.09,4.87-3.2c2.66-.14,4.89.84,5,3.56S241.58,721.84,240,721.34Z"/><path class="cls-1" d="M221.07,689.13c-2.81.19-5.41-.67-5.14-3.35.3-3,3.54-3.29,6.09-3.52s4.52,1,4.3,3.52C226.06,688.75,223.55,689.47,221.07,689.13Z"/><path class="cls-1" d="M252.55,728.05c-2.19-.17-5.17.66-4.94-3.07.2-3.21,2.95-3.7,5.39-3.81s4.62.46,4.54,3.75C257.45,728.62,254.79,727.93,252.55,728.05Z"/><path class="cls-1" d="M217.75,577.28c-2.13.09-4.24-.14-4.08-2.93.22-3.82,3-4.07,6.05-4,2.22,0,4.14.41,3.81,3.19C223.13,576.94,220.65,577.53,217.75,577.28Z"/><path class="cls-1" d="M234.64,670.21c2.14.2,5.05-.57,4.85,3.09-.15,2.72-2,4.12-4.64,3.8-2.38-.28-5.13-.68-5.22-3.92C229.53,669.5,232.47,670.42,234.64,670.21Z"/><path class="cls-1" d="M235.4,609.21c2.06.26,5.17-.73,4.89,2.55s-3.29,4.15-6.23,4.39c-2.6.22-3.29-1.19-3.49-3.61C230.2,608.13,233.31,609.51,235.4,609.21Z"/><path class="cls-1" d="M231,605.25c-2.85.13-5.33-.66-5.08-3.43s2.48-3.87,5.44-3.54c2.25.25,4.24.18,4.26,3.33C235.64,605.3,233.32,605.41,231,605.25Z"/><path class="cls-1" d="M236.06,741.08c-2.77.2-5.51-.61-5.21-3.69.39-4,4.61-1.82,6.92-3,1.69-.85,3.66,1.17,3.6,3C241.26,740.58,238.82,741.3,236.06,741.08Z"/><path class="cls-1" d="M249.53,768c-1.81-.27-4.72.27-4.81-3s2.7-3.73,5.16-3.93c2.7-.22,4.41,1.2,4.52,4C254.53,768.4,252,767.94,249.53,768Z"/><path class="cls-1" d="M286.5,460.37c-2.58,0-5.13.33-5-3s2.9-3.69,5.33-3.92c2.71-.26,4.66,1.22,4.51,4C291.18,460.76,288.23,460.08,286.5,460.37Z"/><path class="cls-1" d="M250.88,657.21c2.59-.13,4.84.11,4.56,3.18s-2.51,3.8-5.28,3.74c-2.48,0-4.55-1.14-4.42-3.5C245.89,657.65,248.39,656.86,250.88,657.21Z"/><path class="cls-1" d="M248.91,506.36c-2-.35-5.11.88-5.19-2.27-.09-4.14,4.12-3.85,6.62-4.34,1.93-.38,4.07,1.95,3.95,4.16C254.09,507.54,250.86,505.87,248.91,506.36Z"/><path class="cls-1" d="M253,637.24c-2.41-.19-5.56.77-5.41-3.22.14-3.59,3.06-2.64,5.23-2.81,2.72-.2,5.42.42,5.43,3.51C258.27,638.34,255,636.86,253,637.24Z"/><path class="cls-1" d="M244.49,575.3c2.83-.18,4.92,1,4.86,3.4-.09,3.11-2.73,3.78-5.45,3.49-2.09-.22-4.57-.23-4.3-3.37S241.94,574.79,244.49,575.3Z"/><path class="cls-1" d="M250,605.32c1.29.16,4.31-.3,4.32,3.23,0,3-2.71,3.55-4.92,3.5s-4.69-.62-4.8-3.69S246.73,605.16,250,605.32Z"/><path class="cls-1" d="M221.08,668.12c-2.2,0-4.38.14-4.37-2.77,0-3.29,2.6-4.05,5-4.05,2,0,4.69.81,4.6,3.37C226.24,667.8,223.63,668.36,221.08,668.12Z"/><path class="cls-1" d="M250.74,553.3c2.08-.29,4.37.68,4.48,3,.12,2.46-2.12,4-4.65,3.87s-5.12-.77-5-4.13S248.33,553.4,250.74,553.3Z"/><path class="cls-1" d="M228.67,586.09c-.91-.12-3.94,1-3.86-2.32s2.82-3.43,5.49-3.47c2.39,0,4.87.59,4.9,3C235.25,586.7,232.17,586.32,228.67,586.09Z"/><path class="cls-1" d="M243.07,600.27c-2-.5-4.39-.23-4.49-3.41-.1-3.36,1.87-3.66,4.49-3.64s4.6.36,4.49,3.69C247.45,600.06,245,599.76,243.07,600.27Z"/><path class="cls-1" d="M220.73,651.19c-2.17-.13-5.13.66-5-2.9.08-3.17,2.83-3,5.06-3.07s4.6-.44,4.75,2.74C225.68,651.45,223.07,651.2,220.73,651.19Z"/><path class="cls-1" d="M220.1,596.19c-2.71.2-5.23-.41-5.12-3.31.07-2,1.52-3.81,4.39-3.69s4.23.88,4.29,4S222.2,596.46,220.1,596.19Z"/><path class="cls-1" d="M232.62,759c-2.23.36-4.73-.65-4.67-2.82.06-2.37,2.27-4.14,5.15-4.11,2.47,0,4.41,1.2,4.28,3.63S235.27,759.22,232.62,759Z"/><path class="cls-1" d="M249.4,623.41c-1.07,2.44-2.71,4.17-5.27,3.7-1.92-.34-4.8-.85-4.38-3.61.47-3,3.7-2.76,5.94-3.1C247.7,620.1,248.84,621.7,249.4,623.41Z"/><path class="cls-1" d="M237.45,570.07c.37,3.48-1.76,4.1-3.32,4-2.11-.11-5.18.46-5.46-3.12-.16-2,.35-3.63,2.83-3.65C234.28,567.29,236.47,568.21,237.45,570.07Z"/><path class="cls-1" d="M323.56,432.55c-3.58-.24-6.22.32-6-2.62.21-2.7,2.45-3.44,5-3.43,2.25,0,4.47.89,4.41,2.86A3.26,3.26,0,0,1,323.56,432.55Z"/><path class="cls-1" d="M219.91,607.26c-1.85,0-4.09.16-4.15-2.33s2.3-2.6,4-2.51c1.89.11,4.49.56,4.47,2.89C224.2,607.85,221.62,607.12,219.91,607.26Z"/></g></g></svg>