<svg xmlns="http://www.w3.org/2000/svg" viewBox="0 0 403.17 576.56"><defs><style>.cls-1{fill:#f99436;}</style></defs><g id="Layer_2" data-name="Layer 2"><g id="Layer_1-2" data-name="Layer 1"><path class="cls-1" d="M84.88,361.16c-2.48-5.58-5.33-11-7.35-16.77-2.68-7.62-5.43-15.08-6.1-23.49-.51-6.3-1.28-12.66-1.56-19-.82-18.8,4.93-36.07,12.25-53,3.43-7.9,7.38-15.58,10.65-23.55,4.72-11.48,13.83-19.85,20.57-29.9,7.37-11,15.07-21.76,22.7-32.58,3.09-4.39,6.16-8.65,10.62-12.06,7.19-5.51,11.51-13.46,15.86-21.36,5.75-10.46,14.73-18.65,20.5-29.3,6.47-11.94,12.9-23.7,16.7-36.87,1.63-5.66,5.85-10.26,6.75-16.61.64-4.53,2.79,1,4.7.31,1.34-2.06-.46-4.07-.69-6.19-.28-2.51.77-4.45,3.17-4.83s2.56,1.69,2.88,3.63a76.51,76.51,0,0,0,15.93,36c3.84,4.81,6.33,10.72,11.3,14.71l1.64,1.38c.11,1.33-.41,2.93,1.7,3.58a3.62,3.62,0,0,0-1.77-3.51c0-.83.18-1.73-.87-2.13-2.14-6.92-7-12.36-10.31-18.7-4.6-8.93-7.36-18.35-10.73-27.66a151.86,151.86,0,0,1-7-25.23c-1-5.53,0-11.4.22-17.12,0-.35.9-.92,1.39-.94a2.19,2.19,0,0,1,2.37,2.09C222,19,229.87,33.91,235,49.72c3.69,11.43,10.17,21.28,14.51,32.14,2.74,6.89,5.49,13.89,9.11,20.16a173.24,173.24,0,0,0,19.2,27.73c6.41,7.35,14.76,13.17,18.28,23.09,3.32,9.33,11.65,11.53,20.58,11.78,16.39.48,32.74,2.7,49.16,1.95,10.63-.48,21.18-3.3,31.9-1,1.75.38,4.19-1.33,5.19,1.35,1.29,3.47-2.42,4.87-3.92,6.22-2.3,2.08-5.43,5-8.67-1.45-1.77-3.52-9-1.68-13.36,2.19-3.89,3.46-1.26,4.47,1.19,6.5,1.3,1.08,2.57,3,1.38,5.28a3,3,0,0,1-3,1.92c-2.74.15-3.21-1.61-3.78-3.64-.3-1.06-.89-2.43-1.75-2.87-4.33-2.23-3.84-4.56-.17-7.75-4.95,4.79-10.78-.38-16.15,2.59-1.79,1-6.6-2.21-10,.57-1.13.92-2.42,1.62-3.54,2.54-1.8,1.49-2.89,4.31-5.38-.07-.92-1.61-6-1.33-8.93-2.92-2.35,10.21-2.35,10.21-.56,10.53l-.07-.09c-.86,1.43,0,2.28,1,3.09l-.07-.06c3.81,5.57,5.25,13.28,13.8,14.52,1.81.27,4.65,1.61,2.51,4.51-2.27,3.07-1.12,5.77.05,8.77,3.46,8.94,9.43,16.7,12.11,26a5.31,5.31,0,0,0,2.3,3c3.07,1.62,3.91,3.17,1.07,5.92-1.6,1.54-.77,3.57-.2,5.55,2.49,8.67,4.21,17.3,2.67,26.57-.8,4.8,2.15,10.22,1.34,15-1.59,9.47-1,19-3.9,28.6-2.62,8.61-3.5,17.62-8.37,25.67-9.54,15.79-21.15,29.22-38.05,37.47-6.29,3.08-13,5.31-19.17,8.38-4.11,2-7.83,3.58-12.43,4.08-3.76.41-6.11,3.37-5.64,7.84.62,5.93-2.77,8.23-8.21,8.71-1.9.17-4.89-1.56-5.52,1.43a7.55,7.55,0,0,0,2.86,7.92c6.17,4.17,8.61,10.77,10.71,17.16,3.55,10.78,8.81,20,17,28,8.49,8.27,17.75,15.86,24.34,26,8.87,13.7,12.28,28.67,11.77,44.77-.05,1.63-.42,3-2.24,3.35-2.16.45-3.53-.8-4.49-2.42a52.13,52.13,0,0,1-7-21.11c-1.69-15.84-10.47-27.08-21.58-37.19a6.32,6.32,0,0,0-2.14-.77,11,11,0,0,0-.3,2.87,74.31,74.31,0,0,0,7.62,23c4.41,8.28,3,17,2.94,25.71a6.39,6.39,0,0,1-4.39,5.6c-2.19.71-2.65-2.19-3.55-3.51-4.16-6-5.67-13.18-6.65-20.24-1.79-13-2.69-26.16-6.44-38.64-2.54-8.46-7.32-16.36-9.06-25.18-1-5.19-2.93-9.75-6.61-13.37-2.23-2.19-3.85-4.37-6.57,1.16-9.59,19.52-5.52,40.12-6.27,60.31-.25,6.7-1.17,13-4.05,19.07-3.2,6.75-6.17,3.57-9.7-.26.79,7.07,2.33,13.74,1.67,20.56-.18,1.81.33,3.79-.22,5.44s-.21,4.5-2.73,4.81-4.07-1.32-5.35-3.52a35,35,0,0,1-4.33-17.88c.13-12.64-2.33-24.81-4.36-37.09a7,7,0,0,0-3.6-4.95c-3.12,11.15-4.59,22.38-6.31,33.57-1.21,7.87-1.56,15.49.69,23.41,1.55,5.47.32,11.46-1.91,16.91-.66,1.59-1.87,2.92-3.8,2.63-2.3-.35-4.59-.86-5-3.84-.91-6.64-1.91-13.26-2.84-19.89-.41-2.92-.88-5.84-1-8.78-.25-4.31,1.78-10.78-6.66-5.67-2.13,1.29-5.15-.06-6-2.06-2.12-4.73-6.45-8.19-7.43-13.54-.23-1.24-.6-3.26-2.68-2.86-1.93.38-1.2,2.19-1.1,3.3.71,8.18,2.25,16.35,2.21,24.52-.05,11.92,1,24.22-5.9,35.07-1.7,2.67-2.83,4-5.38.28-2.76-4-4.64-7.85-3.94-12.75.11-.77,0-2-.43-2.36-7.24-6-4.37-14.54-5.5-22-1.45-9.56,0-19.39-2.94-28.86-1.08-3.44-2.94-6.52-4.37-9.69-4.18-9.22-3.2-19.27-5.87-28.64a4.76,4.76,0,0,0-1.84-2.69c-1.38-.76-1.68.83-2.45,1.62-5.94,6.09-7.85,14.13-10.59,21.73-3.13,8.71-5.79,17.59-9,26.26-1.22,3.3-3.89,6.7-7.79,4.27-3.6-2.23-2.58-6.24-1-9.73,2.56-5.56,7.23-9.55,9.55-15.7,2.93-7.79,5.5-15.87,9.19-23.44a26.48,26.48,0,0,1,6-7.73c6.34-5.92,5.12-14.45,8-21.52,2.57-6.26,4.58-12.86,9.84-17.71a4.52,4.52,0,0,0,.82-5.07c-1.25-3.34-3.31-6.47-2.75-10.34.24-1.64-1.07-1.86-2.31-1.79-3.17.18-6.2-1.55-9-1.63-8.48-.23-15.13-4.64-22.57-7.49A104.7,104.7,0,0,1,89,383.24a84.5,84.5,0,0,1-26.12-33.59c-5.33-12.49-7.21-25.81-11-38.66-3.37-11.45-2-23.41-3.9-35-.26-1.62,0-3.25-1.42-4.55-2.19-2-2.55-3.45.76-5.1,3.77-1.89,3.4-9-.37-10.93-1.89-1-2.57-2.41-1.78-4s2.61-1.07,3.91-.29c3.8,2.28,5.25,1.32,4.94-3.12-.23-3.29,1.88-6,3.52-8.52s3.05-4.84,1.53-8.13c-.58-1.25-1.21-3.5,1.94-4,4.64-.68,4.91-3.65,2.34-6.87-2.34-2.93-1.05-3.89,1.82-3.87,4.91,0,5.71-3.75,6.6-7.1,1-3.95-2.11-6.51-4.53-8.65-1.88-1.66-4.18.16-5.2,2.22-.86,1.75-1.88,2.62-3.81,2.37A2.46,2.46,0,0,1,56,203.21c-.38-1.91.65-3.19,2-4.26a12.36,12.36,0,0,1,2.5-1.43c1.27-.58,3.23-.49,3.29-2.36.07-2.56-2.13-1.27-3.35-1.65-2.4-.74-5.7-1.77-5.22-4.32.68-3.63,4.4-.87,6.64-1.62,2.17,1.74,4.52,1.27,6.74.26.33-.15.35-2.36-.11-2.67-2.67-1.77-3.75,1.64-5.81,2.06a3.94,3.94,0,0,0-.88.42c-2.09-2.47.89-5-.1-7.48-2-5-7-6.94-10.57-10.32-.74-.71-3.07-1-4,.54-.82,1.38.6,2.34,1.44,3.37,2.24,2.75,6,3.45,8.05,6.82,1.28,2.13.63,3.3-.19,4.79-1.13,2-2.58.57-3.8.06-2.33-1-4.32-2.37-5.24-4.9a5.53,5.53,0,0,0-5.65-3.94c-5.08.28-6.49-1.09-.89-7.21-5.21,2.24-10.69-1.55-9.34,6.4.35,2-2.25,2.16-4.11.73-3.13-2.4-6.11-3.28-8.33,1.29-.55,1.13-1.85,2.27-3.3,1.53s-.54-2.37-.73-3.59c-.24-1.52,3.48-2.65.93-3.83C14,171,11,170.54,9.14,173.07c-2.58,3.51-5.77,3-9.14,1.49v-10c5.42-.09,11.3-1.39,16.14-.47,7.91,1.49,15.06-.52,22.3-1.67,15.53-2.46,31-1.78,46.5-.93,7.9.44,15.82.71,23.73,1.16,3,.18,4.88-1.8,6.81-3.44a239.52,239.52,0,0,0,43.26-48.56c8.19-12.08,14.46-25.52,19.87-39.25,3-7.59,7-14.76,10-22.35,2.14-5.4,3.25-11.2,5-16.76Q197.12,21.12,201,10c.32-.91,1.62-1.47,3.16-2.78.94,7.34-1.82,13.46-2.51,19.78-.24,2.18-1,4.38-1.15,6.71-.4,7.8-4.31,14.61-6.4,22-1.9,6.7-5.8,12.56-7.86,19.33-1.79,5.87-5.5,11.32-8.42,16.88a253.91,253.91,0,0,1-17.28,27.79c-8.89,12.64-17.7,25.45-29.23,36.21-4.79,4.47-9,10.51-14.27,13.87s-7.94,8.82-13,12.27c-9,6.17-12.46,16.89-18.74,25.33S75.13,225.38,72,235c-4.22,12.88-10.81,25.39-10.15,39.49.74,15.94,1.18,32,3.26,47.76,2,15,10.43,27.51,19.07,39.63l1.64,1.35c-.32,2.95.4,5.24,3.75,6.14.74-3.47-1.6-4.74-3.82-6.08C85.78,362.45,85.92,361.57,84.88,361.16Zm148.47,64c.42.79.82,1.59,1.27,2.37,0,0,.56-.11.62-.25a2.2,2.2,0,0,0-1.15-2.8c-1.22-1.83-.36-3.89-.61-5.82-.13-1.08.27-2.55-1.57-2.48s-1.29,1.51-1.48,2.58C229.94,421.62,231.94,423.27,233.35,425.2ZM229.8,124.29c.84.89.52,2.63,2.91,3l-2.2-3.76c-2-6.85-7.91-10.88-12-16.27C220.35,114.23,224.88,119.39,229.8,124.29Zm-162,52.3c-1.88-3.71-3.29-7.14,3.41-6.06.89.15,1.55-.43,1.53-1.47s-.73-1.2-1.58-1.48c-5.81-1.91-7.29,3.34-8.56,6.39-1,2.27,3.39,1.65,5.27,2.55,1.08,4.11,2.47,5.48,6.62,2.22,2.48-2,6.69-1.77,4.65-6.74-.39-.95,3.17-2,.51-3.25-2-.89-1.93,1.67-2.82,2.65C74.39,174.13,72.94,178.58,67.8,176.59Zm74.47,44.56c3.68-5,7.41-9.87,11-14.88,3.82-5.28,8.41-10.24,11.09-16.06,4.91-10.67,12.11-19.92,17.43-30.3,2.71-5.28,6-10.28,9-15.41a7.66,7.66,0,0,0-4.24,3c-10.32,13.16-18.49,27.76-27.67,41.68-6.53,9.9-11.61,20.75-17.34,31.17L140,222.83a25.7,25.7,0,0,0-6.84,9.39c-4.44,9.75-8.51,19.78-13.49,29.14-6.71,12.64-8.84,26.34-10.44,39.7-1.87,15.57-1.2,31.5,5,46.94,5.67,14.18,15.11,25.3,24.43,36.74.69.85,1.83,2.17,2.85,1.14s-.14-2.28-.93-3.26c-5.9-7.35-12.37-14-16.3-23.07-9.26-21.31-13.45-42.92-8.74-66,1.2-5.91,3.11-11.64,4.11-17.53a96.47,96.47,0,0,1,10.49-30.71c3.88-7.07,7.07-14.51,10.57-21.79Zm60.15-14.72c-6.58,12.44-13.22,24.86-19.74,37.33-7.08,13.51-17,25.77-19,41.55-1.24,9.56-4.89,18.55-5.24,28.39-.51,14.59,1.24,28.79,4.22,42.95.51,2.45,5.1,9.43,7.1,10.19-4.06-8.08-5.5-16.31-6.43-25-1.75-16.47.13-32.47,3.28-48.44,3.65-18.56,12-35.3,20.36-52.1,5.63-11.26,14.26-21.16,16.21-34.16a5.2,5.2,0,0,0,2.09-4,1.64,1.64,0,0,0-1.2-.37C202.43,203.45,202.46,205,202.42,206.43ZM149.68,375.16c.19,1-.74,2.36.9,2.88.22.07.76-.18.8-.36.31-1.42-.64-2-1.77-2.46.86-5.88-3.42-10.31-4.8-15.61-2.09-8-4.66-16.12-4.82-24.23a162.1,162.1,0,0,1,5.09-44.18,263.32,263.32,0,0,1,14.1-40.47,330,330,0,0,1,16.76-32c10.52-18.07,19.77-36.69,26.38-56.52,1-3.09,3.74-6.32,1.12-11.11-1.25,8-5.14,14-8,20.44-5.56,12.67-11.06,25.39-17.29,37.73-8.39,16.61-18.53,32.41-26,49.41C142,282,135,306.38,136.59,332.46A95.17,95.17,0,0,0,144.73,366C146.13,369.09,146,373.25,149.68,375.16ZM152,401.25c-12.85-9.67-24.36-19.68-33-33.05-7.24-11.12-14.14-22.65-14.78-35.68-.85-17.16-1.4-34.39,3.1-51.67,3.71-14.27,10-27.16,16-40.23,5.65-12.28,13.17-23.68,19.54-35.64,7.76-14.56,17.08-28.2,25.67-42.22,8.31-13.57,19.54-25.38,28.17-38.91,6.2-9.73,12-19.72,10.79-32-.1-1,.61-2.65-1-2.9-1.29-.2-1.65,1.25-2.27,2.24-10.65,17.19-19.69,35.39-31.8,51.66-5.67,7.62-11.92,14.8-17.69,22.34-5.22,6.8-12.9,11.42-17.68,18.22C129,195,121,206.67,114.24,219.19c-7.37,13.59-15.84,26.89-19.8,41.71-3.15,11.81-7.24,23.48-8.25,36.16-.8,10.13-.64,20.37,1.37,29.53,4,18.48,11.89,35.74,25.57,50a105.59,105.59,0,0,0,34.58,24.14C149,401.26,150.59,401.09,152,401.25ZM337.47,293.52c-1.73-6.82-2.37-14.78-2.85-22.43-1.09-17.23-8.77-32-15-47.21-7.07-17.29-20.27-31.06-31.92-45.28a232.13,232.13,0,0,1-22.94-33.18c-6.12-10.91-15.45-18.95-21.93-29.43s-15.79-19.23-21.11-30.65c-.55-1.17-1-2.83-2.62-2.22-.52.2-.84,2.15-.57,3.1,1.65,5.79,2.51,12.11,5.48,17.17,6.25,10.66,12.53,21.69,20.82,30.7,12.9,14,22.4,30.31,33.45,45.54,3.93,5.41,9,11,9.86,18.25.37,3.12,1.73,5.52,3,8.14,4.1,8.09,8.52,16.06,12,24.43,3.2,7.79,4.56,16.28,6.81,24.35,3.18,11.43,5.6,22.86,6,34.51.55,14.32-2.93,28.21-7.21,41.9-5.24,16.72-10.86,33.1-24.16,45.5-.7.65-1.3,2.54-.94,3,1.15,1.3,2.21.07,3.35-.66,7-4.48,13.53-9.72,20.29-14.57,9.69-6.94,16.69-15.89,23.12-25.62,2.87-4.33.61-9.14,2.18-13.46C336.28,315.34,336.25,304.8,337.47,293.52ZM212.76,143.63c-1.78,6.32-3.78,12.58-5.31,19-3.49,14.59-11,27.57-17.7,40.6-7,13.56-14.92,26.85-21.76,40.46-10.34,20.55-17.59,42.63-20.38,65.7-1.86,15.49-2.63,30.86,2.62,46.39,3.92,11.6,8.55,21.73,19,28.54.95.61,1.67,2.79,3,1.23a3.14,3.14,0,0,0-.3-4.12c-9-8.26-13.62-19.22-16-30.56C151,328,153,305,158.68,282.44c4.59-18.3,15.35-33.71,24.51-49.74,6-10.48,11.12-21.43,16.67-32.09,3-5.72,6.88-12,7-19.39,0-2.34,2.07-4.78,3.54-6.93a5.37,5.37,0,0,1,5.07-2.55c2,.33,2.4,2.54,2.89,4.22,1.14,3.9,1.54,8.11,3.21,11.75,4.72,10.3,9.06,20.78,14.73,30.65,5.11,8.89,8.56,18.56,12.47,28,7.37,17.89,12.77,36,13.54,55.28.35,8.7-1.06,17.23-2.56,25.87-1.29,7.37-3.34,14.47-4.87,21.73-2,9.64-4.32,19.14-10.16,27.37-.5.7-.33,2.76.25,3.16,1.17.81,2.14-.6,2.73-1.47,4-5.78,8.55-11.28,11.52-17.55,4.8-10.11,5.21-21.51,7.84-32.25,3.33-13.57,2.83-27.32,2.7-40.78-.11-11.71-4.34-23.56-7.83-35-3.64-11.92-8.34-23.54-13-35.1-3.42-8.43-7.52-16.6-11.48-24.82C229.54,176.51,220.92,160.55,212.76,143.63Zm5.9-23.19c-.42,4,1,6.79,2.58,9.49,6.7,11.52,13.11,23.23,20.22,34.5,10.76,17.08,16.23,36.5,24.63,54.62,6.34,13.67,9.12,28.79,13.52,43.24,4.7,15.43,3.8,31.18,5.56,46.76,1.45,12.74-3.27,24.5-6.58,36.45-3.46,12.48-6.79,25-17,34.09-1.22,1.09-4,2.49-2.7,4.06,1.55,1.88,3.9-.15,5.7-1.21a11.11,11.11,0,0,0,1.81-1.7c11.64-11.31,18.37-25.41,23-40.68,3.45-11.46,4.47-23.4,6.7-35.05,2.4-12.61.07-24.68-.4-36.84-.32-8.26-.89-16.94-3.17-25.21-2.73-9.87-8.92-18.21-12-27.82-5.22-16-14.28-30-23.76-43.47-6.72-9.56-12.15-19.92-19.26-29.18C231.72,135.07,226.17,127.53,218.66,120.44ZM200.1,139.66c-5.28,8.82-10.06,16.53-14.54,24.41-2.07,3.64-3,7.46-.62,11.65,1.61,2.79-.41,3.72-3.06,3.87-2.17.13-5-1.1-6.25,1.68-3.68,8-9.24,14.73-13.82,22.09-7.56,12.11-16.59,23.3-22.8,36.26-2.61,5.43-6.34,10.45-8.13,16.11-3.94,12.52-7.48,25.2-9.56,38.23-1,6.59-3.72,12.94-2.42,19.85a81.19,81.19,0,0,1,1.73,12.64c.43,16.43,7.08,30.76,15.41,44.25,6.51,10.52,8.78,11.86,12.31,12.93,0-.15.18-.37.12-.44C131.67,364,131.29,340.26,131,316.9c-.13-9.6,2.49-19.45,5.13-28.83a213.44,213.44,0,0,1,18.8-46.13c9.41-16.93,18.47-34,26.73-51.55C189.16,174.44,197.37,158.78,200.1,139.66ZM183.41,416a16.9,16.9,0,0,0,9.42-1c12.14-4.41,24.83-5.16,37.49-4.63,9.82.41,19.8-.16,29.51,2.57,2.2.61,6,1.62,7.21-1,1.42-3-.23-6.06-2.22-9.07-4-6.16-11-8.41-16.07-13.26a22.16,22.16,0,0,0-9.59-5.13c-8.53-1.87-17.57-3.85-26-2.84a143.74,143.74,0,0,0-22,4.9c-9.27,2.64-18.14,5.08-26.34,10.42-9.85,6.4-11.44,17-2.8,22.16,1.43.87,2.88,1.53,4.1.66C171.44,416,177.73,417.19,183.41,416ZM215.05,63.92c2.3,4.37,3.43,7.67,5.48,10.24,10.53,13.28,19.25,27.87,30.38,40.75,9.92,11.47,19.08,23.7,25.55,37.55,3.84,8.23,11.4,13.12,16.49,20.18,3.92,5.44,7.08,11.31,11.89,16.27,9.61,9.93,15.66,22.35,21.38,34.81,3.93,8.58,6.6,17.56,9.27,26.65,5.18,17.7,10.31,35.19,7.57,53.88-1.38,9.46-2.05,19.19-4.89,28.22-5.9,18.79-19.37,32-34.39,44.1-5.81,4.67-12.79,6.74-18.85,10.78-4.27,2.84-9.6,6.08-15.62,5.25-1-.13-1.89-.79-2.65.21a1.72,1.72,0,0,0-.16,1.39c.57,1.52,2,1.1,3,.9,4.78-.94,9.68-1.64,14.25-3.23,9.91-3.44,18-10.15,27-15.28,12.31-7,20.93-16.9,27.33-29.11,1-2,2.62-3.42,3.37-5.84,4.38-14.29,6.39-28.85,8.14-43.69,2.25-19.07-3.78-36-9.43-53.35-1.66-5.1-5.15-9.85-5.77-15-1.28-10.73-6.9-19.47-12.17-28.06-4.22-6.89-8.11-14.12-14-20.38A183,183,0,0,1,293,161.58c-5.58-8-12-15.16-18-22.79-6.64-8.54-12.33-18-19.94-25.55-10.43-10.33-18.83-22.12-27.65-33.66C223.72,74.72,222.24,68.17,215.05,63.92ZM216,370.23a7.29,7.29,0,0,0,4.43-5.25c2-6.19,3.46-12.75,5.92-18.51,4.32-10.07,4.48-20.38,5-30.7.68-13-4.25-25.37-5.4-38.23a78.3,78.3,0,0,0-2.86-13.33c-2.59-9.54-8.65-17.86-9.45-28-.19-2.32-.27-5.4-3.1-7.45C209.61,276.15,214.73,322.83,216,370.23Zm-27.46-23.89c-1.07,11.52,7.64,19.38,11,29.24.87,2.56,2.43.47,2.7-.76.84-4,.95-8.15,2.12-12,2.56-8.4.15-16.82.63-25.23.27-4.58-2.06-9.28,2-13.44a3.08,3.08,0,0,0-.53-4.77c-2-1.18-1.62-2.92-2-4.67-2.35-11.09.58-22.28-.82-33.39-.36-2.83-.28-7.08-2.58-7.45s-3.93,3.65-5.36,6.14c-.16.27-.09.67-.22,1-5.82,12.14-7.17,25.37-8.7,38.43-.65,5.51-3.1,11.39-.09,16.94A16.93,16.93,0,0,1,188.52,346.34Zm92.82,27.52c4.86-6.73,9.83-11.47,12.9-17.61,7.6-15.17,11.77-31.48,14.86-48,1.73-9.24,3-18.78,1.18-28.32-1.71-9.1-3.82-18.13-5.65-27.17-2.87-14.2-9.08-26.75-15-39.66-2.28-5-5.61-9.48-7.3-14.72-2.91-9-7.82-17-13.41-24.41a198.51,198.51,0,0,1-12.24-17.62,85.61,85.61,0,0,0-17.07-20.46c3.78,9.81,9.33,16.16,13.88,22.93,6.17,9.2,12.41,18.34,18.22,27.76,4.09,6.64,6.89,13.86,10,21,5.36,12.51,11.33,24.52,15.17,37.85,4,13.81,4.25,27.86,5.71,41.65,1.36,12.91-1.28,26.53-3.87,39.5-2.36,11.82-5.36,23.66-11.91,34.39C284.84,364.25,281.61,367.69,281.34,373.86ZM169.58,347.5c.36,4,.64,8.07,2.57,11.82,3.26,6.36,6.25,12.85,9.57,19.18.74,1.43.45,4.81,3.47,3.54,2.71-1.15,1.36-3.51.47-5.43a10.92,10.92,0,0,0-1.59-3c-7.65-8.11-9.34-18.79-10.11-28.83-1.34-17.72,2.11-35.09,7.28-52.22,3.41-11.26,8-21.52,15.25-30.75,3.09-3.94,6.8-8.26,7.65-12.88,1.49-8-.46-16.49,1.36-24.68.18-.82.44-2.22-.89-2.44-.57-.09-1.53.61-1.93,1.21-2.43,3.68-5.2,7.23-7,11.21-8,17.42-17.93,33.9-22.38,53-2.49,10.64-3.27,21.29-4.78,31.95C167.14,328.71,170,338,169.58,347.5Zm51-206.25c2.46,7.11,3.88,14.89,7.52,21.2A377.62,377.62,0,0,1,257.28,225c4.48,12.57,9.43,25,12.22,38.1,2.14,10,5.85,19.8,5.71,30.23A277.34,277.34,0,0,1,270,342.2c-2.14,11-4.3,22.57-13,31.18-1.29,1.26-3,3.48-1.93,6.64,7-7.32,12.53-14.93,15.36-24.5,4.55-15.39,9.91-30.52,9.11-47-.72-14.91.32-29.7-4.73-44.44-4.41-12.89-6.44-26.62-12.22-39.17C255,208.53,249.34,191.38,241,175.27,235,163.5,226.76,153.12,220.62,141.25ZM209.53,478.41c.13-7.26-7.48-17.78-12.89-19.17-1.12-.29-2.72-.79-3.11,1.27a53.93,53.93,0,0,1-11.3,24.43,5.84,5.84,0,0,0-.58,5.73c3.66,9.49,6.85,19.21,12.1,28,1.11,1.86,1.95,5,4.8,4,2.42-.86,2-3.8,1.95-6.09a67.79,67.79,0,0,1,6.39-30.36A65.78,65.78,0,0,0,209.53,478.41ZM121,196.84l-1.48-1c-5.59,7.58-11.7,14.85-16.66,22.84-6.74,10.86-11.73,22.64-16.55,34.52a172.24,172.24,0,0,0-9.77,32.13c-3.86,19.83,0,38.62,5.5,57.38,3.34,11.48,11.25,20.52,16.92,30.75,2.52,4.53,6.88,7.8,11.26,10.75,1,.69,2.14,1.52,3.06.51,1.16-1.27-.52-2.06-1.18-2.77-2.2-2.38-4.94-4.33-6.84-6.92C94.85,360.94,85.66,346,82.7,328.48c-1.41-8.39-3.07-17-2-25.71.87-6.8,1.87-13.56,2.92-20.33A126.77,126.77,0,0,1,93.87,248c6.4-13.69,14-26.8,21.13-40.16C117,204.16,119,200.51,121,196.84Zm97.69,22.22a13.79,13.79,0,0,0-.12,3.13,247.61,247.61,0,0,0,13,45.51,127.09,127.09,0,0,1,8.88,43c.34,9.76-2.07,19.15-3.74,28.69a157.37,157.37,0,0,1-9.51,32.51c-.79,1.93-4.56,3.74-2.16,5.54,1.72,1.29,4.43-1.56,6.2-3.4.79-.82,2.23-2,2-2.63-1.59-5.9,3.5-9.42,5.06-14.16,5.16-15.59,7.29-31.67,7.82-47.79.48-15-4.57-29.57-7.56-44.27C235.14,248.44,225.39,234.5,218.65,219.06ZM213,181.16c-2.13,2-3.5,4.39-2.12,7.12,6,11.83,10.93,24.26,17.24,35.81a181.06,181.06,0,0,1,16.06,40c4.05,15,7,30.29,7.08,45.94,0,3.44-.76,6.88-.82,10.32-.31,16.63-4.91,32.34-9.94,48-1,3.05-4.6,5.4-2.41,9.83,1.89-3.2,4.2-5.9,5.2-9,4.43-13.77,8.76-27.58,11.24-41.9,3.13-18.07,2-35.83-2.06-53.66-3-13.28-8.67-25.66-14-37.9C230.56,217.36,220.22,200,213,181.16Zm-8.67-113c-1.78,4.83-3.07,9.91-5.43,14.43-7.38,14.21-15.2,28.11-25.31,40.71-6.4,8-10.41,18-17.2,25.52-7.76,8.63-15.55,17.22-22.82,26.28A101.79,101.79,0,0,0,121,195.61c4-3.13,6.74-7.08,9.61-11.16,8.49-12,21.39-20.26,29.08-33.22,3.65-6.14,9.06-11.2,13-17.21,6.6-10.12,12.46-20.73,19-30.9C198.57,92.38,204.9,81.52,204.32,68.17ZM168.49,426.9c-5.2,1.85-8.29,5.32-9,10.87-.61,5-.66,10.35-2.47,14.94-3.89,9.83-2.82,19.12.37,28.76,1.6,4.84,5.38,8.62,6.1,13.78.41,2.92-.95,8.37,2.08,8,3.55-.44,1.66-5.87,2-9.16a3.18,3.18,0,0,0-.22-1.46c-4.77-12.19-1.92-25.28-4.47-37.85A35.74,35.74,0,0,1,168.49,426.9Zm55.66-11.65c-4.31,8.25-3.7,11.11-1.66,24.48,1.33,8.77,5.82,17.66,1.14,26.93-.75,1.5-1.64,5.13,1,6.1,2.45.91,2.28-2.56,3.51-3.88,1.56-1.67,2.82-3.61,4.31-5.35a8.55,8.55,0,0,0,1.47-9.27,15.27,15.27,0,0,1-1.43-8.62C234.21,434.66,225.16,427.19,224.15,415.25Zm-47.56,54.52,2.26.16a12.2,12.2,0,0,0,1.8-4.37c1.41-4.93.89-10.32,2.46-14.93,2.82-8.32,2.95-16.73,3.42-25.22.13-2.39-.24-4.63-3.32-4.2-2.56.36-6.45-.17-6.51,3.64C176.44,439.82,176.59,454.8,176.59,469.77Zm35.88-24.9c2.14-6.71-4.68-12.63-4.07-20.05.17-2,1.22-5.33-2.31-5.5-3.11-.15-5.23,2.17-5.49,5.26-.7,8.45.87,16.64,3.48,24.65,1.21,3.7,4.9,4,7.54,4.27,1.52.13.52-3.68.83-5.68A25.59,25.59,0,0,0,212.47,444.87Zm26.18,28.45c-5,5.2-11.22,8.38-7.18,15.63a33,33,0,0,1,3.91,18.49c-.19,3.47,0,7,0,10.44,0,1,.12,2.06,1.52,2s1.54-1.08,1.47-2.09a96.94,96.94,0,0,1,2-24.91C241.63,486.71,237.53,481.1,238.65,473.32Zm-25.34,10.89a10.56,10.56,0,0,0-1.59,2.24c-5.53,17.09-7.92,34.67-8.23,52.57,0,1.33-1.1,3.89,1.71,3.68,2.17-.17,1.28-2.4,1.23-3.66-.41-10.09,2-19.77,3.61-29.61C211.34,501.27,214.27,493.24,213.31,484.21Zm-25.6-22.55c2-2.94,3.17-5.43,3-8.56-.06-1.26,1.06-3.65,1.75-3.7,7-.43,3.41-5.18,3.55-8.3.28-6.14-2.92-12.14-.77-18.4.36-1.05.41-3.24.15-3.31-2-.56-3.22,1.05-3.64,2.49-.54,1.84-.2,3.93-.32,5.91-.37,6.39,1.54,13.15-1.47,19.06C187.58,451.58,187.28,456.2,187.71,461.66ZM250,432.91c-3.26-4.3-3.62-9.86-7.22-13.87a3.14,3.14,0,0,0-3.19-.83c-1.39.25-1.34,1.54-1.06,2.35,2.42,7,2.2,14.67,5.34,21.48a10.42,10.42,0,0,0,1.43,1.85c.51-.55,1.29-1,1.49-1.66C247.71,439.19,247.45,435.8,250,432.91Zm-95.05-1.49c-6.61,7.15-6.88,16.5-9.22,25.09-.47,1.73-.87,4.68,1.47,5.16s2.34-2.63,3.24-4.18C155.1,449.4,149.94,439.57,154.91,431.42ZM240.49,456c0,6.7,1.63,12.37,2.89,18.09.58,2.63-1.74,7.44,1.64,7.42,2.87,0,1.59-5.18,1.17-7.69C245.2,467.94,247.17,461,240.49,456ZM68.25,194.56c4.4-.94,8.38-3.19,12.77-2.74,1.17.12,2.16,3.29,3.57.66,1.22-2.29-1.92-5.43-2.18-5.33-4.38,1.6-5.64-1.43-7.19-4.8C77.21,189.17,69.2,189.49,68.25,194.56ZM245.51,487.3c-.84,9.57-3.24,19.08-1.47,30.89C248,506.68,245.64,496.92,245.51,487.3Zm10.94-63.15a23.35,23.35,0,0,1-.64-3.24c-.22-2.84-2.15-4.6-4.42-3.93s-.84,3.52-.8,5.35c0,1.16,1.22,2.26,1.65,3.47.56,1.58.3,4.34,2.49,4C257.18,429.36,256.13,426.56,256.45,424.15ZM80.65,179.55c2.23.59,1.77,5.32,4.12,3.68,5-3.49,5-.06,5.57,5.34,1.66-4.23,4.89-5.8,3.93-8.32-.56-1.48-3.94-2.45-6.18-1.61A17.72,17.72,0,0,1,80.65,179.55ZM161.07,511.2C159.73,506.12,158.48,501,157,496a2.4,2.4,0,0,0-2.69-1.73,1.34,1.34,0,0,0-.57,1.18C155.62,500.79,156.18,506.7,161.07,511.2Zm8.85,47.8c.67-6.49,1.2-11.3,1.65-16.11.08-.8,0-1.8-1.16-1.8-.56,0-1.58.39-1.61.68C168.24,547,165.82,552.33,169.92,559Zm-1.8-39.36c.06,5.57-2,11.35.95,17.22A20,20,0,0,0,168.12,519.64Zm3.06-87.92a29.54,29.54,0,0,0-1.54,19.1C171,444.51,170,438,171.18,431.72ZM80.71,196.82c-.39-1.86-1.81-1.28-2.78-1.24-3,.14-4.21,2-4.14,4.89,0,1.35.39,2.43,1.94,2C78.57,201.63,78.93,198.55,80.71,196.82Zm80.36,319.66c-2.44,2.85-1.26,6.08-1.48,9.09-.08,1.13-.09,2.45,1.68,2.28,1.38-.13,1.27-1.24,1.3-2.19C162.69,522.57,162.85,519.48,161.07,516.48Zm157.87,0c-.73,4.72-.24,9.19,2.64,15C322.85,524.85,319.41,521,318.94,516.48ZM158,388.17c-1.42,0-2.64.11-2.36,1.5.6,3,3.59,2.32,5.5,3.21,1.39.65,1.47-.93,1.35-1.82C162.11,388.15,159.3,389.12,158,388.17Zm49.05-248c-3.62,3.22-2.38,6.66-2.46,10.2C209.2,147.72,207.25,144.14,207.09,140.13ZM152.33,394c-1.36-4.75-5.59-4.83-8.71-6.55C145.73,390.5,147.79,393.54,152.33,394Zm-1.43,86.55c-.33,4.26-.87,7.37,1.1,10.11.4.56,1.32.76,2,1.12.18-.6.66-1.31.5-1.79C153.52,487.2,152.38,484.42,150.9,480.59ZM215,427.07c.54-3.17,1.07-5.86,1.44-8.56.15-1.15.08-2.46-1.7-2.27-1.42.15-1.36,1.32-1.23,2.23C213.85,421,214.36,423.57,215,427.07ZM161.74,550.34c2.4-4.36,2.67-7.63,0-12.71Zm8-93.4c.44,2.94-1.26,6.15,1,9.61A9.53,9.53,0,0,0,169.78,456.94Zm12.65-96.47c.41,2.21-.64,4.19,1.44,5.35.35.2,1.45-.12,1.52-.38C186,363.24,185.22,361.63,182.43,360.47ZM282.57,473.79c.91,2.27.14,4.77,3.11,5.15a2.18,2.18,0,0,0,1.38-.83C286.42,476.17,285,474.94,282.57,473.79ZM215.46,131.63c-.39-.45-.85-1.4-1.6-1.74-1-.44-1.52.51-1.28,1.31a3.77,3.77,0,0,0,1.52,2.17C215,133.84,215.4,132.93,215.46,131.63ZM240.41,450.9c-.41-2,.94-4.1-2.12-5.72C238.8,447.42,237.44,449.52,240.41,450.9Zm52.38,66.3c-1.11,2.16-.25,3.76,1.21,5.36C294.22,520.73,294.88,519,292.79,517.2ZM252.4,441.52c.8-1.36,3.48-2.58.25-4.58C252.55,438.71,252.47,440.11,252.4,441.52ZM214.77,98c-.65,2.34.63,3.39,1.92,4.46C216.2,101,217,99,214.77,98Zm-34.6,406c.31-2.52-1.19-3.85-2.34-5.86C177.41,500.81,178.59,502.28,180.17,504Zm111.7,10.69a2.42,2.42,0,0,0-1.2-3.52c-.24-.14-1.14.26-1.16.47C289.36,513.2,290.65,513.78,291.87,514.69ZM86.42,170c-1.25.67-2.6,1.24-2.33,3,0,.17.93.44,1.22.29A2.26,2.26,0,0,0,86.42,170ZM294.53,526.26c-.13,1.72-.87,3.3.82,4.76C297.14,529,295.51,527.8,294.53,526.26ZM174.69,478.45a16.08,16.08,0,0,0-2.5-.85,3,3,0,0,0-.57,1.45c0,.75-.17,1.82,1,1.74C173.05,480.76,173.39,480,174.69,478.45Zm-13.75,53.88c-.41,1.33-.6,2.45.29,3.36.12.13,1.08-.19,1.16-.46A2.11,2.11,0,0,0,160.94,532.33Zm42.33-405.16a23.29,23.29,0,0,0,1.59-2.55c.44-1-.42-.89-1-.91-1,0-1.44.49-1.34,1.45A14.76,14.76,0,0,0,203.27,127.17Zm47.34,320.25c2.35-1.3,1.8-2.49,1.23-4.11ZM209.5,459.34a10.23,10.23,0,0,0-2.05-1.07c-.18,0-.53.59-.8.9a7.45,7.45,0,0,0,1.5.79C208.4,460,208.77,459.7,209.5,459.34Zm8.82,10.77c-2.25,2.12-1.93,3.25-1.33,4.83C217.4,473.48,217.69,472.42,218.32,470.11Zm-57.51-45-1.32-.8a6.93,6.93,0,0,0-.78,1.5c-.05.19.43.53.66.8ZM235,469.49c.52-.46,1-.7,1.13-1.06.19-.66-.09-1.29-.91-1.12-.29.06-.6.63-.67,1S234.82,469,235,469.49ZM252.43,383l-.79-.95-1.08,1.28c.33.24.7.7,1,.65S252.09,383.35,252.43,383ZM90.71,369.61a16.26,16.26,0,0,0,0,2c.17,1,.42,2.06,1.65,1C92.51,372.47,91.56,371.11,90.71,369.61ZM240.17,136.22a2.12,2.12,0,0,0-.8-.39c-.14,0-.3.37-.45.58a4.32,4.32,0,0,0,.84.46C239.83,136.88,240,136.46,240.17,136.22ZM325.52,175c-.26-.43-.43-.69-.6-1-.18.22-.51.45-.51.67a1,1,0,0,0,.51.69C325,175.4,325.33,175.08,325.52,175ZM277.28,377.07a2.49,2.49,0,0,0,.74-.48c.06-.09-.22-.42-.35-.65l-.83.48Zm-45.09,94.12c-.2.25-.53.47-.54.71s.28.5.44.75c.18-.26.46-.5.52-.79S232.35,471.43,232.19,471.19Z"/><path class="cls-1" d="M346.81,185a15.39,15.39,0,0,1-1.63,2.92c-.67.77-1.32,2.18-2.8,1.21-.92-.6-1.58-2.17-1-2.48,2.84-1.51,2.18-5.27,4.26-6.76,5.61-4,8.11,2.54,8.91,4.81,1.54,4.42,3.2,2.57,5.27,1.51,1.14-.58,2.13-2.14,3.46-1.3,1.86,1.18-.23,2.62-.17,3.93.42,8.56-6.63,6.41-11.06,7.34-1.95.41-2.35-1.79-.65-3.4,1.13-1.07,2.94-2.67,1.85-3.86C351.7,187.16,349.2,186.32,346.81,185Z"/><path class="cls-1" d="M42.87,190.88c-.06-3.29,1.11-5.09,3.9-5.27,3.24-.22,2.08,2.41,2,3.88-.08,1.95.8,2.89,2.26,3.87a3.56,3.56,0,0,1,1.24,5.16c-.7,1.21-.94,3-2.89,2.93-2.39-.08-3.11-2.31-3.23-3.79C45.94,194.69,41.41,193.83,42.87,190.88Z"/><path class="cls-1" d="M371.91,199.31c1.57,8.47-6.9,3.12-8.68,7-.17.37-1.89.08-1.94-1.39s6.95-10.25,8.39-10.23C374,194.73,371.18,198.13,371.91,199.31Z"/><path class="cls-1" d="M326.25,186.58c-.23-2.21-.2-4.64,1.88-5.72,1.88-1,4,.22,5.31,1.7s2.23,3.57,1.21,5.93c-2,4.65-5.15-.19-7.52,1l.07.06c.85-1.42,0-2.27-1-3.09Z"/><path class="cls-1" d="M361.07,233.45c-2.45.05-5.17.16-5.59-2.3-.46-2.7,2.4-1.16,3.66-1.79.28-.13.65-.28.77-.52,1.18-2.51,2.65-4.18,5.61-2.22a3.17,3.17,0,0,1,1.34,3.91C365.85,233.41,363.43,233.77,361.07,233.45Z"/><path class="cls-1" d="M35.51,181.59c2.36-.28,4.63-.16,6,2.29a2.06,2.06,0,0,1-.29,2.72c-1.93,1.69-4,1-6,.07-.28-.13-.67,0-1-.17-1.69-.78-5.18,1.63-5-1.83S32.74,181.37,35.51,181.59Z"/><path class="cls-1" d="M353.09,215.4c-1.42,1.5-.22,5.22-3.62,4.83a4.72,4.72,0,0,1-4.23-4.63,4.4,4.4,0,0,1,4-4.7C351,210.87,352.68,213,353.09,215.4Z"/><path class="cls-1" d="M387.13,211.23c-.85,1.65,1.17,4.9-1.65,4.85-3.73-.06-3.91-3.94-4.21-6.73-.2-1.82.4-4,3.25-3.8C389,205.91,386,209.42,387.13,211.23Z"/><path class="cls-1" d="M390.17,185.38c-2.19.31-3.28-.2-3.89-1.22-1.64-2.71.43-6.72-3-8.84.55-.55,1-1.37,1.67-1.6,1.23-.44,2.87.36,2.71,1.32-.55,3.36,2.05,4.46,3.67,6.44C393.06,183.64,391.63,185,390.17,185.38Z"/><path class="cls-1" d="M340.06,191.69c1.37.32,3.36.95,3,3.85-.3,2.41-1.54,4.28-4.07,3.79-2.24-.44-4.11-1.75-3.78-4.8C335.49,191.8,337,191.32,340.06,191.69Z"/><path class="cls-1" d="M32.93,192.6c0,3-1.24,4.17-3.09,3.74-2.61-.61-5.44-1.48-5.75-4.88-.22-2.41,1.75-1.87,3.1-1.89C30,189.54,32.15,190.53,32.93,192.6Z"/><path class="cls-1" d="M42.92,202c-.6,1.87-1.63,3.59-3.7,3.3-1.62-.24-4-.73-4-2.9a4,4,0,0,1,3.93-3.71C41.27,198.52,42.26,200.16,42.92,202Z"/><path class="cls-1" d="M371,221.65c-.14,1.79-1,2.95-2.49,2.63-2.4-.5-4.93-1.4-5.21-4.36-.17-1.78,1.25-2.58,3-2.41C368.9,217.78,370,219.78,371,221.65Z"/><path class="cls-1" d="M351.54,202.59c2.26-.47,3.15,1.25,3.37,3.06a3.22,3.22,0,0,1-3.17,3.69c-2.22.07-3.5-1.57-3.56-3.87C348.12,203.34,349.39,202.57,351.54,202.59Z"/><path class="cls-1" d="M34.91,236.51c2.1.58,4.51,1.22,4.87,4.2.18,1.49-.78,2.9-2.26,2.59a7.13,7.13,0,0,1-5.32-5.2C31.72,236.4,33.51,236.68,34.91,236.51Z"/><path class="cls-1" d="M18.44,186.28c-1.63-1.19-3-.81-4.38.55-.74.74-1.92,1.12-2.58.23a3.82,3.82,0,0,1-.3-2.77c.21-1,1.36-2,2.17-1.42,1.92,1.33,3.44-.05,5.13-.24s3.3.21,3.09,2.15C21.42,186.21,19.94,186.71,18.44,186.28Z"/><path class="cls-1" d="M23.89,214.77c-.28,1.9-1.37,3.51-3,3.35-1.83-.19-2.92-1.83-2.85-4,.06-1.77.29-3.51,2.46-3.49C23.06,210.7,23,213.2,23.89,214.77Z"/><path class="cls-1" d="M32.8,250.21c.26,2-.82,2.08-2.1,2.16-3,.2-4.62-1.68-5.6-4-.63-1.5.78-1.77,2.07-1.86C30.17,246.3,31.53,248.33,32.8,250.21Z"/><path class="cls-1" d="M40.55,258.52c1.69.83,4.07.83,4.34,3.69a2.57,2.57,0,0,1-2.55,2.9c-2.31,0-3.68-1.92-4.21-4C37.75,259.59,38.91,258.76,40.55,258.52Z"/><path class="cls-1" d="M387,190.84c-.19,1.93-1.2,2.75-3,2.65a3.88,3.88,0,0,1-3.89-3.65c-.27-1.65.47-2.33,2.19-2.35A4.41,4.41,0,0,1,387,190.84Z"/><path class="cls-1" d="M56.82,223.9c.27,2-.7,2.57-2.55,2.53-2.16-.05-3.47-.76-3.38-3.14.08-2.16,1.38-2.8,3.27-2.69C56.24,220.72,57,221.94,56.82,223.9Z"/><path class="cls-1" d="M48.3,204.66c1.4,1.38,4.27.91,4.54,3.79a2.53,2.53,0,0,1-2.71,2.79c-2.58,0-3.25-2.51-3.94-4.42C45.75,205.61,46.91,204.8,48.3,204.66Z"/><path class="cls-1" d="M47.72,215.66c.1,1.69-.13,2.68-1.75,2.71-2.57,0-4-1.79-4.78-3.64-.59-1.39,1.07-2.13,2.52-2.14A3.77,3.77,0,0,1,47.72,215.66Z"/><path class="cls-1" d="M15.85,219.61c2.39-.24,3.17.29,3.08,1.83a3.9,3.9,0,0,1-3.59,4c-1.6.27-2.53-.36-2.36-2.17A4.1,4.1,0,0,1,15.85,219.61Z"/><path class="cls-1" d="M31.6,205.53c1.73,0,3.17.5,3,2.07a4.18,4.18,0,0,1-3.48,3.62c-1.53.28-2.15-1.13-2.19-2.6C28.9,206.61,29.87,205.58,31.6,205.53Z"/><path class="cls-1" d="M52.19,230.53a2.62,2.62,0,0,1,2.69,2.93c.06,2-1.14,2-2.56,2-1.8,0-3.46-.45-3.32-2.64C49.12,231,51.07,231.14,52.19,230.53Z"/><path class="cls-1" d="M19,234.14c-.16,2.2-1,3.41-2.74,3.18s-2-2-2.12-3.31.75-2.78,2.28-2.27C17.52,232.11,19.55,232.45,19,234.14Z"/><path class="cls-1" d="M373.66,247.47c2-.1,3.11.64,3.29,2.42.16,1.53-.35,2.53-2.13,2.43a2.53,2.53,0,0,1-2.73-2.73C372.05,248.28,372.31,247.27,373.66,247.47Z"/><path class="cls-1" d="M39.06,229.47c2.5-.15,2.84,2,3.43,3.55s-1,1.29-1.85,1.34c-2.43.11-2.88-2-3.45-3.54S38.18,229.6,39.06,229.47Z"/><path class="cls-1" d="M23.73,256.08a2,2,0,0,1-2.09,2.16c-1.79.08-2.61-.95-2.69-2.7-.06-1.36.35-2,1.88-2.16C23,253.18,23,254.93,23.73,256.08Z"/><path class="cls-1" d="M379,244.23c-1.25-.32-1.73-1.35-1.76-2.83s.79-2,2.14-1.89,2.78.72,2.38,2.29C381.45,242.81,381.07,244.5,379,244.23Z"/><path class="cls-1" d="M44.83,222.47c.09,1.29-.44,2.55-1.66,2.64a2.78,2.78,0,0,1-3-2.7c-.09-1.29,1.18-1.79,2.46-1.85S45,220.86,44.83,222.47Z"/><path class="cls-1" d="M67.66,207.57c-.63,1.39-1.48,2.56-3.09,2.76s-1.72-1.08-1.67-2.24a2.36,2.36,0,0,1,2.4-2.52A2.21,2.21,0,0,1,67.66,207.57Z"/><path class="cls-1" d="M7.12,247.14c2.38.21,3.93,1,3.79,3.57-.09,1.76-1.43,1.88-2.44,1.5C5.79,251.2,7.39,249,7.12,247.14Z"/><path class="cls-1" d="M369.15,256.62a2.17,2.17,0,0,1,1.78,2.18c.06,1.25-.53,2.42-1.79,2.41-1.6,0-1.92-1.41-1.93-2.79C367.2,257.35,367.46,256.48,369.15,256.62Z"/><path class="cls-1" d="M361,180.31c-.49,1.53-1.29,2.23-2.59,2.1a2.16,2.16,0,0,1-2.18-2.14c-.11-1.74,1.18-1.59,2.31-1.62C359.92,178.61,360.45,179.55,361,180.31Z"/><path class="cls-1" d="M48.82,240c0,1.46-1.09,1.39-2.1,1.44-1.67.08-1.86-1-1.82-2.26s.61-1.85,1.86-1.6A2.38,2.38,0,0,1,48.82,240Z"/><path class="cls-1" d="M7.33,196c-.2-1.27-1-2.66.86-3.25.39-.12,1.3.16,1.33.36C9.8,194.75,8.69,195.44,7.33,196Z"/><path class="cls-1" d="M21,200.17c-.14,1.83-.66,2.42-1.62,2.15-.46-.13-.77-.77-1.15-1.17A6.67,6.67,0,0,1,20,199.73C20.35,199.6,21,200.18,21,200.17Z"/><path class="cls-1" d="M238.15,396.74c5.56-1.28,8.25.55,8.88,4.22.36,2.06-2,3.68-4.08,3-3.36-1.09-8.75.21-9.22-5C233.34,394.71,237.6,397,238.15,396.74Z"/><path class="cls-1" d="M221.82,387.4c4.77-.41,5.56,1,5.56,3.42,0,3.11-2.24,4.06-4.46,4.16-2,.1-3.46-1.2-3.42-3.81C219.55,388,221.5,387.44,221.82,387.4Z"/><path class="cls-1" d="M199.53,391.17c2.16.19,3.79,1.49,3.71,3.29-.12,2.82-2.42,4.75-4.89,5.41s-2.54-1.63-2.8-3.52C195.1,393.08,197.34,392.2,199.53,391.17Z"/><path class="cls-1" d="M181.39,402.08c.13,1.52-.71,2-2.06,2s-2.68.21-2.71-1.8c0-1.48.67-2,2.06-2S181.43,400.07,181.39,402.08Z"/><path class="cls-1" d="M219.28,400.13c-.33,1-.86,2-2,1.64-.41-.12-.66-1.31-.71-2-.05-.94.5-1.49,1.54-1.37S219.31,399.26,219.28,400.13Z"/></g></g></svg>