<svg xmlns="http://www.w3.org/2000/svg" viewBox="0 0 373.96 743.99"><defs><style>.cls-1{fill:#fa9435;}</style></defs><g id="Layer_2" data-name="Layer 2"><g id="Layer_1-2" data-name="Layer 1"><path class="cls-1" d="M223.36,0c4.81,4.77,6.15,11.21,5.68,17.22C227.87,32,234.21,45.53,235,60c1,18.7,1.7,37-2.92,55.62-2.66,10.74-3.85,22.09-6.78,32.95-4.88,18.14-12.18,35.27-21,51.88-6,11.43-10.06,23.84-15.3,35.63-3.31,7.44-6.39,14.52-6.54,22.68a38.5,38.5,0,0,0,.63,4.39c6-19.53,16.26-34.9,27.51-49.46,9.65-12.5,21.84-22.65,34.64-32,10.65-7.76,21.64-15.24,27.92-27.5a15,15,0,0,1,5.23-6.27c2.16-1.38,3.76-5.49,6.51-3.26,2,1.65.29,5.34-.77,7.95-4.81,11.76-10.39,23.27-14.37,35.3-4.54,13.73-8.87,27.47-14.34,40.9-4.56,11.16-11.09,20.85-18.15,30.41C224.71,276.28,207.9,290,199,310a112.55,112.55,0,0,0-9.95,42.33c-.67,17.27-.39,34.5-.39,51.74,0,5.77-1.55,13.43,6.17,16.17,9.95,3.53,19.22,9.07,30.82,7.56,8.73-1.14,17.8.58,26.72.57,17.72,0,35.42-.9,53.12-1.44,9.6-.29,19.46-.84,29.33-.05,8.63.69,18.47,3.94,27-2.22.58-.41,2.51-.14,2.71.31,2,4.5,6,3.32,9.46,3.45v10c-2.88,1-7.68-2.66-8.45,3.53,0,.12-1.73.41-2.14,0-2.8-2.51-3.62-1.35-3.35,1.73.18,2.15-.86,3.91-2.57,4.37-2.33.62-2.16-1.84-2.69-3.28-.71-1.95-1.9-2.28-3.57-1.08-1.49,1.08-2.67.77-3.8-.69s1.16-5.72-2.66-4.21c-3.16,1.26-7.9,2.64-7.56,7.35.39,5.44-2.63,11,.69,16.39.81,1.33.57,4.62-1.55,4.39-2.66-.3-5.39-2-7.58-3.75-1.72-1.37-.25-3.53,1.21-4,4.19-1.3,3.85-4.43,3-7.28-.93-3.13-3.94-1.07-6-1.46a31.16,31.16,0,0,0-5.47-.09c-2,0-4.45.25-4.16-2.74s2.37-1.5,4.08-1.32c5.56.58,11.52-5.59,11.24-11.89-5,6.26-11.06,9.58-19.05,8-2.25-.44-3.12,1.18-4,2.88-.76,1.41-.31,4.42-3,3.69-2.14-.58-1.24-3.1-1.43-4.84-.09-.88-.31-1.75-.83-4.5-1.45,4.78-2.35,7.77-3.25,10.76l.06-.07c-5.2.47-3.49-3.45-4-6.1a27.58,27.58,0,0,0-1.56-4.38,4.53,4.53,0,0,0-2.62,3.84c-.66,4-9.9,10.56-13.09,9.62-1.53-.46-3.09-.77-2.11-2.88,1.22-2.66-.44-5.08-1.87-6.18-2.39-1.83-2.71,2.9-3.09,2.53-5.05-4.87-10.61-1.44-16-1.63-1.93-.07-2.18-3.27-.47-5.38.69-.85,2.86-1.69,1.13-3-.72-.53-2.89.2-4,1-3.13,2.2-4.91,6.54-10,6.75,5.24,1.65,10.4,3.7,15.75,4.84,7,1.51,12.51,5.87,18.52,9.23,2.2,1.24,3.6,4,1.93,5.89-2.2,2.46-3.57-.88-5-2.09-7-6.07-15.23-9.42-24.58-10.89,9.94,6.31,19.73,12.89,29.86,18.88,17.54,10.39,36.58,18.66,48.8,36.24,1.19,1.72,1.9,3.32.29,4.82-2,1.86-2.95-.58-3.89-1.57-2.92-3.05-5.62-6.31-9.37-8.91,1.51,4.07,3,8.16,4.55,12.19.74,1.86,1.17,3.76-.84,4.79s-3.76-.71-4.22-2.31a86.1,86.1,0,0,1-3.17-14.22c-.61-5.34-11.65-16.23-17-16.1-2.62.07-1.76,1.21-1.32,2.85,2.55,9.37.5,18.52-1.64,27.64-.52,2.24-.72,5.18-4,4.28s-1.73-3.35-1.24-5.66c2-9.46,5.71-19-.87-28.27-1.66-2.34-3.93-3-6.38-4.13-5.54-2.66-10.23-7.12-15.23-10.89-1.69-1.28-3.13-3-5-3.94s-3.72-3.92-5.44-2.49c-2.17,1.81,1.92,2.7,2,4.53,0,1.64.54,3.93-.32,4.82-4.93,5.12-3.34,11.37-3.52,17.33-.05,1.71,0,3.7-2.2,3.73-2.41,0-2.84-2.26-2.64-3.94.73-5.87-1-11.62,2.31-17.73,3.42-6.27-2.84-11.8-7-15.49-5.39-4.8-11.81-10.71-20.37-5.17a1.52,1.52,0,0,1-2.45-.63c-.68-1.76.24-2.92,1.82-3.88,1.1-.67,3.57-1.21,2.33-3-1.49-2.15-2.34.57-3.33,1.24-2.76,1.87-5.67,3.07-8.64,1-3.29-2.28-5.12-.82-6.79,1.92l.06-.07c-1.26,1.46-3.09,2.72-3.68,4.42-1.09,3.17.39,9.58-6,3.17-1.09-1.09-2.43,1.86-2.26,3.2.92,7.21,1,15.12,9.39,18.34,8,3.08,12.13,10.78,19,15.16,2.84,1.8,4.72,3,6.71-.69a3,3,0,0,1,2.35-1.12c.45,0,1.36,1.32,1.24,1.85-1.17,4.94,2.28,7.18,5.51,9.37,1.4,1,1.88,2.06,1.27,3.26-.87,1.72-2.23.67-3.35,0-10.94-6.29-22-12.43-32.77-19-4-2.44-9.37-2.05-12.42-6.37-.71-1-1.61-.6-2,.75-1.91,6.16-2.34,11.52.47,18.29,3.26,7.89,6.16,15.45,12.25,21.61,7.28,7.35,16.91,9.55,26.27,11.47,10,2,20.16,2.52,29.05,8.53,2.54,1.73,6.26.77,9.57-.13,10.16-2.77,20.49-4.17,31-2.16.33.06.74-.08,1,.08,3,2,9.46,2.5,8.34,6.1-1.41,4.57-6,.21-8.81-.75-9.59-3.35-18.84.54-28.23.6-.64,0-1.28,1.23-1.92,1.89a12,12,0,0,0,2.67,1.92c11.75,4.19,23.69,7,36.34,7.24a55.36,55.36,0,0,1,24,5.53c1.62.82,3.28,1.83,2.14,3.62-.84,1.3-2.72-.17-4-.14-3.94.09-8-6.44-12.15.2-.5.8-5.29-.76-7.92-1.72-11.64-4.22-24.22-3-36.05-6.53-7-2.07-12.81-7.47-20.62-6.82-1.45-2-3-3.27-5.64-1.38a5.78,5.78,0,0,0,4.93,2.16,56.55,56.55,0,0,0,23,8.77c8.23,1.16,15.2,5.51,22.67,8.57,13.5,5.52,23.88,17.15,38.86,20,1.91.36,4.9,2.69,4.87,4.06-.05,2.54-2.5.67-4.05.74-9.34.42-28.86-3.56-36.11-10-9.09-8.05-21.51-8.15-30.87-15a2.77,2.77,0,0,0-3.93,1c-.85,1.47,0,2.17,1.21,3.11a49.87,49.87,0,0,1,5.6,5.38c.68.69,1.83,1.88,1.63,2.31-4.51,9.56,6,9.41,9.31,13.59s9.13,6,13.94,8.81c.74.43,1.85,1.95,2.7.4.64-1.16-.32-2.26-1.43-2.8-5.86-2.85-10-8.47-16.54-10.31-1.79-.51-4.38-2.53-3.46-4.78,1.05-2.57,3.62-.68,5.06.11,8.91,4.87,17.55,10.12,22.69,19.43.16.29.48.54.52.84.54,3.44,7.39,5,4.5,8.14s-6.33-2.14-9.33-3.56c-20-9.55-36.31-23.88-50.8-40.6-5-5.75-11.69-10-18-14.45,4.46,11.47,11.34,21.28,17.81,31.33,1.17,1.83,3.79,4,1.19,5.92-3.08,2.23-4-1.27-5.3-3.22-.36-.54-.53-1.42-1-1.64-15.34-7-18.27-23.7-27.26-35.63-4.79-6.37-11.85-9.36-16.89-15a14.45,14.45,0,0,0-2.87-1.86c-3-2.07-6.06-6.32-9.73-4.23-3.26,1.86-3.78,6.66-3.66,10.64.2,6.93.06,14,1.3,20.72.65,3.52,3.63,6.81,6.12,9.73,3.39,4,7.48,7.13,7,13.47-.14,1.89,3.56,4.07,5.7,6.33,1.41-2.74-.91-3.21-1.2-4.6s-1.4-2.42.32-3.39a2.41,2.41,0,0,1,3.44.93c6.57,9.4,17.6,12.1,26.31,18.11,10.74,7.41,23.54,6.45,33.9,12.39a77.79,77.79,0,0,1,23.05,19.78c.77,1,1.4,2.22.06,2.89a3.21,3.21,0,0,1-3.05-.48c-9.73-12.67-23.69-18.32-38.11-23.21-.84-.29-2.44-.68-2.54-.48a4.54,4.54,0,0,0,.5,5.11c3.94,4.62,3.65,9.36,1.21,14.62-.77,1.66-.87,3.36-3,2.55a3.14,3.14,0,0,1-1.87-4.06c.92-2.3,3.11-5.86,1.4-6.77-5.53-2.94-7-9.54-12.84-12.28-13.84-6.43-27.41-13.51-38.61-24.22-1.63-1.55-2.74-3.65-4-5.53-1.06-1.53-1.31-4.43-3.87-3.66-2,.59-2.08,3.18-2.06,5,.2,13.48,2.2,26.75,4.21,40.07.88,5.87,2.81,11.36,3.88,17.11,1.34,7.17,8.7,11.31,10.39,18.6.69,3,2.29,5.76,3.39,8.66.6,1.62,2,3.81-.35,4.72s-3.13-1.67-3.94-3.36c-2.26-4.71-4.44-9.45-6.62-14.19a2.67,2.67,0,0,0-2.63-1.86c-1.48,0-1.27,1.15-1.46,2.1-2.38,12.24-2.14,24.6-.82,36.86,1.66,15.44,3.15,30.86,2.71,46.4,0,1.69,1.19,4.29-2.25,4.44-3.93.17-2.53-2.8-2.52-4.56,0-6.92,2.39-13.94-1-20.74-3.17,3.52-3.74,4.9-4.18,9.68-.19,2.11-.14,4.79-3.22,4.46-3.51-.39-2.91-3.3-2.16-5.4a134.25,134.25,0,0,1,6.77-16.71c1.79-3.46,2.16-6.7.71-9.88-2.2-4.84.71-9.47,0-14.09-2.74-18.2.16-36.5-1.34-55-2.08.77-2.26,2.64-2.73,4.47-2.72,10.65-5.2,21.29-3,32.43.55,2.78.13,6.66-2.92,7-3.33.39-3.38-3.58-3.93-6.19a47.89,47.89,0,0,1-1-5.78c-.12-1.38-.1-3-1.54-3.32-2-.4-1.72,1.93-2.6,2.93-1.22,1.39-2.38,4.24-4.29,2.95-1.19-.8-1.5-5,.66-5.68,8.22-2.6,5.09-10.41,7.39-15.57,1.86-4.17,3.48-9.18,1.9-14.5-3.43,3.27-6.65,6.43-10,9.47-1,.85-1.67,3-3.53,1.49s-.21-3.23.64-4.27c3-3.7,5.89-7.77,9.66-10.55,5.32-3.93,4.15-9.24,3.41-13.83a197.93,197.93,0,0,1-2.78-39.55,11.93,11.93,0,0,0-.55-2.77,10.56,10.56,0,0,0-2.77,1.66,77.56,77.56,0,0,0-16.69,29.12c-1.19,3.85-3.3,7.42-5.08,11.07-.49,1-1.2,2.22-2.65,1.21-1.69-1.17-1.5-3.12-1-4.56,1.67-4.75,3.59-9.42,5.59-14.06,1.07-2.48,2.64-5.65.49-7.29s-5.67-.13-7.61,1.6c-9.07,8-18.58,15.18-23.34,27.69-2,5.34-4.51,11.8-8.74,17.1s-12.29,5.14-15.07,11.77a5,5,0,0,1-2.56-.66c-1.46-1-.23-2.26.33-3,2.29-3,4.39-6.36,7.31-8.62,6.47-5,5.09-14,10.42-19.43.39-.4-.26-1.82-.42-2.76a8.61,8.61,0,0,0-2.71.62C94,618.6,82.66,623.85,74.56,633.69c-1.43,1.73-3.74,2.84-4.62-.7-.49-1.94-1.15-2.29-2.59-1s-3.11,1.67-4.15-.23c-1.2-2.16.66-3.55,2.16-4.36,8.65-4.68,15.38-11.7,22.89-17.8,6.11-5,12.8-10.55,21.87-9.38,2.33.3,3.93-1.23,5.17-2.47,9.67-9.69,21.35-15.22,34.46-18.73,4-1.08,7.68-5,10.64-8.36,5-5.71,8.13-12.45,8.16-20.36,0-3.53-1.59-3.76-3.83-2-2.81,2.14-6,3.85-7.95,7.1-.79,1.34-2.27,2.91-4,1.1-1.22-1.28-1.25-2.68.26-4.26,3.72-3.91,6.92-8.36,12.32-10.24,2.32-.81,3.14-2.72,3.14-5,0-4.61,0-9.22,0-13.4-7.78,3.26-15.2,7.14-23.08,9.51-11.77,3.53-16.73,12.57-19.64,23-1.51,5.44-5.36,9.68-6.28,15.26a2.23,2.23,0,0,1-3.5,1.55c-2.06-1.13-1.68-3.27-1.09-4.89,2.3-6.28,4.91-12.43,7.25-18.7.69-1.86,3.51-4.12,1.7-5.46-2.13-1.58-5.24-.37-8,.73C107.2,548,103.1,556.13,97.1,562.35c-.12.11-.14.38-.26.41-16.62,5.4-13,21.34-17,33.19-.89,2.57-2.22,5.35-4.56,4.6-2.49-.79-1.45-3.81-.52-6.06,2.27-5.53.29-11.82,3-17.34.25-.53-.52-1.92-1.19-2.45-1.24-1-1.38.63-2.06,1.11-6.21,4.37-11.38,10.45-19.26,12.08-1.31.27-3.58.28-4-.44-1.08-1.8.89-2.85,2.06-4,9.08-8.6,18.55-16.74,30.93-23.47-6.52-1.65-10.25.58-14,2.44-9,4.54-18.72,7.89-26,15.57-1.35,1.44-5.15,5.72-6.4-.85,3.71.53,4.91-2.61,6.85-4.68-.54-.43-1.08-1.23-1.6-1.22-3.5.08-4.31,2.86-5.21,5.49a1.18,1.18,0,0,0,0,.49c-1.27.16-3.13-.14-3.67.57-.8,1.06.54,2,1.67,2.45s1.1,1.45.33,1.92C33.39,584,30.57,586,27.44,587c-1.81.55-3.53-.47-4.08,2.64C22.93,592,20,590.88,18.11,591c-1.05.09-1.9-.2-2.06-1.56-.24-2.09,1.54-2.5,2.55-3.68,5.63-6.66,13.62-10.35,19.81-16.33,2.31-2.24,6.11-2.85,9.07-4.49,10.11-5.61,19.84-12.05,30.34-16.79,6.61-3,14.45-2.11,21.45-5.67,13.43-6.84,27.53-12.37,41.27-18.62,6.65-3,13.58-5.3,19.49-10.1,6.14-5,10.39-16,7.48-23.1-1.17-2.89-2.61-.56-3.11.27-7.63,12.68-22,16.72-32.6,25.51-1.49,1.23-3.76,1.53-4.83-.08s.93-2.92,2.16-3.93c12.21-10,27.31-16.36,36.86-29.74.78-1.09,1.8-1.83,1.39-3.16a2.23,2.23,0,0,0-1.77-1.15,10.3,10.3,0,0,1-10.74-7.05c-1.82-5.33,1-10.28,4.66-14.34,2.27-2.51,6.64-5.93,4.91-8-2.15-2.65-4.85,2.4-7.71,3.39-12,4.16-18.46,12.4-18.25,25.53,0,2.37-.12,5.55-3.37,6.36-3.43.86-4.45-1.62-5.5-4.28-1.39-3.54-3.31-1.22-4.2.24a13.43,13.43,0,0,1-5.19,5c-1.33.73-2.89,2.71-4.08,1.19s-.08-3.68,1.54-5.09c7.57-6.6,14.94-13.47,20.88-21.58,3.63-4.95-2.93-9.77-1.36-15-3.57.16-6.1,2.46-8.16,4.84-6,6.92-9.47,15.18-11.44,24.09-.14.64.08,1.45-.23,2-1.55,2.5-2.05,7.48-5.68,6.2-3.07-1.09-.14-4.91.53-7.35,1.52-5.58,3.47-11.06,5.5-17.37-6.33,3.15-10.3,7.36-14.43,12.37-4.58,5.54-4.86,14.41-13,17.13a1.41,1.41,0,0,0-.55,1.22c7.37,12.75-5.07,20.5-7.78,30.68-.66,2.5-2.3,4.72-3.22,7.16-.63,1.68-1.7,3.69-3.15,3.11-1.79-.71-2.39-3.14-1.42-5.14,2.08-4.24,3-9.09,6.35-12.69.54-.57,1.28-1.52,1.12-2.07-2.69-9.62,2.74-18,4-27a7.8,7.8,0,0,0-.23-1.95,8.08,8.08,0,0,0-2.25.57c-6.63,4-14.07,5.83-21.24,8.47-5.76,2.12-10.69,6.65-15.73,10.47a72.81,72.81,0,0,1-7.06,5.32c-.82.48-7.43,2.74-.31,4.87a1.77,1.77,0,0,1,0,3.2c-3.85,1.31-3.89-4.94-7.82-4.44-.42.06.33-2.37,1.38-3.19,8.66-6.73,16.89-14.16,26.19-19.83,5.57-3.4,12.88-3.78,19-6.88,1.49-.77,3.88-1.46,3.42-2.71s-3-2.25-4.82-1.24c-9.57,5.5-21.36.16-30.89,6.46-1.49,1-4,.9-5.48,2.64-1.29,1.49-3.22,2.62-4.63.83s0-3.82,1.67-4.58c9.21-4.09,18.36-8.74,28.79-8.37,13.61.48,26.06-2.43,36.71-11.35,4.08-3.41,8.17-6.82,12.15-10.35a5.57,5.57,0,0,0,1.91-3.19c.15-1.73-1.58-1.24-2.62-1.35-3.74-.39-2.89-3.91-4-6-.61-1.15-.73-3.07-2.26-2.6-1.81.56-.58,2.06-.12,3.25,1.9,5-4.13,14.53-9.65,15.18-2.46.29-3.46-3.07-2.89-3.41,4.76-2.92,1.24-9.05,5-12.19,1-.78,1.24-2.22-.07-2.93s-1.76.55-2.59,1.43c-4.13,4.41-3.67,10.67-6.46,15.62-.75,1.34-.32,3.4-2.56,3.55-.72.05-2-.28-2.13-.71a6.28,6.28,0,0,1,.24-5.25c.82-1.44,3.42-2.53,1.23-4.78-2.3,3-6.83-7-8.36,1.44-.16.87-1.91,1.46-2.91,2.19-.88-1.52-1.67-2.71-1.15-4.92.76-3.24,6.19-4.14,4-8.73-6.7,4.28-4.77,13.85-11.41,18.15-1.91,1.24.54,2.07,1.39,2.49q2.76,1.38.82,3.46c-1.19,1.28-2.23,3.27-4.43,2.6-1.9-.58-1.67-1.94-.93-3.55,1.32-2.9-2.09-4.13-2.48-6.18-.45-2.3.86-4.67,3.14-6.14,2.06-1.34,1.8-3.46,1.14-5.36a2.74,2.74,0,0,0-2.3-1.35c-2.45.56-1.26,2.73-1.26,4.13,0,3.32-2.91,3.51-4.7,4.92-2,1.56-3.2.24-4.71-1-2.13-1.71-4.15-3.83-7.35-3.37-1,.14-1.65-.23-2.25-1.37s2.4-3.72-1.22-3.33c-1.51.16-1.89,1.68-1.77,3.12.18,2.12.08,4.34,3.1,4.71,2.17.25,6.42-1,5.39,2.73s-6.21,3.44-9.47,4.89c-2.82,1.26-2.3-3.52-3.15-3.92-3.91-1.85-2.73-9.76-9.68-7.8-2.63.75-5.37.27-5.12-3.89.27-4.56-2.5-3.82-4.6-1.88-6,5.49-11.2-2.84-16.88-.59-.15-.94-.65-2-.38-2.81,1.17-3.44,4.79-2.12,6.77-2.33,26.28-2.88,52.68-4.35,79.1-3.13,11.4.53,23,.89,34.23,1,13.77.13,29.22.62,40.63-10.9,2.52-2.54,4-5.34,3.68-8.75-1.6-18.19-.71-36.52-3.73-54.67-1.52-9.12-8.22-14-13.71-19.22-11.31-10.81-19.54-23.72-28.27-36.35-9.66-14-19.77-27.72-28.35-42.34-5.3-9-14.1-16.49-14.37-28.21-.09-3.64-1.39-7.89,2.73-9.68,3.72-1.61,7.79-1.78,11.28,1.9C97.23,230,107.2,234,114.42,241.59c7.75,8.17,16,15.85,24.1,23.7a90.61,90.61,0,0,1,17,22c-1.66-7.4-3.22-14.83-5-22.21-3.26-13.61-6.38-27.26-10-40.78-4.24-15.71-8.56-31.36-15.48-46.28-3-6.45-3.66-14.22-4.24-21.49-.88-11.05.53-22.43-1.47-33.21-1.88-10.14-1-20.08-1.51-30.1-.22-4.49-1.27-10.4,5.26-10.94,6.06-.49,8.28,5.41,9.28,9.86,2.38,10.63,7,20.06,12.2,29.5,3.54,6.46,8.3,12.52,9.18,20.28.08.65,1.32,1.17,2,1.75.13-.55.54-1.22.36-1.63-5.05-12-3.66-25.49-8.41-37.57-6.25-15.87-10-32.38-12.41-49.23-1.72-12.32-3.33-24.66-4.52-37-.26-2.65.6-6.41,4.17-7,4-.66,3.79,2.94,4.71,5.54.84,2.4,2.56,4.48,3.84,6.73C151,36.69,155.76,51.29,164.6,64c4.7,6.73,6.84,15.11,8.44,24.08,3.24-4.56,4.23-9.42,4.45-14.34.46-10.4,5-19.19,10.46-27.58,1.32-2,3.19-5,6.29-3.89s5.21,4.52,4.87,7.34c-1.18,9.64,4.28,18.32,3.4,27.84-.13,1.37.76,3.72,1.77,4.13,1.78.71,2.21-1.62,2.7-2.84,2.56-6.32,5.79-12.54,7-19.13.69-3.63-1.63-8.12-3.38-11.85C204.14,33.85,209.51,9.34,221.37,0Zm-64.9,155.87c.23.91.45,1.82.68,2.73.42-.16,1.09-.23,1.2-.51a2.27,2.27,0,0,0-1.12-2.9c-1.38-1.62.16-4.52-2.55-5.62A9.07,9.07,0,0,0,158.46,155.87Zm0-61.08c-2.27,2.44-3.91,5.07-2.55,8.54,4.36-1.23,1.51-5.51,3.3-7.85,2.22-2.18,3.12-4.57,1.58-7.77C158.09,89.83,158.6,92.41,158.46,94.79ZM230.71,548c4.26,3.6,10.07,4.91,13.83,9.32.45.53,1.68,1.61,2.42.34a2.65,2.65,0,0,0-.44-2.56c-4.67-3.28-8.4-8.44-15.06-7.93-.25-3.94,1.26-5.46,5.28-4.17a27.91,27.91,0,0,0,6.72,1.21c1.25.08,3.39,1,3.67-1.21.33-2.52-2-1.37-3.18-1.79-9-3.09-19.22-.69-27.82-6.34-2.06-1.36-5.54-2.69-8.61-1C213.42,542,222.8,543.73,230.71,548ZM139.22,27.31l-1.39-.79.68,1.51c.68,5.17,1.48,10.34,2,15.54,1,10.23,7.34,19.71,5.73,30-1.22,7.82,2.91,13.76,4.14,20.63.16.92,1.36,1.65,2.08,2.47.5-.57,1.24-1.06,1.47-1.72,3.14-9.15,6.85-18.2,5.29-28.68-1.56,1.44-1.7,3.89-4.18,3.42a1.8,1.8,0,0,1-1.33-2.67c2.57-6.29-.24-11.6-3.18-16.64C146.19,43,145.18,33.92,139.22,27.31ZM190.82,213c-2.26,1.07-3.58,5.48-6,3.86-2.83-1.89.06-5.27.65-8a23.53,23.53,0,0,1,1.24-3.72c6.43-16,13.77-31.58,17.39-48.57,3.22-15.09,8.09-30,9.86-45.19,1.58-13.56,2.22-27,8.78-39.32.53-1,.88-2.25-.67-2-7.43,1.3-2.43-2.69-1.83-4.44.77-2.26,2.13-4.32,3-6.57.35-.94.73-2.47-.74-3s-1.58.72-2.24,1.75c-2.76,4.29-2.5,9.44-4.33,13.94-7.91,19.53-20.54,36.77-27.22,57-4,12.11-11.28,22.93-12.51,36.22-1.88,20.22-6.41,40.17-6.73,60.58-.15,9.15.66,18.38-.24,27.44-.79,7.81,3.1,18.56-10,20.92-1.24.23-.72,2.3-.32,3.59.57,1.85,1.21,3.69,1.61,5.59,2.19,10.5,5.09,20.94,6.21,31.57.82,7.89,8.35,15.69,1,24.18-1.13,1.3-.34,4-3.57,3.76-3.05-.19-3.06-2.19-3.62-4.28-7.33-27.28-19.76-51.69-40.2-71.61Q109.52,256.19,99,245.37c-4.8-4.93-9.39-10.05-14.07-15.08-.89,1.55-.71,2.26-.37,2.89C95,252.56,105.21,272,118.12,290c11,15.3,20.27,31.72,34.56,44.55,9.67,8.7,16.37,20.07,17.57,33.09,1.42,15.32,1,30.83,1.09,46.25,0,5.71-2.42,11.12-2,17,.93,13.94.62,13.61,12.57,11.63,6.62-1.1,3.89-5.24,2.42-7.33-4.61-6.55-3.91-12.94-3.17-20.58a308.47,308.47,0,0,0,1-50.85c-1.19-17.35,1.22-33.4,8.25-49.22a137.55,137.55,0,0,1,32.5-46c11.2-10.34,21.1-22.34,26.78-36s11.15-27.53,14.26-42.28c2.1-10,7.46-19.24,11.37-28.81-5.85,13.71-20.12,18.49-30.27,27.26-3.79,3.28-7.68,5.7-9.41,10.5-.73,2-1.21,3.7-3.85,3.59-1.72-.07-2.25,1.87-2.16,2.77.24,2.25,1.59.32,2.48.35.7,0,1.81.36,2,.82s-.33,2.1-.58,2.1c-3.14.08-6.23,7.64-10.21-3.21,0,10.06,0,16.77,0,23.48,0,1.75.51,4.15-2.1,4.27-2.45.11-2.55-2.66-2.6-4-.23-5.68-.79-11.41.17-17.46a5.38,5.38,0,0,0-2.28,2.54c-4.58,9.35-4.77,19.19-3.12,29.21.22,1.34-.9,3.28,1.08,3.88s2.92-1.21,3.87-2.5c4.36-5.92,10-10.85,13.34-17.61.49-1,2.48-3.4,4.24-2.15,1.41,1,.3,3.13-.63,4.49a146.94,146.94,0,0,1-8.55,12c-5.44,6.5-11.9,12.24-16.71,19.15-5.84,8.41-10.11,17.89-15.61,26.55-5.34,8.42-8.31,17.62-11.08,27.05-1,3.47-3.24,6.63-5.19,9.76a3.37,3.37,0,0,1-3,.93c-1.44-.39-1.4-1.94-1.55-3.31-2.11-19.21-2.33-38.36.9-57.52,2.62-15.56,3.36-31.63,14.89-44.22,1.39-1.51,1.51-4.19,2.21-6.33.45-.92.89-1.85,1.34-2.77C190.85,210.29,191.77,212.63,190.82,213Zm6.26,313.12c-2.65-3.33-4.2-5.23-5.69-7.15-9.26-11.92-10.93-25.69-9.9-40.16.09-1.2.72-3.81-1.57-3.24s-6.72.87-6.12,3.39c1.78,7.38-.48,14.82,1.38,22.15,1.12,4.4,2.77,10.22.88,13.49-3.76,6.49-2,13-2.5,19.33-1.09,14,2.06,28,.06,42.06-.34,2.42-1.73,7,2.37,8,5,1.19,2.68-4.14,4.27-6.15,1.2-1.53,1.91-3.44,3.14-4.94s1.63-3.18.59-4.55c-7.82-10.35-5.08-21.75-3.36-33a26.13,26.13,0,0,1,3.05-8.62C186.83,521.16,191.5,524.14,197.08,526.14Zm-48.14-354c1.26-1.54.07-2.48-.4-3.42-2.74-5.45-2.49-11.37-2.76-17.2,0-.49,1-1.51,1.46-1.46,6.77.83,2.61-2.87,2.09-5-4.53-18.44-20-32-22.84-51.23-.15-1-.51-3-2.24-2.67-1.49.27-1.63,1.82-1.62,3.22.06,8.07-1.95,16.88,8.09,21.19a4.22,4.22,0,0,1,1.81,2.75c2.38,11.29,4,22.81,7.21,33.83C141.77,159.05,140.29,168.18,148.94,172.14Zm33.63-83.33C184.21,86,184.81,84.2,186,83c8.25-8,9.68-18,8.44-28.75-.19-1.67-.33-3.65-2-4-.79-.16-2.34,1.58-3,2.76-7.52,14.22-7.81,30.55-13,45.45-1.27,3.61-4.28,8.92-.93,10.78,4.2,2.32,6.45-3.88,9.26-6.53,2.13-2,7.24-4,4.79-7.21-1.29-1.7-3.55,3.56-5.66,5.37-1.1.94-2.24,2.81-3.68,1.61-1.87-1.55-.07-3,1.15-4,6.44-5.17,9.6-12.73,14.14-19.28a11.24,11.24,0,0,0,1-3.22c-1.58-.37-2.2.73-3.16,1.73C190.13,81.14,189.18,86.65,182.57,88.81ZM157.14,269.53c.79-26.52,3.44-53.56-18.39-74.63C144.94,220,151,244.78,157.14,269.53ZM167,473.46c10.55-.1,20.42-8.15,22.41-18.38.58-3,.15-4.7-3.87-4.84-8.78-.3-14.73,5.26-20.76,9.9-2.43,1.88-5.28,6.21-4,10.4C161.56,473.11,164.43,473.55,167,473.46Zm-3.78-255.15c2.73-18.91,8.19-35.82.45-53-.77-1.7-.71-4.05-3.12-3.33-2,.6-1.16,2.85-.75,4.29a67.58,67.58,0,0,1,1.76,31.13C160.42,203.61,159.85,210,163.24,218.31Zm27.28-114.7-1.25-1.08a42,42,0,0,1-4,4.64c-2.21,2-3.66,5-6.88,5.64s-6.81,9.86-4.68,12.33a2.14,2.14,0,0,0,3.68-.24C181.85,117.84,186.17,110.71,190.52,103.61Zm16.33,127.48c-2,4.42-1.58,9-4.13,12.93-.77,1.18-2.54,5.94,2.05,6.5,2.19.27,5.9,1.18,6.28.84,4-3.61-3.2-2.29-2.51-5.13.45-1.86,0-4-.16-5.94C208.14,237.23,209.32,233.94,206.85,231.09Zm13.51-122.4a84.47,84.47,0,0,0,8.81-25.07C223.34,87.54,218.44,101.18,220.36,108.69ZM161,441.74c-2.55.68-4.39,1.84-5.58,1.37-6.57-2.6-8,4.34-12.09,6.29-1.45.69-.14,2.56,1,1.9C149.58,448.2,157.4,449.44,161,441.74ZM97.51,236.83c5.54,5.59,11.06,11.2,16.68,16.7a2.81,2.81,0,0,0,2.57.3c1.17-.59.11-1.32-.31-1.93A43.07,43.07,0,0,0,97.51,236.83ZM212.36,142c5.75-4.71,11.12-9.82,11-19.18C219.39,129.81,215.87,135.91,212.36,142ZM186.47,268.88c0,5-.09,10,.06,15,0,1.31-1.18,3.89,1.72,3.58a2.83,2.83,0,0,0,2.06-3.8C187.36,279,189.18,273.7,186.47,268.88ZM127.25,141.8c-1.58,8.92,2.61,12.74,7.05,17C135.29,152,129.35,149,127.25,141.8ZM311.41,582.68l-16.36-9.88C299.53,577.67,304,582.51,311.41,582.68ZM209.28,158.74c1-1.17,2-2.27,2.87-3.46,3.23-4.27,4.06-9.61,2-8.6-4.53,2.21-4.53,7-5.55,11.22C208.54,158.07,209,158.36,209.28,158.74Zm-12.17,98.82a111.15,111.15,0,0,0,1.12,11.75c.1.57,1.7-.77,2.23-1.81C202.38,263.76,202,260.63,197.11,257.56Zm14.47-95.34c-4.31,4.28-7.8,6.84-7,12.23C208.67,172.09,210.51,168.59,211.58,162.22Zm2.6-137c1-1.27,1.31-2,1.83-2.23,3.5-1.68,1.85-6,4.19-8.19-.54-.25-1.3-.86-1.59-.69-2.62,1.57-2.77,4.57-3.82,7C214.43,22,214.49,23,214.18,25.21Zm-86.1,242.17c-.17-3.15-.29-6.27-2.86-8.37-1-.82-2.17.28-2.24,1.08C122.67,263.72,126.34,264.89,128.08,267.38Zm60.33,157c1,3.42,4.08,1,5.42,2.85.78,1.1,1.8,2.55,3.59,2a1.93,1.93,0,0,0,.68-1.35c-1.17-1.08-2.32-2.45-3.74-2.93C192.62,424.41,190.62,424.6,188.41,424.42Zm98.43,145.75c-3.81-3.46-7-5-12.19-4.71C278.66,568,281.51,570.29,286.84,570.17ZM136.13,173.73l-7.57-11.12C128.65,168.49,130.44,171.09,136.13,173.73Zm79.7-48.94c1.58-1.1,2.58-1.45,3-2.16,1.07-1.73,4.45-4.45,1.69-5.3C218,116.54,217.33,121.22,215.83,124.79ZM92.28,551.46c-2.56,0-5.15-1.34-7.15,1.18-.17.22.29,1.4.5,1.41C88.11,554.2,90.93,555.08,92.28,551.46ZM182,617.35c.62-3.44.93-6.06-.83-8.42-.09-.13-1.24.18-1.35.49C178.82,612.29,180.3,614.47,182,617.35Zm-43.23-339c-1.26-2.32-.4-5.9-3.86-7.21C133.6,274.72,135.72,276.68,138.81,278.32ZM214.2,34.78c1.64-2.22,2.84-3.67,3.83-5.24.61-.95-.07-1.54-1-1.54-2.63,0-2.68,2.42-3.49,4C213.29,32.48,213.8,33.31,214.2,34.78Zm-89.75,85.07c1,2.86,1.69,5,4.07,5.82.21.07,1-.6.93-.73C128.7,122.73,127.94,120.48,124.45,119.85ZM164.3,516.93c-1.93,3-5.17,2.83-5.51,5.79,0,.11,1.28.68,1.68.47C162.46,522.16,164.43,521,164.3,516.93Zm-13.76-326c-.61-1.08-.47-2.94-2.36-3.08a2.07,2.07,0,0,0-1.5,1.34c-.15,1.72,1.19,2.69,2.51,3.3C150.25,193,150.46,191.94,150.54,190.93ZM86,436.88c-.12,1.9-1.1,3.84.71,5.33a2.24,2.24,0,0,0,1.86-.76C89.1,439.29,88.34,437.67,86,436.88Zm42.28-300.11c1.1-.15,1.62-.73,1-1.62a37.56,37.56,0,0,0-2.6-3.18c-.31.62-1,1.43-.85,1.82C126.34,135,126.32,136.79,128.23,136.77Zm16.84,148.62c-.62,2.11-1,3.75,1,4.91a1.3,1.3,0,0,0,1.18-.3C147.93,288,146.89,286.77,145.07,285.39Zm21.22-183.54c1.6-1.06,2.43-2.39,2-4.29-.06-.23-1.05-.47-1.09-.4C166.33,98.55,164.61,99.8,166.29,101.85Zm56.35-48.52,2.53-5.76c-.43-.16-1-.57-1.25-.42C221.76,48.38,222.37,50.39,222.64,53.33ZM89.16,560.15,85.85,563c.39.4.75,1.08,1.18,1.13A2.19,2.19,0,0,0,89.66,562C89.72,561.54,89.43,561.07,89.16,560.15Zm48.13-122.06a4.79,4.79,0,0,0,5-2.31C139.86,434.94,138.19,435.42,137.29,438.09Zm60-240.59c-2.21,2.42-4.32,3-3.36,5.54C196,202.31,196.59,200.83,197.27,197.5Zm-45-13.79c-.27.25-1,.6-.94.94a2.43,2.43,0,0,0,1.95,2.42c.94.31,1.09,0,1.16-.72C154.61,185,153.77,184.28,152.3,183.71Zm-6.54-3.55c1.09,1.23,1.68,2.75,3.53,2.42.19,0,.41-1.07.27-1.53C148.91,178.92,147.4,179.83,145.76,180.16ZM121.85,441.71l5.64-3.3C122.91,438.47,121.53,439,121.85,441.71Zm71.68-237.24-.81-1-1.1,1.31c.34.24.71.7,1,.66S193.18,204.88,193.53,204.47ZM136.35,438.53c-.2.21-.57.46-.53.6s.38.49.58.74c.16-.25.41-.49.43-.74S136.54,438.75,136.35,438.53Zm-15.74,4.74a2.27,2.27,0,0,0,.74-.49c.07-.09-.22-.43-.34-.66l-.84.48ZM152,174l-.77-.47-.32.88a1.94,1.94,0,0,0,.77.21C151.86,174.55,151.93,174.18,152,174Zm-1.94-15.72c-.22-.23-.37-.54-.6-.61s-.46.16-.7.26c.16.24.27.62.47.67S149.8,158.37,150.1,158.24Zm15,359.36.86-.47c-.13-.21-.28-.62-.4-.61a1.13,1.13,0,0,0-.76.39C164.74,517,165,517.35,165.11,517.6Z"/><path class="cls-1" d="M61.6,457.94c.16,2.6-1.23,2.21-2.29,2.46-3.7.87-7.37,1.89-11.07,2.75-1.63.38-3-.16-3.3-2-.21-1.3-.25-3,1.72-2.66,3.84.74,6.51-1.66,9.43-3.2C60.24,453.08,59.73,457.72,61.6,457.94Z"/><path class="cls-1" d="M82.6,453.58c-2.09,2.49.81,7.92-4,8.27-1.76.13-7.09-.73-6.24-3.54.73-2.44,2-7.29,6.82-6.83C80.56,451.61,82.76,450.65,82.6,453.58Z"/><path class="cls-1" d="M205.35,449.43a18.3,18.3,0,0,1,3.85.06c2.51.56,6.7-2.15,7.05,2.79.24,3.51-3.46,6.05-5.69,5.49s-5.74-3-5-7.12a4,4,0,0,0-.19-1.29Z"/><path class="cls-1" d="M33.74,473.56c.09,2.63-.85,3.51-2.91,3.74-3.84.42-4.57-2.77-5.69-5.06-.79-1.61.77-2.89,2.48-2.71A7.2,7.2,0,0,1,33.74,473.56Z"/><path class="cls-1" d="M342.63,449.49c2,1.66,2.93,4.33,3.3,7.05.27,2-1.55,4.11-3.07,3.52-3.31-1.28-2.69-5.19-3.58-8C338.75,450.42,340.37,449.57,342.63,449.49Z"/><path class="cls-1" d="M339.14,494.44c0-2.62-.2-5.16,2.69-4.87,3.7.36,2.33,4,3,6.12.59,1.93-.46,3.76-2.87,3.45C338.72,498.73,339.41,495.94,339.14,494.44Z"/><path class="cls-1" d="M302.07,464.73c.3,2.69-1.73,3.68-2.91,3.35a5.09,5.09,0,0,1-3.93-5c0-1.78.39-2.69,2.43-2.74C301.11,460.28,301.28,463,302.07,464.73Z"/><path class="cls-1" d="M221.48,480.09c0-1.51,0-3.69,1.8-3.41,2.74.41,3.57,3.08,3.93,5.58.2,1.43-.38,3-2,2.76C222.6,484.65,221.53,482.65,221.48,480.09Z"/><path class="cls-1" d="M361.47,456.4c1.92.65,3.18,1.7,3.43,3.77a3.3,3.3,0,0,1-3.2,4c-2.27.22-2.3-2-2.47-3.48C359,459,359.5,457.21,361.47,456.4Z"/><path class="cls-1" d="M43.66,468.44c.21,2.52-.93,2.83-2.43,2.8-2.49,0-4-1.2-4.31-3.72-.18-1.7.64-3.19,2.4-3A5.29,5.29,0,0,1,43.66,468.44Z"/><path class="cls-1" d="M363.46,483.26c-1.84-.11-3.33.29-3.38-1.77a5,5,0,0,1,3.6-4.73c1.53-.58,3,1.28,3.06,3C366.79,482.09,365,482.93,363.46,483.26Z"/><path class="cls-1" d="M325,473.44c0,2.86-.95,3.84-3,3.8a2.46,2.46,0,0,1-2.74-2.7c-.06-2.11,1.1-3.74,3-3.74A3.12,3.12,0,0,1,325,473.44Z"/><path class="cls-1" d="M301.1,450.42c1.93.68,4.82-1.32,5.78,1.91.31,1,.35,2.76-.24,3.24a4.43,4.43,0,0,1-3.6.63c-3.12-1-1.09-3.93-1.88-5.85Z"/><path class="cls-1" d="M315.05,471.82c-.08,1.85.42,4.09-2.1,4.38-2.18.24-2.75-1.95-2.61-3.33.17-1.79.71-4.2,3.15-4.3S314.61,470.74,315.05,471.82Z"/><path class="cls-1" d="M33.9,492.33c2,.18,3.2,1.13,2.8,2.9a3.74,3.74,0,0,1-3.93,3.08c-1.52,0-3.1-.86-2.52-2.17C30.93,494.6,31.48,492.2,33.9,492.33Z"/><path class="cls-1" d="M153.54,472.86c0,2.3-.82,3.62-3.19,3.46-1.78-.12-2.85-1.07-2.55-2.82s.9-3.34,3.39-3.2C153.2,470.42,153.78,471.24,153.54,472.86Z"/><path class="cls-1" d="M338.89,514.07c-.43,1.55-1.36,3.08-3.48,3.07a2,2,0,0,1-2.14-2.62,3.64,3.64,0,0,1,3.85-3C338.73,511.47,339,512.48,338.89,514.07Z"/><path class="cls-1" d="M220.4,466.9a2.71,2.71,0,0,1,3.11-2.48c1.72.05,3,.87,2.7,2.63-.24,1.44-.57,3.54-2.79,3.15A3.78,3.78,0,0,1,220.4,466.9Z"/><path class="cls-1" d="M255.12,521.4c1.51.59,2.95,1.52,3,3.38s-1.36,2.69-3,2.25c-1.51-.39-3.25-.94-2.81-3.28A2.55,2.55,0,0,1,255.12,521.4Z"/><path class="cls-1" d="M27.49,458.29c-1.63,1.25-2.62,2.52-3.84,2.82-1.75.44-2.63-.87-2.7-2.63s.71-3.14,2.49-2.82C24.69,455.89,25.75,457.11,27.49,458.29Z"/><path class="cls-1" d="M263.87,494.45c-.81-1.16-2.21-2.26-2.22-3.38,0-1.44.85-3.1,3.09-2.72,1.81.31,2.4,1.36,2.39,3C267.13,493.37,265.45,493.44,263.87,494.45Z"/><path class="cls-1" d="M111.37,489.45c1.65.59,3.2,1.51,3.17,3.61a2.07,2.07,0,0,1-2.68,2.06,3.57,3.57,0,0,1-3.09-3.28C108.65,490.27,109.74,489.58,111.37,489.45Z"/><path class="cls-1" d="M19.13,485.5c1.64,0,2.62.24,2.58,1.86-.05,2.28-2.16,2.78-3.5,3.63-1,.62-2.14-.66-2.11-2A3.57,3.57,0,0,1,19.13,485.5Z"/><path class="cls-1" d="M304.13,528.69c-.18,1.65-1.09,2.58-2.58,2.4-1.73-.21-3.21-1.35-3.05-3.13.08-.91.68-2.78,2.46-2.45A4,4,0,0,1,304.13,528.69Z"/><path class="cls-1" d="M259,498.39c1.8.39,2.23,1.69,2.13,3.31s-.8,2.59-2.39,2.53c-1.81-.07-2.5-1.3-2.46-3A2.56,2.56,0,0,1,259,498.39Z"/><path class="cls-1" d="M105.48,483.41c2.25.08,3.18,1,3.19,3.07s-1.33,1.78-2.65,1.86c-2.16.13-3-1.46-3.08-3S104.37,483.47,105.48,483.41Z"/><path class="cls-1" d="M241.58,496.28c-1.81-.35-2.25-1.64-2.15-3.27s.76-2.59,2.36-2.54c1.78.06,2.54,1.22,2.49,3A2.57,2.57,0,0,1,241.58,496.28Z"/><path class="cls-1" d="M230.16,470.38c1.74-.1,2.8.64,3,2.42.17,1.58-.44,2.28-2.13,2.48-2.18.25-3.05-1.12-3.33-2.66S228.68,470.41,230.16,470.38Z"/><path class="cls-1" d="M104.28,502.3c-1.9-.12-2.56-1.32-2.49-3,0-1.18-.57-3,1.58-2.85a3.49,3.49,0,0,1,3.21,3.19C106.79,501.21,105.75,502,104.28,502.3Z"/><path class="cls-1" d="M280.09,524.81c.11,2-.58,3.21-1.78,3.13s-2.93-.59-3-2.55c0-1.42.36-3,1.9-2.81C278.41,522.76,279.39,524.22,280.09,524.81Z"/><path class="cls-1" d="M126.25,500.32a2.51,2.51,0,0,1-2.51-2.71c-.06-1.85,1.05-2.11,2.54-2.18,1.72-.08,2.42.61,2.27,2.32A2.65,2.65,0,0,1,126.25,500.32Z"/><path class="cls-1" d="M223.16,505.24c-.36,1.74-1.74,2-3.35,1.93-1.24-.05-2.49-.17-2.11-1.88s1.63-1.94,3.07-1.85C221.89,503.51,223.25,503.23,223.16,505.24Z"/><path class="cls-1" d="M206.29,506.31c-.49,1.41-1.5,2.21-3,1.82s-1.85-1.68-1.69-3.12c.19-1.68,1.43-1.6,2.56-1.45A2.21,2.21,0,0,1,206.29,506.31Z"/><path class="cls-1" d="M118.44,502.23a2.18,2.18,0,0,1-2.55-1.94c-.25-1.84.81-2.7,2.59-2.82,1.45-.1,2.13.49,2.08,2A2.58,2.58,0,0,1,118.44,502.23Z"/><path class="cls-1" d="M324,457.47c.07,1.7-1,1.86-2.26,1.77-1.8-.14-2.46-1.22-2.49-2.94s.9-2.21,2.12-1.68S324.36,455.44,324,457.47Z"/><path class="cls-1" d="M20.79,443.59c-.8,1.07-.75,2.88-2.86,2.77-1.56-.08-2-.82-1.91-2.2s.74-2.56,2.34-2.59A2.23,2.23,0,0,1,20.79,443.59Z"/><path class="cls-1" d="M214.06,461.41c1.84.16,3.3-.15,3.12,1.67a3.2,3.2,0,0,1-2.8,3c-1.32.16-1.83-1.11-1.92-2.36C212.33,462,213,461.18,214.06,461.41Z"/><path class="cls-1" d="M342.51,479.46c1.7.38,2.54,1.24,2.32,2.78a2.13,2.13,0,0,1-2.3,2,2.26,2.26,0,0,1-2.37-2.48C340.18,480.14,341.36,479.68,342.51,479.46Z"/><path class="cls-1" d="M241.52,474.44c1.6,0,2.56.78,2.68,2.28s-.9,2.38-2.36,2.44a2.13,2.13,0,0,1-2.32-2A2.28,2.28,0,0,1,241.52,474.44Z"/><path class="cls-1" d="M289.57,472.31c-1.34,0-2.34-.12-2.23-1.5s.86-2.44,2.47-2.34c1.28.09,2.26.88,2,2.16A2,2,0,0,1,289.57,472.31Z"/><path class="cls-1" d="M134.63,459.21c-1-.23-2.16-.83-1.73-2.14a4,4,0,0,1,2.3-2.32c2-.51,1.21,1.36,1.32,2.25C136.65,458.13,136.65,459.42,134.63,459.21Z"/><path class="cls-1" d="M52.14,527c-.86.51-1.44,1.12-2,1.13a1.75,1.75,0,0,1-2-2.12,2.52,2.52,0,0,1,2.07-1.41C50.91,524.79,51.35,526,52.14,527Z"/><path class="cls-1" d="M50.82,514.59c.23.69.76,1.52.55,1.85a4,4,0,0,1-2,1.66,1,1,0,0,1-1.16-1.54C48.43,516,49.28,515.69,50.82,514.59Z"/><path class="cls-1" d="M240.8,203.33c-.44-1.76-1.16-3.26.45-4.38a1.74,1.74,0,0,1,1.67.42C243.64,201,242.6,202.05,240.8,203.33Z"/></g></g></svg>