<svg xmlns="http://www.w3.org/2000/svg" viewBox="0 0 221.38 957.4"><defs><style>.cls-1{fill:#f3933c;}</style></defs><g id="Layer_2" data-name="Layer 2"><g id="Layer_1-2" data-name="Layer 1"><path class="cls-1" d="M106.43,306.63c0-19.81-.11-39.63,0-59.44.19-25.84,1.18-51.69.6-77.51-.21-9.59.37-19.09.36-28.63,0-5.8-3.2-10.3-5.82-14.84-11.17-19.35-20-39.65-21.8-62-1-12.34,5.73-23.56,10.78-34.59,4.29-9.39,9.63-18.33,15-27.19,2.18-3.62,5.53-2.76,8.25,0,8.39,8.66,12.48,19.81,17.31,30.5,6.31,14,10.18,28.75,10,44.07-.3,20.2-9.29,37.38-21.23,53.06-2.71,3.55-4.71,6.9-4.55,11.55.47,12.92,1,25.85.93,38.78,0,17.93-1.3,35.88-.63,53.76.52,14-.42,27.84-.2,41.75,0,1.36.1,3.41.91,3.92,1.92,1.21,2.3-1.26,3.06-2.24,7.46-9.72,16-18.91,21.73-29.57,3.13-5.79,1.23-14.18,2.19-21.32,3.12-23.06,5.72-46.68,23.33-64.07,13.12-12.95,30.15-20.42,46.4-28.71,4.38-2.23,7.45-.25,7.91,5.2,1.93,22.95-2.35,45.15-11.45,65.77a70.1,70.1,0,0,1-41.56,38.31c-15.27,5.25-25.09,14.76-33.57,27.35-3.82,5.68-8,11.47-13.15,15.83-6.94,5.85-5.63,12.63-5.39,20.14.31,9.92.18,19.9-.14,29.88q-.81,25.8.34,51.74c.88,19.74-.46,39.58-.61,59.37-.16,20.36-.06,40.73,0,61.09a22.78,22.78,0,0,0,.78,4.1c1-.74,2.35-1.28,3.06-2.26,7.67-10.66,15.39-21.29,22.78-32.14,3.05-4.49.43-9.85.95-14.84,1.78-17.25,4.67-34.18,10.77-50.42,4.93-13.12,16.46-20.29,27.13-27.59,9.76-6.68,20.89-11.34,31.26-17.16,4.38-2.46,8-.57,8.51,3,3.73,26.2-5.9,76.24-37.87,95.69-10,6.11-20.41,11.5-31.68,14.71-5.86,1.66-5.88,7.26-8.92,10.76-7.08,8.15-13.05,17.33-20.47,25.13a21.27,21.27,0,0,0-6.31,16.25c.48,17.25.86,34.58.51,51.75-1,51.89.05,103.77-.5,155.64,0,2,.25,5.82.71,5.87,2.75.31,2.49-2.78,3.72-4.34,5.18-6.55,9.75-13.73,15.67-19.52,9.39-9.18,6.18-20.92,7.61-31.62,3.06-22.88,6.51-45.73,23.77-62.8,12.93-12.79,29.74-20.19,45.63-28.62,3.69-2,8-.08,8.28,4.84,1.14,25-2.69,49.13-14.83,71.28-11.63,21.22-31.3,32.26-53.36,39.08-8.19,2.54-8.43,10.22-13,14.94C133,737,127.84,745,121.44,751.76c-3.92,4.17-6.28,7.93-6.26,14.1.28,61.1.18,122.2.15,183.29,0,3.68.77,8.17-5,8.25-6.29.09-3.69-4.87-3.75-7.68-.26-13.15-.6-26.32,0-39.45.66-13.65-.19-25.66-12-35.74-7.85-6.72-12.73-16.86-19.19-25.27-4.67-6.06-12.55-5.78-18.86-8.41C25.82,828,8.73,805.28,3.63,772.44A205.87,205.87,0,0,1,.89,737.52c0-2.88.32-5.36,3.38-7s4.43.53,6.52,1.62c12.79,6.68,25.65,13.21,37.43,21.65,15.44,11.06,22.71,27,26.07,44.93,2.38,12.67,3.67,25.56,5.18,38.38,1.28,11,9.11,18.24,14.84,26.58,3.15,4.58,5.88,9.94,11.26,12.7,1.91-5.43.74-11.05.79-16.57.18-19.5.07-39,.07-58.51,0-52.5-.15-105,.2-157.49,0-6.83-2.34-11.54-6.71-16A186.53,186.53,0,0,1,75.3,596.52C70.83,589.4,61.78,590.06,55,587c-28.45-12.69-44.42-34.29-50.38-64.69-1.76-9-2.24-18.08-4.21-27-1.1-5,.51-10.67,1.49-15.93a3.93,3.93,0,0,1,5.72-2.94C24,486,41.69,493.65,55.92,506.74,69.25,519,72.59,536,76.33,552.51c1.76,7.78,3.67,16,2.81,23.79-1.75,15.78,8.94,25,16.45,36,2.78,4,5.36,8.6,10.12,10.94.24-4.86.68-9.72.69-14.59q.09-51.18,0-102.38c0-32.83-.06-65.65.1-98.48,0-3.83-1-6.59-3.87-9a82.24,82.24,0,0,1-19.54-24c-6.83-12.68-19-15.6-30.44-20.73C29,343.39,14.24,325.5,7.48,299.91c-4-15.25-6.63-30.33-6.59-46,0-3-.25-6.55,2.31-8.14,2.93-1.83,6.09-.1,9.12,1.57,16,8.83,32.85,16.29,45.74,29.8,10.82,11.35,15.15,25.73,17.38,40.74,1.85,12.48,2,25.27,4.54,37.58,2.23,10.75,11.36,18,17.46,26.78,2.17,3.12,3.83,7.43,8.35,8.5.21-4.07.6-8.14.61-12.21Q106.49,342.59,106.43,306.63ZM70.56,348.72c-2-7.37-1-15.13-2.77-22.76-3-13-4.71-26.27-12.44-37.68-10.09-14.9-26.44-21.39-40.74-30.61-1.39-.89-4.94-2.05-4.57,1.59,1.13,11.18,1.94,22.36,4.5,33.45,6.74,29.23,24.28,48.3,51.84,58.78C69.19,352.55,70.92,352.45,70.56,348.72ZM11.33,509.91a133.34,133.34,0,0,0,10.06,34.17c9,19.59,25.19,31,44.41,38.81a19.3,19.3,0,0,0,4.21.71,21.73,21.73,0,0,0,.31-4.31c-.84-7-1.91-13.9-2.75-20.87-1.56-13-4.54-26-11.36-37-9.85-15.86-26.93-23.33-42.61-32.07-2.49-1.39-3.65-.35-3.88,2.76C9.3,498,13.33,503.19,11.33,509.91Zm55,325.49c3.1.33,4.59.07,4.25-2.41-.66-4.85-1.26-9.71-2-14.56-2.2-15.2-4.86-30.68-12.82-43.73-9.29-15.24-25.46-23-40.85-31-1.21-.63-2.5-1.11-3.76-1.66-.44,1.71-1.6,3.62-1.19,5.1,2,7.35.75,14.9,2.44,22.44,4.25,18.92,9.94,36.7,24.87,50.06A74.79,74.79,0,0,0,66.29,835.4Zm88.45-129.85c13.88-4.52,26.52-12.25,36.23-24,14.33-17.34,18.17-38.6,20.87-60.11.39-3.06.85-8-.69-9-2.65-1.71-5.7,1.91-8.63,3.18-2.22,1-4.39,2-6.51,3.22-11,6.06-21.77,12.89-28.73,23.28-12.2,18.22-12.51,40.11-16.07,60.91C150.82,705.33,152.09,706,154.74,705.55Zm-2.94-471.3c1.25,2.24-1.55,7.65,3.69,5.54,10.51-4.23,20.44-9.71,29-17.44,22-19.95,25-46.94,27.45-74.15.09-1,.8-3.87-2-2.39-16.05,8.57-33.6,15.57-43.71,31.83C155.51,194.86,155.53,215.24,151.8,234.25ZM131.67,76.4c-1-5.79-2.34-12.68-3.28-19.63-2-15-8.74-28.1-15.92-41.06-1.35-2.43-3-1.39-3.79,0-5.19,9.55-11.16,18.84-15,28.93-6.81,18-3.88,35.76,4.24,52.86,3.61,7.61,6.82,15.41,10.57,23,1.52,3,4.84,2.91,6.48.44C123.72,107.76,129.88,93.57,131.67,76.4Zm80.39,308.42c-.14-.8.16-3.66-.93-4.38-2.07-1.35-4.13.68-6.14,1.86-3.62,2.14-7.72,3.51-11.18,5.87-11.05,7.54-24.27,13.11-30.16,26.1-7.88,17.38-9.25,36.5-12.43,55.09-.41,2.45,1.14,3,3,2.47a79.4,79.4,0,0,0,34.1-21.07C205.23,432.85,209.37,409.52,212.06,384.82Z"/></g></g></svg>