<svg xmlns="http://www.w3.org/2000/svg" viewBox="0 0 333.39 966.19"><defs><style>.cls-1{fill:#f3933c;}</style></defs><g id="Layer_2" data-name="Layer 2"><g id="Layer_1-2" data-name="Layer 1"><path class="cls-1" d="M0,3.18C2.29,1,4.67,1.61,7.6,2.05,20.68,4,34,4.32,47,7.12,64.92,11,79.86,19,90.84,34.51a313.29,313.29,0,0,1,27.09,45.31c2.43,5.08,7.3,7.29,11.8,10,8.11,4.89,15.93,10.26,24.56,14.27,3,1.4,4.62,1.42,4.27-2.62-.31-3.73,1.66-6,5.33-6.34,4.05-.37,4.62,2.12,4.74,5.63.15,4.39,4.11,2.6,5.54,1.82,11.1-6,22.18-12.14,32.86-18.87,8.07-5.08,10-14.75,14.59-22.39,7-11.64,13.69-23.53,22.26-34.09,10.58-13,24.83-20,41.17-22.91C299,1.87,312.85-.45,327.1.08c5.91.22,7.12,3.42,5.49,7.76A170.77,170.77,0,0,1,308.5,52C293,72.34,272,83.86,246.88,86.67c-6.73.75-14.13,1.93-21.29-.46-5.6-1.87-10.39,1.51-15.1,4.27-11.16,6.54-21.14,15.23-34,18.72a3.51,3.51,0,0,0-1.9,2c-.59,1.54.85,2,1.86,2.37,13.56,5.41,25.88,13,37.76,21.4,2.15,1.53,4.63,1.82,7.74,1.58,32.28-2.52,61,4.22,82.67,31.1a181,181,0,0,1,25.69,42.14c.9,2.09,2.15,4.14,2.54,6.33.76,4.19.38,7.19-5.58,7-21.87-.71-43.36-2.88-63.64-12C249.92,205,242.13,193,234,181.34s-14.59-24.35-21.14-37c-3.53-6.83-11.76-8.65-17.79-12.79-6.57-4.51-14-7.82-21-11.66-3.24-1.77-4.68-1.19-4.73,2.88-.16,15-.81,30-.82,44.92s.92,30.12.2,45.27c-.83,17.41.93,34.94.47,52.39-.28,10.76-.7,21.53-.72,32.3q-.06,36.84,0,73.7c0,24.19.1,48.39-.08,72.58,0,5,1.24,5.48,5.62,3.65,13-5.42,24.48-13.51,36-21.37,5-3.41,6.48-10,9.39-15.3,12.27-22.21,24.5-44.42,48.26-56.89,6.63-3.49,13.86-1.79,20.76-3,12.85-2.3,25.88-3.66,38.88-5,5.13-.53,7,3,5.31,7.38a167.92,167.92,0,0,1-29.36,49c-11.38,13.1-25.25,21.39-41.47,26.34-12.84,3.91-26.1,3.12-39.25,2.91-5.87-.09-10,2.75-14.65,5.81-9.3,6.17-18.77,12.22-29.34,16.16-1.61.6-3.89.44-4,2.8-.1,2.62,2.52,2.19,4,2.86,11.51,5.15,22,12.14,32.5,18.92,4.05,2.61,7.76,3.08,12.73,2.86,27.19-1.22,52.88,3.22,73.47,23.39,12.43,12.19,21.82,26.52,29.81,41.84a105.77,105.77,0,0,1,5.62,13.86c1.95,5.56-1,9.19-6.37,8.47-10.52-1.43-21.06-2.82-31.62-3.94-24.34-2.58-44.23-12-57.6-33.87-8.32-13.6-17.6-26.58-24.37-41.13-3.18-6.83-10.9-8.6-16.64-12.39-7.31-4.84-15.53-8.29-23.27-12.49-3.1-1.68-3.3-.45-3.49,2.39-1.29,19.53.06,39.09-.33,58.57-.5,25.59-.3,51.17-.47,76.75-.27,43-.07,86-.07,129,0,19.52.1,39-.06,58.57-.05,5.41,1.92,6.8,6.46,4.16,11-6.41,22.64-11.6,32.94-19.34,7.25-5.44,8.66-13.93,13-20.81,10.62-16.73,20.48-34.07,36.2-46.62,7.14-5.7,16.46-7.54,25.25-9.9,14-3.74,28.49-3.66,42.68-5.92,7.4-1.19,9.93,2.69,7.06,9.81-6.34,15.68-13.84,30.74-25,43.58C292,762.42,274,774.72,250.27,777.45c-10.15,1.17-20.19,3-30.35.88-3.72-.77-5.81,1.81-8.32,3.42-11,7-21.73,14.45-34.23,18.72-1.23.42-2.82.68-2.93,2.78-.13,2.4,1.76,2,2.92,2.55,12.8,6.55,26,12.5,37.37,21.46,2.63,2.07,5,.19,7.44.2,13.59.06,26.91.74,40.38,4.23,29.15,7.57,45.36,28.8,59.41,52.77,4.09,7,7.2,14.53,10.53,21.92,1.1,2.43,1.34,5.54-.11,7.66-1.68,2.45-4.49,1.78-7.5,1.44-13.33-1.5-26.69-2.66-39.87-5.25-20.05-3.92-35.38-14.41-46.84-31.65-9.13-13.73-18.74-27-25.17-42.39-1.6-3.83-6.64-6.49-10.91-8.74-9.76-5.13-18.72-11.78-29.28-15.47-2.37-.82-3.25-.83-3.39,1.95-2,37.39-.55,74.8-.84,112.2-.07,9.75,1.55,19.47.06,29.28-.52,3.47.52,7.18.85,10.78h-11a54.79,54.79,0,0,0,1-7.26c.08-16.33,1.08-32.76-.33-49-1.12-12.86.39-25.56-.37-38.37-1.14-19.41-.38-38.93-.23-58.4,0-3.77-.91-4.19-4-2.46-6,3.32-12.37,5.95-18,9.75-6.38,4.31-15.32,5.51-18.77,13.49a217,217,0,0,1-28,47.53c-7.4,9.51-15.69,17.63-27.22,21.65-15.66,5.46-32,7.79-48.42,8.89-4.57.3-9.68,3.53-14.11-.8v-9c4.09-10.06,9.42-19.49,15-28.8,8-13.52,17.81-26.12,31.1-34.27,19.45-11.92,41-17.43,64.19-13.89a9.22,9.22,0,0,0,6.91-1.64c10.3-6.87,20.78-13.51,32.27-18.3,1.19-.49,2-1.1,2.1-2.42s-1-1.26-1.87-1.72c-7.43-4.07-14.56-8.8-22.26-12.25-5.82-2.61-10.12-8.28-17.61-7.76-11.54.79-23,1-34.57-1.74-17.4-4.15-32.53-12.29-44.55-25.18A157.52,157.52,0,0,1,0,705.46v-10c1.75-1,3.1-1.78,5.68-1.37,11.77,1.88,23.77,2.43,35.5,4.51,13,2.3,26.22,5,36.29,14.28,15.45,14.17,26,32.08,36.23,50.19,2.41,4.26,3.44,9.23,7.54,12.76,8.29,7.11,18,11.81,27.37,17,8.87,4.9,10.13,4.12,9.92-5.19,0-.83,0-1.66,0-2.49,0-21.66.41-43.32-.11-65-.53-22.34,1-44.62.51-67-1.09-46.54-.35-93.13.24-139.7.18-14.32,0-28.81-.65-43.21-.11-2.43.54-6.21-.69-7-2.5-1.62-4.44,1.58-6.58,3-1.72,1.12-4,1.41-5.68,2.55C135.05,475.87,122,479,115.88,492.54,108.2,509.68,97.8,525.4,85.73,540c-7.35,8.88-16.49,14.3-27.3,17.69-9.22,2.89-18.59,5.09-28.17,5.57C20.18,563.74,10.2,567,0,564.6v-10c6.86-12.82,12.76-26.11,21.78-37.81,12.82-16.62,27.78-29.7,48.52-35.11,12.79-3.33,25.66-5.16,38.87-3a12.54,12.54,0,0,0,9.63-2.59c9.53-6.79,19.75-12.45,30-18,.88-.48,2.85.27,2.51-1.54-.15-.83-1.52-1.57-2.48-2.07a191.94,191.94,0,0,1-22.09-12.67c-4.36-3-9-7.24-13.76-7.6-5.51-.42-11.47-1.14-16.93-.26-10.31,1.66-19.82-1.44-29.24-3.89-20.1-5.24-33.9-19.21-46-35.39C12.42,383.47,6.88,370.78,0,358.81v-9c2.08-.32,4.2-1.11,6.22-.9,11.55,1.17,23.14,2.16,34.59,4,11.28,1.83,23.08,2.17,32.93,9.29,11.7,8.46,19.69,20.24,27.43,32,6.24,9.48,9.78,21,16.25,30C126.63,437,141.9,443,156,449.64c1.75.81,2.47-.56,2.54-2.46.46-11.74-.12-23.47.71-35.25.94-13.36.13-26.86-.57-40.31-.78-15.13-.18-30.34-.18-45.51,0-31-.15-62,0-93,.22-36.4-1-72.81,1-109.2.1-1.87.84-4.19-1.3-5.49s-3.58.35-5.3,1.38c-5.17,3.11-10.63,5.75-15.71,9-8.05,5.14-17.06,8.57-21.68,18.6-6.8,14.73-14.85,29-24.94,41.81-6.52,8.29-13.64,16.13-23.51,20.5C47.59,218.36,26.57,219,5.82,221c-2.39.23-4.08-.79-5.82-2v-9c.53-.38,1.41-.67,1.52-1.15,2.95-12.14,9.92-22.26,16.78-32.27,8.86-13,19-24.94,33.08-32.57,16.86-9.13,34.91-12.23,54-10,3.32.39,6.94,1,10.19-.89,11.66-6.77,22.09-15.68,35.1-20.09.73-.25,1.16-1.39,1.73-2.12a14.91,14.91,0,0,0-1.58-.83c-7.53-2.82-13.92-7.59-20.7-11.76-7.63-4.69-14.81-10.47-25-9.36a96.27,96.27,0,0,1-37.1-3.45C44.22,78.62,28.29,61.86,15.23,41.79,9.31,32.69,4.73,22.9,0,13.17ZM235,489.71c-2.84,0-6.95-1.15-8.23.27-1.93,2.13.22,5.63,1.78,8.12,6.85,10.93,12.57,22.56,20.7,32.7,7.09,8.85,14.43,17.36,25.75,20.82,13.16,4,26.71,5.92,40.4,7,4.41.35,5.88-1.07,4-5.29a145,145,0,0,0-29.46-43C275,495.28,255.82,489.74,235,489.71Zm-3.16-345.46c-5.64-.28-6.83,1.56-4.08,6.63,4.5,8.28,8.83,16.67,13.81,24.65,6.53,10.48,14.23,20.43,24.8,26.79,15.35,9.24,33.11,10.12,50.5,11.7,3.19.29,3.89-1.29,2.85-3.86-7.08-17.56-18-32.77-31.28-45.83C273.05,149.17,253.11,144.18,231.81,144.25Zm81.2,210c-6.38,3-15.85.85-24.73,3.5-13.28,4-26.3,7.84-35.35,19.73-9.22,12.1-17,25.06-24.85,38-1.4,2.3-4.06,5-2.4,7.58,1.56,2.39,4.52-.27,6.88-.29h6a70.9,70.9,0,0,0,27.27-4.95C292.88,406.74,307,383.71,319.13,359,321.19,354.76,319.84,353.14,313,354.2ZM95.77,425.79c1.82,0,3.65.09,5.47,0s4.36.17,5-.8c1.18-1.77-.9-3.46-1.86-5.14-3.49-6.06-6.73-12.26-10.3-18.27C87.89,391.11,81.37,380.71,72,373c-16.45-13.52-37-13.92-56.79-16.11-4.26-.48-3.66,1.9-2.31,4.57A231.08,231.08,0,0,0,32.21,393C48.1,415,69.14,425.48,95.77,425.79Zm9.91-348.16a3.6,3.6,0,0,0-.35-1.32C97,62.1,89.6,47.22,78.69,34.71,70.88,25.77,61.05,20.15,49.37,16.9c-10.86-3-21.83-3.86-32.86-5.08-1.42-.16-3.06-1.37-4.09-.07s-.55,3,.14,4.65c6.28,14.91,15.76,27.85,26.19,39.83,17,19.49,39.74,25.41,64.71,24.89C105.75,81.07,105.78,79.82,105.68,77.63ZM237.9,837.27a67.48,67.48,0,0,0-7,.06c-1.83.18-4.34-1.23-5.37,1-.76,1.66,1.05,3.21,1.93,4.77,5.82,10.36,12,20.48,18.75,30.27,9.19,13.33,20.17,23.95,36.76,27.42,11.72,2.46,23.6,3.29,35.45,4.46,4.3.43,2-2.32,1.28-3.62-6.36-11.61-12.75-23-20.87-33.74C283.2,847.19,263.26,837.39,237.9,837.27ZM14,556.64c8.13-1,15.77-1.84,23.35-3,10.5-1.64,21.16-3.81,29.78-10.12,18-13.16,27.11-33.21,38-51.81,1.34-2.3,1.08-4.73-2.37-5-16.79-1.1-33.06,2.24-47.05,11-20.81,13.07-33.45,33.45-43.51,55.44C11.36,555.07,11.66,556.91,14,556.64Zm.53,346.54c12.91-1.73,26-2.69,38.49-6.55,8.68-2.67,17.15-6,23-13.29,11.18-13.91,20.44-29.13,28.89-44.83,1-1.79,2.1-3.8-1.4-4.18A79,79,0,0,0,62.75,841C37,852.49,24.3,875.76,12.36,899.42,11.39,901.33,11.27,903.5,14.57,903.18Zm3.94-692c3.59-.38,7.17-.78,10.75-1.15,15.76-1.66,31.59-4.82,43.26-15.81,14.27-13.45,23.47-31.05,32.71-48.29,1.29-2.39.72-4.32-2.58-3.91-7.11.89-14.23.48-21.45,1.63a70.21,70.21,0,0,0-36.05,16.89c-13.47,11.87-22.52,27.31-31,43C11.33,208.6,10.14,212.53,18.51,211.17ZM236.31,78.26c21-.34,40.05-6.55,54.41-22.49C301.37,44,312.17,31.9,317.27,16.15c.69-2.13,3.07-4.45,1.4-6.23s-4.57-.5-7-.2c-6.8.84-13.55,2.51-20.24,3.13-15.23,1.42-27.27,8-37.32,19-9.8,10.67-17,23.14-23.61,35.9-1.61,3.09-5.7,6.22-3.62,9.53C228.45,79.81,233,77.63,236.31,78.26Zm-1,692.12c5.66-.69,13-.84,19.9-2.55,33.5-8.28,50.52-33.93,64.45-62.58.86-1.78,1.6-4.12-2.68-3.4-10.12,1.71-20.37,2.43-30.5,4.44-10.83,2.14-21,5.53-28.78,13.37-12.32,12.38-20.59,27.79-29.55,42.59C224.07,768.94,225.42,770.39,235.28,770.38Zm-138.73,2c11.23,0,11.29,0,6.13-9A351.44,351.44,0,0,0,76.89,725.2c-5.66-7.35-13.81-11.94-22.44-14.53-12.83-3.84-26.3-4.62-39.58-6.16-3.1-.36-3.57,1.32-2.6,3.56,7.58,17.48,17.65,33.8,31.68,46.29C58.4,767.24,76.79,772.87,96.55,772.38Z"/></g></g></svg>