<svg xmlns="http://www.w3.org/2000/svg" viewBox="0 0 329.38 959.96"><defs><style>.cls-1{fill:#f3943c;}</style></defs><g id="Layer_2" data-name="Layer 2"><g id="Layer_1-2" data-name="Layer 1"><path class="cls-1" d="M329.38,238C321,259.57,309,278.85,292,294.84c-13.91,13.16-30.89,22-49.59,20.48-22.46-1.86-39.48,8.07-57.07,18.57-2,1.17-3.78,3.32-5.81,3.52-11.74,1.16-10.33,10.4-10.57,17.79-.34,10.91.83,21.85.79,32.78-.06,15.92-.78,31.84-.93,47.76q-.26,28.78,0,57.56c.18,20,2.46,40.12.37,59.83-1.42,13.39,8.23,12.52,14.13,15.59,10.3,5.36,20.39,10.91,29.55,18,3.4,2.64,6.61,1.51,10.09,1.35,22.34-1,43.77,1.51,62.23,15.88,13.85,10.79,24.06,24.58,33,39.48A142.93,142.93,0,0,1,329.38,667v6a7.86,7.86,0,0,1-6.31,2c-8.43-1.09-16.91-1.82-25.3-3.15-10.74-1.71-21.91-2-31.79-7.2-21.54-11.24-32.69-31.55-44.5-51.45-4.26-7.18-5-16.66-12.7-21.57-11.12-7.07-22.21-14.24-34.36-19.54-4.21-1.84-5.72-1.49-5.7,3.64.18,32,.1,64,.1,96.08q0,56.25-.06,112.49c0,3.7,1,4.43,4.21,2.68,6.3-3.42,12.91-6.32,18.95-10.14,6.8-4.29,15.75-6.45,19.82-13.63,8.67-15.31,16.24-31.3,27.06-45.23,9.86-12.69,21.17-23.43,37.75-27.76,11.36-3,22.84-4.18,34.3-4.87,6-.36,12.65-5.36,18.53.63v6a15.76,15.76,0,0,0-1.08,2c-9,24.14-23.11,45.22-43,61.07-17.62,14-39.19,18.11-61.78,15a16.73,16.73,0,0,0-11.11,2.62c-10.9,6.53-21,14.63-33.06,18.9-5.56,2-11.36,4-10.21,10.71,1.08,6.26-.36,12.09-.33,18.12.08,15,0,30,0,45q0,47.27.05,94.53h-9a45.12,45.12,0,0,1-.91-6.27c0-48.82-.13-97.65.07-146.48,0-6.74-3.11-6.46-7.18-4.18-10.09,5.65-20.86,10.57-29.66,17.85-7.88,6.51-10.48,17.54-15.78,26.37-9.63,16-18.51,32.79-35.55,42.33-12,6.75-25.57,9.46-39.13,11.3-8.29,1.12-16.68,1.51-25,2-5.21.33-7.95-2.86-6.16-7.41,11.34-28.79,27.13-54.59,54.75-70.27,12.26-7,26.62-10.48,40.94-8.07,15.83,2.66,27.1-5.89,39.21-13.15,5.33-3.2,10.58-7.11,16.4-8.7,6.34-1.74,7.21-5,7.2-10.61-.17-60.5-.3-121,.07-181.48.07-10.6,0-21.18-.09-31.77,0-3.94-1.16-6.45-4.94-8-13.07-5.32-24.24-14-36.52-20.79-3.34-1.84-6.63-2-10-1.65-27,2.56-52.09-3-71.51-22.42C20.23,502.8,7,484.41,1,462c-1.66-6.21.55-8.71,7.24-7.22,12.94,2.87,26.31,1.88,39.37,5,17.9,4.23,32.67,12.38,43.56,27.46,10,13.77,18,28.6,26.1,43.48,5.28,9.66,16.24,14,25.67,19.13,15.85,8.58,16,8.29,16-9.9V465.46c0-37.72-.09-75.43.11-113.14,0-5.18-2.92-5.57-5.75-4-11,6.11-23,11.33-32,19.68-7.59,7-11.62,17.95-17.21,27.16-8.71,14.37-17.75,28.63-32.32,37.73-11.32,7.07-24.66,8.44-37.49,11-8,1.62-16.3.78-24.36,2.85s-11.72-2.81-8.26-11c11.13-26.43,25.23-50.86,52-64.31,17-8.55,35.77-10.88,54.58-8.9,5.6.58,9.44-1.19,13-3.81,10.63-7.77,22.28-13.65,34.05-19.23,3.49-1.65,3.62-3.48,3.62-6.36,0-43.66-.23-87.32.06-131,.18-27.16-1.15-54.35,1-81.46.55-7.06-1.82-11.15-8.39-13.52-11.42-4.12-21.2-11.32-31.33-17.77a15.17,15.17,0,0,0-8.76-2.47c-16.42.11-32.7,0-48.58-5.79C42.9,73.78,29.76,59,18.07,42.23A137.29,137.29,0,0,1,1.6,10.63C-1.35,2.6.26-.69,8.6.12A390.85,390.85,0,0,1,54,6.88c18.59,4,30.79,16.08,41,30.94,7.46,10.89,14.72,22,20.3,34,6.29,13.5,19.47,18.2,30.94,25.12,2.35,1.42,4.81,2.7,7.3,3.89,1.73.82,4,2.37,5.31,1.83,2.1-.87.57-3.24.42-5.11-.29-3.67,3.42-3.43,5.6-4.4,1.52-.68,4.2,0,3.74,1.9-3.26,13.55,7.58,15.82,15.73,20.08,10.12,5.28,20.4,10.21,29.54,17.26,2.82,2.18,6.66,1.08,10.31.87,23.72-1.32,46.36,2.81,64.75,19,18.16,16,32,35.35,39.5,58.76.13.39.63.66.95,1v6c-2.11,1.91-4.62,2.21-7.33,1.94-10.11-1-20.26-1.68-30.32-3-11.48-1.52-23.32-3.48-32.7-10.4-16.66-12.31-26.91-30.11-37.46-47.57-3.95-6.54-4.26-15.26-10.48-20.06-11.15-8.59-23.65-15.13-36.19-21.51-4.28-2.18-5.43-1.27-5.07,3.33,1.48,18.68-1.8,37.29-.3,56.1,1.29,16.13-.65,32.5-.64,48.76,0,16.93,1.55,33.9.73,50.77a466.72,466.72,0,0,0,.18,52.1c.19,3.06.83,4.66,4,3.08,9-4.56,18.21-8.81,26.79-14.06,6.43-3.94,13.5-7.68,16.26-15.73,4.87-14.18,13.65-26.15,22.14-38.19,9.94-14.07,22.26-25.24,40-28.55a387.56,387.56,0,0,1,41.87-5.16c3.15-.24,6-1.41,8.58,1.16ZM95.61,533a26.92,26.92,0,0,1,3,0c8,.95,9.26-1.61,4.91-8.35-4-6.15-6.7-13.08-10.73-19.17C84.6,493.12,76.28,480.8,62.38,474c-14.7-7.25-30.68-8.43-46.58-10-3.82-.39-4.07,1.3-2.73,4.45,5.75,13.45,14.27,24.94,23.13,36.52C51.48,524.84,71.64,532.49,95.61,533ZM103.47,78c-.22.2,2.08,2,2.36-.18a9.43,9.43,0,0,0-1.14-5.61C97.43,60.1,91,47.45,82.21,36.27,74.17,26,64.34,18.53,51.71,15c-11.52-3.27-23.4-4.08-35.22-5.4-1.23-.14-3-.63-3.63,0-1.14,1.06-.27,2.59.31,4a128.78,128.78,0,0,0,12.09,22.3c8.4,12.86,17.58,25.24,31.12,32.91C70.4,76.7,86,79.37,103.47,78ZM96.83,825c-14.92-.14-29,2-41,10.3-20,13.71-33.11,33.16-43.1,54.91-1.1,2.4-.52,4.15,2.88,3.73,6.15-.77,12.44-.78,18.49-2C47.7,889.16,62.16,888,72.53,877c11.56-12.3,22.27-25.25,29.16-41,1.48-3.38,5.52-6.66,3.86-10C104.19,823.2,99.49,825.6,96.83,825ZM233.09,141.11c-2.69-.06-6.23-1.09-7.78,1.37-.74,1.19,1.3,4.36,2.4,6.47,6.22,11.85,12,24.17,21.13,34,6.68,7.22,11.39,16.37,21.93,20.33,13.79,5.18,28.14,5.36,42.26,7.6,1.34.22,2.8-.39,4.21-.61-.33-1.57-.25-3.39-1.05-4.66-4.79-7.59-7.62-16.16-12.94-23.59C285.89,157.73,264.72,140.59,233.09,141.11ZM238.35,308l6.4-.57c21.61-1.9,37.14-14.15,50.62-29.89,8.68-10.13,14.94-21.79,21-33.58,2-3.84.82-5.65-3.75-5.06-6.48.83-13.05,1.08-19.49,2.13-11.37,1.87-23.52,3.48-32.08,11.41-13.62,12.61-23.61,28.32-31.68,45.16C224.33,308.09,224.18,308,238.35,308ZM95.87,369.91c-21.18,1.43-43.56,6.21-59.5,26.41-9,11.42-17.81,23-22.64,36.93-.67,1.93-1.91,5.14,2.37,4.64,7-.82,13.85-2.23,20.83-2.89,22.68-2.16,39.36-13.48,51.15-32.75,5.54-9,11.35-17.9,17.29-26.68.86-1.27,3-2.56,2.28-3.76s-3-1.51-4.66-1.84C101.56,369.68,100,369.91,95.87,369.91ZM234.58,596.32c-8.51-1.43-10.67.26-7,7.33a260.71,260.71,0,0,0,14,24.05c9,13.67,18.75,26.77,35.26,31.86,11.25,3.46,23,4.79,34.77,5.25,1.53.06,3.69,2.61,4.56,0,.59-1.75,0-4.36-.93-6.09-5.14-9.43-10.06-18.92-16.55-27.65C282.19,608.91,261.89,594.52,234.58,596.32Zm66.23,97.17c-2.64-1-6.64,1.44-10.58,2.61-7.87,2.35-16.72,2.3-23.48,7.37-18.42,13.84-29.8,33.24-40.27,53.21-1.91,3.64-1.36,6.59,3.81,6.26,4.26-.27,8.51-.62,12.77-.93a65.4,65.4,0,0,0,40.45-17.53,132.14,132.14,0,0,0,26.73-35.06c2.65-4.9,8.53-10.47,6.46-15.08C314.71,689.91,307.53,695,300.81,693.49Z"/></g></g></svg>