<?xml version="1.0" encoding="utf-8"?>
<!-- Generator: Adobe Illustrator 24.1.1, SVG Export Plug-In . SVG Version: 6.00 Build 0)  -->
<svg version="1.1" xmlns="http://www.w3.org/2000/svg" xmlns:xlink="http://www.w3.org/1999/xlink" x="0px" y="0px"
	 viewBox="0 0 975.6 1005.1" style="enable-background:new 0 0 975.6 1005.1;" xml:space="preserve">
<style type="text/css">
	.st0{fill:#F3933B;}
	.st1{fill:#F2953D;}
	.st2{font-family:'Verdana';}
	.st3{font-size:72px;}
	.st4{fill:none;stroke:#F2953D;stroke-width:6;stroke-linecap:round;stroke-linejoin:round;stroke-miterlimit:10;}
</style>
<g id="Layer_1">
	<g id="Layer_2_1_">
		<g id="Layer_1-2">
			<path class="st0" d="M866.6,228.5 M807.4,680.6c6.3-13.8,11.7-27.9,16.3-42.4c3.1-10.1,7.2-20,9.4-30.3
				c2.3-10.7,3.7-21.6,5.8-32.3c3.3-18.4,5.3-37,6-55.7c1.1-27.6-0.2-55.2-3.8-82.6c0-1.5,0.6-4.2-0.1-6.5
				c-4.8-16.9-5.3-34.5-9.5-51.5c-3.7-15.2-8.2-30.1-12.6-45.1c-4.9-17.1-13.5-32.6-19.7-49.1l-9.4-18.6
				c-3.3-6.3-6.9-12.5-10.3-18.7c-9.7-17.5-21.6-33.5-33.6-49.4l-10.7-13.8c-12.2-12.4-23.6-25.6-36.3-37.7
				c-18.9-18-39.4-33.8-60.4-49.1c-14.6-10.7-30.2-20-45.6-29.4c-18.3-11.1-38.3-19.5-58.2-27.7c-11.8-4.9-23.6-9.8-36.1-13.4
				c0,2.6,1.9,2.7,3,3.4c20,12,40.1,24.1,58.8,38.1c14.1,10.6,27.9,21.4,40.6,33.9c13.1,12.9,26.8,25.3,39.7,38.4
				c5.4,5.5,10.2,11.6,15.5,17.4c11.2,12.2,21.8,25,30.8,38.8s19,27.3,27.1,42c10.2,18.6,20,37.3,27.2,57.2l6.2,14.7
				c2.2,7,4.7,13.8,7.2,20.7c6.4,17.9,9.6,36.6,13.4,55c2.8,13.7,3.3,27.9,5.3,41.9c3,20.7,3.1,41.5,3.4,62.3
				c0.1,11.8-0.6,23.7-2.1,35.4c-1.8,14.8-3,29.7-5.8,44.2c-4.1,22-9,44.1-18,64.8l-9.4,21.3c-6,14.2-14.5,26.9-23,39.7
				c-9.1,13.7-20,25.8-31.5,37.3c-10.2,10.2-21.2,19.8-33.4,27.6s-24.1,16.8-38.4,21.1l-25.8,11.9c-8.6,2.9-17.4,5-26.4,6.5
				c-12.1,1.8-36.1-16.6-38.4-28.7c-1.3-6.7,1.5-12.8,6-17.6l14.6-11.7c12.5-9.2,26.7-15.7,40.5-22.5c14.1-7,26.7-16.3,40.2-24.2
				c15-8.7,27-21,38.6-33.4c10.2-10.9,18.6-23.6,25.4-37.1l7.9-17c6.2-18.2,10.8-36.9,13.9-55.9c1.5-9.3,1.3-18.6,3.2-27.8
				c1.3-6.6-0.9-13.8-0.6-20.7c1-27.6-1.3-55.3-6.8-82.4c-4-20.5-8.1-40.8-14.6-60.7c-1.5-4.6-3.4-9-4.8-13.7l-6.1-16
				c-5.9-11.8-11.2-23.9-17.5-35.5c-11.9-22.1-24.4-43.8-39.6-63.8c-7.6-10-16.1-19.3-23.5-29.5c-8.8-12.1-18.8-23.2-29.8-33.4
				c-21.7-20.1-43.5-40.1-68.1-56.8c-1.3-0.8-1.8-2.7-4.1-3.1c-0.1,0.1-0.9,0.6-0.8,0.8c0.3,1.1,0.7,2.1,1.4,3
				c11.9,15.2,23.9,30.3,35.7,45.7c13.2,17.3,25.6,35.1,37.2,53.5c8.5,13.5,18,26.6,24.6,41c7.3,15.7,14.8,31.2,22.4,46.8
				c9,18.6,17.9,37.3,23.5,57.4l5.5,16.6c4.8,13.1,6.9,26.8,10.5,40.2c6.4,24.3,7.6,49.3,9.3,74c0.8,11.5,0.2,23.1-1.9,34.4
				c-2.8,15-6.5,29.7-12.6,43.5c-7.3,16.7-17.8,31.9-30.9,44.6c-11,10.8-21.5,22-34.9,30.1c-18.7,11.3-38,20.8-58.9,27.1
				c-5.8,1.7-11.5,4.6-17.4,4.8c-12.7,0.6-20.5-8.5-25.3-18.3c-9-18.2-4.7-27.7,15.2-41.5s42.8-22.5,62.4-36.8
				c16-11.7,28.5-26.2,35.2-45c2.1-6,4.2-12.5,3.8-19.1c-0.5-10.2,1-20.3,0.4-30.7c-1.2-18.9-7.1-36-15.8-52.6
				c-2.5-4.8-5.2-9.4-8.1-13.9c-0.6-0.9-1.2-2.5-2-2.6l-7.3-10.7c-5.6-7.6-11.9-14.7-19-21.1v0c2.4,9.8,5,19.5,6,29.5l2.9,14.8
				c2.4,26,1.6,51.6-13,74.3c-6.9,10.9-15,21.7-30.6,20.9c-10.1-0.5-16.3-6.9-22.4-13.8c-7.9-8.9-12.5-19.9-17.9-30.3l-6.8-15.3
				c-5.8-16.5-12.1-32.8-17.2-49.4c-5.6-18.2-10.1-36.7-15-55.1c-2.4-8.8-4.7-17.5-7.2-26.3c-0.4-1.4-1.7-2.6-3-4.4
				c-6.1,23.3-11.4,46.1-18.1,68.4c-5,16.7-10.3,33.3-16.3,49.7c-5.3,14.6-11.5,28.8-18.5,42.6c-5,9.9-10.8,19.7-19.4,26.8
				c-14.1,11.7-27.7,9.8-40.2-5.4c-12-14.6-17.2-31.7-19.4-50.4c-3.2-26.3,3.2-50.8,9.8-75.5c-2.5,0.7-11.3,8.9-14.6,13
				c-12.9,16.2-23.9,33.6-30.8,53.1c-4,11.4-6.1,23.3-7.5,35.4c-2.1,19.5,1.3,38.1,8.4,55.7c6.5,16,18.4,28.2,32.7,38.2
				c13,9.1,27.4,15.9,41,24c11.5,6.8,24.5,11.5,32.8,23c7,9.7,7.6,23.3,0.5,33.1c-3.9,5.5-8.8,10.2-14.4,13.9
				c-5.9,3.8-12.2,1.6-18-0.2c-18.6-5.7-37.1-11.9-53.9-21.7c-24.1-13.9-46.2-30.4-63.1-53.3c-8.8-12.1-16-25.2-21.6-39
				c-3.7-9-5.5-18.7-7.1-28.4c-2.3-13.7-3.9-27.5-2.8-41.4c0.9-11.1,1.6-22.3,2.4-33.5c1.8-22.7,7.2-44.5,12.7-66.3
				c3.2-12.5,7.6-24.8,11.6-37.1c3.7-11.2,8.3-22.1,12.9-33c4.2-10,9-19.8,14.2-29.5c8.3-15.5,16-31.3,25-46.4
				c11.4-19,23.2-37.8,35.9-56.1c11.2-16.1,22.3-32.2,34.9-47.3c7.1-8.6,14.2-17.2,21.3-25.9c1.1-1.4,4.1-2.7,2.1-4.7
				c-1.3-1.3-2.5,1.4-3.7,2.3c-15.4,10.6-30.1,22.1-44.2,34.5c-8.1,7.2-16.4,14.3-23.9,22.2c-7.7,8.1-16.3,15.4-23.7,24
				c-14.8,17.2-29.4,34.4-42.3,53.2c-11,16-21.2,32.6-30.5,49.6c-15.1,27.2-26.8,56.2-34.8,86.3c-5.9,22.4-11,44.9-13.5,68.1
				c-2.2,20.4-4,40.8-3.5,61.3c0.6,23.5,1.9,47.1,8,69.9c10.6,39.7,29.5,74.7,61.1,101.9c13.9,11.9,29.3,21.7,45.5,30.3
				c21,11.2,42.7,21.3,62.1,35.2c7.3,5.2,14.4,11.3,14.9,21.4c0.7,12.7-8.9,18.2-17.4,24.6c-17.5,13.2-35,6.4-52.3,0.2
				c-23-8.3-44.7-19.8-64.4-34.1c-17-12.3-31.5-27-45.6-42.4c-14.4-15.7-25.7-33.2-35.3-51.9c-11-21.2-19.5-43.7-25.2-67
				c-4.6-18.9-7.8-38.1-9.8-57.5c-2.3-22.6-3.8-45.2-3.4-67.8c0.4-21.1,2.3-42,5.5-62.9c2.2-14,4.3-28.1,7.3-42
				c3.1-14.5,7-28.8,11.9-42.7c8.2-22.9,17.7-45.3,28.5-67.2c6.8-13.8,15.4-26.6,23.5-39.5c10.9-17.1,22.8-33.5,35.8-49
				c8.1-9.8,16.4-19.3,24.9-28.7c19.4-21.5,41.4-40.1,64-58.1c19.6-15.5,40.2-29.8,61.6-42.7c7.3-4.5,14.8-8.7,21.6-14.4
				c-11.8,4.5-23.7,8.7-35.4,13.6c-14.8,6.1-29.6,12.2-43.9,19.5c-16.6,8.6-33.1,17.8-48.8,27.9c-29.2,18.8-56.6,39.8-81.6,64.2
				c-25.2,24.6-48,51-67.3,80.6c-17.4,26.7-30.7,55.4-43.1,84.6c-8.1,19.6-14.3,39.9-18.5,60.6c-4.9,23.3-9,46.8-11,70.8
				c-1.9,22.7-4.4,45.4-3.3,68.2c1.2,26.3,3.8,52.6,9.1,78.6c7.5,36.5,19.7,71.8,36.5,105c8.6,17,19.5,32.9,30.1,48.8
				c19.8,29.8,44,55.7,69.6,80.2c17,16,34.9,31,53.7,44.9c25.3,18.9,51.9,35.8,78.6,52.5c12.5,7.8,25.5,14.7,38,22.4
				c8.1,4.9,10.7,13.4,8.6,22.7c-2.5,10.9-7.8,20.6-12.5,30.6c-2,4.4-5.5,5.1-9.3,2.7s-1.2-4.8,0.1-7.8
				c4.8-10.6,11.4-20.6,11.9-32.9c0.3-6.9-5.3-8.9-9.6-11.2c-34.2-18.7-67.5-38.6-99.2-61.2c-14.8-10.5-29-21.8-43-33.2
				c-22.8-18.6-44-39.3-63.2-61.6c-22.5-25.8-42.2-53.9-58.8-83.9c-11.9-21.7-21.9-44.1-29.2-67.9c-4.3-14-8.7-28-11.7-42.3
				c-2.8-12.3-4.9-24.7-6.3-37.2c-2.5-24.5-4.4-49.1-3.6-73.7c0.6-21.1,1.3-42.4,4.3-63.2c3.4-23.2,8.1-46.2,13.8-69
				c5.9-22.7,13.6-44.9,23.2-66.4c10.5-23.9,23-46.9,37.6-68.6c15.9-23.9,33.7-46.4,53.5-67.2c21.2-22.1,44.4-41.6,68.9-59.7
				c26.5-19.6,54.9-35.9,84.4-50.4c16.7-8.2,33.8-15.6,51.2-22.1c18.3-6.8,37-12.4,55.7-18c8.2-2.5,16.9-3.7,25.3-5.4
				c2.7-0.7,5.5,0.9,6.2,3.7c0,0.2,0.1,0.3,0.1,0.5c0.7,3.3-2,4.6-4.9,5.8c-20.2,8.2-39.9,17.8-58.8,28.7
				c-21,12.1-41.2,25.4-60.5,39.9c-14.9,11.1-29.4,22.7-43.4,34.8c-15.3,13.2-29.7,27.6-42.9,42.9c-18.7,21.9-36.2,44.7-51.8,69.1
				c-13.2,20.3-24.6,41.6-34.2,63.8c-8.8,20.8-17,41.8-22.7,63.8c-5.7,22.5-9.6,45.3-13.3,68.1c-1.2,7.8-1.9,15.7-2,23.6
				c-0.6,16.4-1.5,32.9-0.8,49.3c0.7,21.2,2.6,42.4,5.5,63.4c4.1,28.2,11.7,55.7,22.6,82c7.7,19,17.8,37,29.9,53.5
				c16.3,22.1,35.8,41.7,57.9,58c13.2,9.8,27.4,18.5,43.3,24.5c10.9,4.1,21.6,8.9,32.8,12.5c16.4,5.2,29.1-2.7,38.1-13.5
				c4.1-5,1.7-11.1-2.9-15.5c-9-8.5-19.9-14.3-30.7-20c-21.7-11.4-43.5-22.6-64.1-35.9c-29.4-19-51.5-44.8-66.9-76.2
				c-10.6-21.4-17.7-44.3-21-68c-1.7-12.3-4.1-25-4-37.1c0.2-19.9-1.2-40,2-60c1.9-12.1,2.3-24.5,4.3-36.7c2-12.4,4.9-24.6,7.9-36.8
				c5.8-24.1,13.1-48,23.9-70.3c11.4-23.4,23.3-46.7,37.9-68.4c14.5-21.7,30.5-42.3,47.7-61.9c25.4-28.7,53.9-54,84.4-77.1
				c16.2-12.3,33.5-23.2,51.2-33.4c2.4-1.4,4.5-2,6.5,0.7s2.4,5.3,0.1,7.6c-11.3,11.3-21.8,23.3-31.7,35.8
				c-11.2,14.3-23.1,28.2-33.9,42.8c-11.9,15.8-23.3,32-34.2,48.5c-15.6,23.7-29.6,48.4-42,73.9c-10.4,21.1-21.7,41.7-29,64.1
				c-6.4,19.5-12.6,38.9-17.1,59c-6.5,28.7-10.6,57.5-9.7,87c0.7,22.7,3.2,44.7,13.2,65.9c5.9,12.5,13.8,23.1,21.8,34
				c12,16.3,28.4,27.8,45,38.5c15.8,10,33,17.8,51,23c3.1,0.9,6.1,2.3,9.3,2.9c3.7,0.7,7.4,4.2,11.2,0.8c4.9-4.3,10.3-8.2,12.6-14.8
				c3.2-9-1.3-19.4-11.1-25c-18.6-10.6-37.5-20.5-55.8-31.5c-26-15.6-43.8-37.8-50.9-67.5c-2.4-10-3.8-20.7-3-30.9
				c2.1-29.8,9.9-57.8,26.8-83.3c11.2-16.9,24.8-31.2,38.9-45.3c2.4-2.4,5.2-4.5,8.3-6.1c1.9-1,4.9-1.4,6.6,0.3
				c2.2,2.2,1.6,5.5,0.6,8c-9.4,22.4-13.6,45.8-15.9,70c-2.1,22.2,1.9,42.1,13.3,60.8c3.5,5.7,8.6,10,14.3,13.4
				c3.4,2,6.8,0.9,9.9-1.5c16-11.9,23.4-29.4,30.9-46.9c10.4-24.3,18.3-49.4,25.4-74.8c5.2-18.6,11-37.1,14.7-56.2
				c1.2-6,3.7-11.8,6-17.5c1.1-2.9,4-3,6.8-2.9c3.3,0.1,6.5-0.7,8.3,3.6c5.6,13.6,8.6,28,12.6,42c5.1,18.2,9.8,36.5,15.3,54.5
				c4.5,14.6,10,28.9,14.7,43.5l7.7,17.6c3.5,10.3,9.9,19.1,16.2,27.8c3.6,5,8.2,10.4,15.2,10.9c10.3,0.8,15-7.7,19.8-14.3
				c11-15,13.7-32.8,14.2-51.8c0.8-3.1-0.9-6.7-1.1-10.5l-3.4-25.3c-3.4-14.2-6.8-28.4-11.9-42.1c-1-2.5-2.1-5.9,1-8s6-0.5,8.5,1.7
				c13,11.2,25.4,23,35.5,36.9l13,18c0.3,0.5,0.6,1.2,0.9,1.8c10.1,17.9,14.1,37.9,18,57.6c1.2,6,2.7,12.5,2.2,18.9
				c-0.5,8.5-1.5,17-3,25.4c-2.2,10.9-4.2,22-9.5,32.1c-6,11.5-15,20.1-24.6,28.7c-13.6,12.2-30,19.7-45.5,28.6
				c-11.2,6.4-23,11.5-32.5,20.9c-6,6-7.2,12.6-3.9,19.5c5.3,11.3,12.4,15.2,21.5,13c28.2-6.9,54.8-19.3,78.2-36.6
				c16.3-11.9,29.4-27.7,40.2-44.6c16.2-25.3,22.6-53.8,23.2-83.6c0.2-7.8,0-15.6,0-22.2c-2.1-14.3-4.4-27.2-5.9-40.2
				c-2.2-19.4-8.6-37.8-13.1-56.6l-8.1-24.1c-7.9-21.6-18.7-42-27.6-63.1c-7.9-18.9-17.4-37.1-28.3-54.4
				c-15-23.8-30.3-47.4-47.4-69.7c-17.7-23.1-34.8-46.6-55.3-67.5c-4.1-4.2-7.7-9-11.6-13.4c-1.8-2-2-4.3-0.3-6.3
				c2-2.4,4.7-2.1,7.2-0.9c12.4,6,24,13.4,35.1,21.4c11.7,8.3,23.2,17.1,34.5,26c6.8,5.2,13.5,10.5,19.7,16.4
				c13.1,12.4,26.7,24.5,38.5,38.1c9.3,10.7,18,22.2,26.9,33.2c13.2,16.3,25.9,33,36.2,51.3c11.6,20.6,23.9,40.8,32.4,63l6.2,15.4
				c4.3,11.8,7.6,23.8,11.2,35.8c6.3,21.2,10.1,42.8,13.3,64.6c3.5,24.1,2.9,48.5,4,72.7c0.5,10.7-2.6,21.4-3.6,32.1
				c-2.3,23.5-7.9,46.6-16.8,68.5l-8.4,17.2c-5.6,10.7-12.4,20.8-20.2,30c-11,13-23,24.9-37.1,34.7c-11.3,7.8-22.7,15.4-34.3,22.4
				c-16.2,9.8-33.3,17.9-50.1,26.7l-13.1,10.2c-3,3.9-9.5,5.8-7.4,12.7c2.4,8,19.8,20.8,28.6,20.8c6.9-1.9,14.4-3.9,21.9-6l19.5-6.9
				c6.3-3.4,12.6-6.7,18.8-10.3c30.1-17.3,56.5-38.8,77.9-66.5c11.4-14.5,21.3-30.2,29.3-46.9l11.1-25.4c9-23.9,14.4-48.7,18.3-73.9
				c3-20.3,4.9-40.8,5.6-61.4c0.7-19.4,0-38.8-2.1-58.2c1.1-4.2-1.3-8-1.6-12c-0.9-12.1-2.7-24-4.8-36c-4.1-23.2-10.8-45.6-17.7-68
				l-7-16.6c-10.2-27.3-23.3-53.3-39.2-77.7c-16.6-25.6-35-50-56.3-72.1c-11.7-12.1-24.1-23.5-35.6-35.7
				c-23.8-25.3-52.6-43.9-81.1-63c-26.5-17.8-54.9-32.1-84.2-44.6c-2.7-1.1-4.6-2.5-3.9-5.9s3.1-3.2,5.7-3.1
				c15.1,1,29.3,6.1,43.7,10.1c21.7,6,42.8,13.7,63.4,22.9c16.2,7.2,32.7,14.2,47.9,23.2c31.3,18.5,62.6,37.5,90.3,61.2
				c21.3,18.2,41.7,37.5,59.2,59.6l14.7,18.2c16.1,21,30.7,42.9,42.5,66.5l8.6,18.1c4.3,9.6,8.8,19.2,12.9,28.9
				c7.5,17.6,12,36.1,16.8,54.5c5.9,22.6,10,45.7,12.2,68.9c2.2,22.1,4.8,44.2,4.6,66.4c-0.2,17.7,0.2,35.6-2.2,53.1
				c-3.8,27.9-7.6,55.8-17,82.8c-6,17.3-11.9,34.5-19.7,51l-7.7,15.1c-6,11.9-12.7,23.3-19.7,34.5c-13.2,21.1-28.1,41.1-44.6,59.8
				c-12.7,14.5-26.4,28-39.9,41.7l-17.8,15.1c-17.2,16.4-36.6,29.9-55.9,43.5c-23.2,16.4-46.8,32.1-72.3,44.9
				c-6.7,3.3-13.2,7.1-19.4,11.3c-7.9,5.6-9.6,11.3-5.8,20.2c3.1,7.2,5.1,14.8,9.5,21.5c1.9,2.8,4.1,6.5,0,9.1s-7.5-0.7-8.8-3.7
				c-5.9-12.8-13.5-25.2-12.2-40.4c0.6-6.5,5.2-10,9.5-12.6c14.1-9,29.2-16.6,43.3-25.7s28.6-16.7,41.6-27.4
				c11.7-9.6,24.9-17.4,37.1-26.5c10.2-7.6,19.9-15.8,29.6-23.9l10.9-9.4c20-18.7,38.9-38.4,56.1-59.8c14.9-18.6,28.4-38.3,40.3-59
				L807.4,680.6z M847.9,247.9"/>
		</g>
	</g>
</g>
<g id="Layer_2">
	<text transform="matrix(1 0 0 1 933.6533 180.6643)" class="st1 st2 st3">1</text>
	<line class="st4" x1="916.9" y1="166.1" x2="743.4" y2="228.5"/>
	<text transform="matrix(1 0 0 1 925.726 704.5965)" class="st1 st2 st3">2</text>
	<line class="st4" x1="905" y1="667.6" x2="468.8" y2="536.3"/>
	<text transform="matrix(1 0 0 1 842.3908 862.4525)" class="st1 st2 st3">3</text>
	<line class="st4" x1="824.5" y1="820.1" x2="598.6" y2="670.5"/>
	<text transform="matrix(1 0 0 1 673.8669 991.1662)" class="st1 st2 st3">4</text>
	<line class="st4" x1="440.5" y1="714.2" x2="636.8" y2="957"/>
</g>
</svg>
