<?xml version="1.0" encoding="utf-8"?>
<!-- Generator: Adobe Illustrator 24.1.1, SVG Export Plug-In . SVG Version: 6.00 Build 0)  -->
<svg version="1.1" xmlns="http://www.w3.org/2000/svg" xmlns:xlink="http://www.w3.org/1999/xlink" x="0px" y="0px"
	 viewBox="0 0 610.3 1334.9" style="enable-background:new 0 0 610.3 1334.9;" xml:space="preserve">
<style type="text/css">
	.st0{fill:#F3933B;}
	.st1{fill:#F2953D;}
	.st2{font-family:'Verdana';}
	.st3{font-size:72px;}
	.st4{fill:none;stroke:#F2953D;stroke-width:6;stroke-linecap:round;stroke-linejoin:round;stroke-miterlimit:10;}
</style>
<g id="Layer_1">
	<g id="Layer_2_1_">
		<g id="Layer_1-2">
			<path class="st0" d="M329.3,92.9c-1.9,11-6.5,21.3-13.3,30.2c-1.4,1.8-1.5,3.9-1.5,6.1c0,58.8-0.5,117.7,0.3,176.5
				c0.3,20.8-0.5,41.6,0.8,62.3c1.8,29.1,0.7,58.2,0.8,87.2c0.3,53.3,0.1,106.7,0.1,160c0,2.4-0.8,6,1.5,6.7
				c1.9,0.6,1.7-3.4,2.9-4.9c7-8.6,14.7-16.6,24.2-22.4c7.3-4.4,12-1.5,12.1,8.4c0.1,11.6,1.2,23.2-0.7,34.8c0,0.9,0.2,1.8,0.6,2.7
				c0.7-0.3,1.4-0.6,2.1-1c12.4-9.1,24.3-18.8,38.2-25.7c3.4-1.7,2.1-5,1.6-7.5c-3.5-17.7-4.6-35-1.3-53.1
				c3.4-18.6,11.6-34,23.7-47.5c12.9-14.4,28.5-26.3,47.4-31.1c22.1-5.7,44.4-11.1,67.3-14c22.3-2.8,44.3-8.1,62-24
				c1-1,2.8-1.2,3.8-2.1c2.3-2,5.2-2.5,7.2-0.6c2.5,2.4,0.8,5.2-1,7.5c-9.2,11.8-19.8,23.1-24.9,37.3c-6.2,17.3-10,35.4-14.3,53.2
				c-2.2,9.1-6.4,17.7-9.7,26.6c-5.7,15.7-14.6,30.1-26,42.3c-8.3,8.9-18.1,16.2-28.9,21.7c-17,8.6-36.1,12.5-55.1,11.1
				c-12.5-1-24.9-3.6-36.8-7.7c-3.2-1.1-6.1-1.3-9.4,0.6c-17,9.8-32.9,21-46.8,34.9l-19.9,21.3c-13.3,17.3-20.2,36.7-20,58.7
				c0.3,30.2-0.1,60.4,0.2,90.6c0.1,10.5,1.9,21.1,0,31.6c-0.2,0.9-0.7,2.5,1,2.9s2.3-0.7,3-1.9c11-19.8,29.6-30.7,48.7-40.8
				c5.6-3,9-0.9,9.1,5.3c0.5,22.3-3.6,43.7-14,63.6c-1.5,3.2-3.4,6.3-5.7,9l-11.7,13c-6.2,6.1-13.9,10.6-22.3,13
				c-7.7,2.3-7.9,7.8-8,13.3c-0.4,11.4-0.2,22.7-0.1,34.1c0.2,12.8,0.9,25.5,0.9,38.3c0,17.6-1.5,35.2-0.6,52.8
				c1.2,23.7-1.1,47.4-0.1,71.1c1.1,27.2-1.5,54.4,0.1,81.6c1.4,25.1-1.6,50.1-0.1,75.1c0.7,11.2-1,22.3,0.6,33.5
				c0.7,4.9-1,9.4-8.1,7c-4.2-1.4-10.5,2.3-12.9-1.9c-1.9-3.2,0.5-8.7,0.1-13c-1.9-21.1-0.7-42.2-0.8-63.3
				c-0.2-48.6-0.1-97.1,0-145.7c0-9-4.3-16.7-7.4-24.7l-8.2-15.4c-5.6-8.1-10.7-16.8-17.7-23.4c-18-17-36.4-33.7-58.9-44.7
				c-1.3-0.7-2.8-1-4.2-0.7c-32.7,8-64.4,7.3-95.3-8.1c-23-11.4-37.9-30-49.8-51.6c-7.4-13.5-12-28-15.5-43
				c-4.8-20.4-6.4-41.2-9.8-61.8c-3.3-19.9-8.7-39.2-22.1-55.1c-2.5-3-3.2-7.2-6.8-9.4l0-5c7.8-5.6,11.6,2,15.7,5.5
				c13.4,11.5,29.1,20,46.1,25c17.4,5.3,35.3,9.1,52.5,14.7c30.3,9.8,58.9,23.5,80.2,48.3c16.2,18.9,25.5,40.9,26.4,66.5
				c0.7,19.8-1.1,38.8-8.8,57.1c-0.9,2.3-1.4,4.9,1.8,6.8c14,8.7,27.8,17.8,40.2,28.7c0.5,0.4,1.1,0.6,1.7,0.9
				c0.4-0.8,0.6-1.7,0.8-2.6c0.4-6.1,1.3-12.3,0.9-18.3c-0.5-7.2,1.6-14,2.2-21c0.2-2.8,2.5-4.4,4.6-5.5s3.9-0.2,5.8,1.5
				c8,7.2,16.5,13.8,22.2,23.1c0.5,0.9,1.4,2.3,2.7,1.6c0.5-0.3,0.7-1.7,0.7-2.6c0.4-21.9,1.5-43.9,0.7-65.8
				c-0.6-16.1-1.1-32.3-0.4-48.3c0.6-13,0.6-26,0.3-38.9c-0.1-7.2-0.6-14.5-0.5-21.8c0.1-15.6,1.3-31.2,0.7-46.8
				c-1.7-45.9-0.3-91.8-0.8-137.7c-0.2-19.5-1-39.1,0.2-58.6c1.6-26.6-1.9-53.1-0.1-79.6c1.8-27.1-11.5-47.7-27.1-67.6
				c-10.1-12.9-22.6-23-35.4-33c-7.4-5.8-14.4-4-21.7-2.4c-17.5,3.8-34.4,3.2-52.1-0.6c-19-4.1-35-12.4-48.5-25.9
				c-19-19-29.5-42.7-36-68.2c-4.7-18.2-6.1-37-9.2-55.5c-2.8-17.4-10.3-33.1-20.9-47.3c-1.9-2.5-3.4-5.2-4.7-8.1
				c-1-2-0.2-4.5,1.8-5.6c1.9-1.2,4.4-0.9,5.9,0.8c19.1,19.7,43.5,28.4,69.7,33.7c26,5.3,51.1,13.6,73.7,27.8
				c19.1,12,34.6,28,42.8,49.3c6.1,15.9,9.5,32.5,6.9,50c-1.5,10.2-2.6,20.2-6.1,30c-1.1,3.1-0.6,6.6,3.3,8.8
				c5.6,3.1,11.3,6.1,15.5,11.2c0.5,0.6,1.6,0.8,2.4,1.2c0.2-0.7,0.4-1.5,0.5-2.3c1-13,0.3-26,2.9-38.9c0.6-3.3,1.6-5.7,4.4-7
				c3-1.4,5.8,0,8,2.3l23.3,24.3c0.2-1,0.3-2,0.4-3c0.3-19.8,1.4-39.6,0.7-59.4c-0.5-13.6-0.6-27.2-0.6-40.8
				c-0.1-30.5,0-61.1,0-91.6c0-14.5-0.6-29.1,0.2-43.6c0.5-9-2.5-16.5-6.9-23.5c-10.7-17-10.8-35.2-7.9-54.1
				c2.2-14.5,8.2-27.6,13.5-40.9h21c4.1,10.3,9.3,20.1,11.8,31c1.3,5.4,4.3,17.3,4.1,25.1L329.3,92.9z M162.3,998.3
				c6.9,1.7,14.5-1.3,22.3-2.3c7.1-0.9,15.3-0.3,18.5-10.3c8.3-25.2,12.4-50.4,6.5-76.7c-4.9-21.7-18.1-38.3-33.3-53
				c-14-13.6-31.6-22.5-49.8-29.6c-8-3.1-16.3-5.5-24.5-7.9c-14.6-4.3-29.3-8.3-43.9-12.6c-10.7-3.1-20.8-7.6-30.3-13.5
				c-0.7-0.4-1.6-1.6-2.4-0.3c-0.2,0.8-0.1,1.6,0.3,2.3c5.6,9.7,8.1,20.6,10.2,31.4c3,15.7,4.8,31.6,7.3,47.4
				c2.9,18.9,6.9,37.5,14.9,55c6.1,13.3,13.3,25.9,23.1,37c4.9,5.5,10.3,11,16.1,14.7C116.5,992,137.8,998.9,162.3,998.3z M63.3,211
				c5.4,11,9,22.7,10.9,34.7c2.5,15,5.7,29.8,7.4,44.9c0.9,8.2,3,16.3,6.1,23.9c5.7,13.6,11.8,27.3,20.8,39.6
				c8.6,11.6,19.8,20.9,32.7,27.3c22.3,11.3,46.3,12,70.5,7.3c4.1-0.8,10.2-0.5,11.8-5.7s3.8-9.9,5.2-15.2c4.5-17.7,5.6-35,1.3-53
				c-5.9-24.2-19.8-42.6-39.7-56.9c-18.2-13.1-39.1-20.4-60.6-25.8c-15.5-3.9-31.1-7.1-46.2-12.2C76.8,217.6,70.7,214.3,63.3,211z
				 M457.1,625.9c6.9-1.2,14.4-1.5,21.8-3.1c18.5-4,33.7-13.4,46.4-26.9c16.3-17.4,26-38.4,32.9-61c7.7-25.2,9.3-52.6,25.3-75
				c0.6-0.9,1-1.9,0.1-2.6c-0.3-0.3-1.5,0.2-2.1,0.5c-15.3,6.9-31.8,9.1-48.1,11.9c-11.9,2-24.1,2.4-36,4.7
				c-16.3,3.1-31.9,9.1-46,17.8c-10.9,6.7-20.7,14.8-28.2,25.2c-13.3,18.5-20.6,39-18.9,62.2c0.7,10,1.2,19.9,4.5,29.5
				c1,3,1,6.2,4.5,7.6C427.2,622.1,441.7,624.7,457.1,625.9z M266.3,380.1c3.2,10.1-0.2,20.6,3.1,30.8c4,12.7,12.2,23.7,23.1,31.3
				c1.7,1.2,3.3,1.3,4.3-1.7c2.8-8.6,4-16.9,2.3-26.3c-3.3-18.4-12.7-32.9-25.4-45.6c-2-2-4.6-4.4-5.8,1.3
				C267.2,373.3,266.3,376.6,266.3,380.1z M267.5,1016.5c-0.5,20.8,8.1,36.9,24.7,49.3c2.8,2.1,3.3,0.9,4.4-1.3
				c4.9-10.5,4-21.2,1.6-32c-3.8-16.9-14.9-29.5-25.7-42.2c-1.4-1.6-2.8-1.8-4,1.3C265.3,999.9,268.1,1008.2,267.5,1016.5
				L267.5,1016.5z M337.6,663.3c8.5-14.3,11.2-29.9,10.8-46.2c-0.1-1.8-0.7-3.5-0.8-5.3c0-1.3,1.9-3,0-3.9c-1.7-0.7-3.7-0.3-5,1
				c-10.6,9.5-20.6,19.3-24.1,33.9c-1.4,5.4-3.5,10.5-5.3,15.7l0,0c2.8,6.7-0.2,13.7,2.3,20.2c1.3,3.5,4.1,4.4,6.3,1.7
				c1.6-2,3.6-3.7,5.7-5.2L337.6,663.3z M328.3,871.6c0-2.1-1.8-0.7-2.4,0.1c-1.2,1.6-1.8,3.6-1.7,5.6l0,0
				c1.2,10.7,2.4,21.5,3.9,32.2c0.2,1.6,0.2,5.2,3,4.5c2.7-0.8,4.2-3.6,3.4-6.2c0-0.1,0-0.1-0.1-0.2 M333.2,864.5
				c0.7,3.3,1.3,6.7,2.2,10c2.1,7.7,3.7,20,7,28.8c0.8,0.5,2.9-1.6,3.9-2.5c0.7-0.6,0.1-3.8,0-4.4c-2.3-11.1-4.6-22.3-7.2-33.4
				c-0.3-1.2,0-4.4-3-3.4C334.1,860.3,332.9,862.4,333.2,864.5L333.2,864.5z M319.9,886.1c-4,8.9-4.4,18.3-5.2,27.6
				c-0.3,3.3,2,6.4,6.4,5.8c4.7-0.7,3.5-4.4,3.2-7.3C323.4,903.4,320,895,319.9,886.1L319.9,886.1z M354.4,882.5
				c-1.7-7.7-3.8-17.2-5.9-26.7c-0.5-2,0.7-5.8-2.9-4.9c-3.1,0.8-2.8,4.6-1.9,7.2c3.4,9.7,5.2,19.8,6.6,29.9
				c0.2,1.4,0.1,2.6,2.1,2.6s2.8-1.1,2.8-2.4C355.3,886.9,354.4,885.5,354.4,882.5L354.4,882.5z M362.4,866.1
				c-1-4.5-2.6-11.1-3.9-17.8c-0.4-2.1,0.3-5.5-2.5-5.3s-3,3.7-2.5,6.2c1.5,7.5,3.3,14.9,4.9,22.4c0.3,1.4,0.7,3.4,1.9,3.3
				c1.6-0.2,2.4-2,2.2-3.9C362.3,870,362.4,869.1,362.4,866.1L362.4,866.1z M365.7,851.5l1.6-0.1c0.4-3.7,0.8-7.3,1.1-11
				c0.2-2-0.5-3-2.7-2.9s-2.6,1.3-2.3,2.9C364.1,844,364.9,847.7,365.7,851.5L365.7,851.5z"/>
			<path class="st0" d="M149.7,911.3c-0.4,11.8-0.2,25.9,7.8,38.5c4.7,7.4,13.1,10.1,20.1,14.4c3.5,2.1,5.5,4.4,3.6,7.6
				c-2.1,3.4-4.7,1-7.4-0.7c-12.1-7.2-24.1-14.7-34.9-23.8c-8-6.8-15.5-14.1-23.6-20.8c-7.4-6.1-17-7-25.9-9.2
				c-5.2-1.3-10.5-0.8-15.8-0.9c-2.5,0-4.5-1.1-4.5-3.5s2.1-3.6,4.6-3.4c7.2,0.4,14.5-1,21.6,1.6c1,0.4,2.2-0.1,3.3-0.1
				c-0.3-1.2-0.1-2.8-0.8-3.6c-11.1-13.2-16.6-29.5-24.2-44.6c-5.3-10.5-8.5-22-14.8-32c-1.6-2.6-1.3-5.4,1.6-6.8
				c3.2-1.6,4.8,0.8,6,3.4c7.8,17.1,15.6,34.1,23.5,51.1c8.9,19.5,22.5,35.3,38.5,49.2c4.5,3.9,8.8,8,13.2,12
				c0.8,0.7,1.5,2.2,2.8,1.4c0.5-0.3,0.6-1.9,0.4-2.7c-4.7-14.9-2.9-30-1.9-45.1c0.2-2.5,1.1-4.5,3.5-4.5c2.8-0.1,3.6,2,3.5,4.7
				C149.6,898.5,149.7,903.7,149.7,911.3z"/>
			<path class="st0" d="M178.8,873.3c-1.2-0.2-2.1-1.2-2.1-2.5c-0.3-2.3,1.4-4,2.7-4.9s1.8,1.5,2.1,2.5
				C182,870.7,179.8,871.7,178.8,873.3z"/>
			<path class="st0" d="M137.3,314.9c-13.2-16-22.4-33.9-30.5-52.5c-2.8-6.3-5.9-12.3-9.4-18.2c-1.7-2.9-2.8-5.9,0.1-7.7
				c2.7-1.7,5-0.1,6.7,3.2c10.4,19.6,19.3,39.9,30.8,58.9c6.3,10.3,15.3,18.2,24.2,26.2c4.3,3.9,8.9,7.5,13.1,11.5
				c1.7,1.6,3.5,2.4,5.3,1.5c2.3-1.1,0.1-3-0.2-4.2c-3-11.8-3-23.8-2.7-35.9c0.1-3,2.2-4.8,5.3-4.6c3.2,0.2,2.7,2.9,2.6,5
				c-0.7,15.7,0.6,31.2,6,46.1c1.1,3.4,3.4,6.3,6.6,8.2c5.8,3.4,11.3,7.2,17.1,10.5c2.2,1.3,2.9,2.8,1.8,4.8c-1,1.7-2.4,2.9-4.9,1.6
				c-10.5-5.2-20.5-11.3-30-18.3c-10.2-7.7-19.8-16.2-30.4-23.3c-10.1-6.6-21.6-7.6-33.3-4.1c-1.3,0.4-2.6,0.1-3.5-0.9
				c-1.8-1.6-1.3-3.7-1.1-5.6s1.8-2.1,3.4-2.1C121.9,314.9,129.4,314.9,137.3,314.9z"/>
			<path class="st0" d="M461.3,517.3v-11.1c0-1.9,0.5-3.4,2.8-3.3c2,0.1,3.7,0.5,4.2,3.1c1.4,6.6,4.1,13,1,19.9
				c-0.3,0.7,0.4,1.8,0.6,2.7c0.7-0.3,1.4-0.6,2.1-1c18.4-14.4,39.8-23.7,60.1-34.7c3.2-1.7,6.2-3.7,9.2-5.5
				c2.3-1.4,4.8-2.3,6.3,0.7s0.5,5.3-2.6,6.9c-9.8,4.9-19.5,9.8-29.1,15c-10.9,5.8-22.2,11-32.2,18.1s-18.6,16.4-26.3,26.3
				c-3.6,4.6-7.3,9.1-10.7,13.8c-0.6,0.8-2.1,2.1-0.9,3.4c1,1,2.1-0.2,3.2-0.5c12.8-3.5,26.2-4.5,39.4-3.2c2.6,0.3,4,0.9,3.9,3.8
				c-0.1,3.2-2.2,3.6-4.5,3.2c-12.8-2.2-25,1.2-37.3,3.5c-12.1,2.2-18.8,10.7-23.5,21.3c-0.8,2-1.8,3.9-2.8,5.7
				c-1.5,2.5-3.9,3.4-6.4,2s-1.7-3.7-0.7-5.7c9.1-19,21.1-36.2,34.5-52.3C459.6,539.4,461.9,528.2,461.3,517.3z"/>
		</g>
		<polyline class="st0" points="315.5,20.1 305.1,0 294.5,20.1 		"/>
	</g>
	<text transform="matrix(1 0 0 1 168.6197 601.7433)" class="st1 st2 st3">2</text>
	<path class="st4" d="M273.1,701.2c0,0-22.7,0.9-22.7-48c0-48.9,0.7-74-15.2-74c15.8,0,15.2-25.1,15.2-74s22.7-48,22.7-48"/>
</g>
<g id="Layer_2">
	<text transform="matrix(1 0 0 1 452.6458 221.6185)" class="st1 st2 st3">3</text>
	<line class="st4" x1="433.7" y1="193.6" x2="313.2" y2="86.4"/>
	<text transform="matrix(1 0 0 1 433.6856 766.3961)" class="st1 st2 st3">4</text>
	<line class="st4" x1="425.8" y1="714.6" x2="333.2" y2="647.1"/>
	<text transform="matrix(1 0 0 1 433.686 951.7845)" class="st1 st2 st3">5</text>
	<line class="st4" x1="412.4" y1="923.9" x2="341.1" y2="882.7"/>
	<text transform="matrix(1 0 0 1 138.2218 1162.9205)" class="st1 st2 st3">1</text>
	<line class="st4" x1="286.2" y1="1073.9" x2="202.9" y2="1123.1"/>
</g>
</svg>
