<svg xmlns="http://www.w3.org/2000/svg" viewBox="0 0 626.41 621.94"><defs><style>.cls-1{fill:#f3933c;}</style></defs><g id="Layer_2" data-name="Layer 2"><g id="Layer_1-2" data-name="Layer 1"><path class="cls-1" d="M154,361.42c4.24,7.94,9.08,15.45,17,20.22,4.54,2.74,13-2.49,13-7.81V136.63q0-64,0-127.9c0-2.17-.08-4.31,1.23-6.19.84-1.21,1.65-2.79,3.38-2.51s3.7.87,4.24,2.88A27.19,27.19,0,0,1,194,9.63c.07,28.28-.07,56.57.09,84.85.11,20.94,1.36,41.91.72,62.83-.87,28.57-1.14,57.13-.59,85.68.5,26.56.72,53.12.82,79.68,0,1.18-.82,3.07.89,3.44,1.87.4,2.13-1.76,2.8-2.95,4.43-7.87,10.51-13.7,19.37-16.31,7.51-2.22,15.13,2.29,18.07,9.62,3.9,9.72,1.19,19.28.14,28.79-.86,7.73-5.28,2.41-8.36,1.27-1.38,3.86-1.58,4.1,1.3,6.56,10.23,8.72,20.33,17.56,31.12,25.64,9.58,7.18,18.06,15.83,27.17,23.66C301,414,314.66,425.52,328.28,437q24.86,21,49.79,41.94c14.73,12.29,29.62,24.39,44.41,36.61,2.54,2.1,5.3,4.09,7.32,6.64,7.48,9.39,17.64,9.45,28.26,9,9-.39,18-.08,26.95-.07,2.19,0,4.58-.27,4.5,3.05-.06,2.95-2.2,2.83-4.25,2.83-15.47,0-30.95.26-46.41-.13-6.58-.16-10.11-6.29-14.61-10-26.12-21.62-51.92-43.62-77.8-65.54q-39.49-33.43-78.94-66.95c-14.38-12.16-28.88-24.19-43.31-36.31-1.14-1-2.46-2.64-3.68-1.3a3.42,3.42,0,0,0,.44,4.93c3.63,2.72,5.63,7.22,10.32,8.84,1.67.58,3.76,2.17,3.48,4.41s-2.65,2-4.28,2.54A237.35,237.35,0,0,1,180.68,389c-10.63,1.31-18.26-5.21-24.67-13a5.7,5.7,0,0,0-2.7-2.25c3.64,8.46,7.87,16.42,15.86,21.69,2.79,1.84,8.59,2.94,7,6.51-2.43,5.56-6.85.83-9.91-.78-5.39-2.83-9-7.83-13.12-12.3a46.66,46.66,0,0,0,10,16.48c3.5,3.73,7.13,7,12.34,8.24,1.76.4,1.86,2.39,1.35,3.81-.8,2.25-2.67,1.92-4.58,1.46-7.16-1.69-11.28-7.62-16.83-11.73,3.28,9.48,8.69,17.08,18.18,21.28,1.84.81,4.54,1.55,3.25,4.35s-3.87,1.63-5.89.82c-6.24-2.48-11.6-6.13-15.24-12a5.48,5.48,0,0,0-3.06-2c5.13,9.89,10.41,19.6,21.41,24.2,2.38,1,3.76,2.53,2.6,4.9s-3.73,2.08-5.6.92c-5.57-3.47-11.67-6.3-15.79-11.88,3.34,9,8.9,16.1,17.5,20.48,2.24,1.14,5.18,1.82,4,5.06-1.3,3.59-4.2,1.55-6.33.87-6.77-2.15-10.54-8.25-15.78-12.58-.2,5.92,10.87,19.82,18.17,22.5,2.45.9,5,2,3.76,4.53-1.36,2.82-4.4,1.91-6.93.72-5.47-2.56-9.84-6.53-14-10.79l-1.47-1.62c-.21.94-.36,1.86.72,2.41,4.31,8.61,9.27,16.59,19.07,20,2.34.81,3.61,2.71,2.78,5.08-1,2.83-3,1.29-4.89.76-7.44-2.06-12.28-7.5-17.46-14.18.89,8,12.1,21.48,18.24,23.24,1.69.48,3.67.91,4.15,3a2.43,2.43,0,0,1-.94,3c-2.08,1.41-3.69.43-5.51-.31-6-2.43-10.47-6.73-14.29-11.78-.7-.93-1.19-2.24-2.54-1.54-.35.18-.38,2,.07,2.59,6.07,7.93,10.4,17.55,20.83,21.28,1.6.57,3.34,2.15,2.14,4.31s-3.53,1.71-5.33,1c-5.67-2.37-10.58-5.83-13.94-11.12-.72-1.13-1.28-2.91-2.7-2.11s-.28,2.37.36,3.52c4.44,8,9.49,15.44,18.52,18.9,2.66,1,4.37,2.53,3.28,5.41-1.39,3.66-4.12,1.1-5.87.55-5.75-1.8-9.92-6-13.68-10.5-1.05-1.25-1.68-2.75-3.47-3.19.38,6.67,11,19.63,19,22.71,2.37.92,5,1.93,3.92,4.5-1.28,2.94-4.44,2.11-6.9.91-6.29-3-11.42-7.53-16.76-12.43a67.93,67.93,0,0,0,3.49,6.11c4.57,6.42,8.95,13,16.75,16.16,2.37.95,5,2.29,3.39,5.37-1.71,3.29-4.31,1.17-6.39.11a46,46,0,0,1-14.79-11.86c1.76,8.44,6.18,12.35,10.1,16.45,2.82,3,5.85,5.73,10.25,6.32a2.36,2.36,0,0,1,2.27,2.67c-.11,2.12-1.84,2.48-3,2.62-4.6.5-8.08-2.07-11.42-4.79-2.7-2.21-4.48-5.62-9.25-6.88,4.64,9.25,10.11,16.44,18.71,20.87,2.23,1.15,5.42,2.47,3.47,5.18-1.28,1.78-4.61,1.24-7.2-.25-4.56-2.62-9-5.3-13-10.69-.61,6.93,4,9.43,6.5,12.75,2.95,3.85,6.4,7.6,11.6,8.77,2.87.65,3.17,3.08,2.36,5.08s-3.09,1.28-4.72.61c-7.62-3.15-13.14-8.95-19-15.19.53,8.66,9.11,12.36,11,19.7h-7c-1-1.48-1-4.14-3.58-3.88s-.91,2.58-1.42,3.88h-9c0-38.27.83-76.55-.26-114.79-.64-22.57-.28-45.12-.67-67.68-.13-7.41.6-14.84,1-22.26.25-4.76-1.41-5.43-6-4.11-23,6.62-46.21,12.57-69.8,2.22-10.29-4.52-18.35-11.79-25-20.74C25,371.46,12.25,345.91,1.76,319.14c-1.2-3.06-3.31-6.68.07-9.58,3.88-3.34,6,.65,8.76,2.5a99.43,99.43,0,0,0,35.07,14.33c14.48,3.07,29.1,5.55,43.47,9.06,22.93,5.62,41.18,17.61,51.06,40.07.41.91,1.07,2,2.13,1.45.56-.3.77-1.65.78-2.53.14-10.76-.8-21.51-.85-32.24-.31-71.55-.16-143.12-.16-214.68,0-33-.07-66,0-98.95,0-7.92.73-15.83,1-23.75.08-2.68.89-4,3.77-3.93s4.89.87,5.2,4c1.35,13.78,9.51,22.61,21,29,1.76,1,4.74,1.43,3.65,4.32-1,2.6-3.93,2-5.75,1.41-6.88-2.13-11.44-7.39-15.88-12.71a8.11,8.11,0,0,0-2.88-2.48c4,10.16,9.45,19.26,19.74,24.19,2.42,1.16,5.15,1.75,3.87,4.79-1.21,2.88-4.48,1.69-6.48,1a25.6,25.6,0,0,1-11.18-7.89c-.69-.83-1.71-1.39-3.94-3.15,4.26,10.33,10,17.17,18.63,21.2,2.45,1.16,3.91,2.19,2.89,4.54-1.14,2.65-3.29,1.65-5.47.8-6.12-2.37-10.57-7-15.62-11.79.66,7.91,10.38,19.5,17.92,21.62,2.55.71,5.12,1.68,4.08,4.26-1.22,3-4.32,1.93-6.87,1-6.18-2.31-10.28-7.39-15.45-11.23,3.75,8.83,8.83,16.66,17.81,20.84,2.87,1.34,5,2.48,3.57,5.49-1.32,2.83-3.46,1.22-5.8.35-5.76-2.15-9.87-6.32-14.8-9.83,3.27,6.66,6.8,13.08,13.34,17.28a19.8,19.8,0,0,0,4.79,2.47c2.27.67,4.34,1.63,3.16,4.18-1.06,2.29-3,2.57-5.8,1.42-8.13-3.3-12.72-10.5-19.38-16.7-.12,5,3.35,7.45,5.31,10.48,4.43,6.85,8.9,13.79,17.54,16.13,2.11.57,2.41,2.46,1.77,4-1.09,2.67-3.64,2.2-5.57,1.4a33.42,33.42,0,0,1-15.22-12.57,36.35,36.35,0,0,0-2.35-2.84c-2.11,4,1.59,5.54,2.85,7.64,4.45,7.44,9.65,14.37,18.27,17.56a3.09,3.09,0,0,1,2.08,4.29c-.86,2.4-3.06,1.5-4.58.95-6.72-2.45-12-6.88-16.63-12.26l-1.42-.79.7,1.53c4,9.48,9.52,17.44,19.64,21.26,1.59.6,3.82,1.15,3.23,3.66s-2.78,2-4.52,1.89c-5.72-.24-9.46-4.13-13.08-7.8a15.74,15.74,0,0,0-5.08-3.38,50.78,50.78,0,0,0,13.41,18,18.67,18.67,0,0,0,5.69,2.86c2.24.85,3.51,2.39,2.57,4.52-1.15,2.61-3.28,1.78-5.48.93-5.33-2.06-9-6.4-14.74-10.09,2.35,8.57,7.43,13.51,13.63,17.7,2.49,1.67,7,1.24,6.76,6,0,1,.16,2-1.3,2.23-3.92.53-7.11-1.09-9.81-3.63-3.8-3.57-8.45-6.28-11.32-12.11.08,8.17,10,20.7,18.66,24.34,2.32,1,4.91,1.73,3.55,4.59s-4.51,2.19-6.91,1.05A41.81,41.81,0,0,1,152.48,193c2.35,7.44,7.13,13.26,12.46,18.46,2.33,2.27,4.46,5.32,8.29,5.9,2.31.35,3.57,2.24,2.63,4.41-1.13,2.63-3.28,2-5.44.94-5.93-2.87-10.91-7-15.87-12,.51,6.84,12.53,20.75,18.48,21.79,1.65.29,3.55,0,3.81,2.19a4,4,0,0,1-.82,3.14c-1.49,1.29-3.28.71-5.11.15-6.64-2-11-6.92-15.49-11.75-.88-1-1.09-3.37-2.93-2.07-1.25.88.18,2.24.92,3.36,5.77,8.7,11.47,17.41,22,21.2,1,.37,2,1.3,1.07,2.74a4.09,4.09,0,0,1-4.72,1.91c-7.3-1.73-12-7-16.46-12.46-.9-1.1-1.4-2.45-3.39-3,3.32,11.38,11.42,17.78,21.14,22.52,2.25,1.1,4.74,1.9,3.5,4.7-1.07,2.4-3.54,1.48-5.68.8-5-1.6-8.54-5.1-11.92-8.89-.8-.89-2.85-2-3.28-1.66-1.39,1.08-.53,2.64.32,3.86,4.55,6.49,9.24,12.94,16.85,16.13,2.35,1,5,2,3.78,4.52-1.35,2.77-4.39,1.9-7,.69-5.38-2.54-9.84-6.35-15-12a24,24,0,0,0,7.93,14.37c3.45,3.09,6.23,7.84,12,8a2.83,2.83,0,0,1,2,4.27c-1.08,1.81-2.42,2.61-4.95,1.57-6.85-2.83-12.17-7.46-16.9-13l-1.42-.78.7,1.53c4.37,8.87,9.33,17.14,19.19,21.11,2,.79,4.61,2.48,3.5,5.21s-3.43,1.31-5.55.68c-4.81-1.42-8-5-11.6-8a12,12,0,0,0-3.08-1.38,3.42,3.42,0,0,0,.46,3.67c4.8,6.3,8.86,13.32,17.22,15.83,1.49.44,3.5,1.43,2.22,4-1.4,2.85-3.46,1.78-5.42,1.11-6-2-10.26-6.68-16.89-11.3,5,9.42,9.61,16.44,18.1,20.05,2.53,1.08,5.73,2.44,4.1,5.88s-4.26,1.06-6.71.24c-6.47-2.18-9.88-8.08-15.35-11.57,4.26,8.63,8.52,17.31,18.25,21.3,2.54,1,5.72,1.81,4.3,5.2-1.56,3.71-4.32,1.07-6.7.31-7.2-2.3-11.36-8.24-16.57-13.18,2,7.9,7.07,13.78,12.76,19.15,2.07,2,4.86,3.2,7.45,4.52,2.06,1.05,4.14,2.06,2.85,4.73s-3.38,2.5-5.8,1.16a73.37,73.37,0,0,1-16-12.58l-1.42-.77Zm.71-62.64-1.42-.78.7,1.53c.31.66.6,1.34,1,2a5.92,5.92,0,0,0,1-.39ZM95.92,413.23c4.52-.68,9.08-1.14,13.53-2.1,9.84-2.15,19.57-4.85,29.47-6.69,3.55-.66,3.4-1.67,2.61-4.44-2.26-7.93-6.26-15-10.12-22.2-11.21-21-29.62-31.76-51.92-36.27-20.24-4.1-40.85-6.46-60.09-14.62-1.31-.55-2.74-.93-3.69,0-.38.38.39,2,.79,3a251.78,251.78,0,0,0,31.2,56.31C59.71,402.68,74.87,413.2,95.92,413.23Zm122.72-88.48c-.45-.93,2.06-4.15-1.22-5.24-3.58-1.18-5.69,1.13-7.31,4.17-1.22,2.28-3.24,4.17-4.23,6.51-1.48,3.49-2.36,7.49.92,10.38s6.21-.36,7.4-2.3C216.47,334.56,220.14,331.05,218.64,324.75Zm-63,266.61c.89-1.83-.3-3-1.31-4.19-.07-.07-1,.3-1.09.58C152.73,589.74,154,590.68,155.62,591.36Zm-.07-423.9c.76-2.28-.07-3.07-1.1-3.61-.2-.1-.82.6-1.25.94Zm-1,103.07c.84-2.49.13-3.41-1.33-3.81-.23-.07-.94.7-.91.75C152.85,268.36,153.51,269.2,154.51,270.53Zm1.34,289.73c.26-1.87-.4-2.71-1.62-3-.26-.07-1,.48-1,.69C153.37,559.36,154.27,560.08,155.85,560.26ZM154.14,72c-.36-.38-.62-.89-.93-.92s-.65.44-1,.69L153.35,73ZM153.54,211c.17-.51.45-.92.38-1.27s-.49-.65-.76-1c-.3.43-.75.84-.83,1.3C152.3,210.32,153,210.65,153.54,211Zm1.6,194.89-.63-1.45-1.27.92c.28.34.5.79.86,1S154.73,406.11,155.14,405.93Zm-1.79-363.7-.42-.79c-.23.22-.54.4-.66.67-.05.11.29.48.52.58S153.16,42.4,153.35,42.23Zm.94,211.44-.69.39c.13.21.29.61.37.59a4.4,4.4,0,0,0,.95-.41Z"/><path class="cls-1" d="M185,621.94c0-23,.52-45.93-.06-68.88-1-37.4-1-74.8-.89-112.2,0-8.75.61-17.5,1-26.25.13-2.86-.37-5.07-3.31-6.49a5.1,5.1,0,0,1-2.61-5.47c.32-2.27,2.07-3.08,4.23-3.5,8.46-1.66,17-3.09,25.33-5.27,11.42-3,22.78-6.31,34-10,5.29-1.76,7.47,1.6,8.64,4.86,1.27,3.55-3,3.68-5.14,4.35-9.3,2.9-18.7,5.46-28.08,8.07-1.31.37-2.87.48-2.93,2.09s1.8,1.08,2.71,1.45c18.35,7.3,30.32,21.37,41,37.24,8.91,13.19,18.41,26.09,32.51,34.57,3.68,2.22,7.68,3.43,11.68,4.74,2.7.88,5.81,1.6,5.53,5.21-.29,3.84-3.41,3.81-6.35,3.74-3.16-.06-6.33-.11-9.48,0-1.32.06-3.22-1-3.87,1.05-.56,1.76,1,2.75,2.14,3.62q21,16.56,42.13,33,24.21,18.87,48.47,37.65c14.51,11.2,29.11,22.28,43.66,33.43a54.61,54.61,0,0,1,4.52,3.79c4.3,4.1,8.85,6.67,15.31,6.41,12.62-.52,25.28-.13,37.92-.17,2.93,0,6.43-.08,6.16,3.75-.23,3.27-2.92,2.92-6,2.46-4.11-.61-8.47.75-12.71.69-10.94-.16-21.87-.61-32.81-1-8.11-.28-12.19-7.21-17.79-11.36-18.65-13.84-36.88-28.25-55.21-42.53q-35.64-27.76-71.21-55.65c-6.19-4.83-12.64-9.32-18.68-14.32-3.29-2.72-7.16-3.25-10.92-3.81-16.71-2.46-31.94-9.66-42.89-21.48A128.46,128.46,0,0,1,200,434.17c-1.19-2.49-2.7-4.83-5-8.93V434q0,90.86,0,181.7c0,2.12.37,4.32-.94,6.25Zm17.15-211.63c-.23.08-1.56.13-1.87.72s.25,1.79.64,2.62c5.19,11.06,10.63,22,16.78,32.56,7.71,13.28,19.2,21.57,32.23,28.43.73.38,1.82.07,2.74.08-.4-.83-.59-1.91-1.24-2.44-2.89-2.41-5.94-4.62-8.86-7-2.19-1.78-1.78-2.93.76-4.28,5.2-2.77,7,2.32,9.87,4.22,7.59,5,13.9,11.85,22.52,15.37,1.41.58,3.08,1.35,3.9-.28s-.56-2.48-2-3.34c-2.66-1.58-5.68-3.08-7.51-5.42-10.27-13.11-20-26.66-30.37-39.66C230.32,420.11,218.5,411.82,202.17,410.31Z"/><path class="cls-1" d="M515.43,147.62c-6.09,2.27-12.15,4.61-18.27,6.78-12.52,4.43-25.74,6.19-38.71,7.9-13.16,1.73-26.14,4.23-39.13,6.63-25.07,4.63-48.55,13.91-69.5,28.39-19.09,13.21-33.15,31-40.88,53.11-6.49,18.57-7.52,37.62-4.52,57.2,1.29,8.42.62,17,6.05,24.35,1.18,1.59,0,3.38-1.48,4.78-14.67,14.13-32.77,22.71-50.83,31.29-3.34,1.59-6.73-.71-8-3.85-1.48-3.56,1.53-4,4.4-5.28A185.06,185.06,0,0,0,296,334.74c2.64-2.08,2.39-5,1.66-7.28-7.12-21.93-6.62-44.42-2.33-66.38a108.3,108.3,0,0,1,25.6-51.16c23.74-26.87,54.65-40.1,88.65-48.47,23.85-5.87,48.23-8.15,72.25-12.7,20.84-3.95,37.67-15.84,54.9-27,2.65-1.7,4.86-3.26,7.35-.72a5.9,5.9,0,0,1,.3,8.1c-6.44,8.05-12.87,16.07-18.72,24.6-7.22,10.52-11.18,22.32-15.07,34.19-3.17,9.68-6.07,19.47-7.21,30.92,7.59-5.35,14.79-9.79,21.27-15.11,12.77-10.52,27.59-18.23,39.85-29.46a11.2,11.2,0,0,1,7.75-2.66c16.64.14,33.28.06,49.92.06,2.11,0,4.29-.55,4.24,3s-2.46,2.79-4.43,2.84c-16.1.38-32.2.64-48.29,1.12-5.45.16-9,4.39-13,7.27-12.84,9.27-25.41,18.87-38.43,27.92-6.94,4.83-13.77,10-20.53,15.13-2.7,2.07-3.16,5.65-3.91,8.81-4.93,20.83-14.57,39.62-25.19,58-13.23,22.82-32.28,39.61-55.88,50.59-20.74,9.65-43,11.88-65.86,9.18-8.95-1.05-17.93-1.45-26.62-4.16-2.09-.65-3.57,1-4.3,2.64s.65,2.39,1.9,3.45c17,14.32,33.72,28.87,50.7,43.17,17.51,14.75,35.21,29.27,52.79,43.93a46.19,46.19,0,0,1,5.75,5.52c5.35,6.27,12.37,6.41,19.82,6.17,10.47-.34,21-.05,31.45-.11,2.83,0,5.94.16,5.87,3.6s-3.31,3.4-6.07,3.38c-10.15,0-20.36-.7-30.43.17-11.23,1-19.63-2.89-28-10.2-26.19-23-52.94-45.29-79.55-67.79-9.23-7.8-18.74-15.27-27.95-23.09-3-2.55-5-2.13-8.15,0-10.6,7.35-21.48,14.29-33.54,19.17-4.82,2-7-1.82-8.42-4.34-1.79-3.16,2.44-3.68,4.32-4.55,16.78-7.79,32.87-16.62,45.75-30.22,4.59-4.85,9-.29,12.71.51,17.66,3.78,35.33,6.51,53.24,3.4,20.47-3.56,39.16-11.13,55.28-25C456.42,305,468.41,284.44,478.07,262c2.81-6.54,6.33-12.69,8.13-21.07-7.86,5.45-14.32,10.46-21.29,14.62-8.36,5-17.15,9.26-24.38,16-1.87,1.74-3.49.62-4.38-1.09-1.18-2.25-.91-4.59,1.36-6.15,2.83-1.94,5.58-4.2,8.71-5.45,15.29-6.09,26.74-17.89,40.06-26.88,6.42-4.32,5.09-13.35,7.24-20.25,4.8-15.35,6.74-31.58,14.49-46,3-5.6,5.46-11.51,8.16-17.28l.79-1.42Z"/><path class="cls-1" d="M401.58,285.42c-14.37-2.31-28.47-.86-42.4,3-6.28,1.76-11.89,4.21-15.27,10.41-3.19,5.87-6.88,11.47-10.39,17.16-1.45,2.34-3.24,2.89-5.81,1.37-2.85-1.69-1.51-3-.42-5.14a186.06,186.06,0,0,1,37.09-50.89c14.19-13.65,16.37-29,16.4-46.38,0-2.63-.1-5.72,3.94-5.29,3.81.39,4.36,3.54,3.81,6.27-1.44,7.09,1.14,14.66-2.67,21.45a2.08,2.08,0,0,0,.77,1.92,2.63,2.63,0,0,0,2.21-.52c20.68-17.44,46.09-26.11,69.87-37.8a50.48,50.48,0,0,0,5.39-3.37c2.16-1.44,4.59-2,6,.43s-.35,4.16-2.58,5.53c-13.42,8.27-28.17,13.81-42.28,20.65-15.77,7.65-29.61,17.77-42.78,29.39a219.84,219.84,0,0,0-22.26,22.82c-1.16,1.37-2.9,2.94-1.92,4.58.46.77,3.3.79,4.68.23,13.19-5.43,26.8-3.82,40.4-2.82,2.32.17,3.48,1.12,3.19,3.36C406.2,284.67,404.25,285.62,401.58,285.42Z"/><path class="cls-1" d="M467.73,550.08c5.7-.51,11.26.65,15.06,5.81,4.51,6.14,3.59,12-1.84,17.13-2.53,2.37-3.56,4,.23,6.26,5.92,3.55,6.36,9.71,5.09,15.4s-6.43,8.81-11.62,11.24c-7,3.29-13.63,1.45-20.09-1.56-5.15-2.4-7.39-6.46-7.07-12.34.24-4.51,3-6.25,6.41-7.69,3.21-1.36,5.25.59,7.26,2.75s1.83,4.13.58,6.34c-1.17,2.05-4.28,4.28-1,6.33s7.55,2.51,10.34-1.06a12.6,12.6,0,0,0,1.67-13.05c-1.78-4.32-5.3-6-10-5.68-2,.13-4.88.85-5.07-2.33-.14-2.51,2.12-3.14,4.34-3.84,3.82-1.21,8.56-.21,10.85-5.33,2.71-6.06-1.55-13.59-8.23-13.43-4.42.11-3.59,3.87-2.88,5.89,1.26,3.58,0,6.17-2.58,7.55a6.7,6.7,0,0,1-7.46-.72c-3-2.47-2.8-5.65-1.65-8.57C453.2,551.37,459.77,549.6,467.73,550.08Z"/><path class="cls-1" d="M465.93,448.22c-4.33,0-8.65,0-13,0-1.73,0-3.87.74-4.94-1.35s-.39-4.22.82-6.06a74.34,74.34,0,0,1,19.68-20.51c5.81-4,5.17-10.12,5-16-.07-2.88-2-4.06-4.41-5.19a6.41,6.41,0,0,0-8,1.59c-1.75,2.08-.35,4.53,1.67,6.48,4.55,4.39-.76,6.24-2.83,8-3.53,2.93-6.87.76-9.1-2.47-3-4.31-.45-12.5,5-17.05,5.63-4.71,19.79-4.05,25.33.79,8.61,7.51,6.2,21.87-6.51,29.94-4.53,2.88-8.54,6.59-12.87,9.81-1.77,1.31-1.9,2.85-.31,3.89,4.68,3.08,15.21-.92,17.34-6.11.69-1.68.28-5.19,3.5-4.4,3,.74,2.78,4,3.15,6.48,0,.3-.17.62-.24.94C482.58,448.22,482.58,448.22,465.93,448.22Z"/><path class="cls-1" d="M477.56,492.27c0,3.5-.2,7,.06,10.47.21,2.87-1.88,8.06,4.91,5.64,1.21-.43,2.65,1.33,2.9,2.87.29,1.82-.85,2.87-2.61,2.82-3.15-.11-5.52.11-5.36,4.39.15,3.85,2.47,3.68,5.06,3.66,1.45,0,2.86.46,2.75,2.1s-1.57,1.88-3,1.88H461.83c-1.44,0-2.87-.27-3-1.89s1.27-2,2.75-2.14c2.8-.24,4.17-1.9,3.88-4.67-.3-2.95-2.28-3.46-4.93-3.34-4,.19-8,0-12,.06-4.84.06-5-3.36-3.25-5.91,8.13-11.65,16.68-23,25.15-34.43,1.29-1.75,3.14-3.59,5.43-2.26s2.44,3.46,2,6.33c-.74,4.7-.2,9.61-.2,14.42ZM459.63,509.5c9.68-.82,2.45-9.62,5.8-13.42.57-.64-.33-2.49-1.34-1.79a25.34,25.34,0,0,0-9.28,12.54C453.53,510.44,457.63,508.47,459.63,509.5Z"/><path class="cls-1" d="M602.19,166.67c-4,0-8,0-12,0-2,0-3.67-.33-3.75-2.84s1.2-3.41,3.41-3.13c5.77.72,6.87-2.19,6.65-7.31-.38-8.47-.33-17,0-25.44.17-4.62-.94-7-6-6.33-2.43.31-5.19.55-5.12-3.44s2.8-3.7,5.23-3.38c4.26.57,7.32-1.72,10.21-4.07,1.68-1.36,3.36-2.72,5.26-1.81,2.26,1.1,2.21,3.75,2.22,6,.05,13.19.2,26.39-.07,39.57-.09,4.61.95,6.93,6,6.28,2-.26,5-.82,4.94,2.42,0,2.76-2.35,3.6-5,3.53C610.17,166.6,606.18,166.67,602.19,166.67Z"/></g></g></svg>