<svg xmlns="http://www.w3.org/2000/svg" viewBox="0 0 655.51 760.09"><defs><style>.cls-1{fill:#f2953d;}</style></defs><g id="Layer_2" data-name="Layer 2"><g id="Layer_1-2" data-name="Layer 1"><path class="cls-1" d="M269.69,649.18c.77,3.79,3.82,2.27,5.36,1.59,2.85-1.25,5.33-1.75,8.39-.72,3.61,1.22,6.22-1,8.53-3.51a3.55,3.55,0,0,0,.69.65c-.27,3.68,1.2,3.88,3.63,1.74,3.66-3.22,7.3-6.46,10.83-9.82,1.42-1.34,3.3-2.91,4.64-1.46s-.88,2.68-2,4c-2.74,3.25-7.16,4.73-9.69,9.44,7.14-1.53,11.78-5.44,16.12-10,1.05-1.08,2.36-3.63,3.7-2.45,1.94,1.71-.73,3-1.74,4.36-1.43,1.88-3.82,3-4.75,6,7.25-1.51,9.77-9.68,17.29-11-1.42,4.55-5.26,5.69-7.68,8.19-.95,1-2.11,2.06-1.15,3.4s1.95-.46,3-.54c.76,0,1.61-1,2.23-.79,11,2.88,17.29-5.51,25.07-10.28,1.22-.75,2.39-2.75,3.68-1.35s-.86,2.46-1.76,3.35c-2.65,2.64-4.87,5.87-9.08,6.48-1,.14-3,.66-2.38,2.51.76,2.26,2.86,1.34,4.21,1,2.59-.76,5.11-4.27,7.55-2.51,4.74,3.4,8,.23,12-.93,1.9-.55,5.25-6.55,6.89.52,0,.21,1.36.43,1.87.19,5-2.42,10.62,1.26,15.57-1.87,1.17-.74,4-2.46,3.72,1.57-.05.73.95,1.49,1.14,1.1,2.78-5.47,8.53,0,11.91-3.3a3,3,0,0,1,3.75,0c6.44,4.62,14.1,1.77,21,3.47.9.22,2.5.69,2.92-.94s-.56-2.36-1.87-3a13.44,13.44,0,0,1-4.05-2.71c-1.13-1.28-2.46-2.86-1.5-4.86s2.49-.56,3.82-.45c1,.09,2.46.55,2.71-1.26.19-1.42-.06-2.72-1.42-3.43-3.11-1.64-8.61-1.6-5.16-7.8.15-.27-3.24-2.2-5.1-1-3,2-6.33,1.58-9.6,1.59-15.31,0-30.63-.41-45.92.11-19.51.67-39,1.75-58.52,2.54-15.56.64-31.12,1-46.69,1.9-8.75.5-17.7,1.27-26.57.41-4.39-.43-8.23-.8-5.79-7,1.46-3.72-1.27-6.82-3.31-9.3-1.85-2.25-3.57,1.19-5.45,1.82-5.2,1.76-8,0-8.06-5.54,0-6.65.85-13.45-.21-19.94-1.62-10-.55-19.59.42-29.52.37-3.79,2.92-10.89-2.84-14.89-.69-.48-.36-2.52-.37-3.84-.16-11.59.44-23.2-1.86-34.7-.67-3.32.24-6.33,2.54-9.57,2.56-3.62,3.1-8.73,4.25-13.26.47-1.88,1-3.35,3.12-2.87s2,2.34,1.83,4.05c-.38,3.86-3.8,7-2.71,11.28,3.52-3.42,6.26-16.57,4.23-20.53-1.21-2.36-2.7-3.26-4.49-.39-2.28,3.63-4.67,3.56-7,0-.89-1.34-1.4-3.12-3.62-2.53s-1,2.43-1.35,3.72c-.27,1,.53,2.48-1,3a3.41,3.41,0,0,1-4-1.3c-1.56-2-3.74-3.58-5.95-2.23s-1.39,4.37-.66,6.34c7.66,20.58,7.4,42.05,7.69,63.54.31,23.35,1.19,46.7,2,70,.14,4.26-1.34,7.35-4.88,9.57-.55.34-1.51.69-1.54,1.09-.64,8.66-7.24,5.71-11.87,5.91-12.29.53-24.6.8-36.9.95a87.39,87.39,0,0,1-12.29-1c-1.71-.22-4.14-.86-4.1-2.86.05-2.52,2.6-2,4.31-2,9,0,18,.13,27,0,8.1-.16,16.2-.8,24.3-1,2.57-.06,3.35-1.1,2.89-3.27a67.83,67.83,0,0,0-2.29-8.44c-.59-1.66-1.22-3.19.23-4.55,1.71-1.6,2.87.38,4.32.71,2.75.65,3.34,5.59,5.87,4.1,2.78-1.64.06-5.19-.3-7.69-1.51-10.61.2-21.27-.91-31.79-2.26-21.56-2.27-43.18-3.2-64.78a101.84,101.84,0,0,0-5.33-27.74c-.61-1.82-.33-4-.33-5.94,0-2.69.4-5.34-3.51-5.89a3,3,0,0,1-2.37-3.37c.27-1.73,1.79-1,2.82-1.19,5.56-.91,3.4-6.1,4.89-9.21.84-1.76.13-4.25.16-6.42.06-3.81-.66-7.56,2.91-10.77,2.25-2,1.08-5.48.69-8.45-2.35.46-1.44,2.13-1.59,3.23a2.53,2.53,0,0,1-2,2.47,2.28,2.28,0,0,1-2.79-1.51c-.39-1-.16-2.53-1.91-2.23-2.06.35-1.36,2.13-1.23,3.21.52,4.31-.7,6.27-5.54,5.88-2.36-.19-7.22-.55-4.08,4.81,1,1.71-.14,2.84-1.44,2.83-2.82,0-5.13-2.24-4.68-4.6.63-3.34-.93-9,6.06-8.32a3.35,3.35,0,0,0,3.5-4.37A67,67,0,0,0,173,422.33c-.67-1.34-2.33-1.12-3.61-.66a2.26,2.26,0,0,0-1.36,1.33c-.35,2,1.53,1.15,2.35,1.69,1.16.78,3.09,1.13,2.2,3.15s-2.84,1.92-4.35,1.43c-2.76-.89-3.09.17-5,2.26-2.69,3-6.83,5.54-10.69,7.75-.9.52-2.14-.38-2.35-1.32a3.48,3.48,0,0,1,.73-2.67c2.12-2.45,4.39-4.78,6.67-7.1,1.41-1.45,3-2.78,1.77-5.42-2.48,2.13-4.53,4-7.94.44-1.4-1.45-7.09-3.33-8.64,2.33-1,3.78-3.19,1.13-4.55.6-3.49-1.35-6-1.51-5.4,3.29.45,3.89-3.46,4.94-4.76,7.67-.09.19-1.16-.09-1.77-.15a7,7,0,0,1,.33-1.68c2.48-5,2.48-9-4.33-9.92-1.74-.24-1.06-1.85-1.78-2.59-2.49-2.59-3.68-7.15-9.23-4.49-3,1.42-6.35,1.22-2.08,5.12a2,2,0,0,1,0,3.1c-1.36,1.41-3.17,1.16-4.65.59s-2.59-1.89-4.48-1.76c-3.72.27-3.92-1.63-2.21-4.23,1.27-1.95,2-3.86,0-5.62-2.24-2-3.41-.38-5.1,1.31-1.28,1.28-3.28,2.9-5.61,2.12a1.86,1.86,0,0,1-1-2.52c.9-2.33,2.75-3,5.17-2.95,1.85,0,3.52-1.43,3.32-3-.26-1.93-2.47-.93-3.8-1-3.32-.14-6.66,0-10-.06-2.51-.07-4.28,0-5.72,3-1.3,2.68-4.52,4.56-6.13-.47-.41-1.29-1.18-1.6-2.19-1.29-7.49,2.26-15.94-1.41-23,3.73-.49.36-1.68.12-2.38-.2-3.48-1.57-5.34-.87-5.5,3.29a9.07,9.07,0,0,1-1.61,4,2.85,2.85,0,0,1-2.12.86c-1.13,0-1.16-1-1.14-1.8.2-6.38-4.54-6.69-8.94-7-2.42-.19-5.44-.09-5.66-2.71-.24-2.79,2.89-3,5.17-3.22,12.74-1.22,25.36-3.43,38.28-3.25,8,.11,15.92-2.27,24.07-1.88a199.92,199.92,0,0,1,46.26,7.51c8.47,2.44,17.72,2.48,26.62,1.38a124,124,0,0,1,25.89-.8c8.92.77,12.54-2.73,10.29-11.48-2.08-8.1-1.91-16.5-1.9-24.58,0-21.07-2.71-42-2.63-63.05,0-11.87-.08-24-3.46-35.77-1.49-5.16.57-10.83-1.13-16.24-1-3.3-2.43-4.92-6.19-4.77-20.5.81-41.19,0-61.47,2.54-14.33,1.78-28.52-.3-42.65,1.6-4.06.55-7.18-2.17-11-2.11a208.4,208.4,0,0,0-36.22,3.55c-7.54,1.45-15.57.38-23.38.45-2,0-1.85-1.36-1.89-2.72-.06-1.85,1-2.21,2.52-2.2,4.83,0,9.67-.26,14.47.06,10.5.7,20.46-2.78,30.77-3.63,5.15-.42,10.27,0,15.38-.48,1.76-.16,4.64,1.48,4.74-2.39s-2.79-2.53-4.56-2.54c-17.14-.09-34.29-.28-51.42.12-3.9.09-7.53-2.17-11.63-.52-1.85.75-1.07-1.81-1.27-2.9-.4-2.21.74-2.82,2.83-2.8,7.16.09,14.32.22,21.47,0,9.42-.3,18.84,0,28.29-.51,6.61-.38,12.63-3.9,19.47-2.46,12.88,2.72,26,.23,39.07,1.79,10.77,1.29,21.82.27,34.65.27-6.94-5.78-13.68-6.93-19.59-9.72-10.07-4.74-20.43-8.91-30.77-13-6.44-2.56-12.31-6.59-19.44-7.48-1.78-.22-3-1.63-1.28-3.57,1.9-2.16,1.81-3.31-1.12-3.8-9.8-1.67-18-7.16-27-10.64-11.1-4.31-21.13-10.87-32.71-14.25C9.69,176,5.7,172.32,1.07,170.69c-1.32-.46-1-1.57-.95-2.49.1-1.81,1.63-1.62,2.6-1.31,2.47.8,4.83,2,7.28,2.86,1.24.46,2.84,2.16,3.79.15a3.72,3.72,0,0,0-.78-4.59c-1.14-.93-2.44-1.67-3.54-2.64a4.16,4.16,0,0,1-.73-5.82c1.65-2.34,2.72.39,4,.92a286.54,286.54,0,0,1,35.48,17.87C60.5,182.78,74.11,187.23,86,195.15a3.71,3.71,0,0,0,2.3.6c10.49-1.23,18.15,5.33,26.69,9.53,11.67,5.74,23.36,11.45,35.1,17,10.46,5,21,9.78,31.89,14.84-1-4.95-5.55-6.93-7.93-10.52-8.39-12.66-19.59-23-29.32-34.6s-19.62-23.42-28.16-36.27c-6.5-9.8-15.6-17.9-23.74-26.56-7.46-7.93-16-14.89-21.54-24.5-1.57-2.73-4.63-3.5-7.43-4.47-2.17-.74-3.68-2.36-2.58-4.48s3-.17,4.23.41c3.23,1.45,6.3,3.22,10,5.18-1.26-5.42-6.57-7.35-7.75-12-.28-1.1-1.34-2.26-.13-3.07s2.36.16,3.26,1.29c2.55,3.21,5.2,6.33,7.79,9.5,1,1.23,2.19,2.14,3.84,1.76,5.29-1.2,8.21,2.5,10.58,5.87a450.64,450.64,0,0,0,33.28,41.59c11.35,12.66,21,26.79,32.91,38.73,8.24,8.27,13.82,18.21,21.45,26.7,1.2,1.33,2,3.52,4.1,2.73,1.94-.73,1-3,.9-4.43-2.54-33.06-3.42-66.18-3-99.33a8.36,8.36,0,0,0-1.35-4.63c-6.38-9-4.86-18.6-4.24-28.95.63-10.69,6.39-20.72,3.64-31.62-3.59-14.25-.63-28.94-3.05-43.25A10.68,10.68,0,0,0,176.78,0h7c0,25.93,1.92,51.77,3.22,79,4.37-5.4,4.3-10.56,4.86-15.63.4-3.67-1.26-8.62,4.86-9.59,1.57-.25,1.41-2.26,1-2.87-2.93-4,5.18-10.29-2.77-13.1,1.08-4.82-2.58-10.57,2.94-14.55a6.55,6.55,0,0,0,1.85-2.78C202.51,13.89,202.56,7,201.75,0h6q1.48,30.2,3,60.38c0,.8,0,1.87.48,2.34C219.44,71,216.94,82,215,90.54c-2.66,12-4,23.78-3,35.63a340,340,0,0,1,1.11,34.58c-.18,9.12,1.3,18.09,1,27.2a183,183,0,0,0,1.6,29.42c2-4.36,4.31-8.6,5.9-13.11a339.85,339.85,0,0,1,16.62-40.16c3-6,2.67-13.59,4.31-20.4,3.16-13.11,5.5-26.41,8-39.67,1.47-7.8,6.6-14.38,7.19-22.49.14-1.92.92-5.07,3.57-4.38s1.45,3.67.81,5.46c-1.12,3.18.18,6.58-1.38,9.72a2.41,2.41,0,0,0,1.91,3.42c2.1.43,1.6-1.33,2.11-2.46a99.29,99.29,0,0,1,5.18-10c.87-1.48,2.14-3.35,4.37-2,1.89,1.14,1.1,2.64.41,4.32-2.22,5.38-5.1,10.6-1.35,16.74,1.07,1.75.51,5-.26,7.28-5.33,15.67-10.95,31.24-16.36,46.89-1,2.86-1.48,5.48.37,8.82,2.59,4.69-1.63,9.15-3.25,13.35a226.64,226.64,0,0,1-13.74,29.62c-3.78,6.74-8,13.24-11.46,20.19a5.93,5.93,0,0,0-.67,4.91c14.86-13.23,30.77-24.93,46.46-36.89,4.51-3.43,8.74-8.3,15.58-6.76a3.85,3.85,0,0,0,3.14-1.07c10.38-7.68,20.87-15.19,31.19-22.94,5.1-3.84,9.9-8.09,14.85-12.14.75-.61,1.66-1.71,2.35-1.61,9.12,1.32,14.58-5.63,21.35-9.45,2.16-1.22,4.74-3,6.08-1.11,1.67,2.36-1.52,4.45-3.25,5.24-3.6,1.67-6.56,4.24-10,6-1.74.89-4.31,1.56-3,4,1.19,2.28,3.85,1.45,5.68.56,2.77-1.36,5.31-3.2,8-4.82,1.79-1.1,3.35-.72,4,1.24.56,1.75-.06,2.62-2.3,3.26-8.08,2.34-13.17,9.31-19.95,13.69-5.75,3.72-11.7,7.12-17.61,10.59-1.13.66-2.85,1.07-3.51-.25s.95-1.7,1.95-2.34c5.34-3.42,10.48-7.15,15.91-10.4,2.45-1.47,4.11-3.81,1.95-5.24s-4-6.38-8.23-3.14c-12.64,9.65-25.34,19.22-38.46,28.23-2.47,1.7-7,4.13-5.06,7.51,1.76,3.1,4.63-1.25,6.74-2.16,6.06-2.61,11.64-6.37,17.37-9.74,1.94-1.15,3.74-2.66,7.05-.85-28.61,18.78-56.38,37.82-85.17,55.76,7.47-1.1,14.92-2.4,22.43-3.26,12.29-1.42,24.14-5.23,36.81-4.88,17.57.49,35.28-.36,52.48-4.13a70.33,70.33,0,0,1,18.11-1.12,140.4,140.4,0,0,0,28.93-1.35c1.38-.23,4.27-1.37,4.38,1.4.08,2.1-2.71,2-4.26,2.25-3.54.65-7.17.81-10.76,1.21-1,.11-2.48-.49-2.6,1.4-.11,1.64,1.38,2,2.26,2.16,1.74.33,3.82.65,5.34,0,7.55-3.29,15.41-.81,23.08-1.55.73-.07,1.92-.21,1.89.92a2.44,2.44,0,0,1-1.42,1.75c-2.64.82-5.38,2.08-8,2-9.31-.4-18.27,2.84-27.56,2.25-1.49-.1-3.21.62-3.63-2.1-.84-5.44-5.7-8.48-9.8-7.51-10.18,2.41-20.67,2.48-30.8,5.21a53.46,53.46,0,0,1-15,2c-6-.16-10.91,3.93-16.84,2.76-.7-.14-1.76,1-2.58,0-3.79-4.73-9.21-3.79-13.86-3.09-12.89,1.93-25.65,4.71-38.49,7-4.33.78-8.73,1.16-13.1,1.74-1.69.23-3.77-.81-5,1.86,10.85-.37,21.51.07,32.18-1,6.43-.65,12.73-1.74,19.43-1.07a52.7,52.7,0,0,0,23.43-3c5-1.83,11.56.28,17.4.77.57.05,1.05,1.19,1.57,1.82-.77.51-1.66,1.57-2.29,1.43-8.13-1.84-15.67,2-23.57,2.63-19.21,1.45-38.62-.76-57.7,3.33-4.93,1.06-10.28.27-15.44.19-2.13,0-3.48.25-3.35,2.9.45,9.29-.66,18.32-4.73,26.86-.59,1.24-.22,2.95-.22,4.44,0,23.5-.22,47,.09,70.5.13,9.86,2.78,19.67,1.79,29.57-.85,8.57-1.05,17,1,25.41.5,2.06.84,2.72,3,3.39,6.67,2,13.24.45,19.63-.41,15-2,30.11-1.43,45.13-2.16,28.6-1.4,57.15-2.63,85.78-3.12,9.6-.16,19.07-1.44,28.68.29,3.19.58,5.59,2.49,8.46,3.51,7.94,2.84,16.36,1.54,24.17,3.79,7.23,2.08,14.61,1.74,21.89,2.57,5.66.64,11.51-.54,17.28-.64,11.41-.2,22.84,1.6,34.22-.07,20.21-3,40.66-2.83,61-4.68,6.85-.63,13.46-2.86,20.47-2.44,5.74.34,10.18,2,14.52,6.24,2.09,2,6.75,5.21,11.13,1.69.37,14.91.84,12.07-6.13,11.89-.53-2.5,5.28-1.24,2.83-4.17-1.27-1.51-4.07-.67-6.38.56-3,1.61-7.05,4.42-8.64-2-.32-1.27-1.86-1.26-3-1.09-2.06.3-1,2.07-1.46,3.14-.55,1.29,2.47,3.13-.16,3.59-2.39.42-5.64,1.58-7.37-1.15-1.58-2.5-2.73-3.58-5.29-1.31-1.67,1.49-2.87.49-4.06-1.05-1.94-2.47-2.61-5.91-6.05-8.37.45,5.33-2.22,10.6,4.35,13.22,1.2.48,2,2.58,2.46,4.09.34,1.09.79,2.85-.79,3.52s-3.32.3-3.83-1.31c-1.43-4.46-4.71-6.24-8.89-7.45-3.14-.92-7-2.24-1.52-6.41-4.43-1-6.43,1.39-8.23,3.62-1.13,1.41-.78,2.76,1.56,2.85,6.1.22,3.82,3.18,1.87,6l.06-.06c-.89.72-1.84,1.37-2.65,2.17a2.88,2.88,0,0,1-3.64.54c-1.2-.81-.95-2.46-.17-3.59,1.84-2.68,1.25-4-1.79-5.28-2.08-.91-4.3-2.69-4.64-5.41-.19-1.57-.52-2.48-2.32-2.34a2.58,2.58,0,0,0-2.75,2.8c0,1.49.11,3-.06,4.47-.15,1.3.81,3.24-1.52,3.57-1.65.24-3.41.32-4.32-1.52-1.2-2.44-3.52-4.4-3.11-7.56.16-1.24.32-2.81-1.77-2.8-1.47,0-3-.27-3.57,1.72-.08.3-.41.53-.54.82-3.57,8-8,9.18-14.92,4.17a34.09,34.09,0,0,0-4.09-2.66c-4-2.07-6.36-1.38-6.09,3.69.08,1.49,0,3,0,4.48.08,2.43-.95,4.85-3.32,4.41s-2-3-1-5l.79-1.41a1,1,0,0,0-1.53.7c-2.44.2-5,.64-6-2.66-2.12,1.63.77,5-2.69,5.67-4.38.81-3.51-3.82-6-5.55,3.05,7.17-5.9,11-4.25,17.63l.08-.08c-2,.07-4.19,0-4.87-2.28s.79-2.94,2.75-3.86c2.58-1.21,1-3.66-.12-5-1.8-2.17-1.77.79-2.47,1.39-1.17,1-2.33,2.37-3.85,1.68-6-2.73-5.81,1.16-5.44,5,.23,2.32-1,3.68-2.86,3.75-2.29.07-2.08-2.07-2.1-3.72a12.14,12.14,0,0,0,0-2.49c-.35-1.44,1.08-4-1.14-4.15-2.06-.16-1.67,2.31-1.92,3.93s-.5,3.49-2.64,3.53-2.45-2.05-3-3.45c-1-2.33.28-4.74.59-7.64-2.53,1.35-4.4,2.47-4.84,5.06-.21,1.28.7,3.48-1.88,3.08-1.83-.28-3.36-1.24-3.09-3.65a43.82,43.82,0,0,0,0-4.6c-2.27.24-2.94,2.23-4.36,3.22-2.56,1.78-5.51,2.4-7.32-.46-3.33-5.27-9.74-6.17-14.49-1.75-1.77,1.65-3.48,5.94-6.49.77a2.61,2.61,0,0,0-4.44,1.62c-.34,1.82-2,2.1-3.56,1.88a3.72,3.72,0,0,1-3.15-2.81c-.49-1.79.82-2.53,2.3-3.25,3.82-1.86,7.38-4.45,12-3.77,2.6.39,3.28-1.61,4.25-3.34,2.07-3.71,4.57-4.16,6.85-.35,1,1.68,2.38,2.26,3.5,1.34.89-.73-.26-2.19-1.05-3.19-3.5-4.39-7.22-4.76-11.27-.76-1.39,1.38-2.45,3-4.83.88-2-1.83-3.83-.11-5.56,1.4-1.42,1.23-3.42,2.29-5.27,1.29-2-1.11-.64-2.87-.15-4.36a15.89,15.89,0,0,0,2.3-.62c1.16-.51,2.65-.8,2.57-2.52,0-.26-.68-.67-1.08-.71-1.59-.16-2.35.81-2.82,2.2a11.4,11.4,0,0,1-.9,1.73c-5.11.23-7.19,2.24-5.26,7.64,2.11,5.92-4.21,6.18-6.87,7.94-2.84,1.88-4.92-2.15-6.59-4.49a2.83,2.83,0,0,1,.41-2.68,2.51,2.51,0,0,1,3.22.05c1.19.87,2.33,2.42,3.77.93,1.12-1.14,2-3,1.18-4.55-1.52-2.78-.59-4.32,1.65-6.14a4.37,4.37,0,0,0,1.33-5,3.83,3.83,0,0,0-1.74-1.52c-.15-.07-1,.71-1.17,1.21-1.5,4.3-6.29,5.63-8.39,9.43-1,1.9-3.23,3-5.07,1.65-2.25-1.72-5.3-3.24-5.34-6.71,0-2.52,1.67-2.05,3.06-1.17,5.21,3.29,8.14.4,11.47-4.61-19.41,2.17-37.91,5.69-56.67,2.73-.79,2.4,3.61,2.53,1.69,4.95-.63.79-1.35,1.61-2.47.79-2.4-1.75-7.17,2.63-7.94-2.83-.46-3.2-2-3.56-3.7-1.66-3.64,4.07-8.27,2-11.88,1.47-4.87-.72-8.68,2.66-13.4,1.77-1.79-.33-.83,1.81.11,2.26,2,.95,5.42,1.4,3,4.42-2.12,2.62-4.71.28-6.93-1.16-4.24-2.72-8.49-5.51-13.94-4.77a68.73,68.73,0,0,0-8.28,1.15c-1.8.48-2.85,1.08-4.63-.64-1.49-1.45-3.77-.72-5.18,1.63-1.07,1.79-3.14,4-5.25,2.49s-.8-4.15.75-6.25c-3.56-.85-5.93-.49-5.76,3.93.09,2.15-2,2.17-2.65,1.2-2.08-3-4.29-3.22-7.31-1.6a4.34,4.34,0,0,1-3.39-.21c-2-.95-4.31-3.95-5.85-2.16-1.86,2.15-1.57,5.81-1.75,9-.59,10.46,2.7,19.91,6.45,29.43,4.85,12.36,1.73,24.32-2.89,36.05a5.18,5.18,0,0,0-.48,2.38c1.9,14.39.2,29,2.84,43.37,1,5.18-.85,10.23-.18,15.64,1.58,12.91,1.75,26,2.22,39,.12,3.4,2.64,6,2.32,9.5-.09,1.1,1.61,1,2.42.49,1.52-1,3-2.72,4.65-.61,1.3,1.66.84,3.8.29,5.72-.43,1.56-1.65,3.12-1.48,4.57.45,4,1.3,7.78,7.1,6.77,12.33-2.14,24.91-.52,37.4-2.55a48.4,48.4,0,0,1,16.78.18c4.51.91,9.46-.41,14.22-.75,16.11-1.15,32.28-.27,48.38-1.07,21.55-1.07,43.44.84,64.53-4.27a128.7,128.7,0,0,1,24.18-3.17c6.71-.33,14.58-1.15,19.74,5.67,1.17,1.55,3.12.81,4.71.81,23.3,0,46.59,0,69.89.07,6.59,0,13.15-.22,19.79.83,8.84,1.4,17.26-1.69,25.72-4.17,4.48-1.31,9.51-.59,14.19-1.37,8.7-1.46,17.24-3,25.88.61,8.14,3.4,15.37,8.37,22.67,13.07,2.21,1.41,4.6,6.32-.61,9.34-9.72,5.64-19,11.65-30.82,12.93-5.69.62-11.24,3.29-17.28,2.71a1.94,1.94,0,0,0-2.3,1.33c-1.17,3-3,3.59-5.66,1.43a4.49,4.49,0,0,0-2.75-.74c-29.88.36-59.65-3-89.57-2.36-10.64.22-21.35-1.23-32,.33-.77.12-1.91.05-2.24.52-.75,1.08.54,1.68,1.07,2.44,6.12,8.93,11.93,18,15.46,28.34a19.63,19.63,0,0,0,3.36,6.5c1.46,1.72,3.72,3.63,2,5.92-1.81,2.46-5,.91-7.51,1-2.82.15-3.26-2.39-3.74-4.42-.66-2.8,0-5.55-1.34-8.58-2.95-6.81-7.43-12.21-13.5-17.31,1.79,6.49-.29,13.12,1.37,19.57a27.35,27.35,0,0,1-.15,15.88c-.68,2-.88,5.08-4,4.6a5.08,5.08,0,0,1-4.3-5.31,134.33,134.33,0,0,0-1.92-24.1c-.6-3.64-1.05-7.31-1.67-11.27-2.66,1.67-2.57,4-2.54,6.23a190.32,190.32,0,0,1-1.91,30.07c-.35,2.41-.82,6-2.85,5.31-2.83-1-7.43-1.51-7.19-6.63.4-8.71-.94-17.52,1.86-26.09.49-1.5.07-3.3.07-6.5A211.26,211.26,0,0,0,432,700.79c-1.25,5.52-2.34,11.4-4.89,16.65-1.53,3.16-5.2,4.13-8,5.21-3,1.18-3-2.38-2.64-4.36,2-12.31,4-24.62,10-35.89,2.73-5.08,4.22-10.82,6.33-16.24.32-.84.73-1.55-.44-1.92-1.53-.48-1.83.77-2.46,1.75-6.44,9.92-10.61,20.93-15.32,31.68-.6,1.37-.85,2.86-2.16,3.72a5.58,5.58,0,0,1-5.68.24c-2-1-1.11-2.91-.8-4.79,2.54-15.45,13-26.68,20.65-39.43.65-1.09,2.19-1.81,1.58-3.35s-2.29-.77-3.49-1c-14-2.5-28.14-.37-42.06.46-10.55.63-21.13-.09-31.74.9-8.24.77-17,.64-25.55.76-21.71.3-43.43.83-65.08,2.22-4.23.27-8.59-1.38-12.85.57-1.79.82-2.4,1.48-.79,2.51,12.95,8.25,16.73,21.56,19.18,35.35,1.49,8.37,7,13.71,12.41,19.27,1.93,2,3,3.89,1.89,6.65q-8.1-7.93-16.15-15.8c-.91-.89-2-2.65-3.16-1.61s.3,2.47,1.11,3.6c5.72,7.91,14.14,13,20.77,20a16.64,16.64,0,0,1,2.53,3.49c.59,1,.69,2.49-.3,3.21s-2.18,0-3.07-.86c-1.63-1.66-3.42-3.18-4.91-5-2-2.36-3.22-4.33-6.91-1.41-2.5,2-4.68-1.49-5.33-3.93-1.05-4-3.57-6.66-5.91-9.74-2,1.84-.31,2.9.11,3.85,3.13,7.15,6.43,14.23,9.75,21.3a17.53,17.53,0,0,0,2.36,3.67,1.9,1.9,0,0,0,1.81.24c1-.54.25-1.05-.1-1.83-1.48-3.38-3.8-6.65-2.67-11.65,3.22,3.27,6.34,5.57,6.51,9.93a4.27,4.27,0,0,0,1,3.21c3.08,3.11,2.24,4.93-.82,8.37-6.84,7.68-5.34-.13-7.33-3a63.82,63.82,0,0,1-6.54-11.85c-5.11-11.88-10.2-23.83-17.08-34.88-.59-.94-.4-2.38-2-2s-1.34,2-1,2.85c3.3,8.25,2.83,17.4,6.17,25.61.42,1,.79,1.7-.09,2.61s-1.78.46-2.63-.09c-2.82-1.8-5.9-2.91-7-6.92-2.37-8.43-6.38-16.31-9-24.81,2.8,8.27-1,16.36,0,24.76,1.32,11.06-.17,22.47-.65,33.72-.06,1.4-.73,3.22-3.08,3.12-1.74-.07-2.13-.68-2.89-2.34-4.8-10.44-4.42-10.8-2.15-26.8.93-6.56,1.93-13.71-1.59-20.38-2.8-5.29-.28-11.38-1.71-17.1-1.22-4.87-.52-10.13-1.24-15.22-.68-4.9-3.94-9.1-3.55-14.33-1.09,8.3-4.86,16-6,23.94-.92,6.27-2.18,12.65-2.48,19-.19,4.12-2.32,7.44-3.51,11.14-.87,2.68-3,2.11-4.89,2-2.55-.11-2.65-2-2.63-3.94a46.56,46.56,0,0,0-.67-9.76c-3.44,4.76-2.61,9.92-1.61,15.11a92.38,92.38,0,0,1-.85,37.25c-.48,2.22-2.42,1.13-3.73,1.29-2.36.29-2.14-1.46-2.14-3,0-6.16,0-12.32,0-18.48,0-2.92-.34-5.07-3.75-2.33-1.75,1.41-3,.58-4.31-.7s-1.91-2-1.22-4.14c4.1-12.81,4.49-26.59,10.09-39.05.37-.82.79-2.5-.71-3-1-.33-1.63.79-2.13,1.68-5.18,9.15-10.47,18.2-14.26,28.12-2.47,6.48-6.54,12.35-10,18.44a2.3,2.3,0,0,1-3.39,1c-1.36-.79-1-2-1-3.42.11-11.43,4.67-21.55,8.93-31.79a19.32,19.32,0,0,0,.71-4.3c5.37-4.78,7.15-12,11.68-17.34,1.76-1.4,3.21-3,2.91-6-2.62,1.22-3.14,3.24-3.67,5.25-5.66,4.82-9.52,10.72-10.85,18.13a13.64,13.64,0,0,1-2.76.89c-7.38.79-9.52-1.65-5.54-7.89,6.33-9.93,10.48-21.42,19.92-29.25a18.09,18.09,0,0,0,1.72-1.83H128.54a23,23,0,0,1-4.48-.1c-1.18-.24-2.77-.47-3-2-.31-1.88,1.09-2.57,2.6-3a7.36,7.36,0,0,1,1.83-.63c10.83-.44,21.92.65,32.78-7.27l-3,5.95c3.46.35,4.84-2.4,6.78-4.38,1.16-1.17,2.47-3.66,4.34-1.75,1.54,1.56-.72,2.82-1.74,4a14.39,14.39,0,0,0-2.39,3.44c6.65-4.55,13.85-2.54,21-2.59-2-5.29,2.56-6.35,5.67-8.35.31-.19,1.1.38,1.66.59-.27.57-.38,1.34-.83,1.68-1.85,1.38-3.8,2.64-5,4.91,8.76-2.71,17,2.31,25.21-.09,1.71-.5,3.9.25,5.77.78,11.41,3.22,19.75-1.95,27-9.94,1.07-1.18,2.13-2.86,3.39-1.63,1.56,1.53,0,2.67-1.57,3.67-2.36,1.48-2.25,1.66-3.4,5.55,2.4.74,2.8-2.69,5.07-2.35.94,1.65-1.49,3.32-.22,4.8,8.41.84,12.11-5.67,16.53-10.78,1.39-1.6,3.64-3.67,4.43-2.92,1.94,1.85-.24,3.88-1.58,5.37a30.56,30.56,0,0,1-4.58,3.69c-1.09.83-3.45,1-2.63,2.87.62,1.42,2.79.89,4.1.58a58.22,58.22,0,0,0,6.86-2.51A3.08,3.08,0,0,0,269.69,649.18Zm-81.55,23.25c-.76.6-1.56,1.21-1.23,2.32.07.23.94.47,1,.42.37-.63.66-1.32,1-2a1.06,1.06,0,0,0,.7-1.53ZM471.69,432.1l1.42.8a1.05,1.05,0,0,0-.69-1.54c0-1.85-1.23-2.8-2.71-3.58C468.6,430.07,470.44,431,471.69,432.1ZM167.44,682.79c1.77-1.33,3.17-2.8,1.53-6L166.71,682c-1.1.54-1.23,2-.67,2.28C167.21,684.92,166.66,683.07,167.44,682.79Zm296-28.73a10,10,0,0,0-.72-1.71c0-.08-.78.27-1.19.43l1.14,2c1.31,2.13,1.67,5.27,5.29,5.12C467.6,656.88,464.81,656,463.42,654.06Zm131.76-11.94c2.55,3.9,4.57,2.19,6.94-.89l-7,1c.16-1.74-.47-3.78,1.58-4.83,1.19-.62,2.81-1.18,2-2.65-.33-.63-2.53-.75-3.64-.38-1.91.63-4,1.24-4,4.17S593,641.84,595.18,642.12ZM233.34,665.45l-1.42-.79a1.05,1.05,0,0,0,.7,1.53,3.63,3.63,0,0,0,1,2c4.69,5.23,9.59,10.3,13.23,16.4.76,1.28,1.1,4,3,3.11,1.53-.73,1.13-3.26,0-4.82C245.36,676.19,241.24,669,233.34,665.45Zm304.53-21.6c1.53-1.3,3.27-2.47,1.81-4.93-.85-1.43.32-2.19,1.36-2.63.65-.27,2-.4,2,.7.29,6.74,2.94.93,4.08.59s2.42-2.42,3.73-.78c1.17,1.47-.36,2.84-1.54,3.68a51.81,51.81,0,0,1-5.86,3.54c-.77.42-2.34,0-2,1.46a2.93,2.93,0,0,0,2.2,1.57,8.74,8.74,0,0,0,3.8-.62c4.09-1.57,8.12-3.3,12.43-5.07-.08,2.23-1.8,4.1,0,5.5a3.33,3.33,0,0,0,3.19-.31c2.32-2.26,3.8-3.61,6.51.07,1.47,2,4.57-.28,6.72-1.29a2.25,2.25,0,0,0,.65-3.14c-1.75-2.34-3.2-.85-4.63.69-.24.25-1.2-.16-1.83-.27.08-.45.1-1.29.25-1.31,3.08-.47,2.56-4.61,5.65-5.39,1.2-.3,4.77-.12,3.44-2.8-1.17-2.36-3.24-.52-4.9.65-3,2.07-3.84-2.41-6.46-2.41-.67,0-.18-2.89,1.15-4.18.76-.74,2-1.29,1.77-3.12-5.6.62-11.21-1.81-16.39-1.47-11,.72-21.86.31-32.78.46-17.46.24-34.93.05-52.4.11-1.26,0-3.34-.86-3.45,1.57a25.36,25.36,0,0,0,.37,7.35c.2.77,4.36-.9,3.26,2.38-.9,2.69-3.24,3.08-6.16,2.09-2.53-.86-5.66-1.33-7.07,2.39,2.05.2,5.29-.27,5.78.68,4,7.7,7.89,1.48,11.52,0,2.18-.87,3.92-2.92,5.77-4.54,1-.86,2.14-1.46,3-.44s-.38,1.77-1,2.39c-2.72,2.56-5.49,5.06-8.89,8.17a20.85,20.85,0,0,0,4.13-.49c4.14-1.51,8.28-3,10.62-7.27.8-1.47,2.55-2,4.24-2.11.33,0,1,.56,1,.74-.31,1.44-.83,2.78-2.4,3.4-.43.17-.75.64-1.12,1-1.42,1.29-4.94,1.77-3.48,4.17.9,1.47,3.81-.51,5.7-1.32.67-.28,1.12-1,1.74-1.47,4.68-3.26,9.38-6.5,15-10.37-1.69,6-5.39,8.06-9.51,9.85-1.4.6-3.28,2-2.4,3.84,1.13,2.4,2.86.3,4.17-.16,6.65-2.36,11.86-7.36,19.13-11-2.16,7-9.76,6.7-12,11.64,3.35,2.73,5.61-3.29,8.77-.73,4.48,3.63,8.12,3.1,12.17-1.11,3.47-3.61,7.07-3.45,8.41-.74-2.13,0-3.95.36-3.89,3.1,0,1,.11,2,1.51,1.94C537.67,648,536.81,645.24,537.87,643.85ZM193.22,259c-.19,6.75-5.27,12-1.52,18.36,2.08,3.57,2.31,7.59,1.21,11.83-.63,2.41.07,5.19.35,7.83.9,8.47,2.09,17.12,2,25.45-.11,12.37.9,24.62,1.75,36.84,1.24,17.78,3.13,35.59,2.39,53.36-.48,11.59-.26,23.17-.65,34.74,0,1.27-1,3.61,1.05,3.7s1.95-2.23,1.94-3.87c0-2,.15-5,2.81-3.49,3.86,2.24,3.36-.8,3.68-2.39a69.35,69.35,0,0,0,1.57-11.18c.57-14.66-2.53-29.19-1.16-43.88a51.86,51.86,0,0,0-1.46-16.05c-2.12-9.66-1.79-20.09-1.82-29.92-.07-19.24-4.39-38.8,2.09-58,1.29-3.8.69-8.47,1.75-12.61,1.2-4.67-2-8.94-6-6.76C198,265.88,196.14,262.66,193.22,259ZM181.88,85.2c-.37,7.19,0,13.4,5,18.55a8.57,8.57,0,0,1,1.78,5.44c.07,10.07,1.44,20,2,30.06.73,13.69,0,27.4,1.85,41.13,1.54,11.75.87,23.79,1.3,35.69.34,9.53-1.35,19.2,2,28.52.49,1.35-1.07,4,1.54,3.87s1-2.9,1.46-4.44c.74-2.67-1.6-7.62,1.84-7.68,4-.08,3,4.89,3.16,8,0,.33,0,.67,0,1,.15,1.74-.62,3.79,1.39,4.94.31.17,1.26-.22,1.51-.6,1-1.56,1.72-3.3.6-5.09-3.24-5.16,1.13-12.68-5.29-17-.64-.43-.07-2.54-.21-3.86-1-9.19,1.34-18.26.23-27.58-1.63-13.71,0-27.54-1.73-41.47-2.15-17-1.08-34.41-1.48-51.64-.06-2.92.26-5.34,2.64-7.56s3.58-6.23,2-8.55c-1.67-2.48-5.49-3.55-8.46-5.07-.44-.22-1.93.42-2,.81C191.46,91.89,186.62,87.92,181.88,85.2ZM157,250.71c8.62-.24,16.54.26,24.47-.83,3-.42,3.32-1.46,3.4-4,.07-2.75-1.12-3-3.48-3.35-3.89-.61-6.48,3.36-9.63,2.81-15.94-2.81-32-1.59-48-1.67-13.05-.06-26.1.67-39.16,1-4.11.1-4.63,2.59-4.78,6-.17,4.05,2.59,3.11,4.67,3,7.91-.27,15.82-.31,23.73-.72C124.72,252.09,141.15,250,157,250.71Zm9.81-10.88c1.33-.51,3.39.83,3.84-1.27s-1.43-2.26-2.95-3.07c-5.29-2.82-10.9-4.94-16.24-7.67-16.68-8.53-33.83-16.14-50.77-24.15-2.83-1.33-5.44-2-6.66,1.82-1,3.24-2.43,6.23,2.42,8.48,4.2,1.95,8.6,2.6,12.88,3.86,6.59,1.95,11.77,6.62,18.7,8.3,8.72,2.13,16.84,6.61,25.38,9.64C157.78,237.33,162,239.82,166.8,239.83Zm93.13-135c-4.54-1.29-6.12,1.42-6.35,6.27a82.37,82.37,0,0,1-1.71,11.09c-2.37,12.63-4.92,25.22-7.09,37.88-.4,2.36-1.48,6.57.83,7.21,3.91,1.08,2.6-3.5,3.56-5.54,7.37-15.6,12.41-32.07,17.62-48.45C269.17,105.85,268.19,104.87,259.93,104.87ZM215.72,233.93c0,1.21,0,2,0,2.87,0,1.52-.09,3.34,1.73,3.62,2,.31,1.15-1.95,1.86-2.94,4.43-6.2,6.21-13.7,10.22-20.29,6.86-11.28,12-23.62,17.66-35.61.74-1.57,2.1-4.62-1.66-4.68-2.13,0-4.07,1.18-6.1-.94-.83-.87-2.15.59-2.71,2-5.65,14.34-11.7,28.53-16.87,43.05C218.31,225.33,214.91,229.23,215.72,233.93Zm419,405.28c2.31-4.2,3.81-7.54,6.64-10.09,1.61-1.44.84-3.4-1.08-5-9.16-7.45-20-8.8-30.76-6.61-5.07,1-10.77.66-15.48,4-1.92,1.36-2.29,2.71-1.8,4.47.59,2.07,2.5,1.23,3.8,1.06,3.37-.47,6.69-1.38,10.07-1.78,2.66-.31,5.68-.37,2.66,3.72-.8,1.08-.9,3.48.46,2.88,3.74-1.66,7.32.66,10.71-.28a33.26,33.26,0,0,1,10.93-.92c3.58.2,7.18,1,3.27,5.78C634,636.71,634.35,637.38,634.76,639.21ZM186.41,234.77c1.56-6-3.61-8-5.5-11.55a132.78,132.78,0,0,0-18.35-26.45,290.08,290.08,0,0,1-21.89-27.11c-1.56-2.24-2.69-7.54-4.88-6.15-2.46,1.56-1.41,6.69-.41,10.09.56,1.9,2.44,3.44,3.82,5.05,8,9.31,16.05,18.51,23.94,27.88C170.87,215.71,178.41,225,186.41,234.77ZM23,173c0,5.18,4.82,4.43,7.66,6,13.3,7.51,27.49,13.05,41.7,18.52,3.19,1.23,6.43,2.35,9.54,3.76,1.6.73,3.09,4.14,4.64,1.76s-1.7-3.59-3.59-4.79c-7.72-4.91-16.43-7.89-24.33-12.39-9.54-5.44-20-9.22-28.94-15.74-1.42-1-3.2-1.89-5.1-1.07C22.81,169.76,23,171.37,23,173ZM236,233c2.27,1.19,3.46.28,4.84-.79a163.58,163.58,0,0,1,15.42-10c10.52-6.41,22-11.46,30.9-20.45,2.57-2.61.88-4-.45-5.82s-3.23-1.59-4.47-.12c-2.41,2.86-5.78,4.29-8.62,6.48-6.69,5.14-12.84,10.88-20.08,15.46C247.08,221.78,241.88,227.74,236,233Zm-108-74c-.3-.51-.59-1.09-.95-1.6-4.06-5.74-7.9-11.64-12.23-17.16-7.79-9.94-15.9-19.63-23.8-29.49-1.26-1.57-1.36-4.22-4.34-3.95a4,4,0,0,0-3.59,3c-.69,2.23.23,4,2,5.71,12.74,12.41,25.16,25.14,36.21,39.12,1.42,1.8,2.86,3.59,4.39,5.3a2.6,2.6,0,0,0,1.73.55C127.51,160.51,127.71,159.69,128,159.07ZM244,689.44c5.18,5.27,6,13.08,11.26,18.81.48-2.06.6-4,2.62-4.09,3.7-.15,1.54-2.38.76-2.87C253.32,697.91,249.39,692.89,244,689.44Zm14.83,2c1.6-9.35-4.92-20.11-13.37-21.89C252.27,675.69,254.79,683.19,258.83,691.4ZM223.07,664c2.82,5.46,5.56,11,8.53,16.35.69,1.23,2.41,1.07,3.56.33a2.23,2.23,0,0,0,.21-2.15C231.9,673.3,229.07,667.57,223.07,664ZM452.54,424.26c-.1,1.43-.07,2-.19,2.63-.65,3.19.43,4.81,3.88,5.12,1.28.11,3.47.75,3.63,0,.73-3.05-2.66-3.11-4.09-4.69C455,426.5,454.11,425.75,452.54,424.26ZM197.1,690.62c-2.18,4.1-5.14,7.86-3.77,14.7C195.75,699.45,198,695.45,197.1,690.62Zm8.79-227.15c2.33-4,2-7.71,1.63-12.34C204.59,455.4,203.78,459,205.89,463.47Zm35.84,200.78c-2.47-3.79-4.92-6.14-9.68-6.45C235,661,237.28,663.49,241.73,664.25ZM649.4,631.53c-4.7-2.52-6.18,0-7.88,1.81-.46.5-.59,1.37.2,1.58C645,635.77,645.49,631.92,649.4,631.53Zm-202.52,7.68c-.68-1-1.3-1.85-1.32-1.84-1.67,1.1-4.08,1.1-5.07,3.12-.39.8.34,1.9,1.25,1.54A44,44,0,0,0,446.88,639.21Zm179.71-3c-2.38.07-2.61,2.22-3.29,3.71-.43.94.65,1.27,1.53,1.2,2.12-.15,2.23-2.14,3-3.45C628.4,636.63,627.49,636.29,626.59,636.19ZM609,643.29c.12-1.3-.24-2.41-1.11-1.94-1.65.89-3.32,2.06-3.69,4.16-.06.33-.37,1.5.81,1.09C606.9,646,608.5,645,609,643.29ZM229.33,238.81c3.56-.86,5.6-2.09,6.79-4.94C233,234,230.89,235.22,229.33,238.81ZM455.45,635.48c-2.84-.5-4.74-.51-5,2.23-.07.71.28,2.11.5,2.13C453.77,640,453.33,636.93,455.45,635.48Zm-351.19-223c-1.1.07-2.42-.15-2.29,1.62s1.51,1.34,2.55,1.37,2.42.14,2.28-1.62S105.29,412.6,104.26,412.47Zm355.2,252.7c1.79-4.5-.48-6.1-3.09-7.59Zm-221.9,37.56c-.06-2.87,1-5.73-1.74-8.18C235.81,697.53,234.89,700.36,237.56,702.73ZM592.13,417.26c2.45,1.13,3.48,2.81,5.5,1.82a1.83,1.83,0,0,0,.34-1.73C596.54,415.71,594.92,416.48,592.13,417.26ZM584,625.16c-.78.08-1.86.05-1.65,1.16.28,1.49,1.5,1.94,2.94,1.83.78-.06,1.87,0,1.65-1.14C586.67,625.55,585.45,625.05,584,625.16ZM223.19,662.74c.82-.48,1.58-1,1.49-2.18-.08-.91.29-2.07-1.12-2.31-1.23-.2-1.76.4-1.83,1.61A2.72,2.72,0,0,0,223.19,662.74ZM212.32,322.68c-1.26,2.3-2.24,4.3-1.65,6.79C211.44,327.4,213.39,325.71,212.32,322.68Zm219.52,99.9c-.5-1-.47-2.13-1.87-2.1-1,0-1.49.43-1.53,1.41-.05,1.36.83,1.63,1.9,1.53C430.94,423.36,432,423.79,431.84,422.58Zm-39.2-4.27c2.84-1.59,4.75-1.36,4.72-3.58,0-.38-.41-1.06-.65-1.07C394.51,413.58,394.66,415.74,392.64,418.31ZM185,680c-.41-.52-.72-1.14-.89-1.1a1.41,1.41,0,0,0-1.22,1.71,4.12,4.12,0,0,0,.52,1.08Zm.62-1.1a9.89,9.89,0,0,0,1-2c.06-.24-.41-.6-.64-.9a7.34,7.34,0,0,0-1,1.39C184.84,677.62,185.2,678,185.58,678.88Z"/><path class="cls-1" d="M99.9,460.51c.1-2.91-.25-5.68,3.21-6.06,4.26-.47,2.49,2.88,2.72,4.76a8.38,8.38,0,0,0,2.53,5.17c1.27,1.24,2.34,2.6.65,4.19-1.35,1.27-3.74,1.36-4.53.31C102.49,466.26,99.23,464.09,99.9,460.51Z"/><path class="cls-1" d="M418.53,436.22c2.09,3.79,7.2,3.09,10.11,6.14,1.11,1.17,1.7,4.44-.93,3.79-4.27-1-9.52-.67-12.26-5.56C413.74,437.54,415.78,437.08,418.53,436.22Z"/><path class="cls-1" d="M78.81,484a11.93,11.93,0,0,1-10.34-5,2.27,2.27,0,0,1-.07-2.17,2.48,2.48,0,0,1,3.21-.12c3.44,2.85,6.46,3.32,9.39-.74a1.54,1.54,0,0,1,2.77.47C84.23,477.61,79.92,484.14,78.81,484Z"/><path class="cls-1" d="M543.05,456.56c-2.12-.76-5.63,2.62-5.51-1.68.08-3,3.74-5,6.27-5.05,2.17-.09,5.61,1.83,5.29,5.1C548.51,460.79,544.6,454.77,543.05,456.56Z"/><path class="cls-1" d="M332.5,242.78c3.48-5,9-2.51,13.26-3.76,1.9-.56,6.93-3.87,7.23.79.23,3.65-4.9,1.84-7.25,1.59C341.18,240.91,337.57,245.72,332.5,242.78Z"/><path class="cls-1" d="M165.72,463.56c0,1.43-.58,2.3-1.6,2.61-1.27.39-3,.67-3.57-.75a41,41,0,0,1-2.61-8.34c-.35-1.83,1.27-3.17,3-3.42,2.54-.38,1.89,1.86,1.8,3.11C162.49,459.72,165,461.4,165.72,463.56Z"/><path class="cls-1" d="M405,451.36c-1.73-3.71-7.42,1.1-9.07-4-.54-1.69-.91-3.35.77-4.43,1.93-1.25,3.57,0,4.6,1.44,1.29,1.79,1.62,4.42,4.75,4.13,1-.09,1.38.68,1.25,1.65C407.14,451.28,406.28,451.26,405,451.36Z"/><path class="cls-1" d="M298.63,432.46c.07-4.21,1-8,4.89-10.43,1.48-.93,2.87-1.09,3,1.36.23,4-4,8.84-8,9Z"/><path class="cls-1" d="M245.14,445.45c-.6-.37-1.6-.63-1.87-1.21-1.35-2.92,1.38-4.72,2.15-7.08.59-1.76,1.6-3.25,3.65-3.52a1.44,1.44,0,0,1,1.21.52,2.66,2.66,0,0,1-.22,3.22C247.69,439.57,249.31,444.1,245.14,445.45Z"/><path class="cls-1" d="M123.84,438.56c.19,3.83-2.53,4.91-5.2,5.73-1.46.45-3-.88-2.47-2.15,1.1-2.42,1.58-5.77,4.76-6.4A2.42,2.42,0,0,1,123.84,438.56Z"/><path class="cls-1" d="M493.3,447.65c-.13,1.34.24,2.49-1.24,2.69s-3.14-1.16-3.08-1.93c.25-3.26-5.43-4-3.18-7.78.9-1.51,3.55-1.63,3.74-.75A19.78,19.78,0,0,0,493.3,447.65Z"/><path class="cls-1" d="M362.5,428.19c-.22,2.55-1.4,3.41-3.06,3.13-3.64-.62-5.34-3.55-6.58-6.55-.57-1.38,1.17-1.32,2-1.18C358.13,424.2,360.4,426.38,362.5,428.19Z"/><path class="cls-1" d="M298.56,432.39c-.35,1.75,1.55,2.47,1.83,3.86a5.49,5.49,0,0,1-2.47,5.94,1.9,1.9,0,0,1-2.85-1.05c-.34-2.58-1.72-5.49.9-7.71a8.32,8.32,0,0,1,2.66-1Z"/><path class="cls-1" d="M232.74,456.52c-2-.37-3.4-1.67-2.78-2.25,2.36-2.22,2.95-6.36,7-6.74,1.69-.16,2,1.17,1.66,2.29C237.66,453.19,234.64,454.6,232.74,456.52Z"/><path class="cls-1" d="M440.35,456.46c1.91,1.1,4.87,1.54,4.85,4.6a3.1,3.1,0,0,1-3.62,3.17c-2.7-.56-3.78-3-4.05-5.52C437.37,457.24,438.57,456.4,440.35,456.46Z"/><path class="cls-1" d="M79.81,424.13c-.27,1.43-1.15,2.58-2.28,2.16-2.34-.88-5.79-.29-6.46-3.78-.37-2,.93-3.08,2.92-3C77,419.69,78,422.44,79.81,424.13Z"/><path class="cls-1" d="M281.84,430c-1.67,2.37-3.17,5-5.23,7.08-.61.62-2.91-1.76-2.64-2.22,1.46-2.53,2-5.86,4.92-7.24C280.29,427,281.18,428.4,281.84,430Z"/><path class="cls-1" d="M337.5,426.67c-1.62-1-4.94,1.2-4.69-1.87.35-4.19,4.85-1.7,7.23-3.09,1.24-.73,3.46,1.3,3.14,2.82C342.48,427.83,339.35,425.73,337.5,426.67Z"/><path class="cls-1" d="M87.77,503.27c.06,2.29-1.35,1.94-2.41,2A5.07,5.07,0,0,1,80.13,501c-.42-1.74,1-2.62,2.75-2.6C86.36,498.41,86.09,502,87.77,503.27Z"/><path class="cls-1" d="M92.46,430.43c2,0,3.65-.26,3.41,2.13-.3,3-2.68,3.48-4.93,3.8-2.1.29-3.12-1.09-2.87-3.05C88.44,430.43,90.82,430.57,92.46,430.43Z"/><path class="cls-1" d="M511.15,469.16c-.38,1.63-1.4,2.4-2.9,2a4.73,4.73,0,0,1-3.91-4.89c0-1.8.89-3,2.67-2.73C510,464.1,509.67,467.37,511.15,469.16Z"/><path class="cls-1" d="M555.57,460.17c-3,2.32-3.4,6.48-7,8-.86.37-2,.45-2.28-1-.27-1.24,6.79-9,8-8.59C554.72,458.76,555,459.45,555.57,460.17Z"/><path class="cls-1" d="M164,502.3a5.74,5.74,0,0,1,4.72,4.55c.4,1.47-.22,2.72-2,2.38a6.84,6.84,0,0,1-5.57-4.68C160.63,503.08,162.18,502.43,164,502.3Z"/><path class="cls-1" d="M143.71,471.45c.21,2.52-.81,3.45-2,2.73-2.05-1.3-5.59-1-5.76-4.48-.09-1.85,1.51-2.52,3.14-2.22A5.52,5.52,0,0,1,143.71,471.45Z"/><path class="cls-1" d="M79.78,445.48c1.63.09,3.53-.21,3,1.84-.63,2.31-1.56,4.77-4.62,5.08-1.86.19-2.22-.84-2.18-2.41C76,447.19,77.41,445.75,79.78,445.48Z"/><path class="cls-1" d="M154.8,448.83c-.32,1.75-1.34,2.84-2.76,2.37-2.24-.72-4.07-2.19-4.15-4.9,0-1.49.82-3.17,2.11-2.6A8.49,8.49,0,0,1,154.8,448.83Z"/><path class="cls-1" d="M290,544.44c2.4,1.54,5.46,2.48,5.57,6.12,0,1.26-.72,2.1-1.76,1.59A10.93,10.93,0,0,1,288,546C287.71,545.35,288.79,544.35,290,544.44Z"/><path class="cls-1" d="M151.83,485.52a3.79,3.79,0,0,1,2.95,4.18c0,1.31.14,3-1.93,2.52-2.52-.6-4.53-2.21-4.76-4.9C148,485.86,149.52,485.31,151.83,485.52Z"/><path class="cls-1" d="M333.59,646.48l-2.58-.81c.24-.61.38-1.69.72-1.76,3.68-.73,5.29-4,7.84-6.1a2.43,2.43,0,0,1,2.23-.28,2.17,2.17,0,0,1,.38,2.1C339.58,642.47,335.18,642.76,333.59,646.48Z"/><path class="cls-1" d="M329.54,467.85c-.26,1.9-1.38,2.48-3.1,2.54-3.26.13-2.69-2.85-3.57-4.5a1.61,1.61,0,0,1,1.83-2.18C326.88,464.27,329.05,465.24,329.54,467.85Z"/><path class="cls-1" d="M376.16,445.48c2.48,0,3.94,1.24,4.21,3.75.2,1.86-1,2-2.47,2.14-2.92.27-3.62-1.92-4.19-3.88S374.76,445.5,376.16,445.48Z"/><path class="cls-1" d="M341.88,520.29c2.51-.06,4.24,1.09,4.5,3.54.18,1.75-1.18,2.51-2.92,2.48-2.87,0-3.25-2.42-3.77-4.35C339.21,520.23,340.8,520.38,341.88,520.29Z"/><path class="cls-1" d="M413.25,442.66a44.19,44.19,0,0,1,5,4.39c.57.65-1.16,2.31-1.46,2.06-2-1.67-5.83-.79-6.28-4.46C410.35,443.42,410.5,442.21,413.25,442.66Z"/><path class="cls-1" d="M511.4,442.56c1.4.28,3,1.84,3.7,4.1.5,1.66-1,1.71-2.14,1.75-2.72.07-4.31-1.18-4.61-3.92C508.19,443.06,508.82,442.32,511.4,442.56Z"/><path class="cls-1" d="M99.58,528.35a5,5,0,0,1,4.17,4.2c.28,1.29-.66,2.73-1.67,2.45a7.65,7.65,0,0,1-5-4.89C96.51,528.54,97.88,528.29,99.58,528.35Z"/><path class="cls-1" d="M50.42,448.4c-2,.54-3-1.23-3.13-2.63a3,3,0,0,1,3.42-3.22,3.34,3.34,0,0,1,3.12,3.2C54,447.87,52.46,448.46,50.42,448.4Z"/><path class="cls-1" d="M461.45,484.37c-2.13,0-3.07-1.05-3-3.08s1.12-3,3.14-2.9a2.58,2.58,0,0,1,2.74,2.84C464.35,483.21,463.5,484.38,461.45,484.37Z"/><path class="cls-1" d="M316.48,538.16c-.41,1.39-1.23,2.4-2.48,2a5.5,5.5,0,0,1-4.29-4.74c-.11-1,.13-2.24,1.5-1.94C313.8,534.09,315.05,536.3,316.48,538.16Z"/><path class="cls-1" d="M318.38,499.19c-1.89-1-4.53-1.49-4.65-4.31-.08-2.11,1.87-1.47,3-1.42a3.71,3.71,0,0,1,3.76,3.75C320.61,498.61,320,499.43,318.38,499.19Z"/><path class="cls-1" d="M297.56,471.66c-.18,1.68-.94,2.78-2.52,2.63-2.49-.24-2.89-2.51-3.3-4.33a2.06,2.06,0,0,1,2.41-2.44C296.71,467.71,296.72,470.12,297.56,471.66Z"/><path class="cls-1" d="M535.22,440.91c0,1.92-.49,3.54-2,3.26a5.11,5.11,0,0,1-3.85-4,2,2,0,0,1,2.17-2.59A3.59,3.59,0,0,1,535.22,440.91Z"/><path class="cls-1" d="M92.88,445.13c-.77,1.22-.54,3.57-2.91,3.13-1.54-.29-3-1-3.06-3.22,0-1.86.47-2.74,2.5-2.66S92.64,442.91,92.88,445.13Z"/><path class="cls-1" d="M312.45,451.36c-.56,1.65-1.72,2-3.14,1.94-2.63-.06-3-2.27-3.55-4-.5-1.6.86-1.88,2.11-1.76C310.29,447.77,311.34,449.64,312.45,451.36Z"/><path class="cls-1" d="M532.5,488.39c2.67,0,2.91,2.34,3.54,4,.56,1.52-.63,1.88-1.95,1.92-2,.07-3.64-.21-3.78-2.69C530.21,490,530.72,488.77,532.5,488.39Z"/><path class="cls-1" d="M563.28,471.17c-.92,1.57-1.76,3.31-3.23,3-2-.47-3.06-2.19-2.82-4.47.13-1.23.23-2.46,1.85-2.11C561.14,468,562,469.91,563.28,471.17Z"/><path class="cls-1" d="M121.48,487.7c.84.22,2.28,1.29,2.31,3.7,0,1.6-.93,2-2.24,1.83-2.22-.32-3.56-1.55-3.6-3.92C117.93,487.75,118.81,487.3,121.48,487.7Z"/><path class="cls-1" d="M140.59,452.39c-1.74-.11-2.79-1-2.64-2.5a3.72,3.72,0,0,1,3.56-3.46c1.68-.21,2.48.5,2.31,2.25A4.27,4.27,0,0,1,140.59,452.39Z"/><path class="cls-1" d="M329.5,444.6c-.06,1.73-.9,2.76-2.4,2.65a3.62,3.62,0,0,1-3.49-3.42c-.21-1.59.39-2.5,2.17-2.35A4.2,4.2,0,0,1,329.5,444.6Z"/><path class="cls-1" d="M276.37,444.45a3.75,3.75,0,0,1,3.13,3.46,2.07,2.07,0,0,1-2.44,2.39c-2.17-.35-3.33-1.82-3.37-4.12C273.66,444.47,274.76,444.4,276.37,444.45Z"/><path class="cls-1" d="M413.39,459.67c-.12,1.64-.87,2.86-2.73,2.63-2.21-.27-2.2-2.05-2.19-3.76,0-1.43.39-3,1.93-2.83C412.27,456,413.45,457.47,413.39,459.67Z"/><path class="cls-1" d="M407.42,474.53c-.12,1.21.38,2.74-1.74,2.78s-3.73-1.08-3.91-2.86c-.16-1.6,1.43-2.91,3.25-2.91S407.45,472.86,407.42,474.53Z"/><path class="cls-1" d="M551.24,441.41c0,1.71-1,2.14-2.27,1.88-1.66-.35-3.71-.37-3.72-2.91,0-1.48.74-3.09,2.09-2.6C548.91,438.35,551,439.12,551.24,441.41Z"/><path class="cls-1" d="M482.27,506.31c-2.12.05-2.91-1.18-2.88-3.12,0-1.25-.39-2.77,1.72-2.83,2.38-.07,3.2,1.2,3.17,3.38C484.26,505.14,484.28,506.48,482.27,506.31Z"/><path class="cls-1" d="M315.59,426.52c2.29-.29,3.17.47,2.92,2.44s-1.43,2.42-3.1,2.37c-2.1-.05-2.89-1.21-2.77-3.2C312.8,425.64,314.75,426.76,315.59,426.52Z"/><path class="cls-1" d="M269,648.56c1.58-4.33,5.62-5.88,9.16-8a17.74,17.74,0,0,1-8.48,8.63A3.08,3.08,0,0,1,269,648.56Z"/><path class="cls-1" d="M275.37,529.44c2.32.5,3.69,1.77,4,3.6.26,1.59-1.13,2.15-2.61,2.17-2,0-3.05-.86-3.1-3A2.77,2.77,0,0,1,275.37,529.44Z"/><path class="cls-1" d="M148.93,464.4c1.52,0,3,.75,2.56,2.23s-.81,3.85-3.32,3.68a2.13,2.13,0,0,1-2.18-2.7C146.33,466.14,146.59,464.21,148.93,464.4Z"/><path class="cls-1" d="M337.5,455.49c2.31.2,3.05,2.25,3.74,3.85.48,1.1-1,2-2.19,1.91a3.63,3.63,0,0,1-3.41-3.52C335.51,456.46,335.83,455.41,337.5,455.49Z"/><path class="cls-1" d="M506.59,478.4c1.6,0,2.9,0,2.57,1.74a4.64,4.64,0,0,1-3.76,4c-1.31.24-2.12-1-2-2.26A3.78,3.78,0,0,1,506.59,478.4Z"/><path class="cls-1" d="M337.85,569.14a4.62,4.62,0,0,1-4.07-3.56c-.31-1.3.79-2.18,2.06-2.16a3.52,3.52,0,0,1,3.57,3.32C339.59,567.85,339.63,569.17,337.85,569.14Z"/><path class="cls-1" d="M127.81,467c.28,2-.91,2.28-2.68,2.3-2.25,0-2.16-1.37-2.25-2.94-.13-2.13,1.64-2.6,2.84-2.68C127.65,463.58,127.87,465.31,127.81,467Z"/><path class="cls-1" d="M134.74,516.32c-1.23-.12-2.79.39-2.83-1.75,0-2,.7-3.17,2.83-3.21,1.73,0,3,.63,3,2.48S136.47,516.37,134.74,516.32Z"/><path class="cls-1" d="M366.44,238.94c-2.29.59-4.52,1.23-6.78,1.7-1.25.26-3-.59-2.68-1.47,1.15-3.06,4.62-.6,6.69-2.3C364.58,236.13,365.76,237.31,366.44,238.94Z"/><path class="cls-1" d="M524.07,455.49c2.29.72,2.79,2.78,3.09,4.9.1.77-.07,2.16-1,1.76a8,8,0,0,1-4.64-4.77C521.19,456.28,522.59,455.54,524.07,455.49Z"/><path class="cls-1" d="M433.63,505.24c-1.15-.75-3.13-.52-3.21-2.82-.06-1.9,1-2.07,2.45-2.07,1.8,0,3.33.37,3.39,2.51C436.3,504.42,435.27,505.15,433.63,505.24Z"/><path class="cls-1" d="M64.91,471.14c0,1.88-.64,3.16-2.52,3.15-1.58,0-2.32-1.07-2.38-2.6s.36-3.08,2.26-3.23S64.84,469.6,64.91,471.14Z"/><path class="cls-1" d="M394.6,644.31c2.83-3.44,4.08-7,8.94-5.71C401.79,642,399.23,643.62,394.6,644.31Z"/><path class="cls-1" d="M266.57,484.24c-1.36-.67-2.62-1.52-2.77-3.13-.17-1.81.94-2.6,2.69-2.72s2.11,1,2.12,2.46S268.41,483.78,266.57,484.24Z"/><path class="cls-1" d="M177.83,460.36a4.45,4.45,0,0,1-2.91-3c-.51-2.07,1.5-2.51,2.63-2.71,1.54-.28,2.8,1.25,3,2.59C180.71,458.8,179.16,459.62,177.83,460.36Z"/><path class="cls-1" d="M343.29,485.45c1.6.6,3.12,1.5,3.14,3.61,0,1.3-1,2.43-2.13,2a5.19,5.19,0,0,1-3.52-3.71C340.58,486.13,341.87,485.54,343.29,485.45Z"/><path class="cls-1" d="M312.32,562.35a2.44,2.44,0,0,1,2.2,2.78c0,1.4.56,3.16-1.92,3.12-1.5,0-2.65-.51-2.89-2.07C309.39,564.16,311,563.34,312.32,562.35Z"/><path class="cls-1" d="M382.39,638a53.69,53.69,0,0,1-5,4.93,1.21,1.21,0,0,1-1.74-1.48c.74-2.59,3.67-3.18,5.2-5.15C381.21,635.81,382.32,636.47,382.39,638Z"/><path class="cls-1" d="M119.82,476c.05,1.81-.38,3.31-2.57,3.27a2.09,2.09,0,0,1-2.25-2.08,3.4,3.4,0,0,1,3.23-3.55C120,473.35,119.68,474.89,119.82,476Z"/><path class="cls-1" d="M568.84,437.66c1.52-.18,1.37,1.09,1.24,1.94-.27,1.73-.51,3.61-3,3.73-1.56.07-1.9-.81-1.92-2.15C565.16,438.74,567.26,438.55,568.84,437.66Z"/><path class="cls-1" d="M291.72,512.32c-1.71.06-2.88-.62-3-2.42-.08-1.28.68-2.5,1.91-2.27,1.47.28,3.46.7,3.7,2.57C294.54,511.71,293.18,512.31,291.72,512.32Z"/><path class="cls-1" d="M364.74,639.42c-1,2.41-1.6,6.08-4.72,5.4-2.79-.6-1.38-2.55.41-3.51C361.81,640.57,363.3,640,364.74,639.42Z"/><path class="cls-1" d="M464.31,535c-.09,1.82-.6,3.3-2.15,3a3.37,3.37,0,0,1-2.69-3.1c-.14-1.78,1.25-1.53,2.35-1.58C463.27,533.3,464.49,533.52,464.31,535Z"/><path class="cls-1" d="M416.45,224.74c-1.06-.37-2.95.75-2.94-1.54a2.22,2.22,0,0,1,2.51-2.42,3.23,3.23,0,0,1,3.08,2.77C419.28,225.32,417.42,224.41,416.45,224.74Z"/><path class="cls-1" d="M250.65,458.09c0,1.89-.66,3.32-2.13,3a4,4,0,0,1-2.49-2.67c-.24-1.49,1.22-2,2.69-2S250.89,457,250.65,458.09Z"/><path class="cls-1" d="M477.28,447.45a14.64,14.64,0,0,1,2,0c1.18.16,2.86-.48,3,1.63,0,1,.06,2-1.34,2.18-1.61.15-3-.11-3.46-1.94a9.31,9.31,0,0,1-.07-2Z"/><path class="cls-1" d="M249.84,646.46c-.08-3.71,1.27-5.62,3.46-7,.2-.12,1.11.31,1.13.55C254.78,643.11,251.86,643.87,249.84,646.46Z"/><path class="cls-1" d="M509.11,430.54c-.55,1.53-1.66,1.9-3.12,1.86-1.75,0-1.66-1.22-1.63-2.39,0-1.75,1.33-1.57,2.47-1.51A2.25,2.25,0,0,1,509.11,430.54Z"/><path class="cls-1" d="M49.87,419.39c-.19,1.23-1.11,1.93-2.62,2-1.25,0-2.4-.12-2.13-1.79s1.42-2,2.87-2C49.07,417.53,50,417.71,49.87,419.39Z"/><path class="cls-1" d="M51.86,480.5a2.25,2.25,0,0,1,2,2.32,2.2,2.2,0,0,1-2,2.39c-1.19.22-1.82-.33-1.88-1.59A2.78,2.78,0,0,1,51.86,480.5Z"/><path class="cls-1" d="M562.08,452.47a2.23,2.23,0,0,1,2,2,2,2,0,0,1-1.68,2.57c-1.59.14-2.15-1.14-2.15-2.63C560.26,453.42,560.32,452.44,562.08,452.47Z"/><path class="cls-1" d="M423.88,638.54c-2.13,3.08-4,4.61-7.17,4.3C418.48,640.52,420,638.4,423.88,638.54Z"/><path class="cls-1" d="M559.15,436.43c1.5.62,4.13-.43,4,2.64-.07,1.32-.92,2.35-2.17,2.05-2.74-.65-.93-3.22-1.72-4.75Z"/><path class="cls-1" d="M114.38,420.46c1.29.12,2.38.74,2.26,2.09a2.1,2.1,0,0,1-2.51,1.84,2,2,0,0,1-2-1.83C112,421.21,113.07,420.59,114.38,420.46Z"/><path class="cls-1" d="M150.75,428.62c.13,1.66-.93,1.82-2.21,1.79s-1.61-.75-1.65-1.89c-.06-1.45.52-2.06,2-2.06S150.88,427.24,150.75,428.62Z"/><path class="cls-1" d="M169.92,477.29a2.33,2.33,0,0,1,2.62-1.77c1.26.17,2.36.89,2,2.2-.19.67-1.42,1.35-2.26,1.48A2.07,2.07,0,0,1,169.92,477.29Z"/><path class="cls-1" d="M408.59,225.63c-1,0-2-.07-2-1.44s.74-2.41,2-2.16c1,.2,2.91.25,2.68,2A2.21,2.21,0,0,1,408.59,225.63Z"/><path class="cls-1" d="M64.07,432.39c-1,0-2.07,0-2-1.48a2.31,2.31,0,0,1,2.07-2.37c1.28-.21,1.75.46,1.78,1.67S65.72,432.53,64.07,432.39Z"/><path class="cls-1" d="M207.58,646.42c1.92-1.31,1.63-4.46,4.26-4.92a2,2,0,0,1,.74,1.44C212,645.4,209.94,646.2,207.58,646.42Z"/><path class="cls-1" d="M366.34,550.19c.12,1.26-.16,1.93-1.22,2a2.21,2.21,0,0,1-2.44-1.91c-.25-1.09.09-2,1.45-1.89A2.21,2.21,0,0,1,366.34,550.19Z"/><path class="cls-1" d="M372.15,239.55c-1.49.09-1.54-.92-1.55-2,0-1.26.58-1.91,1.82-1.68,1,.19,2,.78,1.85,1.94A2.06,2.06,0,0,1,372.15,239.55Z"/><path class="cls-1" d="M390.45,641.13l-6.39,5.16C385.25,641.82,388,641.66,390.45,641.13Z"/><path class="cls-1" d="M60.88,416.07c-.27,1.42-.92,2.11-2,2.28s-1.94-.19-1.85-1.57c.08-1.12.76-2.06,1.71-2.06C59.5,414.72,60.24,415.64,60.88,416.07Z"/><path class="cls-1" d="M383.42,443.36c-.15.86.13,2.32-1.4,1.71-.86-.34-2.53-.35-2.29-1.9a2.09,2.09,0,0,1,2.09-1.65C383.18,441.44,383.41,442.29,383.42,443.36Z"/><path class="cls-1" d="M370.36,637a1.85,1.85,0,0,1-1.77,1.92,2.51,2.51,0,0,1-1.81-1.3c-.5-1.15.53-1.9,1.39-2.15C369.25,635.11,369.89,636,370.36,637Z"/><path class="cls-1" d="M292,646.54c.85-1.09.72-3,2.69-3.1.27,0,.74.61.8,1,.35,2.18-1.94,1.76-2.8,2.76A3.55,3.55,0,0,1,292,646.54Z"/><path class="cls-1" d="M207.57,647.62l-3.18,3c-.19-.33-.56-.68-.54-1C204,647.88,204.9,647.08,207.57,647.62Z"/><path class="cls-1" d="M192.79,10c1.06-2.23-2.24-7.13,2.3-7.43,3.25-.22.68,4.41,1.76,6.54s.83,4.18.89,6.31c.06,1.82-.28,3.51-2.49,3.51s-2.49-1.74-2.46-3.53S192.79,12,192.79,10Z"/><path class="cls-1" d="M564.66,641c-1,0-1.47-.45-1.34-1.18.4-2.23,2.51-2.64,4.1-3.51.67-.37,2.07.38,1.51,1.09A25.88,25.88,0,0,1,564.66,641Z"/></g></g></svg>