<?xml version="1.0" encoding="utf-8"?>
<!-- Generator: Adobe Illustrator 24.1.1, SVG Export Plug-In . SVG Version: 6.00 Build 0)  -->
<svg version="1.1" xmlns="http://www.w3.org/2000/svg" xmlns:xlink="http://www.w3.org/1999/xlink" x="0px" y="0px"
	 viewBox="0 0 1204.5 1395.3" style="enable-background:new 0 0 1204.5 1395.3;" xml:space="preserve">
<style type="text/css">
	.st0{fill:#F3943C;}
	.st1{fill:none;stroke:#F2953D;stroke-width:5;stroke-miterlimit:10;}
	.st2{fill:#F2953D;}
	.st3{font-family:'Verdana';}
	.st4{font-size:72px;}
	.st5{fill:none;stroke:#F2953D;stroke-width:6;stroke-linecap:round;stroke-linejoin:round;stroke-miterlimit:10;}
</style>
<g id="Layer_1">
	<g id="Layer_2_1_">
		<g id="Layer_1-2">
			<path class="st0" d="M750.3,544.4c7.1-11.1,13.5-22.7,20.3-34c1-1.6,1.3-3.5,0.5-4.7c-1.2-1.8-2.4,0.7-3.7,0.8
				c-11.6,0.8-15.3,10.1-20,18.4c-6.2,10.9-12.6,21.7-18.8,32.7c-1.7,3-2.4,6.3,0.2,9.2c1.2,1.3,2.2,3.4,4.3,3s2-2.6,2.4-4.3
				c0.6-2.3,2.1-4.5,4.7-4.4s3.1,2.8,3.2,4.9c0.1,4.3-0.1,8.7-3.8,11.7c-1.6,1.2-2,3.5-0.9,5.3c2,2.5,2,6.4,5.3,7.8
				c1.5,0.6,2.3-0.6,3-1.9c0.8-1.6-0.2-5.1,3.4-3.9c3,1,4.8,4,3.8,6.7c-1.7,5.1,0,7.8,4.4,10.1c2,1,3.1,3.3,2.5,5.5
				c-0.7,2.2-3,1.5-4.8,1.6c-7,0.2-10,5.3-7,11.8c1.3,2.7,3.4,5.7,0.5,8c-7.3,5.7-9.6,15-16,21.3c-2.6,2.6-0.4,15.3,2.8,17.3
				c2.2,1.4,3-0.3,4.1-2c5.7-9,11.6-17.8,17.3-26.8c1.2-1.8,2-3.8,4.5-2c2.2,1.6,2.4,3.5,0.8,6c-5.3,8.4-10.1,17.2-15.7,25.4
				c-4.4,6.4-1,10.1,4.1,12.4c5.3,2.4,7.4-3.8,8.2-6.4c2.3-7.6,9.4-12.2,11.1-20c0.5-1.7,2.3-2.6,4-2.1c0.4,0.1,0.7,0.3,1,0.5
				c2.4,1.7,1.8,4.4,0.6,6.7c-2.4,5.1-5.1,10.1-8.2,14.9c-1.8,2.7-3.2,5.8-5.5,8.4c-2.7,3.1,1.4,5.5,3.6,6.9
				c3.2,2.2,5.3-0.8,6.7-3.2c3.4-5.7,6.3-11.7,10-17.2c0.8-1.2,1-5.7,4.5-3.1c2.7,2,3.6,5.1,1.2,7.8c-5,5.3-7.5,11.7-9.7,18.5
				c-0.8,2.5-0.4,2.7,1.8,2.8c8.7,0.7,15.4-4.4,19.8-12.4c6.4-11.9,14.2-23,21.1-34.6c6.6-11.2,13.5-22.3,19.2-33.9
				c3.1-6.3,0.6-13.4-1.9-19.9c-0.4-1-1.5-1.6-2.5-1.2c-0.5,0.2-1,0.6-1.2,1.1c-3,6.7-9.9,11-10.6,19.3c-0.3,3.8-3.4,8.1-6.4,10.8
				c-6.9,6.1-8.6,14.9-13.1,22.2c-1.2,2-1.2,6.7-4.5,5c-2.9-1.4-1.8-5.6-0.6-8.5c4-10.3,11.2-18.6,16.3-28.2
				c4.4-8.3,8.5-16.7,12.6-25.2c0.4-0.9,0.3-1.9-0.1-2.8c-0.8-1.2-1.7,0.3-2.5,0.4c-8.6,0.7-10.8,8.3-13.2,14.1
				c-2.9,7.1-10.7,10.3-12.5,17.8c-0.1,0.5-1.7,0.8-2.5,0.8c-0.3,0-0.7-1.3-0.8-2c-1.4-6.1,3.8-9.5,6-14.1c0.3-0.6,1.1-0.9,1.3-1.5
				c1.2-2.6,4.5-5.7,2.9-7.6s-4.3,1.5-6.4,2.9c-5.6,3.7-9.8-2.4-15-2.5c-1.2,0-0.9-2.1,0.1-3.3c9.6-11.8,16.2-25.6,24.3-38.4
				c4.8-7.6,9.9-15.4,13.7-23.3c4.9-10.5,10.8-20.3,15.9-30.6c0.8-1.5,1.5-4.1-1.3-5.6c-2.6-1.4-4.3-0.5-6.1,1.4
				c-5.3,5.5-6.3,13.1-10.3,19.3c-1.1,1.8-1.9,3.4-4.2,3.5c-1.3,0-2.8,0.2-3.5-1.3c-1-2.2,1.1-3.1,2-4.6c2.6-4.2,5-8.5,7.5-12.7
				c1.4-2.4,2.1-5.8,0.6-7.5c-1.9-2-5.1-0.8-7.9,0.2c-1.9,0.7-3.8,4-5.1,2.2s-0.9-5.3-0.1-7.7c2.2-7.4,7.8-13,11.2-19.7
				c4.4-8.7,8.7-17.4,13.1-26.1c2.5-5-2.1-10.9-4.6-16c-0.4-0.8-1.3-1.1-2-0.8c-0.5,0.2-0.9,0.7-0.9,1.3c-2.1,10.9-9.3,19-15.4,27.6
				c-4.2,6-1.5,12.1-3.6,18l-5.7-6.1c-1.1-9.3,5.4-16.3,9.5-24c3.6-6.9,7.6-13.6,11.9-20.1c3.5-5.3-2.4-5.8-4.1-8
				c-2-2.6-3.2,1-4.1,2.3c-7.3,11.3-14.5,22.7-21.7,34.1c-3.8,6.1-7.7,12.1-11.7,18.1c-0.7,1.1-1.8,2.8-3.5,1
				c-2.4-2.4-2.2-5-0.5-7.6c5.9-9.2,11.8-18.4,17.7-27.7c3.4-5.4,6.7-10.8,10-16.3c1.5-2.6,4.4-6.7,1.1-7.9
				c-3.5-1.3-9.2-2.8-12.4,1.7c-5.8,8.1-11.2,16.6-16.1,25.3c-2.3,4.2-5.9,7.5-7.6,12c-0.4,1.1-1.6,1.7-2.8,1.3c0,0-0.1,0-0.1-0.1
				c-1.1-0.5-1.8-1.5-1.8-2.7c-0.4-2.6,1.1-4.5,2.2-6.4c5-8.4,10.3-16.6,15.4-24.9c1.8-2.8,2.4-4.3-2.5-5.1
				c-10.7-1.7-16.5,3.2-20.2,12.3c-1.1,2.7-2.9,5.3-5.7,3.6c-2.6-1.6-1.7-4.8-0.1-7.3c1-1.3,1.9-2.7,2.6-4.1
				c0.3-1.2,0.2-2.6-0.4-3.7c-0.3-0.5-2.2-0.4-3.2,0c-4.9,1.8-9.8,3.6-14.5,5.8c-2.3,1.1-3.7,3.5-3.6,6.1c0,1.6-0.1,3.1-1.9,3.6
				c-2.2,0.6-2.5-1.5-2.9-2.6c-0.3-1.1-1-2-1.9-2.6c-1.5-0.9-4.5-0.3-4.1-3.3c0.4-2.9,3.5-2.6,5.2-4c0.4-0.4,1.3-0.2,1.9-0.3
				c3-0.9,5.6-3,6.4-5.4c0.9-2.8-3.5-0.6-4.3-2.6c-0.1-0.1-0.2-0.2-0.4-0.3c-3.2-2.2-6.7-6.4-9.6-6c-3.6,0.5-3,6.4-4.7,9.8
				c-0.5,0.9-1.2,1.6-2,2.2c-1.3,1.1-2-0.5-3.1-0.7c1.4-6-9.5-3.4-7.1-9.9c0.8-2.1,2-4.5,3.7-5.7c6.1-4.3,2.7-8.7,0.3-12.8
				c-1.4-2.4-4-2.7-6,0s-3.9,5.3-5.6,8.1c-1.3,2-2.2,4.5-5.2,2.7c-2.5-1.6-2-3.5-0.3-5.8c2.8-3.6,4.4-7.9,7.4-11.5s-0.2-6.2-2.9-8.1
				c-2.3-1.7-4.5-1.6-6.5,1.4c-9,13.7-17.4,27.7-25.5,42c-4.3,7.6-7.6,16.1-13.3,22.9c-1,1.2-1.8,3.8-4.2,1.7
				c-1.6-1.5-3.5-2.6-1.6-5.7c12.7-20.7,25.1-41.6,37.5-62.5c1.2-2,3.1-4.7-0.1-6.4c-2.6-1.4-5.2-2.5-7.9,1.3
				c-9.8,14.2-17.8,29.5-27,44.1c-1.9,3-3.7,6.1-5.6,9.2c-1.2,1.8-1.5,5.6-5,3.2c-2.3-1.4-3-4.4-1.5-6.7c0.2-0.2,0.3-0.5,0.5-0.7
				c11.4-14,19.5-29.9,28.4-45.4c0.9-1.6,5-1.8,3-3.9s-4.7,1.1-7.1,1.9c-16.2,5.1-21.1,20.4-29.2,32.8c-1.1,1.7-1.7,5.3-4.8,3.1
				c-2.2-1.5-1.7-4.4-0.3-6.7c2.3-3.7,4.7-7.5,7.1-11.1c0.7-1,1.5-2.1,0.5-3c-1.3-1.1-1.9,0.6-2.8,1.2c-2.3,1.6-4.5,3.3-6.9,4.7
				c-1.8,1.1-4.4,1.5-5.3-0.4c-1.5-3.1-7.2-4.6-4.8-9.2c8.6-16.7,19-32.3,29.6-47.8c7.7-11.3,15.2-22.8,22.3-34.5
				c6.3-10.3,13.3-20.2,19.6-30.5c5.4-8.9,11-17.7,16.4-26.5c1.8-2.9-0.7-5.2-3.2-6c-1.9-0.6-4.9-2-5.8,2c-0.6,1.5-1.5,2.9-2.7,4
				c-1.1,1.2-2.1,3.1-4,2.3s-1.2-3.2-0.8-4.4c3.3-9.9-3.3-7.1-8-6.1c-2.5,0.5-6.4,3.2-6.5-0.8c-0.1-3.2,1.3-8.5,6.4-9.2
				c10.3-1.6,20.7-2.5,29.9,4.3c2,1.4,3.1,0.5,3.7-1.4c4.5-14.6,17-19.3,29.5-23.8c19.7-7.2,41.2-9.6,59.1-21.3
				c12.3-8.1,21.5-19.4,19.5-35.1c-1.5-12.2-8.4-22.8-15.3-33c-6.5-9.4-13.7-18.4-19.7-28c-6.3-10.1-2-26.5,7.4-36.1
				c12.1-12.4,34.7-17.5,50.3-10.2c8.9,4.3,16.9,10.4,23.3,18c11,12.8,16.9,28.1,22.8,43.7c3.4,8.8,2.5,21.7,6.8,30.2l-9-2
				c-2.7-18.5-11.1-38.1-20.9-53.6c-7.9-12.4-16.8-25.1-31.5-31.2c-4.9-2-9.8-4.1-15-0.9c-6.4,3.9-14.2,5-19.8,10.7
				c-7.5,7.7-8.8,25.7-1.6,33.5s12.2,16.8,17.9,25.5c8.5,12.9,13.7,27.2,13.6,43.2c-0.1,13.7-7.7,22.6-17.8,29.6
				c-17.5,12-37.7,17.3-58,21.9c-9.6,2.2-18.3,6.8-26.4,12c-7.5,4.9-7.8,13.8-6.7,22c2.4,17.4,7.4,34.5,14.6,50.5
				c2.9,6.6,13.6,14,20.6,14.5c20.9,1.3,40.6-5,60.7-8.6c13.2-2.4,25.8-6.7,39-9.1c18.1-3.3,36.2-2,54.2-3.7
				c17.2-1.6,34.4-2.3,51.6-4c5.2-0.5,8.7-5.1,11.1-10.2c5.5-11.6,5.2-24.4,6.4-36.5c1.2-12.9,6.3-25.3,4.8-38.6
				c-0.6-4.7-3.1-8.6-7.3-11.8c-0.7-0.5,1.8-2.2,1.5-3.1c1-0.1,2.1-0.6,2.9-0.3c6.8,2.8,13.6,5.8,20.5,8.7c2.5,1,3.1,3,1.6,4.7
				c-9.1,10.4-10,23.6-12.3,36.2c-1.4,7.6-2.5,15.3-2,23.1c1,17.6,4,21.8,19.5,28.7c14.9,6.6,30.4,6.7,45.6,9.5
				c9.6,1.8,19.2,4.8,28.7,7.6c7,2.1,7.6,5.4,7.2,11.1c-0.2,2.7-0.6,3.7-3.5,2.3c-8.4-4-15.5-2.1-20,5.9c-2.5,4.7-4.3,9.8-5.3,15
				c-0.9,4.5-2.6,3.6-5.8,2.7c-7.8-2.1-10.4-7-10.6-14.7c-0.2-5.2-2-10-7-13.4c-9.5-6.6-20.7-10.5-32.2-11.1
				c-26.5-1.8-53-3.3-79.5-2.6c-8.9,0.2-18,1-26.3,5c-9.4,4.6-12.8,10.8-9.6,20.8c3.3,10.6,2.7,21.7,5.8,32.2c0.8,2.7,1.1,5.5,1,8.2
				c-0.3,4.5,4.4,5.2,6,8.5c1.9,4.2,5.8,7.5,9.3,10.8c3.3,3.1,7.7,0.4,11.7,1.1c15.1,2.7,30.5,1,45.8,1.2
				c12.7,0.2,25.6,0.4,38.2-1.2c10.5-1.3,20.8-5.9,29.6-11.6c5.5-3.6,9.2-21.7,9.7-29.2c0.3-4.1,2.2-3.4,5.3-2.8
				c12,2.2,6.9,22,8.2,28.9c1.5,7.9,9.4,17.5,17.6,17.9c4.9,0.2,8.2,5.3,13.3,3.7v10.1c-23.5-6.2-47.3-10.7-72-7.9
				c-16.7,1.9-22,14-25.6,27.7c-1.1,4-3.3,7.5-3.2,12.1c0.4,18.3,6.8,28.4,24.4,34c9.7,3.1,19.7,6.1,30.4,5.4
				c2.1-0.1,4.3,2.2,6.6,2.8c10.4,2.9,21.4,1.8,32,2.4c8.5,0.5,8.5,3.6,7.6,9.3l-27.5-1.8c-8.3-0.5-16.6-0.2-24.9,1
				c-8.8,1.2-17.9,12-19.8,20.5c-2,8.9,0.3,17.8-2.4,26.6c-1.9,6,5,16.8,10.8,20.3c4.6,2.8,8.5,6.4,13.5,8.8c8,3.8,16.5,5,25,5.9
				c7.4,0.8,14.8,0.9,22.3,1.1c2.3,0.1,3.3,0.7,3.2,3.1c-0.1,4.6,0,9.3,0,14.3c-10.9-7.9-23-9.8-35.7-10.6
				c-4.6-0.2-9.1-1.4-13.1-3.5c-8.8-4.8-16.9-1.3-25.5,0.1c-11.5,1.9-13.4,10.5-16.6,19.1c-2.9,7.7-3.9,16-2.9,24.2
				c1.6,13.4,2.4,28.8,18.5,33c11.3,2.9,21.6,8.4,33.1,10.6c7.9,1.5,15.5,4.9,22.9,8.2c5.3,2.3,10.4,4.2,16.1,3.5
				c2.9-0.3,3.2,1.2,3.2,3.6c-0.1,10-0.1,20.1,0,30.1c0,2-0.1,2.8-2.5,2.3c-5.1-1.1-10.3-1.6-15.4-2.7c-3.4-0.7-6.6-0.8-9.4,1.5
				c-5.2,4.2-11.1,7.9-15.3,13c-6.4,7.8-4,26,3.2,34.3c6.4,7.3,13.8,12,24.1,10.9c4.8-0.5,7.8-5.2,12.8-5.1c0.9,0,1.8-1.7,2.6,0.5
				c2.4,6.6-0.7,13.5-7.2,15.5c-1,0.3-2.5-0.4-2.8,1.3c-0.2,1.6,0.9,2.5,2,3.2c8.7,5.8,6.4,15.7,8.9,23.8c0.3,1-0.3,1.3-1.4,1
				c-2.8-0.7-5.4-1.5-6.5-4.6c-0.8-2.5-1.2-5.1-2.5-7.4c-4.1-7.4-11.3-10.7-18.8-13.1c-4.6-1.5-8.2,1.6-11.5,4.2
				c-5.3,4.1-19.5,0.7-20.7-5.8c-1.9-10-8.6-15.8-15.9-21.3c-8.8-6.5-22.8-2.5-30.3,8.3c-7.3,10.5-6.8,27.9,6.5,35.8
				c8,4.8,16.1,4.7,24.4,5.5c3.9,0.4,12.9-11.2,13.8-14.1c3.2-9.5,8.8-5.1,13.9-3.3c5,1.8,4.2,12.4,6.3,18.3
				c2.4,7.5,8.4,13.3,16,15.4c6.3,1.8,15.4-9.4,19-13.6c3.2-3.7,6.1-1.6,8.1-0.1c2.8,2-0.8,3.3-1.9,4.4c-1.7,4.8-7.1,15.1-3.1,17.1
				c3.1,1.6,3.7,3.6,3.6,6.7c-0.1,11.5,0,23-0.1,34.5c-0.1,5.9-2.5,9.3-8.9,11.2c-8.5,2.5-16.5,4.8-25.5,3c-2.1-0.4-2.5,4.3-2.4,6.9
				c0,1.8-1.5,4.9,2.3,4.8c7.7-0.3,13.4,4.2,18.4,8.7c5.4,5,8,3.5,10.8-1.9c0.6-1.1,0.8-2.9,2.5-2.3c0.5,0.2,0.8,2,0.7,3
				c-0.1,3.4,1.1,7-2.4,9.6c-0.5,0.7-0.7,1.5-0.4,2.3c6.1,11.8,1.4,24.4,2.9,36.5c0,0.2,0,0.3,0,0.5c-0.1,4.6,1.3,12.4-0.6,13.3
				c-5.7,2.8-11.2,7.3-18.3,7.2c-2-0.1-4,0-5,2.2s1.2,3.3,2.3,4.4c5.5,5.8,8.9,12.5,7.5,20.6c-1.2,7.1,2.7,9,8.3,8.6
				c3.1-0.2,3,0.9,2.9,3c-0.1,4.1,0,8.2,0,12.8c-6.3-8.3-15-8.9-22.1-2c-2.6,2.5-5.1,5.5-8.3,7c-5.2,2.5-4.1,6.3-2.4,9.6
				c1.9,3.7,0.7,10.8,0.8,14.6c0,3-1.4,5.1-4.4,4.6c-2.7-0.5-6.5-1.2-5.4-5.4c2.6-9.8-3.3-17.6-9.8-21.5c-4.6-2.7-10.3-3.7-15.5-5.4
				c-3.1-1-4.4,1.9-6.3,3.1c-4.8,3-11,2.2-15.3,6.7c-2.2,2.4-2.9,4.3-1.9,6.8c1.3,3,2.1,5.7,0.8,9c-1.2,2.9,2.1,2.7,3.3,3.1
				c6.8,2.3,12.8,6.6,17.2,12.4c1.8,2.2-0.4,7.1,3.2,6.7c5.8-0.7,12.3,0.8,17.2-4.2c3.2-3.3,9-14.6,13.7-6.3
				c1.5,2.7,5.2,7.5,9.6,9.2c9.8,3.9,19.8,7.4,29.6,11.6c2.8,1.2,4.1,2.6,4,5.8c-0.2,12,1.5,24.2-0.5,35.9
				c-2.5,15.2-0.8,30.2-1.6,45.2c-0.1,2.1-1,2.5-2.7,3.3c-16.9,7.5-27.8,24.9-26.3,43.5c0.7,8.4,3,16.7,4.2,25
				c0.4,2.7,3.1,6.1,5.7,7.1c6,2.5,9.3,8.4,15,11c6.2,2.8,4.4,8.5,3.8,13c-0.5,3.6-5,2.3-7.8,3c-20.1,5.7-40.9,2.2-61.2,5.8
				c-7.6,1.4-15.3,2-23.1,2c-14.7-0.1-26.9,5.1-31.9,18.9c-3.2,8.7-6.9,17.8-4.7,28.7c2.2,10.2,5.4,20.5,6,31.1
				c0.2,3.9,3.3,6.3,6.5,7.3c5.3,1.8,10.6,4.2,16.5,4c13-0.4,25.9,0.1,38.9-0.4c13.4-0.5,26.4-4.1,39.8-4.1c6,0,12.8-3.5,14.4-11.6
				c0.5-2.5,3.1-4.6,5.4-4.4s0.9,3.3,1.2,5c1.2,8.8-3.5,13.7-11.2,16.4c-1.6,0.6-3.1,1.1-2.6,2.9c0.8,2.8,2.6,0.3,3.5,0
				c2.1-0.7,4.6-0.3,6.4-2.2c1-1,3.1-1.5,3.7,0.4c0.4,1.4,0.8,2.8-1.8,4.1c-8,4.3-17,3.6-25.4,5.5c-4.3,1-4,2.1-2.4,4.8
				c2.3,3.8,4.4,7.7,3.8,12.4h-10c-2.8-5.6-5.6-11.2-8.6-16.7c-0.3-0.6-1.4-0.9-2.1-1.2c-7.1-2.8-13.8-4.5-22.2-3.7
				c-17.5,1.8-35.3,0.9-53,2.3c-15.1,1.2-19.3,4.6-19,19.2h-11c3-10-1.7-18.7-9.4-16.8c-12.5,3-25.2,2.7-37.9,2.8
				c-5.5,0.1-11.1-1-16.3,2.6c-1.9,1.3-5.2,1-8-0.6c-7.8-4.4-23.2-1.4-29.2,5.4c-1.5,1.8-2.3,4.8-5.6,3.3c-2.8-1.3-2.5-4-2.5-6.5
				c0-9.2-3-12.7-12-14.2c-1-0.2-2.2,0.1-2.9-0.5c-9.9-8.1-22.8-9.4-34-14.6c-12.7-5.9-26.4-9.8-39-16.2c-7.3-3.7-14.8-5.5-22.4-0.1
				c-6.1,4.3-7.3,11.5-10.3,17.3c-7.7,14.9-17.4,27.7-30.5,38.1h-19c-3.4-2.6-7.6,0-11.3-2c-10.2-5.5-18.6-13.3-28-19.9
				c-11.2-7.8-21.8-16.6-35.1-20.4c-3.8-1.1-8.7,1-13.1-0.3c-0.3-0.1-1,1.5-1.7,2.2c-11,11.2-22.4,22-32.3,34.2
				c-1.9,2.4-5.4,2.2-7.4-0.5c-1.7-2.3-1.5-4.3,1.3-6.6c4.5-3.7,7.8-8.8,12.3-12.5c6.7-5.7,10.6-14.1,18.8-18.5
				c5.7-3,7.2-18.1,2.6-21.6c-11.7-8.8-21.3-19.9-31.4-30.3c-12-12.4-22.8-26-34.2-39.1c-13.1-15-25.8-30.6-41-43.5
				c-14.6-12.4-21.1-17.3-40.4-3.8c-7,4.9-12.9,11.2-20.3,15.5c-6.8,4-13,9-18.5,14.7c-9.6,10-11.7,26-2.9,34.8
				c7.4,7.4,13,15.9,20,23.5c6.9,7.4,7,20.7-0.2,26.6c-11.2,9.3-22.6,18.3-33.3,28.2c-6.3,5.8-10,18.9-6.3,24.2
				c6.2,9.1,22.9,14.9,30.7,10.4c13.8-7.9,27.3-16.3,41.3-23.8c3.9-2.1,8.5-5.3,13.8-2.4c8.8,5,17,11.1,24.3,18.1
				c1.3,1.2,5,2.2,2.4,5.3c-1.6,2-4.5,2.4-6.5,0.8c-0.2-0.2-0.4-0.3-0.6-0.5c-4.8-5.3-11.7-7.7-16.5-12.9c-4.3-4.7-9.4-3.6-14-1.3
				c-12.5,5.9-21.9,16.8-35.2,21.6l-34,0.3c-3-2.2-5.7-5.1-9.1-6.3c-5.9-2.2-6.1-7-6.9-11.7c-2.6-14.9,6.5-24.3,15.6-33.8
				c5.3-5.4,11.5-9.4,17.5-14c12.3-9.2,11.7-24.4-0.8-33.5c-15-10.8-22.8-34.1-17.2-51.6c1.1-3.3,0.7-3.7-2.9-5.5
				c-9.8-4.9-21.7-6.5-27.6-18.4c-2.6-5.2-7.5-9.5-10.7-14.8c-4.6-7.6-5.9-16.4-10-24.3c-7.3-13.8-14.8-27.5-23.2-40.6
				c-2.1-3.2-2.4-7.3-6.8-9.6c-8.1-4.3-13,1.1-18.5,4.6c-12.7,8-26.4,14.3-40.7,18.8c-12.4,3.9-24.6,9.2-38.5,9.4
				c-9.1,0.1-18.4,3.5-27.9,2.4c-18.3-2-24.6-12.9-29.1-28.9c-2.6-9.4-4.3-18.1-0.1-27.7c5.8-13.1,16.2-19.9,28.5-25.3
				c10-4.4,20-8.8,30.6-11.2c12.8-3,24.7-9,37.8-10.7c9.3-1.2,17.5-5.3,25.5-9.8c6.5-3.6,8.2-17.6,7.3-23.9
				c-3.1-21.1-12.7-41.2-10.5-63.1c1-10.5,4.9-19.5,15.4-24.1c0.8-0.3,1.8-0.5,1.2-1.5c-0.6-0.7-1.4-1.3-2.4-1.5
				c-12.2-3.3-24.1-6.5-30.5-19.5c-5-10-5.2-20.1-3.2-30.5c0.7-2.7,1.2-5.4,1.3-8.2c0.1-16.1,6.1-31.6,4.2-48
				c-1.1-9.3-9.3-19.3-18.4-21.9c-19.4-5.5-39.3-5.2-59-7c-12-1.1-24-3.3-36-2.7c-9.5,0.5-19,0.3-28.4,0.4
				c-13.5,0.2-27-2.1-40.6-1.6c-14.4,0.5-27.5-3.1-38.9-12.1c-6.3-5-9.6-12.1-12.4-19.2c-5.7-14.5,0.5-29.1,14.4-39.6
				c12.7-9.6,27.3-11.8,42.3-12.8c13.7-0.9,27.4,1.2,41.1,1.6c5.3,0.2,10.7,0.4,16,0.3c14.8-0.2,28.9,5.1,43.7,5.5
				c6.5,0.3,13,1,19.5,2.1c11.9,1.6,24.2,0.8,36.3,1.3c23.8,1.1,39.4-12.5,46.7-35.4c3.9-12.2,6.6-25.2,14.1-35.6
				c5.4-7.5,10.5-16.2,20.5-19.1c3.1-0.9,2.7-3.8,1.5-5.8c-6.4-10.5-4.9-21.6-3.1-33c2.3-14.4,11.1-25.7,17.2-38.3
				c5.2-10.8,11.9-20.8,17-31.5c4.8-9.9,3.3-20.5-0.7-30.6c-5.3-13.5-13.2-24.4-25.3-33.1c-10.2-7.3-18.4-17.3-28.1-25.5
				c-13.9-11.7-28.2-22.7-42.4-34.1c-7.9-6.3-15.2-13.2-25.8-15.5c-10.2-2.3-20.5-3.4-30.7-5.6c-15.4-3.2-31.3-5.7-43.8-16.6
				c-6.9-6.1-8.7-14.9-10.6-23.2c-2.9-12.4,2.8-21.7,16-28.7s27.6-9.8,42.4-11.4c6.4-0.7,12.6-2.1,19-2.7c5.6-0.5,11,1.4,16.5,2
				c15.7,1.8,30.6,7.6,45.3,13c7.9,2.9,14.9,8.5,21.8,13.6c10.5,7.9,20.1,17.2,29.2,26.4c7.5,7.6,13.3,17.2,20.1,25.8
				c9.6,12,20.4,23,32.3,32.8c4.6,3.8,9.2,7.6,13.9,11.3c4.1,3.3,10.1,2.7,13.5-1.5c0,0,0.1-0.1,0.1-0.1
				c12.8-16.6,29.4-28.6,46.6-39.7c6.6-4.3,13.1-9.8,22.1-10.2c3.3-0.1,6.4-2.3,6.1-7.3c-0.7-14.3,7.2-24.5,17.3-33.4
				c6.4-5.6,12.6-11.4,19.1-16.9c3.4-2.9,8-3.8,11.4-7.2c6.1-5.9,8.3-13.8,2.7-19.8c-6.1-6.6-8.4-15.3-13.7-22.3
				c-5.3-7-10.5-14-15.8-20.9c-9.5-12.4-18.5-25.3-28.3-37.6s-19.9-23.7-34.1-31.4c-10.2-5.5-20.3-11.6-28.6-19.4
				c-10.5-9.7-14.7-32.3-0.8-44.7c6-5.3,12.9-6.7,19.6-8c11.2-2.1,22.8-3.5,34.1-1.2s22.2,5.8,31.9,13.8
				c9.1,7.5,18.8,14.7,27.5,22.7c11.7,10.7,23.5,21.4,31.7,35.6c5.7,9.8,14.1,18,20.9,27.3c5.4,7.2,10.8,14.4,15.4,22.1
				c2.7,4.5,5.6,8.1,10.5,10.8c4.2,2.3,6.8,7.3,11.8,9.2c2.7,1,5.7,1.2,8.5,0.6c10.1-1.8,18.2-8.3,27.7-11.4c4-1.3,5.2-1.6,5.8,3.4
				c1.6,13.3-6.3,23-11.8,33.7c-13.5,26.7-32.5,49.9-48,75.3c-2.3,3.8-4.7,7.5-7.2,11.1c-0.8,1.1-1,3.2-3,1.9
				c-1.5-1-2.8-2.3-1.5-4.5c8.2-13.7,15.7-27.9,26.1-40.1c9.2-10.8,14.9-23.8,22.2-35.8c6.4-10.6,12.1-21.6,18.2-32.5
				c0.4-0.7,1.3-1.3,0.4-2c-0.6-0.4-1.2-0.4-1.9-0.2c-5.6,2.5-10.9,5.7-17,7.1c-1.1,0.4-2,1.3-2.4,2.4c-9.2,21.3-23.3,39.8-36,58.8
				c-14.7,22-28.3,44.7-43.4,66.5c-8,11.5-14.2,24.1-21.5,36.1c-3.6,5.9,1.6,8,4.5,10.9c3.1,3,5.4-0.2,6.8-2.3
				c4.9-7.5,9.2-15.4,14.1-22.8c4.3-6.4,7.3-13.6,12.9-19.1c1.5-1.5,1.6-4.2,2.7-6.1s3-3.5,5.3-2.2s1.6,3.4,0.5,5.2
				c-8.7,14.4-17.5,28.7-26.3,43c-2.1,3.4-2.7,7.5-5.5,10.6c-1,1-1.2,4.2,2.4,5.2c2.9,0.8,4,0.2,5.4-2.2c6.3-10.7,12.7-21.4,19.3-32
				c3.4-5.4,7-10.6,10.7-15.9c1.3-1.8,2-5.3,5.2-3.5c3.4,1.9,1.2,4.4-0.2,6.7c-7.1,11.7-14.1,23.5-21,35.3c-1.1,1.7-1.4,3.9-0.6,5.9
				c5-4.2,9.6-9.1,15.1-12.4c8.5-5,10.6-14.6,16.3-21.5c1.4-1.6,2.3-1.9,3.8-1.8c1.7,0.2,3.1,1.5,3.3,3.2c0.5,1.9-0.7,2.5-2.1,3.3
				c-4.5,2.6-7.6,5.6-4.3,11.5c2.4,4.4-1.5,6.1-4.5,7.8c-6.1,3.5-8.8,8.1-6,15c0.4,1.1,0.6,3,2.2,2.8c1.1-0.4,2-1.2,2.5-2.3
				c2.3-5.3,5.9-9.8,8.8-14.7c0.9-2,3-3.1,5.1-2.8c1.5,0.1,2.7,0.4,3.2,1.8c0.7,2.3-1.1,3.5-2.1,5.2c-4.3,6.9-9,13.7-12.4,21.1
				c-2.1,4.8,3.4,7.6,6.2,10.3s2.9-2.2,4.2-3.5c7-7.2,10.4-16.8,16.2-24.8c1.7-2.4,3.6-2.5,5.5-1.6c2.3,1,1.9,3.1,0.7,5
				c-5.6,9.2-11,18.6-16.9,27.6c-2.8,4.3-0.9,6.4,2.6,8.1c3,1.5,5.6,1.6,7.8-2.1c6-10.1,12.5-19.9,18.8-29.8c0.7-1.2,2.3-1.6,3.5-1
				c2,1,1.3,3.1,0.7,4.3c-2.1,4.2-5,8-6.8,12.3c-2.8,6.6-6.6,12.5-10.4,18.5c-1.1,1.8-1.1,4.4,1.7,5.2c2.4,0.6,4.9,1.5,6.9-1.6
				c5.3-8.4,11-16.6,16.4-24.9c1-1.6,1.5-3.6,2.6-5.2s2.7-3.3,4.8-2.2s0.9,2.7,0.7,4.7c-1.1,8.8-9.3,13.4-11.8,21.1
				c-0.6,1.2-0.7,2.5-0.5,3.8c1.1-0.3,2.2-0.8,3.3-1.3c1.2-0.6,2.1-1.7,3.3-2.2c15.1-5.9,18.2-21.4,26.2-33
				c6.5-9.5,12.1-19.8,18-29.7c0.6-1.1,2-1.6,3.1-1c0.2,0.1,0.5,0.3,0.6,0.5c1.9,1.7,1.5,3.9,0.3,5.9c-3.3,5.6-6.7,11.2-9.9,16.8
				c-4.4,7.6-8.8,15.1-13.2,22.8c-0.6,1.1-1.8,2.4-0.5,3.5s2.3-0.4,3.4-0.8c15.8-6.2,20.9-21.5,29.2-34c0.9-1.4,1.4-3.8,3.9-2
				c2.2,1.5,2.3,3,0.5,5.4s-2.6,5.4-2.5,9.2c0.6-1,1.2-2.1,1.8-3.1c4.7-6.6,8.8-6.7,13.3-0.2c1.4,2,0.6,3.7-1,5.3
				c-6.4,6.3-9.2,13.9-7.2,22.8c0.4,1.2,0.9,2.3,1.5,3.4c0.9-0.9,1.8-1.8,2.6-2.8c1.3-1.6,1.6-4.5,4.2-4.4c1.9,0.1,3.5,1.5,4.3,3.6
				c1,2.7-0.5,4.4-2.1,6.1c-4,4.3-6.3,8.8-2.6,14.6c1.9,3,3.7,3.7,5.7,0.4c2.4-4,4.6-8.2,7.1-12.2c1.5-2.3,2.5-6.1,6.5-4
				c3.8,2,1,4.5-0.1,6.6c-2.6,5.1-5.4,10-8.3,15c-3.3,5.7,1.9,7.2,4.8,9.4s5.8,2,8.4-1.7c3.6-5.1,6.7-10.5,9.4-16.1
				c1.5-3.2,3.8-5.2,7-3.5c3.8,2,0.3,4.8-0.7,6.7c-2,3.9-5.1,7.2-6.1,11.6c-0.6,2.7-3.7,6.5-0.5,7.8c4.4,1.9,9.6,0.2,12-4
				c2.7-4.5,5.6-8.9,8.1-13.4c1.5-2.8,3.5-2.6,5.7-1.4c2.7,1.5,1.6,3.5,0.3,5.4c-1.9,3-4,5.9-5.8,9c-1.3,2.1-0.4,3.2,1.9,2.9
				c5.8-0.6,10.5-2.4,14.8-7.1c4.9-5.3,5.1-12.5,9.6-17.7c1.1-1.3,1.6-3.7,3.8-2.6c2,0.9,0.9,2.7,0.3,4.3
				c-1.7,4.6-1.1,10.1-6.4,13.2c-1.6,1-0.9,3.1,0.6,4.7c3.1,3.2,1.5,9.4-2.9,9.8c-10.4,1.1-12.5,10.1-16.1,16.9
				c-4,7.4-8,14.8-12.2,22.1L750.3,544.4z M183.6,310c-16.6,2.4-28.9,1.8-39.1,9c-4.8,3.4-11.6,5.4-13.4,11.6
				c-2.7,9.3,8.3,30.1,17.4,34.6c12.6,6.1,26.2,9.7,40.2,10.7c15.1,1.3,29,2.9,41.9,13.4s25.4,21.4,38.4,31.6s24.9,21.9,37.3,33
				c6.9,6.2,14.4,11.8,20.4,18.7c6.2,7.2,9,16.6,13.1,25.1c5.7,11.9,5.9,24.1,0,35.2c-12.1,22.5-25.9,44.1-33.6,68.8
				c-5.1,16.3,1.7,30.5,17.6,34c16.5,3.7,33,7.4,49.6,10.7c10.4,2,19.1-1.3,26.6-9.2c5.2-5.5,6.8-13.1,11.6-18.7
				c15.5-17.8,24.5-39.6,37.7-58.9c7.9-11.7,14.8-24.1,22.7-35.8c6.3-9.4,14-17.8,19.7-27.5c7.2-12,16.7-21.9,26-31.9
				c3.9-4,6.9-8.9,8.8-14.2c1.4-4.3-4.3-5.5-6.3-8.6c-0.4-0.7-0.9-1.4-1.4-2c-7.9-8.1-15.3-16.9-24-24.1s-16.6-14.5-21.9-24.2
				c-4-7.4-10.4-6.8-15.7-4.8c-11.8,4.4-23.2,9.9-32.2,19.5c-8.2,8.8-18.3,16.3-25.1,26c-5.4,7.6-10.6,6.9-17.3,5.1
				c-9.5-2.5-16.8-8-24.3-14.7c-13.7-12.1-26.2-25.5-37.5-39.9c-9.2-12-17.5-24.7-29.8-34.1c-13.3-10.2-25.4-21.5-41.5-28.7
				c-11.7-5.2-24.1-5-35.3-9.8c-1.6-0.8-3.5-1.1-5.3-0.8C198.8,311.3,188.5,308.2,183.6,310z M64.7,727c-9,0.9-24.8,2.5-39.7,10
				c-17.9,9-19.7,29.2-4,41.9c12.6,10.2,27.5,10.9,41.9,12.5C76.7,792.9,91,790,105,791c19,1.3,38,0.1,57.1,1.5
				c8.1,0.6,16.4,0.8,24.5,0.9c8.4,0.1,17.2,1.7,25.7,3.5c5.7,1.2,12.1,1.8,16.6,5c13.3,9.2,16,24.2,18.8,38.8
				c0.7,3.7,0.8,7.4,0.4,11.2c-0.8,6.8-2.3,13.4-3.4,20.2c-1.2,7.5-2,15.2-3.5,22.7c-2.4,11.9,3.6,29.1,18.1,33.3
				c12,3.5,24.1,3.8,36.3,4.8c8.4,0.7,16.6-2.1,25-0.2c6.4,1.5,12.4-2.5,19-2.2c3.5,0.2,6.7-3.3,7.6-6.4c1.6-5.4,4-10.6,3.7-16.7
				c-0.4-5.4-0.4-10.7,0-16.1c1.6-15.1,0.3-30.3,2.2-45.4c1.9-15-0.3-30.4,0.7-45.5c0.4-9.3,1.6-18.6,3.5-27.7
				c3.7-16.9,5-34.2,9.1-51c3.5-14.3,5.6-28.8,7.7-43.4c1.4-10-5.2-23.2-15-22.8c-11.6,0.4-20.7-6.8-31.9-7.3
				c-6.6-0.3-13.1-4.2-19.5-3.7c-7.3,0.5-14.1,2.8-19.3,10.4c-6,8.9-9.5,18.2-11.9,28.3c-1.7,7.1-3.4,14.3-6.7,20.8
				c-3.9,7.9-9.6,14.8-15.2,21.6c-6.4,7.8-14.6,12.6-24.8,12.2c-19-0.6-38-1.4-57-3c-13.7-1.1-27.5-2.6-41.2-3.5
				C111.9,730,92,726.3,64.7,727z M139.7,1124.7c-0.7,6.2,2.4,13.4,6.1,20.5c1.4,2.7,3.4,5.7,6.1,6.1c9.3,1.6,18.4,3.6,28.2,3.8
				c19.9,0.4,36.5-8.4,53.6-15.5c12.8-5.3,24.5-13.2,37.8-17.8c14.7-5,23.6-3.2,29.6,11.1c2,5,4.4,9.8,7.1,14.4
				c10.4,16.2,19.6,32.9,26.6,50.9c3.1,8.1,7.7,16.1,14.7,20.9c10.5,7.2,22.5,6,34.7,3.6c7.9-1.6,13.5-6.6,20.1-9.9
				c6.9-3.4,14.6-6.7,19.1-13.7c2.6-4.1,4.4-8.7,7-12.8c2.8-4.4,2.4-22,0-26.6c-4.7-9.1-9.7-18.2-12.5-27.9
				c-2.8-9.5-6.1-18.9-9.6-28c-6.9-17.5-14.7-34.7-21.3-52.4c-5.6-15.2-11.3-30.3-16.4-45.7c-6-18-11.2-36.3-17.4-54.3
				c-1.5-4.4-4.2-9.7-9.5-10.5c-8.1-1.4-16.4-2.1-24.6-2.1c-15.6,0.1-30.8,3.3-45.7,8c-6.3,2-14.3,11.9-14.9,17.1
				c-2.1,18.1,5.4,34.4,9.6,51.2c4.8,19.2,8.1,36.2-11.8,47.6c-10,5.7-22.1,8.2-33.6,10.6c-21.7,4.4-43,9.9-62.1,21.1
				C150.2,1100.5,139,1107.5,139.7,1124.7L139.7,1124.7z M424,114.3c-7.9-2-14.3,2.1-20.3,5.6c-5.1,3-5.4,19.6-2.5,25.6
				c4.6,9.3,14,11.9,21.7,16.7c13.1,8.2,26.3,16.5,36.1,28.4c15.8,19.2,30.9,39,45,59.6c10,14.5,19.9,29.1,26.5,45.5
				c3.2,8,0.9,18.2-4.5,19.2c-6.3,1.1-8.7,6.6-9.8,9.9c-3.6,10.5-11.7,17.6-17.1,26.7c-5.3,8.8-8.9,18.6-15.5,26.6
				c-1.7,2-1.4,4.8-0.9,7.2c0.7,2.7,2.1,3.9,4.9,1.5s3.9-6,5.9-9c8.5-13,17.4-25.7,25.1-39.2c6-10.5,13.8-19.6,20.2-29.9
				c1-1.7,2.8-5.2,5.8-2.7c2.5,2.1,1,5-0.6,7.1c-2.6,3.7-6,6.9-8.2,10.8c-8.3,14.5-17.8,28.1-27.2,42c-5.9,8.7-9.1,18.9-15.9,27.1
				c-1.5,1.9-2.3,4.8,0.2,6.6c1.4,1,3.4,1.3,5-1c8-11.7,14-24.6,22.3-36c7.7-10.5,14.1-21.8,21.2-32.7c5-7.8,10.2-15.5,15.2-23.3
				c7.9-12.4,15.6-24.8,23.4-37.2c1.2-1.8,3.1-2.9,5.1-1.6s1.5,3.4,0.4,5.3c-4.9,8.5-9.5,17.3-14.9,25.5
				c-4.6,7.1-10.8,13.2-15.2,20.4c-11,17.8-22.7,35-33.2,53.1c-6.3,10.8-12.2,22-19.5,32.3c-2.5,3.6-0.6,6,1.7,8.1
				c1.9,1.6,4.6,1.3,5-1.5c0.7-5.3,5-7.6,7.5-11.3c11.9-17.4,22.7-35.5,34-53.2c9.9-15.5,20.1-30.8,30.1-46.2
				c8.4-13,16.8-26.1,25.1-39.2c0.5-1,0.8-2.1,1-3.2c-0.8-0.2-1.6-0.3-2.4-0.2c-9.5,2.6-17.3-1.9-23.7-7.5
				c-11.1-9.8-18.4-22.8-26.6-34.8c-6-8.9-11.5-18.5-18-26.8c-16.6-21.3-32.7-43.2-54.9-59.2c-10-7.1-19.4-15.1-33.5-15.5
				C440,113.2,432,115.6,424,114.3z M603.9,1211.5c11.6,0.6,20.3-4.1,29.5-8.6c13.5-6.6,19.8-17.8,21.8-31.2c2.8-18-6.7-32.5-17-46
				c-8.5-11.1-18.2-21.4-26.4-32.8c-11.8-16.5-24-32.6-40.4-44.7c-3.7-2.7-7.8-6-13.5-4.4c-6.6,1.9-13.6,2.9-19.2,7.2
				c-4,3.2-9.3,1.5-13.4,4.2c-6.1,4.2-11.7,8.4-16.3,14.7c-5.1,7.1-6.7,14.6-7.1,22.3c-0.3,5.2,1.5,11.3,5.7,15.1
				c10.6,9.7,20.8,19.8,29.8,31.2c14.7,18.8,28.6,38.1,42.5,57.4C585.9,1204.4,591.9,1214,603.9,1211.5z M764.9,1122.5
				c-6.2-0.8-11.7,1.6-17.3,3.4c-13.1,4.3-20.1,15.2-27.1,25.7c-4,6.1-4.9,13.7-2.6,20.5c6.3,17.1,19.7,28.7,33.8,39.4
				c13,9.9,26.2,19.4,39.3,29c9.1,6.6,18.9,13,29.7,15.4c15.7,3.5,31.5,3.1,46.3-5.7c15.9-9.4,24.1-20.5,18.5-39.2
				c-6.4-21.3-19-36.8-38.2-47.8c-15.2-8.8-28.8-19.9-44.5-28.1C790.7,1128.8,778.7,1123.1,764.9,1122.5L764.9,1122.5z
				 M858.4,1271.7c-6.2-0.9-11.8,2.2-17.6,2.9c-9.8,1.2-20-0.4-29.5,4.5c-5.1,2.7-5.8,8-9.5,11.5c-6.3,6-11.5,13.1-15.2,21
				c-5.6,11.8-3.9,19.6,4.9,28.7c5.3,5.5,12.9,6.8,18.3,11.8c8.7,8,19.4,12.1,30.8,13.1c10.5,0.9,20.7,3.3,31.4,3.7
				c10.9,0.4,22,2.2,32.9,2.2c9.8,0,19.6-2.6,29.4-4.5c13.2-2.6,24.5-12.5,24.2-27.3c-0.3-12.6-3.2-24.5-5.9-36.7
				c-2.9-12.9-17.4-24.7-29.8-23.4c-4.6,0.5-9.3,0.3-13.8-0.4C892.1,1276.2,875.2,1274,858.4,1271.7L858.4,1271.7z M805.3,398.3
				c4.9,0.8,8.9-1.9,13.3-3.2c16-4.9,32.2-9.3,46.5-18.4c16.7-10.6,21.1-27.9,19.8-45.3c-2-27.6-24.3-36.7-46.6-33.9
				c-3.9,0.5-8.4-0.5-11.7,1.2c-4.9,2.7-10.3,2.8-15.4,4.1c-18.1,4.8-36.8,6.7-54.6,12.5c-6.2,2-13.1,3.3-17.7,8.8
				c-3.5,4.2-7.8,7.6-12.8,10c-6.9,3.4-13.5,8.3-12.6,17.6c1.2,11.6,5.9,22.1,12.6,31.3c9.8,13.4,23.6,18,40.2,18.4
				C779.6,401.7,791.9,393.6,805.3,398.3z M487.8,1075.8c-1.9-14.5-3.6-28.9-9.2-42.8c-6.6-16.4-13.2-32.9-17.3-50.3
				c-1.4-6-0.7-12.8-3.9-18c-5.9-9.8-11.7-19.8-26-19.5c-6,0.1-12.1,0.3-18.1,0.7c-7.7,0.5-15.9,1.6-22.7,4.9
				c-9.4,4.4-19.1,26.1-13.9,39.5c7.2,18.4,11.5,38.1,18.6,56.4c8.5,21.9,17.6,43.7,27.8,65c3.1,6.4,9.2,13,18.3,10.7
				c5.4-1.3,11-2.3,15.6-6.3c5.7-4.9,13.3-7,19.4-11.2C486.1,1098.2,488.4,1087.4,487.8,1075.8z M423,768.1
				c5.4-0.3,8.6,0.3,11.3-0.7c17-5.8,27.1-19.5,35.1-34.1c6.9-12.7,11.5-26.8,16.2-40.6c4.5-13.2,8.4-26.7,12.2-40.1
				c3.4-11.9,3.2-21.3-6.4-29.4c-11.8-10-25.6-15.6-41-17.5c-8.3-1-15.1,0.8-20.8,6.8c-8,8.5-13.5,19-19.4,28.9
				c-6.3,10.5-10.5,22.3-15.5,33.6c-3.6,8-7.3,15.9-9.1,24.6c-1.9,9.4-1.9,19-5.6,28.2c-2,5-1.7,11.5-0.6,17c2.2,11,13,15.4,21,19.1
				C407.2,767.1,416.7,769,423,768.1z M503.1,609.9c13.3-0.9,23.2-7.7,31.5-17.2c13.1-15.1,25-31.1,37.1-47.1
				c11.2-14.8,20.4-30.3,26.6-48c3.2-9.1-0.5-13.2-5.7-18.2c-6.3-6.1-12.9-11.9-18.5-18.6c-11-13.2-24.3-14.3-36.5-3.6
				c-16.9,14.7-30.4,32.3-43.7,50.1c-14.1,19-26.5,39.1-37.2,60.2c-3.5,7-5.4,15.1,1.2,22.3c5.5,6.1,12.1,10.1,19.5,13.9
				C485.8,608,494.4,608.6,503.1,609.9L503.1,609.9z M606.9,1247.2c-5.9,0.3-9.5-0.1-13.1,2.2c-11.7,7.5-21.9,16.7-29.5,28.1
				c-9.5,14.1-12.7,23.5,6.1,36.3c7.5,5.2,14.5,11.2,20.8,17.8c8.6,8.9,16.7,18,26.6,25.6c12.7,9.7,24.7,20.2,40,26.2
				c16.8,6.6,20.8,6.3,29.4-3.2c12.2-13.4,20.7-28.9,27.3-45.7c3.5-8.9,2.1-16.4-5.1-23c-4.3-4-9.9-5.6-14.4-9.2
				c-10.2-8.2-20.5-16.4-31-24.1c-8.9-6.5-18.8-11.8-27.4-18.7C627,1251.9,616.3,1248.7,606.9,1247.2z M975.1,1176.1
				c-16.2,0.6-32.2,3.6-47.5,8.7c-12.9,4.3-21.4,12.3-25.7,25.8c-2.5,7.6-0.7,15-2.2,22.5c-3.8,18.8,4.3,28.3,20.5,35
				c6.1,2.5,13.4,1.1,19.5,2.2c15.5,2.5,31.1,1.8,46.1,0.4c15.9-1.4,31.5-7.5,47.6-9.8c5.1-0.7,9.6-1.3,13.7-5.3
				c7.8-7.7,12.1-17.1,11.7-27.5c-0.3-9.8-2.8-19.7-5.8-29.1c-2.4-7.4-7.7-14-13.8-18.9s-14.7-5.4-22.4-5.6
				C1001.4,1174.3,985.9,1173.3,975.1,1176.1z M606.1,1015.6c5.1,2.1,10.5-1.5,15.9-3.2c10.7-3.4,20.4-8.7,24.9-19.8
				c5.8-14.5,2.9-29.2-0.7-43.6c-2.9-11.4-6.3-22.8-9-34.2c-2.6-11-3.3-22.4-6.4-33.5c-2.9-10.2-14.5-20.4-25-21.9
				c-8.8-1.3-17.6-0.2-26.5-2.4c-14.2-3.5-28.9,5.4-31.6,17.7c-2.9,13-0.9,26,1.5,38.8c1.8,9.6,6.1,18.9,7.8,28.4
				c2.5,13.5,5.1,27,7,40.5c1.4,9.8,6,16.9,11.7,23.7c4.6,5.3,9.4,11.8,17.9,10.4C597.8,1015.9,601.9,1015.6,606.1,1015.6
				L606.1,1015.6z M451.6,807c0-16.8-6.2-25.6-19.3-28c-6.9-1.3-14.1-1-21.2-1.3c-6.5-0.3-12.9-1.1-19.4-1.1
				c-7.1,0.1-13.2,3.2-15.4,7.2c-6.1,10.9-9.7,23-10.7,35.4c-0.3,5.2,2.2,10.2,0.6,15.2c-3.3,10.6-2.8,21.8-1,32
				c2.4,13.4,1.4,26.7,1.9,39.9c0.3,8.5,2.8,14.4,7.9,19.9c6.9,7.3,16.8,7.9,25.7,10.1c5.7,1.4,11.6,0.2,17.7-1.2
				c4.8-1.1,9-3.5,13.5-4.3c13.8-2.6,22.3-11,21.7-24.8c-0.8-18.1,2.3-36.1-0.3-54.4C451,836.4,449.4,820.5,451.6,807z
				 M679.6,1177.2c-7,0.2-16.3,4.5-17.9,9.4c-2.8,8.4-9.3,13.7-15.7,18.9c-7.6,6.2-12.2,21.3-7.9,28c6.2,9.7,11.3,20.2,22,26.2
				c7.6,4.3,12.6,11.9,19.5,17.1c10.3,7.8,21.5,14.4,30.9,23.3c13.2,12.5,27.8,19.9,46.2,15.2c9.3-2.4,17.8-6.3,22-16.6
				c3.2-7.8,5.5-16.1,12.1-22.3c5.9-5.5,4.3-11.5,0.5-17.8c-9.5-15.5-24.7-24.7-38.5-35.3c-15.5-11.9-31.5-23.3-48.1-33.7
				C696.9,1184.7,689.5,1178.1,679.6,1177.2L679.6,1177.2z M538.2,1271.2c16.4,3,24.4-10.2,34-18.9c6.8-6.2,8-16,6.6-25.8
				c-1.5-11.2-5.5-21.8-11.8-31.2c-8.6-12.6-21.4-21.5-29.6-34.4c-2.7-4.3-6-8.9-9.6-12c-9.2-7.9-16.7-17.1-24.5-26.2
				c-3.2-3.7-4.9-9.2-11.4-9.3c-3.8-0.2-7.5,0.2-11.2,1.1c-15.8,4.1-34.2,20.7-34,39.1c0.1,17.1,5.7,32.5,17.2,45.1
				c2.9,3.2-1,6.2,1.4,8.4c8.8,8,17.8,15.7,25.6,24.7s16,17.7,24.7,25.9C522,1263.9,526.4,1274.1,538.2,1271.2L538.2,1271.2z
				 M602.8,850c12.3-0.6,22.7-2.3,27.4-15.1c0.8-2.2,1.5-5.2,3.1-6.8c5.6-5.9,7.5-13.8,9.8-20.9c4.6-13.8,11.8-26.7,13.2-41.6
				c1.2-12.9,12.3-23.6,8.5-38.1c-2-7.6-5.4-13.4-12.4-16.5c-8.8-3.9-17.3-8.3-25.6-13.1c-7.1-4.1-11.6-14.8-23.2-9.2
				c-7.6,3.6-15,7-17.9,15.4c-1,3.1-2.3,6.1-4,8.9c-11.6,18.5-17.2,38.8-18,60.3c-0.5,12.5-3.5,24.6-4.3,37.1
				c-0.6,9.6,4.1,26.4,10.9,30.3C580.7,846.6,592,848.8,602.8,850L602.8,850z M676.7,464.8c-12.3-0.2-21.4,5.8-30.2,11.2
				c-10,6.1-20.9,11.5-28.7,20.8c-2.5,3-6.7,5.3-8,8.7c-5,12.8-14.1,23-23.3,32.3c-12.9,12.9-14.4,26.7-1.8,39.9
				c10.4,10.9,22.2,19.3,36.4,24.4c8.1,3.1,17.2,1.3,23.5-4.7c11-10.8,18.6-25,33.1-32.3c7.5-3.8,12-11.2,17.8-17.1
				c8.3-8.6,16.1-17.7,20.7-28.7c1.7-4.2,3.8-9.2,2-13.9c-4.5-12-12.9-21.8-19.7-32.5C693.6,465.3,684,465.6,676.7,464.8
				L676.7,464.8z M532.4,741.8c15.1,0,21.6-4.3,29.5-13.2c12.7-14.4,18.8-32.5,28.6-48.5c8.4-13.8,14.8-28.9,19.9-44.5
				c4.9-14.9,2.4-22.4-10.1-30.8c-8.1-5.5-17.2-8.4-25.8-12.8c-7-3.7-14.7-4.5-22.1-0.5c-6.2,3.4-11.6,8-15.8,13.7
				c-4.7,6.4-8.7,13.4-13.1,20.1c-7.3,11.2-13.7,22.7-17.9,35.4c-4.3,13.1-7.5,26.7-13.1,39.2c-4.6,10.4-0.1,18.8,2.2,27.9
				c0.2,0.8,1.3,1.4,2.1,1.8c3.3,1.5,6,4,9.8,4.9C516.2,737,525.4,740.7,532.4,741.8L532.4,741.8z M935.3,1141.5
				c0.9-3.6-2.3-6.8-2-10.7c0.6-10.4-4.1-19.4-11.3-25.6c-12.4-10.8-27.2-18.2-41.8-25.8s-30.4-12.2-45.5-18.3
				c-10.4-4.2-21.9-6.5-33.5-4.5c-7.8,1.4-12.6,7.6-18.6,11.9c-12,8.4-13.2,30.3-1.4,39s23.5,17.6,36.1,25.2c4.6,2.8,9.7,4.6,14,7.5
				c7.9,5.3,15.5,11.2,23.6,16.3c6.6,4.2,14.3,7.1,18.8,14.3c0.5,0.8,1.9,1.3,3,1.5c11,3.1,22.6,3.3,33.7,0.3
				C924.1,1169.2,935.3,1156.7,935.3,1141.5L935.3,1141.5z M948.3,1138.1c-1.1,9.7,2.5,17.8,11.5,23.2c12.7,7.6,26.8,4.2,40.3,4.7
				c7.8,0.3,15.5-2.5,23.3,0.1c4,1.3,8.4,2.6,12.4,2.3c12.6-1.1,24.1-5.8,35.4-11.6c15.4-8,25.7-28.9,22.2-45.9
				c-1.1-5.4-2.7-10.7-2.5-16.5c0.4-8.2-4.8-14.6-11-18.5c-12.5-7.8-27-5.5-40.4-3.6c-14.9,2.1-29.5,6.8-44.1,10.4
				c-17.1,4.2-33.2,10.7-43.7,25.7c-3.1,4.5-7.6,10-5.2,16.3C948.2,1128.9,948,1133.2,948.3,1138.1L948.3,1138.1z M497.1,890.7
				h-11.6c-13.4,0-19.2,6.7-21.3,19.8c-1.7,10.8,0,21.3-0.7,31.9c-0.9,13.9,5.2,26.1,9,38.8c2.5,8.5,5.4,16.8,8.1,25.2
				c3.5,11.2,5,23.2,13.2,32.3c4.4,4.9,8,12.3,17,9.8c4.8-1.4,9.8-2.4,14.5-4c21.9-7.3,28.4-15.1,29.3-35.1
				c0.9-19.7-2.7-38.8-6.7-57.9c-3-14.5-6.4-28.9-10.6-43.1c-1.7-5.7-5.3-11.5-11.8-13.7C515.7,891.5,505.6,889.2,497.1,890.7z
				 M668.8,704.2c3.6-0.7,6.4,0.6,8.8-1.1c16.2-11,27.7-26.2,37.7-42.8c5.8-9.8,11.1-19.9,17.7-29.1c3.5-4.9,8.3-9.1,7.3-15.5
				c-0.9-5.8-2.5-12.1-5.4-16.7c-4.5-7.1-9.4-13.9-13.7-21.2c-3.3-5.7-8.5-10.6-15-11.8c-10.3-1.8-19.5,2.3-28.8,7
				c-11.9,6-17,17.8-25.8,26.4c-4.3,4.2-9,8.3-11.9,13.3c-5.5,9.7-12.4,18.4-18.5,27.6c-9.1,13.7-10.6,26.3-0.3,36.2
				c3.3,3.2,6.3,7.1,9.5,9.7C641.8,695.5,654.7,702.6,668.8,704.2z M726.6,1109.2c4.4-12.4-6.8-19.6-9.5-29.5
				c-1.9-7.1-8.5-13.9-15.2-19.1c-12.5-9.7-21.1-23-31.1-34.9c-6-7.2-13.3-11.2-23.7-9.3c-10,1.8-19.2,6.2-29.1,8.1
				c-6.5,1.3-13.6,2.2-19,5.5c-11,6.9-11.9,15.4-3.7,26.2c8.1,10.8,16.5,21.1,24.8,31.6c6.3,7.8,12.4,15.7,19.3,23
				c3.5,3.7,5,8.9,8.7,11.8c7.5,5.7,13.6,12.7,19.2,19.9c8.6,10.9,25.9,12,35.7,7.6C720.5,1142.1,723.4,1125.1,726.6,1109.2
				L726.6,1109.2z M548.6,783.2c0-5.8-0.3-9.9,0.1-14.1c0.5-5.7-2.7-10-6.3-12.6c-8.6-6.3-18.3-11-28.5-13.9
				c-8.7-2.5-17.5-1.3-26.2-1.5c-6.9-0.2-13.4,4.2-13.7,11.5c-0.3,9.3-3.5,17.9-4.9,26.8c-3.1,20-3.2,40.2-5.5,60.3
				c-0.8,6.9,2.9,12.8,3,19.3c0.2,16.7,7.3,23,23.7,20.7c0.8-0.1,1.7-0.1,2.5,0c7.7,0.3,15.3,0.3,22.9,2.7
				c7.5,2.4,18.5-5.5,22.1-14.9c6.2-15.8,7.7-32.4,8.8-49C547.3,806.3,549.7,794,548.6,783.2z M940,544c12.6,0,25.4-1,37.9,0.3
				c10,1,16.2-4.3,22.7-9.5c10.2-8.1,8.3-19.6,6.4-30.5c-4.9-28.1-22.3-38.6-44.5-39.3c-24.1-0.7-48.1,2.6-72,4.4
				c-8.4,0.6-18,4.1-23.1,11.5c-9.5,13.5-8.3,29.5-1.5,43c6.3,12.5,18,20.6,33.7,20.2C913.1,543.7,926.6,544,940,544z M717.3,938.5
				c-2.5,0.5-4.8-0.3-7.1,0.8c-7.7,3.8-15.5,7-24.5,7.6c-3.7,0.2-8.1-0.9-11.7,3c-7.8,8.4-11.7,17.4-8.7,29
				c3,11.9,2.7,24.9,10.4,35.2c6.5,8.8,14.8,16.2,21,25.3c6.4,9.3,15.3,15.9,25.1,21.2c5,2.7,9.6,5.7,15.2,7.6
				c11.8,3.9,20.6-2.1,29.4-7.7c4.8-3,10.7-7.1,12.2-11.9c3.9-12.2,4.1-24.8-3.8-36.2c-4.6-6.6-9.7-12.8-14.4-19.2
				c-9.3-12.9-17-26.9-24.3-41.2C732.3,944.5,726.8,938.3,717.3,938.5z M989.2,595.6c0-5.7,0-9,0-12.4c0-10.9-9.9-24.2-20.3-26.9
				c-3.8-1-7.8-1.1-11.6-1.8c-17.3-3.3-34.7-0.7-52-1.4c-0.3,0-0.6,0.2-0.9,0.4c-7.2,4.5-15.5,5.2-23.5,5.3
				c-11.6,0.2-26.5,11.8-29.6,23.8c-2.8,10.8,2.5,20.4,4.6,30.3c0.8,3.9,1.7,8.8,4.4,12.6c7.5,10.5,18.7,9.6,29.2,9.1
				c13.5-0.7,26.7-4.5,40.4-5c12.8-0.4,25.6-2,38.3-3c5-0.3,9.7-2.3,13.4-5.8C989.7,612.8,989.8,603.2,989.2,595.6z M939.9,457.2
				c4.8,1.1,8.5-2.2,12.7-3.1c17-3.4,29.4-19.8,27.7-37c-0.3-2.7-2-5.4-1.8-8c0.3-7.1-4.6-11.2-8.9-14.9c-2.6-2.2-3.2-7.3-6.8-6.9
				c-11,1.2-21.2-5.4-32.2-3.2c-5.7,1-11.4,1.1-17.1,0.2c-16.7-2.1-33,0.8-48.7,6.8c-16.5,6.2-22.1,16.2-21.9,31
				c0.1,6.3,5.2,12.4,7.4,18.9c4,12.1,14.4,20.3,27.1,20.1C898.2,460.7,918.9,456.8,939.9,457.2z M641.6,872.6
				c-0.7,8.1,2.8,15.4,2.9,23.1c0.1,8.9,2.1,17.6,5.8,25.7c5.1,10.9,16.6,15.5,27.5,15.8c10.7,0.3,21.8-1,32.2-6.6
				c6.4-3.5,8.9-7.5,10.7-13.4c2.2-7.4-1-14.7-0.3-22.1c0.6-5.6,0-11.3-0.2-16.9c-0.5-10.5-1.1-21.2,1.9-31.2
				c3.8-12.9-3.7-24.2-16.7-25.5c-8.5-0.9-17.5-2.6-25.2-6.8c-14.7-8.2-26-5.5-33.8,9c-1.6,3-2,6.8-3,10.2
				C639.9,846.6,641.1,859.8,641.6,872.6z M665.7,778.1c0.3,1.7-1.2,5,0.7,7.9c9.1,13.8,22.1,22.5,38.1,25.3
				c5.7,1,13.3,6.2,18.4-2.3c1.2-2.1,3-3.9,4-6c3.3-7.5,10.3-12.8,11.1-22c0.4-5.1,1.8-10.8,5.3-15.5c11.2-15.1,21.5-30.6,24.6-50
				c0.8-5.2,0-9-3.4-12c-11.5-10.2-24.8-18-38.4-25.1c-4.1-2.1-9.3-2.5-13.6,2.7c-4.6,5.5-8.7,11.4-14.3,16.2
				c-3.4,2.9-8.2,6.2-9.2,10.4c-2.5,10.5-10.1,18.6-11.9,29.4c-0.8,5-3.1,10.2-4.7,15.3C669.7,760.3,664.6,767.7,665.7,778.1
				L665.7,778.1z M861.6,654.5c-3.7-1-7.7,1.4-11.3,5.7c-5.2,6.3-14.5,6-20,12.7c-4,4.9-7.4,10.9-13.9,13.7c-2,0.9-1.9,4.8,0.1,6.6
				c4,3.6,7.2,8.5,13.7,8.7c5.8,0.2,9.3,2.8,8.3,9.8c-0.7,4.7,0,9.6-0.2,14.5c-0.1,1.7,2.7,3.7-0.3,5.2c-1.2,0.6-2.7,0.5-3.8-0.4
				c-2.4-1.7-2.3-4.4-1.5-6.3c2.3-5.7-1.1-9.5-4.6-12.4s-8.1-4.9-12.5-6.8c-9.6-4.1-25.4-1.1-28.9,5.9c-4.4,8.7-8.2,17.7-11.9,26.7
				c-1.4,3.5-0.6,6,4.2,6.8c6.5,1.1,12.6,2.6,19.6,2.2c5.6-0.3,11.4-0.7,17.1-1.3c2.6-0.2,5.9-4.2,7.5-0.7c1.9,4.2,6.4,8.7,2.2,14.2
				c-7,9.3-9.8,19.7-6,31c5.2,15.7,5.4,15.7,21.8,15.5c2,0,3,0.8,3.3,2.8c0.2,1.1,0.6,3,2.1,2.8c1.5-0.2,2.7-1.6,2.7-3.1
				c0.1-4.6,3.5-8,5.7-11.2c4.2-5.5,6.6-12.1,7-19c1.4-17.1,6.8-33.5,24.4-41.9c3.6-1.7,4.1-3.4,0.8-6.4c-3.5-3.1-6.8-6.3-9.3-10.6
				c-3.7-6.2-10-9.9-17.1-11.6c-2-0.5-5.2,0.9-5.3-2.8s-1.3-8.5,2.6-9.9c8.5-3,11.9-10,16-16.7s2.1-13.8,0.1-20.4
				C872.6,653.2,867.4,655.3,861.6,654.5L861.6,654.5z M948.3,794.8c-15.6-1.5-34.5,19.7-34.2,38.8c0.3,16.8,16.4,31.1,35.6,31.1
				c16.3,0,33.8-18,33.4-35.1C982.7,811.1,968.8,794.6,948.3,794.8L948.3,794.8z M768.7,983.6c0.7,0.1,1.5,0.1,2.2,0
				c16.1-7.5,32.8-14.5,39.6-32.9c1.7-4.4,2.3-9.4,3.9-14c1.9-5.6,0-9.3-5.5-11c-12.3-3.8-22.8,2.7-33.6,6.7
				c-8.3,3-14.7,9.3-19.6,16.4c-2.9,4.1-8.5,9.7-4.5,14.5c4.1,5,6.4,11.2,11,15.7C764.3,980.8,764.8,984.9,768.7,983.6z
				 M936.7,929.7c11.8,0,22.5-11.3,22.5-24c0-15.7-12.5-30.8-25.8-31.1c-15.7-0.3-28.4,11.5-28.1,26.7
				C905.8,918.2,915.5,930.1,936.7,929.7L936.7,929.7z M969.6,680.7c3.7,5.6,6.4,9.2,8.6,13.1c2.3,4.1,4.7,8.3,5.9,12.8
				c2.1,7.7,4,14.3,11.4,20c13.1,10.1,25.1,9.1,33-5.4c1.7-3.3,2.7-7,2.9-10.8c0.6-6.4-1.5-12.4-2.4-18.5
				c-1.2-8.7-9.7-15.4-18.5-15.1C997.2,677.4,984.7,684.5,969.6,680.7L969.6,680.7z M717.6,257.5c-1.2-4.6-2.4-8.4-3.1-12.2
				c-0.3-1.8-0.3-4.3-1.8-4.7c-2.1-0.6-3.2,1.9-4.3,3.5c-7.4,11.1-14.9,22.2-22.1,33.5c-7.6,12-14.3,24.6-22.4,36.3
				c-8.5,12.2-16.8,24.5-24.9,37c-4.3,6.6-7.1,14.2-12.5,20.1c-0.8,0.8-1.8,2.4-0.7,3.6s2.3,0.2,3.4-0.6c1.3-1,2.7-1.9,4.1-2.8
				c7.2-4.5,16.5-7,20.6-14.7s8.9-15.2,13.6-22.6c13-20.4,26.7-40.3,40.1-60.4C711.2,268,714.5,262.4,717.6,257.5L717.6,257.5z
				 M1039.2,877c2.1-11-12.7-28.2-21.5-28.4c-21.6-0.4-30.4,13.7-30.5,30.5c0,10.3,9.4,21.2,19.2,20.7
				C1021.9,899,1041.6,890.8,1039.2,877L1039.2,877z M1056.4,954.6c11,0,27.7-11.1,27.7-18.8c0-17.5-8.5-30.8-22.2-31.1
				c-19.1-0.5-28.1,12.4-29.6,27.8C1031.3,942.1,1045.7,954.6,1056.4,954.6L1056.4,954.6z M940,943.2c-5.5-1.5-6,2.8-5.8,8.7
				c0.2,10.4,3.7,21.2-2.7,31.2c-0.8,1.3-0.2,3.2,1.8,4.6c6.8,4.7,13,10.1,17,17.6c1,1.9,1.9,2.7,4.2,1.8c14.8-5.1,19-18.1,20.5-31
				C977,958.1,958,946.1,940,943.2z M947.3,649.6c0.5-3.8,1.2-9.7-6.2-10.7c-15.1-1.8-30.2-1.5-44.4,4.4c-4.7,2-12.9,3.4-10.2,11.8
				c2.6,8,6.5,15.7,14.8,19.5c7.4,3.4,14.8,1.9,22.4-0.3c5.4-1.5,10.4-4.7,16.7-3.8s10.6-3.7,8.5-8.3
				C947.2,658.6,947.4,654.9,947.3,649.6L947.3,649.6z M944.6,1019c-1.2-3.7-2.2-7.6-3.7-11.3c-3.9-9.8-14.9-14.6-24.7-10.7
				c-0.5,0.2-0.9,0.4-1.4,0.6c-7.5,3.5-15,7.8-24,4.1c-2.7-1.1-3.3,1.4-3.5,3.9c-0.5,4.5,2.3,8.7,0.5,13.2c-1.4,3.5-0.2,5,3.8,4.9
				c7.5-0.1,15.7,5.7,15.4,12.2c-0.5,9.7,8.6,8.4,11.2,8c10.6-1.5,18.5-8.8,24.5-17.5C944,1024.6,944,1021.8,944.6,1019L944.6,1019z
				 M900.4,942.6c-18.2,0-26.4,6.1-27.2,18.4c-1.1,16.7,12.6,30.2,21.5,29.2c15.4-1.7,28.5-8.6,28.6-27.9
				C923.3,952,912.5,942.6,900.4,942.6z M963.3,763.2c-0.7-11-7.8-23.3-19.4-33.4c-1.3-1.1-3.1-1.5-4.7-0.8
				c-5.5,2-11.3,1.9-16.8,3.2c-2.3,0.6-10.1-0.9-7.6,5.3c3.3,8,4.1,16.9,8.6,24.2c5.5,8.9,5.7,22.6,22.5,22
				C956.8,783.2,963.3,779.7,963.3,763.2z M909,725.9c8.2,1.7,15.7-5.3,24.7-4.1c1.7,0.2,4.4,1.3,5.3-1c1-2.5,0.2-5.1-1.6-7.4
				c-3.7-4.6-6.9-9.5-10.2-14.3c-3.8-5.5-7.3-13.4-14.5-13.7c-6.4-0.3-13-1.3-19.5-0.5c-10,1.2-15.1,10.5-10.7,19.4
				c0.7,1.5,1.3,3,1.9,4.5C888.5,719.8,896.9,725.9,909,725.9z M831.3,912.6c3-1.7,7.4-1.8,10.7-5c6-5.8,10.7-12.1,13.3-20.3
				c1.5-4.8,1-6.3-3.8-7.9c-10-3.3-19.9-7-25.3-17.3c-0.8-1.8-2.6-2.8-4.5-2.5c-3.3,0.5-12.8,11.3-13.5,14.6
				c-1.3,5.7-0.8,11.3,0,17.1C809.6,901.7,820.9,913,831.3,912.6z M807.7,854.7c2,0,4,0.3,6-0.1c4.9-1,10.8-1.6,9.6-9
				c-1.3-7.2-0.5-14.7,2.4-21.5c0.9-2.2,2.3-5.2-0.6-6.3c-8.4-3.3-15.8-8.7-21.4-15.8c-1.3-1.7-2.7-1.7-3.7-0.9
				c-9.4,7.4-18.2,15.3-15.5,29.1C787.1,844.4,790.9,855.8,807.7,854.7z M1030.1,994.7c1.2,5-2.3,9.2-3.4,13.9
				c-0.4,1.7-1.1,3.8,0.6,4.4c5.7,2.1,11.6,5.2,17.5,5.3c15.6,0.4,31.7-24.5,20.3-40.2c-6.3-8.7-14.9-12.3-22.1-7.3
				c-3.3,2.3-6.3,4.8-10.4,5.8c-5.4,1.3-6.7,4.9-4,9.7C1029.9,988.9,1030.5,991.8,1030.1,994.7L1030.1,994.7z M826.3,941.7
				c-0.2,6.6,3.1,11.3,6.1,15.8c5.7,8.5,11.2,17.3,20.2,23.1c2.3,1.5,4,0.9,5.9,0c2.2-1.1,3.3-2.9,2.7-5.3s-1.6-4.9-2.3-7.5
				c-2.1-8.1-3.3-15.9,0.9-24.2c1.5-3,6.2-6.2,3.4-11c-3.2-5.6-9.1-9.3-11.3-15.7c-0.7-2-3-3.5-4-1.9c-2.9,4.7-7.8,4.9-12.1,6.4
				C825.7,925.1,828.2,934.7,826.3,941.7L826.3,941.7z M955.3,1069.8c0.8-2.2-0.8-3.3-3.2-3.9c-5.3-1.5-10.2-4-13.5-8.5
				c-3.4-4.7-6.7-7-12.9-4.2c-2.7,1.3-6.7,2.2-10.2-0.4c-2-1.5-4.8,0.5-5.2,2.4c-1.5,5.8-5.4,9.1-10.1,12c-2.2,1.4-4.3,2.9-6.4,4.5
				c-0.9,0.7-2.5,1.6-0.4,2.8c8.7,5.1,17.2,10.5,26.1,15c9.9,5,18.9-0.1,25.7-6.2C948.9,1080,955.6,1077.4,955.3,1069.8
				L955.3,1069.8z M956.9,1057.7c14.1-0.3,26.2-1.4,31.5-16c2.6-7.2,0.5-14.5-6.2-17.7c-3.9-1.9-7.8-4.3-9.7-8.2
				c-4.9-9.9-10.7-0.5-15.9-0.9c-3.3-0.2-3.2,3.9-3.3,6.7c-0.1,3.4,0.7,7-2.3,9.7c-3.8,3.5-4.9,9.1-9.8,12c-1.9,1.2-1.3,3.8,0.1,5.7
				C945.5,1054.9,950.2,1059.6,956.9,1057.7L956.9,1057.7z M1083.2,674.7c0.2-2.1-0.6-4.2-4-5c-10-2.2-18.6-8.3-28.8-10.2
				c-9.6-1.8-18.4-6.3-27.5-9.7c-7.1-2.6-12.1-2.4-8.9,7.5c0.2,1.1,0.2,2.3,0,3.5c-0.6,4.8,0.1,7.8,6.3,7.2c3.2-0.3,5.8,2.5,8.4,4.7
				c4.2,3.6,6.2,8.5,12.7,11c10.3,3.9,19.4,6.7,29.8,2.1C1076.3,683.6,1083.1,683.5,1083.2,674.7L1083.2,674.7z M766.8,756
				c0.1,0-1.2,0.9-2.6,2.1c-7,5.8-10.2,12.6-10.1,22.1c0.1,9.2,3.1,14.7,11.9,16.7c3.3,0.8,6.7,0.1,9.7,1.1
				c7.1,2.1,14.2,0.2,16.8-5.4c3.7-7.9,7.6-17.2,2.7-26C789.4,756.3,778.6,756.6,766.8,756z M865.3,812.6c0,8.1,14,20.3,23.1,20.1
				c6.5-0.1,18.4-17,18.8-26.7c0.5-11.7-7.7-19.2-21-19.2S865.3,796,865.3,812.6L865.3,812.6z M956.2,650.8c0,2.3-0.1,4.7,0,7
				c0.3,7.4,6.8,12.1,11.1,14.3c6.8,3.2,14.6,3.4,21.5,0.5c5.3-2.3,12.6-2.8,14.2-9.9s-9.3-22-15.9-25.3c-4.3-2.1-8.4-1.1-12.5-1.7
				C961.9,633.8,956.2,638.5,956.2,650.8z M856.1,870.7c4.9-0.4,8.3-1.7,9.6-8c1.1-5.3,0.7-10.9,3.3-16.1c1.5-3,2.1-7.4-3.3-9.1
				c-3-1-6-3-6.4-6.7c-0.7-5.8-6.7-8.7-7.9-14.3c-0.1-0.5-2.1-0.9-3.1-0.7c-6.9,1.3-15.5,12.2-16.1,19.2c-0.6,7.2,1,14.5,4.7,20.8
				C841,862.6,844.8,872,856.1,870.7z M878.2,759.2c0,2.8,2.5,4.8,2.1,7.9c-0.5,4.8,2.3,6.4,6.9,6.9c9.3,0.9,17.3,4.4,23.8,11.7
				c2.5,2.8,2.5,12.8,12.1,5.7c5.8-4.3,5.9-7.1,2.6-11.4c-7.2-9.2-11.7-19.5-14.8-30.6c-1.3-4.5-3.2-8.7-8.9-9.6
				c-3.2-0.5-5.1,1.8-7.9,2.2C886.7,742.8,878.4,752.4,878.2,759.2z M1001.9,975.6c-8,0-13,1.8-14.5,6.1c-1.6,3.9-3.7,7.6-6.4,10.9
				c-5.1,6.7-0.3,22.7,7.5,23.8c7.5,1,15.4,0.9,22.3-3.9c10.3-7.1,13.6-15,10.3-25.2C1018.3,978.8,1013,975.6,1001.9,975.6
				L1001.9,975.6z M968.5,729.8c5.5,1.4,6.9-1.6,6.8-7.3c-0.2-10.8-4.8-20.3-9-29.5c-2.1-4.6-5.6-8.5-10-10.9
				c-9.5-5-18.2,0.1-27.2,1c-1.6,0.2-1.1,2.5-0.3,3.8c7.2,11.2,14,22.6,21.7,33.4C954.6,725.8,960,730.3,968.5,729.8z M730.9,818.2
				c1.8,7.3,5.7,14,11.1,19.3c6.7,6.8,20.2,8.3,27.3,1.9c7.3-6.7,4.4-15.6,5.9-23.6c0.4-2-2-2.1-3.7-2.2c-10.6-0.6-18.9-6-26.1-13.3
				c-1.7-1.7-3.9-2.6-5-0.8C736.9,805.6,734,812,730.9,818.2z M1070.6,868c4.1-0.1,8-0.5,11.4-2.6c8.5-5.2,10.5-13.9,9.9-22.6
				c-0.8-12.4-14.2-21.5-23.8-16.8c-7.6,3.7-10.9,11.8-16,18c-4,4.8,2.8,7.9,3.8,12.2C1057.7,863.7,1063.4,867,1070.6,868
				L1070.6,868z M973.5,948.1c3.8-0.4,5.8-0.2,7.4-0.8c8.4-3,13.4-9.9,17.3-17.2c2.6-4.8,6.9-11.2-0.5-15.4c-14-8-24-18.6-26.6-35.1
				c-0.3-1.8-1.7-3.3-3.5-3.7c-0.6-0.2-2,0.3-2,0.6c-0.3,1.6-0.5,3.2,0.7,4.7c2.5,3.3,4.5,7.1,4.7,11.1c0.3,7,6.4,13.5,3.6,20.2
				c-3.4,8.1-6.2,16.9-13.5,23c-2.4,2-3.1,5.5-0.3,6.6C965.6,944,969.5,948.7,973.5,948.1L973.5,948.1z M1051.2,818.1
				c-0.5-4.2-5.7-8-9.6-12.6c-3-3.5-6.2-3-10.2-1.5c-6.2,2.4-12.5,4.3-19,5.6c-5.9,1.1-12.3,6-12.2,10.8c0.1,5.5,7.9,13.3,13.4,12.1
				c6.3-1.3,11.5,1.7,16.7,3.2C1041.9,839.2,1051.2,833.1,1051.2,818.1L1051.2,818.1z M852.6,516.7c-0.3-1.7-0.7-3.4-1.3-5.1
				c-1.1-2.3-0.6-5.9-3.9-6.6c-3.7-0.8-4.4,2.8-5.7,5c-5.9,9.9-11.4,19.9-16.7,30.2c-7.2,14-14.5,28.1-24.6,40.5
				c-0.8,0.9-2.2,2.7-0.4,3.9c1.2,0.8,2.7,0.5,3.6-0.5c2.1-2.4,5-2.7,7.9-3.4c4.5-1.1,8.6-2.9,11.2-7.9c1.8-3.4,1.7-7.5,4-10.3
				c7.2-8.6,11.3-19,17.4-28.2C847.7,529,851.8,524,852.6,516.7z M885.8,846.9c-8.1-2.1-9.7,2.3-9.7,8.8c0,4.7,1,9.5-2.5,13.8
				c-1.1,1.3-0.3,3.8,0.7,6c3.2,6.6,10.5,3.4,14.9,6.7c4.1,3,6.8,1.2,9.1-2.7c3.2-5.2,6.8-10.3,12.7-12.5c4.3-1.6,3.8-3.8,2.2-6.8
				c-2.3-4.1-4.9-8.1-6.9-12.3c-2.3-5.1-5.6-6.5-10.4-3.5C893,846.3,889.4,847.2,885.8,846.9z M846.3,992.6
				c-8.1,0.1-13.5,10.2-13.8,19.2c-0.4,9.9,8.7,18.6,18.2,18.8c10.1,0.1,20.5-8.8,20.6-17.8C871.5,1003.2,858.3,992.6,846.3,992.6z
				 M723.8,279.2c-0.7-2.1-1.4-4.4-2.3-6.7c-0.4-1.2,0.7-3.1-1.8-3.4c-2.1-0.3-2.4,1.4-3.2,2.5c-2.6,3.4-5.1,6.8-7.5,10.3
				c-8,11.9-15.4,24.2-24,35.7c-8.1,10.9-14.1,23-21.9,34.1c-0.5,0.6-1.2,1.4-0.2,2.1c0.6,0.3,1.2,0.3,1.8,0.1
				c7.3-7.3,18.5-9.3,24.4-18.9c8.2-13.3,17.8-25.7,25.7-39.3C717.9,290.5,722.7,286,723.8,279.2z M798.6,915.5
				c6.5,0.9,10.5,0.3,5.4-6.6c-0.5-0.6-0.3-1.7-0.8-2.3c-3.6-4.6-2.2-11.4-7.6-15.5c-8.4-6.3-18.1-6-27.7-6.2
				c-3.2-0.1-6.2,2.8-7.4,6.3c-1.1,3.1,1.3,4.3,2.9,6.4c5.1,6.5,10.9,13,10.7,22c-0.1,4.7,1.5,4.4,4.9,2.8
				C785.6,919.3,791.9,915.9,798.6,915.5L798.6,915.5z M1015.5,920.1c-0.8-2,0.6-4.2-1.6-4.4c-2.8-0.2-3.8,2.7-3.6,4.4
				c0.9,6.5-3.8,10.9-5.4,16.5c-1.1,4.1-3,9.5-6.2,11.1c-5.3,2.7-9,7.6-14.7,9.5c-4.3,1.4-3.2,4.7-2,7.7s2,5.6,6.7,4.1
				c5-1.6,10.6-2,15.9-2.3c9.8-0.4,19.1,7.9,29.4,1.8c1.1-0.6,3.2,0.6,3.2-1.9c0-2-1.2-2.5-2.8-3.3c-8.9-4.3-15.9-11.6-19.7-20.7
				C1011.1,934.6,1012.3,927.1,1015.5,920.1L1015.5,920.1z M759.4,919.2c1.2-9.3-4.6-14.7-13.4-19c-4.2-2.1-7.2-2.8-11.2-0.7
				s-3.3,5.6-3.4,9c-0.2,5.6,1,11.4-3.5,16.3c-3.2,3.4-0.8,5.3,2.5,7.8c5.1,3.7,11.8,6.4,13.1,13.9c0.1,0.5,1.1,1,1.8,1.1
				c1.4,0.2,2.7-0.6,3-2c0.5-1.3,0.9-2.9,1.9-3.8C756.2,935.9,759.8,929.1,759.4,919.2L759.4,919.2z M861.4,902.9c0.9,2,0.7,5,1,7.9
				c0.9,9.3,8.5,13.7,14.7,18.9c3.3,2.8,6-1.3,9-1.9c2.2-0.5,4.5-0.8,6.7-1.2c1.2-0.2,2.8,0.8,3.4-1c0.5-1.3-0.7-2-1.3-3
				c-5.1-8.7-8.7-17.4-6.9-28c1.3-7.3-7.5-5.3-11-8.7c-2-1.9-6-5-10.1-2.2c-0.3,0.2-0.4,0.9-0.7,1.3
				C863.3,890.5,861.6,896.7,861.4,902.9L861.4,902.9z M745.2,1079.5c-3,0-5.5,0.1-8,0c-2.3-0.1-4.4,0.3-5.5,2.5
				c-1,2.1,0.5,3.7,1.1,5.6c3,9.2,10,17.8,4,28.3c-0.5,1-0.4,2.2,0.1,3.2c0.8,1,2,0.2,3-0.4c7.9-5.2,17-5.5,25.9-6
				c5.1-0.3,5.3-1.7,3.8-5.9c-3.3-9-10.9-16.6-9.2-27.4c0.3-1.9-1.3-2.3-2.6-1.5C753.6,1080.5,749.1,1079,745.2,1079.5z
				 M729.4,869.9c0,4.8-0.1,7.9,0,11.1c0.2,3-1.3,8,2.1,8.3c5.3,0.4,11,2.6,16.3-2.2c5.8-5.3,8.5-11.6,10.5-18.8
				c1.2-4.3-3.8-17.3-8.1-17.3c-5.9,0-10.3-2.9-15.2-5c-2-0.8-4.6-1.4-4.6,2.7C730.3,856.3,728.7,863.8,729.4,869.9z M897.3,1049.1
				c0-3.3,0-5.3,0-7.3c0.2-6.3-2.8-10.3-8.7-12.6c-5-1.9-8,0.1-10.6,4.1c-1.1,1.5-2.5,2.6-4.2,3.3c-5.7,2.7-9.3,5.5-7.9,13.3
				c1.7,9.5,13,17.9,22.5,15.2S897.6,1055.2,897.3,1049.1z M587.5,1231.3c0,0.7,0,1.4,0.1,2.1c1.4,3.7-1.8,10.3,8.1,6.6
				c11.6-4.4,23.5,0.7,34.6,5.7c0.8,0.4,2,0.7,2.6,0.3c0.9-0.6,0.5-1.7-0.1-2.6c-4-5.8-4.6-12.8-6.1-19.3c-1-4.2-1.6-5-6-3.9
				c-7,1.8-14.2,4.4-21.8,1.3c-6.5-2.6-14.2-6-10.6,7.1C588.6,1229.5,587.7,1230.8,587.5,1231.3z M820,959.6
				c-0.7,0.1-1.4,0.4-1.9,0.9c-5.2,5.9-7.8,13.7-7.1,21.6c0.6,7.9,3.5,15.4,8.4,21.5c0.7,0.9,0.6,3.1,2.3,2.6
				c0.8-0.2,1.3-2.1,1.7-3.3c2.9-8,6.9-15,15.3-18.5c2.1-0.9,2.4-2.7,0.6-4.4c-5.6-5.7-10.6-11.9-14.9-18.6
				C823.4,960,822.3,959.5,820,959.6z M952.4,1089c7.3-4.2,12.3-8.4,18-10.1c12.7-3.8,25.8-6.3,38.8-9.2c2.8-0.7,5.3-1.1,3.2-5
				c-5.6-10.4-14.4-12.8-24.2-6.5c-1.5,1-3.4,1.6-4.6,2.8c-4.7,4.7-13.3,1.6-16.7,7C962.7,1074.5,957.2,1080.2,952.4,1089
				L952.4,1089z M766.3,853.3c0.9,6.5,1.3,11.6,2.3,16.5c0.4,2.3,1.7,4.3,3.7,5.5c9.2,5.2,19.3,2.6,25.3-6c2.6-3.8,2-5.5-1.6-7.8
				c-3.8-2.5-9-5.1-10.2-8.7c-3.4-10.5-8.2-8.8-14.5-3.4c-0.6,0.5-1.3,1.3-2,1.3C766.5,850.9,766.3,852.7,766.3,853.3z M813.6,678.2
				c9.5-7.7,18.3-14,26-21.4c13.9-13.4,15.9-11.9,9-30.5c-0.5-1.2-0.3-2.6-2.3-2.5c-1.5,0.1-3.2,0-3.8,1.7
				c-3.7,10.1-12.1,17.4-16,27.5C823.3,661.3,818.4,669,813.6,678.2z M793.4,1031.4c0,8.5,4.3,13.2,12.3,13.2
				c7.1,0,15.7-8.8,15.7-15.9c0-4.9-9.6-12-16.2-12C798.7,1016.6,793.4,1023.2,793.4,1031.4L793.4,1031.4z M805.4,1002.7
				c-2.4-4.2-3.9-9.4-4.9-14.8c-0.3-1.7-1.8-1.1-2.8-1.3c-5.9-0.9-12-0.5-17.7,1.1c-3.3,0.8-8,2.2-4.5,7.1
				c4.1,5.8,9.5,10.6,12.3,17.3c0.9,2.2,2.8,2,4.4,0.3c3.4-3.3,6.2-7.5,11.9-6.9C805.3,1005.7,805.4,1004.5,805.4,1002.7
				L805.4,1002.7z M1023,471.4c0.1-1.9,0.1-2.1-1.5-2.4c-13.6-2.1-24-9.7-32.3-20c-4.2-5.2-7.1-7.7-11.2-0.4
				c-0.7,1.3-2.5,2.2-3.9,2.9c-1.9,0.9-3.2,2-2.6,4.1c0.6,2.5,2.7,1.1,4.2,1.3c13.5,1.4,23.5,8,30.9,19.2c1.7,2.5,3,6.5,6.6,6.7
				c3.8,0.1,2.5-4.2,3.9-6.3c0.8-1.2,1.8-2.2,3.1-2.9C1021.1,472.9,1022.1,472.2,1023,471.4z M586.3,1026.2c0.4-1.9-0.2-2.6-1.3-2.9
				c-8.6-2.4-15.7-7-20.8-14.5c-0.4-0.5-1.3-0.6-2-0.9c-0.3,0.7-0.5,1.5-0.6,2.2c0.2,6.7,2,13.6-2.8,19.8c-1.3,1.6,0.5,3.4,3,3.8
				c3.5,0.6,6.9,1.5,10.3,2.8c4.3,1.7,7.2,1,9.1-2.9c0.6-1.1,1.3-2.2,2.2-3.3C584.4,1028.8,585.6,1027.2,586.3,1026.2z
				 M1025.1,553.9c-0.1-0.1-0.4-0.8-0.9-1c-6-1.9-9.3-7-13.5-11c-1.4-1.4-3.2-1.6-4.5-0.4c-5,4.7-10.3,8.9-16.8,11.3
				c-1.8,0.7-1.5,1.9-0.7,3.2c2.2,3.5,4.3,6.9,6.5,10.3c0.9,1.4,2.7,2.5,3.6,1c5.7-9.5,15.2-10.3,24.6-11.4
				C1024.5,555.8,1025.2,555.6,1025.1,553.9L1025.1,553.9z M710.7,1183.5c-0.4-4.9-4.7-8-4.1-12.3c1.2-8.1-3-9.8-9.7-8.7
				c-1.6,0.3-3.1,0.9-4.7,1c-5.4,0.4-11.3,2.4-16-1.2c-3.2-2.5-6.8-3.1-11.5-5.3c2.1,3.3,2.3,5.7,1.6,7.8c-0.8,2.5-1.6,6.3-0.2,6.9
				c2,0.9,5.2-0.3,7.8-0.9c4.6-1.2,8.5-2.6,13.9-0.6C696.1,1173.2,702.4,1179.1,710.7,1183.5z M361.9,927.7
				c-1.7,1.7-3.4,3.4-4.8,5.3c-1.4,1.9-0.1,4.1,1.1,5.4c5.7,6.2,8,14,10.5,21.7c0.3,0.8,1,2,1.7,2.1c1.5,0.4,1.9-1.5,2-2.3
				c1.2-6.5,6.3-10,10.6-14.1c0.7-0.6,1.9-0.7,1.6-2.1c-0.1-1.2-1-2.2-2.2-2.3c-7.7-1.4-12.6-6.5-16.9-12.5
				C364.9,928.1,364,927.4,361.9,927.7z M836.3,1037.9c-5.7-0.9-5.9,2.3-6.6,4.3c-0.6,1.7-1.6,4.3,1.2,5.5
				c8.9,3.9,17.7,7.9,26.7,11.7c1,0.4,2.7,0.7,3.6-0.7c3.2-5.2-4.1-18.1-10.1-16.9c-5.3,1-8.5-2.1-12.6-3.3
				C837.1,1038.2,835.7,1037.7,836.3,1037.9z M730.4,297.7c0.3-4.2-0.7-7.3-2.9-8.1s-3,2.5-4.1,4.2c-8.1,11.6-16,23.4-24,35
				c-0.9,1.3-1.3,2.7-0.5,3.6c1,1.3,2.5,0.8,4,0c6.6-4.1,11.2-10.2,15.9-16.1C723.3,310.1,727.7,303.6,730.4,297.7z M731.1,1323.3
				c-1.1,0.5-3.6-1.2-3.6,1.7c0,2.6,2.3,2.5,4.1,2.4c5.7-0.3,11.2,1.3,16.2,3.4c8.5,3.5,16.5,8.2,24.8,12.2c1,0.5,2.3,2.1,3.4,0.8
				c0.9-1,0.5-2.4-0.3-3.7c-2.7-4.6-3.9-9.9-3.3-15.2c0.4-4.1-1.4-3.9-4.3-2.5c-8.6,4.1-17.5,6.4-27,3.8
				C737.9,1325.3,735,1322.9,731.1,1323.3z M750.1,509.4c-12.7,2.9-19.8,11.1-25.4,20.4c-4,6.6-5.3,14.3-1.4,21.8L750.1,509.4z
				 M829.8,571.5c5.6-4.2,13-5.5,17.5-11.1c6.2-7.6,11-15.8,10-26.1c-0.1-0.9,0.2-2.2-1.2-2.3c-0.9-0.1-1.9,0.1-2.6,0.7
				C844.5,544.9,837,558.1,829.8,571.5L829.8,571.5z M851.2,486.9c2,0.3,3.7-0.2,4.5-2.6c1.6-5.1,6-8,9.5-11.6c1-1,2.8-1.4,2-3.3
				c-0.6-1.4-1.9-1.6-3.3-1.6c-4,0.3-7.9-1.1-10.8-3.7c-0.8-0.7-2.2-2.1-2.5-0.2c-1,7.4-6,11.8-11.3,16c-1.2,0.9-1.2,2.5,0,2.7
				C843.3,483.6,846.4,487.5,851.2,486.9L851.2,486.9z M899.7,1267.7c-2.2-7.1-9.5-10-10.9-17c-0.4-1.9-2.4-1.6-4-0.3
				c-4.5,3.5-9.2,6.8-13.8,10.1c-1,0.7-1.9,1.5-1.5,2.8c0.3,0.5,0.7,0.9,1.3,1C880.6,1264.3,890.3,1265.5,899.7,1267.7L899.7,1267.7
				z M503.8,330c-1.8,2.3-3.3,4.5-5.1,6.5c-8,8.5-18.9,14.8-20.4,28.1c-0.3,2.4-1.3,6.5,0,6.8c2.9,0.7,3.4-3,4.8-5.1
				c7-10.3,11.1-22.6,20.4-31.4C504.8,333.5,505.2,331.9,503.8,330z M882,302.2c0.4-0.3,0.9-0.5,1.3-0.9c4.1-3.9,5.5-9.8,10.4-13.3
				c2-1.4-0.4-2.1-1.6-1.9c-7.1,1.3-14.3,1.9-21.5,1.9c-2.2,0-4.3,2-2.7,3.2C872.5,294.9,878.1,297.2,882,302.2z M463,755.3
				c-6,5-9,10.3-14.8,12.8c-4.8,2.1-6.7,5.7,0.4,8.4c1.7,0.6,3.1,2.5,4.2,4.1c2.3,3.5,3.2,2.3,4-0.9
				C458.6,772.2,460.6,764.8,463,755.3z M370.1,778.4c4.1-4.2,7.7-8.3,13.8-8.6c1.1,0,2-0.8,2.1-1.9c0-0.6-0.2-1.2-0.7-1.6
				c-5.1-2-6.3-7.4-9.8-10.7c-1.3-1.2-3.4-2-3.8,1.1C370.9,763.8,368.5,770.7,370.1,778.4L370.1,778.4z M972.7,752.8
				c0.8-0.3,1.2-0.3,1.4-0.5c4.2-6.5,10.5-10.7,16.3-15.5c2.6-2.1,0.5-5.1-1.6-6.5c-2.5-1.6-3.8-0.1-4.9,2.6
				c-1.8,4.5-5.2,7.5-10.8,6.8c-1.8-0.2-4.6-0.7-3.8,2.6C970.2,746,971.6,749.3,972.7,752.8L972.7,752.8z M707.2,345.2
				c1-4.6-1.6-4.9-3.6-4c-4.6,2-8.9,4.5-13.3,6.9c-2.5,1.4-1.8,2.3,0.3,3.6c4.4,2.8,10.3,1.8,14.2,5.9c0.9,1,2-0.1,1.7-1.2
				C705.1,352.2,705,348.1,707.2,345.2z M840.4,457.5c-0.3-1.9,0.8-4.6-1.7-5.1c-1.9-0.4-2.3,2.3-3.3,3.6c-5.3,6.1-7.6,14-11.9,20.7
				c-0.3,0.7-0.4,1.4-0.4,2.1c0.8,0.2,1.6,0.2,2.5,0.1C830.2,477.4,840.4,462.7,840.4,457.5z M994.2,389.3c0-0.5,0-1.1-0.1-1.1
				c-2.2-0.7-4.4-2-6.7-2c-3,0-6.5,0.2-8.8,1.8c-1.5,1,1.1,3.6,2.2,5.3c2.2,3.2,4.5,6.4,4.4,10.7c0,0.6,0.6,1.3,0.9,1.9
				c0.5-0.3,1.4-0.6,1.5-1C989.2,399.4,991.4,394.1,994.2,389.3L994.2,389.3z M439,1152.1c1.6-5.2,2.8-9.4,4.1-13.6
				c1.5-4.7,4.2-10-5-7.2c-1,0.1-2-0.1-2.8-0.7c-3.9-2.3-4.5,0.3-3.6,2.9C433.7,1139.5,436.3,1145.2,439,1152.1z M572.1,581
				c-2-3.9-5.1-7.1-5.5-11.5c-0.3-3.2-1.3-3.2-3.7-1.6c-4.3,2.8-5.5,8-9.1,11.4c-0.3,0.7-0.3,1.5,0.2,2.2c0.4,0.4,1.5,0.2,2.3,0.1
				c4.2-0.5,8.3-3,12.6,0.2c1,0.7,2.4,0.5,3.2-0.6C572,581.1,572.1,581.1,572.1,581L572.1,581z M657.7,959.7
				c9.5-12.6,9.5-12.6,0.8-17.1c-0.3-0.2-0.6-0.3-0.9-0.4c-2.8-1.3-4.1-0.9-4.2,2.6C653.2,950.3,656.9,954.3,657.7,959.7
				L657.7,959.7z M1047.3,295.2c4,3,7.1,6.9,9.2,11.5c0.6,1.3,2.1,4,3.3,1.9c1.8-3.2,4.5-5,6.8-7.4c1.6-1.7,0.7-2.9-1.6-3.1
				C1059.2,297.5,1053.9,294.7,1047.3,295.2z M878.8,550.3c-3.7-3.1-10.5-1.4-11.9-8c-0.1-0.6-2.4-0.9-2.5,0.8
				c-0.2,5.1-2.3,9.4-4.9,13.6c-0.3,0.4,0.1,1.3,0.4,1.8c0.4,0.2,0.9,0.1,1.3-0.1C866,553.5,873.7,554.7,878.8,550.3z M899.2,373.4
				c-1.3-3-3.2-6.4-6.7-8s-4.1,2.8-6.2,4.3c-1.5,1.1-2.5,3-3.7,4.5c-0.5,0.6-1.2,1.4-1.1,2c0.2,1.4,1.6,0.9,2.5,0.9
				c4.6,0,9-3.1,13.8-1C899,376.5,899.3,375,899.2,373.4L899.2,373.4z M562.6,738.1c-4.1,4.8-7.5,7.1-12.2,7.4c-2.1,0.1-2.7,2-1,3.5
				c3.1,2.7,4.8,6.1,6.2,9.8c0.3,0.8,1.3,1.2,2,1.8c0.3-0.7,0.9-1.3,0.9-2C558.4,752.2,561.3,746.4,562.6,738.1z M1065,1259.6
				c3.7-0.6,7.4-0.9,10.1-4c-4.1-2.2-3.3-10.3-7.8-9.7c-4.2,0.6-4.9,7.3-6.8,11.3C1058.9,1260.5,1063.3,1258.8,1065,1259.6z
				 M832.8,409.1c4.7-0.1,3.5-4.4,5.2-6.5s4.3-6.4,3.8-6.8c-3-2.6-4.5,2-7.1,2.3c-1,0.1-1.8,0.9-2.8,0.9c-3,0.1-5,1.5-4.5,4.5
				C828,406.4,830.4,408.1,832.8,409.1z M546.4,1280.3c-2.3,0.9-7.5-1.7-6.4,3.2c0.8,3.6,4.8,6.5,7.3,9.8c2.8-2.6,4.6-6.1,5.2-9.9
				C552.9,1279,548.8,1280.9,546.4,1280.3z M518.6,620.3c0.1-2.1-1.8-1.6-3.1-1.3c-2,0.4-4,1.3-6,1.8s-4.5,0.8-3.7,3.4
				c0.9,3.3,2.7,6.4,4.1,9.5c0,0.1,1.1,0,1.3-0.3C513.6,629.2,516,625,518.6,620.3L518.6,620.3z M454.7,945.3
				c-0.5-4.6,1.3-10.5-4.5-11.3c-3.9-0.6-8.4,0.6-12.6,0.7c-1.5,0-2,0.7-2,2.1c0,1.2,0.5,2.1,1.7,1.8
				C444.6,936.6,449,941.9,454.7,945.3L454.7,945.3z M495.5,1061.6c0.7,3.1-1.1,8.8,2.4,8.3c3.7-0.5,7-6,7.4-10.2
				c0.6-5.8-5.4-3.1-7.9-3.4C493.4,1055.9,496.9,1060,495.5,1061.6L495.5,1061.6z M711.4,553.6c-2.1-2.5,0.6-6.6-2.1-9.5
				c-0.4-0.5-10.1,10.1-9.7,10.6c2.4,2.5,6.3,0.7,9.2,2.9C710.5,558.8,711.5,556.1,711.4,553.6L711.4,553.6z M993.2,278
				c-2.8-3-5-5.5-7.5-7.9c-1.1-1-3-2.8-4.1-1.4c-1.9,2.5-2.9,5.7-4.2,8.6c0.5,0.3,1.3,0.9,1.6,0.7
				C983.5,275.8,988.1,278.5,993.2,278z M942.4,1171.4c2-1.1,7.3-0.3,7.4-3.6c0-2.7-4.2-5.5-6.5-8.2c-1.7,3-3.7,5.9-4.9,9.1
				C937.4,1171.1,939.3,1171.8,942.4,1171.4z M658.2,990c-3.7,3.1-1.9,7.4-4.5,9.9c-1.6,1.6-2.2,4.3-0.5,5.1
				c2.2,1.2,5.2,0.8,7.9,1.1c0-1.8,0.7-3.9,0-5.2C659.3,997.6,658.3,993.8,658.2,990z M1065.1,1171.3c-0.2-1-1.4-1.1-2.2-0.7
				c-3.3,1.8-8,0.5-10.2,2.4c-5.2,4.6,5.1,3.5,3.6,7.6c-0.2,0.7,1.5,2.6,2.3,1.4C1061,1178.7,1062.8,1175.1,1065.1,1171.3z
				 M442,598.1c2.8-1.1,7.8-0.8,8-3.5c0.3-3-2.9-6.3-4.6-9.5c-3.6,2.9-4,7.7-5.9,11.5C438.3,599.1,441.2,597.2,442,598.1z
				 M955.8,1371.8c4.9-0.2,9.4-2.5,14.4-1.6c0.9,0.2,2.5,0.7,2.9-1s-0.7-2.2-1.9-3C963.5,1360.8,960.7,1369.1,955.8,1371.8z
				 M632.8,857.8c-1.5-1.8,2.3-6.4-3.1-6.1c-2.6,0.2-6.4,3.3-5.9,4.2c1.7,3,4.5,6.3,7.5,7.2C633.6,863.8,631.8,859.7,632.8,857.8
				L632.8,857.8z M694.5,451.8c-0.8-0.9,1-4.6-1.7-3.5c-3.1,1.3-8.2,1.6-8.7,5.3c-0.3,2.4,4,3.1,7,3.4
				C695.3,457.4,694.5,454.6,694.5,451.8L694.5,451.8z M891,1187.7c-2.4-0.1-1.9,1.9-1.6,2.7c1,2.5,0,6.9,3.9,6.8s5.8-5.2,5.5-7.3
				C898.3,1186.2,893.2,1190.2,891,1187.7z M1054.1,372.9c-1.2-2.3-2-5.3-5.7-4.9s-6.6,4.2-5.9,6.1c1.4,3.4,5.6-0.1,8.6,0.9
				C1052.3,375.3,1054.3,375.6,1054.1,372.9L1054.1,372.9z M810.7,754.8c-1.3,1.3-5.6-1-5.3,3.8c0.1,2.4,1.5,6.2,3.1,5.8
				c3.2-0.7,4.5-4.5,5.7-7.5C815.1,754.6,812.9,754.8,810.7,754.8z M479.5,730.8c0.4,1.2,0,3.5,1.2,2.8c2.2-1.4,6.4-0.3,6.6-3.4
				c0.2-2.7-2.4-7-4.4-6.7C479.6,723.7,480.9,728.4,479.5,730.8L479.5,730.8z M622.5,625.8c3.6-1.3,2.9-5.2,4.9-7.2
				c1.1-1.1,3.2-2.5,1.8-4c-0.9-1-3.3-0.8-5-0.7c-2.6,0.3-1.5,2.5-1.5,3.9C622.3,620.4,622.5,623,622.5,625.8z M727.1,515.8
				c2-2.8,4.9-4.4,7.4-6.4c0.7-0.8,1.3-1.7,1.7-2.7c-0.9-0.2-1.8-0.5-2.7-0.7C724,504.2,729,512.3,727.1,515.8L727.1,515.8z
				 M553.6,838.5c0,2.8,0.2,5.6,0,8.3c-0.3,3.6,1.1,4.2,3.6,2C563.5,843.4,555.8,841.7,553.6,838.5z M592.4,1346.1
				c-2.3-2.5-4.4-4.9-6.7-7c-0.8-0.4-1.7-0.6-2.6-0.4c-0.6,2-1.1,4-1.5,6.1c-0.2,0.9,0.6,2,1.4,1.5
				C586,1344.3,589,1346.8,592.4,1346.1z M463.2,881.5c-2,0.8-2.6,2.6-2.7,4.8c0,1.6,0.4,3.8,2,3.7c2.5-0.2,4.6-2.2,4.9-4.7
				C467.7,883.1,465.8,881.9,463.2,881.5z M867.9,641.7c-1.7,0.8-5.1-1.3-5.3,1.5c-0.2,3.3,3.3,1,5.1,1.7c1.2,0.4,2.6,1.2,3.7,0.9
				c1.3-0.3,3,2.9,3.8-0.4c0.7-2.9-2-2.5-3.3-3.2C870.8,641.6,869.3,641.8,867.9,641.7z M660.5,798.8c-1.1-1.3-1.2-5.2-3.2-4.7
				c-2.5,0.6-3.3,4-3.7,6.8c-0.2,1.6,1.3,2.3,2.1,1.6C657.2,801.2,661,803.2,660.5,798.8z M597.9,681.3c4.5-1,7.9-1.3,9.4-4.3
				c0.6-1.1-1-4.8-1.3-4.7C601.5,672.9,601.4,677.6,597.9,681.3z M956.6,1282.4c-1.3,0.3-3.8-0.8-3.1,2.1c0.5,2.1,1.5,4.8,4.2,4.8
				c2.4,0,2.5-2.5,2.7-4.4C960.6,1281.8,958.4,1282.5,956.6,1282.4z M726.1,317.8c3-0.5,4.3-2.1,5.8-3.5c1.2-1.1,1.9-2.3,1.5-3.9
				c-0.2-0.6-0.7-1-1.2-1.1c-2.4-0.3-1.4,2.1-2.3,3.1C728.4,314.1,727.2,315.9,726.1,317.8z M1041,690.8c-1.1-0.1-1.8,0.5-1.8,2
				c0,2,0.9,3,2.9,3.1c1.4,0,2.1-0.5,2.1-2C1044.2,691.9,1043.3,690.9,1041,690.8L1041,690.8z M1031.5,734.8c-2.3,0-2.5,1-2.2,2
				c0.4,1.8,1.7,3.2,3.5,3.7c0.5,0.2,1.2-0.1,1.4-0.6c0.1-0.3,0.1-0.6,0-0.8C1033.3,737.6,1032.5,736.2,1031.5,734.8L1031.5,734.8z
				 M780.1,708.6c0.9-1,2.5-2,2.9-3.5c0.6-1.9-1.4-1.2-2.4-1.3c-2.2-0.4-2.5,1-2.3,2.7C778.5,707.4,778,708.7,780.1,708.6z
				 M612,493.3c1.5-3.2,4.2-4.1,3.2-6.9c-0.2-0.4-2.2-0.7-2.7-0.3C610.6,487.8,611.6,489.8,612,493.3z M1052.2,764.7
				c0-1.7-0.8-2.8-2.6-2.9c-1.4,0-1.4,1-1.4,2c0,1.7,0.8,2.8,2.6,2.9C1052.1,766.8,1052.2,765.7,1052.2,764.7z M840.5,575.2
				c-0.4,1.4-3-0.3-3.1,2.1c0,1.9,1.4,1.4,2.5,1.5c1.4,0.1,2.7-0.1,2.5-2C842.2,575.9,842.3,574.7,840.5,575.2z M493.5,1100.8
				c-0.4-0.4,0.7-2.3-1.3-2c-1.4,0.2-1.9,1.7-1.7,3.1c0.1,1-0.5,2.7,1.3,2.4C493.3,1104.1,493.8,1102.6,493.5,1100.8L493.5,1100.8z
				 M807.2,1262.5c-0.3-1.8-2-2-3.2-2.7c-0.9-0.5-1.9-0.2-1.5,0.8s0.5,2.7,2.2,2.8C805.7,1263.4,806.8,1263.8,807.2,1262.5
				L807.2,1262.5z M674.1,714c-1.2,0.5-1.9,1.8-1.7,3.2c0.1,1.2,0.7,1.8,1.9,1.5c1.7-0.3,1.1-1.7,1.1-2.7S675.7,713.9,674.1,714z
				 M536.9,884.7c-1.4,0.1-1.3,1.1-1.3,2.1s0.3,1.9,1.6,1.8s1.4-1.1,1.4-2.1S538.3,884.6,536.9,884.7z M995.4,809.7
				c1.1,0,1.9-0.3,1.8-1.6s-1.1-1.3-2.1-1.3s-1.9,0.3-1.8,1.6S994.4,809.7,995.4,809.7L995.4,809.7z M392.4,657.2
				c-3.1,1.2-3,3.5-2.4,6.6C391.1,661.3,393.2,659.9,392.4,657.2z M447.6,1193c-0.1-0.2-0.5-1.3-0.9-1.3c-1.3,0-1.9,1-2,2.2
				c-0.1,1,0.5,1.4,1.4,1.5C447.4,1195.5,447.6,1194.6,447.6,1193L447.6,1193z M725.2,667.8c1.1-0.1,1.3-0.8,1.2-1.7
				c-0.2-1.2-0.8-2.2-2.2-2c-0.3,0.1-0.6,1.3-0.7,2C723.3,667.3,723.9,667.9,725.2,667.8z M561.5,443.5c1.3-2.3,1.3-3.8,0-6
				C560.2,439.7,560.3,441.3,561.5,443.5z"/>
			<path class="st0" d="M779.4,1395.3c-1.5-4.1-1.5-8.5-3.6-12.6c-2.7-5.2-6.9-7.2-11.5-6c-5.2,1.3-11.8,2.7-10.9,10.9
				c0.3,2.9-0.5,5.7-3.9,5.5s-2.8-3.3-3-5.7c-0.6-7.7,3.4-12.4,10-15c7.2-2.8,14.5-4,21.5,1c0.3,0.2,0.4,0.5,0.7,0.7
				c9.6,4.8,9.1,12.7,6.7,21.2L779.4,1395.3z"/>
			<path class="st0" d="M1204.5,392"/>
			<path class="st0" d="M599.1,383c-2,0.4-3.1-0.8-4.1-2.3s0-2.4,0.8-3.5c7.9-12.5,15.6-25.2,23.7-37.7c5.5-8.4,9.6-17.6,17.3-24.6
				c4-3.6,5.8-9.7,8.7-14.6c9.9-16.9,22.2-32.3,33.8-48c1.6-2.2,3.3-4.4,5.1-6.5c0.8-0.9,1.7-2.5,3.2-1c1.4,1.4,0.8,2.5-0.3,3.9
				c-9.9,12-18.6,24.9-26,38.6c-3.4,6.7-7.4,13.1-11.9,19.1c-12.5,16.6-23.4,34.2-34,52c-4.5,7.5-9.8,14.6-13.3,22.6
				C601.4,382.5,600.7,383.4,599.1,383z"/>
			<path class="st0" d="M1032.2,170.3c16.6-0.7,32.1,3.6,48.1,3.1c8-0.2,12.3,7.3,9.9,14.9c-0.8,2.7-2.7,0.9-3.4,0.6
				c-8.8-3.8-18.2-3.4-27.4-5c-13.2-2.3-27.2-0.8-39.7-7.1c-1.5-0.8-4.6-0.7-4.2-3.3s3.1-3.1,5.4-3.2
				C1024.8,170.2,1028.8,170.3,1032.2,170.3z"/>
			<path class="st0" d="M937.2,169.1c-13-1.2-26.5-0.8-37-10.6c-5-4.7-5.6-11.5-7.6-17.6c-0.7-2.1-4.5-17.2-2.2-16.1
				c12.4-2.7,11.9,18,14.1,22.2c3.9,7.2,12,9.9,19,9.9c12.5,0,23.8,3.6,35,8.1c4.5,1.8,9,3.6,13.6,5.2c1.4,0.5,7.6,2.1,7.1,4.1
				c-0.1,0.4-2,3.4-3.2,3.1C964.8,174.1,948.5,171.1,937.2,169.1z"/>
			<path class="st0" d="M1025.2,1314.8c0-13.9,4.7-20.4,14.8-20.4c11.1,0,20.2,6.7,20.2,14.9c0,9.8-9.6,20.8-18.3,21.1
				S1025.2,1323.3,1025.2,1314.8z M1034.2,1309.4c0,8.7,2.3,11.9,7.8,12c5.3,0,11.4-5.5,11.2-10.6c-0.3-6.2-3.1-10.6-9.8-10.4
				C1037.4,1300.7,1032.3,1302.4,1034.2,1309.4L1034.2,1309.4z"/>
			<path class="st0" d="M581.6,367.2c-0.7-4.2,3.5-5.3,5.1-8c8.8-14.5,16.3-30.1,27-43c10.4-12.6,15.7-27.7,24.8-40.7
				c0.7-1.1,1-2.8,2.7-2c1.6,0.7,0.7,2,0.6,3.3c-0.4,10.1-7.1,17.2-12.2,24.7c-15.1,22-28.3,45.1-42.9,67.3
				c-0.9,1.4-1.6,2.6-3.4,2.1S581.4,368.7,581.6,367.2z"/>
			<path class="st0" d="M1070.1,592.9c7.6-0.1,14.8,7.2,15.1,15.3c0.2,5.2-10.4,17.7-15.1,17.6c-9.9-0.1-14.7-7.1-15.6-15.9
				C1053.7,603.1,1063.6,593,1070.1,592.9z M1077.3,606c-0.5-3.8-2.1-6.5-5.9-6.1c-4.9,0.5-6.6,4.9-7,8.8c-0.3,2.9,1.9,8.2,4.2,7.6
				C1073.4,615.1,1076.8,611,1077.3,606z"/>
			<path class="st0" d="M1063.2,427.6c0,8.2-7.6,15.4-16,15.4c-7.4,0-14.9-7.6-14.9-15c0-8.9,7-15.8,16.3-15.9
				C1054.6,412,1063.2,421.1,1063.2,427.6z M1056.4,426.5c-0.8-4.7-4.6-5.9-7.9-6.3c-3.5-0.3-7.3,2-7,5.9c0.3,4.2,2.7,8.5,7.7,8.7
				C1054.4,435,1054.4,429.6,1056.4,426.5z"/>
			<path class="st0" d="M850.3,86.5c0,7.4-9.9,14.2-16.8,11.7c-12.4-4.6-16.5-15.9-9.2-25.4c3.5-4.6,8-3.8,12.7-2.5
				C842.9,71.9,850.3,80.8,850.3,86.5z M836.6,90.3c3.7,0,8.2,0.6,7.6-4.3c-0.7-5.5-5.4-8.8-10.4-9.5c-4-0.6-3.2,4-3.4,6.7
				C830.1,87.7,831.2,91.2,836.6,90.3z"/>
			<path class="st0" d="M1063.9,533.9c-7,0-10.8-4.5-10.7-12.7c0-9,6.6-17.2,13.7-17.2s14.3,7.7,14.3,14.9
				C1081.2,528.2,1074.6,533.9,1063.9,533.9z M1067.4,526c6.3,1.2,6.4-4.3,6.6-8.1c0.1-3.8-2.9-7.9-6.8-7.6
				c-5.3,0.4-5.3,5.8-5.9,9.9S1062.6,526.3,1067.4,526z"/>
			<path class="st0" d="M964.3,333.3c0-10.9,3.7-14.3,16-14.1c5.8,0,12,0.7,12.8,7.8c1.1,10.5-6.4,17.1-18,17.1
				C969.9,344,964.3,338.4,964.3,333.3z M972,332.4c0.5,2.5,1.4,5,4.7,4.6c4.6-0.5,8-2.9,8.4-7.9c0.3-3.5-1.5-5.2-5-5.1
				C975.1,324.3,972.7,327.2,972,332.4L972,332.4z"/>
			<path class="st0" d="M1054.3,222.1c0-6.5,6.5-12.1,13.7-11.9c6.7,0.2,15.9,6,16,10.1c0.2,4.9-13.7,15.7-20.2,15.8
				C1060.2,236.1,1054.2,227.4,1054.3,222.1z M1076.2,222.6c0.4-6.3-3.6-7.5-6.7-7.2c-4.2,0.4-7.6,3.8-8,8c-0.4,2.6,1.4,6.2,4.8,5.6
				C1070.5,228.2,1074.9,226.4,1076.2,222.6z"/>
			<path class="st0" d="M776.5,553.7c-1.4,6.3-4.9,11.4-8.8,16.4c-1,1.2-3.2,1.2-3.5,0.6c-0.7-1.5-1.2-3.7-0.6-5.2
				c2.1-4.9,4.5-9.6,7.1-14.2c0.9-1.6,2.9-2.5,4.4-3.8C776.5,549.3,776.4,551.5,776.5,553.7z"/>
			<path class="st0" d="M780.1,578.1c1.1,5.3-2.3,7.9-4.1,11c-0.8,1.4-2.8,1-3.8-1c-2-3.6,1.8-13.4,5.8-13.8
				C781.5,574,779.7,577.4,780.1,578.1z"/>
			<path class="st0" d="M779.7,594.9c1.6-0.1,2.6,0.1,2.7,1.7c0.1,2.6-1.7,4-3.5,4.8s-1.3-1.3-1.4-2.2
				C777.3,597.3,777.2,595.2,779.7,594.9z"/>
			<path class="st0" d="M425,1352.3c-9.1,0-18.1-6-18.2-12.1c-0.1-9,8.4-16.8,18.3-16.8c9.5,0,17.3,7.6,17.5,17.1
				C442.8,1346.5,434.1,1352.3,425,1352.3z M426.5,1332.3c-4.9-0.4-8.8,1.7-8.6,6.5c0.2,5.3,5.8,3.9,9.2,4.5
				c5.1,0.9,6.2-3.3,6.3-6.8C433.6,1331.9,429.5,1332.6,426.5,1332.3L426.5,1332.3z"/>
			<path class="st0" d="M273.1,369c12.1-0.6,20.3,10.9,22.6,20.8c0.6,2-0.5,4.2-2.5,4.9c-5.9,2.3-11.8,5.2-18.2,0.9
				c-3.2-2.1-7.1-3.3-10.3-5.5c-3.5-2.4-6.7-6.2-4.5-10.5C262.7,374.6,265.1,368.2,273.1,369z M286.8,386.5
				c-0.1-3.2-10.5-12.7-13.3-12.5c-2.1,0.2-2.7,1.5-2.7,3.4c-0.2,6,6.1,12.4,12.3,12.7C285.7,390.2,287,389,286.8,386.5L286.8,386.5
				z"/>
			<path class="st0" d="M94.3,769.7c-12.2,0-19.4-5.5-19.3-14.7c0-8.6,4.6-12.3,15.3-12.2c9.8,0,17.9,5.8,17.7,12.7
				C107.7,763.2,101.4,769.7,94.3,769.7z M92,752.8c-3.7,0.1-8-0.3-7.8,3.8c0.2,4.4,5,5.3,8.6,6.1c2.8,0.6,6.2-0.3,6-4
				C98.6,754.6,96.1,752,92,752.8z"/>
			<path class="st0" d="M303.4,1065.4c5.6,2.8,13.1-0.5,17.8,6.8c8.6,13.6,0.5,18.9-12.2,23c-5.6,1.8-20.6-2.2-24-8.8
				c-3-5.8,0.6-16.8,6.9-18.3C295.7,1067.1,299,1064.3,303.4,1065.4z M304.1,1085.6c5.7-0.1,10,1.4,9.8-5.4s-4.8-4.1-8-4.7
				s-5.5,1.9-8.5,2.1c-4.4,0.3-4,3.6-3.6,6.5c0.5,3.5,3.3,2.5,5.4,2.3S303.8,1085.6,304.1,1085.6L304.1,1085.6z"/>
			<path class="st0" d="M473.6,145.9c0,8.3-7,15-15.4,15.4c-10,0.5-17.2-8.2-17.4-14.9c-0.4-9.3,7.4-16.1,17.7-16.1
				C468.1,130.3,473.6,136,473.6,145.9z M464.7,145.4c0-5.5-2.5-8-7.9-8.2c-2.8-0.1-5.5,1.1-5.9,3.3c-0.8,4.6,5.4,10.4,9.9,10.8
				C466.2,151.8,464.3,148,464.7,145.4z"/>
			<path class="st0" d="M582.3,1109.6c7.4,0,15.3,7.1,15.3,13.9c0,10.6-9.3,22.3-17.7,22c-7-0.2-16.5-9.9-16.2-16.9
				C564,1116.5,570,1110.3,582.3,1109.6z M589.7,1124.3c0.5-5.9-2.9-8.5-7.8-7.5c-4.5,0.9-10.3,1.6-10.3,8.5c0,5.6,5.2,11.9,10,11.1
				C588,1135.2,588.7,1129.4,589.7,1124.3z"/>
			<path class="st0" d="M800.1,1209.4c-7.8,0.2-18.5-7.1-20.4-14.5c-1.8-7.2,4.2-11.4,7.4-16.4c2.5-3.8,6.2-7.6,11.6-5.8
				c7.8,2.7,16.9,3.9,19.4,14.2C819.7,1193.7,807.3,1209.2,800.1,1209.4z M800.1,1179.4c-7.5,0-12.5,4.1-12.7,11.3
				c-0.1,4.7,5.9,10.7,10.8,10.8c4.1,0.1,12.4-9,12.1-13.8C810,1182,806.8,1179.2,800.1,1179.4L800.1,1179.4z"/>
			<path class="st0" d="M867,1304.3c13.5,0.5,24,12.2,19.2,24.2c-3,7.4-10.3,10.5-18.4,10.3c-6-0.1-10.6-0.5-15.4-4.7
				c-9.2-8.2-7.3-21.9,4.4-26.7C860.3,1306,863.4,1302.8,867,1304.3z M868.3,1332.3c5.6,0,12.3-5.7,12-10.8
				c-0.3-6.4-4.4-9.1-10.5-9.2c-9.8-0.1-13.6,2.8-13.6,10.1C856.3,1327.7,862,1332.3,868.3,1332.3L868.3,1332.3z"/>
			<path class="st0" d="M799.6,355.1c-7.9,0-15.2-6.6-15.2-13.5c0.1-8.2,10.7-17.4,20-17.4c9.5,0.1,17.8,6.5,17.8,13.8
				C822.2,346.6,811,355.1,799.6,355.1z M800.5,347.1c9.2,0,15.4-4.2,14.7-10.1c-0.7-6.3-6.7-5-10.6-5.7
				c-4.8-0.8-11.3,5.8-11.3,10.4C793.5,347,797,347.6,800.5,347.1L800.5,347.1z"/>
			<path class="st0" d="M428.3,1012.6c10.2,0,16.3,6.5,16.2,17.2c0,11.2-6.4,19.7-14.8,19.7s-18.9-11-19-19.7
				C410.7,1024.6,422.9,1012.6,428.3,1012.6z M437.6,1028.3c1.6-6.7-3.8-8.6-9.2-8.6c-5.8,0-8.6,6.2-8.3,10.3
				c0.4,4.3,3.5,11.2,8.5,11.1C434.3,1041.1,438,1035.9,437.6,1028.3L437.6,1028.3z"/>
			<path class="st0" d="M453.6,679.7c0,10.4-10.2,20.2-21,20.1c-8.5-0.1-15.9-8.3-15.9-17.7c0-7.7,11.9-20.1,19.4-20.2
				C445,661.8,453.6,670.6,453.6,679.7z M440.3,668.9c-7.6-0.1-16.5,7.9-15.5,13.1c0.9,5,4.4,9.1,9.7,9.8c5.8,0.7,13.5-6.7,13-12.3
				C447.1,674,444.7,669.6,440.3,668.9z"/>
			<path class="st0" d="M535.7,527.6c-0.2,5.4-9.8,16.6-14.8,18.4c-4.7,1.8-9,1.2-13.4-0.2c-7.7-2.5-8.3-9.1-6.6-15
				c1.7-6.1,4.5-12.2,9.9-16.5c4.3-3.4,9.1-4.5,13.5-1.7C529.8,516.1,535.5,519.9,535.7,527.6z M514.7,540
				c7.4-1.5,16.4-7.9,13.4-15.8c-1.5-4.1-4.8-7.2-9.6-6c-5.8,1.4-11.5,12-9.4,16.8C510.2,537.3,510.7,540.7,514.7,540L514.7,540z"/>
			<path class="st0" d="M613.5,1320c-1.3-12.5,7.9-22.8,23.3-19.6c5.6,1.2,9.1,6,10.2,10.3c1.2,4.9,3,11.7-3.5,15.7
				c-0.7,0.4-1.3,1-1.8,1.6c-6.3,11.1-12,12.3-22.2,4.7C614.5,1329,613.5,1326.8,613.5,1320z M634,1307.3c-7.8,0.1-13.9,5.1-13.4,11
				c0.5,5.7,4.2,9.6,9.7,11c3.4,0.8,10.3-10,10.3-15.5C640.6,1308.5,637,1307.7,634,1307.3z"/>
			<path class="st0" d="M967.3,1222.6c0-10.2,9.7-16.8,23.6-17.3c5.5-0.2,15.6,9.4,15.4,14.2c-0.4,10.2-11.9,22.2-21.7,21.8
				C976.5,1240.9,965.5,1231.5,967.3,1222.6z M976.2,1221c0,5.7,5.4,12.4,10,12.4c6,0,13.2-6.9,12.8-13.2c-0.2-4.6-3.8-8.4-8.5-8.7
				C983.9,1210.9,976.2,1216.5,976.2,1221z"/>
			<path class="st0" d="M611.5,920.5c0,9.4-7.8,18.6-15.2,18.2c-0.7,0.1-1.3,0-2-0.2c-3.2-1.3-9.8-16.1-8.7-21.3
				c1.2-5.7,4.1-10.3,10.8-11.7C605.5,903.6,611.5,909.3,611.5,920.5z M604.7,919.3c-0.5-3.2-0.4-6.8-4.9-6.6s-6.1,3.7-6.1,7.3
				s1.8,8.5,5.7,8.2C603,927.9,604.2,923,604.7,919.3L604.7,919.3z"/>
			<path class="st0" d="M394.8,855.4c0-10.6,5.7-16.7,15.7-16.7s16.2,6.1,16.2,15.6c0,8.8-8.6,19.6-15.4,19.3
				C400.5,873.1,394.8,866.7,394.8,855.4z M411.9,845.7c-6.6,0-12.3,4.8-12.2,10c0,1.7,9.3,10.3,11,10c7.4-1.2,8.3-7.4,8.7-12.9
				C419.7,848.4,416.9,845,411.9,845.7z"/>
			<path class="st0" d="M711,1227.5c9.8,0,15.3,5,15.4,13.8c0.1,9.1-7.5,19.1-14.5,19.2c-10.4,0.1-20.4-8.8-20.4-18
				C691.5,1233.7,699.6,1227.5,711,1227.5z M718.6,1241.8c1.4-7.1-3.8-8.4-8.2-8.1c-4.9,0.3-8.8,3.8-10.7,8.6
				c-0.7,1.7,9.3,9.5,11.8,9.2C717.1,1250.7,718,1246.2,718.6,1241.8L718.6,1241.8z"/>
			<path class="st0" d="M515.6,1184.3c0,8.5-6.8,14.2-16.9,14.1c-5.8-0.1-12.3-7.3-12-17.5c0.2-9.5,4.5-15.3,11.9-15.3
				C508.5,1165.5,515.6,1173.4,515.6,1184.3z M509.6,1181.2c0.3-7.3-4.3-8.3-9.3-8.7c-5.6-0.4-6.1,4.2-5.5,7.6
				c0.8,4.3-0.4,10.9,6.5,11.3C508.5,1191.7,509.6,1186.3,509.6,1181.2L509.6,1181.2z"/>
			<path class="st0" d="M598.9,785.7c-8.4,0-11.5-5.2-11.4-19.1c0-6.5,7.4-12.8,15.1-12.8c8.8,0,18,7,17.9,13.6
				C620.3,775.2,607.9,785.7,598.9,785.7z M595.5,770.2c1.1,2.7,0.7,7.4,5.3,8.4c3.5,0.8,12-8.6,11.6-12.6c-0.4-4.2-3.9-5.2-7.5-5.2
				C599.4,760.8,595.4,762.9,595.5,770.2z"/>
			<path class="st0" d="M642.6,533.7c0-8.6,8.1-16.7,16.8-16.8c5.8-0.1,13.1,7.4,13,13.2c-0.2,9.8-8.6,21.5-15.4,21.6
				C651.4,551.9,642.6,540.8,642.6,533.7z M664.1,532.5c1.1-5.5-0.2-7.9-4.1-7.5c-4.7,0.5-10.3,0.7-10.3,7.2
				c0,5.4,3.7,11.5,8.3,11.2C663.9,543,662.8,535.3,664.1,532.5L664.1,532.5z"/>
			<path class="st0" d="M545.1,649.9c9.5,0,17.5,8.4,17.4,18.5c0,5.9-8.8,15.3-14.3,15.4c-6.5,0.1-17.6-11.6-17.6-18.6
				C530.6,656.7,537,649.9,545.1,649.9z M546.8,658.9c-4-0.3-7.7-0.1-7.2,5.4c0.4,4.7,3.1,9.3,7,10.2c4.6,1,8.2-2.6,8-8.1
				C554.5,661.3,552.5,658.1,546.8,658.9L546.8,658.9z"/>
			<path class="st0" d="M884.3,1105.5c-0.7,8-4.5,15.5-12.3,19.2c-5.9,2.8-12.7,5.2-19.5,0c-8.7-6.6-8.1-19.3,1-27
				c8.7-7.3,19.5-6.9,28.2-0.4C884.7,1099.4,884,1102.1,884.3,1105.5z M868.6,1100.5c-9.7,0-12.6,2.3-12.3,10.2
				c0.2,4.2,0.4,8.9,6.6,8.9c6.5,0,14.8-8.5,14.2-15.1C876.6,1098.5,871.5,1101.2,868.6,1100.5L868.6,1100.5z"/>
			<path class="st0" d="M1028.9,1131.5c-12,0-16-5.6-12.1-17c4.7-13.9,12.9-18.9,26.9-15.8c5.5,1.2,9,6,10.1,10.5
				c1.5,6.8-2.3,13-7.9,16.9C1040.8,1129.4,1034.9,1131.3,1028.9,1131.5z M1035.7,1105.3c-4.3-0.5-6.8,4.3-10,8.2
				c-1.4,1.7-2.4,3.5-0.7,5.2c2,2,2.8,6.4,7,4.8c3.8-1.5,7.8-2.8,10.6-5.9c2-2.2,6.1-3.7,4.2-7.5
				C1045.1,1106.4,1041.4,1105.6,1035.7,1105.3L1035.7,1105.3z"/>
			<path class="st0" d="M509.1,965.7c8.9,0,17.4,5.6,17.4,11.4c0,10.6-8.8,17.9-21.1,17.5c-4.1-0.1-10.7-9.3-10.7-14.9
				C494.6,973.3,502.5,965.7,509.1,965.7z M511.8,972.6c-5.6-0.1-9.1,2.8-9,8.1c0.1,4.1,3.9,6,7.8,5.9c4.9-0.2,7.8-3.2,8-8.1
				C518.7,974,515.8,972.5,511.8,972.6z"/>
			<path class="st0" d="M666.5,636.8c0-8.8,5.9-16,13.1-15.9c5.7,0,15.7,7.6,15.8,11.9c0.3,8.7-10.1,19-19.1,19
				C669.2,651.7,666.5,647.7,666.5,636.8z M685.5,633.7c0.2-2.7-1-4.9-4.7-4.8c-7.6,0.2-4.9,6.8-6.3,10.7c-0.8,2.2,1.5,4.8,3.6,4.1
				C682.3,642.3,685.6,639.5,685.5,633.7L685.5,633.7z"/>
			<path class="st0" d="M657.6,1060.5c6.7,0,16,7.1,15.9,12.1c-0.2,9.1-8.9,17.9-17.6,17.9s-16.3-6.1-16.3-13.2
				C639.5,1068,647.6,1060.5,657.6,1060.5z M659.2,1067.4c-5.8,0.2-10.3,1.2-10.7,7.2c-0.4,6.4,5.2,7.6,9.3,7.6
				c4.4-0.1,7.7-4,7.5-8.9C665.2,1069.5,663.3,1066.3,659.2,1067.4z"/>
			<path class="st0" d="M503.5,793.8c9.8,0,14.1,4.7,14.1,15.7c0,7.5-11,19.5-17.8,19.3c-11.3-0.3-15.1-4.7-15.1-16.8
				C484.7,802.2,493.4,793.8,503.5,793.8z M509.6,806.3c-0.4-2.2-0.2-5.6-5.2-5.6c-7.7,0.1-11.6,3.9-11.9,12.1
				c-0.1,4.9,1.8,7.9,7.1,7.9C504.3,820.7,509.5,813.6,509.6,806.3z"/>
			<path class="st0" d="M909.3,504.5c0-11.4,4.8-18.3,12.8-18.5c7.8-0.1,16.1,8.6,16.1,17c0,10.6-6,18.8-13.9,18.9
				C916.4,521.9,909.3,513.8,909.3,504.5z M930.3,503.5c-0.1-5.4,0.5-9.9-6.3-9.6c-5.1,0.1-8.1,3.4-7.4,7.2
				c0.8,4.6,1.5,11.7,8.2,11.6C930.7,512.6,930,506.7,930.3,503.5L930.3,503.5z"/>
			<path class="st0" d="M735.4,996.5c0,8.2-8.6,20.3-14.3,20c-9.3-0.4-13.8-5.7-13.7-16c0.1-9.2,7.5-16,17.5-16
				C731.3,984.6,735.5,989.4,735.4,996.5z M725.2,992.5c-3.8,0.9-8.5,0.9-7.8,7.1c0.3,3.1-1,8,3.7,7.7c5.9-0.3,5.8-6.5,7.3-10.7
				C729,994.6,728.9,992,725.2,992.5L725.2,992.5z"/>
			<path class="st0" d="M913.1,572.8c8.7-0.4,13.3,5,16.5,12c1.8,4.1-5.5,17-11.4,19.3c-6.2,2.4-11.7-0.6-15.9-5
				c-3.7-3.9-1.5-21.5,2.6-25C907.4,572.2,910.3,573.1,913.1,572.8z M908.2,585.8c-0.1,6,2,10.2,7,9.8c4.3-0.3,5.9-4.9,6-9.3
				c0.2-5.2-3.7-7-7.5-7.2C909.2,578.9,908.5,583.1,908.2,585.8z"/>
			<path class="st0" d="M926.2,420.8c0,6.2-8.1,18.3-12.2,18.2c-9.8-0.2-18.7-6.5-18.8-13.3c-0.1-9.4,8.8-20.6,16.4-20.6
				C917.8,405,926.2,414.1,926.2,420.8z M918.6,417.9c0.5-3.4-3.3-3.7-7.3-4c-5.9-0.4-6.5,4.3-6.8,8c-0.4,4.2,2.3,8.2,6.7,7.8
				C916.1,429.3,918.2,425.1,918.6,417.9L918.6,417.9z"/>
			<path class="st0" d="M683.1,886.7c-8,0-13.8-6.6-13.6-15.2s8.3-16.5,17.3-16.7c6.3-0.2,14.6,6.6,14.6,12
				C701.5,876.1,691.7,886.7,683.1,886.7z M686.7,863.9c-2.4,1.7-8.8-0.3-9,6c-0.1,3.3,0.5,8,5.9,7.8c6.1-0.2,8.4-4,8.9-9.5
				C692.8,864.7,691.4,863.2,686.7,863.9z"/>
			<path class="st0" d="M714.2,719.9c11.6,0,17.6,8.7,15.7,19.7c-1.1,5.8-1.5,10.8-7.1,14.6c-5.1,3.4-10.3,4.4-15.6,2.7
				c-5.5-1.7-9-7-8.4-12.7c0.7-7-1.4-14.9,5.9-20.5C708,721.1,710.8,719.6,714.2,719.9z M723.4,736.9c0.2-5-0.1-10.4-6.3-10.9
				c-7.2-0.6-12.2,4.7-11.4,12.1c0.5,4.9,1.9,10.9,7.7,12.4C717.8,751.7,723.4,743.4,723.4,736.9z"/>
			<g>
				<g>
					<line class="st1" x1="680" y1="166.1" x2="655" y2="256.9"/>
					<g>
						<polygon class="st2" points="647.8,241.5 655.5,255.1 669.1,247.4 666.6,256.4 653,264.1 645.3,250.5 						"/>
					</g>
				</g>
			</g>
			<g>
				<g>
					<line class="st1" x1="557.9" y1="359.2" x2="625.7" y2="416.4"/>
					<g>
						<polygon class="st2" points="608.7,416.5 624.2,415.2 622.9,399.6 630,405.7 631.3,421.2 615.8,422.5 						"/>
					</g>
				</g>
			</g>
			<g>
				<g>
					<line class="st1" x1="688.2" y1="396.6" x2="756" y2="453.7"/>
					<g>
						<polygon class="st2" points="739,453.8 754.5,452.5 753.2,437 760.3,443 761.6,458.5 746.1,459.8 						"/>
					</g>
				</g>
			</g>
			<g>
				<g>
					<line class="st1" x1="751.9" y1="556.4" x2="781.8" y2="639.8"/>
					<g>
						<polygon class="st2" points="767.1,631.4 781.2,638 787.8,623.9 791,632.7 784.4,646.8 770.3,640.2 						"/>
					</g>
				</g>
			</g>
			<g>
				<g>
					<line class="st1" x1="848.8" y1="686.9" x2="842.2" y2="775.3"/>
					<g>
						<polygon class="st2" points="832.2,761.5 842.3,773.4 854.2,763.2 853.5,772.5 841.6,782.7 831.5,770.9 						"/>
					</g>
				</g>
			</g>
			<g>
				<g>
					<line class="st1" x1="807.3" y1="470.9" x2="789.1" y2="557.6"/>
					<g>
						<polygon class="st2" points="781,542.7 789.5,555.7 802.5,547.2 800.6,556.4 787.6,564.9 779,551.8 						"/>
					</g>
				</g>
			</g>
		</g>
	</g>
</g>
<g id="Layer_2">
	<text transform="matrix(1 0 0 1 1056.3696 76.4493)" class="st2 st3 st4">1</text>
	<line class="st5" x1="1040.7" y1="62.1" x2="867.2" y2="124.5"/>
	<text transform="matrix(1 0 0 1 603.9853 130.2852)" class="st2 st3 st4">2</text>
	<text transform="matrix(1 0 0 1 1163.5405 737.7035)" class="st2 st3 st4">3</text>
	<text transform="matrix(1 0 0 1 1163.5402 1016.8459)" class="st2 st3 st4">4</text>
	<line class="st5" x1="675.3" y1="127.5" x2="953.1" y2="302.7"/>
	<line class="st5" x1="1009.1" y1="756.2" x2="1141.6" y2="719.9"/>
	<line class="st5" x1="1036.8" y1="1034.1" x2="1138.2" y2="1006.3"/>
</g>
</svg>
