<?xml version="1.0" encoding="utf-8"?>
<!-- Generator: Adobe Illustrator 24.1.1, SVG Export Plug-In . SVG Version: 6.00 Build 0)  -->
<svg version="1.1" xmlns="http://www.w3.org/2000/svg" xmlns:xlink="http://www.w3.org/1999/xlink" x="0px" y="0px"
	 viewBox="0 0 546.9 1263.3" style="enable-background:new 0 0 546.9 1263.3;" xml:space="preserve">
<style type="text/css">
	.st0{fill:#F39843;}
	.st1{fill:none;stroke:#F2953D;stroke-width:5;stroke-miterlimit:10;}
	.st2{fill:#F2953D;}
	.st3{font-family:'Verdana';}
	.st4{font-size:72px;}
	.st5{fill:none;stroke:#F2953D;stroke-width:6;stroke-linecap:round;stroke-linejoin:round;stroke-miterlimit:10;}
</style>
<g id="Layer_1">
	<g id="Layer_2_1_">
		<g id="Layer_1-2">
			<path class="st0" d="M429.7,1186.8c7.9-10.1,16.3-11.7,27.2-5c3.1,1.9,5,4.5,3.3,8.8c-4,10.8-7.2,22.2-17,29.4
				c-7,5.2-14.4,4.4-20.5-1.4c-3.8-3.6-0.6-9.2-2.1-14.4c-3.5,7.1-5.7,14.2-9.9,20.5c-15,22.6-35.6,41.5-70.8,38.2
				c-14.5-1.3-28-3.8-41.4-8.8c-8.7-3.4-16.4-8.7-22.7-15.6c-4.3-4.6-8.7-5.5-14.2-4.4c-6.9,1.3-13.6,0.9-17.2-5.9
				c-4.2-8-7.8-16.6-2.8-25.8c2.3-4.1,5.1-8.3-3.5-8.6c-6.3-0.2-13.2-12-13.7-21.1c-0.3-6.3-0.9-11.8-8.1-15.8
				c-7-3.9-6.5-13.1-4-19.3c3.8-9.3,1.7-18,1.1-27c-1.3-16.8-2.9-33.6-3.9-50.4c-1-16.4-1.4-32.8-1.8-49.2
				c-0.3-13.1,0.5-26.2-0.4-39.2c-1.3-17.2-1-34.4,0.8-51.5c0.6-4.9-2.8-10.3-1.6-15.5c2.9-12.7,0.1-25.5,1.7-38.2
				c0.9-7.9-3-15.9-1.9-24.3c2.4-19.1-2.6-38.2-0.6-57.3c0.4-3.8,0.5-7.6,2.9-10.8c0.6-0.8,1.2-1.6,0.4-2.6c-5-6.6-3-14.3-3.5-21.6
				c-1.3-17.4-1.5-34.8-0.8-52.3c0.4-8.4,0.1-17,4.8-24.9c2-3.5-2.2-8.1-2.2-12.8c0-15-0.5-30.1-1.9-45.1c-1-9.7-0.7-19.2,2.4-28.3
				c2.6-7.8,5.4-14.6-1.1-22c-2.9-3.3-0.1-8.5-1.4-12.6c-3.1-9.7-8.8-11.5-22-7.2c-3.2,1.1-6.1,1.5-7.7-1.8s-3.5-7.2,0.2-10.5
				c2.5-2.4,5.2-4.6,8.2-6.3c4.2-2.3,8.6-4.2,13.1-5.7c7.2-2.3,6.9-7.9,6.6-13.5c-0.5-11.1-0.9-23,4.6-32.2c5.1-8.5,2.4-13.2-1.3-20
				c-3.3-6-1.1-13.4-1.2-20.1c-0.2-14-0.1-13.9-13.7-11.6c-14.9,2.4-30.2,0.4-44-5.8c-7.4-3.2-11.2-8.5-10.1-16.3
				c1-7.2,7.2-10.3,13.3-12.6c10.2-3.9,20.4,0.6,30.6,0.9c6.9,0.2,13.7,0,20.6-0.2c2.3-0.1,2.1-2.1,2.2-3.7
				c0.4-6.3,0.7-12.6,1.3-18.8c0.6-6,0.6-12.4,6.4-16.5c2.2-1.6,1.7-3.8,0.1-5.2c-5.9-5.3-6.9-12-6.8-19.3
				c0.2-20.3,0-20.9-20.2-20.1c-14.9,0.6-29.8,2.9-44.6,4.5c-7.7,0.8-15.3-0.1-22.1-3.6c-3.9-2-7.7-6.3-5.4-11.6
				c3.3-7.7,7.4-15.3,17.3-15.5c19.7-0.3,39.5-0.1,59.2-0.1c10.9,0,15.5-4.6,15.9-15.4c0.6-15.7,3.2-31.3,2.9-47.1
				c-0.7-31.4,0.6-62.8-0.6-94.2c-0.6-15.3,1-30.6,1.6-45.9c0.1-0.8,0-1.7-0.1-2.5c-0.4-1.6-2.3-3.8,1-4c2.6-0.1,2.9,2.1,2.9,4.3
				c0,15.7,0.2,31.5,0.2,47.2c0,30.4-0.1,60.8-0.2,91.3c0,9.2,1.1,9.7,10.2,7c19.1-5.7,30,8.8,29.8,24.9c-0.2,12.5,0.2,25,0.8,37.6
				c0.9,17.5,3.1,35.7-4.4,52c-3.7,8.1-3.9,13.1,0.2,20.9c6.1,11.6,3.9,25.1,3.3,37.7c-0.9,16.5-0.3,33,0,49.5
				c0.1,6.5-1.4,12.7-5.6,18c-0.9,1.2-3,2.7-1.2,4.7c7.5,7.8,7.5,18,7.6,27.4c0.3,21.3,3,42.9-2.8,63.9c-1.4,4.9-2.4,9.9-5.4,14.2
				c-1,1.5-2.4,3.4-1.1,5c6.1,7.8,6.4,16.7,6.5,26c0.2,18.6,2.1,37.2-3.9,55.3c-1.4,4.2-3.1,22.5-1.9,28.9
				c2.3,11.6,1.3,23.2,1.3,34.8c0.2,12-0.6,24-2.3,35.9c-0.3,1.9-0.5,4.2-1.6,5.7c-5.7,7.4-3.3,14.8-1.6,22.8
				c3.1,14.5,2.2,29-5.8,42.2c-1.3,2.2-0.3,3.7,0.6,5.5c4.4,8.7,0.8,23.8-7,29.8c-1.2,0.9-2.1,2-1.4,3.3c3.4,6.2,2.1,12.3,1.3,19
				c-1.4,11.7-2.1,23.7-2.6,35.4c-0.4,8.5,1.1,17.4,0.4,26.3c-0.4,5-3.4,6.4-7,6.6c-4.7,0.2-4.4,2.7-3.9,6
				c4.8,31.6,15.1,61.3,28.7,90.2c8.9,19,17.3,38,31.8,53.5c9.4,10,20.9,16.9,33.2,22.9s25.1,10.2,38.8,8.3
				c13.2-1.8,25.7-5.4,36.5-14.4c22.8-18.9,30-46,39-72c7.7-22.1,13.6-44.7,20.8-67c2.8-8.7,3.7-17.7,5.2-26.6
				c0.4-1.5-0.4-3.1-1.9-3.6c-9-3.5-11.4-10.5-11-19.5c0.2-4.7-4.1-8.3-4-13.5c0.3-12.7,3.2-25.4-2.7-38.1c-2.4-5.1,0-12.6,0.5-19
				c0.1-1.5,0.6-2.9-0.3-4.3c-10.2-15.8-9.2-32.1-2.8-48.8c0.3-0.9,0.1-1.9-0.5-2.7c-9.6-8.4-7.5-20.3-8.8-30.9
				c-0.9-7.9-3.6-16.3-0.9-24c2.6-7.3,0-12.1-3-18.5c-4.6-9.7-3.8-21-3-31.8c0.8-10.5-0.2-21.3,4.6-31.2c0.3-0.8,0.1-1.7-0.4-2.4
				c-9.6-9.6-6.8-22.6-7.9-33.9c-1.8-18.3-0.7-37-0.7-55.5c0-16.4,0.4-32.9,4-49c0.2-1,0.1-2.2,0.7-2.8c5.3-6.3,1-11.4-1.3-17.4
				c-3.2-8.4-3.4-17.8-2.4-26.6c0.7-5.7,0.1-11,0-16.6c-0.4-17.4-0.6-34.8-0.7-52.2c0-17.2,1.4-34.7,10.6-50.2
				c1.8-3,1.3-4.4-2.2-6.3c-7-3.8-7.5-11.3-8.6-18.4c-4.4-29.7,3-59.2,1.4-88.8c-0.9-17.4,1.5-34.6-0.2-51.8c-0.2-2,0.1-5.2,3.3-5.3
				c3.8-0.1,2.2,3.1,2.2,4.9c-0.2,17.6-0.6,35.2-1,52.8c0,1.8-0.6,3.9,1.4,5s3.9-0.4,4.9-1.5c7.4-9,17.5-9.6,27.9-9.2
				c3.7,0.1,4.9-1.1,4.8-4.8c-0.1-43,0-85.9-0.1-128.9c0-8-0.6-15.9-0.9-23.9c-0.1-2,0.2-4.6,2.6-4.7c2.8-0.2,2.9,2.2,3.2,4.6
				c3.7,29.7-0.1,59.5,1.4,89.1c1,18.9-1.1,37.7,0,56.5c1,15.7,0.1,31.5,1.7,47.2c0.5,5.4,2.4,8.7,9.6,7.4
				c19.8-3.5,39.8-6.9,60.1-3.4c6.6,1.2,17.2,13,17.2,20.6c0,6.4-1.2,13.4-8.9,15.3c-6.4,1.6-13,1-19.6,0c-9.7-1.5-17.4-8-26.3-10.8
				c-18.8-5.7-29.3,1.4-34.1,20.6c-2,8.2-0.5,17.1-6.1,24.6c-1.9,2.6,2.8,4.1,4.2,6.4c6.5,11.2,6.3,23.3,5.4,35.5
				c-0.6,7.9-1.8,15.7-2.5,23.6c-0.5,6.2,3.2,8.3,8.8,8.7c12,0.9,23.3-4.2,35.3-4.1c11.4,0.1,20.9,14,16.5,24.4
				c-3.8,8.9-12.4,7.8-19.7,8.4c-9.1,0.9-18.2,0.1-27-2.4c-7.7-2.3-13.8,2.4-13.8,10.8c0,9,1.4,18.1,0.4,27
				c-0.9,7.7-3.9,15.2-6.8,22.4c-1.1,2.8-1.5,4.5,0.4,7c3.8,4.8,5.9,10.7,6,16.8c0.3,18.4,1.2,36.8,1.9,55.2c0.2,6.2,5.4,8.4,14.2,6
				c12.6-3.6,20.7,1.2,22.9,13.4c1.7,9.5-9.2,22.5-19,23c-4.8,0.2-9.6-0.4-14.2-1.8c-3.5-1-4.8-0.1-5.1,4c-0.5,9.4,2.3,19-3.2,28.2
				c-2,3.3,3.4,6.6,3.9,11.1c0.6,6.7-1.7,13.4,0.5,20.1c1.2,3.6,2.6,6.4,6.6,7.9c7.3,2.7,9.2,10.8,3.4,15.9
				c-11.2,9.8-10.3,22.4-9.7,35.1c0.8,16.8,3,33.6-3,50c-0.5,1.1-0.5,2.3-0.1,3.4c6.8,11.5,3.3,24.1,4,36.3c0,0.8,0.3,2-0.2,2.4
				c-8.9,8,0.4,16,0.1,24c-0.3,7,1.3,13.9-3.2,20.4c-2.6,3.8,0,8.4,0.5,12.5c1.5,12.3-2.1,24.3-1.8,36.5c0.1,4.7-1.3,9.7-1.4,14.7
				c-0.6,20.7-1.5,41.5-1.9,62.2c-0.3,12.5-0.2,25-0.4,37.4c-0.4,27.9-5,55.3-12,82.4c-2.7,10.6-3.9,21.7-6.9,32.3
				c-1.6,5.7-4,11.1-6,16.6c-1,0.8-1.3,1.7-0.5,2.8L429.7,1186.8z M432.9,1107c-1.4,1.4-2,3.3-1.8,5.2c-1.4,3.5-3.7,7.7,1.1,9.9
				c5.2,2.3,6.4-2.2,7.6-6c0.6-2,1.7-4,1.9-6c0.3-3.7,0.8-7.7-0.2-11.2c-0.4-1.5-4,0.6-6.1,1.3
				C432.2,1101.3,433.4,1104.6,432.9,1107L432.9,1107z M452.2,477.1c0-5.2-0.1-10.3,0-15.5c0.4-10.2,8.3-17.5,17-14.6
				c11.4,3.9,22.9,2.7,34.4,2.4c5.1-0.1,11.6-0.8,10.3-9.2c-1-6.6-2.8-12.5-11.3-11.7c-10.5,1-21,1.7-31.4,3.6
				c-6.2,1.1-10.9-0.4-15.7-3.8c-5.4-3.8-6.2-7.4-3.8-14.3c4.4-12.9,3.3-26.7,2.1-40.2c-0.6-7.2-4-15-11.3-15.5
				c-6.5-0.5-15.5-2.1-20.2,5.9c-3.8,6.4-5.7,13.6-6.4,21.1c-2.1,20,1.1,40.1-0.7,60.2c-1.5,16.4,0.4,32.8-1,49.3
				c-1.1,13.5,4,17.9,17.3,16.9c1.3-0.2,2.7,0,4,0.3c7.4,2.5,11.2-1,13.6-7.5C452.4,495.6,452.3,486.4,452.2,477.1z M454,576.7h0.5
				c-0.5-7-0.9-13.9-1.3-20.8s-0.5-13.9-1.1-20.8c-1-11.6-18.9-20.7-29-14.7c-2.1,1.3-3.6,3.4-4.1,5.9c-3.9,17-5.1,34.3-5.5,51.5
				c-0.4,22.4,0.5,44.7,2.8,67c1.6,16.1,13,23.3,28.3,18.3c6.5-2.1,9.8-5.8,9.7-13c0-6.1-1-12.3,0.9-18.3c1.4-4.4,4.8-6.6,9.1-5.1
				c5.7,1.9,11.1,3,17.1,1.2c6.3-1.9,12.1-10.5,10.5-16.5c-2-7.4-7.4-9.7-15.8-6.7c-11.3,4-22-3.7-22-15.7
				C454,584.7,454,580.7,454,576.7L454,576.7z M245.5,249.4c0.2-3.5,0.2-7,0-10.5c-1-9.3-8-14.6-19.2-14c-7.3,0.4-11.9,5-12.6,12.2
				c-1.2,11.4-1.6,22.9-2.2,34.2c-0.2,3-1.3,4.9-3.8,6.9c-11,8.8-23.4,5.9-35.6,5c-15.1-1-30.3-0.4-45.2,1.9
				c-5.4,0.8-8.3,6.9-7.8,12.5c0.3,4,4.6,4.6,8.4,5.3c6.8,1.3,13.4,0.5,20.1-0.1c16.9-1.5,33.9-2.9,50.9-3.6c3.9-0.1,9.4-1.4,12,4.2
				c3.6,7.5-0.7,15,0.6,22.4c1,5.9,0.1,13.2,7.3,15.7c4.2,1.5,9.2,0.7,13.8,1.3c4.4,0.5,6.8-1.7,8.5-5.4c4.9-11,8-22.9,6.8-34.5
				C245.4,285,244.1,267.3,245.5,249.4z M212.1,371.7h0.3c0,3,0.6,6.1-0.1,9c-1.3,4.9-0.1,11.4-7.4,13c-14,3.3-27.7,1.4-41.3-2.5
				c-8.1-2.4-17.6,2.3-19.3,10.5s5.7,11.2,11.4,12.4c13.9,3,28.2,3.7,42.4,2.1c6.4-0.8,12.7-0.8,12.9,7.7c0.2,7.3,0.4,14.5,1.3,21.8
				c0.8,6.7,1.6,13.1,9.3,15c10.6,2.5,17.8,0,21.1-8c1.8-4.5,2.7-9.2,2.7-14c0.3-23,2.8-45.9,1.1-69c-1-13.2-4.1-17.7-16.7-19.8
				c-6.3-1-15.9,3-16.4,7C212.9,361.8,212.6,366.7,212.1,371.7z M412.1,310.2c0,8.4-0.1,14.9,0,21.4c0.1,12.2,10.1,22,22.3,21.9
				c3.6,0,7.1-0.9,10.2-2.6c0.9-0.5,2.1-1.4,2.3-2.3c1.6-7.5,4.7-14.6,5-22.5c0.3-7.3-0.9-15.7,6.7-20.1c5.6-3.3,11.6-6,18.5-6.1
				c14.9,0,28.3,5.4,41.5,11.4c5.5,2.5,17.7,1.6,19.7-1.6c4.1-6.7-3.3-21.9-11.3-22.9c-19-2.6-38.4-0.4-56.3,6.4
				c-7.6,2.9-17.8-1.8-18.7-9.2c-1-8.5-1.8-17.1-2.1-25.6c-0.3-7.3-4.1-10.8-11.1-9.5c-14.6,2.6-23.4,11.7-24.8,26.7
				C413,287.7,410.8,299.9,412.1,310.2L412.1,310.2z M247.6,512.8c0-6.1,0-9.9,0-13.8s-0.2-7.7,0-11.5c0.3-5.7-1.9-10.3-4.6-15.3
				c-4-7.5-9.8-3.6-14.8-3.7c-13.1-0.3-16.6,3.9-17.9,17.1c-0.8,8.3,1.2,16.5-0.1,24.6c-0.8,4.8-0.1,11.2-6.3,13.1
				c-7.1,2-13.9,4.9-20.4,8.5c-2.1,1.2-4.9,2.8-3.5,5.6s4.2,0.5,6.2-0.2c13.1-4.7,25,4.5,24.7,18.4c-0.1,4.3-1.7,10.5,4.2,12.6
				c5.2,1.9,10.8,2.5,16.3,3.4c1.3,0.2,3.6-0.1,4.1-1c4.1-7.2,9.8-13.7,10.9-22.4C248,535.8,247.5,523.1,247.6,512.8z M212.5,647.7
				c0.8,5.5-2,11.5,1.3,16.5c4.8,7.5,12.8,3,19.1,3.3c5.5,0.3,7.4-6.5,9.4-10.9c7.2-16.7,3.7-34.1,2.7-51.3
				c-0.2-1.5-0.4-2.9-0.4-4.4c1.9-17.7-0.1-20.5-16.9-23.3c-3-0.5-5.8-1.7-9.5,0.2c-7.2,3.6-6,10.2-6.7,15.8
				C209.4,611.6,212.1,629.6,212.5,647.7z M240.4,713.9c0-6.8,0.1-13.7,0-20.5c-0.2-15.9-6.8-20.8-22.5-17.3c-3.5,0.8-5,2.3-6.1,5.4
				c-3.3,8.9-2.3,18.5-2.5,27.4c-0.3,15.6,0.3,31.5,1,47.2c0.4,10.2,6.6,15.1,16.8,13.3c4.8-0.9,7.2-3,8.6-7.8
				C240.6,745.9,240.5,729.9,240.4,713.9L240.4,713.9z M454,688.1c0-3.9,0.6-7.4-0.2-10.5c-0.9-3.4-0.5-9.1-6.3-8.2
				c-4.8,0.8-9.5,1.6-14.5,1.4c-5.2-0.2-12-3.8-13.5,6.9c-2.3,16.3-0.8,32.4-0.4,48.5c-0.1,4.2,2.7,7.8,6.7,9
				c8.1,2.3,16.4,3.4,24.9,3.3c3.2-0.1,4.5-1.8,4.6-4.7c0.3-6.6,3.5-11.4,8.5-15.4c5.1-4.2,4.6-7.6-1.5-10c-2.7-0.9-5-2.7-6.3-5.2
				C453.4,698.1,454.3,692.8,454,688.1L454,688.1z M456.3,771.5H456c0.1-1.7,0.1-3.3,0-5c-0.6-5.4-1.8-10.8-1.9-16.2
				c-0.2-10.3-8.7-3.8-12.6-6.6c-0.1-0.1-0.3-0.2-0.5-0.2c-13.9-3-17.3-1.5-17.7,11c-0.4,11.5,1.3,23.1,2.6,34.6
				c0.6,5.6,1.4,11.9,8.9,13.1c4.2,0.7,8.5,0.7,12.7,1.2c3.8,0.4,6.2-1.1,6.5-4.9C454.9,789.5,455.6,780.5,456.3,771.5L456.3,771.5z
				 M235.5,797.2c0-4.6,0.3-7.9-0.1-11.2c-0.6-6.2-5.2-11.3-10.2-10.8s-13.8-1.4-14.4,8.3c-0.7,10.7-2.1,21.4-1.8,32
				c0.1,3.7,2,10.3,8.1,9.5c6.4-0.8,15.9,2.6,17.1-8.4C235,809.9,236.2,803,235.5,797.2z M346.3,1205.2c3.1-5.9-3.6-7.6-6.9-11.7
				c-4.9-6-11.1-9.1-18.1-11.3c-4.7-1.5-8.6,0-10.9,5.1c-4.5,9.8,0.4,23.8,11,29.3c6.3,3.3,12.6,8.2,20.3,4.1
				C347.5,1217.7,346.4,1211.9,346.3,1205.2L346.3,1205.2z M456.3,838.3c-0.5-6.3-0.2-11.9-1.5-17.1c-1-4,0-10-5.9-11.3
				c-3.8-0.8-7.8-0.3-11.6-0.6c-4.1-0.3-5.9,1.4-6.6,5.5c-1.8,9.3-0.7,18.5-0.7,27.8c0,5.6,2.9,9.4,7.4,9.4c6.1,0,14.5,4.5,17.8-5.3
				C456.1,843.8,456,840.6,456.3,838.3L456.3,838.3z M295.3,1240.2c9.6,0,14.3-5.2,14.3-15.8c0-10-8.7-22-16-22.3
				c-9.1-0.3-18.5,10.6-18.2,21.1C275.5,1230.4,287,1240.2,295.3,1240.2z M361.2,1199.1c9.4,0,23.5-12.8,23.9-23
				c0.3-7.2-3.8-12.1-10-15.1c-5.2-2.5-8.6,1-11.5,4.2c-4.5,5-8.7,10.3-12.6,15.9c-2.1,3-6.8,5.8-3.9,10.2
				S354.1,1199.6,361.2,1199.1z M447,1055c0.3-6.8,2.2-12.3-5.1-12c-4.3,0.2-8,2.2-9.9,6.3c-3.1,6.8-5.8,13.9-9.1,20.7
				c-1.8,3.6-2.3,7.6-1.6,11.6c0.8,5.4,3.3,10.8,8.9,11.8c5,0.9,9.7-1.1,12.3-6.7C447.6,1075.8,444.5,1063.7,447,1055z
				 M310.3,1167.1c0.8-9.1-3.6-15.9-9.4-22c-6-6.3-13.5-4.5-17.6,3.2c-5.5,10.3-2.6,18,5.1,25.9c5.4,5.5,11.1,6.9,17.6,4.8
				C311.7,1177.1,309.6,1171.3,310.3,1167.1z M334.6,1256.9c1.8-0.7,6.1,2.5,8.8-2c4.2-6.9,1.3-18.5-7.2-23.1
				c-5.5-2.9-13.6-8.7-17.3,3.3c-0.2,0.6-2.3,0.7-3.5,0.8c-4.9,0.7-7.4,3.7-8.4,8.3s1.2,8.2,5.3,9.2
				C319.1,1255.1,325.7,1258.3,334.6,1256.9L334.6,1256.9z M251.3,1144.3c-0.6,4.4,1.9,8.9,4.2,13.4c2.7,5.2,9.2,7.2,14.4,4.5
				c1-0.5,1.9-1.2,2.7-2c4.5-4.7,6.7-19.4,2.6-24.4c-7.2-8.8-14-12.4-20.9-4.3C251.6,1135,251.4,1139.2,251.3,1144.3z M256,1188
				c7-1,9.5,5.2,13.6,8.9c4.8,4.3,10,6.5,15.4,1.7c5.1-4.5,7.5-9.7,2.3-16.4c-3-4-6.1-7.8-9.6-11.4c-4.1-4.1-10.8-4.1-14.9,0
				c-1,1-1.8,2.2-2.3,3.5C258.9,1178.9,257.6,1183.4,256,1188L256,1188z M420,1160.1c4.9,1.3,8.4-0.3,9.7-6.7c1.1-5.1,4-9.8,5-14.9
				c0.6-3.1,3.5-8.4,0.3-9.5c-4.6-1.6-9.6-5.1-15.6-0.9c-5,3.5-8.7,8.4-10.8,14.1C404.5,1152.6,409.1,1160.2,420,1160.1L420,1160.1z
				 M271.6,1211.7c0.8-3.6-0.5-6.6-4.9-8.2c-2.4-0.9-4.1-3-5.3-5.5c-2.2-4.3-6.4-5.9-9.7-2.4c-4.4,4.7-9.3,10-7.1,17.4
				c1.7,5.7,1.8,13.4,9.1,15C265.1,1230.4,271.6,1224.3,271.6,1211.7L271.6,1211.7z M425.9,1210.2c1.4,4.6,3.8,8.1,9.2,6.5
				c10.4-3.2,15.2-11.6,18.2-21.1c1.1-3.4,4-7.6-0.6-10.6s-9.2-3.4-14.5,0.2C428.9,1191.3,429,1201.3,425.9,1210.2L425.9,1210.2z
				 M350.9,1155.3c13.8,0.3,21.5-4.4,25.8-14.9c1-2.4,0.7-4.1-1.2-5.7s-3.2-3.3-6.4-1.8c-8.7,3.9-18,6.3-27.5,6.9c-3,0.2-4,2-5,3.9
				s-0.2,3.9,1.3,5.8C341.5,1154.3,346.2,1156.3,350.9,1155.3L350.9,1155.3z M337.3,1180.2c3.4,1.1,7.2-1.3,10.5-3.5
				c4.4-2.9,5.1-8,4.4-12.9c-0.7-4.3-4.8-2.9-7.6-3.7c-2.2-0.6-4.3-1.5-6.3-2.7c-5.9-4-16-0.5-18,6.6
				C317.1,1175.2,322.8,1179,337.3,1180.2L337.3,1180.2z M243.7,1158.2c-9.7,0-14.4,5.3-14.3,16c0.1,7.8,6.6,15.1,13.4,15.1
				c7.2,0,12.4-7.5,12.6-17.9C255.6,1163.3,251,1158.1,243.7,1158.2L243.7,1158.2z M395.3,1184.2c-4.6-0.3-6.1,1.5-8,3.3
				c-7.9,7.5-9.6,16.4-7.3,26.7c0.6,2.8,0.9,5,3.8,6.3s4.8-0.2,6.6-1.8c6.8-6.1,11-14.7,11.7-23.8
				C402.3,1189.3,399.7,1184.9,395.3,1184.2L395.3,1184.2z M362.4,1203c-4.6-1.5-7.8,1.8-9.4,6.2c-2,5.5-3.3,11.2-5.6,16.6
				c-1.7,4-1,8.3,3.8,10.2c5.5,2.1,10.6,1.6,13.3-4.4c1.5-3.5,4-6.4,5.6-9.8c2.3-4.8,4.9-9.8,2.3-15.4
				C370.5,1202.5,366.8,1202.8,362.4,1203L362.4,1203z M229.2,1125c-6-0.6-9.9,3.4-12.3,9.1c-2.8,6.6-3.3,14,1.6,19.1
				c4,4.2,9.4-0.2,13.9-2c0.8-0.3,1.5-0.7,2.2-1c6.4-2.6,10.2-7.7,8.6-14.2C241.8,1129.9,237.7,1124.8,229.2,1125z M429.1,1101.6
				c-1.8-4-7.3-5.6-10.6-9.5c-2.1,3.7-6.6-1.2-8.7,2.6c-3.5,6.1-6,12.8-7.5,19.6c-1.1,5,5.2,11.5,9.7,10.5
				C419.3,1123.2,428.9,1110.9,429.1,1101.6L429.1,1101.6z M364,1239.5c-4.4,0.6-7.1,3.7-9.6,6.4c-1.7,1.8-3,4.8-1,7.7
				c1.2,1.9,3,3.2,5,2.3c8-3.7,16.8-6,23.7-11.9c4.8-4.1,4.9-9.2,2.4-14.3c-1.5-2.9-5.2-6-7.6-5.2c-5.2,1.9-7.3,7.6-10.4,12
				c-0.6,1,0.4,1.4,1.3,1.4c2.6,0,5.2,0.6,4.2,3.8c-0.7,2.5-2.8,4.8-5.9,4.2C362.3,1245.1,363.7,1242,364,1239.5L364,1239.5z
				 M455.2,879.5c-0.8-6.1-0.5-12.5-3.1-18.4c-2.4-5.5-7-1.8-10.4-2.6c-2.3-0.5-5.1,0.3-5.5,3.1c-0.7,6.4-1.1,12.9-1.1,19.3
				c0,8.5,6.6,10.4,12.9,10.1S456.1,885.5,455.2,879.5z M220.5,832.4c-5.9-1.9-8.4,1.6-9,7.7c-0.3,3.3-1.2,6.6-1,9.8
				c0.2,3.9,0,9,4.7,10.2c8.9,2.3,13.7-1.2,15.9-10.2C234.2,838.1,231,832.3,220.5,832.4z M246.3,1100.2c9.7,3.5,4-11,11.3-11.1
				c0.3,0,0.8-1,0.7-1.6c-0.1-0.7-0.3-1.3-0.8-1.7c-3.2-3.5-6.2-7.2-9.7-10.4c-2.1-1.9-4.4-3.6-7.9-2.7c-7.5,2-8.9,8.2-7.1,13.5
				C234.9,1091.9,235.3,1100.9,246.3,1100.2L246.3,1100.2z M397,1143.9c-7.1,0.6-11.3,6.9-12.4,12.6c-1.3,6.4,5.6,11.8,7,18.5
				c0,0,0.3,0.1,0.5,0.1c5.5-1.3,12.9,0.2,13.3-8.8c0.3-7-3.5-13.4-3.1-20.5C402.5,1143.3,399.4,1144.5,397,1143.9z M418.1,1168.1
				c-7.4,0-13.3,7.8-12.4,14.7c0.7,5.3,3.4,10.7,0.8,16.4c-0.6,1.3-1.8,3.7,0.6,4.5s5.1,1,6.9-2c4.5-7.7,8.4-15.7,10.4-24.4
				C425.5,1172.6,425.3,1167.2,418.1,1168.1L418.1,1168.1z M328.4,1144.6c-0.5-2.7-0.1-6.1-3-7.3c-6.2-2.6-12.6-4.7-18.9-6.7
				c-2.8-0.9-5.3,0.9-6.8,2.9s0.2,4,1.8,5.6c3.4,3.3,6.8,6.7,9.1,11c1.6,2.9,3.1,6.9,7.5,5C322.9,1153.1,328.5,1151.5,328.4,1144.6
				L328.4,1144.6z M250.1,1104.5c-7.1,0.4-10.3,2.1-9.6,7.4c0.7,6,4.2,10.9,6.1,16.5c1,2.8,1.9,3.5,3.9,0.4c1.9-3.2,5.3-5.2,8.9-5.6
				c1.4-0.1,2.7-0.4,2.9-2.1C262.8,1117.5,251.2,1104.5,250.1,1104.5L250.1,1104.5z M238.1,1068.2c9.8-0.1,9.8-0.1,5.4-9
				c-1.5-2.9-2.8-5.9-3.9-9.1c-0.8-2.6-1.9-5.2-4.7-4.8c-3.1,0.4-6.7,0.1-8.6,4.3C222,1059.7,227.3,1068.3,238.1,1068.2
				L238.1,1068.2z M441.7,1038.3c3.9-0.4,5.5-3.2,6.5-7.1c2.1-8.6,0.4-17.3,1-26c0.1-1.8,2.1-4.2-1.1-4.9c-2.8-0.6-3.4,2.1-4,4.1
				c-2.7,8.2-4.6,16.8-8.3,24.6C432.5,1036.1,436.6,1036.9,441.7,1038.3L441.7,1038.3z M395.1,1113.6c-2.2,6.4-7.5,9.3-10.9,13.9
				c-3.1,4.2-0.4,12.3,4.3,12.5c6.8,0.3,13.6-0.8,18.1-7c0.8-1.1,2.2-2.6,0-3.6C400.2,1126.4,398.5,1120.2,395.1,1113.6
				L395.1,1113.6z M292.3,1127.1c-0.2-6.8-12-15.7-17.3-13.2c-4.4,2.1-6.3,5.9-4.4,9.7c2.6,5,6,11.4,10.5,12.9
				C288.2,1138.9,292.5,1134.1,292.3,1127.1L292.3,1127.1z M220.5,1102.8c-1.2,3.4,0.9,7,1.1,10.8c0.1,2.4,1.6,4.5,3.7,5.4
				c2.2,0.8,4-1.1,5.5-2.7c4.3-4.4,4-16.3-0.6-21c-1.7-1.7-3.3-4.2-6.2-2.8c-2.6,1-4.1,3.7-3.7,6.4
				C220.5,1100,220.5,1101.2,220.5,1102.8z M214.5,1047.7c0.9,1.7-1.9,6,1.2,6.7c2.6,0.6,4.4-3.4,5.7-6.1c1-1.9,2.1-3.7,3.1-5.7
				c2.7-5.2,2.2-10.6-0.1-15.7c-1.8-3.9-5-0.5-7.5-0.5s-4,1.5-3.7,4.6C214,1036.3,214.2,1041.6,214.5,1047.7L214.5,1047.7z
				 M452.7,912.5c-1.9,2.7-3.3,6.7-7.4,4.2s-3.8-6.7-2.9-10.7c1.1-4.7,4.3-4.2,7.6-2.6c2.1,1,2.2-0.2,2.1-1.7c-0.3-4-2-6.3-6.4-5.3
				c-5.8,1.2-7.6,8.7-7.5,18.2c0.1,9.8,3.3,9.8,10.9,6.9C454.5,919.5,450.7,915.3,452.7,912.5z M218.3,888.2
				c2.3,0.4,4.6-0.3,4.9-2.8c0.8-4.4,1.1-8.8,1-13.3c-0.1-2.9-2.5-5.1-5.5-5.7c-2.5-0.5-5.4,0.9-5.6,3c-0.7,4.8-2.7,9.4-1,14.5
				C213.2,887.4,214.8,888.7,218.3,888.2z M213.7,979.1c-0.4,7.4-0.8,14.7-1.1,22.1c0,1.1-0.6,3.5,1.3,3c3.6-1,4.8,0.5,5.5,3.4
				c0.8,3.3-2.2,3.7-4.1,4.6c-2.3,1.2-2.3,3.1-1.8,5.1c0.4,1.3,0.7,3.2,2.7,2.9c2-0.3,3.6-1.9,4.1-3.9
				C223.3,1003,217.1,991.3,213.7,979.1z M222.1,902.4c-1.2-3.2,1.4-7-2.7-7.8c-2.2-0.5-5.6-1.7-7,1.7c-2.2,5.3-2.9,10.7-1.1,16.3
				c1.1,3.3,3.8,3.5,6.7,3.7c3.4,0.2,3.9-2.2,4-4.4C222.3,908.5,222.1,905.1,222.1,902.4L222.1,902.4z M222.4,930.9
				c0.3-3.1-0.1-6-2.9-7.9c-1.4-0.9-3.2-1-4.7-0.2c-1.9,0.9-1.3,2.8-1.4,4.4c0,0.7-0.2,2,1.1,1.6c2.7-0.9,3.6,0.2,4,2.7
				c0.5,2.9-1.3,3.7-3.5,5c-3.6,2.2-1.2,5.7-0.8,8.7c0.3,2,1.4,2.9,3.3,2.7c3.4-0.4,4-2.8,4.1-5.7
				C221.9,938.4,222.2,934.6,222.4,930.9L222.4,930.9z M274.5,1109.2c-3.8-5-7.4-9.7-11-14.3c-1.3-1.7-2.7-3.5-5.1-1.3
				c-3.8,3.5-1.3,7.1,0.1,10.3c1.3,2.9,2.5-0.2,3.5-0.9c1.4-1,2.9-1.5,4-0.4c1,0.9,2,2.5,1.8,3.7c-0.2,1.6-1.6,2.7-3.1,2.5
				c-0.2,0-0.4-0.1-0.6-0.1c-1.8-0.5-2.4,0.1-1.7,1.5c0.9,1.6,1.6,4.5,3.8,3.8C269.2,1113,271.8,1110.9,274.5,1109.2z M452.2,935
				c-0.7-2.6,1.7-7-4.3-6.8c-3.9,0.2-5.2,1.7-5.1,5.5c0.1,4.7,0.6,10.7,5.2,11C452.7,945,451.5,938.9,452.2,935z M409.2,1209.1
				c-9.6,2.5-11.6,10-15,16.2c-0.4,1.2-0.1,2.6,0.8,3.5c1.3,1,2.6-0.3,3.2-1.4C401.7,1221.7,405.1,1215.9,409.2,1209.1L409.2,1209.1
				z M224.6,1078c2.1-5.7-0.4-9.5-2.4-13.4c-0.8-1.7-2.5-1.7-3.9-1.3c-3.4,1.2-1.6,4.2-1.8,6.4c-0.1,1.1-0.3,3.7,0.9,3.2
				C222.2,1070.8,222.8,1074.6,224.6,1078z M371.2,1155.8c5.3,1.6,8.8,0.7,10.2-4.8c0.5-1.9,2-3.2,3.6-4.5c1.2-1,1.1-2.6-0.5-3.7
				c-1.4-1-3.7-1.1-3.8,0.3C380.2,1149.3,374.5,1151.3,371.2,1155.8L371.2,1155.8z M302.6,1192.8c-1.4-2.1,1.7-7-2.1-6.3
				c-4.4,0.9-0.6,7.4-3.8,10.5c-0.8,0.8,1.9,2.1,3.1,2C305,1198.8,300.9,1194.6,302.6,1192.8L302.6,1192.8z M216.5,1084.4
				c0,1.6,0.1,3.9,1.8,3.4c1.8-0.7,3.2-2.3,3.6-4.1c0.3-2.1-2.4-1.9-3.8-2.2C215.3,1081,217.1,1083.5,216.5,1084.4z M319.3,1222.6
				c-0.6-0.6-1.5-2-2.7-2.3c-1.7-0.4-2,1.5-2.1,2.6c-0.2,1.6,1.1,2.1,2.6,2.1C318.2,1225.1,319.4,1225.1,319.3,1222.6L319.3,1222.6z
				 M448.5,995.6c2.7-4.6,1-7.7,1.3-12.1C447.1,987.7,447.9,990.9,448.5,995.6z M240.6,1153.8c2.3,0.5,4.6-0.2,6.3-1.8
				c0.1-0.1-0.5-1.6-1-1.7C243,1149.5,242,1151.8,240.6,1153.8z M227.8,1161.6l3.6-4.6C228.1,1157.2,226.9,1158.2,227.8,1161.6z"/>
			<path class="st0" d="M346.4,306.2c0-26,0-52,0-77.9c0-13.6-1-27.4,0.5-40.8c2-17.1-2.4-33.9-0.7-50.9c1-10.2,2.6-20.3,2.3-30.6
				c-0.2-6.2,4.7-9.6,10.6-10.6c10.9-1.9,22.3,4.5,20.9,18.6c-1.3,12.4-1.8,25.4-0.2,38.2c0.7,5.4-1.9,11.2-1.4,16.6
				c1.8,20.7,0.1,41.3,0.6,62c0.4,15.8,1.7,31.7,1,47.4c-0.8,17.5,0.6,35-0.5,52.5c-1.2,17.9,0.3,35.9,0.6,53.9
				c0.1,8.3-4.9,15.8-10.3,15.9c-20,0.5-23.3-1.7-23.3-15.5C346.3,358.8,346.4,332.5,346.4,306.2z M370,389.9l-1.8,6.4
				c3.5-2.1,5.8-3.7,2.8-7.2c-1.5-3-4.3-2.6-6.8-2.2c-1.4,0.3-1.1,2-0.8,2.9c1.8,4.2,3.4-1.8,5.2-0.2
				C368.9,389.9,369.5,389.8,370,389.9L370,389.9z M352.2,184.8c0,4,0,8,0,12c0,1.9,0.3,3,2.9,2.3c5-1.2,10.1-1,15,0.4
				c2.9,0.8,4.1-0.2,4-3.1s-0.1-5.6-0.3-8.4c-1.4-18.7-0.6-37.3,0-56c0.3-8.9,0.5-17.7-3-26.1c-2.2-5.2-6.8-5.6-11.3-4.8
				c-4.1,0.7-6.1,3.4-6.4,8C351.6,134.4,352.5,159.6,352.2,184.8z M374.3,338.5c0-1.5,0-2.4,0-3.2c-0.3-18.2-2.1-36.3-0.5-54.6
				c0.4-4.1,1.7-10.4-3-13.3c-5.6-3.4-11.4-1.9-17.2,1.2c-4.2,2.3-2.3,5.5-2.4,8.1c-0.2,5.4,0.9,10.9,0.5,16.3
				c-1.1,14-1.3,28-0.6,42c0.1,1.3-0.6,3.4,2.3,2C360.4,333.9,367.2,334.5,374.3,338.5L374.3,338.5z M350.7,265.1
				c6.7-3.5,12.7-3.5,18.6-3.2c3.1,0.2,3.9-0.8,3.9-3.8c-0.1-16.3-0.1-32.6,0-48.9c0-3.8-1.9-5.8-5-6.2c-4.1-0.3-8.3-0.3-12.4,0
				c-2.6,0.1-3.8,1.6-3.7,4.6c0.3,7.6,0.4,15.1,0.2,22.7C352,241.7,351.3,253,350.7,265.1z M374.2,364.3h0.1c0-4.6-0.5-9.4,0.1-13.9
				c1-8.1-4.9-10.2-10.4-11c-4.5-0.6-9.5,0.8-10.9,6.8c-2,8.8-0.3,17.8-1.2,26.7c-0.8,8.2,1,12.4,10.1,9.1c1.1-0.4,2.6,0,3.9,0.4
				c5.8,2,9.4,1.5,8.3-6.1C373.7,372.3,374.2,368.2,374.2,364.3L374.2,364.3z M359,390.3c0.4-2.5,0.2-3.6-1.5-3.5
				c-2.9,0.3-5,2-5.1,4.9c-0.1,1.9,2.1,4.8,3.2,4.1C357.6,394.5,358.3,391.5,359,390.3L359,390.3z M361.5,393.6
				c-0.7,0.9-1.4,1.8-2.1,2.8c0.4,0.4,0.8,0.7,1.3,1c0.8-0.7,1.5-1.5,2.1-2.4C362.9,394.9,362.1,394.2,361.5,393.6L361.5,393.6z"/>
			<path class="st0" d="M371.5,1059.8c7,15.8,4.1,27.3-14,30.4c-3.4,0.6-6.8-1.3-9.2-3.8c-3.6-3.7-5.8-2.6-7,1.6
				c-3.1,10.6-12.6,10.1-19.9,9.6c-7.6-0.5-13.8-6.3-14.6-13.9c-0.4-3-0.1-6,0.9-8.8c0.4-1.2,0.9-2.3,1.4-3.5
				c-1.6-0.1-3.3-0.6-4.8-0.3c-13,3.2-23.4-9.3-22.7-19.3c0.3-3.6-0.4-4.8-4.4-4.9c-9.8-0.1-17.7-8.2-17.5-18c0-0.4,0-0.9,0.1-1.3
				c0.8-9.6,10.6-16.9,20.9-15.6c12.2,1.5,13.2,2.5,13.8,14.9c0,1,0.3,2.6,0.9,3c1.1,0.3,2.3,0.1,3.2-0.5c1.3-0.9,0.8-2.3,0.3-3.6
				c-5.8-16.4,4-25,19.3-25.4c13.6-0.3,16.8,3.6,17,18c0,2-1.3,5.3,2.9,4.7c2.6-0.4,4.3-0.9,3.6-4.9c-1.6-8.2,3.6-20.1,8.8-22.8
				c7.8-4,17.8-2.5,25.3,5.4c4.5,4.7,4.5,11.6,2.5,17.7c-1,3.2-4.5,5.3,2.7,5.1c8.7-0.3,16.7,11.1,16.3,20.8
				c-0.4,9.2-6.1,14.1-17,14.5c-2.5,0.1-5-0.2-7.5-0.3l-2.5-0.5l-1.3-1.6c-4.5-2.8-6.2-6.8-5.7-12.1c0.3-3.7,0-7.5,0.1-11.3
				c0.1-2-0.4-3-2.7-3c-2.6,0-2.6,1.7-2.3,3.3c1.8,9,1.2,17.4-7.6,26c7.1-3,12.2-4.2,17.4-2.1l2.2,0.8L371.5,1059.8z M313.6,1047.8
				c0-7.6-4.8-13.6-10.7-13.4c-8,0.2-16.5,8.6-16.5,16.4c0,9.7,4.9,14.7,14.5,14.7C309.9,1065.4,313.5,1060.3,313.6,1047.8
				L313.6,1047.8z M319.4,1004.3c-10.1,0-17.9,5-18,11.7c-0.1,8,6.9,16.2,14,16.2c10.7,0,15-3.6,14.9-12.4
				C330.1,1005.6,329.2,1004.3,319.4,1004.3L319.4,1004.3z M346.3,1013.5c-1.4,8.8,5.4,10.9,14.9,11.7c7.5,0.6,12.2-5.5,12.2-14.6
				c0-8-5-12.4-14.3-12.4C351.3,998.1,346.3,1004,346.3,1013.5L346.3,1013.5z M353.5,1039.8c0.1-8.2-4-13.4-10.7-13.3
				c-5.3,0-16.5,10.1-16.4,14.7c0.2,7.9,5.5,13.1,13.5,13.2C348.3,1054.5,353.3,1049.1,353.5,1039.8L353.5,1039.8z M325.5,1091.3
				c8.9,0,12.8-4.7,12.8-15.4c0-7.9-5-10.5-11.9-10.6c-6.4-0.1-15.1,8.3-15.2,14.4C311.1,1087.1,316.1,1091.2,325.5,1091.3
				L325.5,1091.3z M276.5,1041.4c7.4,0.1,13.1-6.1,12.8-14.6c-0.2-5-0.5-10.6-8-10.6c-11,0-16.9,4.6-16.9,13.4
				C264.3,1038,267.8,1041.3,276.5,1041.4z M390.3,1043.3c0-9.7-3.6-15.1-10.2-15c-7.3,0-12.8,5.9-12.8,14.2c0,7.4,4.4,11,11.6,10.7
				C385.2,1053,390.4,1051,390.3,1043.3L390.3,1043.3z M369.3,1070.3c0.3-5-1.1-9.3-6.6-10c-7.4-0.9-17,7.2-16.4,13.9
				s4.6,9.9,11.3,9.9C365.3,1084.2,369.2,1079.5,369.3,1070.3L369.3,1070.3z M351.2,1058.4c-0.8-0.1-1.5-0.2-2.3-0.2
				c-19.9,2.8-22.7,0.8-27.5-19c-0.2-1-0.2-2.2-1.7-1.7c-1.6,0.5-1.8,2-1.3,3.3c2.6,7,1.4,13.5-1.6,20c-0.2,0.7-0.2,1.5,0,2.2
				c0.1,0.2,1.3,0.2,1.8,0c8-3.2,15.4-2.9,21.9,3.3c0.7,0.7,1.8,1.6,2.4,0.4C344.7,1063,348.8,1061.9,351.2,1058.4L351.2,1058.4z"/>
			<path class="st0" d="M294.7,96c12.4,0.1,18.2,6.6,18.7,19.1c1.5,36.6,0,73.2,1.1,109.8c0.5,14.9,0.3,29.8,0,44.7
				c-0.4,21.1,1.5,42.3,0.4,63.3c-0.8,16.2,1.3,32.3,0.2,48.4c-0.3,3.9,2.8,6.9,0.9,11.4c-3.1,7.3-8.5,9.6-15.4,10
				c-6.8,0.6-13.3-2.7-16.8-8.5c-0.9-1.4-1.3-3-1.4-4.7c0-43.6,0-87.3,0.1-130.9c0-29.2,0.1-58.4-0.2-87.6
				c-0.2-20.4-1.2-40.8-1.8-61.2C280.2,100.9,285.5,95.9,294.7,96z M308.3,232.8h0.2c0-12.6-0.2-25.3,0.1-37.9
				c0.1-5.4-3.4-7.4-7-6.7c-6,1.2-15.9-0.4-12.3,11.6c0.2,0.5-0.3,1.3-0.4,1.9c-1.9,11.7-1.4,23.5-0.8,35.3
				c0.7,12,0.6,24.1-0.3,36.2c-0.4,4.8,0.5,9.2,0.8,13.7c0.6,9.6,7.3,1.1,10.8,3.1c1.7,1,3.8,1,5.5,1.9c3,1.7,3.5,0.6,3.5-2.4
				C308.2,270.5,308.3,251.7,308.3,232.8z M288.3,342.9c0,13,0.2,25.9-0.1,38.9c-0.1,4.4,1.4,5.1,5.1,3.9c4.5-1.4,9.2-1.8,13.6,0.1
				c3.4,1.5,3.6,0,3.5-2.7c-0.9-26.4,0.2-52.8-2-79.1c-0.5-5.5-2.8-8.9-8.1-8.1c-5.2,0.8-12.1,0.4-12,9
				C288.5,317.6,288.4,330.3,288.3,342.9z M307.3,117.3c0.7-3.8,0.2-7.6-1.4-11.1c-2.6-5.7-7.9-6.7-13.3-6.1c-5,0.5-7,3.6-6.6,9
				c0.4,5.2-0.2,10.4,0,15.7c0.7,18.9,1,37.8,1.2,56.7c0.1,4.9,2.1,5.6,5.8,3.3c3.1-2,6.9-2.5,10.5-1.4c4.4,1.4,5.1-0.1,5-4
				C308,158.7,309.3,138,307.3,117.3L307.3,117.3z M296.8,388.4c-2.8,1.7-7.9,1.1-7.2,4.9c0.9,4.5,6.1,6.3,10.2,6.1
				c3.6-0.2,9.9-1,9.3-5.9C308.2,386.6,300.5,391.6,296.8,388.4z"/>
			<path class="st0" d="M324,739c0.5,8.6,0.2,17.2-0.9,25.8c-0.5,4-2.1,8.2-5.8,9.2c-7.1,1.8-14.4,3.1-21.5-1.5
				c-11.3-7.2-12.4-19-13.2-30c-1.3-19-2.5-38.1,2.7-56.9c2.1-7.7,10.5-13.4,20.5-12.9c8.3,0.4,10.2,6.4,12.8,13.3
				c3.2,8.6,2.4,17.6,4.2,26.2S324.6,730,324,739z M318.5,734.1c-0.1-15.2,0.3-30-4.1-44.3c-1.7-5.5-4.6-11-11.5-11.2
				c-7.4-0.2-11.4,4.8-13.3,11.2c-4.9,17-3.6,34.4-1.8,51.6c0.8,7.5,1.7,15.3,6.4,21.9c4.2,5.9,10.4,7,16.7,6
				c5.6-0.9,5.5-6.5,6.5-11C319.1,750.1,318,741.8,318.5,734.1z"/>
			<path class="st0" d="M372.2,775.3c0,15.2,0.1,35,0,54.7c0.1,7.6-5.7,13.9-13.3,14.4c-12.8,0.6-17.9-3.3-19.7-12.9
				c-3.7-19.2-2.3-38.5-2.9-57.8c-0.3-11.4,6.5-20.2,15.8-22.2C361.9,749.4,375.6,758.8,372.2,775.3z M367.2,791.9h0.2
				c0-7.5,0-15,0-22.5c0.1-4.4-2.1-8.6-5.9-10.8c-4.6-2.8-9-2.7-13.8,0.5c-8.8,5.7-5.8,14.8-6.3,22.3c-0.9,15.2-0.5,30.5,2.6,45.5
				c1.2,6,2.4,11.9,9.7,12.3c7.8,0.5,12.8-4.4,13.3-11.7C367.8,815.7,367.2,803.8,367.2,791.9z"/>
			<path class="st0" d="M292.5,906c1-6.8-2-15,2.5-23.1c4.8-8.4,12.4-11.5,20.5-11.1c7.5,0.4,10.2,7,11,14.6
				c1.7,16.3,2,32.6-0.8,48.8c-0.2,1.3-0.4,2.6-0.4,3.9c-0.3,7-4.8,10.8-11.6,9.8c-11.4-1.7-20.8-12.1-21.1-23.9
				C292.3,919.1,292.5,913.2,292.5,906z M296.9,917.8c-0.3,5.7,1,11.3,3.6,16.3c2.7,5.5,7.6,10.4,14,9c5.1-1.1,5.2-7.2,6.1-12.2
				c2.5-13,1-26.1,2-39.1c0.6-8.4-5-16.7-10.5-15.3c-5.8,1.4-10.7,5.5-13,11.1C294.5,897.5,301.2,907.9,296.9,917.8L296.9,917.8z"/>
			<path class="st0" d="M386.7,924.3c11.3,0,18.2,5.7,18.3,15c0.1,12.8-8.1,23-18.4,23c-8.3,0-19.3-9.6-19.2-16.8
				C367.6,930,372.8,924.3,386.7,924.3z M386.4,928.3c-9.7,0-13.6,4.8-13.9,17.1c-0.1,5.4,6.9,10.8,14.2,10.8
				c6.4,0,11.3-5.9,11.4-13.8C398.3,931.9,395.3,928.3,386.4,928.3L386.4,928.3z"/>
			<path class="st0" d="M250.4,89c-0.8,4.2,2.2,11-4,11c-3.4,0-3-6.9-2.1-11.1c0-0.2,0-0.3,0-0.5c0.5-3.2-3.2-9.1,3.1-8.8
				C252.5,79.9,249.4,85.8,250.4,89z"/>
			<path class="st0" d="M414.8,118.3c0,0.4,0,0.7-0.1,0.8c-2.2,2.8,1.9,8.8-3,9.1c-5.7,0.4-1.9-5.1-2.9-7.9
				c-0.1-0.3-0.3-0.6-0.4-0.9c-0.6-3.4-1-6.9,1.7-9.7c0.7-0.4,1.4-0.5,2.1-0.5C413.3,112.3,414.1,115.4,414.8,118.3z"/>
			<path class="st0" d="M408.1,149.5c0-1.5-0.3-3.1,0.1-4.4c0.6-2.2,0.3-5.5,4-5c3.4,0.5,2.1,3.6,2.3,5.5c0.3,3-0.1,5.9-0.9,8.8
				c-0.5,1.4,0.8,4.9-2.6,4.3c-2.5-0.4-3-2.8-2.9-5.1C408.2,152.1,408.1,150.8,408.1,149.5L408.1,149.5z"/>
			<path class="st0" d="M247.1,146.5c1.4-3.6-1.5-9.6,2.8-9.8c5-0.3,1.8,5.5,2.4,8.5c0.8,3.6,2.8,9.9-2,10.2
				C244.7,155.7,249.4,149.1,247.1,146.5z"/>
			<path class="st0" d="M250.3,124.8c1.3,3.2,0,4.3-2.2,4c-4.8-0.5-3.5-5.4-3.3-7.3c0.4-3.5-1.6-8.7,3.6-10.5
				c2.3-0.8,2.6,1.7,2.5,3.2C250.9,118,250.5,121.7,250.3,124.8z"/>
			<path class="st0" d="M407.4,95.8c0.5-4.5,0.5-7.4,1.2-10.3c0.4-1.5,0.8-4.2,3.1-3.6c2.1,0.5,2.8,3.2,2.1,4.9
				c-1,2.8-0.4,5.6-0.9,8.3c-0.4,1.9,1.8,5.5-1.9,5.4C408.4,100.3,407.4,97.1,407.4,95.8z"/>
			<path class="st0" d="M245.4,176.3c0.3-1.7,0.7-3.6,1-5.6c0-1,0.8-1.9,1.9-1.8c0.2,0,0.4,0,0.6,0.1c0.8,0.1,2.2,0.7,2.3,1.2
				c0.6,3.9,1,7.8,1,11.7c0,1.4-0.7,3.8-3.1,3.9c-2.6,0.1-2.5-2.2-2.9-3.8C245.8,180.1,245.6,178.2,245.4,176.3z"/>
			<path class="st0" d="M250.9,211.4c-0.9,2.2,0.6,5.7-2.8,5.6c-2.7,0-2.7-3.1-2.7-5.4c0-4,0.1-7.9,0.1-11.9c0-1.4,0.6-2.9,2-3.1
				c1.9-0.2,1.6,1.6,1.8,2.8C249.9,203.5,250.5,207.5,250.9,211.4z"/>
			<path class="st0" d="M410.9,166.2c1.9,0.6,2.1,1.8,2.2,3.2c0.2,4.1-0.5,8.3,0.9,12.3c0.5,1.5-0.5,2.6-1.9,3
				c-1.6,0.5-3.5-0.1-3.7-1.6c-0.5-5.2-0.9-10.4,1-15.5C409.5,167,410.4,166.6,410.9,166.2z"/>
			<path class="st0" d="M499.6,433.8c5.1-0.8,9.1,2.9,8.7,6.1c-0.9,6.6-8,5.5-12.8,6.4c-2.5,0.5-4.5-2.2-4.4-4.9
				C491.4,436.1,494.1,433.1,499.6,433.8z M502.8,439.6c-0.6-1.9-1.8-2-3-2c-1.5,0-2.6,0.6-2.9,2.1c-0.2,1.2,0.4,2.1,1.6,1.8
				C500,441,501.4,440.4,502.8,439.6L502.8,439.6z"/>
			<path class="st0" d="M475.1,617.6c-0.4-3.8,0.4-6.9,4.3-6.5c3.5,0.3,7.3,1.3,7.3,6.4c0.1,4.7-3.3,5.6-6.5,5.7
				S473.9,621.7,475.1,617.6z"/>
			<path class="st0" d="M138.6,299.6c-4.2,0.4-8.5,0.1-8.2-4.4c0.3-4,4.6-6.1,8.5-6.1c3.1,0,8.3,0,8,4.3
				C146.7,297.5,143.6,301.2,138.6,299.6z"/>
			<path class="st0" d="M158.5,407.1c-4.8-0.5-8.4-1.9-7.8-6.6c0.6-4.5,5.1-5.4,8.4-5.1s8,1.2,7.4,6.3S160.9,405.7,158.5,407.1z
				 M156.3,400.8c2.2,1.4,3.8,1.5,5-0.7C159.7,399.7,158.1,399.2,156.3,400.8z"/>
			<path class="st0" d="M528.3,289.9c3.8,0.9,5.7,4.7,6.1,8.7c0.3,2.9-1.1,6.8-5.3,6.1s-9.9-0.5-10.1-7
				C518.9,292.4,522.5,290.3,528.3,289.9z"/>
			<path class="st0" d="M216,533.4c2.2-4.1,2.7-9.3,8.6-9.7c5.4-0.3,6.5,4.6,6.2,7.8c-0.5,5.7-4.5,10.5-10.4,10.5
				C216.7,542,217.7,536.4,216,533.4z M224.2,535.6c1.2-2.4,2.8-4.2,1.7-6.6c-0.7-0.3-1.5-0.3-2.1,0.1
				C222,531.1,222.1,533.2,224.2,535.6L224.2,535.6z"/>
			<path class="st0" d="M219.8,619.8c0.1-0.8-2-6.1,4.1-6c5.9,0.1,8.3,4.8,8.3,9.8c0,3.8,0.4,9.6-5.8,9.8
				C218.8,633.5,219.1,627.8,219.8,619.8z M226.7,623.6c-0.8-0.7,0.7-2.9-1.5-2.7c-0.7,0.1-1.4,2.3-1.7,3.7
				c-0.2,1.2-0.5,3.1,1.6,2.8S226.2,625.2,226.7,623.6z"/>
			<path class="st0" d="M218.6,722.7c0.3-1.8-0.5-6.2,4.2-6.1c4.3,0.1,6.5,3.2,6.6,7.7c0.1,4.2-1.7,7.8-5.8,7.7
				C219.3,731.9,218.2,727.9,218.6,722.7z"/>
			<path class="st0" d="M449.1,702.1c-0.8,4,1.9,10.5-6.4,10.3c-7.4-0.1-7-5.8-7.2-10.5c-0.3-5.3,2.1-8.4,8.2-8.6
				C450.9,693.2,448.6,698.2,449.1,702.1z M442.2,698.3c-0.2,3.1-0.3,5.4-0.4,7.8C443.2,703.7,445.7,701.4,442.2,698.3z"/>
			<path class="st0" d="M433,775.9c2.5-4.3,1.4-12,8.5-12c6.8,0,5.1,7.6,5.6,11.3c0.5,3.3-2.7,8.7-7.7,8.7
				C435.3,784,434.1,779.8,433,775.9z M439.6,777.3c2.2-1.9,1.8-4.1,1.1-6.3c-0.5-0.1-1.1-0.1-1.5,0.2
				C437.5,773.3,438.5,775.2,439.6,777.3L439.6,777.3z"/>
			<path class="st0" d="M216.3,795.5c-0.1-1,0.2-3.2,3.9-3.2c4.8,0,4.8,4,4.7,6.6s0.5,7.3-3.3,7.1
				C217.3,805.7,216.5,801.2,216.3,795.5z"/>
			<path class="st0" d="M333.1,1202.3c-0.3,3.3-1.7,5.7-4.8,5.5c-4.1-0.3-6.4-3.6-6.6-7.3c-0.2-2.5,0.7-6.8,4.1-6
				C329.6,1195.2,332.6,1198.4,333.1,1202.3z"/>
			<path class="st0" d="M445.6,827.3c2.8-0.2,3.3,3.5,3.2,6.4s0,6.5-4.7,6.7c-4.5,0.2-5.6-3.1-5.5-6S439.2,827.5,445.6,827.3z"/>
			<path class="st0" d="M291.5,1225.1c-3.6-0.2-5.1-2-5.1-5.1c-0.1-4.2,3.1-4.6,6.1-4.8c2.6-0.2,5,1.1,4.6,3.8
				C296.6,1222,295.2,1225.1,291.5,1225.1z"/>
			<path class="st0" d="M370.2,1181c-0.3,3.1-3,5-6.4,5.4c-1.7,0.1-3.1-1.1-3.2-2.8c0-0.3,0-0.6,0.1-0.9c0.9-3.1,1.2-7.4,5.8-7.5
				C369,1175.3,370.3,1177.5,370.2,1181z"/>
			<path class="st0" d="M434.7,1061.2c4-0.1,6.5,0.9,6.1,4.1c-0.6,4.2-2.7,8.5-6.9,9.4c-3,0.7-3.8-3.1-3.7-5.8
				C430.1,1065.1,431.1,1061.7,434.7,1061.2z"/>
			<path class="st0" d="M300.4,1161.7c-1.6,2.5-3,5.3-6.2,5.2c-3-0.1-4-2.9-3.6-5c0.5-2.3,0.2-6.3,3.3-6.3
				S298.7,1158.9,300.4,1161.7z"/>
			<path class="st0" d="M328.3,1244.5c0.5,3.9-2.1,4.3-5,4.5c-3.6,0.2-3.9-2.4-3.9-5s0.9-4.9,3.8-4.8S328.7,1240.7,328.3,1244.5z"/>
			<path class="st0" d="M266.4,1147.3c-0.1,2.4-0.1,5-3.5,4.8c-4.4-0.3-6-3.7-6.5-7.5c-0.3-2.4,1.4-4.6,3.8-4.8c0.2,0,0.5,0,0.7,0
				C264.7,1140.2,266.7,1143.2,266.4,1147.3z"/>
			<path class="st0" d="M277.2,1184.8c-0.5,2.7-1.1,5.7-4.6,5.3c-5.2-0.6-5.3-5.3-5.9-9c-0.4-2.1,0.8-5.3,3.7-4.8
				C274.7,1177,276.7,1180.5,277.2,1184.8z"/>
			<path class="st0" d="M418.2,1141c0.2-1.7,0.5-4.9,5.5-5c3.5,0,4.3,2.6,3.8,4.3c-1,3.1-0.4,8-5.3,8.4
				C418.5,1149.1,417.9,1146,418.2,1141z"/>
			<path class="st0" d="M261.3,1210.3c0.1,2.6-1.6,5.5-3.8,5.2c-3.9-0.5-4.6-4.6-5.1-8c-0.3-2.3,1.1-4.6,3.6-4.2
				C259.6,1203.9,261.5,1206.4,261.3,1210.3z"/>
			<path class="st0" d="M442.7,1198.3c-1.6,3.4-2.4,7.6-7.2,7.5c-2.3,0-4.3-2.3-3.6-3.8c1.4-3.3,3.7-6.8,7.6-7.4
				C441.2,1194.3,442.5,1196.3,442.7,1198.3z"/>
			<path class="st0" d="M362,1145.1c-1,2.2-1.7,4.8-4.4,4.7s-3.7-2.6-4-4.9s1.3-3.5,3.2-3.7C359.5,1141,360.8,1143,362,1145.1z"/>
			<path class="st0" d="M333.2,1171.3c-1.1,0.1-2.5-2-2.5-4.3c-0.1-3.1,2.4-4,5.1-3.8s5.9,0.2,5.7,3.7S338.1,1170.9,333.2,1171.3z"
				/>
			<path class="st0" d="M237.5,1169.9c0.3-2.3,0.3-5.7,5-5.9c3.3-0.1,4.8,2,4.4,4.5c-0.6,3.3-0.6,7.8-5.4,8.2
				C237.6,1177.1,237.4,1173.9,237.5,1169.9z"/>
			<path class="st0" d="M392.1,1200.8c0.5,3.5-1.8,4.6-4.6,5.1c-2.5,0.4-3.4-1.7-3.1-3.4c0.5-2.6,1.7-5.1,4.9-5.3
				C392.2,1196.9,392.2,1198.7,392.1,1200.8z"/>
			<path class="st0" d="M355.1,1217.3c0.4-3.6,2.3-6.3,5.8-6.9c2.7-0.4,4.3,1.6,4.1,4.3c-0.2,4.2-2.7,6.8-6.7,7.2
				C355.3,1222.2,355.7,1219.2,355.1,1217.3z"/>
			<path class="st0" d="M230.3,1143c-3.6,0.3-4.6-2.2-4.4-4c0.4-3.8,2.2-7.6,6.3-8.5c1.3-0.3,5.2,0.1,5.1,3.4
				C237.3,1138.1,234.4,1141.9,230.3,1143z"/>
			<path class="st0" d="M419.3,1105.5c-1.4,3.2-0.8,7.5-5.5,7.5c-2.4-0.1-4.4-2.1-4.3-4.5c0-0.2,0-0.4,0.1-0.6
				c0.4-3.3,1.9-6.5,6.1-6.6C418.9,1101.1,418.3,1104,419.3,1105.5z"/>
			<path class="st0" d="M450.1,872c-0.6,2.9,0.5,7.3-4.8,7.2c-3.9-0.1-5-3.9-4.6-6.4c0.4-3.4,0.7-8.7,5.3-8.8
				C449.8,863.9,450.1,868.3,450.1,872z"/>
			<path class="st0" d="M223.3,843.8c0.3,4-0.7,6.4-3.1,6c-2.7-0.4-4.4-2.9-4.5-5.7s2.5-3.3,4.5-3.5
				C223.6,840.3,223.2,843.2,223.3,843.8z"/>
			<path class="st0" d="M240.3,1090c-0.5-0.1-3.1,1-2.4-1.9c0.6-2.2,1.2-5.2,4.4-5.2c2,0,3.2,1.4,3.1,3.7
				C245.2,1089.3,243.9,1090.5,240.3,1090z"/>
			<path class="st0" d="M397.1,1157.9c0.2,4.5-2,7.1-5.4,7.8c-3,0.6-3.3-3.1-3-4.6c0.4-2.5,0-6.4,4.7-6
				C395.6,1155.3,398,1155,397.1,1157.9z"/>
			<path class="st0" d="M409.7,1184.4c0.8-3.3,0.5-7.1,5.3-7.3c2.1-0.1,3.2,1.1,2.9,3c-0.5,3.5-1.5,7.1-5.6,7.8
				C409.5,1188.5,410.3,1185.7,409.7,1184.4z"/>
			<path class="st0" d="M313.4,1137.3c4-0.4,5.4,1.6,5.4,3.8s-1.4,4.9-4,4.9c-3.2,0-3.7-3.3-4.1-5.4S312.5,1137.4,313.4,1137.3z"/>
			<path class="st0" d="M249.5,1121.1c-2.2-0.7-3.9-2-4-4.4c-0.1-1.8,1.2-2.7,2.9-2.5c2.2,0,4,1.9,3.9,4.1c0,0.1,0,0.1,0,0.2
				C252.4,1120.3,251.3,1121.1,249.5,1121.1z"/>
			<path class="st0" d="M229.6,1057.9c0.4-2.2,0.2-4.7,3.3-4.6s4.6,1.8,4.5,5.1c-0.1,2.5-0.1,4.7-3.5,4.8
				C230.1,1063.2,230.2,1060.3,229.6,1057.9z"/>
			<path class="st0" d="M445.5,1018.2c2.3,0.6,2.9,2.2,2.5,3.9c-0.7,3-1.6,6.3-5.2,7c-2.5,0.4-1.8-2-1.6-3.2
				C441.6,1022.7,442.5,1019.8,445.5,1018.2z"/>
			<path class="st0" d="M399.1,1128.8c-0.5,4.2-4.4,5-7.7,5.9c-1.9,0.5-2.9-1.8-2.8-3.3c0.3-4.7,3.8-6.1,7.8-6.7
				C399.4,1124.2,398.9,1126.6,399.1,1128.8z"/>
			<path class="st0" d="M280.3,1119.2c5.6-0.2,6.8,3.6,7.5,7.1c0.3,1.8-1,3.4-2.7,3.7c-0.3,0-0.6,0-0.9,0c-5-0.3-5.7-4.4-6.5-8
				C277,1119.3,279,1119,280.3,1119.2z"/>
			<path class="st0" d="M226,1113.2c-1.5-0.3-3.7-0.3-2.9-3c0.7-2.1-0.1-5.8,3.1-5.8c2.9,0,4,3.3,4.2,5.8S228.2,1113.1,226,1113.2z"
				/>
			<path class="st0" d="M215.7,1038.4c-0.5-3.6,0.7-4.2,3-4.3c3.2-0.1,4.2,2.1,4.1,4.3c-0.2,2.5-1.4,6.1-4,5.8
				C215.6,1043.8,216.4,1039.7,215.7,1038.4z"/>
			<path class="st0" d="M220.5,878c0.6,2.9-1.4,3.2-3.7,3.5s-2.3-1.1-2.3-2.6c0-2.2-0.2-4.5,3-4.5
				C219.6,874.4,220.7,875.6,220.5,878z"/>
			<path class="st0" d="M218.5,904.8c-0.1,1.7,0.5,4.1-2.1,4c-1.8-0.1-4.1-1.1-3.8-3.6c0.3-2,0.8-4.6,3.3-4.7
				C218.7,900.3,218.3,902.9,218.5,904.8z"/>
			<path class="st0" d="M431,1112.1l2.7-4.3c1.8-1,3.5-1.1,4.7,0.7s-0.5,3-1.6,4.2C434.8,1115,432.8,1113.7,431,1112.1z"/>
			<path class="st0" d="M449.6,934.4c0.3,2.1-1.3,2.3-1.8,2.1c-1-0.4-1.8-1.1-2.3-2c-0.2-0.3,0.9-1.4,1.4-2.1
				C447.9,933.2,448.9,933.9,449.6,934.4z"/>
			<path class="st0" d="M294.3,1052.1c-0.1-4.6,2.5-5.7,5.5-5.8c3.6-0.1,5.5,2.1,5.2,5.7c-0.2,3.4-2.5,5.9-5.6,5.9
				C295.7,1058,295.1,1054.2,294.3,1052.1z"/>
			<path class="st0" d="M322.2,1021.7c-1.2,2.5-0.7,6.8-4.9,6.1c-2.9-0.5-6.1-2.4-5.6-6.3c0.4-2.8,1.8-5.5,5.4-5.2
				C320.3,1016.5,322,1018.4,322.2,1021.7z"/>
			<path class="st0" d="M357.8,1010.2c2.3,1.3,5.5,2,5.2,5.3c-0.2,2.3-1.3,5.6-4.2,5.1c-2.7-0.5-4.9-3.3-5.1-6.2
				C353.6,1012.4,355.5,1010.7,357.8,1010.2z"/>
			<path class="st0" d="M339.7,1041.2c2.1-0.2,2.5,2.1,2.5,4.9c0,3.5-2,5.9-5.2,6c-3.6,0.1-4.2-3.6-4.4-6.2
				C332.4,1042.4,335.2,1041.4,339.7,1041.2z"/>
			<path class="st0" d="M331.2,1078c0.2,4.5-1.5,6.3-5.6,6.3c-3.8,0-4.3-2.1-4.3-5.1c0.1-4.9,4-4.5,7.1-5
				C332,1073.7,331,1076.6,331.2,1078z"/>
			<path class="st0" d="M275.7,1037.1c-2.1-0.9-4.5-2.3-4.1-5.2c0.4-3.3,2.5-6.2,5.9-6.2c2.4,0,4.4,2.7,4.1,5.3
				C281.2,1034.2,278.8,1036.7,275.7,1037.1z"/>
			<path class="st0" d="M378.2,1039.2c3.2-0.6,4.3,2,4.5,4.7c0.1,2.4-1.2,4.5-4.2,4.3c-3.4-0.2-4.5-2.7-4.9-5.3
				S375.2,1039.2,378.2,1039.2z"/>
			<path class="st0" d="M355.4,1074.3c-0.4-4.1,1.6-5.6,4.6-5.9c3.8-0.3,4.9,2.5,4.9,5.4c0,3.2-2.1,5.1-5.4,5.3
				C355.6,1079.3,356,1076,355.4,1074.3z"/>
			<path class="st0" d="M307,718.1c0.5,3,0,6.1-1.4,8.7c-1.9,3.7-4.2,3.6-7.1,1.7c-4.1-2.7-3.3-17.1,1.3-18.5
				C307.1,707.9,307.5,713,307,718.1z M302,724.5v-9.1C300.6,718.2,300.1,720.2,302,724.5L302,724.5z"/>
			<path class="st0" d="M362.2,798.5c-0.1,3.5,0.2,7.2-3.2,9.4c-2,1.4-3.8-0.2-5.5-1.1c-1.8-0.7-2.6-2.7-1.9-4.5
				c0-0.1,0-0.1,0.1-0.2c1.8-3.7-2-9.6,3.5-11.5C362.6,788.1,362.2,793.7,362.2,798.5z"/>
			<path class="st0" d="M317.2,914.2c-0.7,5.2-1.5,9.8-7.4,9c-5.5-0.7-4.1-4.8-3.6-8.8c0.6-4.9,1.3-10.3,7.1-9.8
				C319.4,905.1,314.1,911.9,317.2,914.2z"/>
			<path class="st0" d="M392.1,940.5c0.4,5-2,7.9-6.2,8.3c-2.8,0.2-4.7-2.5-4.5-5.5c0.4-4.6,3.7-7.2,7.7-7.8
				S391.9,938.7,392.1,940.5z"/>
		</g>
	</g>
	<g>
		<g>
			<line class="st1" x1="361.2" y1="408.8" x2="361.2" y2="478.1"/>
			<g>
				<polygon class="st2" points="352.7,468.1 361.2,476.6 369.6,468.1 369.6,475.3 361.2,483.8 352.7,475.3 				"/>
			</g>
		</g>
	</g>
	<g>
		<g>
			<path class="st1" d="M268.2,472.1c17.8-10.2,29-30.6,28.5-51"/>
			<g>
				<polygon class="st2" points="305.8,430.4 296.8,422.5 288.9,431.6 288.4,424.4 296.3,415.4 305.4,423.2 				"/>
			</g>
		</g>
	</g>
	<g>
		<g>
			<line class="st1" x1="363.2" y1="8.6" x2="363.2" y2="77.9"/>
			<g>
				<polygon class="st2" points="354.7,67.9 363.2,76.4 371.6,67.9 371.6,75.1 363.2,83.6 354.7,75.1 				"/>
			</g>
		</g>
	</g>
	<g>
		<g>
			<line class="st1" x1="296.2" y1="83.6" x2="296.2" y2="14.3"/>
			<g>
				<polygon class="st2" points="304.6,24.3 296.2,15.8 287.7,24.3 287.7,17.1 296.2,8.6 304.6,17.1 				"/>
			</g>
		</g>
	</g>
</g>
<g id="Layer_2">
	<text transform="matrix(1 0 0 1 6.4942 477.0725)" class="st2 st3 st4">4</text>
	<text transform="matrix(1 0 0 1 6.4942 808.4658)" class="st2 st3 st4">3</text>
	<text transform="matrix(1 0 0 1 6.4942 150.3462)" class="st2 st3 st4">5</text>
	<text transform="matrix(1 0 0 1 6.4942 1054.381)" class="st2 st3 st4">2</text>
	<text transform="matrix(1 0 0 1 6.4941 1217.0564)" class="st2 st3 st4">1</text>
	<path class="st5" d="M108.7,277.2c0,0-22.7,1.1-22.7-60.7S86.6,123,70.8,123c15.8,0,15.2-31.7,15.2-93.5s22.7-60.7,22.7-60.7"/>
	<path class="st5" d="M108.7,627.5c0,0-22.7,1.2-22.7-69s0.7-106.2-15.2-106.2c15.8,0,15.2-36,15.2-106.2s22.7-69,22.7-69"/>
	<path class="st5" d="M108.7,936.5c0,0-22.7,1.1-22.7-60.8S86.6,782,70.8,782c15.8,0,15.2-31.8,15.2-93.7s22.7-60.8,22.7-60.8"/>
	<path class="st5" d="M108.7,1126.8c0,0-22.7,0.7-22.7-37.4s0.7-57.7-15.2-57.7c15.8,0,15.2-19.6,15.2-57.7
		c0-38.1,22.7-37.4,22.7-37.4"/>
	<path class="st5" d="M108.7,1259.5c0,0-22.7,0.5-22.7-26.1c0-26.6,0.7-40.2-15.2-40.2c15.8,0,15.2-13.7,15.2-40.2
		c0-26.6,22.7-26.1,22.7-26.1"/>
</g>
</svg>
