<?xml version="1.0" encoding="utf-8"?>
<!-- Generator: Adobe Illustrator 24.1.1, SVG Export Plug-In . SVG Version: 6.00 Build 0)  -->
<svg version="1.1" xmlns="http://www.w3.org/2000/svg" xmlns:xlink="http://www.w3.org/1999/xlink" x="0px" y="0px"
	 viewBox="0 0 647.1 631.2" style="enable-background:new 0 0 647.1 631.2;" xml:space="preserve">
<style type="text/css">
	.st0{fill:#F2953D;}
	.st1{fill:none;stroke:#F2953D;stroke-width:6;stroke-linecap:round;stroke-linejoin:round;stroke-miterlimit:10;}
	.st2{font-family:'Verdana';}
	.st3{font-size:72px;}
</style>
<g id="Layer_1">
	<g id="Layer_1-2">
		<path class="st0" d="M70.2,390.2 M268.6,472.2l-25.6,7.8c9.3-0.9,18.3-2.4,26.4-7l4.6-1.3C271.5,471.3,269.9,470.5,268.6,472.2z
			 M193.1,404.3c10-2.8,21.4-5.6,26.9-13c7.6-10.3,9.6-7.8,13.1,3.9c1.9-8.1,3.4-14,4.6-19.9c1.5-7.8,3.9-14.3,12.4-17.3
			c6.6-2.3,13-5,19.9-6.4c15.2-3,30.3-6.7,45.7-8.1c3.2-0.3,4.6,0.6,4.9,4.3c1,17.3,2.4,34.6,1.9,52c0.1,0.9,0.2,1.9,0.4,2.8
			c1-0.4,2.3-0.6,3-1.4c3.9-3.8,7.4-8.3,12.5-10.3c6.1-2.3,6.6-6.9,5.9-12c-1.1-9-0.3-17.8,0-26.8c0.1-3.8,2.3-5.2,5-3.1
			c7.6,5.9,16.8,8.5,25,13.5c13.5,8.2,24.6,17.2,22.1,35.3c-0.7,3.8,0.8,7.6,3.8,9.9c0-9.4,0.3-17.9-0.2-26.3
			c-0.2-3.5-2.1-6.8-5.3-9.4c-13.4-11-29-18-44.8-24.8c-2.9-1.2-8-1.8-7.4-5.9c1.1-7.9,1.5-16.5,11.7-19.5c5.1-1.4,9.7-4.2,14.5-6.5
			l-0.2-1.1c-3.9,0.6-7.8,1-11.5,1.9c-13.7,3.3-22.2-1.6-22.6-13.2c-0.6-14.1-0.7-28.1-1.7-42.2c-1.7-25.4-1.6-51-2.3-76.5
			c-0.2-6.8,0.5-13.5-0.7-20.3c-2.2-12.4-3.9-25,4.3-36.2c11.1-15.2,22.7-29.9,33.6-45.3c9.2-12.9,8.2-36.3-6-45.3
			c-5.8-3.7-12-8.9-10.3-17.8c0.3-1.3,0.1-3.6-0.7-4.1c-1.7-1-3.4,0.5-4.8,1.6c-6.5,5.6-14.1,9.6-20.5,15.6
			c-9.5,8.9-18.9,17.7-24.4,29.4c-11,23.5-2.6,44.4,9.8,64.7c5.7,9.3,12.4,18.3,14.5,29.2c3.8,19.1,3.9,38.5,2.8,57.8
			c-0.6,9.5-1.6,19.7-7,28.2c-2.6,4.2-5.5,7.3,1.2,10.2c1.8,0.8,1.1,3,1,4.6c-0.3,16.6-0.6,33.2-0.9,49.8c-0.1,8.1-0.1,16.3,0,24.5
			c0,4-1.5,7.1-5.6,7.4c-17.9,1.3-35,6.2-52.2,10.4c-21.3,5.2-37,19.2-50.1,36.3 M380.9,311.7c9.8-0.8,17.9,1,26,3.4
			c21.4,6.2,42.4,13.7,65.5,11.5c19.7-1.8,38-7.7,53.3-19.5c17.9-13.8,36.6-26.7,52.9-42.5c1.2-1.1,4.5-1.3,3.2-3.5
			c-0.9-1.5-3.5-0.3-5.4,0.3c-14.8,4.4-30.3,5.7-45.5,3.7c-23.1-3.1-46.1-4.8-69.3-1.6c-12.1,1.6-24,4-35.1,9.5
			C408.3,281.8,395.7,296.9,380.9,311.7L380.9,311.7z M227.1,243.5c3.2,0,4.5,0.1,5.8,0c16.3-1.5,31.1-9.8,47.7-9.9
			c1.9,0,2.8-1.1,1.1-2.3c-6.9-4.9-7.3-12.1-8.1-19.5c-1.3-12.2-6.3-22.5-16.9-29.6c-10.4-7-22-11-34-13.1
			c-10.2-1.8-20.8-4.1-31.4-1.7c-16.1,3.6-32,9-48.9,5.4c-1-0.2-3.1-0.9-3.4,0.9c-0.2,1.5,1.6,2.2,2.7,3.1
			c17.7,13.5,33.9,28.8,48.4,45.6C200.4,234.1,212.9,242.2,227.1,243.5L227.1,243.5z M424.1,481.1c-0.2-1.6-1.9-0.9-2.9-0.9
			c-8-0.1-15.1,3.6-22.7,5.3c-18.9,4.1-36.1,0.5-52.3-9.2c-3.8-2.3-3.8-0.4-3.8,2.4s-0.2,6.1-3.4,6.2c-2.8,0.1-6.1-0.8-6.8-5
			c-1.5-10.2-7.5-18.3-13.2-26.4c-3-4.2-6.3-6.4-10.6-1c-1.8,2.2-4.5,3.8-7.1,5.2c-7.8,4.1-15.7,8-23.6,11.9
			c12.7-2.6,24.5-7.7,36.4-12.4c4.3-1.7,5.2-0.3,5.2,3.8c-0.1,12.8-0.9,25.7,0.2,38.4c0.8,9.3-3.9,14-10.2,18.9
			c-10.5,8.3-20.6,16.8-30.8,25.4c-0.8,0.7-3.6,2.9-1,3.2c4.4,0.5,3.5,3.8,4.5,6c0.9,1.9-0.2,5.6,2.2,5.8s2.3-3.5,2.9-5.5
			c5.1-15.2,14.6-26.4,29.4-33c2.6-1.2,5.9-2.1,5.6,2.2c-0.8,10.8,2.6,21.3,2.2,32.1c-0.3,7.1,1.7,14,3.1,20.8l1.9,12.7
			c1,6,2.2,12,3.5,18.8c1-1.4,1.9-2.1,2-2.9c2.2-12.7,5-25.3,6.3-38.1c1.1-11.3,2.7-22.6,2.6-34.2c-0.1-13,1-26-0.3-39
			c-0.2-2.4,0.5-4.6,3.4-5.3c10.4-2.4,21.9-2.1,29.2,8.2c0.6,0.9,0.8,3,2.5,2.5s1.8-2.2,1.6-3.7c-0.5-4,1.2-5.6,5.1-5
			c16,2.3,32,5.4,45.8,14.2c7.8,4.9,13.8-0.7,20.5-0.8c-8.1-4-16.9-6.5-25.9-7.5c-2.7-0.3-5.3-0.2-6.6-3.2L424.1,481.1z
			 M367.6,402.9c0-6.3-9.4-12-15.2-9.6c-16.1,6.4-27,19.5-39.5,30.3c-2.5,1.9-3,5.4-1.2,7.9c0.1,0.1,0.2,0.3,0.3,0.4
			c2.2,2.8,5.1,4.5,8.6,2.7c11.5-5.6,24.2-8.6,35.1-15.5C361.8,415.4,367.5,411.1,367.6,402.9L367.6,402.9z M353.5,457.5
			c0.2,1.7,0.2,3.3,0,5c-1.5,8.9,3.7,10.7,11,13.2c9.2,3.2,18.1,2.5,27.3,2.6c4.7,0,9.3-3.2,12.6-3.1c6.8,0.1,12-4.3,18.5-3.9
			c5.8,0.3,11.6,0.2,17.5,0s7.3,3.6,5.9,8.1l-9.9,1l-2.5,7.3c4.8,4.4,24.4,6.9,30.7,10.3c2,1,3.8,2.2,5.7,3.5
			c4.2,3,9.4,3.2,13.5,6.2c7.6,5.6,7.8,6.4,1.2,13.9c-0.4-2.4-0.7-5.1-3.9-2.3s-1.7-2.1-3.4-2c-7.5,0.2-14.4-3.1-21.7-4
			c-0.9-0.1-2.4-0.1-2.8,0.5c-0.9,1.3,0.6,2,1.3,2.8c3.2,3.7,1.6,8.5,3,12.7c0.2,0.6-1.4,2.3-2.4,2.8c-1.6,0.8-2.7-0.7-3.8-1.7
			c-6.8-6.6-13.2-13.8-21.5-18.7c-2.9-1.7-6.2-2.3-9-5c-1.8-1.6-2.2,3.9-4.7,4.8c-0.5,0.2-0.8,0.7-1.1,1c-0.3-0.5-0.9-1.4-0.7-1.6
			c4-5.5-0.3-6.4-4.1-6.9c-5.7-0.8-10.5-4.2-16.4-4.5c-2.7-0.1-3,0.2-4.1,2.8c-2.6,6.6-3.2,13.6-4.7,20.4c-0.5,2.1-2,2.7-3.5,3
			c-2.5,0.7-1.9-2.1-2.1-3c-2.7-8.3-5-16.6-11.2-23.5c-3.6-4-7.9-4.1-12.2-4.9c-2.8-0.5-2,2.1-2,3.5c0.2,7.4,0.5,14.9,1,22.3
			c0.7,8.7-2.3,17-1.9,25.6c0.6,14-2.3,27.8-3.8,41.5c-1.4,12.5-4.6,25-7.6,37.4c-1,4-3.9,7.3-9.7,6.6c-4.9-0.6-3.1-3.8-4.1-6.3
			c-4.8-12.3-3.6-26.1-9.7-38.1l-0.1-13c-0.6-12.8-4.4-25-4.2-37.7c0-3.2-2.4-2.4-4-0.6c-5,5.7-9.2,11.4-12,18.8
			c-2.4,6.5-6.3,12.7-8.3,19.6l-9.5,1.4c-0.5-2.5-1.3-5-2-7.5c-3.4-11.9-3.9-10-13.5-5.3c-7,3.4-13.2,8.3-20.2,11.5
			c-2.7,1.3-6.7,0.5-9.8-0.3c-2.1-0.6-1.8-2.9-0.1-4.3c9.2-7.6,18.1-15.5,27.8-22.6c10.8-7.8,21.4-16.3,30.1-26.6
			c2.8-3.3,6.7-3.9,9.8-6.6c5.7-5,9.2-9.9,8.1-18.1c-1-7.4-0.1-15-0.3-22.5c0-1.5-0.5-2.9-1.4-4c-1.4-1.3-2.1,0.9-3.2,1.4
			c-5.8,2.8-11.9,4.5-18.1,6.2c-7.5,2.1-14.9,4.8-22.2,7.5c-5.1,1.9-11.2,1.4-14.8,7.1c-1.7,2.6-2.1-3.2-4.1-1.7
			c-5.8,4.4-13.5,2.2-19.5,5.8c-0.8,0.5-1.8,1.2-2.6,1c-5.5-0.8-9,1.8-11.4,6.7c-0.2-3.3-8.1-5-11.8-2.4c-5.1,3.6-10.5,1-15.7,1.5
			c-1.7,0.1-1.8-1.9-2-3.5c-0.4-3.7,2.3-6.5,4.7-6.8c10.7-1.5,18.9-8.6,28.9-11.9c7.4-2.5,15.1-3.9,22.1-6.8
			c11.3-4.8,23.8-5.7,34.5-11.8c3.5-2,7.5-2.4,11.3-3.8c8.8-3.1,14.5-10.6,22.7-14.5c2-1-0.1-2.8-1.2-3.9
			c-7.2-7.2-7.4-14.5,0.6-21.2c6.6-5.5,7.2-12,6.4-19.5c-0.4-4.7-0.4-9.3-0.1-14c0.2-3.6-1-5.3-4.8-5c-9.2,0.7-18.6,0.7-27.7,0.5
			c-9.6-0.2-19.2,1.7-28.9-0.3c-6.8-1.4-5.5,5.9-6.2,8.8c-2,9.2-2.4,18.8-3.5,28.3c-0.1,1.2,0.8,2.9-0.9,3.5s-2.6-1-3.6-2
			c-4.3-4.3-6.9-9.6-9.1-15.2c-1.5-4-3.1-4.7-6.7-1.7c-5.9,4.9-13.2,6.9-20.4,9.2c-4.3,1.4-8.9,2.1-12.9,3.6
			c-7.3,2.8-14.1-0.5-21,0.1c-1.5,0.1-2.8-1.6-3-3.5c-0.3-2.8,1.9-1.8,3.3-2.4c4.4-1.7,8.6-3.9,11.8-7.5c2.1-2.4,4.4-4.6,7.9-4.3
			c1.6,0.1,3.6,0,3.5-1.8l9.2-8.6c2.7-1,5.9-3.1,5.6-5.5s-4-1.1-6.1-1c-12.6,0.8-25.3,0.5-37.8,0.5c-14.7-0.1-29.5-0.3-44.3-0.5
			c-15.6-0.2-31.2,0.7-46.6-2c-4.8-0.8-9.6,1.6-14.5,0l-12.4-0.5c-1.3-1.7-3.6-0.4-4.9,0.6c-1.8,1.5-3.2,0.1-4.7,0.1
			c-11.3,0.1-22.7,1.3-33.8,3.4c0.3,0.5,0,0.2,0,0c-0.5-14.6-0.5-14.2,14-14.7c12.1-0.4,24.3-2.5,36.4-2.6c10.5-0.1,21,1.5,31.6,2.3
			c10,0.8,19.9,1.6,30,0.7c5.1-0.5,10.3-0.2,15.5-0.3c25.1-0.1,50.3-0.7,75.4,0.2c11.2,0.4,20.2-2,28.1-10
			c10-10.1,23.7-12.6,36.7-16.2c13.2-3.7,26.7-6,40.2-8.3c5.7-1,4.2-6.2,4.4-9.4c0.8-16.9,0.9-33.8,1.3-50.7
			c0.1-2.1,0.3-4.2,0.6-6.3c1.1-7-1.7-12.1-8.4-15.2c-8.5-3.9-16.8-8.8-26-9.5c-6.2-0.5-12.8,2.1-19,4c-15.2,4.6-30.5,8.3-46.3,3.5
			c-10.6-3.3-20.1-9.2-27.7-17.3c-8.8-9.2-16.6-19.5-26.2-27.7c-13-11.1-25.6-22.9-40.2-31.9c-2.5-1.5-4.9-3.4-2.8-7.3
			c1.9-3.6,4.6-2.5,7.2-1.9c16.5,4.1,33,6.1,49.8,1c17.9-5.5,35.9-4.4,54-0.3c11.7,2.6,22.8,6.1,33,12.6
			c12.4,7.9,20.4,19.5,20.4,33.4c0,14.3,8,18.6,18.5,22.6c0.8,0.3,1.6,0.4,2.3,0.8c12.1,5.2,13.4,3.4,15.1-9.9
			c1.6-12.8,1.6-25.6,2.4-38.4c1.1-17.7-4.5-33.8-14.4-48.5c-11-16.4-18.9-33.9-19.4-54c-0.3-12.6,4.8-23.7,12.2-32.8
			c10-12.4,21.2-24,35-32.5c8.9-5.4,17.9-10.6,26.9-15.8c1-0.7,2.4-0.5,3.1,0.4c1.1,1.3,0.9,2.7,0.2,4.2c-1.6,3.2-2.8,6.6-3.6,10.1
			c-2.3,10.4,5.2,14.6,11.5,19.6c6.5,5.2,9.1,12.4,10.6,20.3c4,20.5-8.9,34.3-19.6,48.9c-6,8.2-12,16.4-18.4,24.3
			c-7.7,9.6-8.7,20.7-6.8,32c1.1,6.4,0.8,12.8,1.5,19.2c1.3,11.8,0.9,23.8,1.3,35.7c0.9,26.3,1.9,52.6,3,78.8c-0.1,0.7,0,1.3,0.2,2
			c2.4,4.2-1.9,11.4,2.3,12.9c6,2.1,13.1-0.9,19.7-1.6c14.4-1.4,20.8-13.4,29.6-21.8c15.9-15.1,34.4-23.9,55.8-27.7
			c16.7-3,33.5-3.5,50.3-2.8c12.1,0.5,24.1,2.8,36.2,3.8c17.8,1.4,34.9-2.7,51.5-8.8c2.6-1,5.3-1.8,7.1,0.8s1,5.7-0.9,8.3
			c-5.7,7.9-13.2,14.3-20.7,20.3c-16.7,13.4-34,26.2-51.4,38.6c-11.7,8.3-25.4,12-39.4,14.9c-31.5,6.5-60.5-4.3-89.8-12.9
			c-9.1-2.7-16.3,1.4-24.1,3.7c-4.2,1.3-7.9,4-12,5.7s-4.2,5.6-4.7,9c-0.5,3.7,3.1,3.9,5.2,4.9c14,6.6,28.5,12.1,41.2,21.1
			c1.5,1,3.7,1.2,5.6,1.3c12.8,0.3,25.6-1,38.5-0.4c11.1,0.5,22.3,0.8,33.5,0.6c18.1-0.3,36.3-0.1,54.3,0.9c17,0.9,34.1,1.1,51,2
			c21.3,1.2,42.7,1.8,64,1.8v13c-8.3-0.3-16.5,0.4-24.8-1c-2.4-0.4-4.8-0.3-6.8,2c-3.1,3.5-3-2.2-5.4-2.1c-4.2,0.1-8.5-0.8-12.8-0.9
			c-12.3-0.4-24.6,0.1-36.8-1.1c-16.4-1.6-32.8-0.5-49.1-1.3c-7.6-0.4-15.9,1-23.3,0c-13.9-2-27.6-1.1-41.5-1.4
			c-5.8-0.1-11.7-0.3-17.8,1.8c-3.1,1.1-9.1-0.6-13.8-0.9c-2.9-0.2-4.6-0.6-4.9,4.1c-0.6,8.6-1.1,17,0.3,25.5
			c0.8,5,2.9,8.7,7.2,11.4c2.9,1.9,5.3,4.5,2.9,8.2c-2.7,4.1-8.4,4.2-10.4,1.9c-3.9-4.4-9.4-6.1-13.5-10.1
			c-3.6-3.3-6.3-7.5-7.9-12.2c-1.9-6-2.3-12.5-3.2-18.7s-3.8-9.9-10.5-9.1c-5.8,0.6-11.7,0.3-17.4-0.9c-1.4-0.3-3.2-0.4-3.9,1.4
			c-0.4,0.9-0.4,1.9-0.1,2.8c0.9,1.3,2.3,0.6,3.6,0.4c11-1.4,24.6,13.9,22,24.9c-0.4,1.2-1.2,2.3-2.2,3.2
			c-6.9,6.6-13.2,13.9-21.1,19.4c-4.3,3-2.8,8.3-2.3,12.5 M254.1,365.8c4.2,0.6,7.8,2,11.2,1.5c14.2-1.9,28.4-0.5,42.6-0.8
			c6.3-0.1,4.4-4.5,4.6-7.7c0.3-3.4,0.3-6.8-4.9-6.3c-12.3,1.3-24.5,3.5-36.5,6.7C265.4,360.5,259.6,361.5,254.1,365.8z M344,439.7
			c-1.7-1.4,1.4-4.6-1.9-5c-2.2-0.2-3.8,2.2-3.4,4.5s0,5.8,3.2,5.8C345.4,445,342.6,441.6,344,439.7z M330.6,442.5
			c0.3-1.7-0.8-2.4-2.6-2.2c-2.1,0.3-4.3,0.3-4.5,3.3c-0.1,2.2,0.8,3,2.9,2.7S330.7,445.7,330.6,442.5L330.6,442.5z M360.5,365
			c-1.5-1.1-2.1-3.5-4.7-3.6c-1.1,0-3-0.8-3.2,1.2c-0.3,4,3.8,2,5.4,3.5C358.6,366.6,360,366.8,360.5,365z M236.4,482.5
			c-2.7-0.8-4.7,0.1-6.4,2.4C232.8,485.6,235.1,485.5,236.4,482.5z M379.9,312c-2.4-1.2-4.2,0.4-7.3,1.5
			C376.1,314.9,377.5,312,379.9,312z"/>
		<path class="st0" d="M183,450.2c2.4-4,6.3-6.7,5-12.3C193,443.4,191.1,447.8,183,450.2z"/>
		<path class="st0" d="M153.6,438.6c-0.9-2.6-5.3-1.4-4.8-4.4c0.2-1.2,3.7-2,5.9-2.6c1.1-0.3,1.3,1.4,0.9,1.7
			C153.9,434.6,156.3,437.2,153.6,438.6z"/>
		<path class="st0" d="M370.4,512.1c0,2.7,0.2,3.9-0.1,5c-0.3,0.9-1.3,2.3-1.7,2.3c-1.1-0.2-1.1-1.2-0.6-2.3c0.4-0.8,0-1.8,0-2.8
			c0.1-1.4-2.9-2.4-0.5-4c0.7-0.3,1.5-0.6,2.2-0.7C370.1,510.8,370.4,512.2,370.4,512.1z"/>
		<path class="st0" d="M369,424.5c1.2,1.9,4.8,3.2,2,6c-0.9,0.9-1,2.9-2.7,2.2c-0.5-0.2-0.5-2-0.4-3.1
			C368.2,427.9,368.5,426.2,369,424.5z"/>
		<path class="st0" d="M486,415.8l-1.6,1.2c-1.7-3.9-5.7,1.3-6.8-1.5c-0.7-1.6,2.6-2.6,3.9-2.7C482.9,412.9,484.4,414.7,486,415.8z"
			/>
		<path class="st0" d="M207.7,530.9c1.1,2,3.2,3,2.9,5.2c-0.3,1.4-0.9,2.7-1.7,3.9c-0.6,0.1-1.2,0-1.7-0.3c-0.9-1.4,0.1-2.4,1.1-3.4
			C210.1,534.2,206,533.4,207.7,530.9z"/>
		<path class="st0" d="M123.8,423.6c4.6-0.9,6.1,2.7,7.2,6.7L123.8,423.6z"/>
		<path class="st0" d="M359,528.8c2.1,0.3,2.5,1.4,2.4,2.9s-0.3,3-2.1,3.2c-1.1,0.1-1.8-0.3-1.3-1.7
			C358.5,531.8,358.8,530.3,359,528.8z"/>
		<path class="st0" d="M355.4,604c0.2,1.5-0.5,2-2,2s-1.9-0.8-1.9-2.2s0.5-2.4,1.8-2.5C355,601.2,355.4,602.5,355.4,604z"/>
		<path class="st0" d="M283.1,518.4c-4.6,0.9-6-0.6-6.3-2.6c-0.2-1.5,0.6-3.8,2.5-1.4C280.1,515.5,279.9,517.5,283.1,518.4z"/>
		<path class="st0" d="M363.8,591c-2-3.1-1.5-5.3,0.4-7.5C366.5,586.1,365.3,588.4,363.8,591z"/>
		<path class="st0" d="M358.1,593.7c-1.3,2-1.9,4.5-4.6,5.1c-0.2,0-0.8-0.7-0.7-1C353.6,595.4,355.6,594.2,358.1,593.7z"/>
		<path class="st0" d="M360.1,498.3c0.4,2.4,0.7,4.9,1.2,8.4C357.2,504,359.1,501,360.1,498.3z"/>
		<path class="st0" d="M268.1,392.8c1.8-2.7-0.6-5.4,0.4-9.6C269.6,387.5,272.3,390.3,268.1,392.8z"/>
		<path class="st0" d="M476.2,434.2c1,0.3,2.5-0.5,2.8,1.2s-1.2,1.6-2.3,1.7c-1.4,0.1-3-0.2-3.1-1.7
			C473.5,433.6,475.3,434.5,476.2,434.2z"/>
		<path class="st0" d="M168.1,398.7l5.2-0.7c0,0.8,0.2,1.7-0.2,2.2C171.3,402.3,169.9,399.8,168.1,398.7z"/>
		<path class="st0" d="M408.8,524.7c-0.5,2.5,3.7,3,2,5.8c-0.2,0.3-1.7,0.4-1.7,0.3C408.6,528.9,407.1,527,408.8,524.7z"/>
		<path class="st0" d="M203.4,532.8c2.5,4.1-1.7,5.5-0.6,7.9c-0.6-0.3-1.4-0.4-1.6-0.9C199.7,537,203.2,536.3,203.4,532.8z"/>
		<path class="st0" d="M111,437.4c1.1-5,2.9-5.4,7-1.9C115.3,435.1,113,435,111,437.4z"/>
		<path class="st0" d="M192.2,429.8c-1-2.6,0.3-4.1,2.3-5.3c0.2-0.1,1.1,0.3,1.1,0.5C196,427.7,193.9,428.6,192.2,429.8z"/>
		<path class="st0" d="M218.2,454.7c2.5-2.2,4.7-0.6,7.4,0.1C222.8,457.5,220.6,453.5,218.2,454.7z"/>
		<path class="st0" d="M432.3,461.5c-0.4,0.4-1.1,1.4-1.8,1.4c-1.5,0.1-2.1-1.3-2.3-2.6c-0.2-1.7,1.3-0.9,2-1
			C431.4,459.2,432.5,459.4,432.3,461.5z"/>
		<path class="st0" d="M489,500.9c5.1,4.4,5.1,4.4,1.1,7.9C491.6,505.7,490.5,503.8,489,500.9z"/>
		<path class="st0" d="M215.4,531.7c0.4,1.1-0.5,1.3-1.3,1.3c-1.2,0-2.2-0.9-2.2-2.1c0-0.2,0-0.3,0-0.5c0.1-0.7,0.6-1.9,0.8-1.8
			C214.6,528.6,214.6,530.5,215.4,531.7z"/>
		<path class="st0" d="M169.4,504.3l-5.1,6.9C163.2,506.8,165.6,505.7,169.4,504.3z"/>
		<path class="st0" d="M290.5,435.9c-0.7,1.7,1.5,4.1-1.2,5.2c-0.5,0.1-1-0.1-1.3-0.4C287,438.2,289.6,437.5,290.5,435.9z"/>
		<path class="st0" d="M256.1,499.3c-1.2,0.8-1.9,1.5-2.8,1.7c-1.4,0.3-1.5-0.8-1.5-1.9c0-1.2,0.5-2,1.8-1.7
			C254.4,497.7,255,498.5,256.1,499.3z"/>
		<path class="st0" d="M240.4,552.2c-1.2-1-4.6-0.8-3.4-3.4c1-2.3,2.4-2,2.6,0.8C239.8,550.5,240.1,551.3,240.4,552.2z"/>
		<path class="st0" d="M92.4,426.6c1.3-0.3,1.3,0.6,1.4,1.4c0.1,1,0.2,2.2-1.3,2.1c-0.8-0.1-2.1-0.8-2.3-1.4
			C89.9,427.2,91.8,427.4,92.4,426.6z"/>
		<path class="st0" d="M425.6,381.6c0.6,0.7,1.1,1.5,1.4,2.4c0.3,1-0.6,1.4-1.5,1.2c-1.2-0.1-2.1-1.1-2-2.3c0,0,0,0,0,0
			C423.6,381.9,424.2,381.4,425.6,381.6z"/>
		<path class="st0" d="M290.6,386.6c-0.4,0.9,0.6,2.6-1.3,2.4c-0.6-0.1-1.5-1.4-1.5-2.1c0.1-0.9,0.7-1.7,1.5-2.2
			C290.9,384.2,290.4,385.7,290.6,386.6z"/>
		<path class="st0" d="M212,515.4c2.1,0.2,3,2,3.1,4.5L212,515.4z"/>
		<path class="st0" d="M212.3,508.2c-0.7,2.4-1.4,4.2-3.3,4.1c-0.5,0-1.1-1.1-1.6-1.6L212.3,508.2z"/>
		<path class="st0" d="M393.3,524.3c1.5-0.2,2.1,0.3,2.1,1.3c0,1.2-0.6,2.4-1.9,2.3c-0.8-0.3-1.4-1-1.6-1.9
			C391.9,525.3,392.9,524.7,393.3,524.3z"/>
		<path class="st0" d="M144.5,398.9c-0.8,0.6-0.5,2.5-2.1,2.1c-0.6-0.2-1.3-1.4-1.4-2.2c-0.1-1.4,1.2-1.3,2.1-1.2
			S144.9,397.6,144.5,398.9z"/>
		<path class="st0" d="M211.2,555.2c1.1-1.9-0.7-4.3,2.1-5c0.6,0.1,1.1,0.4,1.3,0.9C214.8,553.2,213.4,554.2,211.2,555.2z"/>
		<path class="st0" d="M358.6,583c-2.3-3,2.2-5.5-0.3-8C359.7,577.5,359.7,579.9,358.6,583z"/>
		<path class="st0" d="M232.3,454.8l-4.9,6.2C227.6,457.1,229.9,455.9,232.3,454.8z"/>
		<path class="st0" d="M201.8,431.1c-0.4,3.2-1.8,4.4-3.7,5.1c-0.3,0.1-0.7-0.4-1.1-0.6L201.8,431.1z"/>
		<path class="st0" d="M271.1,399.1c-1,0.9-1.6,1.8-2.4,2c-0.5,0.1-1.5-0.7-1.8-1.3c-0.3-0.8,0.1-1.7,0.9-2c0.1-0.1,0.3-0.1,0.5-0.1
			C269,397.5,269.9,398.4,271.1,399.1z"/>
		<path class="st0" d="M390.5,458.8c-0.5,0.5,0.8,2.4-1.3,1.6c-1-0.4-1.9-0.9-1.5-2"/>
		<path class="st0" d="M367.4,552.6c-2.5-1.6-4.1-2.5-3.5-4.7c0.3-0.3,0.7-0.5,1.2-0.4C367.1,548.4,366.3,550.3,367.4,552.6z"/>
		<path class="st0" d="M274.2,569.3c1.4,0.1,1.3,1.2,1.3,2.2c0.1,0.7-0.4,1.4-1.1,1.5c-0.1,0-0.3,0-0.4,0c-1.5-0.1-1.3-1.2-1.3-2.2
			S273.1,569.2,274.2,569.3z"/>
		<path class="st0" d="M123.8,399.3c-0.2,1.2-0.4,2.1-1.5,1.5c-0.8-0.5-1.5-1-2.1-1.6c0.7-0.6,1.4-1.6,2-1.6
			S123.3,398.8,123.8,399.3z"/>
		<path class="st0" d="M209.6,452.1c0,1,0,2-1.4,2c-1,0-1.7-0.5-1.4-1.4c0.2-0.9,0.8-1.7,1.6-2.1
			C209.5,450.2,209.6,451.3,209.6,452.1z"/>
		<path class="st0" d="M497.2,393.5l-7,1.7C492,394,493.5,391.6,497.2,393.5z"/>
		<path class="st0" d="M247.7,530.9l3.1-3.5c1.2,1.3,2.3,2.4-0.6,2.9c-0.7,0.1-1.2,0.8-1.9,1.3L247.7,530.9z"/>
		<path class="st0" d="M206,507.3c-1.1,2.5-2.1,4-4.8,3.5C202.2,509.2,203.1,507.6,206,507.3z"/>
		<path class="st0" d="M233.8,425.5c0-1,0-2,1.4-2c1,0,1.7,0.5,1.4,1.5c-0.2,0.9-0.8,1.6-1.6,2.1C234,427.4,233.9,426.3,233.8,425.5
			z"/>
		<path class="st0" d="M268.9,407.2c1.3,0.5,3.3-0.6,3.6,1.5c0.2,0.6-0.1,1.3-0.8,1.5c-0.2,0-0.3,0.1-0.5,0.1
			C269.1,410.4,269.9,408.1,268.9,407.2z"/>
		<path class="st0" d="M493,409.2l-4.4,5.4C487.7,410.3,490.4,410.4,493,409.2z"/>
		<path class="st0" d="M149.7,394.5c4,1.8,4.8,3.4,5,7.1L149.7,394.5z"/>
		<path class="st0" d="M395.1,539.9v6.6C392.4,543.9,394.5,542.1,395.1,539.9z"/>
		<path class="st0" d="M229.7,514.2c-1.6-0.1-3.1-0.5-2.6-2.6c0.1-0.5,1.1-1.2,1.5-1.1C230.6,511.1,229.3,512.9,229.7,514.2
			L229.7,514.2z"/>
		<path class="st0" d="M229.6,514.2l7-2c-3.5,2.3-4.3,6.3-6.9,2L229.6,514.2z"/>
		<path class="st0" d="M461.8,388.1c-2.2-3.3-4.4-3.6-4.2-6.1C459.6,382.7,460.7,383.9,461.8,388.1z"/>
		<path class="st0" d="M270,523.4c-1.6-1.5-2.5-2.8-2.1-4.8C269.9,519.6,271.2,520.7,270,523.4z"/>
		<path class="st0" d="M534.6,384l-2.3,2.6c-0.3-0.5-0.9-1.1-0.9-1.6C531.5,382.6,533.3,384.1,534.6,384z"/>
		<path class="st0" d="M250.3,462.7c-1.4-1.5-3.6-0.9-3.1-3.1c0.1-0.5,1.1-1.2,1.4-1.1C250.2,459.2,249.6,460.8,250.3,462.7z"/>
		<path class="st0" d="M396.3,554.9c-1.9-1.1-3.1-2.2-2.3-4.9C395.6,551.2,396.6,552.4,396.3,554.9z"/>
		<path class="st0" d="M290.6,505.7c0.9,1.2,1.7,1.8,1.7,2.4c-0.1,0.8-0.7,1.4-1.4,1.7c-1.2,0.3-1.2-0.8-1.1-1.6
			C290,507.3,290.2,506.5,290.6,505.7z"/>
		<path class="st0" d="M380.9,570c-1.1,2.1-1,3.9-2.9,4c-0.4,0-1.3-0.7-1.2-1C377,571.2,378.8,571.2,380.9,570z"/>
		<path class="st0" d="M179.6,508.9c0.1,1.4-0.2,2.3-1.2,2c-0.7-0.3-1.2-1-1.4-1.7c-0.2-0.7-0.2-1.9,0.9-1.7
			C178.6,507.6,179.2,508.6,179.6,508.9z"/>
		<path class="st0" d="M421.3,458.5c-0.3,1.7-0.9,2.5-2.2,2.6c-0.4,0-1.3,0.3-1-0.9s0.9-2,2.1-2.1
			C420.7,458.1,421,458.2,421.3,458.5z"/>
		<path class="st0" d="M240,509.3l-1.2,1.6c-0.7-0.6-1.6-1-1.9-1.8s-0.2-1.9,0.9-1.7C238.6,507.6,239.2,508.6,240,509.3z"/>
		<path class="st0" d="M186.9,534.4c-0.2-0.3-0.9-1.2-0.8-1.8s1-1.5,1.5-2.3c0.4,0.4,1,0.8,1.1,1.3
			C188.7,532.4,189.2,533.6,186.9,534.4z"/>
		<path class="st0" d="M224,550.5c-0.6-0.8-1.2-1.3-1.1-1.6c0.2-0.9,0.6-1.7,1.3-2.3c1-0.7,1.5,0.3,1.4,1.1
			C225.1,548.7,224.6,549.6,224,550.5z"/>
		<path class="st0" d="M431.4,434.3c0.1-2.8,1.9-1.9,3.4-1.7c0,1.9-1.8,1.6-2.7,2.3C431.8,434.6,431.6,434.4,431.4,434.3z"/>
		<path class="st0" d="M431.4,434.3c0.2,0.2,0.5,0.3,0.7,0.6"/>
	</g>
</g>
<g id="Layer_2">
	<line class="st1" x1="457.5" y1="562.8" x2="411.8" y2="488.1"/>
	<text transform="matrix(1 0 0 1 41.707 509.55)" class="st0 st2 st3">4</text>
	<text transform="matrix(1 0 0 1 164.0263 614.9617)" class="st0 st2 st3">2</text>
	<text transform="matrix(1 0 0 1 471.0851 591.05)" class="st0 st2 st3">3</text>
	<text transform="matrix(1 0 0 1 552.2616 446.3074)" class="st0 st2 st3">1</text>
	<line class="st1" x1="542.2" y1="428.3" x2="338.6" y2="449.2"/>
	<line class="st1" x1="214.9" y1="390.7" x2="84.5" y2="481.7"/>
	<line class="st1" x1="333" y1="574" x2="208.7" y2="598.8"/>
</g>
</svg>
