<?xml version="1.0" encoding="utf-8"?>
<!-- Generator: Adobe Illustrator 24.1.1, SVG Export Plug-In . SVG Version: 6.00 Build 0)  -->
<svg version="1.1" xmlns="http://www.w3.org/2000/svg" xmlns:xlink="http://www.w3.org/1999/xlink" x="0px" y="0px"
	 viewBox="0 0 865.5 1481.7" style="enable-background:new 0 0 865.5 1481.7;" xml:space="preserve">
<style type="text/css">
	.st0{fill:#F2943D;}
	.st1{fill:#F2953D;}
	.st2{font-family:'Verdana';}
	.st3{font-size:72px;}
	.st4{font-size:36px;}
	.st5{font-size:48.4013px;}
	.st6{fill:none;stroke:#F2943D;stroke-width:6;stroke-miterlimit:10;}
	.st7{fill:none;stroke:#F2943D;stroke-width:6;stroke-miterlimit:10;stroke-dasharray:11.7273,11.7273;}
	.st8{fill:none;stroke:#F2943D;stroke-width:6;stroke-miterlimit:10;stroke-dasharray:12.2799,12.2799;}
</style>
<g id="Layer_1">
	<g id="Layer_2_1_">
		<g id="Layer_1-2">
			<path class="st0" d="M310.9,531.3c10.1-3.2,20.3-5.9,30.7-8l13.6-2c6.8-2.3,13.9-0.9,20.9-2.3c8.7-1.8,18.1,0.1,27.2,0.6
				c13.4,0.8,26.7,2.7,39.8,5.8c21.2,5,41,12.8,58.2,26.7c12.1,9.7,19,22,20.3,37.1c0.7,7.2-0.7,14.5-0.6,21.8
				c0.2,22.1,1.4,44.2,0.7,66.3c-1,31.1-0.5,62.2-0.7,93.3c-0.1,12.1,1.3,24.3,0.7,36.4c-1.2,26.3-0.7,52.5-0.7,78.8
				c0,11.3,1,22.5,0.8,33.8s0.4,22.4-3.7,33.1c-6.3,16.5-19.4,26.4-34.2,34.3c-18.2,9.8-37.9,15.5-58.2,18.7c-6.5,1-13.3,1-19.8,2
				l-11.7,0.4c-12.3,1-24.6,0.4-36.7-2l-21.1-3.2c-24.7-5.5-48.6-13.1-67.7-31.4c-8.6-8.3-14-18.1-14.1-29.4
				c-0.3-20.5-0.6-40.9,0.2-61.4c0.9-22.2,1.4-44.5-0.5-66.8c-0.5-6-0.1-12-0.1-18c0-27.5,0.8-55-0.2-82.4
				c-1.3-36.6,0.1-73.2-1.2-109.7c-0.4-11.9,0-22.9,5.8-33.5c7.3-13.2,18.1-22.5,31.4-29.1L310.9,531.3z M400.7,1000.6
				c4.9-0.4,16.3-1.3,19.7-1.8c8.6-1.2,17.4-1.9,25.5-4.6c16.6-5.6,33.4-11.1,47.6-22.2c9-7.1,17.5-15.1,19.1-26.6
				c2.7-18.8,2.7-37.8,1.6-56.8c-1.3-22-0.2-44.1-1.1-66.2c-0.6-14.7,0.9-29.5,0.8-44.3c-0.1-21.8,0.7-43.5-0.8-65.2
				c-1.4-20.5,1.9-41.1,0.9-58.5h0.1c0-11.8,0.1-20.4-0.1-29.1c-0.1-2.6,1.6-6.5-1.1-7.7c-2.9-1.3-3.6,3.1-5.4,4.8
				c-15.9,15.7-36.3,26.2-58.4,30c-18.7,3.4-37.5,6.4-56.5,6.8c-11.9,0.2-23.8-0.5-35.6-2c-18-2.2-36.2-2.9-52.9-11.1l-15.7-8
				c-10-4.8-18.8-11.4-25.1-20.8c-0.5-0.8-1.4-1.9-2-1.8c-1.6,0.2-1,1.8-1,2.9c0.3,8.8,1,17.5,1,26.3c-0.3,35.6,0.9,71.1-0.9,106.7
				c-0.5,9.6,0.9,19.2,0.9,28.8c-0.1,18.3,0.2,36.5-0.7,54.8c-1,19-0.2,38.2,0.7,57.2c0.8,13.3,0.8,26.6-0.1,39.9
				c-1.5,20.5,9.5,33.7,24.8,43.9c17.7,11.8,37.9,17.7,58.6,21.8l11.7,1.5c11.8,1.7,23.7,1.7,35.6,1.9L400.7,1000.6z M355.3,652.2
				c8.4,0.3,16.9,1,25.3,1c11.3,0,22.5-1,33.8-0.8c10.7,0.2,20.9-2.4,30.8-5.2c19.5-5.5,37.9-13.1,53.7-27
				c17.2-15.1,18.5-40.7,3.4-56.7c-10.4-11-23.5-17.1-37.1-23.2c-19.3-8.7-39.6-12.1-60.2-13.6c-16-1.1-32.2,0.3-48.3,0.7l-16.4,3.2
				c-12.5,2.5-24.7,5.9-36.3,11.5l-16.2,8.1c-10.6,7.1-19.8,15.3-24.6,27c-7.9,19.1,6.8,48.2,26.5,54l16.9,8.6
				c8,2.3,15.7,5.5,23.6,7.7L355.3,652.2z M338.3,620.5c-9.6-3.7-18.1-9.6-23.3-19.2l-2.6-14.6c0.1-3.6,2-7.4,4.3-10.8
				c6.1-8.9,15.2-13.4,24.5-17.5l14.1-4.4c10.5-3.6,21.2-4.2,32.3-3.7c19-1.3,38,3,54.7,12.2c9.1,5,17.6,11.3,19.5,22.6
				c2.3,13.4-4.5,22.9-14.7,29.7c-15.9,10.6-34.1,14.4-53,15.3c-11.3,0.5-22.4-1-33.6-1.9L338.3,620.5z M352.8,620.3
				c9.4,4,19.5,4.6,29.4,4.8c19.9,0.3,39.7-1.7,57.6-11.9c15.9-9.1,26.4-26,5.7-42c-9.6-7.5-20.8-11.2-32.2-13.6
				c-17.5-3.7-35.3-3.1-53-0.1l-21.6,7.7c-2.7,2-6,3.2-8.9,5.1c-9.4,6.2-14.5,18.5-11.2,25.8c4.7,10.4,13.2,16.2,23.3,20.5
				L352.8,620.3z"/>
			<path class="st0" d="M505.3,1200.8c-20.8,0-41-5-61.6-6.9c-5.6-0.5-11.9,0.6-13.6,7c-1.9,6.9,2.9,11.3,8.7,13.8
				c15.4,6.7,32,9.6,48.1,14.2c13.7,4,27.8,7.1,38.5,17.9c4.7,4.7,5.7,10.2,3.1,15.8c-2.3,4.9-6.7,7.7-12.6,8.2
				c-18.2,1.4-34.3-5.6-50.8-11.8c-8.7-3.3-16.7-8.1-25.4-11.4c-4.6-1.7-9-1.5-11.9,2.6c-3.2,4.5,0.2,8,3.1,11.2
				c9.1,9.7,21.5,14.2,32.4,21.2c7.1,4.6,14.9,8.1,22.3,12.2c7.1,4,11.1,13.7,8.4,20.1c-3.1,7.4-14.1,11-23.6,8.1
				c-10.6-3.3-20.3-8.8-30.3-13.5c-3.4-1.6-5.9-1.1-7.8,2.2c-2.8,4.8-5.5,9.5-5.6,15.4c-0.2,17.4,0.4,35-1.2,52.3
				c-2.3,24.5-11.6,45.6-37.5,53.4c-22.8,6.9-51.5-0.4-63-26.9c-4.4-10.2-6.5-21.3-6.2-32.4c0.2-15.2-0.2-30.5-1.1-45.7
				c-0.3-5.2-2.5-10.5-4.8-15.2c-2.6-5.2-8.8-5-14.6-0.6c-9.9,7.4-21,11.8-33.6,11.9c-9.2,0-15-9.7-12-18.5
				c2.7-8,9.5-10.4,15.5-14.5c13.9-9.5,29.8-15.8,42.6-26.9c4.1-3.5,9.4-6.8,6.2-13.2c-2.5-5-9.4-4.5-16.3-1.4
				c-22,9.8-43.2,22.4-68.5,21.5c-7-0.2-12.6-2.9-13.8-10.5c-1.2-7,0.9-12.8,7.4-16.8c18.6-11.5,39.5-16.6,60.4-21.7
				c7.5-1.9,15.3-3.2,22-7.9c4.6-3.2,8.1-7.3,6.6-13c-1.4-5.5-6.7-6.5-11.7-7c-10.4-1.1-20,3.5-30.1,4c-11.4,0.5-22.6,2.8-34.2,2.4
				c-10.5-0.3-21,1.2-31.3-1.5c-6.9-1.8-12.4-5.8-15.1-12.3c-2.5-6,1.8-10.3,6.3-13.2c10.3-6.6,22.2-8.4,34.1-9.3
				c22.5-1.8,45.2-2.3,66.6-11c10.6-4.3,19.9-10.3,22.2-22.2c1.2-6.5,0.6-13.6-0.6-20.2s-0.4-13.2-0.8-19.8
				c-0.2-2.7,1.1-4.6,3.9-4.8c3.3-0.2,3.1,2.2,3.1,4.4c0,13,0.6,26-0.1,39c-0.7,14.1-10.8,21.8-22.4,27
				c-16.9,7.6-35.1,9.6-53.4,11.5c-12.2,1.3-24.7,0.6-36.7,3.9c-4.1,1-8.1,2.5-11.9,4.3c-3.2,1.6-5.3,4.6-4.4,8.6
				c1.1,4.6,5.1,6.5,8.7,7.9c4.7,1.8,9.8,2,15,2.3c25.1,1.2,49.8-1.8,74.4-5.9c6.3-1,13-1.1,19,3.3c7.6,5.6,7.6,15.8,0.7,22.2
				c-7.8,7.2-17.4,9.8-26.8,11.9c-14.9,3.4-29.6,7.7-44,12.8c-6,2.1-12.5,4.7-17.6,9.5c-3.4,3.1-4.6,8-3,12.3
				c1.4,3.9,5.8,4.7,10,4.8c15.5,0.7,28.8-6.7,42.7-11.8c8.2-3,15.9-7.5,23.9-11.3s19.2-0.4,22.1,6.7c2.9,6.9-1.4,11.9-5.6,16.1
				c-9.2,9.3-21.2,14.7-32.4,21.2c-7.4,4.3-15,8.5-22.4,12.8c-6.4,3.7-7.6,9.6-4.8,15.6c3.1,6.5,9.5,4.8,14.7,3.2
				c8.7-2.8,17-6.7,24.7-11.6c11.2-7.1,21.1-3,23.5,10.2c3.5,19.3,3.1,38.8,2.9,58.3c0,4.4,1.3,5.9,5.7,5.6c9-0.6,15.4,3.3,20.3,11
				c3.3,5.4,9,8.8,15.3,9.1c14.2,1,25.8-1.8,32.3-16.1c0.6-1.3,2.4-2.2,3.9-2.9c2.6-1.3,5.3-2.5,8.4-2.3c10.5,0.4,11-0.2,11.2-11.3
				c0.3-14.8-1.1-29.6,0.9-44.3c0.7-5.7,2.8-11.1,6.1-15.8c4.6-6.4,10.2-6.9,17.2-2.9c9.3,5.3,18.6,10.8,29.4,12.8
				c5.3,1,10.5,1.4,13.3-4.1c3-5.8,0.3-10.5-4.5-14.1c-9.1-6.8-20.1-10-29.5-16.2c-9-6-19.1-10.2-26.7-18.2
				c-4.9-5.2-8.6-10.4-4.3-17.8s11.5-7.3,17.8-5.2c10.9,3.7,21.1,9.5,31.9,13.5c13,4.8,25.8,10.3,40.2,9.9c5.1-0.1,9.1-1.8,10.7-6.3
				c1.8-4.7-1.1-8.7-5-11.4c-11.8-8.4-25.7-11.4-39.3-15.6c-14.6-4.4-30.1-5.9-43.9-13c-4.5-2.3-8.3-5.6-10.4-10.1
				c-4.4-9.5,3.3-20,14.1-20.7c12.2-0.8,23.7,3.3,35.6,4.4c21.7,2,43.6,5.2,65.3-0.4c4.4-1.1,9.1-3.5,9.5-8.7c0.5-5.2-4.1-7-8-8.9
				c-9.8-4.8-20.5-5.7-31-6.2c-23.2-1.1-45.9-3.6-68.1-11c-17.9-6-29.5-26-25.2-45.6c1.5-7.1,0.2-14.3,0.8-21.3
				c0.1-1.7-1.8-4.9,1.9-5c3.3-0.1,3.9,2.8,3.9,5.2c0.2,7,0.1,14,0.1,21c0,6.3-1.5,13.1,0,19c4.5,16.5,19,21.4,33.3,25.6
				c18.7,5.4,38.1,6.3,57.5,7.2c13,0.7,26.4,1.9,36.7,11.3c6.4,5.8,5,13.5-1.9,18.7c-10.1,7.5-21.6,6.8-33.1,6.9L505.3,1200.8z
				 M369.3,1429.9c3.4-0.4,6.8-1.3,10.3-1.2c19.6,0.5,36.5-21.4,38.4-38.3c0.2-1.8,0.2-3.4-2-4.4c-6-2.6-13-0.8-15.8,5.2
				c-7.9,17.2-35.8,18.8-47,11.1c-4.1-2.8-7.5-6.5-10.1-10.7c-3.1-4.8-12.1-8.4-15.4-5.6c-4,3.4-0.7,7.5,0.5,11.3
				C334.2,1417.7,351.1,1429.6,369.3,1429.9z"/>
			<path class="st0" d="M357.3,400.6c-10.9-1-22-2.6-31.8-9c-3.3-2.1-5.9-1.5-8.1,2c-6.5,10.3-13.1,20.6-19.9,30.8
				c-2,2.9-4.1,7.5-8.9,4.7c-5.2-3-8.4-13.2-5.6-16.9c7.1-9.3,13.8-19.1,21.8-27.5c5.1-5.3,4.3-8.6,0.4-13.6
				c-10.8-14-14.6-29.5-11.5-47.3c2.7-15.6,8.6-30.5,17.3-43.7c8-12.2,19.6-20.5,31.9-27.9c23.2-14,48.4-23,74.5-28.9
				c15.8-3.6,32-6.9,48.4-7.7c5.3-0.2,10.6-1.8,15.7-3.3c4.2-1.3,5.7,1,5.1,4c-5.3,24-2.9,48.4-4,72.6c-0.9,23-9.4,45.1-24.1,62.8
				c-18.1,22.2-41,36-67.9,43.8C379.9,398.5,368.9,399.8,357.3,400.6z M356,395.5c3.2,0.8,5.9-1,8.9-1.1c16.6-0.4,32-5.8,47-12.4
				c20-8.9,35.3-23.4,47.9-41c8.8-12.3,14.3-26.6,16-41.6c2.6-22.7-0.2-45.7,3.1-68.4c0.6-4,2.1-9.5,0.2-11.7
				c-2.6-3.1-7.5,0.8-11.5,1.2c-30.4,3.4-60.3,8.7-88.9,20.1c-15.6,6.1-30.6,13.5-44,23.2c-18.8,13.6-29.1,32.9-33.7,55.8
				c-4.2,20.9-1.4,39.4,14.6,54.7c1.8,1.7,2.5,3.5,0.7,5.6c-5.9,6.9-11.9,13.8-17.7,20.8c-3.9,4.8-8.5,9.2-10.2,15.4
				c-0.6,2.3-0.1,4.7,2.4,6c2.6,1.3,3.1-1.5,3.9-2.6c5.6-8.4,11.3-16.8,16.5-25.5c6-10.1,9.7-12.2,16.2-7.4
				C335.7,392.8,346,393.5,356,395.5z"/>
			<path class="st0" d="M388.7,357.7c-6.4-1.4-12.8-2.7-19.2-4.2c-1.6-0.4-3.6-1.5-3-3.2s2.4-0.8,3.8-0.2c0.7,0.4,1.6,0.5,2.4,0.2
				c4-1.9,7.7-5.6,11.3,0.9c1,1.7,2.8-1.7,4.4-1.7c5.1-0.1,10.3,0,15.4,0.4c1.1,0.1,1.7,1,2.9-0.2c0.7-0.7,1.9-0.7,2.6,0.1
				c0.2,0.3,0.4,0.6,0.5,0.9c0.4,1.6-0.1,3.4-1.8,3.5C401.4,354.5,395.4,358,388.7,357.7z"/>
			<path class="st0" d="M439.7,314.8c-0.3,0.4-0.6,0.8-0.9,1.2c-1.9,2.7-12.8,5.7-16.2,5.3c-1.4-0.2-3.1,2.8-4.7,2.9
				c-7.7,0.3-15.4,0.2-23.1,0c-1.3,0-3.8-0.8-3.6-2.7c0.2-1.9,2.5-0.8,3.8-1c8.7-1.8,17.5-0.3,26.4-2.2c5.6-1.2,11.1-1.4,16.2-4.5
				C438.3,313.2,439.6,313.2,439.7,314.8z"/>
			<path class="st0" d="M390.3,369.3c-7.6,3.1-16.2,2-24.6,2c-4.3,0-8.5-0.6-12.8-0.9c-1.8-0.1-3-1-2.6-2.8s2.1-1.3,3.3-1
				c7.2,1.8,14.1,0.4,20.9-2c1.9-0.7,1.2,2.5,3.6,2c4.1-1,8.5,0.7,12.8-0.9c1-0.4,2.5-0.7,3,0.8c0.2,0.9,0.2,1.9-0.3,2.8
				C393,370.1,392.1,370.7,390.3,369.3z"/>
			<path class="st0" d="M442.3,290.7c-0.8,5-6.3,2.9-7.6,4.4c-3.1,3.7-6.8,4.4-10.7,4.7c-5.4,0.5-10.8,0.4-16.3,0.6
				c-1.3,0-2.4-0.5-2.5-1.8c-0.1-2,2-2.7,3-2.7c5.8,0.3,10.9-2.6,16.8-2.7C430.6,293.2,436.6,293.4,442.3,290.7z"/>
			<path class="st0" d="M430.1,281.2c-1.5-0.6-5.2,1.8-5.8-1.1c-0.7-3.3,3.1-4.8,5.8-4.6c6.4,0.4,10-7.8,17-5.1
				c0.9,0.3,2.2,0.3,2.5,0.9c0.8,1.4-1,1.7-1.5,2.6C444.2,280.8,437.9,281.9,430.1,281.2z"/>
			<path class="st0" d="M347,330.6c1.9-3.5-1.4-8.6,4.1-10.4c0.7-0.3,1.4-0.5,2.2-0.6c0.2,0,0.7,1.5,0.6,1.6
				c-4.7,3.4-0.2,6.7,0.5,9.5c1.5,5.8-0.3,11.1-0.6,16.5c0,0.6-1.2,1.5-2,1.8c-0.3,0.1-1.5-0.9-1.6-1.5
				C349.1,341.9,348.1,336.1,347,330.6z"/>
			<path class="st0" d="M329,342.4c1.7,1.8,4.7,2.4,4.5,6.3c-0.2,3.6-1.2,7.5,1.2,11c1.3,1.9-0.3,3.2-1.6,4.1
				c-2.1,1.4-3.4-0.9-3.7-2c-1.3-5.3-2.3-10.8-3.1-16.2c-0.2-1.6,0.9-3,2.5-3.2C328.8,342.4,328.9,342.4,329,342.4z"/>
			<path class="st0" d="M379.8,293.4c-0.3,6.6-0.5,12.5-0.9,18.5c-0.1,1.2,0.8,3-1.1,3.3s-2.9-2-2.6-2.9c1.6-4.1-5-7.9-0.5-12.1
				c0.2-0.2-1.1-2.7-2.2-3.4s-2-1.5-1.2-2.6c0.8-1.1,1.8-1.9,3.3-0.1C375.6,295.3,377.6,294,379.8,293.4z"/>
			<path class="st0" d="M310.9,353.6c10.2,2.4,8.2,11.4,11.1,17.5c0.4,0.7,0.1,1.6-0.6,2c-0.2,0.1-0.4,0.2-0.6,0.2
				c-1,0.1-1.6-0.4-1.6-1.4c0.2-3.7-8.4-5.4-2.4-10.7C316.8,361,313.2,356.5,310.9,353.6z"/>
			<path class="st0" d="M362,382.1c2.4,1.8,7.5-2.3,7.5,2.5c0,3.7-4.9,0.9-7.4,1.8c-0.2,0.1-0.3,0.1-0.5,0c-2.3-1.4-7.3,4-7.3-1.8
				C354.4,379.7,359.6,383.8,362,382.1z"/>
			<path class="st0" d="M408.9,272.4c-1.1,0-2.1-0.3-1.9-1.6c0.5-2.7,1.1-5.3,2-7.9c0.7-2,1.9-5,4.6-3.2c1.8,1.1-1,2.6-1.4,4.1
				c-0.5,1.7-0.1,3.6-0.5,5.4C411.5,270.6,411.2,272.6,408.9,272.4z"/>
			<path class="st0" d="M448.5,243.9c-2,4.4-4.8,8.4-8.3,11.7c-0.8,0.8-1.7,2.4-2.7,1.4c-1-1.1-0.9-2.8,0.2-3.8
				c0.1-0.1,0.2-0.1,0.3-0.2C440.8,250.5,443.7,248,448.5,243.9z"/>
			<path class="st0" d="M392.2,273.6c2.1-0.1,2.5,1.5,3.2,2.8c1.4,2.8-0.8,4.6-2,6.6c-0.5,0.9-1.8,0.5-2.6-0.3
				c-1.7-1.9-0.3-2.7,1.1-3.8c1-0.8,1.4-1.6-0.2-2.6C390.3,275.4,390.6,274.1,392.2,273.6z"/>
			<path class="st0" d="M430,250.7c-1.2,4-4.4,6.6-4.6,10.5c0,0.4-1,0.7-1.5,1c-0.3-0.5-1-1.1-0.8-1.5
				C424.4,257,423,251.5,430,250.7z"/>
			<path class="st0" d="M392.6,290.4c-0.8-0.9-2-1.7-2.4-2.8s0.8-2.1,2.1-2.1c1.2-0.2,2.4,0.6,2.6,1.8c0,0.2,0,0.3,0,0.5
				C395,289.2,394.2,290,392.6,290.4z"/>
			<path class="st0" d="M415.8,349.7c-0.1,1.5-0.8,1.7-1.7,1.6c-1.2-0.1-2.1-1-2-2.2c0,0,0,0,0,0c0-0.5,0.6-0.9,0.9-1.4L415.8,349.7
				z"/>
		</g>
	</g>
	<text transform="matrix(1 0 0 1 634.8843 1304.0071)" class="st1 st2 st3">H O</text>
	<text transform="matrix(1 0 0 1 689.376 1317.4188)" class="st1 st2 st4">2</text>
	<text transform="matrix(1 0 0 1 521.8782 1412.5013)"><tspan x="0" y="0" class="st1 st2 st5">минеральные</tspan><tspan x="0" y="58.1" class="st1 st2 st5">вещества</tspan></text>
	<text transform="matrix(1 0 0 1 590.6476 332.9268)" class="st1 st2 st3">CO</text>
	<text transform="matrix(1 0 0 1 695.9629 351.8094)" class="st1 st2 st4">2</text>
	<g>
		<g>
			<line class="st6" x1="348.8" y1="1012.3" x2="348.8" y2="1148.8"/>
			<g>
				<polygon class="st0" points="338.6,1136.9 348.8,1147 359,1136.9 359,1145.5 348.8,1155.7 338.6,1145.5 				"/>
			</g>
		</g>
	</g>
	<g>
		<g>
			<line class="st6" x1="294.9" y1="439.6" x2="294.9" y2="614.9"/>
			<g>
				<polygon class="st0" points="284.8,603 294.9,613.2 305.1,603 305.1,611.6 294.9,621.8 284.8,611.6 				"/>
			</g>
		</g>
	</g>
	<g>
		<g>
			<line class="st6" x1="398.8" y1="1155.7" x2="398.8" y2="1019.2"/>
			<g>
				<polygon class="st0" points="409,1031.1 398.8,1020.9 388.6,1031.1 388.6,1022.5 398.8,1012.3 409,1022.5 				"/>
			</g>
		</g>
	</g>
	<g>
		<g>
			<line class="st6" x1="341.8" y1="638.1" x2="341.8" y2="422.9"/>
			<g>
				<polygon class="st0" points="352,434.9 341.8,424.7 331.6,434.9 331.6,426.3 341.8,416.1 352,426.3 				"/>
			</g>
		</g>
	</g>
	<g>
		<g>
			<line class="st6" x1="341.8" y1="662.7" x2="341.8" y2="668.7"/>
			<polyline class="st7" points="341.8,680.4 341.8,717.3 398.8,789.2 396.6,983.1 			"/>
			<line class="st6" x1="396.5" y1="988.9" x2="396.5" y2="994.9"/>
		</g>
	</g>
	<g>
		<g>
			<line class="st6" x1="294.9" y1="646.7" x2="294.9" y2="652.7"/>
			<polyline class="st8" points="294.9,665 294.9,717.3 351.9,789.2 349.7,982.8 			"/>
			<line class="st6" x1="349.6" y1="988.9" x2="349.6" y2="994.9"/>
		</g>
	</g>
	<g>
		<g>
			<path class="st6" d="M508.6,1424.3c-17.1-2.2-30.8-13.2-38.1-25.7c-6.1-10.5-8.5-22-10.2-33.6"/>
			<g>
				<polygon class="st0" points="472.2,1375.4 460.6,1366.7 452,1378.3 450.8,1369.7 459.4,1358.2 470.9,1366.8 				"/>
			</g>
		</g>
	</g>
	<g>
		<g>
			<path class="st6" d="M621.8,1281.7c-17.7,2.3-36.3-2.6-50.5-13.4c-12.4-9.4-21.4-23.2-25.1-38.4"/>
			<g>
				<polygon class="st0" points="558.5,1239.7 546.5,1231.7 538.5,1243.7 536.8,1235.2 544.8,1223.2 556.8,1231.2 				"/>
			</g>
		</g>
	</g>
	<g>
		<g>
			<path class="st6" d="M564.2,317.5c-13.3,19.8-26.9,40.1-45.8,54.5c-17.1,13.1-39.7,20.8-60.5,16.3"/>
			<g>
				<polygon class="st0" points="472.1,381.6 459.6,388.7 466.7,401.2 458.4,398.9 451.2,386.4 463.7,379.3 				"/>
			</g>
		</g>
	</g>
</g>
<g id="Layer_2">
	<path class="st0" d="M17.5,179.4C0.4,200.2-16.7,221.1-33.6,242c-2.2,2.7-3.7,7.3-8,5c-3.4-1.9-1.7-5.6-0.4-8.8
		c9.7-22.9,19.3-45.8,28.9-68.7c1.7-3.8,2.5-8,3.7-12c-4.4-1.2-8,1.2-11.7,2.8c-23.8,10.4-49.2,17.4-72.5,29.4
		c-3,1.5-6.4,1.7-7.9-1.8c-1.5-3.5,1.5-4.4,3.9-6.2c20.1-15.3,40.1-30.7,60-46.3c1.8-1.4,5.2-3.1,3.8-5.7c-1.6-2.9-4.3,0.2-6.6,0.5
		c-24.8,2.8-50,3.2-74.5,8.4c-2.7,0.6-5.9,0.4-6.7-3.2c-0.8-3.6,2.2-4.7,4.7-5.8c23.6-9.8,47.3-19.6,70.9-29.3
		c2.4-1,6.2-0.9,5.9-4.5c-0.4-4.4-4.4-2-6.7-2.3c-19.2-3-38.6-5.4-57.7-9.1c-6.4-1.2-12.8,0.1-19-1.3c-2.6-0.6-7-1.3-6.3-5.1
		c0.5-2.9,3.5-4.5,7.1-4.5c29-0.2,56.9-9.9,85.9-10.1c1.2,0,3-0.6,3.4-1.5c1.2-3-1.3-4.6-3.1-6.1C-48.2,46.5-59.5,37.4-71,28.5
		c-11.4-9-23-17.8-34.5-26.7c-2-1.5-4.6-4-2.6-6.1c1.5-1.5,5.8-1.9,7.8-0.8C-87.1,2.2-72.6,6.3-58.7,12c11.8,4.9,23.7,9.8,39.3,16
		C-31.9,11.1-42.2-3.1-52.6-17c-6.1-8.1-12.6-15.9-18.6-24.2c-1.6-2.2-4.2-5.3-0.8-8.1c2.9-2.4,5.2,0.3,7.2,1.8
		c21,15.9,41.9,31.9,62.9,47.8c1.4,1.1,2.7,3.8,4.6,2c0.9-0.9,0.8-3.8,0.1-5.4c-9.2-23.9-18.5-47.7-28.1-71.5
		c-1.4-3.6-2.8-8.5-0.5-10.1c3.2-2.2,5.6,2.7,7.4,5C0.1-56.3,18.4-32.6,37.3-8.2c5.5-12.9,5.4-26.4,7.8-39.2
		c3.6-18.5,6-37.3,9.2-55.9c0.2-1.4,0.8-4.8,3.2-3.9c2.9,1.3,4.6,4.2,4.4,7.4c-0.1,7.3,2.7,14.2,3,21.1c0.7,17.4,5.8,34.1,7.3,51.4
		c0.5,2.7,1.2,5.3,2.2,7.8c3.2-1,3.4-4.1,4.4-6.5c9.7-22.7,19.3-45.2,29.1-67.8c0.9-2,1.4-5.6,4.7-4.9c3.6,0.7,3.2,4.2,2.9,6.9
		c-2.3,20.1-4.2,40.5-7.4,60.5c-1.2,7.7,0.9,15.5-0.8,24.2c9.4-11.7,18.6-23.6,28.4-34.9c8.4-9.6,14.5-20.7,21.6-31
		c1.3-1.9,3-5.6,6.5-3.6c4,2.3,1.3,5.4,0,7.9c-12.8,25.8-15.5,55.3-29.4,80.7c-0.5,0.9,0.2,2.5,0.3,3.9c1.3-0.3,2.5-0.7,3.7-1.2
		c23.9-13.2,50.3-20,75.2-30.6c3-1.3,6.7-2.5,8.4-0.1c2.2,3.2-1.6,5.2-4,7.1c-19.8,15.5-39.7,31.1-59.7,46.6c-1.4,1-3,1.5-2.5,3.6
		c0.7,2.8,3.1,2,4.8,1.8c25.7-2.9,51.3-5.9,76.9-9.2c3.2-0.4,5.7-0.9,6.5,2.4c0.8,3.4-1.8,4.1-4.7,5.3
		c-23.5,9.5-46.9,19.3-70.3,29.1c-2.5,1-6,2.2-5.5,5.2c0.2,1.1,4.7,1.8,7.3,2.2c26,4,52,8,78,11.9c2.1,0.3,4.2,1.5,3.5,3.6
		c-0.6,2.5-2.8,4.4-5.4,4.5c-23.8-0.2-46.7,6.5-70.3,8.4c-3.3,0.3-6.5,0.9-9.7,1.7c-3.7,0.9-9.6-2.5-10.8,2.3
		c-1.1,4.3,4.5,6.8,8,9.5c21.2,16.8,42.3,33.5,63.6,50.2c1.7,1.1,2.2,3.3,1.2,5c-1.5,2.8-4.7,2-6.7,1.2
		c-23.6-9.7-47.2-19.7-70.7-29.6c-1.1-0.5-2.9-1.5-3.4-1.1c-1.4,1.2-0.9,2.9,0,4.5c12.2,21.5,28,40.6,42.4,60.5
		c2.5,3.4,5.5,7.3,2.7,10.1c-3.3,3.4-6.7-1-9.6-3.4c-20.1-16.3-40.2-32.6-62.5-47.6c4.5,11.8,8.9,23.7,13.5,35.5
		c5.5,14,11.2,27.9,16.7,41.9c1.1,2.7,2.5,6.3-0.9,8c-3.4,1.7-4.9-1.1-7-3.9c-14.4-18.9-29.3-37.5-44-56.2c-0.5-0.6-1.1-1.1-1.7-1.5
		c-4-2.8-3.9-12.2-10.4-9.3c-5.4,2.4-3.1,10.2-3.8,15.8c-3.2,23.6-6.7,47.2-10.2,70.8c-0.3,2-1,5-4.5,5c-4,0-4.9-3.2-4.8-5.5
		c0.3-23.3-9.9-45.3-8.7-68.7c0.3-5.5-2.6-9.8-5.8-15.6c-6.8,29.1-22.8,52.8-31.8,79.3c-0.7,2-1.7,4-4.7,3.7c-4.2-0.5-3-3.6-2.8-5.7
		c2.4-23.3,5-46.5,7.4-69.7c0.5-4.4,0.6-8.8,0.9-13.3l1.2-2.5L17.5,179.4z M196,157.3l2.5,1.2l-1.3-2.4c-2.7-2.2-5.4-4.6-8.2-6.7
		c-12-9.4-24-18.8-36.1-28.2c-1.9-1.5-2.1-9.1-5.6-4c-3.5,5.1-12,14.3-4.4,18.3C159.7,144.3,177.2,152.7,196,157.3z M-45.7-23.3
		l-2.4-1.3l1.2,2.6C-35.1-5.7-24,11.2-11,26.6c5,6.1,8.9-3.2,12.8-6.1c3-2.2,5.9-6,1.9-8.8C-12.5-0.3-29.2-11.7-45.7-23.3z
		 M-7.1-53.4l-2.4-1.3l1.2,2.6C-1-32.8,5.4-13,14,5.8c3.4,7.1,9.1-1,13.7-2.4s5.8-5.3,3.4-8.4C18.6-21.4,5.7-37.3-7.1-53.4
		L-7.1-53.4z M131.4,223.5l2.4,1.3l-1.2-2.6c-7.2-19.3-14.5-38.6-21.7-57.8c-0.9-2.5-2.5-2.7-4.5-1.9c-4.3,1.7-8.4,3.6-12.7,5.4
		c-2.6,1.1-4.6,2.9-2.4,5.6C104.5,190.4,118.1,207,131.4,223.5L131.4,223.5z M61.9,165.5c49.1,1.2,79.8-36.1,81.9-73.8
		c3.1-53.8-36.5-88-79.1-88.4c-47.6-0.5-83.2,36-82.5,84.4C-17.3,128,13.7,166.2,61.9,165.5z M-94.5,79.2
		c21.1,3.6,42.1,7.4,63.3,10.8c3.4,0.6,4.6-2.3,4.7-5.5c0-3.3,0.3-6.6,1.1-9.8c1.3-4.8,0.1-6.7-5-6.4C-52.1,70-73.1,75.9-94.5,79.2z
		 M-70.5,169.6c4,1.8,6.4,0.3,9-0.8c15.4-6.1,30.8-12.3,46.3-18.1c3.4-1.3,8.5,0,8.5-5.5c-0.2-5.8-3.2-11.2-8-14.4
		c-3.7-2.7-7.7,0.6-10.7,4c-1.6,1.5-3.3,2.9-5.1,4L-70.5,169.6z M-78.1,11.5c0,1.3-0.4,2.1-0.1,2.3c16.6,13.4,33,26.9,49.9,40
		c2.6,2,5.9,3.1,9-2.4c5.8-10.6,5.8-15.1-7.6-19C-44.6,27.3-61,18.7-78.1,11.5z M-87,124.6c21.5,1.9,42.2-3.4,63.2-2.8
		c2.3,0,2.3-2,2.2-3.7c-0.4-5.4,0.4-11.9-4-15.3c-4-3.1-9.4-0.5-13.8,2.2c-2.9,1.5-6,2.7-9.1,3.7C-61.4,113.9-74.2,119.2-87,124.6z
		 M-22.8,217.1C-9,199.8,5,184.6,16.1,167.6c5.6-8.6-6.4-11.4-11.6-14.6c-6-3.7-4.7,4.1-5.9,6.7c-5.4,12.5-10.3,25.2-15.3,37.9
		C-18.9,203.3-24,208-22.8,217.1z M219.3,92.1c-17.3-2.4-35.1-2.8-51.6-7.7c-13.4-4-16,0.5-17,11.6c-0.5,5.4,0.6,9.2,6.9,7.5
		C177.9,98.3,198.8,98.2,219.3,92.1L219.3,92.1z M121.1,16.4c4.9,1.1,5.6-3.2,6.9-6.3c6.6-16.2,13.1-32.4,19.4-48.6
		c0.6-1.5,3.4-3.4,0.7-5c-2.7-1.7-3.5,1.1-4.8,2.8c-10.1,13-19.7,26.2-30.6,38.6c-3.3,3.7-5.3,8.2-2.9,10.3
		C113,11.1,114.6,17.4,121.1,16.4z M195.2,0c-2.9-0.3-3.8-0.6-4.5-0.3c-18.4,7.6-36.8,15.1-55.1,22.9c-2.7,1.2-4,4.3-3,7.1
		c4.2,13,10.3,14.3,19.7,4.5c1.6-1.6,3.3-3,5-4.4C169.5,20.2,181.8,10.6,195.2,0z M147.5,54.2c0.1,17.3,2.2,18.6,18.4,11.6
		c13.8-5.9,27.6-11.9,41.5-17.5c2.1-0.8,5.2-0.8,4.9-3.3c-0.5-3.6-4.2-2.1-6.2-1.8c-18.2,2.4-36.2,6.6-54.7,6.5
		C147.9,49.8,147.1,51.5,147.5,54.2L147.5,54.2z M55.9-65.5C54.1-55.3,52-45,50.4-34.7c-1.4,8.7-3.1,17.4-3.2,26.1
		C47,4.8,57.3-6.3,61.9-3.1c3.4,2.4,3.5-0.6,3.6-2.9C66.1-26.2,61.9-45.7,55.9-65.5z M21.8,234.6c2.6-4.3,3.6-5.6,4.2-7
		c6.5-14.5,10.8-30,20.5-43.2c2-2.7,2.1-10.9-0.7-11.3c-6-0.9-11-5.8-17.4-3.9c-0.9,0.6-1.4,1.5-1.5,2.5
		C27.7,191.8,22.5,211.4,21.8,234.6L21.8,234.6z M103.9-62.9l-1.7-0.4c-7.8,18.1-16.6,35.9-23,54.5c-3.6,10.3,8.4,6.9,13.2,9.6
		c4.4,2.5,4.2-2.3,5-5.6c2.2-8.2,1.8-16.8,3.9-25.1C104.1-40.4,103.3-51.8,103.9-62.9L103.9-62.9z M71.3,238.1
		c-0.6-22.3,7.1-40.6,7.2-59.8c0.1-14.2-10.2-1.3-15.4-4.2c-4.4-2.5-4.7,2.9-4.2,6.2c1.5,10.8,2.4,21.8,5.1,32.3
		C65.9,220,63.6,228.2,71.3,238.1z M169.1,194.6c-13.7-13.4-18.4-32.4-30.3-46.6c-1.8-2.2-2.6-7.8-6.7-5.6
		c-4.7,2.6-9.2,6.5-11.2,11.8c-1.4,3.8,1.8,5.8,4.7,7.8c5.6,3.9,10.7,8.7,16.6,12.1C152,179.9,156.7,192,169.1,194.6L169.1,194.6z"
		/>
</g>
</svg>
