<svg xmlns="http://www.w3.org/2000/svg" viewBox="0 0 385.35 615.02"><defs><style>.cls-1{fill:#f3943c;}</style></defs><g id="Layer_2" data-name="Layer 2"><g id="Layer_1-2" data-name="Layer 1"><path class="cls-1" d="M379.36,614.67c1.3-47.18,1.37-94.39.74-141.58-.18-13-.48-26.11-.21-39,.53-25.41.18-50.8.37-76.19.15-19.28-1.43-38.61-.66-57.85,1.47-36.22.34-72.43.68-108.65.14-15.58.29-31.24-1.16-46.72a209.44,209.44,0,0,0-6-33.16c-1.54-5.91-3-12-2.83-18.39.38-11.74-3.18-22.88-6-34.07-3.68-14.5-7.29-29-12.89-43-1.42-3.53-2.49-8.84-6.41-9s-4.69,5.08-6,8.5c-6.13,15.48-9.91,31.59-13.93,47.72-3.24,13-6,26-8.87,39.05q-4.16,18.87-7.51,37.91c-1.31,7.45,5.6,14.47,15.61,17.23,8.66,2.37,17.49,2.49,26.33,3,1.37.07,3.58-1.14,3.81,1.69.2,2.6-1.92,3.14-3.56,3.1-14-.41-28.37.18-40.32-9.36-1.28-1-2.73-2.91-3,.67-.64,8.7-2.13,17.47.08,26.07,2.08,8.06,8.32,12.31,15.82,14.72,8.54,2.75,17.43,2.9,26.3,3,2.16,0,4.79-.31,4.6,2.94s-3,3.33-5.18,3c-9.79-1.6-19.86-1.15-29.38-4.81a28.11,28.11,0,0,1-9.46-5.84c-.88-.83-1.89-1.76-3-.94-.57.43-.74,1.72-.72,2.6.27,8.76-.61,17.79,1.26,26.21,2,8.86,10.17,12.41,18.5,14.87,7.42,2.19,15,2,22.53,1.93,2.58,0,6,.36,6.07,2.87.12,3.37-3.5,1.92-5.54,2-11.42.7-22.55-.47-33.26-4.93-2.93-1.22-5.06-6.37-8.21-3.74-1.67,1.38-.58,6.31-.4,9.62.35,6.24-1.22,12.62.9,18.72,4,11.57,14.56,13.23,24.42,15.21,5.92,1.19,12.14.83,18.22,1.23,1.3.09,3.19-.74,3.31,1.76a2.85,2.85,0,0,1-3.17,3c-14.47-.65-29.41.38-41.48-10.16a15.82,15.82,0,0,0-2.41-1.47,8.87,8.87,0,0,0-.73,2.62c.26,9.09.29,18.21,1,27.26.46,5.59,5.17,8.43,9.51,11,9.89,6,21,5.84,32,5.86,2.35,0,5.92-.61,6,2.55,0,3.76-3.74,2.29-5.91,2.32-14,.15-27.91-.15-39.76-9.4-1.92-1.49-3.39-.18-2.78,2,1.66,5.9.71,11.87.79,17.79.19,13.39,9.44,22.94,23.09,23.65,6.61.35,13,3.36,19.87,1.16,1.73-.55,4.58.58,4.66,2.66.13,2.92-2.75,2.08-4.58,2.14-14.39.49-28.65.39-40.75-9.23-.93-.74-2.13-1-2.07.48.37,9.72-1.77,19.59,1.11,29.14,1.92,6.37,7.34,9.37,13.18,11.54a70.83,70.83,0,0,0,28.54,4.08c1.33-.07,3.5-1.17,3.92,1.58.47,3-2.34,2.89-3.56,2.95-14.23.78-28.17-.07-40.27-9-.89-.65-2.64-3.26-2.89,0-.77,9.94-1.88,20.17,1.09,29.75,2.4,7.71,10,10.77,17.33,12.5,8.33,2,16.77,4.18,25.54,2.24,1.69-.38,2.64,1,2.76,2.78.12,2-1.15,1.94-2.56,2.07-14.79,1.32-29-.27-41.61-8.85-1-.69-2-1.61-3.07-.84s-.08,2,0,3.09c.28,6.47.32,12.95.35,19.43.06,10.29,6,17.57,16,20.21a87.26,87.26,0,0,0,26.31,3c2.12-.09,4.7-.43,4.61,2.91-.11,3.55-3,1.9-4.53,1.94-12.51.3-25,.21-36.12-6.89-1-.62-1.8-1.42-2.74-2.06s-1.84-1.15-2.77-1.72a15.65,15.65,0,0,0-.69,3.17q-.07,12.79,0,25.59c.05,10.55,7.39,13.72,15.92,15.9a88,88,0,0,0,27.73,2.6c2-.13,2.77.09,3.15,1.72.57,2.41-.94,2.61-2.86,2.69-14,.57-28,1-40.34-7.65-1.76-1.23-3.7-1.53-3.72,2.18-.09,14.8-.65,29.58-.82,44.38-.16,13.06-.09,26.13,0,39.19a66,66,0,0,0,.95,7.76h-7q0-31.68,0-63.38,0-56.11,0-112.22,0-130.8-.05-261.59a292.89,292.89,0,0,1,5.68-57.82c5.31-26.79,11-53.48,17.58-80,2.25-9.11,4.71-18.3,9.51-26.46-2.26-1.78-5.23,2.78-6.62-.94C325.41,9,329.19,8.46,330.82,7c12.35-11.43,22.69-8.63,27.38,7.26.69,2.33,1.36,4.69,2.23,7,6.95,18.22,9.82,37.34,13,56.45,3,18.31,7,36.47,10.35,54.73a78.55,78.55,0,0,1,1.53,14.16q.1,234.08.06,468.15Z"/><path class="cls-1" d="M55.2,614.67c.53-13.56.27-27.14.74-40.73,1-28.77.58-57.61.18-86.42-.2-14.52-2-29,0-43.56.38-2.82-.9-5.83-.86-8.75.26-22.73,1.33-45.47.79-68.17-.47-19.7-.93-39.34-4.34-59.05-3.83-22.21-8.05-44.13-15.45-65.41-.8-2.32-1.64-4.82-4.57-5.28-3.11-.48-3.21,2.47-4,4.13-6.47,13.41-9.73,27.78-12.37,42.34-2.24,12.35-4.75,24.65-7,37C7.2,327,13.92,333.3,22.38,334.11c4.25.41,8.51.73,12.76,1.06,1.47.11,3.15-.23,3,2.13-.08,1.8-1,3-2.75,2.76-8-1.17-16.45.3-23.68-4.75-1.39-1-3.25-1.27-4.9-1.88a29.79,29.79,0,0,0-.54,4.76c.81,19.55,5.41,21.55,25.17,24,2.63.32,7.42-1.93,7.35,2.27-.06,3.86-5,2.81-7.74,2.49-6.75-.81-13.79-.66-19.82-4.78a5.19,5.19,0,0,0-4.11-.78c-1.93.79.37,2.13.19,3.36a33.46,33.46,0,0,0,0,4.48c0,13.2,3.23,16.95,16.43,18.78,3.73.52,7.5.78,11.26,1.11,1.6.13,4-.28,3.91,1.83-.16,2.42-2.81,3.33-4.89,2.92-7.94-1.56-16.43-.11-23.86-4.64-1.57-1-3.72-.64-3,2.65a20.33,20.33,0,0,1,.07,7.46c-1.45,9.22,7.48,14.43,14.25,15.65,4.5.82,9.16.77,13.76,1,1.7.09,3.66,0,3.8,2.17.16,2.51-2.16,2.69-3.82,2.74-7.92.21-15.7-.47-23.06-3.87-3-1.4-5.71-3.08-5.13,3.26.7,7.73-.72,15.87,8.1,19.93A36.31,36.31,0,0,0,33.45,443c2.47-.19,5.4.17,5.39,2.9,0,3.08-3.25,2-5.18,2-8.42.15-16.73-.38-24.08-5.2-.93-.61-1.57-1-2.21.42C3.3,452,9.45,466.37,18.67,468.57c5.39,1.29,11,1.66,16.51,2.36,1.6.2,3.94-.2,3.79,2a3.38,3.38,0,0,1-4.41,2.9c-8.38-2.08-17.88.34-25.14-6.3-.86-.78-2.16-1.2-2.93.21C4.6,473.17,9.3,490,12.83,492.93c6.37,5.29,14.33,3.52,21.57,4.9,1.69.32,4.37-.53,4.48,1.81s-2.22,3.16-4.64,3.21c-9.45.2-18.55-1-27.2-7.38,1.15,7.44-1.74,14.21,1.64,20,4.29,7.4,12,7.18,19.5,7.53,3.63.17,9.63-3,10.39,2.44.34,2.39-6.5.79-10,1.24A28.71,28.71,0,0,1,12.7,524c-3.91-1.82-5.58-1.34-5.5,3.78.32,18.8.13,37.6.13,56.4v30.51q-8.93,2-7-7a38,38,0,0,0,0-19V497.86a30.6,30.6,0,0,0,0-17v-4a49.52,49.52,0,0,0,0-22v-7a41,41,0,0,0,0-20V328.14c2.32-12.56,4.47-25.16,7-37.68,3.84-18.92,6.29-38.27,16-55.5,2.87-5.08,8.76-6.58,12.69-10.44.73-.72,2.53-.54,3.57.74s0,2.15-.76,2.9c-1.65,1.55-2.56,3.52-.88,5.2,7.15,7.15,8.27,17,10.85,25.85,3.92,13.39,5.64,27.41,8.41,41.14,4.17,20.76,5.2,41.68,5,62.84-.41,50.73-.11,101.47-.16,152.21,0,3.79-.2,7.25,5.23,6.46.83-.13,1.68.1,1.75,1.23.1,1.8-1.24,1.77-2.37,1.65-4-.42-4.63,1.74-4.62,5.14.1,28.26.08,56.53.1,84.79Z"/><path class="cls-1" d="M162.57,363.13c3.32,0,6.67-.27,10,.06,5.64.57,9.7.09,8.45-7.42-.62-3.7,2-2.86,4.18-1.9q22.71,10.29,45.4,20.63c.91.42,2.37.64,2.12,2.31-.2,1.38-1.18,1.79-2.28,2.31-15.3,7.13-30.54,14.39-45.88,21.42-3,1.38-3.95-.93-3.6-3.4.75-5.31-1.69-6.44-6.53-6.25-8.79.36-17.61,0-26.42.15-4.17.08-6.17-1.33-6-5.74.2-5.48.26-11,0-16.47-.22-4.29,2.06-5.6,5.65-5.67C152.59,363.05,157.58,363.13,162.57,363.13Zm4.19,5.9h-7.95c-11,0-10.79,0-11,11.23-.07,3.93,1,5.06,4.94,4.93,9.47-.29,18.95-.05,28.43-.12,3.17,0,6-.19,6,4.36,0,1.11,1,3.53,2.84,2.44,9-5.43,19.16-8.18,28.33-13.12,1.59-.85,2.83-2.47-.21-3.8C209,371,200,366.72,191,362.67c-1.53-.68-4.09-1.8-3.95,1.26.25,5.52-3.29,5.09-6.8,5.1Z"/><path class="cls-1" d="M231.39,85.36c-1.64,2-4,5-7.87,6-1.43.38-3-.74-2.61-2.1,1.31-4.18,5-6.07,8.73-7.57C231.25,81,231.88,82.49,231.39,85.36Z"/><path class="cls-1" d="M300,29.81c1.88.12,2.74,1.06,2.57,2.58-.53,4.64-4.87,5.21-7.95,7-1.19.69-3.14-.48-2.69-1.86C293.18,33.56,297.1,32.07,300,29.81Z"/><path class="cls-1" d="M172.06,130.44c-2,0-3.38-1-3-2.32,1.14-4.15,4.84-5.86,8.32-7.53a1.76,1.76,0,0,1,2.28,1.9C178.82,126.9,174.45,127.92,172.06,130.44Z"/><path class="cls-1" d="M137.39,155.51c-1.79-.29-3.82,0-3.17-1.59a11.84,11.84,0,0,1,8.48-7.44c1.67-.39,2.63.54,2.23,2.22C143.91,153,139.85,153.69,137.39,155.51Z"/><path class="cls-1" d="M196.73,111.69c-1.65,2.41-5.18,4-8.29,5.48-2,1-1.79-2-1.47-3.08,1.16-3.77,4.58-5.24,7.9-6.32C196.12,107.36,196.93,109.08,196.73,111.69Z"/><path class="cls-1" d="M102.67,181.43c-2-.23-4.25.07-3.39-1.78a13.06,13.06,0,0,1,7.45-7.18c1.53-.53,3.4.38,3.13,2.1C109.17,178.92,104.72,179.27,102.67,181.43Z"/><path class="cls-1" d="M320.63,19.92c-2.83,2.83-5.42,5.84-9.46,6.62-1.33.25-3.17-.95-2.28-2.26a15.56,15.56,0,0,1,8.77-6.54C319.16,17.33,320,18.47,320.63,19.92Z"/><path class="cls-1" d="M285.4,45.24c0,2.29-8.1,8-9.89,7.24-.67-.29-1.68-1.16-1.6-1.6.63-3.54,4.4-4,6.38-6.33,1.15-1.33,2.68-1.1,4.08-.48C284.88,44.29,285.19,45,285.4,45.24Z"/><path class="cls-1" d="M260,65.52c-2.47-.15-3.83-1.24-3.24-2.83,1.32-3.64,5.35-4.53,8-6.82.11-.09,2.66,1.81,2.52,2.42C266.37,62.41,261.74,62.72,260,65.52Z"/><path class="cls-1" d="M246.5,68.61c2.12,0,3.4,1,3,2.32-1.14,3.92-5.08,5.23-8,7.45-1,.8-2.91-.58-2.68-2C239.6,71.89,244.65,71.62,246.5,68.61Z"/><path class="cls-1" d="M57.32,214.53c-3,1.61-4.51,5.47-8.71,5.78-1.66.13-3-.79-2.18-2.21a12.67,12.67,0,0,1,8.33-6.62C56.22,211.16,57,212.44,57.32,214.53Z"/><path class="cls-1" d="M75.28,200.35c-2.46,2.86-4.6,6-8.57,6.87-1.12.25-2.58.19-2.43-1.54.42-4.56,4.63-5.38,7.65-7.22C73.07,197.76,74.37,198.86,75.28,200.35Z"/><path class="cls-1" d="M214.84,97.51a21.4,21.4,0,0,1-8,6.7c-1.18.57-2.24-1.26-2-2.67.73-4.09,4.54-5.14,7.46-6.86C213.43,94,214.57,95.54,214.84,97.51Z"/><path class="cls-1" d="M154.28,143.33c-1.73-.31-2.57-1.41-2.21-2.81,1-3.81,4.4-5.3,7.44-6.86,1.14-.59,2.67,1,2.25,2.43C160.67,139.9,156.86,141.05,154.28,143.33Z"/><path class="cls-1" d="M119.61,169.28c-1.89-.21-2.71-1.18-2.52-2.68.57-4.6,4.86-5.21,7.94-7,1.25-.73,2.19.43,2,1.86C126.29,165.86,121.28,166,119.61,169.28Z"/><path class="cls-1" d="M92,188.3c-1.48,3.06-4.38,5-7.89,6a1.46,1.46,0,0,1-1.86-2,11.44,11.44,0,0,1,8.07-6.75C91.93,185.1,92.07,186.59,92,188.3Z"/><path class="cls-1" d="M261.14,524.89c-2.27-.58-6,1.05-6-1.88,0-3.6,3.84-2,6-2,1.85,0,5.44-1.85,5.38,1.87S262.73,523.82,261.14,524.89Z"/><path class="cls-1" d="M281.78,524.81c-2-.28-5.5.6-4.86-2.46s4.83-.83,7.19-2.32c.86-.54,3.63.53,3.28,2.58C286.8,526,283.72,524.31,281.78,524.81Z"/><path class="cls-1" d="M194.94,520.77c2.16.5,5.68-.87,5.48,2-.24,3.48-4,1.76-6.18,1.91-1.88.12-5.33,1-5-2S193.13,521.5,194.94,520.77Z"/><path class="cls-1" d="M216.86,520.73c2.28.55,5.82-.82,5.49,2.17-.36,3.29-4.06,1.6-6.31,1.8-1.8.15-5,.8-4.87-1.71C211.41,519.21,215.22,521.8,216.86,520.73Z"/><path class="cls-1" d="M238.51,524.82c-2-.45-5.49.93-5.35-1.88.17-3.55,3.93-1.8,6.11-2,1.88-.14,5.33-1.05,5.06,2S240.54,524.28,238.51,524.82Z"/><path class="cls-1" d="M150.83,524.87c-2.12-.48-5.51.89-5.41-1.92.08-2.44,3.45-2.05,5.66-2.07s5.63-.19,5.42,2.26C156.25,526,152.67,524.23,150.83,524.87Z"/><path class="cls-1" d="M174,524.84c-2.08-.43-5.46.9-5.54-1.68s3.25-2.34,5.44-2.25c2,.07,5.06-.78,4.79,2.41C178.42,526.17,175.42,524.08,174,524.84Z"/><path class="cls-1" d="M108,524.89c-1.59-.72-4.68,1-4.57-1.4.15-3.3,4-1.15,6-2.4.92-.57,3.81.22,3.45,2.25C112.32,526.2,109.52,524.08,108,524.89Z"/><path class="cls-1" d="M130.62,521.68c1.73.81,5-1.16,5,1.45,0,3.19-3.37,1.5-5.12,1.5s-5.23,1.66-5.13-1.45C125.45,520.36,128.91,522.59,130.62,521.68Z"/><path class="cls-1" d="M86.78,521.68c1.53,1.06,5-1.58,4.93,1.79,0,2.52-3.24,1.13-5,1.21-1.89.07-5.22,1.11-5.13-1.84C81.67,520.81,84.92,522.32,86.78,521.68Z"/></g></g></svg>