<svg xmlns="http://www.w3.org/2000/svg" viewBox="0 0 520.21 607.95"><defs><style>.cls-1{fill:#f2943d;}</style></defs><g id="Layer_2" data-name="Layer 2"><g id="Layer_1-2" data-name="Layer 1"><path class="cls-1" d="M395.33,608c.93-7,2.61-13.88,2.14-21.05-.19-2.81-.5-4.47-3.8-4-1.59.22-3.11-.29-3.24-2.21s1.09-2.73,2.84-2.67c5.36.21,4.6-3.64,3.73-6.47a47,47,0,0,1-1.67-13.15c-.32-14.78-2.95-29.31-4.78-43.94-2.25-18.07-6.84-35.51-12.33-52.69-5.75-18-13.07-35.43-20.68-52.76-5.35-12.17-8.47-25.23-11.15-38.3-2.73-13.25-5.25-26.53-8.24-39.72a42.29,42.29,0,0,1-.62-8.34c-.11-3.29-.09-6.34-4.62-6.57-.78,0-2.36-.47-2.43-2-.06-1.39.81-2,1.92-2.59,3.07-1.53,2.92-3.56,2.34-6.89-2.18-12.39-3.85-24.9-5.15-37.42-1.24-11.92-2.36-23.9-3.67-35.77-.88-8-.93-16-1.43-24-.1-1.71-.62-4.23,1.9-4.37,2.1-.12,2.91,2.39,2.88,4-.13,7.3,1.48,14.39,2.15,21.59,1.29,14,2.38,28,4.82,42,1.63,9.35,1.85,18.94,3.21,28.35,2.25,15.51,4.87,31,7.4,46.44a385,385,0,0,0,11.93,50.35c3.45,11.3,8.86,22,13.37,33A402.27,402.27,0,0,1,389.22,481c5.23,20.27,9.44,40.72,10.17,61.79.41,11.81,1.77,23.59,3,35.36.61,5.79,5.57,8.58,10,10.61,7.93,3.65,16.28,2.76,24.22-.66,5.68-2.45,8.6-6.28,8.91-13.22.82-18.49-4.09-35.59-10.5-52.51-1.44-3.78-2.22-7.84-3.85-11.52-8.73-19.75-18.25-39.15-27.12-58.82-9.48-21-17.53-42.7-25.56-64.33-5.69-15.34-9.86-31.22-14.55-46.92-3-10.14-5-20.52-8.24-30.59-.86-2.66-1.7-3.48-3.9-2.44-1.86.89-3.53.92-4-1a3.1,3.1,0,0,1,2.5-3.67c4.34-.85,3.6-4.24,3.11-6.86-1.91-10.24-4.54-20.36-6.23-30.64-1.93-11.77-3.34-23.63-4.62-35.49-.95-8.82-3.06-17.57-2-26.54.17-1.54-1-4,2.17-3.91,2.57.09,2.63,1.86,2.78,3.82,1.22,15.85,3.59,31.54,5.62,47.29,3.43,26.64,9.17,52.77,15.72,78.67a557.7,557.7,0,0,0,19,61.42c4.15,10.91,8.62,21.7,12.7,32.64a39.55,39.55,0,0,0,2.75,4.68c.5-12.31,1.91-22.91,1.51-33.87a225.68,225.68,0,0,1,.84-27.22,181.44,181.44,0,0,0-.11-36.62,4.17,4.17,0,0,1-.07-1c1.39-12.29-3-24.25-2.07-36.52.21-2.72.41-5.42-1.56-8s2-4.77,1.74-7.77c-.44-5.79.09-11.65-.16-17.46a253.31,253.31,0,0,1,3.48-51.27c3.73-23,3.87-45.88,4.87-68.91.5-11.5-.42-23.07,1.35-34.6.64-4.21-2.09-8.83-1.71-13.53,1.53-18.48-1.37-36.87-1.16-55.34.11-9.69-1.24-19.38-1.8-29.08-.11-1.8-.86-4.66,2-4.71,2.51,0,3.8,2.17,3.92,4.77.38,7.76.24,15.52.72,23.3,1.16,18.81,3.1,37.64,2.18,56.52-.59,12,1.45,23.93,1.08,35.92-.61,19.35-.77,38.73-2.16,58-1.12,15.64-4.06,31.15-5.56,46.79-.46,4.8-2.39,9.65-.83,14.91,2.42-.94,2.87-3.23,3.45-5,7.66-23.3,20.11-44.26,32.54-65.1,3.87-6.49,4-12.09,3.75-18.94-.57-18.45.16-36.94-.28-55.39-.44-18.13-1.85-36.25-2.47-54.35-.34-9.59-.5-19.34-.54-29,0-2.43.33-4.84-.6-7.34a4,4,0,0,1,2.57-5.21c2.92-.87,3,2,3.43,3.72,1.54,6.28-.25,12.86,1.58,19.15a2,2,0,0,1,0,.49c.35,25.89,0,51.82,1.31,77.66.81,16.26-.06,32.5.9,48.8,2.43,0,2.78-2.11,3.43-3.57,4.55-10.27,9.28-20.48,13.33-30.95C475.27,104.22,480.3,91,483.6,77c2.78-11.8,6-23.66,8-35.5s4.37-24,3.63-36.25c-.13-2.11-1-5.14,2.75-5.23,4.11-.1,3.18,3.2,3,5.43a338.21,338.21,0,0,1-6.82,51.94c-3.68,16.7-8,33.22-14,49.2-9,23.92-19.08,47.32-32.38,69.36-13,21.62-24.69,44.07-33.6,67.86-3.95,10.53-5.79,21.29-6.78,32.31-.29,3.19,1.37,6,4.08,8,8,5.73,26.49,6.29,33.45-.32,4.5-4.28,6.53-10,5.94-14.83-1.92-15.57,1.65-29.76,7.18-44,7.52-19.35,17.83-37.37,26.11-56.34a263.93,263.93,0,0,0,16.67-51c2.44-11.57,5.26-23.11,6.65-35,1.77-15.13,3.74-30.19,5-45.41.87-10.71,1.59-21.37,1.61-32.09,0-2.65.82-5,3.55-5,3.28,0,2.56,3,2.43,4.93-1.17,17.73-1.45,35.49-3.67,53.19-1.41,11.18-3.12,22.33-4.51,33.52a171.49,171.49,0,0,1-3.91,19c-3.37,13.89-7.06,27.7-11.44,41.35-5.57,17.36-14.16,33.24-22.26,49.41-7.51,15-14.38,30.38-17.65,46.9-.95,4.83-2.09,10.14-.59,15.53,1.18,4.26-.32,8.81-.81,13.23-1.27,11.31-1.84,22.67-2.11,34.06-.18,7.54-2.25,15.13-1.69,22.56,1,12.57-.68,25-.34,37.54.72,26.41.5,52.84,1.42,79.23.19,5.44-.5,10.76-.24,16.13,1.14,23.89.07,47.84,1.2,71.69.86,17.93,0,35.84.93,53.72.29,5.26.67,10.53.83,15.81h-6c-.34-6.22-.67-12.43-1-18.65,0-.75.28-2-.76-2a3.89,3.89,0,0,0-2.36,1.41A20.2,20.2,0,0,1,432.2,595c-2.25.29-5.12.14-6.56,1.45-6.14,5.56-14.05,5.57-21.33,7.42-2.61.67-3.2,1.85-3,4.1Zm51.5-67.75a236.33,236.33,0,0,0-.43-27.79c-.77-10.95-.08-22-.2-33-.24-21.11-1.08-42.23-.78-63.33.26-18.34-1.21-36.64-.34-55,.8-16.65.38-33.36,2-50,.1-1.06,4.14-10.6-4.36-3.94-.65.51-1.94.2-2.93.27-8,.51-14.38-3.38-20.76-7.54-1.91-1.25-3.55-2.47-2.49-4.55,1.15-2.23,3-.14,4.27.37,9.16,3.51,20,2.23,24.88-3.14.65-.7,1.92-1.42,1.33-2.41-.75-1.25-1.93-.55-3,0-10.9,5.5-22,4.52-32.83.21-3.44-1.37-4.15-.56-3.87,2.62.65,7.36,1.91,14.72,1.89,22.08-.1,36.52-.53,73.05-.85,109.57a11.73,11.73,0,0,1-.2,3c-3,10.82-1,20.81,4.52,30.44,8.46,14.87,14.2,31,21.57,46.42C439.68,515.87,442.17,528.38,446.83,540.2Zm-29.24,55.39c-5.76-1.71-10.78-2.93-14.7-7.09C402.81,594.47,407.05,596.49,417.59,595.59Z"/><path class="cls-1" d="M60,608c1-1.44.94-3.08,1-4.75.79-21.32-2.17-42.32-4.67-63.44-2.48-20.86-10.11-39.67-19.2-58.14-6.69-13.58-13.82-27-17.6-41.73-3.85-15-7.76-29.95-9.54-45.42C8.76,384,5.58,373.66,4.73,363.14c-.8-10-4.19-19.6-3.71-29.72.11-2.26.28-4.53-.69-6.83-.71-1.68-.4-3.71,2.15-4.15S5.7,324,5.93,325.65c.83,6.17,1.18,12.41,2.14,18.56,1.81,11.61,2.53,23.36,4.89,34.92,2.73,13.41,4,27.14,7.25,40.42,3.67,15.14,7.3,30.45,14.32,44.5s14,28,19.44,42.68c4,10.65,5.9,21.93,8.17,33.11,2.23,11,1.64,22.2,3.56,33.22,1.57,9,6.89,15,16.18,14.9,7-.06,14.33,1.44,19.78-5.06,1.48-1.76,2.42-3.31,2.31-5.68-.58-13.07-4.81-25.1-9.93-37-7.4-17.15-17-32.94-26.88-48.79-12.77-20.58-22.33-42.82-30.5-65.77-4.57-12.85-8.6-25.88-11.94-39-3.16-12.36-5.7-25-8-37.7-1.39-7.82-.92-15.69-2.49-23.41-.36-1.83-.94-4,.89-5.61a3,3,0,0,1,3.3-.29c2.18,1,1.39,3.11,1.53,4.85a372.63,372.63,0,0,0,6.53,44,362,362,0,0,0,11.39,42.86C44.31,430.75,50.81,450,60.36,468a6.74,6.74,0,0,0,.55.84c1.75,2.45,1.64,8,4.42,7.32,3.09-.73,1.4-5.73,1.58-8.88,1.06-17.89-2-35.63-2.33-53.51-.36-16.87,1.16-33.35,3.22-50,1.68-13.53,3.93-27,3.32-40.84-.34-7.88,1.08-16,.46-23.77-1-13,.4-26.09-1.38-39.1-1.09-8,.2-16.19-1.2-24.24a77.17,77.17,0,0,1-1-10.3c-.08-2.07-.13-4.67,2.77-4.87,3.29-.23,2.49,3,3,4.67C76,233,75,241.07,75.68,248.92c1.16,13.68.07,27.56,1.49,41.19,1.68,16.12-.39,32.08-.56,48.08-.13,12.28-3.08,24.55-5.14,36.76-.39,2.31,0,4.65-.76,6.84-.42,1.18-1.68,2.64.11,3.25,1.58.53,2-1.39,2.47-2.54a106.69,106.69,0,0,1,12.47-22.64c5.07-7,8.68-15,14.54-21.48,1.25-1.4,2.5-3.53,2.42-5.26-.55-12,1.4-24.06-1.23-36.13-1.16-5.32-.08-11.24-.38-16.94-.94-18.38-.88-36.81-1.14-55.22,0-2-.92-5,2.32-5s3.57,2.69,3.57,5.43c0,23.68,2.5,47.28,2.26,71-.07,7.67.5,15.49.79,23.25,0,.9-.52,2.24.68,2.61,1.39.42,1.83-.82,2.4-1.89,12.7-23.84,23.5-48.53,29.52-74.88,2.81-12.31,6.65-24.65,6.35-37.57-.05-2,.8-3.13,2.93-3.13s3.11,1.17,2.92,3.13c-.64,6.69-.89,13.48-2.22,20-2.19,10.68-4.69,21.33-7.81,31.76A295.25,295.25,0,0,1,117,322c-11.22,19.57-26.25,36.68-36.24,57a154,154,0,0,0-10.55,26.8c-2,7.28,3.38,12.82,13.25,13.57a35.86,35.86,0,0,0,12.71-1.2c6.34-1.84,9.42-6.94,9.8-15.29,1-21.48,6.67-41.63,16-61,6-12.52,14.81-23.59,19.08-36.95,2.77-8.65,5.3-17.37,7.75-26.1,4.13-14.75,6.36-29.9,8.72-45,1.13-7.24,2.59-14.48,3.25-21.8.26-2.85.38-6.52,4-6s2.21,4.54,1.87,6.77c-2.46,16-5,31.91-8,47.79-3.36,17.94-7.25,35.84-15,52.49-4.73,10.17-10.86,19.68-15.84,29.74-7,14.21-12.57,28.82-14.43,44.93-.72,6.26-.53,12.76-2.26,18.94-.56,2,.17,2.79,2.16,2.71,1.54-.06,3.45.05,3.35,2a3.31,3.31,0,0,1-3.45,2.94c-2.26,0-3.23,1-3.36,3.3-.93,15.79-2.41,31.57-2.79,47.37-.34,14.28.12,28.62.91,42.89,1.09,19.84,1.57,39.68,2.16,59.53.13,4.17-2.31,11.27,6.11,12.06,1,.09.91,2.16,0,2.37-7.93,1.86-4.34,8.81-4.83,13s0,8.81.47,13.23h-6c1.17-6.62-2.8-13.09.56-20.63-9.94,6-20,7.26-29.64,9.42C66,599.15,65.87,598.46,66,608Zm42.21-176.49c-2.16.06-4,2.05-6.73,1.67-8.07-1.14-15.13-4-20.46-10.39a3.48,3.48,0,0,0-3.94-1.4c-2,.69-1.08,2.54-1.1,3.85-.13,8.41,2,16.61,2.43,25,.22,3.81-1.29,7.46-.29,11,1.2,4.27.48,8.34.19,12.6-.52,7.7-1.62,15.32,4,22.58A136.82,136.82,0,0,1,94.93,529c2.57,6.33,5.74,12.4,8.22,18.91C101.5,509,101.12,470.3,102.18,431.46Zm-16.64-7.07c5.4,2.79,10.25,1.8,14.75-1.69C95.24,422.35,90.71,425.61,85.54,424.39ZM73.66,590.93c-2.75.34-3.71-3-6.37-2.36a1.8,1.8,0,0,0,.13,1.23C69.12,591.43,71,592.51,73.66,590.93Z"/><path class="cls-1" d="M237.49,453.24c2.66,0,5.34-.17,8,.05,4.14.34,6.34-.49,6.38-5.55,0-4.67,3.81-2.31,5.76-1.43q16,7.21,31.78,14.91c2.48,1.21,6.94.77,6.86,4.41-.08,3.87-4.66,3.28-7.3,4.53-10.58,5-21.27,9.86-31.8,15-4,2-5.72,1-5.46-3.28.24-3.78-1.34-4.92-5-4.83-7.8.19-15.62,0-23.43.1-4,.07-5.9-1.5-5.6-5.58.36-4.76.69-9.52,1-14.29.11-2,1.12-2.71,3.06-3.15C227,453,232.23,453.37,237.49,453.24Zm-4.83,5.9c-9.07,0-9.07,0-9,7.71a9.26,9.26,0,0,1,0,1.49c-.47,3.08.83,4,3.87,3.89,8-.2,16,0,23.92-.11,2.47,0,4.75.71,5,3,.46,4.42,2.58,3.21,5,2.06,6.8-3.22,13.62-6.41,20.39-9.68.92-.44,2.47.17,2.7-1.61.25-2-1.55-2.09-2.5-2.56-7.45-3.67-15-7.17-22.5-10.7-1.68-.79-3-.73-2.88,1.62.17,4.27-2.9,4.92-5.94,4.79C244.14,458.77,237.62,457.72,232.66,459.14Z"/><path class="cls-1" d="M188.6,578c1.15.06,4.28.06,3.89,3-.55,4-4.25,1.34-6.46,1.76-1.33.26-4.27,1.35-4.09-1.68C182.14,577.88,185,578,188.6,578Z"/><path class="cls-1" d="M357,583c-2.06-.45-5.36,1-5.38-2.61,0-3.24,3-2.41,5-2.35s5.39-1.15,5.6,2.26C362.42,584,359,582.55,357,583Z"/><path class="cls-1" d="M281.59,583c-1.46-1-4.61,1.67-4.93-1.95s2.6-3,4.86-3.11c2.61-.13,5.71.15,5.58,3.16S283.68,582.55,281.59,583Z"/><path class="cls-1" d="M318.83,583c-2.08-.33-5.34.77-5-2.39s3.54-2.63,5.94-2.6c1.89,0,4.59-.52,4.57,2.26C324.26,584.25,320.76,582.43,318.83,583Z"/><path class="cls-1" d="M303.07,324.46c2.19-.08,3.73-.1,3.37,1.87-.8,4.39-5,3.69-7.88,4.94-1.24.54-2.16-.4-2-1.9C297,324.71,302,326.86,303.07,324.46Z"/><path class="cls-1" d="M196.41,377.33c-2.44-.13-4.24-1-3.51-2.59,1.49-3.29,5.35-3.08,8.22-4.29,1.12-.48,2.65.74,2.31,1.82C202.26,375.92,198.43,375.86,196.41,377.33Z"/><path class="cls-1" d="M178.89,385.28c-2.38,0-4.49-.49-3.89-2.14,1.23-3.38,5-3.68,7.91-4.73,1.34-.49,3.11.84,2.53,2C184.07,383.37,181.21,384.69,178.89,385.28Z"/><path class="cls-1" d="M262.75,583c-2-.32-5.16.8-4.87-2.54.22-2.52,3.05-2.47,5.2-2.45s5.39-.15,5.25,2.78C268.18,584.19,264.74,582.5,262.75,583Z"/><path class="cls-1" d="M282.52,338.39c-2.18,0-4.4-.76-3.63-2.14,1.63-2.87,5.44-3,8.18-4.63,1.11-.65,2.71.94,2.28,2.37C288.28,337.56,284.77,337.5,282.52,338.39Z"/><path class="cls-1" d="M254.45,350.6c-.83,2.38-4.29,2.48-6.83,3.63a2.1,2.1,0,0,1-2.86-2.33c.91-3.62,4.8-3.08,7.36-4.36C253.33,346.94,254.75,347.52,254.45,350.6Z"/><path class="cls-1" d="M164.66,386.31c2.09,0,4.27.32,3.81,2-1,3.58-4.6,3.58-7.59,4-1,.14-3.3.72-2.9-1.38C158.69,387.05,162.55,387.47,164.66,386.31Z"/><path class="cls-1" d="M130,401.35c2.33,0,4,.72,3.58,2-1.13,3.49-4.74,3.8-7.65,4.78-1.3.43-3.27-.58-2.8-1.81C124.42,403.08,128.47,403.36,130,401.35Z"/><path class="cls-1" d="M237.48,357.58a10.29,10.29,0,0,1-7.12,4.71c-1.47.25-2.94-.84-2.43-2.26,1.16-3.25,4.07-4.37,7.31-4.6C236.43,355.35,237.66,355.41,237.48,357.58Z"/><path class="cls-1" d="M144.06,400.37c-1.19-.43-3.32.68-3.11-1.45.44-4.26,4.88-3.62,7.43-5.28,1.22-.79,2.65.81,2.3,2.2C149.83,399.19,147,400,144.06,400.37Z"/><path class="cls-1" d="M372.58,293.56c1.62-.05,3,.12,2.64,1.71-.8,3.48-3.83,4.4-6.77,5.13-1.4.35-3.14-.51-2.74-1.9C366.68,295.08,370.28,294.85,372.58,293.56Z"/><path class="cls-1" d="M320.81,316.42c1.54.18,2.73.95,2.39,2.15-1,3.44-4,4.35-7.08,4.76-1.32.17-3.11,0-2.43-1.92C314.87,318.12,318.36,317.78,320.81,316.42Z"/><path class="cls-1" d="M265,346.38c-1.46,0-2.71-.1-2.32-1.51,1-3.68,4.41-4.43,7.44-5.3a1.93,1.93,0,0,1,2.33,2.38C271.32,345.87,267.23,345,265,346.38Z"/><path class="cls-1" d="M149.36,583c-2-.38-5.2,1-5.25-2.18s3-2.76,5.3-2.82c2.05,0,4.26-.17,4.28,2.76C153.72,584.31,150.85,582.38,149.36,583Z"/><path class="cls-1" d="M225.14,583c-1.45-.77-4.37,1.43-4.42-2.12-.05-3.23,2.45-2.9,4.59-2.92s5,0,5.1,2.43C230.59,584,227.2,582.56,225.14,583Z"/><path class="cls-1" d="M376.53,578c2,.1,4.6-.51,4.64,2.39,0,3.33-2.82,2.54-4.82,2.54s-4.92.78-4.75-2.57S374.69,578.24,376.53,578Z"/><path class="cls-1" d="M217.44,363.32c1.47.28,3.7-.32,3,1.71-1,3.16-4.26,3.68-7.13,4.21-1.32.24-3,.1-2.58-1.88C211.63,363.7,215,363.92,217.44,363.32Z"/><path class="cls-1" d="M167.76,583c-2-.17-4.71.53-4.68-1.85,0-2.74,2.66-3.28,5.19-3.17,2.23.09,4.76-.05,4.39,3.15C172.25,584.73,169.15,582.07,167.76,583Z"/><path class="cls-1" d="M130.36,583c-2-.43-5.13,1-5.2-2.12,0-2.22,2.44-3.16,4.87-2.91,2.1.21,4.62.14,4.69,3C134.81,584.47,131.77,582.24,130.36,583Z"/><path class="cls-1" d="M206.34,583c-1.87-.41-4.78,1-5.34-1.84a2.87,2.87,0,0,1,3.56-3c2.35.77,6.44-.52,6.69,3.09C211.41,583.66,208.19,582.69,206.34,583Z"/><path class="cls-1" d="M392.33,288.27c-1.15,3.2-4.21,3.56-7,4.13-1.42.29-3.17-.67-2.68-2,1-2.64,3.41-3.93,6.25-3.86C390.11,286.55,392.05,285.58,392.33,288.27Z"/><path class="cls-1" d="M338.15,583c-1.45-.76-4.45,1.45-4.53-1.94-.07-2.87,2.51-2.89,4.63-3.09,2.44-.23,4.85.71,4.79,3C343,583.81,340,582.64,338.15,583Z"/><path class="cls-1" d="M244,583c-1.39-.63-4.27,1.35-4.26-2.19,0-2.91,2.16-2.84,4.21-2.79s4.43-.44,4.54,2.41S246.06,582.87,244,583Z"/><path class="cls-1" d="M300.72,583c-2-.31-5,.67-4.8-2.11s3.4-1.73,5.36-1.79,5-.81,4.86,1.75C306,584.26,302.53,582.39,300.72,583Z"/></g></g></svg>