<svg xmlns="http://www.w3.org/2000/svg" viewBox="0 0 304.86 733.88"><defs><style>.cls-1{fill:#f2943d;}</style></defs><g id="Layer_2" data-name="Layer 2"><g id="Layer_1-2" data-name="Layer 1"><path class="cls-1" d="M202.92,577c-1.51-.7-3.7,1-4.73-1.32-4-8.92-12.39-13-20.05-18.3-1.18,4.88,2,8.65,2.42,13,.19,2.13,1.25,4.75-1.56,5.43s-2.27-2.33-3.14-3.91c-3.24-5.92-3.93-12.37-4.65-18.88-.1-.94.15-3-2-2.82s-1.28,2-1.4,3.11c-1.2,11.64,2.52,21.64,8.84,31.42,7.2,11.13,16.82,18.61,28.12,25.23,7.3,4.27,12.92,11.56,18.9,17.87,3.41,3.58,6.47,7.43,10.56,10.33,1.53,1.09,3.86,2.49,2,4.74s-3.64.09-5-1.08c-3.61-3.19-7-6.61-10.48-9.92-1.88,1.58.23,2.53,0,3.76-.38,2.58-1.33,5.05-4.06,5.21-3.51.2-1.87-2.92-1.88-4.46-.06-8.67-4.68-14.91-11.05-19.73-5-3.81-10.92-6.49-16.42-9.71-1.16-.68-2.48-1.72-3.43-.22-.83,1.33.42,2.45,1.4,3.38,4.56,4.3,11.44,6.09,13.79,12.8a40,40,0,0,0,2.24,4.37,2.36,2.36,0,0,1-1,3.41c-1.44.79-2.62.07-3.33-1.2-.89-1.57-1.32-3.46-2.44-4.81-1.5-1.81-2.1-5.41-4.92-4.91-2.6.45-1.79,3.61-2,5.74-.12,1.3-.76,2.42-2.1,2.17a2.67,2.67,0,0,1-1.65-2.06c1.2-14.35-12.31-21.31-17.31-32.91q.8,15.62,1.6,31.22c0,.31.46.65.4.89-4.45,17.18,10.33,25.29,17.51,36.95,3.25,5.28,6.17,10.85,10.9,15.11,1.19,1.07.84,2.46-.31,3.5-1.34,1.21-2.14-.06-2.85-.86a168.14,168.14,0,0,1-16.27-21.6c-2.41-3.84-6-7-9.89-11.42,0,7.46,1.12,14.2-.25,20.39-2.2,9.88,2.2,15.93,9.13,21.47,1.74,1.39,4.57,3.5,2.75,5.59s-3.83-1.1-5.59-2.12c-2.22-1.31-4.44-2.9-5.05-5.77a2.24,2.24,0,0,0-2.86-2c-1.7.36-1,1.87-1,2.89,0,10.69-.15,21.38,0,32.07.06,4.22,1.32,8.36,0,12.66-.48,1.6-.87,2.31-2.5,2.2-1.16-.08-2.81,0-2.45-1.61,2.21-9.88-4.19-18.37-4.33-28-.09-6.45,3.75-11.35,4.59-17.45,1-7,.57-12.89-4.45-18.15-.63,2.77-1.32,5.89-2.07,9-.37,1.55-1.48,3.2-2.87,2.89-1.84-.41-1.13-2.61-.78-3.79.57-1.92,1.75-4.35,0-5.37s-2.69,1.86-4.11,2.86c-4.5,3.18-8.23,6.94-9.64,12.54-.31,1.21-1.08,2.64-2.82,2-1.44-.55-1.73-1.87-1.65-3.31.34-6.23,4.28-10.18,9-13.29,1.35-.89,3.39-1.41,3.71-2.89,2-9.41,8.11-17.13,9.78-27,1.5-8.95-1.54-17.16-.57-25.71.08-.71-.15-1.86-.63-2.15-1.13-.67-1.7.47-2.26,1.25-2.65,3.71-5.07,7.37-9.42,9.77-2.37,1.31-2.81,5.32-2.7,8.56a77.41,77.41,0,0,1-1.09,18.24c-.36,1.72-.52,3.8-3.1,3.64-2.84-.18-2-2.56-1.65-3.75a35.14,35.14,0,0,0,.23-21.37c-4.26,6.56-8.94,12.32-11.91,18.85-1.87,4.12-4.56,7-7.52,9.92-.91.9-1.82,2.26-3.22.59a2.29,2.29,0,0,1,.24-3.52c4.27-3.88,5.54-9.63,8.8-14.14.58-.81.56-2.05.82-3.09a15.7,15.7,0,0,0-3.36,0c-1.25.27-2.39,1.11-3.64,1.35-2,.37-3.92,4.45-5.78,1.18-1.71-3,2.08-4.55,4-5.62a22,22,0,0,1,9.68-3.06c3.55-.08,5.24-1.67,7.08-4.17,2.49-3.38,4.24-7.19,9.83-7.58,3.19-.23,6.57-3.62,8.09-7.37,3.17-7.83,7-15.44,8.37-23.88.21-1.3,1-3.24-.79-4s-2.35,1.71-3.28,2c-12.89,4.45-14.95,16.51-19.4,26.9-.83,1.95-2,4-4.35,2.17-2.14-1.62-.21-3.45.84-4.58,2.93-3.18,1.85-7.56,3.74-11,1-1.87-.85-1.67-1.9-1.71-1.52-.06-3.42,0-3.43-1.9a4,4,0,0,1,2.5-4c7.45-2.48,9-12,17.15-14.11,1.66-.44,2.61-5.74,2.84-8.88.72-9.79-.54-19.65.94-29.58-4.19,7.64-6.77,15.83-11.49,23.07-2.65,4.08-6,7.72-7.05,13.26-.38,2-7.78,4.35-11.83,6.89-1.37.86-1.68-2.18-1.13-2.86,5.64-7,8.18-15.64,14.65-22.63,5.44-5.87,11.18-14,12.69-22.77.95-5.52,2.94-11.54-.88-18.36-.91,7.25-4.8,9.11-10.87,10.81-3.35,1-7.55,7.8-7.61,13.23s-1.63,10.67-2.24,16c-.21,1.9-1.28,3.62-2.88,3.43-2-.23-1.07-2.51-1-3.76.33-3.65,2.51-8.93-1.13-10.23s-7.08,3.51-9.53,6.64c-4.92,6.3-9.29,13-13.89,19.58-1,1.34-1.9,2.67-2.93,3.94-1.31,1.63-3.26,3.33-5,1.72s.44-3.5,1.47-5c2.89-4.28,5.86-8.5,7.94-13.74-5,3.92-10.09,7.77-15,11.79-1.93,1.57-4,2.52-5.5.19-1.65-2.49,1.16-3,2.52-4.28,9.77-9.44,23.73-13.86,31.22-26,1.66-2.69,4.67-.59,6.86-1.92,3.93-2.39,6.32-6.07,9-9.59s4.73-7.35,9.49-8.87c3.43-1.1,9.16-19.68,7.19-22.74-1.49-2.33-4.07-1.66-6-.33-7.4,5-16.52,8.39-18.26,18.93a2.33,2.33,0,0,1-3.34,2c-1.89-.84-1.16-2.42-.61-3.8,1-2.49,2.73-4.8,2.11-7.78-7.42,2.46-10.67,8.85-14.58,14.53-.78,1.14-1.33,2.66-2.83,2.17-6.81-2.24-10,3.06-13.44,6.8-3.71,4-9.23,5.08-12.79,9.1-.32.37-2.27,0-2.61-.5a2.68,2.68,0,0,1,.5-3.6c1.23-1,2.56-1.92,5.06-3.76-8.58.5-11.17,6.43-14.87,10.81-1.12,1.31-1.79,3.84-3.81,2.73-2.59-1.43-.49-3.13.42-4.91,4.12-8.08,11.5-11.15,19.36-14.57a91.63,91.63,0,0,0,25.09-15.95c8.56-7.71,20-10.38,29.62-16.25,5.46-3.35,11.46-7.12,14.24-13.7,2.54-6-1-12.21.76-18.44,1.1-3.85.28-8.27.18-12.42-.07-3.36-.77-5.85-5.15-6.35s-6.7-5-6.48-8.21c.61-9.17,1.49-18.64,7.95-26.1,2.4-2.77,2.94-5.73,2.78-9.15-.49-10.41.75-20.84-.93-31.27-.58-3.6.72-7.48.81-11.24,0-1.5-.49-3.63-2.56-3.56-2.4.08-1.16,2.27-1.41,3.53-.41,2,1,5.55-2.72,5.13-3.86-.45-1.39-3-.72-4.79.32-.83.64-1.78-.55-1.86s-2.56.06-3.16.74c-1.5,1.7-1.71,6.05-4.51,4.71-3-1.43-5.07-5-7.21-7.81-.88-1.18-.46-3.68-2.52-3.64-2.24.05-2.4,2.27-2.63,4-.42,3.15-2.17,5.21-5.26,5.67-2,.3-4.7.87-3.12-3.18s-1.27-5.84-4.57-6.62-6.58-.82-6,4.26c.14,1.33.17,2.73-1.9,2.7-1.71,0-3.37.06-4-2-1.27-4.16-3.12-4.33-7.34-2.71-5.48,2.1-2.57-3.93-4.33-6.14-4.67,2.68-4.64,7.1-4.43,11.7.11,2.21.72,5.09-2.93,5.12s-3.09-2.82-3-5.06c.12-3.29-1.23-7.09,3.11-9.1.91-.42-.17-2.23-2.53-3.68s-4.82-2.47-6.78.45a23.08,23.08,0,0,0-1.86,4.48l.08-.07c-6.33,2.51-12.13,6.45-19.25,6.89-.7,0-1.36,2-1.88,3.2-.63,1.41-2.72,2.43-2.95,1.74-2.06-6.27-9.59-2-12.34-6.64a2.88,2.88,0,0,0-4-.93c-2.35,1.39-5,3.65-6.35-.31C15,350.9,15.57,346.64,20,346c6.58-.9,13.28-1.62,20-.66,1.6.23,3.65,1.48,4.69.88,8.58-5,18.45-5.38,27.59-8.23,6.91-2.15,13.22-2.34,19.5.92,6.87,3.56,13.35,3.85,20.35,0,8.51-4.67,18.33-2.84,27.49-4.42,2-.36,4.24-.07,4.28-2.92.3-25.23-.34-50.5-6.71-75-3.13-12.09-14-19-23.88-25.72-2-1.33-5.56-.61-8.35-.31-24.57,2.61-43-8.62-59.9-24.95-9.09-8.79-17-18.16-22.77-29.29-3.73-7.16-2.12-9.83,5.8-9.59,9.26.28,18.56-.93,27.8.87,20,3.89,37.93,11.73,48.83,29.76,6.16,10.21,11,21.1,20.45,28.95,4.9,4.05,9.36,8.64,14.14,12.84.82.72,2.81.71,2.48-1-1.11-5.58,4.11-10.56.6-16.75-1.69-3,.69-8,.43-12.11-1.25-20.06-.16-40.46-8-59.63-1.64-4-.68-8.47-3.61-12.48-5.07-6.95-12.19-7.37-19.31-7.35a26.43,26.43,0,0,1-15.31-4.32c-12.31-8.22-25.39-16-31.46-30.33-3.56-8.45-6.68-17.44-7.84-26.46s-6.06-17-6.08-26.12c0-1.16-.44-2.17.58-3.13s1.78-.32,2.63.19C64.88,46,77.1,47.36,88.32,51.58c8.46,3.18,17.31,5.77,23.6,14.38-1.17-9.12-2.22-17.42-3.3-25.72C107,27.66,108.26,15,108,2.43c0-2.95,1.82-3.09,3.88-1.08,9.65,9.42,21.37,16.66,30.55,26.3,7.77,8.16,16.45,17.1,16.41,30.07,0,1.3.38,2.41,1.55,2.84,1.41.53,1.56-1,1.91-1.74,6.94-15.49,20.34-24.35,33.9-33.06,5.72-3.67,11.48-7.28,17.21-10.94,2.32-1.48,4.67-1.61,6.86.07,1.88,1.45,2.84,2.84,1.8,5.83-3.59,10.34-2.75,21.39-4.06,32.09-2.21,18.11-8,34.75-19.17,49-5.73,7.29-13.77,12.75-24.17,11.92a4.31,4.31,0,0,0-4.72,2.88c-2.18,5.73-5.56,11.5-5.79,17.36-.34,8.48-1.31,17-.78,25.62.64,10.26-.64,20.75-.47,31.39,8.18-7.56,9.24-18.34,12.59-27.64,6.91-19.17,33.25-38.78,54.62-37.92,10.77.43,21.53,1.73,32.36,1.49,4.29-.09,6.43,1.38,3.56,6.8-6,11.31-12.31,22-21.62,31.22-12.51,12.39-28,17.53-44.22,21.76a61.94,61.94,0,0,1-16.58,2c-7-.09-18.42,11.53-18.81,18.51-.56,9.84-1.5,20-1.28,29.48.53,22.83-1.27,45.74,1.17,68.56.81,7.59-.56,15.41.23,23,.78,7.45,8.56,11.5,15.94,9.79,8.14-1.88,15.91-4.52,24.82-4,7.19.42,12.24,3.89,17.94,6.56a28.65,28.65,0,0,0,21.09,1.84c9.19-2.76,18.13-1,27.26.07,10.19,1.18,20.47,1.49,30.72,2.07,1.47.09,2.21.42,2.12,1.93-.16,2.44-2.13,2.87-3.85,2.89-7.43.08-14.9.68-22.19-1.44-.77-.22-2.15-.64-2.3-.39-2.43,4-7.34,5-10,7.41-3.87,3.48-4,1.67-5.64-.69-.84-1.21-1.69-3.1-3.23-2.5s-.32,2.17.1,3.38c.59,1.74-.74,2.74-1.88,3.72s-1.74,0-2.54-.56c-1.57-1.16-1.26-2.39-.44-3.85s2-3.25.54-4.49c-2.07-1.77-4.31.85-6.63.51-2-.29-1.89,1.29-1.9,2.67s.27,2.64-.94,3.7-2.32,2.91-4.54,2.57a1.45,1.45,0,0,1-1.42-1.65,5,5,0,0,1,2.73-4.77c1.09-.58,3.46.22,3.11-2.28-.05-.41-.43-1-.76-1.1-1.74-.38-3.25-.17-4.2,1.7a2.26,2.26,0,0,1-1.89,1c-8.43-2.16-10.35,3.1-11.09,9.65-.16,1.36-.12,3-1.65,3.18a3.6,3.6,0,0,1-2.71-1.69c-2.26-3.76-8.21-7.22-1.23-12.11.74-.52.36-2.76.31-4.2,0-.22-1.41-.74-1.6-.55-1.78,1.75-4.71,3.53-4.85,5.49-.29,3.89-1.3,6-4.95,8-3.06,1.65-.89,5.82-1.32,8.84-.22,1.62.3,3.57-1.63,4.32a2.93,2.93,0,0,1-3.66-.71c-1.12-1.55-.68-3,.15-4.63,1.06-2,2.09-4.09-.05-6.32-1.82-1.89-.27-3.55,1.28-4.5,3.13-1.91,3.78-5.4,6-8.45-3.9,2.42-7.54,5.13-10.78-.17-4.23,2.79-9.34-.27-13.46,1.83-3.56,1.81-5.51.86-7.36-2.56-.58,1.9-.75,3.7-1.64,5a5.4,5.4,0,0,1-3.54,2.36c-2.1.08-.82-2-1.19-3.07s.68-3.46-1-3.26c-3,.35-3.54,3.63-4.6,5.91s1.19,1.73,2.25,1.79c1.65.09,3.07.41,3.2,2.33s-1.09,2.65-2.84,2.65c-2.83,0-3.16,1.84-3.09,4,.36,10.25.53,20.51,1.16,30.75.24,4,3.58,6.93,4.16,11.29,1,7.61-3.84,13.37-4.67,20.34A309.84,309.84,0,0,0,165,480.23c.83,16.18,13.28,15.35,21.47,21.25,4.67,3.37,9.12,6.92,12.27,12.06,4.57,7.43,13.3,8.48,20.49,11.39,11.93,4.83,22.55,10.76,29.25,22.25,1.41,2.43,1.13,4.6.33,7l.08-.07c-6.85-3.61-8.35-12.09-14.73-16.12-.91-.57-1.45-2.28-2.77-1.35-.55.38-.47,1.77-.52,2.71-.08,1.5.14,3-.07,4.49-.29,2.09,1.38,5.44-1.8,5.89-2.72.38-3.78-3.49-3.72-5,.58-14.27-9.35-17.53-20.21-19.83-3.53-.75-6.17-2-7.81-5.55-.69-1.47-2.88-2.24-4.92-3.71,1.11,10.69,8.69,17.07,12.68,25.29.94,1.92,3.52,4,.38,5.85-2.58,1.5-4.2-1.2-5-2.85-5.32-11-15.75-19.94-13.64-33.95.39-2.57-2.34-3.6-4-3.57-5,.09-9.26-1.9-13.66-3.86-.4,2.16.63,4,.82,5.7.38,3.38,5.08,7.49-1.58,10.76-2.37,1.17-.2,6.91,1,9.67,4.95,11.78,11.39,22.61,26,24.21,6,.66,11,3.51,15.53,6.88,5.91,4.36,11.21,9.6,18.67,11.29,4.31,1,2.55,5.22,4.31,7.58,3.41,4.59,6.61,9.33,10,13.93,1.11,1.5,1.79,3.16.19,4.28-1.09.76-2.28-.1-3.58-1.33-5.28-5-8.71-11.08-12-17.33-.75-1.4-1.23-3.61-3.36-2.9-2.68.9-.46,2.67-.23,4a41.1,41.1,0,0,1,.93,4.29c.12,2.09.28,5-2.25,5.24s-2.28-2.91-2.53-4.51c-2-12.77-8.62-20.87-21.84-23.41-3.58-.69-6.52-4.17-11.17-3.53,5,6.83,15.19,9.44,14.84,19.76ZM82.88,82.77c-2.79-6.18-8.75-7.87-14.36-10C67.14,72.3,66,71.91,66,70.3c.1-2.16,1.9-1.39,3-1.46,7.36-.43,11.58,5.36,17,8.72,2,1.24,4.66,2.47,4.56-.66C90.44,70.61,89,64.36,88,58.12c-.29-1.74-1.73-2.06-3.29-2.49-8-2.17-15.93-4.62-23.94-6.74-2.6-.69-4.44-.3-3,3.41a72.88,72.88,0,0,1,4.36,15.44c1.14,7.63,3.69,15,14.1,14.08,2.2-.2,4.49.55,6.74.87-1.62,7.46-6.57,2.28-10,2.49-1.63.11-3.48-1.63-4.08,1.46-1,5.28,2.68,9.33,7.87,10.3,6.17,1.17,12.7,1,18.48,4,1.11.57,2,1.45,1.5,2.77-.79,2-1.87.2-2.78,0-2.86-.59-5.67-1.55-8.55-1.86s-7.64-.76-8,.27c-1.43,3.57,2.89,4.91,4.75,7.24,2.38,3,6,2.12,9.21,2.43,4.11.39,8.76-.21,12,4.51a13.83,13.83,0,0,0-3.08.4c-1.78.76-4.16-2.85-5,.07-.49,1.7,2.26,3.24,4.22,4.26,5.74,3,11.63,5.31,18.3,4.68,2-.19,4.47,2.69,5.78.16s-1.15-4.73-2.81-6.83c-9-11.42-20.85-20.15-30.25-31.21A15.18,15.18,0,0,0,82.88,82.77ZM198.79,44.9c2.69-4.08-1.77-7.61-.92-11.59.17-.8.4-2.24-1-2.27A1.83,1.83,0,0,0,195,33.38c1.32,3.81.58,8.33,3.89,11.45-5,3.43-5.1,8.92-6,14.08a1.32,1.32,0,0,1-.21.45c-.65,1-1.37,2.27-.26,3.11,1.31,1,2.48-.07,3.39-1.1a96.44,96.44,0,0,0,6.71-7.89c.85-1.21,2.44-2.48,2.85-2,1,1.11.56,2.63-.54,4-3.8,4.63-8.14,9.22-11.19,14-6.12,9.56-11.79,19.36-18.94,28.27-2.18,2.71-3,6.75-1.2,9.77,1.71,2.84,5,1.26,7.66.35,1.22-.43,2.58-.51,3.74-1,14.62-6.83,19.21-21,23.76-34.45,5.25-15.61,5.23-32.36,8.14-48.52.15-.86,0-2.3-.59-2.66-1.12-.74-1.93,0-2.6,1.26-3.46,6.45-7.31,12.7-10.48,19.28C202,43.83,201.38,45.29,198.79,44.9Zm-40,28.37c-1.33-11.23-4.33-22-10.59-31.8-.54-.85-.8-1.81-2.11-1.6-1.48.23-1,1.43-1.25,2.28-1.87,5.32-3.8,10.62-5.75,15.91-.5,1.34-.89,3.16-3,2.24-1.72-.76-.82-2-.42-3.29,2.08-6.84,4-13.73,5.91-20.64.93-3.38-.74-6-3.57-7.31-3.31-1.52-2.82,1.75-3.63,3.5-.68,1.49-1.25,4.14-3.65,3-1.83-.9-.61-2.82-.05-4.37,1.5-4.15,2.46-7.88-2.69-10.84-4.64-2.66-8.63-6.45-12.91-9.72-.76-.58-1.71-1.6-2.38-1.46-1.55.31-.89,1.88-.91,2.92-.54,25.5,2.46,50.29,15.18,73,3.57,6.4,8.79,11.52,14.24,16.31.92.81,2.59,2.17,4,1s-.34-2.34-.74-3.41c-1.87-5-3.85-10-6-15-.81-1.86-.85-3.35,1.06-4.1,1.61-.63,3.32-.36,4.13,1.63,2.37,5.85,4.78,11.68,7.1,17.55.38,1-.32,2.51,1.53,2.53s2.09-1.69,2.36-2.74C156.91,90.55,162,82.63,158.81,73.27Zm1.52,60.07c-4.32,1.78-5.82,3.51-7,7.58-1.33,4.55,1.18,14.91-10.12,11.93-1.53-.4-1.56,1.22-1.19,2,2.83,5.64,2.41,11.75,3,17.78,2.28,22.06,4.1,44.15,1.48,66.25-.3,2.53,2.22,8.14-3.51,8.54-3.86.28-3,1.65-1.85,3.8.91,1.71,2.17,3.38,2.53,5.21a261.94,261.94,0,0,1,5.2,46.89q.36,37.59,1,75.17c.09,5.43.68,10.85,1.24,16.25.15,1.5.92,4.13,1.55,4.17,2.13.15,3.35-1.86,4.17-3.6a10.52,10.52,0,0,0,1-4.7c-.17-4.6-1.09-9.2-.91-13.77,1-23.62-2.73-47.14-1.2-70.79.49-7.62-2.12-15.43-1.61-23,1.61-23.86-.63-47.91,3.68-71.64.54-3,1.27-5.25,3.69-7,1.11-.78,3.35-1.28,2.09-3.12s-2.63-.29-3.67.79c-2,2.07-3.56,2-3.93-1-.82-6.84-1.84-13.7-2-20.57a164.11,164.11,0,0,1,3-34.81C157.76,141.74,159.06,138,160.33,133.34Zm-51.42,83a55.91,55.91,0,0,0-9-16.46c-5.24-6.87-9.38-15.6-17.66-18.8C66.85,175.14,51,169.8,34,171.66c-2,.22-4.63-1.19-5.89,1.07-1.12,2,.28,4.13,1.36,6,9.77,17,23.6,29.94,40.35,39.79,13.77,8.09,29.19,5.47,44.09,6,.61,0,1.25-.68,1.88-1A11.16,11.16,0,0,0,114,221.2c-3.86-2.93-8.86-2.08-13.27-4.3-8.64-4.35-16.29-10.56-25.93-13.18-9.42-2.57-7.46-12.11-9.72-18.92-.26-.78-3.12-3.58.67-4.05,2.33-.29,3.54,1.25,4.1,3.46,1,3.77,1.85,7.58,3.16,11.24,1,2.74,3.69,5.55,6.12,4.64s-.36-4-.56-6.09c-.09-.91-.9-1.73-1.29-2.63-.55-1.27-.8-2.71.25-3.72a3.34,3.34,0,0,1,2.64-.8c1.47.38,1.43,1.86,1.76,3.19,1,3.93,2.2,7.82,3.56,11.63.86,2.43,2.85,2.94,4.27.76,2.15-3.29,3.23-1.67,4.23.56C96.89,209.52,101.91,213.65,108.91,216.34Zm62.73-26.17c7.09-10.64,18.23-6.49,27.34-8.25,13-2.5,25.19-6,35.56-14.45,3.53-2.87,6.83-6,10.14-9.16,1.77-1.68,2.8-3.94,2.06-6.28-.83-2.65-3.4-.93-5.13-1.39-2.25-.6-5.47,1.47-6.72-1.37-2.13-4.86-4.57-1.73-6.36-.33-1.34,1.05-2.7,2.05-4,3.07-7.76,6-17.23,9.3-24.57,16-4.23,3.86-9,7.16-13.46,10.73a4,4,0,0,1-4.64.6c-1.31-.87,1.15-1.48,1-2.61-.92-5.59,2.23-10.85,1.89-18.16C178.3,169.24,177.84,180.57,171.64,190.17Zm-5.71,220.12c0-11.87-1.53-13.09-11.58-6.56-8.71,5.66-10.93,15.72-13.36,25.13-.92,3.54-.21,8.81,2.68,9.77a11,11,0,0,0,11.9-3.71C160.93,427.59,167,420.38,165.93,410.29ZM154.8,468.44c-1,8.69-3.07,17.27-1.36,26.11.41,2.15,1.72,6.25-1,6.29-8.68.15-1.32,2.4-.7,3.71s1.92,2.89,2,4.38c.8,17.84,1.54,35.69,2,53.55.09,3.38-2.51,7.91-.36,10,4.42,4.36,4,10.05,6.11,15.26C161.45,547.69,157.27,508.13,154.8,468.44Zm-6.9-333.57c1.32-8-2.36-15.56-2.34-23.56,0-3.19-4.77-4.61-8.15-5.49-1.33-.35-1.66.89-1.45,2,1.86,9.45-.34,19.78,6.49,28.2,2,2.45,1.29,8.16,4.63,7.93C149.18,143.75,147.31,138,147.9,134.87Zm101.76,12.79c2.72,0,4.94.32,5.18-2.61.1-1.21,0-2.33-1.69-2.41-2.23-.1-5.52.05-4.93-3s3.47-1.72,5.7-1c1.72.54,3.13-.08,4-1.94s1.3-3.48.59-5.2c-.21-.5-2-.93-2.59-.6-4.92,2.74-11.35,2.23-15.32,6.93-2,2.31-3.68,4.82-5.51,7.25a23.07,23.07,0,0,0,8.44,1.79A38.43,38.43,0,0,1,249.66,147.66Zm-33.57-11.83c.85,5.59-1.72,11.27.82,17.57,3-5.92,1.4-11.83,3.78-17,.62-1.36,1.6-5-1.13-5.48-3.31-.6-6.28,1.51-8.38,4.21a6.52,6.52,0,0,0-1.1,3.19c-.62,5.69-1.12,11.39-1.81,18.74C212.92,149.57,212.36,142,216.09,135.83ZM195.3,155.74c4-2,2-7.46,5.44-6.55,2.55.68.62,5,1.12,7.58a22,22,0,0,1,.19,3.07c3-6.05,2.31-12.85,3.73-19.26.19-.82-.08-2.27-.62-2.58s-1.89.07-2.67.51C195.79,142.31,197.5,149.31,195.3,155.74ZM98.82,79.12c-.54-4.36-1.2-10.37-2.1-16.34-.16-1.07-.47-2.93-2.18-2.73a2.2,2.2,0,0,0-1.63,2.69c1,7.61,2,15.21,3.06,22.8.06.44.8,1,1.3,1.1,1,.21,1.54-.38,1.55-1.38C98.83,83.76,98.82,82.27,98.82,79.12Zm88.06-11.89.65-.15c-1.54-6.22-3.06-12.45-4.62-18.67-.32-1.26.84-3.25-1.53-3.54-.73-.09-2,.13-2.21.59-.66,1.41,0,2.78.57,4.21a52.66,52.66,0,0,1,4.17,18.91c0,1.7-1.33,4.83,1.4,4.89,3,.06.94-3.13,1.55-4.76A4.57,4.57,0,0,0,186.88,67.23Zm-25,524-2.8,0c0,9.07,0,18.14.08,27.21,0,.48,1.12,1,1.72,1.43.34-.47,1-.93,1-1.4C161.89,609.36,161.87,600.3,161.87,591.24Zm-5.05-476.4h.11c0,1.82-.11,3.63,0,5.43s2.09,1.83,2.31,1c1.08-4.08,4.46-8,2-12.44-.88-1.54-1.51-4.9-4.26-3.87s-.41,3.24-.2,5A40.52,40.52,0,0,1,156.82,114.84Zm34.05,34c-2.46,1.33-3.34,3-4.44,4.61-2.36,3.49,1.74,5.49,1.65,8.4,0,.11,1.24.54,1.53.32,2.25-1.73,1-4.24,1.22-6.41S190.87,151.56,190.87,148.88ZM167.35,60.09c1.26,2.91,2.56,6.28,4.23,9.47.27.52,1.63-.89,1.19-1.39-3.13-3.55.13-9.23-3.68-12C167.6,55.14,168.4,58.34,167.35,60.09Zm58.6,82c-1.09-.89,1.84-3.66-.66-3-1.56.4-2.48,4-3.35,6.26-.51,1.32.48,3.39,1.61,3.06C226.56,147.47,225.82,144.52,226,142.07Zm-49-87.47c-.34-2,1-5.11-1.81-5.46-2.24-.27-1.15,2.53-1.2,3.89-.06,2-1,5,1.74,5.37C178,58.67,176.27,55.83,176.92,54.6Zm56,76.56c-1.15,3.31-2.11,5.94-2.95,8.61a1.27,1.27,0,0,0,1.08,1.8c.9.13,1.85-.1,1.72-1.12C232.39,137.55,235.15,134.89,232.91,131.16ZM188.42,52.25c.88-6.33.07-10.35-1.7-15.53C184.67,42.51,187.83,46.15,188.42,52.25ZM174.77,590.69c-2-.88-1.54-4.43-4.79-5.05-1.06-.2-1.26.5-1,.9a46.14,46.14,0,0,0,4.59,6.3C174.13,593.44,174.87,592.33,174.77,590.69Zm19-423.17c1.06-3,4-5.42,2.68-9.54A13.52,13.52,0,0,0,193.8,167.52ZM103.55,93.6c1.52,0,1.23-1.14,1.31-2,.13-1.53,0-3.17-1.7-3.59-1.4-.36-1.23,1.07-1.31,2C101.72,91.47,101.88,92.89,103.55,93.6Zm64.84-5.19c1,3.15-.52,5.53,1.91,7a1.6,1.6,0,0,0,1.42-.58C172.48,92.26,170.63,91,168.39,88.41Zm-36.5,260c-.12-.63.23-1.79-1.21-2-1.67-.2-1.9.9-1.76,2.13.11,1-.65,2.62,1.17,2.56C131.28,351.12,131.92,350,131.89,348.42ZM165.74,73.9c-.8-2.54,1.74-5.66-1.43-7.85C163.07,69,164.18,71.51,165.74,73.9Zm-43.85,32.61c0-1.15-.4-1.87-1.7-1.73s-1.26,1.19-1.28,2.15c0,1.17.44,1.84,1.7,1.73C122.05,108.54,121.84,107.45,121.89,106.51Z"/><path class="cls-1" d="M191.83,367c-.08,1.94-2,3.37-2.05,3.09-1-4.37-7.12-.68-8-5.29-.55-2.94-2.59-1.05-3.8-.4-1.69.93-2.87,1-4.24-.59-1.89-2.17.27-2.89,1.22-4a49.65,49.65,0,0,1,4.24-4.22,8.18,8.18,0,0,1,2.13-1C183.66,359.84,188.1,363.34,191.83,367Z"/><path class="cls-1" d="M99.86,617.26c.68-5.36,10.35-14.68,15.17-15,.79-.06,2.24.65,2.35,1.21.19,1-.11,2.59-.79,3-5.4,3.45-10.65,7-14.24,12.49-.29.43-1.11.51-1.68.75C100.33,618.68,100,617.67,99.86,617.26Z"/><path class="cls-1" d="M87.46,356.4c2-.15,4-.06,3.39,2.71-.7,3.27-2.49,6.45-5.73,7-3.44.57-3.93-3.39-4-5.53C80.87,356.4,84.63,356.75,87.46,356.4Z"/><path class="cls-1" d="M97,532.3c-1.82,5.28-3.68,10.15-8.22,13.3a2.48,2.48,0,0,1-2.23.1c-.94-.66-.59-1.71-.06-2.63,2.14-3.78,4.2-7.6,6.44-11.31a3,3,0,0,1,2.38-1.3C96,530.56,96.48,531.73,97,532.3Z"/><path class="cls-1" d="M125.84,388.38c1.77,1.12,2.49-.91,3.66-1.4,1.65-.68,3.37.51,3.08.85-3.36,4,.77,7.63.15,11.33-.21,1.26-.65,3.14-2.63,3s-2.46-1.73-2.12-3.26c.87-3.88-2.42-6.86-2.06-10.58Z"/><path class="cls-1" d="M150.37,684.17a29.52,29.52,0,0,0-4.62,17.93c.07,1.52-.38,3.66-2.43,3.58-2.29-.08-1.55-2.38-1.31-3.52C143.22,696.26,141.14,689,150.37,684.17Z"/><path class="cls-1" d="M179.62,392.06c3.23,2.52,3.83,6.12,5.14,9.22.64,1.49-1,3.55-2.26,2.8-3.17-1.91-4.29-5.6-5.53-8.9C176.18,393.08,178.89,393.53,179.62,392.06Z"/><path class="cls-1" d="M173.9,416.5c.14-2.35,1.11-5,3.8-5.85,1.72-.55,2.76,1.91,2,3-1.7,2.36,1.27,7.14-3.56,7.48C173.65,421.29,174,418.71,173.9,416.5Z"/><path class="cls-1" d="M103.5,381.33c3.77.5,2.23,4.59,4,6.61.86.95-.85,2.62-2.22,2.23-3-.84-3.89-3.52-4.39-6.24C100.61,382.22,101.14,380.94,103.5,381.33Z"/><path class="cls-1" d="M184.85,427.81a8.55,8.55,0,0,1-4.75,5.33c-1.1.4-2.54-1.38-1.93-2.08,1.83-2.06.43-6.3,4.54-6.7C185,424.13,184.9,425.72,184.85,427.81Z"/><path class="cls-1" d="M67.08,451.22c-2.6-.93-4.11-3.23-5-5.88-.48-1.38.4-3.16,1.8-2.77,2.89.8,3.78,3.76,4.91,6.19C69.16,449.6,69.26,451.19,67.08,451.22Z"/><path class="cls-1" d="M233.84,464.83c0,1.9.28,4.26-2.24,4.24s-2.59-2.42-2.71-4.36c-.13-2.15.71-3.52,3.08-3.44C234.8,461.36,233.46,463.6,233.84,464.83Z"/><path class="cls-1" d="M72.11,458.64c-.46-3.45,1.4-4,2.84-4.2a3.06,3.06,0,0,1,3.66,3A3.86,3.86,0,0,1,75.2,461,3,3,0,0,1,72.11,458.64Z"/><path class="cls-1" d="M54.87,370.24c.14,2.29-1.72,2.74-3.2,3a3,3,0,0,1-3.47-2.77,3,3,0,0,1,3.27-3C53,367.59,54.74,368.11,54.87,370.24Z"/><path class="cls-1" d="M267.76,380.32c2.39.43,2.83,2.08,3.05,3.64.27,1.87-.48,3.33-2.65,3.3s-2.58-2.15-3-3.48C264.66,381.85,266.82,381.33,267.76,380.32Z"/><path class="cls-1" d="M177.84,385c.06,2-.73,3.08-2.85,3.28a2.46,2.46,0,0,1-2.76-2.72,4.25,4.25,0,0,1,3.74-4C177.82,381.47,177.84,383.52,177.84,385Z"/><path class="cls-1" d="M126.73,372.38c3.21.09,4.19,1.06,4.14,3.1a2.51,2.51,0,0,1-2.68,2.8c-1.85.08-3.48-.48-3.17-2.65C125.23,374.16,125.73,372.36,126.73,372.38Z"/><path class="cls-1" d="M201.84,379c-.06,1.59.42,3.53-2.29,3.3a2.55,2.55,0,0,1-2.66-2.85c0-2.12,1.19-3.69,3-3.8S201.79,377.49,201.84,379Z"/><path class="cls-1" d="M199.8,355.52c0,1.74-.84,2.85-2.37,2.7-1.76-.18-3.6-.66-3.5-3.16.06-1.41,0-2.68,2-2.59A4.11,4.11,0,0,1,199.8,355.52Z"/><path class="cls-1" d="M117.82,475.24c0,1.73-.72,3-2.58,2.84-2.19-.14-2.43-1.79-2.37-3.58,0-1.6.42-3.35,2.28-3A3.44,3.44,0,0,1,117.82,475.24Z"/><path class="cls-1" d="M57.08,432.31c1.31,1.16,3.79,1,3.51,3.2-.15,1.23-.74,2.92-2.84,2.74s-2.92-1.2-2.88-3.22A2.66,2.66,0,0,1,57.08,432.31Z"/><path class="cls-1" d="M72.85,494.3c-1,1.28-1,3.56-2.94,3.59s-2.53-2.16-2.78-3.55,1.28-2.87,2.72-2.92S72.26,492.85,72.85,494.3Z"/><path class="cls-1" d="M125.92,388.3c-2.14-.17-4.91.75-5-2.91-.06-1.76.76-3.13,2.49-2.89,3.84.53,2,3.74,2.47,5.88Z"/><path class="cls-1" d="M92,416.47c0-1.63.47-3.07,2.38-3.08s2.56,1.24,2.53,3c0,2.06-1.15,2.94-3.15,2.92S92,417.74,92,416.47Z"/><path class="cls-1" d="M206.65,403.31c-.32.81-.35,2.82-2.8,2.94-1.55.07-2.12-.79-1.88-2.14.31-1.71.46-3.66,2.95-3.72C206.42,400.35,207.06,401,206.65,403.31Z"/><path class="cls-1" d="M246.85,481.39c.06,2.37-.59,3.64-2.44,3.74-1.61.08-2.36-1-2.45-2.51s.21-3.11,2.13-3.31A2.36,2.36,0,0,1,246.85,481.39Z"/><path class="cls-1" d="M58.88,377.58c.22,1.76-1.11,1.79-2.54,1.78-1.58,0-3.34-.25-3.18-2.14a3.22,3.22,0,0,1,3.11-2.73C58.14,374.4,58.87,375.59,58.88,377.58Z"/><path class="cls-1" d="M219.84,374.43c-.21,1.16.51,3-1.67,2.82s-2.23-2-2.25-3.7c0-1.44.35-3,1.9-2.9C220.1,370.76,219.8,372.81,219.84,374.43Z"/><path class="cls-1" d="M250.87,360.11c-.4,1.82-1.64,2.28-3.28,2.19-2.09-.11-1.59-1.68-1.65-2.89-.07-1.43.45-3,2-2.73A3.56,3.56,0,0,1,250.87,360.11Z"/><path class="cls-1" d="M255.78,391.9c.24,2.11-1,2.33-2.71,2.39-2.27.07-2.14-1.35-2.2-2.88-.08-1.86,1-2.05,2.47-2.1C255.24,389.25,256.08,390,255.78,391.9Z"/><path class="cls-1" d="M201.83,396.3c0,1.43-.43,3-2,2.8s-3.24-.8-3-3.09c.18-1.51.87-2.54,2.41-2.6C201.18,393.33,201.78,394.62,201.83,396.3Z"/><path class="cls-1" d="M87.45,425.43c2.16-.32,2.39.71,2.39,2,0,1.73,0,3.51-2.25,3.75a2.27,2.27,0,0,1-2.65-2.33C84.82,426.86,86.64,426.29,87.45,425.43Z"/><path class="cls-1" d="M188.86,386.13a3.68,3.68,0,0,1-2.83,3c-1.6.24-2.08-1.27-2.09-2.72,0-1.7.57-3,2.49-3C188,383.45,188.8,384.43,188.86,386.13Z"/><path class="cls-1" d="M12.85,350.45c.08,2.19-1.44,1.88-2.72,1.88-1.54,0-3.32-.28-3-2.21.22-1.28,1.47-2.91,3.13-2.48C11.44,347.94,13.31,348.43,12.85,350.45Z"/><path class="cls-1" d="M279.85,352.19c-.11,1.94-.69,3.24-2.62,3.12-1.67-.1-2.07-1.79-2.12-2.81a2.94,2.94,0,0,1,2.79-2.89C279.52,349.52,279.75,351.11,279.85,352.19Z"/><path class="cls-1" d="M95.8,402.29c0,1.46-.41,2.67-2,2.93A2.26,2.26,0,0,1,91,403.16c-.27-1.87.89-2.67,2.63-2.77C95,400.3,95.89,400.71,95.8,402.29Z"/><path class="cls-1" d="M4.9,345.86c-.1,2.28-.79,3.48-2.66,3.47A2.14,2.14,0,0,1,0,347.15c-.11-1.86,1-2.63,2.76-2.7C4.2,344.39,5,344.9,4.9,345.86Z"/><path class="cls-1" d="M115.78,443.27c-2.1-.22-2.83-1.26-2.89-3,0-1.47.63-1.93,2-2,2.08-.09,2.36,1.59,2.65,2.82S116.6,442.94,115.78,443.27Z"/><path class="cls-1" d="M239.75,382.26c-2,.05-1.75-1.41-1.83-2.7-.12-1.72.71-2.3,2.33-2.19s1.54,1.32,1.58,2.45C241.88,381.27,241.63,382.46,239.75,382.26Z"/><path class="cls-1" d="M62.84,350.42c2.12-.06,4,.16,4,3,0,1.51-.65,2.14-2.05,2-3.67-.49-1.25-3.34-1.9-5Z"/><path class="cls-1" d="M93.81,380.78c.08,1.42,0,2.6-2,2.56-1.53,0-2-.78-1.9-2.15s.64-2.54,2.22-2.69C93.9,378.32,93.78,379.63,93.81,380.78Z"/><path class="cls-1" d="M208.89,457.85c-.06,1.13.08,2.44-1.67,2.27a2.21,2.21,0,0,1-2.28-2.54,2.32,2.32,0,0,1,2.61-2.28C209.33,455.37,208.72,456.85,208.89,457.85Z"/><path class="cls-1" d="M122.86,406.43c-.06,1.45-.57,2.77-2.19,2.62-.63-.06-1.5-1.28-1.66-2.09-.3-1.61.82-2.39,2.33-2.51S122.85,405.38,122.86,406.43Z"/><path class="cls-1" d="M65.81,386.74c-.07,1.27-.59,2.4-1.92,2.42S62,388,62,386.78s-.05-2.45,1.69-2.3A2.29,2.29,0,0,1,65.81,386.74Z"/><path class="cls-1" d="M202.83,577.12c2.14-.13,4.15.09,3.89,2.91-.06.67-1.35,1.86-1.86,1.75-2.78-.57-1.81-2.92-1.94-4.74Z"/><path class="cls-1" d="M111.86,367.39c1.07,0,2,.15,1.91,1.58a2.26,2.26,0,0,1-2.11,2.31c-1.29.16-1.69-.58-1.73-1.77C109.88,368.12,110.3,367.27,111.86,367.39Z"/><path class="cls-1" d="M81.34,446.1c-1,.85-1.63,1.67-2.43,2-1,.37-2,0-2-1.39,0-1.17-.11-2.57,1.66-2.24C79.42,444.59,80.15,445.35,81.34,446.1Z"/><path class="cls-1" d="M248.84,554.14c2.41-.06,3.07,1.35,3,3.45-.05,1-.67,1.69-1.51,1.41-2.75-.92-.85-3.29-1.37-4.93Z"/><path class="cls-1" d="M208.35,481.17c-1.39,0-1.72-1-1.32-1.91.31-.75,1.19-1.72,1.85-1.74s1.71,1.09,1.74,1.74C210.69,480.51,209.58,481.08,208.35,481.17Z"/><path class="cls-1" d="M244,407.94c-1.12.46-1.87.82-2.64,1.07-1.25.41-1.37-.53-1.36-1.34s-.39-2.22,1.13-2.12C241.72,405.6,242.28,406.48,244,407.94Z"/><path class="cls-1" d="M119.57,28.74c5,4.35,6.53,10.13,8.93,15.39.74,1.63,1.26,4.81-.48,5.19-2.29.49-3.26-2.06-3.16-4.46.12-3.15-2.68-4.72-4-7.1C119.43,35.07,117.89,32.36,119.57,28.74Z"/><path class="cls-1" d="M131.83,53.43c-.06,1.29-.06,2.36-1.2,2.1-.63-.15-1.63-1.26-1.51-1.6.27-.76,1.14-1.32,1.76-2Z"/><path class="cls-1" d="M50,179.73c.56-1.07-1.06-5,1.81-3.79,4.31,1.87,4.58,7.49,6.78,11.39.17.31-1,1.38-1.55,2.09C54.91,186.17,48.74,186,50,179.73Z"/><path class="cls-1" d="M43.13,177.18l2.57,3.44c-.47.33-.94.93-1.4.92A2.16,2.16,0,0,1,42,179C42.07,178.51,42.57,178.07,43.13,177.18Z"/></g></g></svg>