<svg xmlns="http://www.w3.org/2000/svg" viewBox="0 0 966.02 1351.31"><defs><style>.cls-1{fill:#f3933c;}</style></defs><g id="Layer_2" data-name="Layer 2"><g id="Layer_1-2" data-name="Layer 1"><path class="cls-1" d="M20,0c0,6.32.06,12.64-.08,19-.07,3.71.9,6.21,5.2,6.05,1.51-.06,2.86.66,2.58,2.22-.22,1.25-.73,2.82-2.83,2.75-5.52-.19-11-.87-16.58-.06-1.39.21-3-.23-3-1.77,0-1.23.36-3.11,2.39-3.12C9.86,25,11,24.07,11,21.74c0-7.26,1.8-14.44,1-21.74Z"/><path class="cls-1" d="M847.19,501.66c-3-3.81-7.71-5.4-11.33-8.48-2-1.67-4.38-.92-5.35,2.45-6.41,22.06-14.88,43.4-22.78,64.94-2.91,7.93-4.65,16.24-6.78,24.43-2.9,11.12-7.4,21.81-11.13,32.69-3,8.6-6.4,17-9.21,25.66-4.89,15-10.37,29.85-15.74,44.71-6.69,18.53-13.65,37-20.25,55.53-5.73,16.09-11,32.35-16.69,48.45-7.23,20.41-14.7,40.73-22,61.1-5.65,15.62-11.45,31.2-16.86,46.9-7.15,20.76-14.8,41.34-22.09,62.05-5.09,14.43-10.2,28.89-15.56,43.25-5.68,15.22-10.69,30.7-16,46-6.09,17.51-11.14,35.49-18.65,52.37-7.71,17.34-12.74,35.51-19.5,53.12-9.38,24.46-17.88,49.25-26.7,73.93q-11.76,32.92-23.36,65.92c-4.69,13.35-9.11,26.8-13.84,40.14A129.07,129.07,0,0,1,527.9,1349c-1.91,4-5.57,1.6-8.4,2-3.17.4-4.19-2.57-4.87-4.78-6.25-20.21-12.25-40.49-18.44-60.72-7.52-24.53-15.21-49-22.73-73.55-6-19.75-11.91-39.56-17.95-59.31-3.42-11.2-7-22.34-10.55-33.51-6.49-20.58-12.93-41.17-19.47-61.73-4.88-15.34-10.13-30.56-14.8-45.95-6.35-20.87-12.21-41.88-18.46-62.77-4.52-15.12-9.29-30.16-14.05-45.2-6.67-21.08-13.44-42.13-20.13-63.2a15.77,15.77,0,0,1-.39-2.93c-.49-4.4-2.31-7.35-7-8.9-26.13-8.71-52.06-18-78.26-26.47-16.72-5.41-33.09-11.82-50-16.83-12-3.56-23.47-8.66-35.26-12.84-16.06-5.7-32.24-11.1-48.31-16.77-13.37-4.72-26.54-10-40-14.37C89,737.88,79,735,69.43,730.68a5.32,5.32,0,0,0-2-.21c-11.75-.35-23.63-1.88-35.22-.67-8.55.9-17-2.4-25.38.54-1.7.6-2.86-1-3.49-2.24-.92-1.88,1-2.74,2.12-3.34s2.59-.29,3.92-.29c12.48,0,25.05-.92,37.44.21,17.14,1.55,32.2-4.67,47.66-10,12-4.18,24.07-8.08,36.07-12.21,11.71-4,23.38-8.16,35-12.29,22.14-7.85,44.22-15.83,66.39-23.57,20.75-7.24,41.57-14.29,62.41-21.3,3.19-1.07,3.88-2.6,2.85-5.76-6.26-19.14-12-38.45-17.9-57.71-3-9.89-7.56-19.55-9.18-29.72-1.84-11.5-11.11-12-18.55-14.38-35-11.07-69-25.09-103.92-36.26-24.83-7.94-49.19-17.32-74-25.24a56.09,56.09,0,0,0-17.34-2.57c-16.48-.06-33,0-49.45-.08-1.32,0-3.8,1.2-3.74-1.66,0-2.26,2.08-2.18,3.77-2.18,19.15,0,38.34-.75,57.43.31,10.08.56,20.09,3.72,29.81,7.24,17.76,6.44,35.9,11.87,53.53,18.63,16.43,6.29,33.46,10.76,49.7,17.69,14,6,28.85,10,43.3,15,7.53,2.59,15,5.34,22.57,8,1.69-4.25-.74-7.8-1.81-11.15-4.67-14.51-8.17-29.37-13.47-43.7-4.76-12.87-9-25.93-13.08-39-6.57-21.22-12.59-42.62-19.3-63.8-1.41-4.47-3-8.9-3.86-13.49-1.26-7-7.29-7.85-12.24-9.62C174.8,347,150,338.36,125.23,329.73c-12.62-4.39-25.48-8.17-37.89-13.08-20.77-8.2-42.37-8.82-64.07-7.55-5.47.32-11-.92-16.46.46-1.61.41-4.48-.49-4.46-2.82,0-2.15,2.14-2.94,4.41-2.94,18.82.05,37.66-.55,56.43.32,7.27.34,14.48,3.72,21.56,6.15,24.35,8.37,48.55,17.16,73,25.34,15.44,5.17,30.71,10.77,45.9,16.6.95.36,2,1,2.68.06a3.52,3.52,0,0,0,.3-2.81c-5.88-16.19-9.6-33-15.15-49.31-2.65-7.78-2.59-16.07-5.44-23.81a111.5,111.5,0,0,1-4.55-16c-1.29-6.2-7.77-6.68-12.43-8.32-19.55-6.83-39.3-13.07-58.94-19.67C96,227.66,82,222.73,68,217.89a21.73,21.73,0,0,0-7.27-1.08c-17.15.07-34.3,0-51.44,0a31.15,31.15,0,0,1-4-.09c-1.84-.25-2.36-1.57-2.28-3.27s1.38-1.57,2.51-1.58c20.15,0,40.38-1.11,60.4.45,10.6.82,20.88,6.13,31.21,9.67,15.9,5.46,31.7,11.17,47.57,16.72q14,4.92,28.16,9.63a5.09,5.09,0,0,0,3.31.07c1.07-.47.5-1.67.19-2.63-4.65-14-7.91-28.49-13.18-42.33-1.34-3.52,2.19-5.32,4.31-6.36,12.12-5.88,23.6-13.16,36.67-17,1.36-.4,3.48-.31,3.3-2.21-.13-1.43-2.05-1.68-3.42-2.18-19.44-7.12-38.78-14.48-58.28-21.4-24.39-8.66-49-16.74-73.29-25.61a52.19,52.19,0,0,0-18.81-2.91c-15.31.1-30.63,0-45.95,0-1.89,0-4.51.61-4.6-2.33s2.41-2.6,4.39-2.6c19,0,38-.66,56.92.32,7.52.39,14.91,4.22,22.24,6.79,19.68,6.88,39.3,13.92,58.94,20.9,13,4.63,26.2,8.84,39,14,7.38,3,15.19,5,22.21,8.64,8.81,4.54,17,2.81,25.55,0a381.53,381.53,0,0,1,43.06-10.73c11.36-2.27,22.72-4.64,34.17-6.35,16.18-2.43,32.25-5.73,48.65-6.66,3.38-.19,6.73-.93,10.12-1.42.09-2-1.65-2.12-2.65-2.45-23.93-8.08-47.92-16-71.85-24.07-32.43-10.94-65-21.6-97.17-33.12Q164.91,75.48,133,64.55c-22.3-7.69-44.64-15.3-66.93-23A14.15,14.15,0,0,0,61.2,41c-17.81,0-35.63,0-53.44,0-2.08,0-5,.49-4.6-2.82.32-2.72,2.87-3.85,5.31-3.07,5.56,1.8,11.2.75,16.78.89,8.32.22,16.71.72,25-.08,15.06-1.47,28.25,4.71,41.8,9.24,30,10,60,20,89.62,30.93,24.17,8.92,48.71,16.7,73,25.22,23.37,8.2,47,15.55,70.42,23.72,16.77,5.85,33.92,10.7,50.2,17.88,7.2,3.18,14.31,1.84,21.34.79,5.38-.8,10.78-1.14,16.15-1.59,12.83-1.07,25.72-1.35,38.57-2.2a13.52,13.52,0,0,0,9.8-5.05c2.17-2.63,4.94-5.56,8.35-3.68,3.76,2.08,7.87,5,7.85,10.05,0,4.53.18,6.79,6,7.2,4,.28,7,5.27,8,9.68,1,4.7-.83,8.71-5.43,11-3.23,1.62-6.42,3.3-9.79,5,1.74,2.44,4.32,2.07,6.45,1.71,12.06-2,24.18-.69,36.27-.91,14.15-.26,28.35.64,42.43-.34,7.85-.54,15.29,2,22.91,1.24,12.7-1.33,25.3.32,37.85,1.31,13,1,25.9,2.32,38.9,2.73a21.87,21.87,0,0,0,2.59-.3c-3.26-2.94-7.05-2-10.14-2.48a158.3,158.3,0,0,0-21.24-1.21c-9.24-.09-17.7-2-25-8-4.46-3.68-5.17-10-1-14.14,2.76-2.73,5.06-6.46,9.83-5.62,1.87.33,1.31-.76,1.21-1.66-.52-5.09,4.7-13.42,9.3-15.14a4.39,4.39,0,0,1,5.25,1.66c6.56,9.73,17,9.06,26.61,9.85,15.87,1.3,31.66,3.28,47.49,4.84q21.57,2.13,42.92,5.51c17.52,2.78,35.16,5.25,52.35,10.07,12.22,3.43,24.85,5.43,37.09,8.82,16.34,4.51,32.55,9.39,48.34,15.78,13.95,5.64,27.66,11.57,40.77,19,4.27,2.41,5.42,5,3.6,9.49-6.82,16.76-11.8,34.2-18.3,51-8.17,21.14-14.69,42.82-23,63.92s-14.6,43.2-22.21,64.69c-9.62,27.21-19.72,54.25-29.53,81.38-3,8.34-2.56,8,6,14.85,10.5,8.42,22.39,14.78,32.74,23.37,4.27,3.54,9,6.47,13.59,9.65a10.12,10.12,0,0,0,6.13,1.48q26.71-.09,53.44,0c2,0,5.08-.88,5,2.35-.08,2.64-2.88,2.57-5,2.57-11.82,0-23.65.1-35.47,0-4.69-.06-9.49.28-14,.52-11.75.62-18.49-7.38-26.8-12.7-8.91-5.7-16.68-13.09-26.29-17.75ZM193.4,226.53l4.39-2.7c2.81.12,5.46-.13,7-3,4.78.17,8.66-2.64,12.9-4.11,10.72-3.69,21.65-6.66,32.44-10.08,7.47-2.38,15.63-2.55,22.5-6.88,8.5-.16,16.5-2.45,24.31-5.58-8.09,1.86-16.65,1.77-24.25,5.66-5.55-.81-10.55,1.44-15.66,2.91-11.49,3.3-23.08,6.36-34.34,10.32-6.07,2.13-12.73,3.33-17.83,7.83a8.41,8.41,0,0,0-7,3,5.66,5.66,0,0,0-5.15,1.85,2.35,2.35,0,0,0-2.39,1.26.75.75,0,0,0,.24.64A2.23,2.23,0,0,0,193.4,226.53ZM495.55,365.82c7.63-1.65,15-2.21,21,4.34.86.94,2.67,1.25,2.86-.9.18-1.89,1.23-3.37,1.79-5.06.81-2.42.59-4.21-2.61-5a49.61,49.61,0,0,1-15.12-6.81c-2.18-1.45-4.31-1.24-4,2.23.35,4.38-2,7.5-4.61,10.51l-2.39,1.56c-8.33,1.27-15.1-.91-19-10.11-1.45,5.8-4.08,11.2-7,12.5-6.8,3.09-3.13,4.59.58,6.62,6.71,3.66,9.13,10.93,6.43,18.64-2.51,7.18-10.45,12.66-17,11.2-6.39-1.41-12.06-4.77-13.57-11.43-1.42-6.24-1.22-12.8,5-17.29,1.09-.78,2.58-1.65,2.36-4.11-6.34,1.73-8.53-4.71-13.48-7.2-.17,6.58-2.15,11.55-8.12,14.36-1.91.9-1.67,2.66.24,4.1,3.38,2.56,4.25,6.17,4.72,10.34.91,8-4.47,11.71-10.33,16.17,5.79.52,10.55-1.32,15.14-1.4,18.87-.35,37.58-3.25,56.44-3.25,9.6,0,19.16-.36,28.74-1,3.17-.21,3.6-2.24,2.65-3.79-2.77-4.53-.54-8.37.75-12.47a13.18,13.18,0,0,0,.39-4.4,2.31,2.31,0,0,0-2.63-2.37c-1.8.1-1.27,1.61-1.36,2.66-.36,4.62-1.46,8.8-4.62,12.56-4.93,5.89-11.4,5.22-18,5.93-10.2,1.1-18.43-12.42-16.8-21.34,1.14-6.24,5.29-10,9.17-14.21ZM431.9,323.43c.45.29.67,1.41,1.37.75.51-.49.1-1.21-.65-1.49-.17-.63-.33-1.27-.51-1.9-1.94-7,1.12-16.2,6.73-19.68,6-3.7,14.17-2.62,18.5.69,4.92,3.76,8.3,12.68,6.71,16.9-3,8-8.86,11.87-17.19,12.15-4.87.17-8-2.94-12.89-5.84,4.55,9.2,3.35,16.66-3.6,22.21s-14.56,4.44-22-1.77c3.58,14.35,2.62,18.32-5.85,25.7-5.18,4.51-.36,8.86,1.25,12,2.15,4.19,2.21-2.07,4.13-2.15a18.85,18.85,0,0,0,2.8-.82c3.66-.76,3.43-2.45,1.72-5.21-3-4.86-3.21-10.06.25-14.75,5-6.76,12.35-7.39,20.64-2.09-.05-10.89,4.1-20.15,14.79-22.84,12.3-3.09,21.44,2.78,25.53,16,2.13-4.6,4.28-8.27,8.06-9,6.53-1.33,3.22-4.19,1.34-6.44-12.68-15.13-20.88-32.52-26.64-51.25-1.37-4.46-3.68-8.62-5.56-12.91a7.54,7.54,0,0,0-1.38,4.64c-.08,8.23-6.4,13.29-14.48,11.6-1.14-.24-2.5-.62-3.23.45s.34,2.13.69,3.21a18.66,18.66,0,0,1-2.37,17.28c-2.72,4.05-6.5,6.52-10.65,9.08C424.45,318.44,428.56,320.06,431.9,323.43Zm309.33-72.56-.07-.07c-.19,1.54,1.22,2.27,1.72,3.43,1.76,4.13,4.34,7.85,2.72,13-2.25,7.19-5.64,12.72-13.45,14.7-1.45.36-5,1.25-1.58,4,6.85,5.39,9.18,12.62,7.14,20.67-2.15,8.48-8.82,12.7-17.13,14.11-2.88.49-2.63,1.23-1.05,2.91,1.92,2,4.25,3.72,5.38,6.42q4,9.54-3.89,17.46a16.56,16.56,0,0,1-17.3,3.4c-12-5-14.15-16.64-5.21-26,3.23-3.4,7.41-4.07,11.88-5.56-2.42-2-4.35-3.49-6.19-5.08a11.86,11.86,0,0,1-4-6.1c-3.11-12.15.29-19.81,12.9-25.2,1.48-.63,2.23-.9,2.14-2.52-.1-1.89-1.55-2.32-2.86-3-1.08-.57-1.45-.48-2.18.72-5.7,9.52-11.3,11.12-20.94,6.22-4-2.05-6.41.77-8.24,3.42-2.68,3.89,1.91,3.2,3.28,4,7.44,4.48,10.46,14.25,6.47,21.94-3.69,7.11-13.72,9.93-21.37,6.81-6-2.44-7.78-7.66-10.17-13.41-1,1.85-1.5,3-2.19,4.11-4.08,6.43-13.59,9.29-18.25,4-6.33-7.23-7.65-3.61-10.9,2.22-5.22,9.37-11.15,18.42-21.5,25.36,2.91,0,4.22-.09,5.52,0,7.36.58,14.48,8,12.09,14.2s.7,7.56,4.93,9.76c8.45,4.39,11.62,15.52,7.43,24.8-3.82,8.43-14.42,13.14-23,10.22-12.55-4.26-17.71-16.41-12-28.07,1.26-2.57,3.94-5.78,1.09-8.06-4.6-3.66-4.17-8.23-4.12-13,0-.89.52-2.2-.75-2.54-.55-.14-1.43.54-2,1-3.77,3-8.22,4.65-12.62,6.41-1.15.46-2.91-.57-3.44,1.21s1.07,2.59,2.07,3.65c4.11,4.42,7,9,4.31,15.54-.73,1.75-2.54,5.4,1.61,5.77a12.06,12.06,0,0,1,10.67,14.79c-1.75,6.47-3.65,10,6.4,8.79,8.38-1,17.18,2,25.83,2.4,17.11.71,33.89,3.69,50.66,6.63,9.88,1.73,19.94,2.43,29.9,5.28-4.31-3.73-6.52-8.37-8.17-14-4.76,7-11.66,7.45-18.3,5.54-7.11-2.05-10.44-8.24-11.71-15.51-9.87,7-16.6,8-22.56,3.47S641.59,389,644,382.63c3.3-8.84,7.89-11.52,18.57-10.86,6.79.43,12,6.4,14.36,16.86,4.16-5.47,10.07-6.59,16.2-7.12-4-12.81.89-22.61,13.17-26.21,7.67-2.25,14.28.24,19.76,5.78,5.88,5.93,5.86,13.89,3.33,20.33s-7.88,12-16.72,11.41c-7.1-.51-7.13-.1-5.77,7.25,11.13-6.77,16.62-5.81,23.93,5.5,1.86-4.39,5.36-6.95,9.45-8.85,5.49-2.54,12.48-.92,17.56,4.07,4.51,4.42,6,11.38,3.41,16.78-2.85,5.94-7,10-14.26,9.14-1.51-.17-3.11-.08-3.54,1.84-.2.87.59,1,1.25,1.13,9.13,1.84,17.9,4.92,26.78,7.65,3.78,1.15,3.18-1.78,2.33-3.3-2.37-4.2-1.61-8.13-.12-12.3,2.81-7.89,13.8-14.89,20.26-12.72,10.8,3.62,17.18,14.88,14.41,24.63-1.24,4.38-4.59,6.76-7.37,9.72-2.47,2.62-2.77,4.41.68,6.64a130,130,0,0,0,12.76,7.07c12.88,6.39,13.09,6,17.06-4.16a35.59,35.59,0,0,0,1.66-6.11c.43-2.23.11-4.45-2.11-5.64-6.88-3.7-12.06-9.45-16.85-15.23-8.55-10.29-15.7-21.47-15-35.85.26-5.23-1.92-10.92-1.27-15.42,1-6.93.89-13.76,1.29-20.63.07-1.29.26-3.25-.44-3.77-1.31-1-2.64.58-3.86,1.29-5.51,3.24-13,2.78-17.46-1.13-5.19-4.49-9-4.92-15.16-1.7a10.71,10.71,0,0,1-1.76.88c-1.62.48-1.75,1.86-1,2.7,4.71,5,5.79,10.73,3.44,17.65,2.55-.93,4.34-1.63,6.17-2.24,7.4-2.51,16.57-.06,21.08,5.6s5.61,16.29,1.93,22.34c-4.37,7.18-10.85,8.85-19.2,9.45-11.17.8-21.92-15.73-16.27-25.36.55-.94.88-2,0-2.67a2,2,0,0,0-2.69.37c-2.88,2.64-6.23,2.7-9.74,1.75-7.27-2-11.44-7.16-12.83-14.11s2.43-12.28,8.16-15.94c2-1.28,1.61-1.9.35-3.22-4-4.24-5.71-9.18-5.83-15.18-.21-10.2,8.22-16.68,14.69-17.88,10.79-2,20.35,2.84,23.39,11.63,1.13,3.28,1.91,3.86,4.77,1.22,9.13-8.48,20.12-5.18,23.55,6.78.57,2,1.42,3.89,2.31,6.3,12.37-29.53,8.39-65.8-2.63-80.69,0,3,.06,5.64,0,8.26-.25,9.39-6.62,15.91-15.31,16.53-5.33.38-10-1.15-14.7-3.14l.08.08c-1.84-2.69-4-5.21-5.46-8.11-6-12.19,4.12-28,16.21-27.18,5.94.43,11,1.77,16.14,6.24-6.34-24.21-75.25-46.49-94.68-31.83,10.47,5.24,15.36,12.68,12.43,20.36s-8.34,12.84-19.5,11.46A13.21,13.21,0,0,1,687,246c-4.89-5.64-5-12.13-2.37-19.69-13.74,8.47-23,19.6-30.87,32.22A82.4,82.4,0,0,0,664,254c1.64-.83,3.33-1.55,5.21-1.09,6.59,1.6,12.89,3.78,16.63,10,.89,1.5,1.73,2.69,3.33,1.39,4.41-3.57,9.16-2.72,14.08-1.62,2.13.47,4,.6,4.21-2.91.37-6.8,4.9-11.34,10.68-13.63C726.49,242.81,734.51,244.41,741.23,250.87ZM496.07,435.62c-12.25.61-24.27,3.46-36.41,3.8s-23.88,2.67-35.87,3.21c-2.17.1-3.64.37-3.22,3,.39,2.42-.71,4.54-1.41,6.69-.89,2.73-1.09,4.3,2.23,6.08,6.54,3.49,8.1,10.08,3.95,14.85-3.17,3.63-1.88,5,1.78,6.8,8.47,4.16,9.95,12.95,3.49,20-2.76,3-3.43,4.6,1.58,5.81,6.42,1.55,10.26,6.52,12,12.57,1.49,5.05-1.09,9.69-4.87,12.65-5,3.94-2.52,5.19,1.29,7.26,7.68,4.16,13.45,13.33,7.25,22.66-1.65,2.49-4.14,3.61-6.12,5.49-1.71,1.61-2,2.65.53,3.1,3.18.57,5.77,2.33,8.49,3.78,9.58,5.14,13.32,16.46,6.7,26.85-2,3.14-6.12,5.26-5.05,10.17.93,4.24-1.64,5.88-5.56,6.21-10.11.87-20,2.9-30,4.7-2.66.48-6.27,1.42-7.6-1.79-1.66-4-4.88-4.8-8.25-6-11.79-4.11-17.24-13.63-14.69-25.44.47-2.16.77-4.64-2.11-5.13-7.17-1.21-13.53-4.71-20.35-6.91-25.43-8.2-50.63-17.1-75.9-25.78-.95-.33-1.82-1-2.75-.32a1.61,1.61,0,0,0-.28,2.24c3.89,7.07,5.22,15,7.69,22.57,6.26,19.15,12.11,38.44,18,57.71,1.05,3.43,2.16,5,6.12,3.34a131.67,131.67,0,0,1,14.44-4.42c4.38-1.22,8.57-3.3,13.34-2.83,2.63.25,4.64,1.56,4.8,4s-.94,4.23-4.09,5.08c-9,2.42-17.72,5.54-26.57,8.35-3.05,1-4,3.31-2.8,5.82,4.86,10.58,6.38,22.17,10.15,33,4.56,13.07,8.28,26.38,12.54,39.52,5.5,17,10.42,34.16,15.45,51.29,4.18,14.18,8.63,28.32,12.89,42.49,1.43,4.75,2.86,7.56,9.18,4.48,7-3.41,15.23-3.82,22.55-7,3.08-1.32,5.59.94,6.66,3.7a3.86,3.86,0,0,1-2.38,5.26c-4,1.33-7.6,3.59-12,3.93-6.12.47-12.42,2.66-16.58,6.54-3,2.82.87,8.17,2.15,12.36,4.67,15.24,8.24,30.87,13.73,45.79,6.13,16.68,10.22,33.93,16,50.69,6.62,19.24,12.14,38.86,17.78,58.42,1.17,4.06,2.34,4.57,5.73,2.47a94.91,94.91,0,0,1,36.78-13.59c1.1-.15,2.64-.56,3-2.14.43-1.93-1.45-2.16-2.39-2.64a18.79,18.79,0,0,1-9.41-10.15c-3.66-9.45.31-19.62,9.49-24.81,1.93-1.09,4-2.25,4.22-4.47.23-2.58-2.67-2.63-4.23-3.34a15.13,15.13,0,0,1-6.62-21.21c2.16-3.66,5.62-5.91,9.09-8.16,2.11-1.36,3.23-2.2-.2-4.21-4.48-2.63-9.32-5.68-9.86-11.95-.58-6.78,3-11.13,8.35-14.41,2.4-1.47,4.4-3.17,1.18-5.25-11.46-7.39-10.14-16.55-1.05-23.64,3.21-2.51,2.76-3.75.42-6.07-6-6-4.49-12.94,1.36-17.88,1.14-1,2.33-1.89,1.6-3.06-2.56-4.07-2.66-8.58-3.63-13.06-1.65-7.69-.7-11,7.1-11.18,9.36-.21,18.72-.11,28.08-.09,3.32,0,7.67-1.17,8.24,3.82s-3.18,5.4-7,5.25c-.44,0-.93.63-1.34.57-8.16-1.3-11.45,2.16-11.13,10.36.11,2.78-.36,4.67,2.54,6.5,6.32,4,7.38,12.37,2.48,18.47-2.07,2.57-1.25,3.64,1.15,4.75,10,4.66,12.2,13.35,4.88,21.12-3.38,3.58-2.57,4.77,1.63,6,6.16,1.86,10.93,5.76,11.82,12.31A13.55,13.55,0,0,1,509.05,907c-3.15,1.77-2.56,2.63.52,4,15.18,6.75,16.31,20.14,7,27.83-5.13,4.22-4.83,4.58,1.54,7.39a35.66,35.66,0,0,1,3.95,2c6.15,3.69,13.64,13.25,10,22.22-1.79,4.42-4.85,7.33-7.87,10.54-.9,1-2.13,1.8-1.57,3.36s2,.93,3,.92c18.5-.19,36.86.61,55.19,3.85s35.74,7.54,51.14,18.25c1.28.9,2.75,2,3.32-.55,1-4.49,3.51-8.48,4.78-12.72,5.36-17.91,12.45-35.2,18.43-52.88,7.08-20.94,15.07-41.58,22.6-62.37,4.21-11.63,8.18-23.35,12.47-35,1.41-3.79.85-5.66-3.35-6.74-4.4-1.13-8.5-3.37-12.88-4.64-3.69-1.08-6.44-2.6-4.58-6.81,1.74-4,5.15-4.29,8.64-2.25,4.32,2.53,9.3,3.06,13.89,4.75,1.67.62,4.11.83,4.91-1.91,2.74-9.35,6.23-18.42,9.74-27.51,5.21-13.48,9.44-27.34,14.26-41,5.93-16.75,12.13-33.41,18-50.17,8.6-24.36,17-48.81,25.56-73.17,6.29-17.83,13.38-35.41,19-53.43,4.81-15.35,12.09-29.82,15.16-45.77,2.47-12.82,8.51-24.58,12.35-37,.73-2.36,1.82-4.76-.51-6.25-8.78-5.61-17.24-12.18-26.78-16-12.1-4.88-24-10.28-37.48-12.21-12.63-1.8-24.89-7.07-37.6-9.8-9.38-2-18.63-5-28.1-6.06-6.68-.76-13.42-1.66-20-2.81-14.55-2.54-29.22-3.75-43.85-5.4-10.48-1.18-21.14-.93-31.59-2.31s-20.76-1-31.11-1.48C537,434.9,516.5,435.62,496.07,435.62ZM282.65,313.7c.27-6.37.37-12.63,1.73-19.06,2.14-10.13,4.84-20,9.56-29.09,6.59-12.63,14.63-24.23,25.82-33.67,8.42-7.1,17.41-13.3,27.56-16.6,22.23-7.25,43.72-3.3,63.93,7.86A115.38,115.38,0,0,1,445,250.89c9.2,11.19,16.71,23.12,20.88,37.34,4.75,16.24,12.28,31.47,23.81,44.08,12.57,13.75,28.4,21.35,47.1,23.62a92.82,92.82,0,0,0,43.92-5.18c12.25-4.5,22-12.33,30.47-22.22,9-10.48,14.51-22.59,19.58-35.24,3-7.6,3.72-15.89,7.79-23.11,5.77-10.28,11.45-20.43,19.11-29.67C673,222,692.23,211,715.73,208.07c13.65-1.71,27.1,1.41,40.41,4.78,23.14,5.87,40.33,19.63,51.42,40.26a93,93,0,0,1,10.56,40.48c.29,7.43-1.61,14.78-1.07,22.28.37,5-1.29,9.84-3.18,14.24-8.62,20.06-12.59,40.51-7.77,62.26a68.43,68.43,0,0,0,26.82,41.46c1.68,1.25,4.08,2.13,5.14-.78,7.42-20.35,14.84-40.71,22.05-61.15,9-25.36,17.68-50.8,26.57-76.19,5.65-16.14,11.47-32.21,17.08-48.37.75-2.14.91-4.43-2.09-5.77-6.73-3-13.16-6.69-20-9.39a522.1,522.1,0,0,0-57.91-19.31c-12.74-3.38-25.37-7.33-38.27-9.85-17.43-3.41-34.8-7.08-52.44-9.64-18.12-2.63-36.29-5-54.43-7.44-14.8-2-29.75-3.14-44.67-4-21.78-1.31-43.58-2.46-65.38-2.93-22.84-.49-45.7-.34-68.55,0-13,.18-26,1.83-39.07,1.77-17.89-.08-35.6,2.27-53.37,3.4-18.75,1.19-37.42,4.1-56.1,6.5-23.86,3.08-47.39,7.72-70.83,12.8a446.66,446.66,0,0,0-83.31,26.3c-9.51,4.12-9.84,4.37-7,14.33a67.13,67.13,0,0,1,2.08,7.46c.67,4.16,3.05,5.35,6.36,6.42,11.17,3.6,22.29,7.33,33.43,11,7.09,2.36,14,5.32,21.3,7,2.11.48,3.72,2.09,3.07,4.36-.71,2.49-3,1.49-4.54,1-3.42-1-6.75-2.37-10.13-3.51-14.34-4.85-28.69-9.65-43-14.53-2.4-.82-3.64-.61-2.75,2.31,4.69,15.39,9.29,30.81,14.11,46.16,3.84,12.26,8.14,24.37,11.67,36.73,1.13,4,1.16,9.71,5.45,11.3,16.33,6,32.93,11.38,49.49,16.8,2.32.77,4.7.53,5.49-2.93,1.22-5.39,2.75-10.66,3.48-16.2C287.78,342.62,281.79,328.42,282.65,313.7ZM352.48,824c.69-5.64-2.12-10.54-3.55-15.6-4.06-14.37-8.84-28.52-13.2-42.8-3.48-11.35-6.27-22.94-10.24-34.11-6.08-17.13-10.4-34.8-16.52-51.94a228.24,228.24,0,0,1-7.73-26.1c-1-4.49-2.84-4.36-6.44-3.06-11.79,4.28-23.69,8.25-35.56,12.3-18.64,6.36-37.52,12.06-55.86,19.19-24.31,9.45-49.19,17.23-73.69,26.13-16.52,6-33.27,11.34-49.89,17-1.22.41-3,.18-3,2.55s2,2.06,3.12,2.41q19,5.68,37.56,12.46c27.55,10,55.51,18.83,83,29,25.5,9.41,51.26,18.13,77,27C302.41,807,327.39,815.42,352.48,824ZM267,491.68c.54,2,1.4,5.77,2.56,9.42,4,12.56,8.12,25,12.05,37.62.77,2.48,1.64,4.6,4.26,5.51,12.73,4.45,25.31,9.37,38.21,13.24,18.26,5.46,36,12.36,54.07,18.33,7,2.3,13.9,6.2,20.37-1.13.72-.82,1.92-1.17,2-2.52s-1-1.32-1.93-1.66c-6.9-2.57-11.54-7.53-11.8-14.82-.25-7,4.64-11.56,10.25-15.22.95-.62,2.83-.59,2.49-2.56-.28-1.63-1.83-1.76-2.91-2.29-5.36-2.58-8-6.43-8.23-12.71s2.68-10.15,7.49-13.42c1.39-.94,4.68-2.46,1.56-4.71C387.07,497.3,386.36,489.28,396,481c2.48-2.11,1.72-3.4.23-5.23-5-6.11-5-9.74.29-15.49,1.31-1.42,3-3.16,1.84-4.66-1.91-2.41-2.08-5.64-3.91-7.72-2.41-2.77-5.2.3-7.85.65-.49.07-1,0-1.49.09a304.16,304.16,0,0,0-35.76,7.68c-13.92,3.93-27.68,8.57-41.6,12.37-13.43,3.66-25.63,9.45-37.76,15.82C267.61,485.79,266.37,487.27,267,491.68Zm551.61-8.9c.22-.51.44-1,.67-1.53-5.25-3.51-10.51-7-15.73-10.53-2.24-1.51-5.44-4.56-3.23-6.08,4.86-3.36.16-4.09-1-4.83-8.36-5.46-17.91-8.69-27.16-11.8-15.8-5.3-31.74-10.32-48.17-13.84-10.65-2.29-21.33-4.56-32-6.36-19-3.19-38-7.1-57.3-8.28-17.08-1-34.11-2.86-51.19-3.78-10.61-.57-21.28-.8-31.9-.9-21-.19-42.06.16-63.12,1.46-18.25,1.12-36.52,2.07-54.78,3.2-6.91.43-13.68,1.8-20.47,2.67-12.24,1.55-24.43,3.86-36.59,6.21-19.31,3.75-38.57,7.46-57.41,13.23a326.94,326.94,0,0,0-57.58,24c-2.07,1.1-4.18,2.37-2.47,4.71s2.48,7.6,6.81,5c5.43-3.28,11.34-4.76,17.11-6.93,8.08-3,15.85-6.92,24.11-9.53,11.81-3.73,23.52-7.88,35.49-11,13.68-3.58,27.41-7.1,41.48-9,8.58-1.18,17.07-3,25.65-4.07,8.15-1,16.45-1,24.56-2.22,19.73-3,39.62-4,59.5-4.62,11.81-.36,23.65-.84,35.52-.32,14.15.61,28.34-1,42.52.12,4.77.37,9.58.56,14.32.75,21.39.84,42.68,2.08,64,5q20.13,2.76,40.1,6.27a535.21,535.21,0,0,1,65.48,16c9.31,2.87,18.41,6.38,27.79,9.13,7.38,2.16,14.85,4.44,20.93,10.2C808.25,478.62,813.83,480.27,818.6,482.78ZM415.73,317.56c-4.74,1.05-7.78-1.25-10.92-2.82-8.2-4.11-11.9-14.7-8.81-22.9,3.25-8.64,14.73-16.09,24.68-11.46,3.2,1.48,4.6,1.3,3.33-3.06-1.35-4.61,1-8.42,4.61-11.51,5.79-5,11.65-3.26,17.83.19-.18-1.11-.11-1.66-.35-2a126.92,126.92,0,0,0-39-35c-19.25-11-39.4-13.67-60.53-6.12-1.25.44-3,.62-3,2.72a3.48,3.48,0,0,0,1.88,3.17c9.78,6.47,9.43,16-.75,22.42-.89.55-2.29.64-2,2.35.2,1.34,1.37,1.39,2.14,1.76,15,7.23,15.2,23.37,4.76,31.54-5.33,4.18-3.71,6.27-.56,9.94,1.6,1.87,1.75,2.49,4.15.32,6.17-5.57,13.92-5.8,21.24-2.79,6.32,2.59,10.55,7.84,11,14.92.22,3.51,1.86,4.11,4.3,3.39,6.34-1.89,10.38,1.55,13.95,5.77C408.07,323.69,409.87,323.79,415.73,317.56ZM293.19,360.24c-.06,5.72-2.68,10.54-3.19,15.75-.22,2.36-1.64,5.65,1.75,6.14,5.22.76,10.68,5.76,16-.22.81-.91,2.77-.76,4.16-1.2,7-2.22,12.74,1.31,18.82,4.75a30.26,30.26,0,0,0-.37-3.47c-1.17-4.81,2.31-12.84,6.39-15.34,1.22-.74,3.47-.24,3.62-1.9.19-2-2.15-2.28-3.51-2.94-9.58-4.69-9.48-13.27-9.16-22.05.2-5.5,8.91-11.86,13.61-13.76,2.9-1.17,7.62,1.66,8.76-1.6.8-2.27-2.41-5.78-3.35-8.88-.58-1.9-1.52-2.2-2.79-1.37-2.87,1.87-6,1.68-9.13,1.54-2.25-.1-2.92.6-3.3,3-1.16,7.26-3.57,13.51-11.56,16.64s-15.93,3-22.14-3.25c-5.49-5.53-6.34-12.93-4.52-20.25,2.47-9.89,16.57-16.74,27.09-11.19,1.19.63,3.8,2.93,4.07-.36.26-3.14,1.92-4.78,3.83-6.56,2.3-2.15,1.52-3.33-.91-4.75-8.08-4.69-11-13.46-8.2-22.3a17.65,17.65,0,0,1,11.18-11.6c3.58-1.38,6.37-1.73,1.18-5.18-3-2-6.14-4.73-5.85-9.23.05-.84-.14-1.63-1.25-1.78a3.6,3.6,0,0,0-3.53,1.28c-7.12,8.56-14.2,17.13-19.27,27.17-1.54,3-1.6,4.69,2.38,4.51,7-.31,11.83,5.09,13.36,11.53,1.38,5.77-2.34,9.4-6.49,12.24-5.42,3.7-11.23,3-16.07-1.66-1.45-1.4-2.71-2-3,.22-1.46,11.38-3.92,22.73-.87,34.28,2,7.42,3.87,14.92,1.86,22.75-.26,1-.82,2.66.92,3.41,7.64-10.89,13.12-13.74,21.27-11.11,7.37,2.39,11.84,8.36,11.69,15.64-.15,6.91-5.4,14-12.47,15.24C303.13,376.35,296.48,370.75,293.19,360.24Zm197,625.08c11.77,0,15.59.94,27.05-7.09,10.8-7.56,12.52-16.54,2.83-23.44-15.21-10.83-39.5-8.61-52.87,5.31-6.21,6.47-4.49,15.84,3,20.57C476.8,984.88,483.89,985.68,490.18,985.32ZM415.87,610.45c13.9.22,23.43-3.24,32.21-9.1,6.9-4.61,8.09-18.16-.88-22.8-15.32-7.91-29.89-5.7-44.62.66-1,.45-3.08,1-3,2.89s1.93,2,3.24,2.4c2.32.67,4.37,1.94,3.42,4.41-1.19,3.08-3.53,1.17-5.39.32-2.5-1.15-5.47-3.39-7.58-.58a8.29,8.29,0,0,0-.17,10.07C399.35,608.25,408.86,610.09,415.87,610.45ZM277.65,387c.42-4.76-2.27-5.48-5-6.32-5.44-1.65-11-3.1-16.21-5.25-8.59-3.54-17.9-5-26.15-9.46a2.49,2.49,0,0,0-3.22.33c-.61.8-.2,1.83.45,2.72a8.72,8.72,0,0,1,1.24,2.59c5.44,17.55,10.89,35.11,16.23,52.69,1.21,4,2.48,4.07,5.47,1.27,10-9.42,17.74-20.59,24.91-32.18C276.67,391.25,277.12,388.54,277.65,387Zm-10.94,46.4c0-5,4.71-11.84,9.56-13.7,11.12-4.28,22,2.22,23.29,14.18.33,3.11,1.9,3.51,3.81,2.37,3.81-2.29,8.19-2,12.23-3.32,9.42-3.15,9.36-2.74,9.15-12-.08-3.74-2.08-3.89-4.4-3-6.8,2.53-12.35.43-17.14-4.3-2.59-2.57-4.5-2.48-7.1,0-5.27,5-14.34,4.53-18.89-1-1.69-2.07-2.55-2.9-4.73-.47-6.87,7.65-12.94,16.12-21.62,22a3.58,3.58,0,0,0-1,4.54c2,4.52,2.63,9.39,3.93,14.08.65,2.33,1.91,3.44,4.74,2.64,4.63-1.29,8.06-4.86,12.74-6.11,2.23-.59,1.66-2.71.18-4.39C268.58,441.63,266.4,438,266.71,433.42ZM488.94,942.29c6.55.87,13-1.95,19.38-5,6.08-2.9,8.91-10.85,5.47-15a20.44,20.44,0,0,0-11.09-6.86,39,39,0,0,0-33.68,7c-4.81,3.6-4.61,10.13-.11,14.19C474.56,941.7,481.15,942.4,488.94,942.29ZM413.69,567.63c10.38,0,18.19-2.28,24.78-7,7.29-5.24,6.85-13.31-1.33-17.07C426.37,538.6,406,538.07,396.6,550c-3.4,4.3-2.48,12.44,2.63,14.32C404.07,566.08,408.91,568.62,413.69,567.63ZM373.13,386.42c3.6.65,4.85-.17,4.52-2.66-.42-3.2,1-5.89,2.78-8.22s1.24-3-.87-4.55a17.89,17.89,0,0,1-7.31-15.81c.52-6.83,3.51-13.46,10.84-16.66,1.76-.77,2.18-2.55.62-4.11a9.05,9.05,0,0,1-2.36-4.2c-.73-2.52-2.49-3.29-4.94-1.82-4.14,2.48-8.43,4.06-13.36,2.44-.61-.2-1.47.36-2.21.56a6.05,6.05,0,0,0,.67,1.73,19.15,19.15,0,0,1-6.29,29.32c-2.65,1.34-2,2.92-.17,4,7.06,4.34,9.08,10.34,6.68,18.15-.49,1.57-.38,3.95,2.26,2.8C367.49,385.92,370.84,385.49,373.13,386.42Zm114.2,521c6.75,0,10.56-1,15.89-4,7.12-4,8.49-10.72,2.86-14.92-10.53-7.87-30.38-6.33-38.29,4.08-2,2.67-2.15,5.4.38,7.94C473.47,905.82,480,907.72,487.33,907.39Zm-74-373.61a44.06,44.06,0,0,0,17.73-4.8c4-2.09,6.25-4.88,6.4-8.94s-3.66-7.06-6.51-8c-10.42-3.3-21.05-4.56-30.94,2.37-6.42,4.5-6.52,10.86-.09,15.31C404.11,532.66,409,532.8,413.32,533.78ZM355.58,405.5c0,7.84,5.42,14.41,11.82,14.23,9-.24,15.24-5.51,15.15-13.11-.11-10.35-5.32-14.67-13.65-14.93C361.19,391.45,355.6,397.36,355.58,405.5Zm72-107.62c0-7.52-5.36-13.07-12.69-13.08-9,0-14.4,5.14-14.32,13.63.06,7.22,6.34,14.24,12.82,14.33C421.14,312.88,427.57,306.14,427.59,297.88ZM391.5,341.7c-8.47,0-12.93,5.36-12.9,15.4a12.88,12.88,0,0,0,13.25,12.67c7.3-.13,13.28-5.77,13.69-14.47C405.88,348.37,398.68,341.68,391.5,341.7Zm-54.14-82.89c-7.17,0-13.69,6.74-13.76,14.31-.06,6.8,6.72,13.66,13.51,13.66,7.7,0,13.42-5.77,13.51-13.64C350.72,264.48,345.52,258.86,337.36,258.81Zm267.95,124c0,8.24,5.33,13.9,13.13,13.93,8.18,0,13.87-5.77,13.87-14.34,0-7.9-6.55-13-13.49-13.51C612.71,368.41,603.62,376,605.31,382.77Zm169.89,17c7,0,13.8-6.49,14-13.38s-7.19-14.54-13.9-14.68-14.28,6.81-14,13.8C761.57,393.58,767.15,399.65,775.2,399.76Zm-106.54-113c7.74-1.15,13.25-5.74,13.52-14.13.25-7.65-6.46-13.8-14.31-13.84-6.67,0-13.82,7.12-13.42,14.31C654.8,279.21,660.48,286.65,668.66,286.79Zm84.74,30.95a13.32,13.32,0,0,0-13.18,13.49c0,7.15,6.54,14.66,12.67,14.55,7.35-.13,15.48-7.6,15.3-14S760.2,317.8,753.4,317.74ZM516.45,384c1.42-8-6.8-13.45-12.88-13.33-7.55.15-14.33,6.8-14.09,14.17.22,6.63,8,13.87,14.95,13.83S516.45,392.48,516.45,384Zm195.08-23.29c-8.53,0-14.21,5.12-14.29,12.94-.07,7.39,6.87,14.27,14.23,14.1,6.95-.16,13.83-7,13.8-13.65S718.48,360.75,711.53,360.73ZM324.64,318.27c0-7.95-5.71-14.66-12.8-14.5-7.39.17-13.59,7.37-14,14.15-.48,7.11,6.83,14.06,13.88,13.85C317.71,331.59,326.08,326.85,324.64,318.27Zm41.66,7.54c7-.1,13.4-6.63,13.34-13.63-.07-7.66-6.58-14.38-14-14.43-6.64,0-13.36,7.38-13,14.82C353.11,320.5,358.51,325.26,366.3,325.81Zm352.17-11.05c7.61,0,13.84-5.74,13.75-12.7-.1-8.26-5.56-14.3-12.92-14.32s-13.91,6.11-14.13,12.83C704.92,308.36,711.47,316.06,718.47,314.76Zm20.8-50.61c.05-8.87-5-14.13-13.89-14.36-5.49-.14-13,7.72-13.11,13.84s7.33,14.58,13.32,14.06C732.07,277.13,739.6,274.07,739.27,264.15Zm-298.74,90c0,8.15,5.38,13.76,13.48,13.64a13.56,13.56,0,0,0,13.3-13.7c-.11-6.09-5.1-13.55-13.63-13.34C446,340.89,440.55,346.19,440.53,354.1Zm342.25-77.32c8.77,0,12.46-3.79,12.45-12.77,0-8.6-5.45-14.41-13.32-14.24-6.12.13-12.89,7.1-12.72,13.41C769.38,270.18,773.44,278,782.78,276.78ZM347.52,331.71c-8.59-.07-13.9,5.06-13.93,13.46,0,8.14,5,13.49,12.78,13.56,7.57.07,13.19-5.77,13.31-13.83C359.78,337.75,354.26,331.76,347.52,331.71Zm444.14,110c5.55,0,12.69-8.12,12.48-14.2-.19-5.44-7.62-13.92-12.12-13.83-7.32.14-13.83,6.72-13.83,14C778.18,435.14,784.5,441.73,791.66,441.72ZM485.57,856.19a24.75,24.75,0,0,0-12.3,2.79c-6.78,3.72-7.29,8.2-1.47,13.16,3.9,3.33,16,4.8,20.08,2,3.45-2.39,8.21-4.05,7.65-9.79-.49-5-4.75-5.83-8.16-7.4C489.68,856.13,487.52,856.39,485.57,856.19ZM412.85,482.76c-2.62-1-5.57.19-8.26,1.06-4,1.29-8,3.76-8.87,8.26-.85,4.29,3,6.28,6,8.07,5.06,3,17.47,1.52,22-2.27,5.06-4.21,4.4-10.19-1.51-13.33A15.13,15.13,0,0,0,412.85,482.76ZM556.14,363.91c-3.67,0-7.73-1-10.75.33-2.34,1,.92,4.93,0,7.62-.26.76,0,1.75-.34,2.42-1.62,3-.13,4.25,2.48,5.55,7.73,3.86,11.11,10.88,9.87,19.13-.33,2.21-4.14,4.35-1.14,6.35,1.75,1.17,4.83.36,7.31.42.83,0,1.66,0,2.49,0,8.12,0,8.06,0,6.47-7.87a8.84,8.84,0,0,1,.29-4.87c1-2.42.57-3.14-2.07-3.4-12.65-1.22-17-6.42-16.44-19C554.42,368.21,556.36,366.51,556.14,363.91ZM416.6,405.75c7.21.16,11.81-5.12,11.75-11a10.71,10.71,0,0,0-10.69-11c-6.09-.27-11.15,5-11.08,11.24C406.65,401.77,410.36,405.76,416.6,405.75Zm163.78-32.19c0-7.06-3.36-10.78-9.74-10.82-6.62,0-11.31,4.95-11.29,12,0,5.45,5.61,10,12.26,9.93C577.33,384.67,580.39,380.77,580.38,373.56Zm166.62.21c7.59,0,11.18-3.37,11.2-10.5,0-6.21-5.13-11.62-11-11.56-4.92.05-11,6.79-11,12.08C736.33,368.8,741.68,373.76,747,373.77ZM316.45,412.69c6.7,1.06,10.53-3.85,12.85-9.25.67-1.57,1-3-1.77-4-5.92-2.08-12.17-3.21-17.81-6.16-2-1.07-4.7-1.62-5.91,1.27C300,403.75,306.25,412.65,316.45,412.69Zm359.87-95.93c5.76,0,10.92-4.91,11-10.43.09-6-5.27-11.56-11.07-11.55s-11.14,5.62-11,11.61C665.42,312,670.56,316.77,676.32,316.76Zm-27.05,70.4c0,7.39,3.8,11.66,10.25,11.54s10.71-4.87,10.76-11.9c0-5.08-4.89-10.07-9.95-10.07C652.76,376.73,649.26,380,649.27,387.16ZM746,400.71c-7.27.31-10.52,5-10.73,12-.16,5.28,5.62,10.16,11.27,10,4.72-.12,10.8-6.14,10.73-10.61C757.16,406,751.74,400.57,746,400.71ZM299.63,359.17c0,5.87,5.13,10.71,11.26,10.59,4.9-.09,10.53-6.24,10.79-11.79.2-4.37-6.32-10.25-11.38-10.26C304.09,347.69,299.65,352.46,299.63,359.17ZM468.5,388.9a10.87,10.87,0,0,0-10.92-11.22c-5.29,0-10.13,5.6-10.11,11.72A10.36,10.36,0,0,0,458,399.76C464.8,399.75,468.49,395.92,468.5,388.9Zm-59-54.49c.05,6,5.51,11.53,11.21,11.36,4.91-.16,11-6.66,10.86-11.68-.11-5.36-5.89-10.48-11.69-10.38A10.53,10.53,0,0,0,409.52,334.41Zm132,70.29c6.88,0,10.87-3.58,10.95-9.86.07-5.67-5.23-11.1-10.9-11.18-5.43-.07-11,5.53-11.07,11C530.43,401.23,534.23,404.69,541.47,404.7Zm-195.55-14c6.47-.15,11.6-4.91,11.72-10.84s-5.75-11.34-12-11.14c-5.16.17-9.94,5.36-10,10.88C335.53,385.31,340.67,390.84,345.92,390.71Zm344.11,18c5.75,0,11.27-5.12,11.27-10.48,0-5.6-5.24-10.5-11.28-10.53-6.45,0-10.87,4.72-10.79,11.63C679.3,405,683.53,408.68,690,408.69ZM709.3,235c0-6.55-4.17-11.09-10.36-11.21-5.85-.1-10.47,5-10.65,11.73-.15,5.34,4.91,10.35,10.44,10.33C705.37,245.83,709.27,241.82,709.3,235Zm77.53,112.8c7.12,0,11.29-3.84,11.33-10.47,0-5.87-5.2-10.61-11.62-10.56a10.55,10.55,0,0,0-10.3,10.33C776.31,342.22,779.79,348.65,786.83,347.8ZM699.22,336c0,6.92,3.46,10.71,9.9,10.75,6.83.05,11.08-4.07,11.12-10.79,0-4.57-5.79-11.11-10-11.17A10.89,10.89,0,0,0,699.22,336Zm-252-10.19c5.9-.1,11.43-5.58,11.33-11.22-.09-4.87-6.14-10.85-11-10.85s-11.1,6.38-11,11.32C436.67,320.68,441.83,325.89,447.17,325.8Zm-3.63-171.88c3.69-.27,9-.32,14.15-1.15a22,22,0,0,0,12.54-6.16c2.91-3,1.56-6.34-.85-8.76-2.61-2.63-4.07,0-5.69,1.92a14.49,14.49,0,0,1-7.4,4.2c-6.76,1.93-13.77,0-20.55,1.76-2,.52-3.49.46-3.22,3.05.24,2.2-.65,5,3,5.12C437.66,154,439.82,153.92,443.54,153.92ZM283.46,423.64c-5.74-.05-11.82,5.14-11.81,10.08,0,5.21,4.51,10,9.42,10,6.95,0,12.57-4,12.65-8.93C293.81,428.25,289.61,423.68,283.46,423.64ZM662.21,152.1c.69-3.15-.45-4.09-3.8-4.47-3.62-.42-7.24-.39-10.82-.81-5.87-.68-11.63-1.92-16.13-6.3-1.68-1.64-3.38-4.36-6.05-1.73s-3.31,6.27-.56,8.83c3.43,3.18,7.55,6,12.5,6.24a157.88,157.88,0,0,1,20.59,2C660.74,156.35,663.11,156,662.21,152.1Zm18.3,5.62c8.3.92,16.61,1.76,24.89,2.82,2.31.3,4.48.79,4.78-2.33.25-2.53.85-6.12-2.89-6.15-11.69-.07-23.07-3.11-34.74-3.18-2.4,0-4.3.24-4.28,3.36,0,2.51.14,4.21,3.44,4.85A37.83,37.83,0,0,0,680.51,157.72Zm-385.11,5.8c.43,4.9,1.88,6.86,5.58,6.27,7.88-1.27,15.52-3.86,23.63-4a41.1,41.1,0,0,0,9.54-1.82c3.18-.84,2.47-3,1.94-5.55-.6-2.86-2.26-2.83-4.31-2.51-10.48,1.64-21,3.21-31.41,5C298.31,161.35,294.93,161.07,295.4,163.52Zm105,229c-3,3.77-6.64,5.45-10.58,4.95-3.13-.4-2.59,1.65-2.11,2.61,2.07,4.15.59,8.24-.51,12-1.19,4,.74,4.07,3.24,3.63a95.72,95.72,0,0,1,19-1.93,2.7,2.7,0,0,0,2.88-1.47c.71-1.74-1.19-1.75-2-2.25C404.24,406,400.62,400.65,400.35,392.51Zm449-212.16c-1.43,1.29-3.79-.69-4.23,2-.37,2.37-.24,4.77,2.23,6a35.09,35.09,0,0,0,4.62,1.49c8.13,2.8,16.45,5,24.33,8.56,2,.88,4.5,3.35,6.1-.44,1.3-3.09,1.68-6-2.67-7.32-2.8-.82-5.45-2.13-8.22-3.07C864.17,185.17,856.77,182.78,849.38,180.35Zm-443-24.42V156c5.07-.38,10.14-1,15.2-1,3.33,0,4.82-1.08,5-4.4.19-3.83-2.3-3.94-4.91-3.66-11.06,1.21-22.26.75-33.25,2.88-1.88.36-4.19-.42-3.81,2.86.28,2.5.83,4.47,4.06,4.24C394.55,156.48,400.46,156.24,406.37,155.93Zm-120.25,7.92a7.51,7.51,0,0,0-1.5,0c-9.71,2-19.43,4-29.11,6.18-2.41.54-3.27,2.1-2.46,4.83.9,3,2.5,5.14,5.52,3.84,9.16-3.92,19.07-4.23,28.59-6.32,4-.89,3.52-2.92,3.51-5.5C290.65,163.62,288.34,163.79,286.12,163.85Zm88.43-12.92c-9.71,1-19.14,2.22-28.6,2.79-4.13.25-4.37,2.26-4.43,5.42-.07,4.24,2.77,4,5.41,3.68,9.53-1.21,19-2.65,28.57-3.9,2-.26,4.7.54,4.11-3C379.12,152.93,378.66,149.76,374.55,150.93Zm419.21,23.91c1.31-.14,3.68.78,3.43-2.34-.19-2.27,1.06-5.23-3-5.67-2.41-.26-4.76-1.06-7.15-1.53-7.52-1.49-15-3-22.56-4.38-2.44-.45-4.76-.08-5.21,2.94-.28,1.89-.82,4.36,2,4.9C772,170.86,782.71,172.79,793.76,174.84Zm-70.91-20.28c-2,1.78-6.48-2.45-6.62,3.3-.12,5.32,3.5,5.08,7.13,5a32.4,32.4,0,0,1,3.88.49c7.77.9,15.31,3.28,23.2,3.54,4.24.14,2.39-3.53,3.6-5.25.61-.86.5-2.53-1.56-2.81C742.62,157.5,732.78,156,722.85,154.56ZM833.62,185c3.57-.23,6.39.64,6.56-3.4.1-2.57-.68-4-3.2-4.63-9.33-2.2-18.66-4.46-28-6.66-2.44-.58-5.13-1.44-5.83,2.29-.61,3.25,0,5.84,4,6.27a32.26,32.26,0,0,1,5.36.65C819.91,181.44,827.47,182.71,833.62,185ZM638.82,291.64c11,.62,11,.63,19.68,9.56.73.77,2.51.85,2.46,0-.27-4.22,3.84-5.68,5.44-8.75-11.75-3.26-15.82-7.88-17-19.13-.1-.9.31-2.06-1.06-2.43-1.59-.42-2,.78-2.4,1.83C643.56,278.92,641.26,285.1,638.82,291.64ZM516.22,1249c1.71,5.22,3.45,10.46,5.13,15.72a1.6,1.6,0,0,0,1.78,1.3c1.37,0,1.57-1.28,1.81-2,2.43-7.59,7-15.06,1.57-23.23-.68-1-.53-2.58-1.06-3.76-.87-1.94-.08-5.59-2.49-5.62-3.18,0-.75,3.53-1.77,5.24a32.69,32.69,0,0,0-2.45,4.83C517.8,1243.85,517.08,1246.35,516.22,1249Zm33.15-194.39c1,3.16,1.91,6.6,3.1,10,.82,2.33.42,6.13,3.38,6.37,2.76.23,1.87-3.55,2.71-5.43,1.72-3.8,4.17-8.32,3.43-12a152.43,152.43,0,0,0-4.56-15.88c-.64-2-1.9-1.58-2.31-.47C553.08,1042.85,551.32,1048.61,549.37,1054.6Zm-54.67,82.76c-1.47-5.87-2.75-11.59-4.4-17.21-.46-1.53-2.33-1.55-2.8.15-1.42,5.17-5,9.57-5.07,15.25-.13,6.25,4.75,11.21,4.17,17.53-.07.75.65,1.06,1.4,1a1.37,1.37,0,0,0,1.44-1C491.16,1147.78,493,1142.54,494.7,1137.36ZM472.5,840.75c0,4.59,2.8,6.62,9.34,6.67,7.52.05,11.65-2.78,11.67-8,0-3.39-5.36-7.1-10.2-7C477.21,832.48,472.55,836.09,472.5,840.75ZM502.16,1081c1,5.83,1.86,11.11,4.28,16,.69,1.38,2,3.76,3,.84,2.24-6.46,7.38-12.26,3.5-20.3-1.48-3.08-3.84-6.51-3.48-10.5a1.92,1.92,0,0,0-.75-1.56,1.51,1.51,0,0,0-1.91,1.14C505.15,1071.5,503.61,1076.44,502.16,1081Zm18.39,140.74c-1-6-4.2-11.15-4.4-17.13,0-.47-.8-1.1-1.35-1.3s-1,.27-1.35,1c-4.57,10.85-6.22,21.7-1.14,33,1.15,2.55,2.15,2,2.75.45C517.11,1232.43,518.78,1227,520.55,1221.73Zm42.9-102.24c-3.16,5.6-4.29,11-6.32,16.12-.53,1.3-1.11,2.64-.53,3.79,2,4.1,3.79,8.22,4,12.91,0,.88.4,2.47,1.75,2.62s1.24-1.34,1.73-2.09C571.16,1142,568.06,1131.16,563.45,1119.49Zm-41.05-93c1.19,4.42,2.63,9.73,4,15,.26,1-.44,2.49,1.37,2.66s1.32-1.44,1.88-2.3c6-9.29,4.91-18.71.77-28.27-.5-1.16-.89-2.18-2.22-2.25-.54,0-1.54.38-1.6.71C525.79,1016.71,522.43,1020.59,522.4,1026.46ZM495.84,1184c8.21-11.6,7.93-22.84,3.35-34.37-.45-1.12-1.88-2.47-2.71-.19-2.73,7.56-7.26,14.95-3.65,23.4A33.83,33.83,0,0,1,495.84,1184Zm22.22-110.36c4.28-10.32,8.26-18.94,3.46-28.47-1.26-2.51-1.94-7.31-3.22-7.43-3.56-.34-.81,4.36-3,5.92a2.44,2.44,0,0,0-.52.84C509.16,1054.56,515.46,1063.07,518.06,1073.61Zm14.68,186.2c-2.82,2.27-2,5.29-3.37,7.55-4.82,8.29-3.09,16.63,0,25,.79,2.16,2.23,2.42,2.93.74,2.7-6.5,7.14-12.68,4.44-20.43C535.29,1268.58,534.14,1264.38,532.74,1259.81Zm26.4-174.93c-.65,3.5,3,7.84,2.64,12.89,0,.64.45,2.45,2,2.31a2.29,2.29,0,0,0,1.49-.92c5-7.15,5.43-25.16.69-31.68-.79-1.09-2-2.31-2.63.26C562.05,1072.93,559.45,1077.79,559.14,1084.88Zm-10.62,110.65c0-6.65-2.71-11.48-3.86-16.68-.2-.92-1.22-2.93-2.06-.8-2.5,6.41-7,12.46-4.7,20,1.24,4,3.4,7.76,3.52,12.11,0,.8,0,1.8,1.15,1.81.57,0,1.64-.38,1.65-.63C544.45,1205.38,548.87,1200.48,548.52,1195.53Zm5.29-171.1c-1.35-4-2.79-8.5-4.35-12.9-.61-1.73-2.16-1.93-2.86-.39-4.4,9.66-7,19.4-1.26,29.61,1.56,2.81,2.38.89,2.92-.17A69.32,69.32,0,0,0,553.81,1024.43ZM538.46,1222c.37-6.06-3.7-11-4.26-16.9-.18-1.92-2-.52-2.39.34-5.53,10.81-4.47,21.75-.29,32.66.76,2,2.24.64,2.45-.24C535.26,1232.5,538.83,1227.79,538.46,1222ZM534,1182.76c7-7.15,7.22-19.57.69-34.11Q523.81,1164.12,534,1182.76Zm17.8-98.06c-.76-3.93-1.16-7.35-2.87-10.41-1.27-2.25.08-6.73-3.13-6.76-3.36,0-2.41,4.46-3.29,6.87-1.21,3.3-3.83,6.56-3,10.16,1.12,4.7,3.69,9,4.62,13.83.21,1.08,1.11,3.24,2.25.49C548.4,1094.09,550.12,1089.19,551.82,1084.7Zm25.72,81.38c-1.38-5.2-2.77-10.55-4.25-15.86a1.79,1.79,0,0,0-1.41-1,1.91,1.91,0,0,0-1.37,1c-4.19,10.1-5.93,20.32-1.06,30.73a4.43,4.43,0,0,0,1.49,1.86c.59.37,1.18-.06,1.39-.85C573.75,1176.67,576.76,1171.84,577.54,1166.08Zm-77.14,27.41c-.61,4.93,3.81,9.88,3.26,15.81,0,.48,1,1.31,1.64,1.56s.86-.6,1.15-1.18c5.08-10.42,6.12-21,1.07-31.71-.34-.72-.18-1.77-1.3-1.72-.55,0-1.55.45-1.57.74C504.25,1182.44,500.34,1186.93,500.4,1193.49ZM916,210.46c.29-2,.07-4.08-2-5.06-6.92-3.26-13.86-6.46-20.91-9.41-1.8-.75-4.11-.57-4.66,2.13-.45,2.21-1.26,4.49,1.88,5.78,7.24,3,14.4,6.16,21.57,9.33C914.73,214.49,916.37,214.17,916,210.46ZM520.42,1137.21c-.24,5.56,2.55,10,3.12,15a2.64,2.64,0,0,0,1.56,1.72c1.4.43,1.4-1.12,1.84-1.84,6-10,4.13-20.15.32-30.27-.24-.63-1.14-1-1.8-1.44-.11-.06-.84.51-.89.85C523.79,1126.86,519.86,1131.69,520.42,1137.21Zm32.27,13.09a15.91,15.91,0,0,0-2.18,2.8c-4.72,9.7-2.13,19.19.88,28.68.44,1.38,1.61,1.7,2,.73,2.11-5.54,6.19-10.74,5.67-16.77-.41-4.71-3-9.21-4.56-13.83C554.21,1151.15,554.3,1150.24,552.69,1150.3Zm29.92-84c-1.08,6.2-5.81,11.16-5.08,17.44.6,5.25,2.51,10.35,4,15.48A2.88,2.88,0,0,0,583,1101c1.38.47,1.6-1,1.86-1.78C588.85,1088.1,590.12,1077.14,582.61,1066.27ZM334.77,390.08c.78,6.57,1.29,7.81,5,8.43,2.35.4,3.29,1.05,2.87,3.32-.57,3.05-2.52,1.75-4.15,1.22-1.42-.46-2.71-.68-2.81,1.35-.07,1.58-.55,3.38,2.2,3.39,7.29,0,10.4,5.06,12.72,10.94a14,14,0,0,0,1.21,3.17c1.05,1.44,2.82,1,4.06.52,1.4-.55,1-2,.09-2.83-6.8-6-6-13.65-4.48-21.41.24-1.24.36-2.6-1.35-2.43C344.39,396.32,339.23,395.3,334.77,390.08Zm211.62,833c-.27,5.23,3,9.71,3.08,14.84,0,.77.56,1.09,1.3,1.18,1.35.15,1.64-.92,2-1.77,4.58-10.06,5.35-20.21.49-30.41a3.18,3.18,0,0,0-1.73-1.56c-1.1-.3-1.36,1-1.46,1.59C549.25,1212.39,546.51,1217.43,546.39,1223.05ZM493.33,1054c-.59,2.82,1.39,4.84,2.3,7,1.26,3,.14,8.56,3.75,8.58,3,0,2.56-5.62,3.89-8.64s3.28-6.09,1.73-9.81c-1.62-3.87-3.49-7.72-3.51-12.08,0-.85-.14-1.77-1.24-1.72-.56,0-1.51.38-1.59.74A105.51,105.51,0,0,1,493.33,1054Zm45,82.91c1,5.62,3.94,10.7,4.43,16.49.1,1.18,1.76.93,2.7-.67,5.62-9.54,5.46-19.06.36-28.7-.76-1.46-2.23-3-3.08-1.07C540.86,1127.4,539.78,1132.21,538.36,1136.9ZM907.19,232.16c1.13.29,2.31-1.17,2.75-3.32.55-2.72-2.15-2.08-3.33-2.66-2.23-1.1-5.71.6-7-2.55-1.16-2.81-3.19-2.88-5.61-2.81-3.22.09-6.49.84-7.65-4-.61-2.5-3.73-2.61-6-1.62-3,1.29-5.08,0-7.13-1.8-1.13-1-2-2.42-3.25-3.07-2.55-1.29-5.66-1.1-7.3,1-1.51,1.92,1.39,2.55,2.64,3.08,12.83,5.38,26.58,8.68,38.07,17.09C903.94,232,905,231.82,907.19,232.16ZM598.4,1055.82c-.35-3.77-2.57-8.56-4.07-13.52-.31-1-1.85-3.66-2.75-.91-2.16,6.64-6.58,13-2.93,20.69,1.38,2.88,1.81,6.22,2.71,9.34.16.56.39,1.38.8,1.54a1.47,1.47,0,0,0,1.89-1.17C595.11,1066.85,598.51,1062.62,598.4,1055.82Zm-119.91-29.37-4.87-13.79c-.21-.6-.32-1.41-1.22-1.25-1.09.18-1.41,1.1-1.91,2-5.24,9.41-3.5,18.76.18,28.08.45,1.14,2,2.75,2.61.76C474.83,1037.09,478.08,1032.53,478.49,1026.45Zm59.35,12c-7.71,10.47-7,21.1-2.48,32,.31.76.31,1.77,1.41,1.51a2.41,2.41,0,0,0,1.38-1.3C542.46,1060,543.84,1049.25,537.84,1038.48Zm82.71,8.59c5.75-10.34,6.81-20.79,2.43-31.6-.29-.72-.41-2.17-1.74-2-1.06.11-1.49,1.06-2,2C613.5,1026.18,615.64,1036.56,620.55,1047.07Zm-45.68-8.4c-6.4,7.79-7.21,23.71-1.61,32.19.36.54.56,1.46,1.28,1.1a3.79,3.79,0,0,0,1.43-1.83c3.71-8.57,5.55-17.25,1.31-26.23C576.45,1042.15,575.66,1040.39,574.87,1038.67Zm-67.28,82.07c-8.11,9.42-5.84,19.71-2.8,30,.26.9.47,2.37,2.07,2.4,1.8,0,1.25-1.56,1.8-2.41C515.43,1140.36,511.25,1130.53,507.59,1120.74Zm-39.5-66.06c.09-4.78-2.73-8.6-3.58-12.88-.47-2.34-3.16-1.75-3.28-1.22-1.14,5.36-6.48,9.8-4.49,15.63,1.49,4.33,2.44,8.76,3.75,13.11.23.77.09,1.64,1.2,1.84,1.29.22,1.8-.54,2.1-1.56Q466,1062.15,468.09,1054.68Zm108.22,83.82c-1.49,3.11,2.2,5.68,2.28,9.19,0,2.14.41,5.76,2.93,6,2.85.33,1.91-3.34,2.54-5.11,1.45-4.06,4.58-8.17,3.1-12.53s-2.28-8.78-3.71-13.08c-.25-.75-.06-1.82-1.23-1.67a2,2,0,0,0-1.46,1.14C579.66,1127.72,576.21,1132.28,576.31,1138.5Zm-110.88-55.09c1,3.9,2.29,8.93,3.7,13.92.18.61.28,1.88,1.43,1.64.46-.09.92-.81,1.15-1.34,4.19-9.48,7-19,.88-28.84-1.15-1.85-2.22-2.42-2.92-.55C468,1072.78,465.42,1077.13,465.43,1083.41Zm23.7,14.29a28.38,28.38,0,0,0,2.43-30c-.42-.82-.65-1.38-1.65-1.4-1.38,0-1.46,1.17-1.89,1.94C482.45,1078.25,483.6,1088.08,489.13,1097.7Zm2.29-87.57c-7,11-6.63,21.93-.9,33.41C497.45,1032.45,498.15,1021.59,491.42,1010.13Zm18-.68c-6.73,13.44-6.64,24.48,0,32.27C517,1031.11,515.75,1020.26,509.43,1009.45ZM619,163.76c-1.41.77-4-1.25-4.51,1.42s2.25,2.79,3.92,3.65c.14.07.34,0,.49.06,9.5,3.81,19.82,1,29.56,3.79,5.1,1.47,10.82-.56,16.23,1.07,1.57.48,4.86,1.2,5.15-.9.37-2.71-2.31-3.86-5.08-4a9.42,9.42,0,0,0-5.19,1.29c-1.71,1-4.13,1.55-5,.06-2.31-3.87-5.35-2.23-8.28-1.81-2.28.32-6,1.85-6.58.55-2.38-5.49-5.79-2.74-9-1.83-2.2.63-5.55,1.91-6-.42C623.87,162.49,621.18,164.31,619,163.76Zm237.63,47c1-.35,3,1,3.31-1.36.14-1.25,1-3.57-1.36-3.52-6.48.12-11.88-2.27-17-6a4.47,4.47,0,0,0-3.88,0c-3.46,1.77-5.5-.57-8.35-1.68-3.26-1.26-6.39-8.77-11.16-1.54-1.23,1.86-1.8,2.46.69,3.19,8.74,2.57,17.38,5.56,26.21,7.74C849,208.59,852.25,211.25,856.67,210.79Zm-332.06,965.5c-6.55,8.46-6.6,18-.22,33.62C532,1198.76,530.2,1187.55,524.61,1176.29ZM560,1025.51c1.42,4.63,3,9.57,4.43,14.54.27.92,0,2.06,1.44,2.12s1.23-1.1,1.73-1.89c6.33-9.94,1.76-19.71-.44-29.49-.2-.87-1.74-2.53-2.42-.73C562.87,1014.91,561.6,1020,560,1025.51ZM515.54,1181.2c6-8.61,7-17.3,2.88-26.41-.82-1.84.1-5.08-2.2-5.38-3.05-.39-1.63,3.19-2.7,4.83C507.47,1163.57,511.43,1172.24,515.54,1181.2ZM602,1012.62c-1.53,4.62-3,9.08-5.38,13.19a3.45,3.45,0,0,0-.14,2.42c1.48,5.3,3.58,10.44,4,16A2.43,2.43,0,0,0,602,1046c1.49.3,1.18-1.06,1.42-2a18,18,0,0,1,1.36-3.65C610.05,1030.55,606.29,1021.63,602,1012.62Zm-142.34,13.21c-1-3.57-2.23-8.11-3.78-12.52-.26-.73-2.36-3.5-3.05-1.14-1.69,5.81-5.58,11.3-3.94,17.8,1,3.9,2.4,7.7,3.66,11.53.18.55.54,1.43.86,1.45.53,0,1.55-.48,1.57-.81C455.33,1036.68,459.46,1032.37,459.65,1025.83Zm22.52,12.64a7.13,7.13,0,0,0-1.43,1c-5.41,7.19-6,21.8-1.24,29.51,1.26,2,2.27.74,2.72-.35,2.95-7.21,6.47-14.34,2.41-22.39C483.47,1044,483.05,1041.36,482.17,1038.47ZM541.7,1231.6c-3.76,10.24-7.9,18.78-2.28,27.92,1.26,2-.12,6.16,2.32,6.17,3.39,0,.89-4.45,2.67-6.32.43-.44.51-1.18.83-1.75C550.29,1248.47,544.38,1241.11,541.7,1231.6Zm25.69-121.95c-.18,5.51,2.43,9,3.9,12.94.37,1-.29,2.54,1.53,2.54,1.56,0,2-1.1,2.64-2.43,4.22-9.17,2.47-18-1-26.91-.89-2.28-2.14-1.7-2.59-.45C570.09,1100.37,568.66,1105.53,567.39,1109.65Zm49-52.85c.57-4.83-3.25-8.37-3.76-12.9a1.65,1.65,0,0,0-2-1.61c-1.12.17-.91,1.14-1.3,1.78-5.85,9.53-2.72,19,.26,28.39.2.65,1.09,1.12,1.75,1.53.13.08,1-.5,1-.75C612,1067.35,617,1062.77,616.34,1056.8Zm-50,137.59c.81-5.1-1.84-9.32-2.82-13.89a4,4,0,0,0-1.77-2.18c-.56-.36-1,.31-1.28,1-2.42,7.07-5.93,14-2.94,21.74.89,2.3,2.21,4.4,1.93,7-.11,1,.12,2,1.57,1.94,1.14,0,2.19-.69,2.23-1.62C563.41,1203.48,567.63,1199.45,566.3,1194.39Zm23.27-165.62c-.47-4.64-2.58-9.22-4-14-.25-.84-.64-1.47-1.66-1.48a1.34,1.34,0,0,0-1.54,1.47c-.06,2.59-1.72,4.54-2.73,6.75-3.66,8,2.36,14.66,3.09,22.06.11,1,2.16,1.08,2.49-.44C586.3,1038.37,589.32,1034.21,589.57,1028.77Zm-62,37.72c-5.3,9.36-7.87,18.2-3,27.66.85,1.64-.27,4.76,2.26,4.83,3.21.1.88-3.2,2-4.68a19.59,19.59,0,0,0,2.28-4.32c1.42-3.41,2.42-7.19.91-10.54C530.2,1075.53,529.66,1071.3,527.54,1066.49ZM178.81,200.55c.53,1.71.13,5.75,3.84,3.7a146.72,146.72,0,0,1,19.26-9c3.46-1.3,2.08-4.58,1.49-6.83s-2.76-1.69-4.63-1.06c-6.55,2.19-12,6.48-18.3,9.18C178.55,197.34,178.84,198.68,178.81,200.55Zm301.44,892.93c-7.41,9.85-7.53,24.52-.62,31.21C485.85,1114.55,486.16,1104.09,480.25,1093.48Zm64-95.81c1.46-5.43-1.23-6.85-6.62-6.57-6,.32-5.75,4.32-5.11,8,.9,5.24,3.65,10.06,4.11,15.49,0,.51.74,1.14,1.29,1.39s1.23-.06,1.41-.86C540.74,1009.36,545.24,1004.49,544.3,997.67Zm-9.21,128.9c7.15-9.4,6.65-18.81,2.75-28.5-.62-1.54-2.17-3-3.14-1.17-2.15,4.13-5.06,8.72-4.87,13C530.07,1115.34,533.08,1120.64,535.09,1126.57Zm56.19,1.38c5-9.89,8.37-18.93,2.62-28.8-.89-1.53-2.31-3.39-3.37-1-2.25,5.17-5.44,10.37-3.89,16.39C587.74,1118.78,589.48,1122.84,591.28,1128Zm-92.54-34.13c-6.81,10.1-7.21,18.9-1.65,29.54.33.63.32,2,1.45,1.61.6-.18,1.07-1.08,1.43-1.75C505.21,1113.4,503.25,1103.84,498.74,1093.82Zm102.8,7.4c.85-1.81,1.65-3.51,2.46-5.21,4-8.35,2.44-16.51-1-24.56-.61-1.43-1.57-3.52-3.31-1C595.42,1076.86,596.43,1094,601.54,1101.22Zm-52.23,10.36c-.72,4.48,2.65,8.72,3.34,13.59.21,1.49,1.92,1.47,2.75-.19,4.72-9.47,4.89-19.11.85-28.81-.63-1.51-2.35-1.6-2.75.2C552.4,1101.3,549.12,1105.6,549.31,1111.58Zm-141-636.94c6.46,0,10.8-2.57,11.23-6,.63-5-5.76-8.5-12-6.49-3.56,1.15-8.32,2.28-7.77,6.8C400.4,473.75,405.36,474.18,408.35,474.64Zm102.72,635.7c1.49,4.36,2.9,8.85,4.62,13.22.43,1.11,1.44,3,2.83,0,4.26-9,4.42-17.69.05-26.67-1-2-1.91-2.09-2.52-.62C514.18,1100.78,512.77,1105.45,511.07,1110.34ZM618.41,355.89c0-5.87-2.11-8.14-7.47-8.19-4.44,0-7.56,3.12-7.63,7.73-.07,5,3.25,8.62,8.14,8.28C616.14,363.39,618.27,360.4,618.41,355.89ZM478.14,1146.48c-1,5.16-5.74,9.24-4.46,14.83,1.11,4.86,3,9.54,4.62,14.27.28.82-.22,2.3,1.19,2.33s1.54-1.27,2.11-2.31C487.3,1165.11,481.23,1156,478.14,1146.48Zm30.18,127.13c1,5.9,4.27,11.28,4.3,17.44,0,.3.91.77,1.45.87.7.13,1.15-.3,1.35-1.08,1.62-6.37,6-12.37,2.08-19.42-1.24-2.24-2.45-4.66-2-7.47a1.47,1.47,0,0,0-1.7-1.85c-1,.05-1.95-.15-2.31,1.23C510.55,1266.77,508.16,1269.77,508.32,1273.61ZM415.51,368.3a7.44,7.44,0,0,0,8,7.4c4.46-.27,7.23-3.2,8-7.34.67-3.82-4.49-8.7-8.43-8.67C418.68,359.72,415.49,363.36,415.51,368.3ZM222.62,202.69c-1.78.6-3.88-.85-4.69,1.23a3.73,3.73,0,0,0,.62,4.19c1.63,1.6,3,.17,4.54-.29,11.47-3.47,22.7-7.81,34.56-9.88,1.7-.3,2.88-1.12,1.72-2.39a9.23,9.23,0,0,0-7.13-2.62c-2.39.06-5.57.17-6.3,2.78-1.2,4.29-3.64,3.27-6.45,2.48-3.14-.88-7.73-1.13-8.6,1.46C229,205.22,225.7,203.33,222.62,202.69Zm81.7,74.12c-3.39-.08-8.5,3.93-8.68,6.8-.24,3.92,4.46,9.54,8.07,9.06,4.31-.57,7.68-2.81,8-7.69A7.68,7.68,0,0,0,304.32,276.81ZM525.4,370.87c-.22,4.69,2.12,7.46,6.68,7.77a8.1,8.1,0,0,0,8.3-8.71c-.39-4.56-3.16-7.39-7.72-7.06S525,365.66,525.4,370.87Zm53,24.41c0,5.93,3,9.52,7.27,9.35,4.73-.19,6.9-3.74,7.58-7.72.75-4.38-3.56-8.11-8.37-8.21C579.28,388.58,578.63,392.36,578.4,395.28ZM344.62,302.61c0-4.5-3.26-7.86-7.52-7.82-3.61,0-7.84,4.75-7.44,8.74.45,4.51,3.2,7.41,7.76,7.1S345.12,307.89,344.62,302.61ZM710.27,408.68c0,5.44,2,7.93,6.27,8s9.23-4.45,8.66-8.68a7.78,7.78,0,0,0-8.07-7.07C713,401.05,709.82,403.68,710.27,408.68Zm-415.59-4.16c.39-5-1.42-8-6.93-7.84-4.47.11-8.38,3.3-8,7.4s2.16,7.71,7.26,7.64C291.7,411.66,295.16,410.16,294.68,404.52Zm198.2,789.85c-1.19-5.22-2.35-10.45-3.63-15.64-.21-.87-.86-2.14-1.53-2.3-1.54-.37-1.49,1.44-2,2.28-5.95,9.24-1.15,17.79,1.91,26.4.74,2.08,2.37.4,2.42-.26C490.31,1201.24,493.48,1198.33,492.88,1194.37ZM697.5,281.85c4.45.1,7.56-3.16,7.79-8.17.17-3.6-3.65-6.85-8-6.87-4.81,0-7.17,3.26-7.85,7.11C688.68,278.15,692.87,281.74,697.5,281.85Zm-44.15,24c.1-5.74-3.37-9.23-8.07-9-4.29.21-7,2.35-7,7s4,9.37,7.89,8.78A8.4,8.4,0,0,0,653.35,305.83ZM400.56,326c.06-4.84-2.88-8.25-7-8.3-5.31-.06-7,3.74-7.86,7.84-.63,3,4.2,8.1,7.22,8.24C397,334,400.51,330.43,400.56,326Zm75.33,810.19c-2.89-4.92-3.31-10.69-5-16.1a6.61,6.61,0,0,0-1-1.5c-.73.66-2.08,1.32-2.08,2,0,4.15-2.63,7.65-2.51,12,.15,5.4,3.32,9.92,3.59,15.22,0,1,1.73,2.45,2.65.13C473,1144.14,474.37,1140.32,475.89,1136.2ZM436.42,282.78c6,0,8.18-2.19,8.1-7.7a7.5,7.5,0,1,0-15,1C429.9,280.26,431.56,283.47,436.42,282.78Zm67.87,981.77c1.53-1.46,2.35-1.91,2.66-2.59,4.36-9.5,2-18.67-1.52-27.76-.6-1.52-2.48-1.42-2.53-.51-.33,5.07-4.83,9-2.83,15C501.71,1253.51,505.45,1257.83,504.29,1264.55Zm15.89-273.34c-6-.07-7.41,2.53-6.67,6.13,1,4.92,2.61,9.72,3.88,14.59.28,1.07.8,2,1.79,2.11,1.56.2,1.67-1.49,2-2.36,1.54-4.1,3-8.25,4.17-12.47S523.14,991.2,520.18,991.21ZM383.55,383.94c-.32,5.1,1.65,7.81,7,7.88s6.83-3.2,7-7.44c.16-4.75-2.17-7.56-7.32-7.69S383.16,379.22,383.55,383.94Zm112.64,820.74c-8.31,10.19-3.53,20.06.59,30.23C503.49,1224.34,500.86,1214.39,496.19,1204.68ZM487,346.58c-4.37.47-7.48,2.58-7.51,7.28s2.83,7.55,7.63,7.9c4,.29,7.5-3.54,7.29-8.09S491.41,347.12,487,346.58Zm-34.2,717.25c-2.48,6-5.29,11.09-4.22,17,.6,3.32,1.94,6.51,2.84,9.79.29,1-.19,2.33,1.55,2.59,1.93.29,2.73-.85,3.19-2.33,1.46-4.78,3.32-9.35.56-14.55C454.88,1072.82,454.26,1068.63,452.82,1063.83Zm-17-54.2c-.94,1.42-1.5,2.15-1.95,2.94-4.92,8.87-.54,17.44.95,26.08a2.15,2.15,0,0,0,1.31,1.36c1.05.31,1.1-.66,1.51-1.39C443.05,1028.76,439.86,1019.57,435.8,1009.63ZM335.4,426.68c7.84,0,9.2-.92,9.23-5.85s-2.83-8.12-7.54-8.14c-5.33,0-6.91,3.79-7.37,7.91C329.29,424.51,331,427.38,335.4,426.68Zm10.29-187.49c.68-4.78-2-7.12-6.94-7.38-5.47-.29-7.13,3.43-7.05,7.83s2.68,7.13,7.45,7.18S345.83,244.19,345.69,239.19ZM522.65,1319c1.55-5,5.64-9.19,4.66-14.65-.77-4.27-2.56-8.36-3.81-12.56-.25-.85-.37-1.57-1.43-1.63-1.4-.07-1.19,1.08-1.67,1.88C514.84,1301.39,519.11,1310.07,522.65,1319Zm51.72-324.68c-3.86-.78-5.65,1.62-4.87,5.29a136.71,136.71,0,0,0,4.56,14.81c.2.61.27,1.92,1.41,1.65a2.79,2.79,0,0,0,1.75-1.46c1.46-4.12,3-8.23,4.08-12.45C582.53,997.24,580,994.35,574.37,994.27Zm-67.85,4.12c.34-4.21-.8-6.56-5.74-6.23-4.13.28-5.92,2.15-5.26,5.91.83,4.77,2.15,9.48,3.44,14.16.39,1.41,2.32,3.19,2.82.89C502.91,1008,506.34,1003.7,506.52,998.39ZM270,189.82a14.79,14.79,0,0,0-2.34,0c-1.32.31-3.31-.9-3.8,1.2-.32,1.37-.41,3.28.31,4.31,1.12,1.59,2.64-.25,4-.51,10-1.93,20.06-4.07,30.13-5.91,2.36-.43,6.1-.37,6-2.51-.13-3.27-3.88-2.48-6.4-2.57-.82,0-2.23-.12-2.38.24-2.38,5.51-7,3.13-10.57,2.64C279.18,185.92,275.37,194,270,189.82Zm174.56,848.45c-6,8.82-5.08,17.39-1.15,26.07.42.93.41,1.93,1.8,1.81s1-1.43,1.47-2.17C452.39,1054.94,447.64,1046.91,444.56,1038.27Zm33.17-39.7c-.85,6.21,2,9.84,2.72,14,.16.9.38,1.59,1.44,1.63a1.52,1.52,0,0,0,1.73-1.37c.63-4.11,3.64-7.27,4.58-11.17.58-2.42,1.2-5.24-1.23-7.42-2.78-2.5-5.43-.09-7.89.41C476.38,995.2,477.79,998.31,477.73,998.57Zm231-819.71a13,13,0,0,0,2,0c2.2-.45,6.1,1.37,6.12-2.12,0-3.8-3.86-1.19-5.91-1.79-2.86-.84-6.07,2.5-8.57.31-4.44-3.89-8.75-3-13.31-.84-1.45.7-2.61.57-3.4-.78-2.88-4.92-7-2.47-10.87-2a1.61,1.61,0,0,0-1.51,2.09c.19,1.13,1.09,1,1.89,1.1Zm-242,930.88c-1.52-5-2.91-9.65-4.27-14.28-.21-.72.27-1.84-.82-2s-1.7.77-2.1,1.71c-3.16,7.34-2.55,14.71,0,22,.69,1.94,2.45,3.23,3.85.88C465,1115.43,465.76,1112.36,466.77,1109.74Zm90.54-95.52c2.92-6.21,5.64-11.27,5.13-17.43-.38-4.52-3.61-4.23-6.77-4.57-3.88-.41-3.09,2.17-3.28,4.42C551.89,1002.66,555.07,1007.62,557.31,1014.22Zm42.13-11.28c0-4.37-1.37-5.18-7.89-5.72-2.24-.18-3.25.42-3.23,2.95.06,5.71,3.35,10.5,4.24,16,.27,1.63,2.14,1.64,2.7,0C596.89,1011.62,598.2,1006.94,599.44,1002.94ZM212.51,190.84c5.54-1.39,10.9-2.65,16.21-4.11,1.59-.44,1.32-1.82.38-2.7-3.38-3.13-16-3.14-19.42-.12-1.83,1.62-.34,3.19-.11,4.88C209.87,191,211.21,190.89,212.51,190.84ZM463.4,1015.75c3.37-4.64,4.06-9.76,6-14.3.7-1.65.92-4.94-2.72-4.13-3,.67-8.09-.33-7.9,4.32S460.89,1011,463.4,1015.75Zm-221-841.92c-3.44.86-8,2-12.52,3.17a1.77,1.77,0,0,0-1,1.33c0,.48.55,1.38.92,1.41,4.88.37,9,4.17,14.54,2.4,3.45-1.1,3.27-2.85,3.47-5.36C248.1,173.18,245.65,173.87,242.42,173.83Zm110.78.07c3,.23,4.94-.2,6.24-1.86a1.83,1.83,0,0,0-.25-1.73c-2.16-1-4.4,1.09-5.76.88-6.53-1-10.26,4.67-15.76,5.79-1.46.29-2.94,1.4-2.71,3s1.92.77,2.94.83c2.15.12,4.31,0,6.47,0s2.73-1,1.88-2.75c-.59-1.2-2.62-2.09-.62-3.6,1.6-1.2,3.55-.64,5.3-.52,3.22.22.58,2.11.68,3.18.12,1.33.79,1.82,1.88,1.64,2.3-.39,6,1.47,6.65-1,.79-2.85-3.48-1.19-4.84-2.79A12,12,0,0,0,353.2,173.9Zm107.67-4c4.7.22,8.95-1.61,13.47-1.17a4.51,4.51,0,0,0,5.06-3,2,2,0,0,0-1.61-2.67c-2.38-.43-5.62-3.09-7,.26-2.15,5.1-4.7,3.55-7.9,1.68-1.85-1.08-4.06-2.09-6-.55-1.18,1-2.15,2.91-1.21,4.46C456.94,171,459.3,169.48,460.87,169.94Zm279,258.67c-2.9-4.75-8.08-6.69-9.43-11.66-.15-.58-2.48-.59-3.5.59-1.56,1.79-3.76,2.54-5.74,3.66-.75.42-2.22.48-1.74,1.86.22.64,1.16,1.51,1.72,1.47C727.5,424,732.91,427.79,739.88,428.61ZM453.08,169.48c-2.72-2.9-5.92-5.17-7.95-3.44-5.4,4.59-10.58,1.45-15.89.85a5.58,5.58,0,0,0-1,0c-1.81.08-2.62,1.06-2.72,2.86-.14,2.36,1.47,2.1,3,2.17C436.55,172.29,444.36,170.45,453.08,169.48Zm152.74,833.15c.86,2.46,1.39,5.1,2.65,7.33,1.47,2.6,1.32,8,3.11,7.68,3.49-.62,2.88-5.61,4.37-8.59.7-1.41,1-4.27-.35-4.42C612.32,1004.29,609.76,1001.09,605.82,1002.63ZM481.25,814.39c-3.51-.13-5.7.92-5.76,4.34-.08,4.18,3.05,4.43,6.08,4.7,3.55.33,3.91-1.81,4-4.68C485.74,815.1,484.12,814,481.25,814.39ZM823,473.85c-5.37-4.68-9.86-10.9-20.05-10C810.52,467.88,814.62,474.73,823,473.85ZM328.33,394.27c-3.17-5.42-7.2-9.35-14.06-8.64-1.39.15-2.95.14-3.34,1.56-.49,1.83,1.59,2.11,2.55,2.35A144.34,144.34,0,0,1,328.33,394.27Zm398-217.54a7.68,7.68,0,0,0-5,1.63c-.79.53-1.63,2-.37,2.19a30.57,30.57,0,0,0,8.33.09c1.44-.16.91-1.92.86-3a5.56,5.56,0,0,0-4.15-5.41c-2.2-.61-4.61-1.16-6.77.41C720.74,175.55,724.07,174,726.34,176.73Zm-319.11,276c2.35-.58,5.22-.6,5.34-4.34.08-2.44-.81-4.16-3.39-3.62-2.37.51-6-.79-6.54,3.21C402.24,451,404,452.55,407.23,452.73Zm-.91-286.45c-4.46-1.75-4.46,4.38-8.2,3.62-2.1-.42-4.65-.25-4.5,3,.15,3.48,2.95,1.55,4.55,1.93,1.26.3,2.65,0,4,.07,2,.17,3.14-1.07,2.3-2.58C402.88,169.48,405.09,168.15,406.32,166.28Zm355.39,12.59c-4.43,2.51-9.5,1.53-14,3.28-.59.23-.91,1.21-1.24,1.89a1.82,1.82,0,0,0,1,.74c3.56.41,7.13.79,10.7,1.08.94.07,2.52-.23,1.67-1.48C757.91,181.53,760.89,180.87,761.71,178.87ZM290.25,386.78c-2.87-.17-4.43.27-4.6,2.73-.18,2.72,1.77,2.34,3.31,2.21,2.12-.19,3.68.72,5.41,1.76,1.08.65,3.25,1,3.95-.46.59-1.23-.47-3.06-1.69-3.71A49.09,49.09,0,0,0,290.25,386.78ZM611.73,162.14c2.37-1.84,6.84.43,8-2.76.54-1.46-3.16-4.07-5.93-4.42-3.94-.51-4.27,3.18-5.1,5.51C608,162.64,610.45,161.5,611.73,162.14Zm-196.66,10.7c1.88,0,3.37,0,4.86,0,1.34,0,2.09-1.11,1.5-1.85a10.23,10.23,0,0,0-8.41-4c-2.5.05-3.52,2.59-3.24,4.21C410.38,174.72,413.65,171.82,415.07,172.84ZM481.83,162c1.86-.15,3.71.51,3.74-2.22,0-3.14-1.82-5.27-4.35-5.65s-4.83,2.27-4.8,4.54C476.46,161.82,480.43,160.35,481.83,162Zm-39.4,845.76a49.43,49.43,0,0,0,1.17,5.28c.6,1.79,2,1.73,2.75.28,1.51-3.06,2.66-6.29,3.92-9.47.45-1.13-.43-1.76-1.21-1.45C446.35,1003.44,442.71,1003.54,442.43,1007.72Zm367.17-810c3.27.27,4.59.1,4.6-2.36s-1.3-2.6-3.11-2.53c-1.31.06-2.63,0-3.94,0-2.22,0-5.44-.44-5.62,2.21-.16,2.49,3,1.48,4.82,1.83A32.52,32.52,0,0,1,809.6,197.74ZM383.94,176c1.62-1.06,5.6,1.44,5.29-1.8-.35-3.64-4.61-3.32-7.64-3.28-1.49,0-4.17-1.24-4,2C377.91,177.29,381.45,175.43,383.94,176ZM767.35,188c2.62-.25,5.63.32,5.86-3.62.09-1.5-.38-3.12-2.07-2.38-2.71,1.18-7.19-.12-7.8,4.1C762.9,189.11,766,187.34,767.35,188ZM210.06,207.78c-1.55,1-5.06-2-5.31,2.55-.13,2.47,1.27,2.64,3.08,2.5,3.09-.24,7-.58,8-3.32C216.39,207.87,212.41,207.91,210.06,207.78Zm584.71-13.85c1.32-.77,4.17,1.45,4.4-2,.16-2.44-1.44-3.41-3.5-3-2.26.5-6-.39-6.21,2.77C789.27,194.67,792.59,193.67,794.77,193.93ZM327.71,183c1-1,4.08,1,3.67-1.48-.52-3.14-4.27-3.62-6.88-4.45-2.45-.77-1.71,1.7-1.83,3C322.28,184.31,325.6,182.37,327.71,183Zm41.77-5.08c1.69-.26,5,.6,4.66-1.75-.45-2.86-4.25-2.64-6.78-3.22-1.58-.37-2.94,0-2.75,2.22C364.9,178.4,367.29,177.85,369.48,177.91Zm350.41,9.18.18-1.92c-7.73,0-15.12-3.26-23.06-1.32Zm-407.2-6.3c-1.5.55-4.11-1.11-4,2.18a2.87,2.87,0,0,0,3.77,2.71c2-.65,5.88.57,5.82-2.52C318.26,180.92,314.77,181.2,312.69,180.79Zm468.52,10.09c2.27-.12,4.32-.23,4.89-2.61.49-2-.8-2.62-2.57-2.44-2.62.26-6.42,0-7,2.56S780.19,189.07,781.21,190.88ZM187.64,222.79c1.4-1.94,5.36-.84,6.05-4.31a1.4,1.4,0,0,0-2.26-1.43c-2,1.69-6.8-1.07-6.63,4.09C184.86,222.88,186,222.84,187.64,222.79ZM806.73,203.5c-5.76-2.56-11.5-5.18-19.39-5.87C793.88,203.26,801.05,200.66,806.73,203.5Zm-67.17-23.67c-1.83.22-5.14-.65-4.86,1.72.26,2.2,3.88,1.9,6.12,2.3,1.57.28,3.88-.33,3.64-1.82C744.1,179.82,741.68,179.57,739.56,179.83ZM681,181.65c-4.83-4.27-10.09-2.38-15.09-2.19A29,29,0,0,0,681,181.65ZM198.82,212.77c-1.45.56-4-1.12-4,2.14,0,2.45,1.77,1.86,3.13,1.92,2,.08,4.42-.24,4.61-2.44C202.78,211.62,200.08,213.42,198.82,212.77Zm203.89,123c-1.56-.19-2.11.52-2.13,2,0,2.56,2.4,2.78,3.79,3.85.73.56,1.48-.85,1.1-1.48C404.61,338.59,405.37,336,402.71,335.74ZM839,210.75c2.64,2.22,5.52,4.87,10.52,3.63Zm-211.07-54.1c-.13-.43-.12-.67-.23-.74-.65-.47-1.36-.86-2-1.35s-.94-.94-1.47-1.34c-2.31-1.77-3.62-1.65-2.94.15.73,2,2.61,2.76,4.4,3.43A5.85,5.85,0,0,0,627.93,156.65Zm53.69,23.93c4.09,2.95,7.1,2.34,10.78,1.92C689.14,179.79,686,181.37,681.62,180.58ZM745.36,177c2.16.58,3.94,2.89,6.37,1.5.72-.42.32-1.21-.16-1.64C749.58,175.06,747.49,175.82,745.36,177ZM686.43,169c2-.06,3.36,3.14,5.61,1.12a1.4,1.4,0,0,0,.06-1.37C690.32,167.1,688.4,167.83,686.43,169Zm-55.65,850.57c.76-2.51,1.32-4.48-.9-6-.24-.16-1.11,0-1.19.26C627.87,1016.06,628.63,1017.8,630.78,1019.58ZM366.61,170.63c2.92,0,5.45,1.28,8-1.5C371.69,169.07,369.16,167.84,366.61,170.63ZM757,191.25a36,36,0,0,1-5.6-.88,9,9,0,0,0-5.76-.05,49.34,49.34,0,0,0,5.35,1.35C752.83,191.93,754.77,192.26,757,191.25Zm23.32,4.67c1.91,3.1,4.22,1.78,6.92,1.64C785.16,195.14,783,195.91,780.29,195.92ZM423.15,164.67c-2.45-1-4-1.35-5.26.61-.17.28,0,1.11.18,1.21C420.13,167.48,421.19,165.94,423.15,164.67Zm442,56.37c-1.77-1.78-3.65-4-7.15-2.62ZM361.85,184.52c2.4.63,4.5.61,6.72-1.85C366,183.42,363.56,181.68,361.85,184.52Zm-62.91,9.86a5.42,5.42,0,0,0,6.37-1.3C303,193,300.7,191.89,298.94,194.38Zm18.24-4.08c4.05,1.19,6.34-.59,9.71-.83C323.25,188.1,320.87,190,317.18,190.3Zm513.07,18.79c1.76,2.48,3.66,1.75,5.58,1.41C834.54,208,832.53,209,830.25,209.09ZM286.93,183.54c2.1.63,3.62.47,4.56-1.24.15-.26-.31-1.21-.41-1.2A5,5,0,0,0,286.93,183.54Zm62.3,2.12c2.23-.73,5.06,1.79,6.8-1.6C354,185.71,351.33,184.21,349.23,185.66Zm-77.15,1.63c.8-1.39,3.43.83,3.55-1.9,0-.36-.34-.73-.52-1.1C273.88,184.93,272.22,185,272.08,187.29Zm42.51,3.64c-2.39.14-4.43-.88-5.59,1.54C311.08,193.36,312.59,192.6,314.59,190.93Zm121.2-13.33c1.74.17,3.4.92,4.9-.93C438.63,175.46,437.09,175.36,435.79,177.6ZM739,175.19h-4.67C736,177.39,737.48,177.06,739,175.19Zm-285.66.21c-2.52-1.27-4.24,1-6.36,1.09C449,176.46,451.14,177.75,453.38,175.4Zm-270.3,35.1c2.37.84,3.41-.58,4.41-2.06C185.65,208.37,184,208.68,183.08,210.5Zm6.48-3.61,4.69-2.43C192.13,204.17,190.37,204.6,189.56,206.89Zm485.72-39.28c-.07-1.42-.66-1.78-1.6-1.69-.68.06-1.38.27-1.21,1.08.22,1,.86,1.81,2,1.64C674.84,168.58,675.13,167.81,675.28,167.61Zm126.18,20.54c1.4,1,2.45,2.42,4.24,1.3.19-.12.35-.69.24-.81C804.67,187.18,803.14,188,801.46,188.15Zm-94.57-16.58a2.18,2.18,0,0,0-3-1.53c-.27.08-.62,1.05-.48,1.2C704.37,172.25,705.53,171.91,706.89,171.57Zm23.73,16.07c-1.64-.28-3.24-1.5-4.87,0Zm41.92,6.65c.73,1.87,1.83,1.51,3,.85ZM434.92,164.87c.79-.13,1.62-.11,1.43-1.07-.06-.32-.79-.83-1-.75a7.9,7.9,0,0,0-1.44,1.23Zm-51,16.8a3.2,3.2,0,0,0-4.12,0Zm490.28,41.6c-1.68-.25-2.34-2-3.8-.93C871.1,223.64,872.07,224.18,874.19,223.27ZM416.47,178.43c-.65-.26-1.05-.58-1.35-.5-.51.13-1.24.4-1.38.8-.29.79.46,1.17,1.08,1S415.77,179,416.47,178.43Zm494.26,42.49c.48-.32,1.06-.49,1.14-.8.17-.65-.15-1.27-1-1.19a5.4,5.4,0,0,0-1.45.53ZM473.32,153.64c.64-1.16,1-1.56,1-1.85s-.59-.5-.91-.75c-.24.32-.66.63-.69,1S473,152.81,473.32,153.64Zm168.43,10.79a2.63,2.63,0,0,0,3.15-.11A2.63,2.63,0,0,0,641.75,164.43Zm-255,3.67c.9.33,1.33.63,1.72.59s.88-.41.92-.69a1.13,1.13,0,0,0-.68-.91C388.41,167,388,167.41,386.73,168.1Zm-47,19.35c1.3.35,2.23.87,2.77-.37.09-.21-.14-.56-.22-.85Zm-106,3.6c.14-.26.3-.56.47-.85-.28-.1-.58-.31-.84-.27a5.38,5.38,0,0,0-1.17.44Zm426.63-25.69a10.17,10.17,0,0,0-1.67-.41c-.27,0-.56.19-.84.29.31.2.61.54.93.56A5.92,5.92,0,0,0,660.32,165.36Zm-250.8,13.88-.37-1.08a10.15,10.15,0,0,0-1.1,1c-.07.07.25.63.29.62A8.64,8.64,0,0,0,409.52,179.24Zm-76.19,9.28c-.32-.26-.55-.58-.72-.55a10.59,10.59,0,0,0-1.52.46,2.23,2.23,0,0,0,.82.35A8,8,0,0,0,333.33,188.52Z"/><path class="cls-1" d="M847.12,501.59c.08,5,5.35,7.88,5.4,12.94.09,8.92.68,17.77-.55,26.75-1.7,12.36-4.94,24.32-8.51,36.13-4.65,15.41-10.72,30.39-16.09,45.59-2.92,8.27-5.51,16.65-8.47,24.9-4.61,12.85-11,25.29-13.76,38.5-4.23,20.27-14.78,38.34-18.55,58.54a40.87,40.87,0,0,0,.84,20.16c2.31,7.16.81,10.35-5.46,14.4-9.86,6.37-14.74,16.49-18.67,27-5.44,14.48-10.26,29.2-15.51,43.75-5,13.94-10.32,27.79-15.41,41.72-6.65,18.21-13.42,36.38-19.75,54.71A271.73,271.73,0,0,1,697.15,983c-4.87,9.4-10.36,18.69-18.26,26-3.89,3.59-8.14,7.28-14.29,6.21-1.83-.33-4.91.78-4.92-1.83,0-2.84.56-7.12,3.71-7.84,13.62-3.14,18.83-14.39,23.66-25.07,12.27-27.15,21.07-55.66,31.23-83.63,8.28-22.8,16.91-45.46,25.28-68.22,3-8.2,5.59-16.58,8.7-24.75,4.84-12.66,11.22-24.27,23.39-31.57,2.43-1.46,3-3.43,1.91-6.34-4.06-10.68-1.63-21.45.92-31.83,5.46-22.14,15.83-42.73,21.84-64.63,3.88-14.15,8.07-28.16,13.13-41.86,3.32-9,6.46-18,9.73-27,3.46-9.49,6.54-19.13,10-28.61,4.68-12.68,8.8-25.52,10.56-38.94.89-6.81.86-13.71-2.83-20.06-3.57-6.13-.58-11.42,6.24-11.38Z"/><path class="cls-1" d="M671.32,1049.13a129.36,129.36,0,0,1-7.36,32.8q-16.12,43.78-32.39,87.52c-3.1,8.31-3.56,16.18,2.15,23.63,3.15,4.1.74,7.74-2.76,8.46-12.52,2.59-15.62,13.06-19.42,22.5-5.22,13-9,26.5-13.75,39.7q-8.14,22.74-16.46,45.42c-4.59,12.48-10.28,24.51-20.35,33.7-5,4.55-10.6,8-17.82,5.89-1.38-.41-3.8-.8-3.43-2.91s1.56-4.81,3.84-4.61c11.73,1,14.38-8.69,19-15.82,5.47-8.42,7.14-18.46,10.78-27.68,5.93-15,11.58-30.12,17.16-45.27,4.1-11.15,7.77-22.46,11.86-33.61,3.62-9.88,8.87-18.61,19.32-22.63,2.22-.85,2-2.29,1.43-3.42-6.28-12.47-2.74-24.45,1.56-36.44,4.45-12.42,8.67-24.93,13.3-37.29,3-8.1,7-15.86,9.85-24,5.44-15.28,11.51-30.41,14.36-46.47a18.39,18.39,0,0,0-4.28-15.21c-1.52-1.84-2.95-3.7-2.45-6.18.66-3.27,3.17-4,5.54-2.46s5.22,3.63,5.78,6C668.24,1036.86,672.57,1042.32,671.32,1049.13Z"/><path class="cls-1" d="M860.41,480.64c-1.33,0-2.66,0-4,0-2,.06-3-.77-3.28-2.85s.51-3.73,2.28-3.7c16.6.3,19.28-13.34,24-24.38,4.16-9.7,7.12-19.92,10.59-29.92,5.34-15.38,10.62-30.77,16-46.13,2.4-6.82,7.79-10.74,13.91-13.94,1.19-.62,4-.42,2.32-3.5-5.78-10.45-3.54-20.94.22-31.37,8.9-24.67,17-49.62,25.91-74.28,3.2-8.85,5.56-18.84-1.32-27.77-.39-.52-.64-1.23-1.15-1.58-2.38-1.62-4.42-3.91-2.08-6.34s5.16-.33,7.27,1.56c8.28,7.46,9.7,17,8.34,27.44-3.25,25-14.44,47.56-21.68,71.33a201.87,201.87,0,0,1-8.07,23c-3,6.72-1.31,12.5,1.75,18.25s1.92,8.36-4.54,9.29c-5.26.77-8.13,4.8-9.81,9.32-3.86,10.39-7.22,21-11,31.38-6.44,17.74-11.29,36.11-19.32,53.19-3.73,7.92-9.37,15.19-17.72,19.6C866.21,480.75,863.36,480.56,860.41,480.64Z"/><path class="cls-1" d="M0,702.37c-.35-9.5,2.84-16.49,10.28-21.62,4.67-3.21,9.07-1.25,13.35.27a5,5,0,0,1,3.08,5.68,4.61,4.61,0,0,1-4.64,3.72c-2.61,0-4.39-1.16-4.15-4.22.13-1.71-1.18-1.93-2.35-1.64a7.66,7.66,0,0,0-5.47,5.17c-.57,1.77-1.14,4.47,3,3.28,6.26-1.79,13.76,3.06,14.76,8.94,1.68,10-3.14,17.84-11.33,18.51C5.94,721.33,0,714.61,0,702.37Zm9.91,4.27c.49,2.44-1.45,6.48,2.94,7.71,2.65.74,5.31.06,6-3.35,1.31-6.1-.36-12.06-3.58-12.46-3.05-.38-5.14.8-5.39,4.16C9.87,703.84,9.94,705,9.94,706.64Z"/><path class="cls-1" d="M18,194.77c1.07-4.53-2.39-5.67-5.77-6.79-1.85-.61-5.17.75-5-2.47.14-3,3.2-2.58,5.46-2.65,3.33-.12,5.11-1.88,5.36-5.17.22-2.72.26-5.33-3.09-6.42-2.61-.85-4.26-.61-3.93,2.7.3,3,.1,5.75-3.49,6.62a3.81,3.81,0,0,1-4.73-2.4c-1.49-3.26-1-5.94,1.76-8.43A14.46,14.46,0,0,1,21,167.42c4.05,1.94,6.47,5,6,9.82-.09.82,0,1.85-.42,2.4-3.16,3.87-2.78,7,.1,11.32,3.18,4.81.76,9.71-3.63,13.38A15.24,15.24,0,0,1,4.74,205c-3.45-2.55-5.94-5.62-4-10.43,1.25-3.2,3.46-4.46,6.61-3.47s4.67,2.67,3,6.35c-.67,1.5-2,4.53,1.25,5.29s5.29-1.35,6.32-4.23C18.28,197.48,18,196.2,18,194.77Z"/><path class="cls-1" d="M16.36,113.87c-2.66,0-5.33,0-8,0-4.48-.1-5.78-2.51-3.34-6.41,2.65-4.23,6.3-7.52,10.2-10.63,4.23-3.37,7.59-7.47,6.69-13.43-.48-3.18-2.32-5.12-5.84-4.4-3.86.79-2.13,3.25-1.42,5.28,1.17,3.35-1.05,5.22-3.34,6.35C8.75,91.88,7.09,90,5.9,87.69,3.39,82.87,6.16,77,12.34,74.23c3.8-1.7,12.54.23,15.81,3.43,4.1,4,3.49,8.79,1.59,13.27s-7,6.32-10.31,9.77c-.66.69-1.88,1-2.34,1.71-1.07,1.77-4.36,1.86-3.9,4.47.35,2,2.51,1,3.82,1,2.82,0,6,.85,7.23-3.26.43-1.46.14-4.44,3.4-3.7,2.86.66,2.2,2.92,2.24,4.81.18,7.85-.08,8.09-8,8.1Z"/><path class="cls-1" d="M12.38,463.61c-5.14.61-8.31-2.44-10.74-6.75-1.55-2.74-.68-5.3,1.16-7.27s4.72-1.53,6.49-.46c2,1.2,2.31,3.74.91,6.15-.55.94-.73,2.6.48,3.11a4.76,4.76,0,0,0,4.31-.27c4.28-2.52,5.22-13.34,1.2-16.29-3.35-2.47-6.16-.72-8.71,1.81-.86.85-1.58,2.44-3.23,1.63A2.7,2.7,0,0,1,3,441.79c1.55-4.53.68-9.19,1-13.77.28-3.6,1.5-5.84,5.63-3.14,3,2,6.22,2.6,9.44-.14,1.56-1.33,3.89-2,5.28.15,1.74,2.64-1,4.54-2.5,5-3.06.9-5.62,3.34-9.16,2.89-1.31-.16-3.64-1.11-3.75,1.75-.13,3.26,2.41,2,3.93,2.12,12.89,1.14,17.38,8.73,14,18.54C25.19,460.2,19.27,463.59,12.38,463.61Z"/><path class="cls-1" d="M22.82,273.88c.64,4.08-1.66,8.33,4,10.21,2.5.82.65,2.93-1.18,3.73-3.75,1.63-3.28,3.6-.42,5.58,1,.71,2.05,1.18,1.57,2.59a2.56,2.56,0,0,1-2.7,1.73c-4.32,0-8.64,0-12.95,0-1,0-2.07.05-2.15-1.41-.07-1.19,0-2.2,1.41-2.74s3.11-1.38,2.46-3.55-2.51-1-3.8-1.27C-1.79,286.3-1.86,286.28,4.5,276.8c4-5.95,8.34-11.67,12.28-17.66,1-1.55,2.13-1.19,3.35-1.24,1.66-.06,1.84,1.12,1.75,2.35C21.56,265.05,24.08,269.64,22.82,273.88ZM14.08,278c-.38-1.21.36-3.66-1.51-2.92A7.32,7.32,0,0,0,8,281.11c-.18,1.69.18,3.06,2.3,2.69C13.65,283.21,13.59,280.35,14.08,278Z"/><path class="cls-1" d="M699.34,1184.17a34.62,34.62,0,0,1,5.8.07c1.66.33,3.05,2.24,1.18,3-7.59,3.23-6.66,11-9.43,16.72s-3.53,12.11-6.52,17.73c-2.09,3.92-4,3-5.3-.35-3.08-8.23-5.8-16.59-8.84-24.83-1.26-3.42-2.08-7.32-6.38-8.64-.88-.27-1.89-1.19-1.24-2.3s1.54-2.69,3-2.17c3.75,1.35,7.57.31,11.32.7.77.09,1.74-.19,2.11.82a2.12,2.12,0,0,1-.84,2.65c-3.15,1.85-2.2,4.48-1.12,6.79a53.33,53.33,0,0,1,4.27,13.5c.17,1,1,1.86,1.57,2.78.77-.83,2.11-1.58,2.22-2.49.7-5.44,2.7-10.41,4.82-15.38.36-.85.6-2.33.14-2.86C689.4,1182.28,696.63,1184.51,699.34,1184.17Z"/><path class="cls-1" d="M935.08,519.57h-5c-1.67,0-3.61.19-3.93-2s1.15-2.93,3.08-2.93c1.25,0,1.68-.61,1.81-1.79.91-8.54.25-17.08,0-25.62,0-1.53-1-2.24-2.47-2.61-1.78-.44-3.85-1.5-3-3.56a4.09,4.09,0,0,1,5-2.11,16.22,16.22,0,0,0,10.59.05c2.59-.87,4,.71,4.59,2.55s-.75,3.09-2.77,3.11c-2.85,0-3,1.9-3,4.08,0,6.66,0,13.32,0,20,0,2.74-.74,5.85,3.56,6.29.95.1,1.47,1.3,1.31,2.42a2.27,2.27,0,0,1-2.33,2.12c-2.5.06-5,0-7.49,0Z"/><path class="cls-1" d="M912.78,519.57a9.31,9.31,0,0,1-2.48,0c-2-.59-5,1.59-6.08-1.38s2.52-2.76,3.63-4.17c2.13-2.72,2.55-6.63,2-9.77-.89-4.82-.51-9.56-.69-14.33-.1-2.52.32-5-3.34-5.53-1.24-.18-3-1.51-2.35-3.2.56-1.48,2-3.07,3.89-2.41,4.21,1.48,8.5.72,12.76,1,1.06.05,2.44-.41,2.81,1.27a2.27,2.27,0,0,1-1.8,3c-3.49.61-3.1,3-3.07,5.54.06,6,0,12,.05,18,0,3.08-1.31,6.92,3.8,7.65.87.13,1.29,1.5,1,2.57a2.41,2.41,0,0,1-2.59,1.84h-7.49Z"/><path class="cls-1" d="M830.87,795.36a34,34,0,0,1-3.5,0c-2-.2-5,1.09-5.81-1.39-.73-2.19,2.45-2.55,3.48-3.82,1.45-1.78,2-4.7,2.05-7.16.26-6.48.06-13,.11-19.46,0-1.85-.14-3.2-2.58-3.16-1.82,0-2.51-1.32-2.45-3.06.07-2.49,2-1.75,3.29-1.77,4.16-.08,8.32,0,12.47,0,1.28,0,2.48.3,2.88,1.47.47,1.37-.63,2.18-1.8,2.49-3,.78-3,3-2.91,5.37q.14,9.24,0,18.47c-.05,3.32-.49,6.65,3.51,8.28a1.84,1.84,0,0,1,1.17,2.44,2.48,2.48,0,0,1-2.44,1.37C835.86,795.31,833.36,795.35,830.87,795.36Z"/><path class="cls-1" d="M810.06,795.36c-1.33,0-2.66,0-4,0-1.59-.08-3.47.56-4.5-1.25s.43-3.1,1.6-4.2c1.32-1.23,1-2.74,1-4.18,0-6.64,0-13.27,0-19.91,0-2.17-.1-4-1.82-5.86-2.31-2.47-1.17-4.27,2.06-4.42,3.64-.16,7.3,0,11,0,1.5,0,2.58.64,2.73,2.24a2.17,2.17,0,0,1-1.86,2.55c-3.49.31-3.12,2.76-3.12,5.09,0,6.47.07,12.94,0,19.41,0,2.85.63,5.15,3.42,6.39,1.21.53,2.77,1,2.32,2.65-.41,1.49-1.91,1.56-3.29,1.53C813.71,795.32,811.88,795.36,810.06,795.36Z"/><path class="cls-1" d="M853.4,795.36c-1.5,0-3,0-4.49,0-1.75-.06-4,.58-4.61-1.8s1.34-2.82,3.26-3.36c1.67-.47,1.55-2.26,1.62-3.8.36-7.25-.79-14.53.8-21.78.46-2.09-.48-4.22-3.47-4.25a2.24,2.24,0,0,1-2.3-2.66c.13-1.6,1.29-2.19,2.78-2.19,4.82,0,9.64,0,14.47,0a2.33,2.33,0,0,1,2.53,1.9c.24,1.15-.21,1.92-1.53,2-5.14.17-5.63,5.29-5,7.53,1.65,6.26-.93,12.1-.39,18.12.25,2.68.11,5.39,4,5.49a2.13,2.13,0,0,1,2,2.44,2.32,2.32,0,0,1-2.6,2.37c-2.33,0-4.66,0-7,0Z"/><path class="cls-1" d="M952,362c0-3.32-.07-6.64,0-10,.08-2.42.07-4.61-2.94-5.33-1.2-.28-2.22-1.17-1.76-2.51.4-1.16,1.57-1.51,2.85-1.49,4,.06,8,0,12,0,1,0,2.49-.44,2.73,1.3.2,1.42,0,2.49-1.84,2.78-2.57.39-3.13,2.19-3.07,4.68.17,7,0,13.94.06,20.92,0,2.71.08,5.5,4,5.32,2-.09,2,1.22,2,2.63.07,1.69-.61,2.36-2.31,2.34-4.81-.06-9.63-.14-14.44,0-2.06.07-2.6-1.4-3-2.64a1.8,1.8,0,0,1,2-2.25c4.14.13,3.83-2.65,3.8-5.39C952,369,952,365.51,952,362Z"/><path class="cls-1" d="M656.13,1222.88c-2,.2-4,0-5.58.67-1.83.8-2.62,0-3-1.28s-.55-2.71,1.27-3.25c3.79-1.11,3.6-4.09,3.54-7.18-.12-6.33-.06-12.65,0-19,0-2.42.18-4.82-3.36-4.78a2.29,2.29,0,0,1-2.55-2.47c.09-1.94,2.19-2.51,3.23-2.23,4.59,1.24,9.22.5,13.82.74,1.29.07,2.41.51,2.58,1.79s-.9,2.16-2.18,2.15c-4.57,0-4.27,3.88-4.43,6.36-.45,6.63-.12,13.31-.19,20,0,2.42.78,3.87,3.42,3.72,2.47-.15,4,.89,3.57,3.47-.51,3-2.57,2.76-4.92,2A32.26,32.26,0,0,0,656.13,1222.88Z"/><path class="cls-1" d="M592,806.4c.45-2.08.61-3.34-.55-4.42-14.42-13.45-8.05-27.9,8.47-34.21,4.29-1.64,5.67-1.84,1.12-5.53-5-4.1-8.54-10.07-6.39-17,2-6.29,6.67-10.31,13.32-11.82,1.16-.26,2.15-1.21,3.22-1.85a8.6,8.6,0,0,0-1.64-2.33c-10.61-7.29-11-20.63,4.62-27,3.18-1.3,4.77-2.12.85-4.67-8.69-5.64-5-19.23,3.24-21.92,3.92-1.27,5.27-2.61,2.41-6.8-3.95-5.8-1.31-13.32,5.32-15.95,2.4-1,2.88-2.14,2.07-3.9-1.06-2.3-.34-4.6-.67-6.86-.66-4.41.93-7.2,5.29-8.69,5.62-1.91,11-1,15.21,2.53a9,9,0,0,1,2.54,10.72,5.69,5.69,0,0,1-1.82,2.76c-2.19,1.6-1.92,3.31-.13,5.18,6.85,7.16,8.72,12.39-.29,20-2.08,1.75-.68,3.43.73,5,9.05,10.16,8.77,12.59-1.81,22-2,1.78-.65,3.29,1.3,4.56,4.15,2.7,7.82,5.73,9,11.07,1.63,7.39-1.06,13.34-8,16.18-3.2,1.31-4.41,2.3-.83,5,3,2.26,6,4.8,7.5,8.47,3.39,8.34-.05,16-9.23,20.35-1.32.63-2.47,1-2.47,2.6s1.16,2,2.47,2.58c11.6,5.51,15.41,17,9.86,28.16-2.2,4.45-5.61,7-10,8.73-1.88.75-3.69,1.68-7.1,3.25,7.9,2,14.47,2.18,20.31,4.87,2.7,1.24,7.23,1.26,6.16,6.11-.73,3.32-6.26,3.79-10.63,2.62-8.89-2.39-18-4.18-27-5.69a6.9,6.9,0,0,1-5.57-4c-2.24-4.16-5.55-4.49-8.54-.72-1.43,1.8-3.16,1.72-4.91,1.53-11.11-1.23-22.19-2.6-33.38-3-2.79-.1-4.74-2-4.43-4.81.33-3,1.9-6.6,5.31-5.79C581.87,804.89,587.24,803,592,806.4Zm33.55,1c7.86,1.11,15.53-1.27,22.45-6.3,6.51-4.73,6.82-15.21.39-20.06-14-10.58-29.59-13.21-46.23-7.57-5.4,1.82-10.53,5.53-11.47,11.26s1.69,10.9,6.93,14.65A41.43,41.43,0,0,0,625.55,807.39Zm1.15-43c4.61,0,7.81.34,10.9-.08,5.62-.75,10.58-3.28,12.49-8.87,2-5.88-2.43-10.35-6.41-12.61-11.94-6.76-24.63-9-37.55-1.8-7.37,4.1-7.65,11.45-.7,16.44S619.34,766.18,626.7,764.43Zm6.65-34c2.86,0,4.92.32,6.84-.07,4.25-.86,8.5-2.55,10.7-6.33,1.71-2.92.36-6.29-1.76-9.13-6-8.1-27.55-11.41-35.4-5.35-6.33,4.87-6.23,9.67,0,14.86A27,27,0,0,0,633.35,730.46Zm-2.17-51c-1.94,0-3.1,0-4.27,0-4,.15-8,1.22-9.33,5.11-1.43,4.33.21,7.87,4.68,10.66,5.83,3.63,11.94,3.73,18,3,3.31-.41,7.24-2.26,7.9-6.43.61-3.87-2-6.23-5-8.37C639.33,680.6,635.34,678.61,631.18,679.45Zm3.51-22.93c-4.75-.25-8.23,1.26-8.3,6.66-.07,4.94,4.57,8.51,11,8.32,4.33-.14,8.73-.82,8.94-6.58C646.46,659.75,641.81,656.49,634.69,656.52Zm8.68-12.77c.24-4.13-2.47-5-5.39-5.15-2.3-.13-4.88.15-4.65,3.53.28,4,3.22,5,6.47,5.39C642.71,647.86,643.57,646.07,643.37,643.75Z"/><path class="cls-1" d="M418.34,821.54c-2.88.08-4.89-.4-4.8-4.06.09-3.33.51-5.59,4.64-6.12,10.8-1.38,21.56-3.19,32.33-4.86,2.75-.42,5.42-.14,7.33,1.94,1.3,1.42.92,3.37,0,5.11-1.33,2.63-3.68,2.78-6.25,2.89-9.8.4-19.29,2.92-28.95,4.35C421.23,821,419.79,821.29,418.34,821.54Z"/><path class="cls-1" d="M538.13,802.41c6-1,13.32,1,20.75,1.08,3.21,0,5.55,1.93,5.38,5.13a4.73,4.73,0,0,1-5.34,4.66c-11.73-1.22-23.48-.74-35.23-.92-3.12,0-4.18-2.05-4.19-5s1.08-4.87,4.2-4.95C528,802.33,532.34,802.41,538.13,802.41Z"/><path class="cls-1" d="M361.16,632.52c-2.19.05-4.13.12-4.56-2.72-.59-3.88,1.4-6.08,4.7-7,5.47-1.59,11-2.88,16.57-4.16S389,616.37,394.55,615c2.91-.72,5.13.16,5.85,2.74.78,2.75.51,5.86-3.16,6.73-8.87,2.09-17.72,4.31-26.68,5.91C367.33,631,364.46,633.05,361.16,632.52Z"/><path class="cls-1" d="M489.65,602.55c4.8,0,8,.1,11.1,0,2.17-.09,4,.2,4.49,2.65s.33,4.72-2.16,6a10.28,10.28,0,0,1-4.13,1.33c-11.06.41-22.13.67-33.19,1-2.84.09-4.84-.78-5.25-3.91-.48-3.67,2.16-4.66,4.79-5C473.94,603.67,482.5,601.67,489.65,602.55Z"/><path class="cls-1" d="M624.48,607.7c7.42,1,15.54,1.89,23.55,3.33,2.49.45,5,.13,7.34.62,3.55.72,7.39,2.36,6.66,6.44s-3.89,4.91-8.42,3.78a168.64,168.64,0,0,0-29.47-4.4c-3.27-.22-6.7-1.15-6.55-5.09C617.7,609.06,620.24,607.25,624.48,607.7Z"/><path class="cls-1" d="M569.35,602.65c13.33,1.55,25.23.65,36.91,2.87,2.8.53,3.37,2.34,4,4.29.69,2.16-.2,3.79-2.44,4.59-1.54.55-3,1.54-4.73,1.05-10.58-3.05-21.53-1.91-32.3-2.87-3.77-.33-4.36-2.59-4.46-5.77C566.22,603.3,568.32,602.75,569.35,602.65Z"/><path class="cls-1" d="M676.18,615.68c5.38,2.21,12.53,1.81,19.32,3.53,4.39,1.12,8.78,2.25,13.21,3.14,2.81.56,5,1.78,4.34,4.8a5.19,5.19,0,0,1-6.21,4.31c-4.19-.58-8.62-.68-12.47-2.2-6.53-2.57-13.48-2-20.09-3.72-3.33-.85-5.42-2-5-5.87C669.73,616.18,671.88,615.4,676.18,615.68Z"/><path class="cls-1" d="M727,625.92c10.05,2.72,20.13,5.38,30.15,8.21,2,.55,4.79-.26,5.11,3.41.45,5.22-1.55,7.16-7.23,5.79-6.16-1.48-12.23-3.34-18.35-5-3.61-1-7.19-2.26-10.86-2.7-3.28-.4-6.39-1.22-6.05-4.74S723.14,625.8,727,625.92Z"/><path class="cls-1" d="M535.42,610.55c-6,0-12-.07-18,0-2.48,0-4.29-.82-4.89-3.2a3.73,3.73,0,0,1,3.18-4.83,170.43,170.43,0,0,1,39-.16c3.31.33,2.69,3.3,2.59,5.55-.1,2.54-2,2.63-3.94,2.62C547.39,610.53,541.4,610.55,535.42,610.55Z"/><path class="cls-1" d="M642.43,321.81c9.94,0,16.35,4.62,18.73,13.71.79,3.05,2,2.83,3.54,1.21,4.48-4.62,10.16-4.39,15.72-3.89,8,.71,14,11.77,11,19.5-3.9,10-9.51,13.4-19.74,11.25-4.42-.92-7.76-4-10-8-1.57-2.83-3.09-4-5.83-.94-7.45,8.22-20.09,5.74-25.75.27-9.74-9.43-8-21.07-1-28.27A15.18,15.18,0,0,1,642.43,321.81ZM629.29,340c-.46,8.62,6.63,14.1,13.48,14.61,7.34.54,13.31-6.77,13.61-15,.27-7.57-7-12.57-13.44-12.79C635.86,326.56,629.31,333.06,629.29,340Zm57,8.5c0-8-2.52-10.79-9.91-10.82-6.24,0-11,4.4-11.11,10.3-.09,5.49,4.77,10.73,9.94,10.73C683,358.74,686.27,355.73,686.27,348.52Z"/><path class="cls-1" d="M770.15,279.75c.27,3.39,3.55,5.18,4.19,8.62,2,11-4.16,18.36-13.67,20.3-8.38,1.7-18.89-6.38-19.27-14.91a15.69,15.69,0,0,1,8.79-15.3,17.26,17.26,0,0,1,15.6-.27c1.47.66,2.64,1.9,4.44,1.64Zm-.92,12.69c0-6-4.81-10.46-11-10.76-6.47-.31-10.26,5-10.94,11.46-.51,4.8,5.92,10.56,11.34,10.68C763.78,303.93,769.21,298.13,769.23,292.44Z"/><path class="cls-1" d="M741.23,250.87c1-2-.59-3.38-1.4-4.73-4.47-7.45-3.75-14.89,3.06-20.25a17.75,17.75,0,0,1,25.35,4.43c3.92,6,2.39,13.51-3.21,19.17-4.81,4.85-13.9,6-20.06,2.47-1.23-.71-2.22-1.78-3.81-1.16Zm12.54-23.07c-6.71,0-10.61,3.64-10.61,9.92,0,7.05,3.67,11.07,10.09,11.09,6.64,0,11-4.31,10.94-11S760.57,227.81,753.77,227.8Z"/><path class="cls-1" d="M807.1,300.24c0,9-5.9,15.49-14,15.49-9,0-15.61-6.27-15.87-14.5-.39-11.89,8.81-17.27,16.08-17.36C801.29,283.77,807.1,290.77,807.1,300.24Zm-14.68,10.52c4.6.06,9.52-5.1,9.73-10.21.19-4.95-4.47-11.6-8.24-11.75a10.46,10.46,0,0,0-10.79,10.12C783,306.55,786.26,310.67,792.42,310.76Z"/><path class="cls-1" d="M393,258.17c-1.53,1.41-2.34,2.22-3.23,2.95-2.29,1.91-2.95,2.85.76,4.3,6.42,2.49,9.82,10.59,7.6,16.26-2.35,6-10.32,9.72-16.89,7.88-6-1.67-9.88-8.49-8.54-15.29a7.54,7.54,0,0,1,2-3.84c3.76-3.64.69-4.12-2-4.63-8.88-1.68-16.69-10.44-15.89-18.83,1-10.9,7-17.49,17.19-19,10.36-1.5,19.5,4.81,21.55,14.32.93,4.33,1.45,5.27,5.48,1.93,6.5-5.38,21.05-2.21,24.65,9,3.48,10.83-5.22,18-12.78,20.29-8,2.44-17.1-3.82-19.2-12.82C393.46,260.13,393.31,259.55,393,258.17Zm-3.35-10.32c.31-9.67-6.57-14.57-13-14.84-5.67-.23-13.59,5.77-13.16,14.36.38,7.82,5.51,13.43,13.13,13.43A12.73,12.73,0,0,0,389.63,247.85Zm9.91,9.46c-.06,6.79,3.88,11.4,9.84,11.49,5.58.09,11.07-5.49,11.16-11.35.09-5.51-4.94-10.5-10.71-10.62C403.83,246.7,399.6,251,399.54,257.31Zm-6.94,20.62c0-5.95-2.68-8.14-7.66-8.2-5.23-.06-6.53,3.85-7.25,7.61-.65,3.35,4.71,7.52,8.72,7.44C391.55,284.69,392.14,281,392.6,277.93Z"/></g></g></svg>