<svg xmlns="http://www.w3.org/2000/svg" viewBox="0 0 580.06 322.79"><defs><style>.cls-1{fill:#f2953e;}</style></defs><g id="Layer_2" data-name="Layer 2"><g id="Layer_1-2" data-name="Layer 1"><path class="cls-1" d="M145.83,22.86c1.69,5.62-2.74,6.16-6.18,6.86-2.55.52-5.38-.23-6.45,3.14-.09.27-.7.64-.72.62-4.28-4.28-8-.58-12,.61-1.12.33-2.57-.17-3.38,1.12-1.25,2-2.95,3.81-4.78,1.29-1.39-1.92-1-5.08,1.59-6,4.29-1.47,6.25-3.57,6.1-8.44-.15-4.7,3.9-.26,5.74-1.88-1.94-4-5.64-3.58-8.87-3.14-3.44.48-.73,3.28-1,4.92-.7,4-2.46,6.16-6.46,4.65-2.83-1.06-5.57-.72-8.34-.7s-3.69-1.94-4-3.65c-.41-2.28,1.82-2.22,3.49-2.31,2.51-.15,4.14-1.45,4.16-4,0-3.53-2.86-2-4.45-2-11-.44-22.12-1.77-33-.66A64,64,0,0,1,43.54,11c-.63-.17-1.8-.27-1.93,0-4.08,8.21-10.42-2-15.17,1.85-1.18,1-2.73-.58-3.85-1.59l-1.41-.76.68,1.53c.39,3.82-1.8,5.58-4.32,2.84C12.48,9.38,5.38,13.09,0,10V0C20.3,1.66,40.66,5.2,60.89,4.57,96,3.47,130.53,10.94,165.55,9c16.17-.89,32.35-1.7,48.54-1.93,12.42-.17,24.89,1.33,37.28.82,26.49-1.1,52.87,1.68,79.33,1.16C338,8.91,345,6.78,352.56,7.87c25.22,3.68,50.82,3.43,76.07,6.48,12.33,1.5,24.92,2.56,36.87,1.81a246,246,0,0,0,32.92-4.26c10.36-2.09,20.82-.71,31.23-.8,11.36-.1,22.47,3.51,33.88,2.84,4.23-.24,8.31,1.74,12.64.2,2.4-.86,3.52,1.32,3.76,3.41a51.82,51.82,0,0,1,.08,6c0,7.14-4.62,10.1-11.46,7.75-2.36-.81-5-1-7.52.92a9.47,9.47,0,0,1-9.88,1c-3.31-1.46-1.75-4.4-1.15-6.94.33-1.41-.21-3-1.72-3.1-1.81-.16-1.27,1.63-1.23,2.61.19,5.38-6.24,8.62-4.54,14.7.37,1.32-2.65,1.82-4.13.95-2-1.15-4.27-2.44-5.27-4.29-1.23-2.28-5.44-3.91-3.44-6.88,2.46-3.63,4.69-.07,6.91,1.33.71.44,2.41.52,2.81,0,1.26-1.5.92-3.5.36-5.19-.44-1.32-2.36-2.34-1.61-3.9,2.57-5.37-1.1-4.9-4.28-4.65-10.89.88-21.73-1.74-32.65-.1-7.23,1.09-14.67,1.15-21,5.59a20.4,20.4,0,0,0-2.41,1.69c-1.72,1.6,3,5.91-1.41,5.5-4.12-.38-8.35-2.85-11.84-5.36-1.8-1.3-3.21-1.6-4.76-1-1.73.64-2.64,2.18-2.76,4.31-.08,1.45,1.46,4.35-1.62,4.17-2.72-.16-3.42-2.61-3.22-5.23.1-1.45,2.43-3.15.11-4.31s-2.65,1-3.71,2.53c-1.51,2.14-3.76,2-5.14-.5-2.1-3.79-2.76-4.05-8-2.35,0,1.25,1.1.87,1.74,1.23,1.5.82,3.82.85,3.88,3.24.05,2-1.87,2.35-3.13,2.42-2.09.13-4.69,1.18-5.78-2.16a15.64,15.64,0,0,0-2.94-5,2.43,2.43,0,0,0-3.57-.12c-.94,1-.37,2.25.68,3,5.21,3.59-2.1,6.1-.76,9.33-2.71,0-4.29-1.39-5.84-3.64-1.93-2.8-3.93-5.31-2.11-10.09-3.58,3.16-6.19,5.33-8.64,7.67a3.73,3.73,0,0,1-4.1.91c-1.23-.44-1.56-1.58-1.51-2.86.09-2.5,2-1.61,3.3-1.81,1.06-.16,2.56.38,2.57-1.45,0-1.59-1-2.31-2.51-2.51-4.86-.64-9.72-1.26-14.56-2-5.87-1-10.63,1.44-14.53,5.32-2.23,2.21-5.08,1-7.32,2.36-.19.11-1.66-1.14-1.77-1.87a3.15,3.15,0,0,1,1.19-2.39c1.92-1.5,6.58-.38,6.15-3-.47-2.9-5.67-3-7.74-3-10.9-.1-22.09-1.27-32.55,2.86-2,.8,1,6.59-3.74,6.48-2.55-.06-.83-6.27-5.48-4.78l.08.08c.15-1.36.41-3.55-1.64-2.56-2.92,1.41-6.15-5.44-8.78.89-1.46,3.52-3.38,12.12-8.53,1.57-.82-1.68-3.62-4.67-6.89-3.8-3.54,1-1.24,4.35-2.26,6.28-1.69,3.21-3.34,7.16-6.17,8.86-3.36,2-4.42-1.34-4.72-4.53-.21-2.23,1.57-5.36-1.37-6.52-1.68-.67-3.79,1-4.9,2.7-1.87,2.82.14,4.42,1.86,6.56a20.23,20.23,0,0,0,4.61,4.22c1.52,1,2.33,2.65,1.43,4.3s-3.25,1.27-4,.68C281.8,37,278.05,34.46,276,31c-1.64-2.78-4.09-7.11.9-10.2.74-.46.46-2.75.37-4.17,0-.26-1.41-.63-2.17-.61-2,.06-2.11,1.84-2.46,3.17s.07,2.74-2,2.7c-1.77,0-2.9-.75-3-2.57s-.91-3.84-2.81-3.26c-9.13,2.79-17.84-2.32-26.86-1.1-2.92.39-5.34,3.55-8.82,1.56-.26-.15-.68,2.27,0,3.46.74,1.41.58,2.59-.73,3.46-1.64,1.09-3,.18-3.79-1.14-1.83-3.24-3.7-2.88-6.27-.8-1.24,1-3,2.51-4.83.66-2.17-2.22,1.62-2.83,1.25-4.55-1.61-.82-3.65-1.3-4.81-2.58-1.33-1.48-2.68-1.18-4-.94-1.95.34-1.07,2.1-1.2,3.28-.18,1.75.45,4-2.06,4.4-2.29.38-2.58-1.76-2.91-3.23-1-4.55-5.13-2.68-7.44-3-3.73-.51-9-.44-11.28,1.78-2.85,2.76-2.36,7.86.14,11.92.49.79.51,2.64,0,3.14a2.58,2.58,0,0,1-3.9-.57c-1.91-2.41-3-1.91-4.58.56-2.23,3.53-6.87,5.63-6,10.94.28,1.72-1.27,1.65-2.42,1.54-2.6-.26-2.83-2.32-2.38-4.07,1.32-5,3.92-9.39,8.55-12a9.27,9.27,0,0,0,4.43-5.47c.89-2.52,1.66-5.68-.57-6.67-3-1.3-2.73,2.7-4,4.3-2.24,2.86-3.47,7.05-8.71,3.58-3.23-2.15-3.14,1.32-2.69,3,.72,2.61,1.32,5.08-1.78,6.12-2.31.77-5.08,1-6.7-1.64-1.79-3,.69-3.74,2.52-5.22s1.42-4.35.49-5.95c-1.16-2-2.18.84-3.42,1.11-1.42.31-2.81.71-4.22,1.08-1.07-4-2.64-5.54-7.55-4.36-3.6.86-5.5,4-9,4.43-1.48.19-3.43.47-3.39,2.71,0,.7.42,1.92.84,2a7.15,7.15,0,0,0,4.65-.69C135.89,24.9,139.84,20.14,145.83,22.86ZM331.36,17l1.52.71-.77-1.42c-1.48-1.85-3-1.78-5.72.15Zm230.69,10c-.1-2.39-1.23-3.19-3.18-3.19s-1.79,1.36-1.88,2.67c-.13,2.05,1,2.41,2.72,2.38C561.3,28.91,562.25,28.5,562.05,27.08Zm7.3,1.07c1.76-.27,2.3-1.84,2.41-3.18s-1.39-1.09-2.27-1c-2.11.17-1.34,1.88-1.42,3.06C568,27.7,567.85,28.89,569.35,28.15ZM289,15.52a7.8,7.8,0,0,0-2.2-1.32c-1.55-.35-1.35,1-1.3,1.87s-.65,2.62,1.06,2.66C288.07,18.77,288.43,17.2,289,15.52ZM215.11,16.7c2.8.32,3.77-1.11,4.62-3.69C217.05,13.35,216.15,14.86,215.11,16.7Z"/><path class="cls-1" d="M127.1,201.06c6.78,6.43,22.56,5.12,27.76-2.34,1.88-2.69.83-5.3-.37-7.89s-2.77-4.5-6.3-4.44c-11.16.19-21.92-2.17-27.87-12.38s-10.71-20.81-15.66-31.45c-10.79-23.19-22.4-46.15-40.49-64.77-8.63-8.88-18.41-16.67-27.89-24.7-1.8-1.53-1.58-2.74-.79-4.12.92-1.62,2.09-.85,3.23.15,9,7.85,17.65,16,27.1,23.28,11.6,9,17.43,22.53,25.5,34.3C103.75,124.81,110.2,146,120.91,165c3.65,6.47,8,12.1,15.43,14.79,4.14,1.49,6.43,1,7.44-3.5,2.56-11.35,5.84-22.36,15.67-29.93,10.83-8.33,21.45-16.86,33.72-23.22,3.34-1.73,11.23-3.72,5.56-11.18-.83-1.08-2-3-.2-4.46.41-.35,1.4-.67,1.66-.45,1.48,1.24,3.21,2.24,3.47,4.57.14,1.31-1.33,4.08,1.4,3.67,1.74-.26,4.91-.7,4.62-4.07-.48-5.51,3.2-5,6.52-4.13,3,.77,5.41,1.84,5.81-2.77.11-1.31,1.89-3.12,3.28-2.37,8.9,4.77,15.11-3.07,22.25-5.16,12.39-3.62,24-9.81,36-14.81a9.49,9.49,0,0,1,7.05-.39c4.68,1.51,9.11.31,13.8-2,8.33-4.07,17-6.47,26.85-3.37,4.15,1.29,11.18,4.08,14.65-3.23a2,2,0,0,1,3-.79c6.76,5,14.5,1.52,21.7,2.61,2.32.36,2.46-1.24,3.21-2.73.54-1.06,1.47-3,3.43-1.68a2.11,2.11,0,0,1,.45,3.43c-2.86,3.22-.24,3.11,1.84,2.92,10-.91,19.5,2.67,29.35,3.17,2.64.13,4.11,2.54,6.19,3.8,9.87,6,20.77,9.75,31.44,13.87a116.19,116.19,0,0,1,34.79,21.49c6.44,5.62,11.46,12.5,18.38,17.9,5.4,4.22,11.3,11.68,11.94,20,.6,7.82,6.48,12.57,9.11,19,3.08,7.58,8.69,5.86,14,5.49,9.31-.64,13.27,4.69,10.81,14-2.07,7.83-9,11.65-14.33,15.27-9.65,6.52-14.1,15.63-18,25.42-4.88,12.2-10.25,23.79-20.16,33.07-3.51,3.28-5.46,9-7.09,13.46-3,8.09-8.51,11.77-15.56,13a22.13,22.13,0,0,0-12.35,6.06c-4.61,4.46-10.67,4.43-16.4,5.32-11.42,1.78-22.68,4.32-34,6.6-21.16,4.27-42.06,11.51-64.19,8.42-12.24-1.71-24.82-1.24-36.78-3.46-15.08-2.81-30.46.35-45.37-4.29-10.21-3.17-20.66-5.51-30.86-9-8.74-2.95-17.45-6.08-26-9.38-7.37-2.84-13.91-7.59-20.2-12.5-6.13-4.78-13.07-8.68-18.56-14.08-6.91-6.81-13.66-14.17-18.66-22.4-3.38-5.56-3.82-13-5.19-19.64-1-4.94-1.45-10-2-15-.17-1.51-.89-1.94-2.26-1.92-10.52.16-16.59-7.17-23.13-13.72-1.33-1.33-2.82-4.28-4,.27a1.94,1.94,0,0,1-3.21,1c-1.3-1.28-2.08-3.32.16-4.5,2.79-1.47,2.4-2.91.49-4.7-8.48-7.95-9.36-19.22-13.28-29.28-7-17.83-11.54-36.92-23.7-52.33-6.82-8.64-14.36-16.76-22-24.74C42.52,75.69,35.46,69.53,28.77,63c-1.08-1.05-4.09-1.51-2.25-4s4.13-.67,5.54.61c4.47,4.06,8.24,8.73,13,12.63C58,82.77,69,95.54,78.85,108.76,87.33,120.1,91.93,133.82,96,147.64c3.43,11.72,8.87,22.86,13.6,34.18.56,1.33,2.17,3,3.43,3.15,10.66,1.07,15,14,26.29,13.82,1.14,0,1.81,1.59,1.35,2.8s-1.21,2-3,1.31a94.33,94.33,0,0,0-9.75-2.56c-.73-.93-1.57-1.53-2.81-1Zm403.06-9.68c-.37-2.14,0-4.8-3.34-4.89a2.3,2.3,0,0,0-2.58,1.83c-.62,3.56,3.12,1.18,4,2.81.22.4.74.63,1.13.94.28,1.58.13,3.45.94,4.69,1.24,1.87.47,6.85,4,5.14a12.77,12.77,0,0,0,6.7-10.44,4.66,4.66,0,0,0-2.74-4.8,4,4,0,0,0-3.34.06c-1.82,1.34.12,2.94.43,4.29.51,2.21,1.9,5.09-.38,6-2.58,1.06-2.32-2.82-3.77-4.13A8,8,0,0,1,530.16,191.38ZM277.89,232.65a10.63,10.63,0,0,0-3.3,6.39c-.93,11.27-8.06,19.8-12.77,29.4-.57,1.17-3.24,2.1-1.63,3.34,2,1.55,2.68-1.11,3.9-2.35s1.61-4.89,3.74-3.63c1.76,1,1,4.19-.27,6.25a19.41,19.41,0,0,1-2.43,3.07c-8.08,8.43-18.49,13.74-27.76,20.58-1.73,1.29-5.27,1.79-3.42,4.6,1.26,1.91,4.56,1.35,6.79.14,6.34-3.44,12.51-7.25,16.43-13.53,1.68-2.7,2.91-4.32,6.53-2.93,2.39.92,6.33.63,6.47-2.58.24-5.5,2.87-10.91.73-16.55-.74-2-.35-3.93.54-6.12,3.3-8.16,9.26-15.65,7.16-25.34l.7-1.52Zm-116-75c8.17,1.71,0,7.28,2.25,10.33,2.83-.43,2.74-6,5.92-4,2.41,1.57-.83,4.34-1.24,6.64a4.66,4.66,0,0,0,0,1c.09,7.13-5.38,5.35-9.09,5.13-3.09-.19-6.26-.78-8.19,1.72-2.61,3.37,1.64,3.91,3.14,5.28,8.2,7.49,7.84,10.44,2.86,20-3,5.75-9,10.89-7.64,18.38,1.16,6.22-.2,12.65,2.69,18.83,1.47,3.15,2.14,3.84,5.12,2.39a44.62,44.62,0,0,0,17.68-14.93c1.05-1.52,2.84-5.07,4.92-3.26,1.64,1.43.19,4.51-1.57,7-4.67,6.49-11.41,10.07-17.88,14.07-1.74,1.07-2.3,2.26-1.93,4,.3,1.39,1.51,1.25,2.36.82,3-1.53,5.81-3.37,9.55-1.91,1.44.56,1.82-4.58,3.54-2,1.62,2.45-2.57,2.42-3.89,3.82-.88.94-2.14,1.51-3.09,2.4-1.23,1.14-4.82.57-3.43,3.53,1.23,2.65,4,1.62,6,.69,6.72-3.21,13.7-6.09,19.88-10.16,6.44-4.25,8.22-12.34,12.59-18.38,1.46-2,3.19-5.72,4.91-4.95,3.47,1.54-1.31,3.89-.67,6.15-1.35,3.11-5.63,4.61-5.35,8.63,2.18-2.57,5.71-4.12,6.07-7.87,7.63-9.08,13.86-18.87,15.31-31,.22-1.77.37-3.71,2.54-3.46,3.16.36.13,2.16.46,3.28.41,1.43-.73,3.24,1.37,4.73,4.41-8.79,7-18,9.58-27.21.57-2-1.12-5.57,2.27-5.57s2.75,3.43,2.7,5.79c-.13,6.09-3.65,11.9-.61,18.46-.49-7.62,6.45-12.85,5.71-20.58-.08-.87.16-2.38.66-2.58,1.43-.57,1.86.83,2.35,1.87,2,4.11.58,8.48.92,12.71.23,2.86.55,5.4,4.37,5,2.43-.28,2.09,1.44,2.72,3,2.68,6.68.24,12.56-2.07,18.61q-5.09,13.29-9.81,26.71c-2,5.76-7.35.93-10.35,3.4-2.13-3.18.43-5.12,2-7.24,5.3-7.15,10.19-14.55,13.22-23,2.08-5.78,4.95-11.55,2.49-18.49C248,203.9,249,214.1,242.93,222c-5.17,6.66-8.29,14.91-15.05,20.43-1.39,1.14-3.15,2.88-5.24,1.3s-.25-3.17.55-4.27c5.26-7.23,10.84-14.61,10.08-24-.4-5,1.55-9.82-.07-15-1.25,7-7.29,10.22-10.74,15.33-5.92,8.74-11.9,17.45-17.7,26.27-.92,1.4-2.52,3-3.28,2-4.18-5.71-3.48-1.16-4.18,1.63-.26,1-1.72,1.9-2.81,2.57q-9.59,5.91-19.27,11.66c-1.13.68-2.89,1.22-2.15,2.7.59,1.18,2.37.82,3.57.13,5-2.92,11.15-4,15-9,1-1.23,2.2-2.15,3.85-1.08,1.91,1.25.4,2.62,0,3.89-2.37,8-10.33,7.55-16,10.44-1.68.84-3.32,1.44-2.52,3.36.67,1.61,2.77,1.12,4,.63,8.61-3.46,16.12-8.89,24-13.6,1.54-.92,3.1-2.75,4.76-1.9,2.48,1.26-.68,3.09-.18,4.74l.06-.06c-1.61.24-3.28.45-3.94,2.28-3,8.4-11.43,8.5-17.86,11.64-.93.45-2.41-2.33-3,.32-.42,1.87,1.27,2.34,2.57,3.11,2.25,1.33,4.17.38,6-.66,6.34-3.51,12.28-8.9,19-10.23,8.84-1.74,14.51-6.64,20.22-12.47,2.16-2.2,4.69-4.05,7.06-6.05-2.22,7.82-7.44,12.83-13.65,17.1-8.36,5.75-17.94,9-26.88,13.63-2.58,1.33-2.55,1.38-1.85,4.75,7.35-2,13.22-6.82,19.74-10.41,1.57-.87,3.15-1.85,4.25-.11S221,276,219.42,277c-3.49,2.09-6.94,4.24-10.34,6.48-.59.39-1.32,1.45-1.16,1.91.41,1.21,1.58.91,2.46.44,13.72-7.21,27.27-14.91,35.83-28.29,3-4.67,2-11,5.49-16.53,4.28-6.75,5.26-15.55,7.9-23.39.54-1.58.86-4.69,3.52-3.74,2.32.82,1.29,3.08.68,5.11-2.84,9.51-5.29,19.15-9.65,28.13-.67,1.38-1.41,3.14.17,3.87s1.94-1.24,2.52-2.38c6.94-13.56,12.42-27.54,12.82-43.07,0-1.63-1.56-4.58,1.46-4.86,2.72-.25,3.37,2.7,4.28,4.76,2.64,5.93,2,12.24,2.07,18.47,0,1.41.19,2.89,1.68,3.2,1.89.39,1.22-1.57,1.64-2.44,3.86-8,2.72-16.06-.28-24.06-.58-1.55-2.21-3.73,0-4.76s4.3,1.6,4.49,3c1.51,11.35,5.79,22.28.6,34.3-4.27,9.87-8.58,20.06-10.3,31.16,4.21-4,4.47-10.6,9.79-14.24-.21,10.23-7.68,16.84-10,25.63-1.24,4.59-2.06,10-7.34,13-6.4,3.55-12.51,7.64-18.55,11.78-1.36.93-4.7,1.62-3.31,4,1.21,2,3.7,2.34,6.45.67,14.19-8.59,27.53-17.85,32.71-34.82,1.76-5.74,5.7-11.7,3.17-17.49-2.94-6.75,1-11.76,2.86-16.82,4.2-11.4,6.21-22.43,1.7-34.07-.32-.82,0-1.91.07-2.88a8.77,8.77,0,0,1,1.71.15c1.13.34.84,3.61,3.08,1.62,1.78-1.58.38-2.55-.68-4-.67-.88-.16-2.8.15-4.19a2.34,2.34,0,0,1,2-.66,3.91,3.91,0,0,1,1.34,2.41c.4,6.4,1.18,13.06.51,19.18a134.2,134.2,0,0,1-6.77,30.73c-1.28,3.58-2.46,7.47-.85,12.65,2-4.91,4-8.64,5.06-12.62,1.71-6.41,2.83-13,4.14-19.5.22-1.07.78-1.41,1.7-1.2,1.52.34.14,1.24.29,1.86,1.9,8-3.39,16.23,1.09,24.9,1.71-5.34,3.28-10.32,4.9-15.29.23-.67-.71-2.16,1.05-1.88,1,.16,2,.66,1.79,1.94-1.09,6.7-.74,14.43-5.87,19.15-4,3.72-4.14,7-3.37,11.57.43-1.79,3.74-.62,3.07-3.16-1.11-4.17,1.6-4.21,4.38-4.29l-.08-.07c.44,4.15,3.85,9.58-4.42,10-.73,0-1.69,1.21-2.06,2.07-2.88,6.57-7.86,11.77-11.52,17.75-5.4,8.83-12.94,14.25-22.12,18-1.27.52-3,.71-2.44,2.33.49,1.47,2.31.69,3.54.7,9.72,0,15.45-7.25,21.79-12.79,2.94-2.56,8.31-4.77,6.71-10.75-.15-.57,1.08-1.28,2.35-1,4.1,1,5.21.32,2.86-4.05-1.48-2.75,1.6-5.67,2.55-8.53.11-.33,1.58-.61,1.64-.5,1.38,2.66,4.43,6.15,3.64,7.94-2.57,5.84-5.37,13.08-10.31,15.95-5.29,3.07-8.27,8.4-13.69,10.83a2.3,2.3,0,0,0-1.31,2.92,1.91,1.91,0,0,0,1.46.78c10.69.41,27.78-15.61,28.3-26.55.15-3.16,1.07-7,3.54-7.78,5.06-1.56,6.47-3.22,4.2-8.17-1.86-4.06,1.12-7.35,2.67-10.31,1.35-2.6,3,.54,4.2,1.86A2.57,2.57,0,0,0,335,258c1.76-4.59,5.23-8.85,2.28-14.32-6.08-11.31-9.54-23.06-4.79-35.84.53-1.44.54-3.59,2.81-3.33s1.81,2.25,2.14,3.85-1.17,5.43,1.48,4.66c5-1.44,11.77-1.74,11.6-9.91,0-2.31,1.2-4.68,2-7a2.32,2.32,0,0,1,2.75-1.64c1.72.38,1.25,1.91,1,2.84a50.91,50.91,0,0,1-2.92,8.79c-2.41,5-.3,6.57,4.47,7.34,9.88,1.6,17.95,5.71,14.67,17.78-.3,1.12-.67,2.77,1.46,3,1.66.18,2.49-.42,2.39-2.18-.19-3.62-.68-7.27-.43-10.87.48-6.74-3.55-12.56-3.55-19.15,0-1.8.27-3.49,2.48-3.56,1.9-.05,2.47,1.34,2.49,3,.11,12.31,8.76,24.58,0,36.95-2.62,3.71.05,7.93-.27,12-.45,5.79-3.87,10.32-4.7,15.75l-4.21,27.73c1.73-.09,1.92-1.27,2.25-2.64,1.57-6.46,4.21-12.82,4.69-19.35.55-7.37,5-12.77,7.2-19.23,3.87-11.43,1.87-23.29,1.85-34.94,0-6.73-.87-13.88-4.23-19.91-4.76-8.53-3.54-18-5.52-27-.3-1.37.12-2.81,1.71-3.11,1.37-.25,1.83.93,2.35,2.05a35,35,0,0,1,2.94,14.66c.14,10.65,5.93,20,8,30.32-5-16.46,1.51-33.1-1.29-49.58a39.35,39.35,0,0,1,3.68,24,44.61,44.61,0,0,0-.07,9.24c.84,15.21,4.46,30.69-3.49,45.25-.59,1.09-1.24,2.66-.9,3.68,2.58,7.76-2.44,14.11-3.51,21.15-.7,4.58-5.08,6.94-5.49,11.48-.28,3.21,1.84,6.21.07,9.61-3.13,6-5.75,12.3-8.61,18.46-.41.9-2.33,1.54-.8,2.73,1,.79,2.05-.15,3.06-.84,5.34-3.62,6.56-9.49,8.22-15,4.31-14.47,5.73-30.13,13.67-43.1,6-9.86-.16-21.21,6.16-30.4.08-.11-.47-1-.77-1-4.31-.44-3-3.76-3-6.11.1-4.33-.31-8.94.36-12.9.78-4.58-6.89-12.8,4.52-14,.06,0,.07-.31.16-.45,1.07-1.77,1.71-4.48,4.58-3.35,2.59,1,2.65,3.7,2.26,5.95-1.9,11-1,22-.95,34.67,1.57-2.35,2.71-3.3,2.86-4.38,1.17-8.46,3.18-17,2.9-25.42-.32-9.37.88-18.66.35-28-.16-2.77-.73-5.37-3.09-6.23-5.31-1.94-3.83-6.14-4-9.88-.07-1.31.52-2.46,1.77-2.57,1.64-.13,2.26,1.15,2.2,2.64-.08,2.18-.22,4.86,1.77,5.83,6.22,3,6.64,8.77,5.9,14s-.88,10,.68,15c.92,3,2.87,6.73,1.83,9-4.77,10.28-3.28,20.69-2.15,31.2.08.81.09,1.9,1.23,1.59a2.59,2.59,0,0,0,1.58-1.68c1.86-12.1,3.27-24.37,1.63-36.45-1.12-8.26-2.34-16.1.36-24.2.7-2.09.9-4.72-1.45-6.34s-2.6-4.08-2.31-6.62c.12-1-.73-2.65.91-2.89,1.33-.19,1.58,1.19,2,2.32,1.62,4,3.08,8.16,5.32,11.81,4.4,7.15,8.85,13.93,8.79,23a219.2,219.2,0,0,1-3.11,36.28c-.26,1.48-.48,3.29-2.57,2.64-1.61-.5-.8-1.88-.72-3.22.92-15.18,4-30.38.22-45.57-.64-2.58-.14-7.24-2.67-7.06-2.77.2-2.33,4.63-2.34,7.49a7.39,7.39,0,0,0,0,1.49c3.52,16.21,1.26,32.65,2.05,49,.18,3.79-4,7-1.22,11.24,2.35-1.63,2.09-3.92,2.22-6.18.08-1.39-1-3.64,1.82-3.73,3.26-.11,2,2.42,2.1,3.94.18,2.31,0,4.65,0,7-2,.29-1.76,3.71-4.51,3-.83-.2-2.63-1.67-2.51,1.05.06,1.56-.09,2.81,2.19,3,3.08.22,3.94,2.45,3.8,5.28a37.53,37.53,0,0,0,.14,6.45c.09.72,1.19,1.85,1.83,1.85,1.45,0,1-1.37.9-2.26-.62-6.15-1.28-12.31-1.92-18.46,6.12-2,5.65-7.38,6-12.11,1.12-14.68,2-29.37,3.15-46.14,4.94,7.19.84,15.26,6.33,20,2.78-5.49.87-11.55,2.29-18.37,4.13,7,5.36,14.37,3.52,19.85s-1.91,10.82-2.29,16.28c-.14,2,.46,4.23-.29,5.92-5.07,11.43-4.44,23.54-4.64,35.57,0,1.72.66,3,2.53,3,2.16-.1,1.41-2,1.37-3.08-.48-14.81,3.4-29.2,4.14-43.9.12-2.49.33-5.76,1.88-7.2s2.29,2.68,4.93,3.38c-2.7-5.19.24-10.52-2-15.11a37.56,37.56,0,0,1-4-18.5c.2-5,1.12-10.23-.8-15.23a2.19,2.19,0,0,1,1.54-2.78c.87-.34,2.06-.5,2.29,1s.86,3.16,2.27,2.46c1.61-.82,1.13-3,.34-4.4-2.32-4-1.92-7.65.4-11.54,1.61-2.7,3-2.45,4.15-.08a5.69,5.69,0,0,0,7.25,2.76c2.81-1.45,1.22-4.64.2-7.41-2.43-6.65-7.38-12.38-7.52-19.87-.19-10.14-7.54-17.91-17.51-18.53.8,3.7,2.49,6.27,7,5.73.93-.11,2.11,1.31,3,2.17.19.18-.14,1.43-.38,1.47-4.33.91-10,6.45-11.44-3.23a5.19,5.19,0,0,0-2.09-3.22c-1.43-.94-1.58-4.81-4.09-2.8-2,1.61,1.06,2.89,1.68,4.39,1.2,2.91,2,7.57-.17,8.54-4,1.75-2.1-3.73-4-5.15-1.48-1.12-.94-6.14-3.33-3.76-4.3,4.29-11.44,7.78-8.88,16.17.3,1,.73,2.81-1.34,3.14-1.64.26-2.6-.35-2.44-2.12.23-2.53-.41-4.66-3.4-3.66s-7.34,0-8.67,4.39c-.43,1.41.57,3.34-2.21,3.54-2.53.19-3.16-1.42-3.7-3.08-3.21-10-5.24-20.43-9.79-30.07-.86-1.82.33-3.66,3.07-5.05,5.93-3,11.83-3.15,18.18-2.27-7.34-4.41-15.89-4.58-23.5-7.59-4.79-1.89-9.7-1.42-13.06,1.47-3,2.61.72,7,.61,10.62,0,1.41,2.49,2.64.52,4.27a2.8,2.8,0,0,1-2.27.48c-2.29-.84-1.77-3-1.67-4.68.28-4.78-.67-9.62-5.55-10.86a68.08,68.08,0,0,0-26.72-.88c-5.05.76-4.72,7.11-7.94,9.9s-7,4.59-6.25,9.89c.16,1.1-2.84,1.21-3.18.16-1.5-4.58-3-.92-4.89-.5-5.54,1.22-10.47,13.23-17,1.32-.06-.1-.32-.07-.47-.14-4.81-2.14-6.54-6.58-7.9-11.08-1.78-5.9-6.54-8.37-12.07-5.83-4.73,2.16-9.39,4.48-14.16,6.54-21.87,9.46-44.89,16.36-65.44,28.72-15.9,9.56-33.25,17.56-42.88,34.89-2.88,2.2-3.74,5.64-5.15,8.69a2.51,2.51,0,0,0,1.53,3.65c1.86.38,1.07-1.53,1.38-2.46C159.81,163.76,160.82,160.71,161.85,157.66ZM470,116.53c3.15,22.38,12.1,41.27,19.49,60.66-3.09-14.47-5.06-29.28-13.11-42.2-.77-1.23-2.1-3,.32-4.1,1.7-.74,3,.12,3.37,1.84,1.94,8.6,8.19,15.41,9.46,24.43,1.68,11.88,7.61,23,6.63,35.41-.26,3.29,1,8.34-3.51,8.29-3,0-.77-5-1.44-7.63-1-4,1.78-8.28-.75-14.34-.14,5.4-1.85,7.89-4.28,10-1.91,1.69-2.35,2.63-.21,5.38a21.37,21.37,0,0,1,4.77,15.11c-.48,5.77-3.57,11.68.6,17.7a95.12,95.12,0,0,1,6.74-25.36c.47-1.12-.35-3.45,1-3.51,6.35-.25,4.65-5.62,5.88-9,.59-1.57.7-4.27-.24-5.23-1.66-1.71-2.42,2.17-4.55,1.63.4-5.9,2.82-11.68,1.11-17.79-.68-2.41-3-5.84,2.25-6.73.88-.15,1.09-2.33-.58-2.48-5.11-.46-4.66-4.15-4.84-7.62-.17-3.23-2.66-8.16-3.63-7.94-6.82,1.57-5.51-4.61-7.51-7.24C482,129.41,477.79,122.38,470,116.53ZM337.58,231.14c.7-.94,1-1.3,1.24-1.67,2.08-3.18,1.11-10,5.59-9.18,2.59.49-.28,7.13-.7,11-.55,5.11,3.79,8.65,7.26,11.5,2.64,2.17,5.54-1.21,7.4-3.21a56,56,0,0,1,4.85-4.65c3.92-3.34,4.8-13.42,1.23-14.4a123.45,123.45,0,0,0-19-4C339.16,215.83,337,220,337.58,231.14Zm32,7c-6.51,1.68-8.4,5.47-8.26,10.84.14,5.64.23,11.29-.05,16.92-.17,3.2-2.74,7.84-1.43,9.26,4.58,5,1.11,8.8-.82,12.51-4.62,8.9-7.69,18.75-16.56,25.84,3,.56,4.85,1.17,6.09-.18a120.45,120.45,0,0,0,14.86-20.87c3.33-5.74,4.78-15.3,4.26-23.7-.22-3.59-3.76-5.61-3-9C366.07,252.77,367.8,245.81,369.56,238.18Zm90.65-59.77c0,15.92,4.92,17.51,16,12,5.84-2.91,8.83-8.33,6-11.37a12.43,12.43,0,0,1-3.11-5.95c-.81-3.48-3.55-5.61-7-4.34s-2.13,3.78-.35,6c.65.79.73,2.37-.37,2.47-5.32.49-3,3.48-1.93,5.8.73,1.54.65,2.54-.81,3.22a2.19,2.19,0,0,1-3.2-1.37,27.58,27.58,0,0,1-1.22-5.17c-.49-3.44,0-7.15-2.75-10C458.74,172.43,461,175.84,460.21,178.41Zm-51-63.25c7.7,1.45,13-1.85,18-7.17a7,7,0,0,0,1.83-7,6.51,6.51,0,0,0-5.39-5.17c-6.24-.61-12.52-.73-18.78-1-3.29-.16-4,1.65-3.4,4.46,1.81,8.49,5.35,9.76,15.43,5.62,1.91-.79,4.45-2.4,5.71.16,1.11,2.28-.89,4.41-2.93,5.48C416.33,112.23,412.75,113.61,409.25,115.16ZM403,234.52c-.47,7.49-6,14.09-3.82,22.06.21.79-1,1.21-1.19,1.55-1.71,3.15-5.72,7.1-4,9.64,3.63,5.37,1.13,7.82-2.49,10.81-.72.59-3.07.8-1.78,2.15,1.75,1.83,4.24,3,6.49,4.29.12.07,1-1,1.41-1.59,4-5.45,3.78-12.41,6.66-18.27C409.31,254.89,404.57,244.78,403,234.52Zm67.75,55.37c4.73-2.38,6.95-6.71,8.37-11.52.3-1,.77-2.86-1.26-3.17-6.62-1-11.86-6.82-19.39-5.15-2.4.53-4.63,1.26-5.89,2.88-1.41,1.81.53,3.46,1.76,5.07a20.22,20.22,0,0,1,3.43,6.44c1,3.51,2.39,3.43,4.58,1.14s5.28-4.31,8.22-3C474.5,284.36,469.07,286.93,470.75,289.89ZM260.14,265.35c-5.14-2-4.59-5.94-6.26-6.79-2.72-1.39-4.52,1.73-5.88,3.88-2.45,3.86-5.08,7.31-9.43,9.38-8.48,4-11.85,15.17-22.56,16.33-2.21.24-1.46,2.4-1.25,3.66.45,2.67,2,.45,2.93.37,8.59-.69,13.34-7.58,19.59-12.1,3.84-2.79,7.11-9.9,11.1-8.17C257.71,275.94,253.75,265.94,260.14,265.35ZM310.3,98.41c7.49-1.72,12.55-4.82,17.77-7.55,2.82-1.47,5.24-3.42,4.22-6.88s-4.33-3.63-7.47-4.4c-5.68-1.38-9.5,3.79-14.94,3.38-2.65-.19-6.48.34-6.43,4.86.07,5.26,4.06,2.17,6.22,2.85,1.88.59,4.61-1,5.56,1.88C316.28,95.65,312.58,95.12,310.3,98.41Zm7.77,210.89.82.53c2.05-1.6,4.38-2.95,6.08-4.86s2.78-4.85,4.6-6.88c2.56-2.87,3.53-7.12,7.32-8.82,2.74-1.24,10-13.61,8.21-15.13-5.71-4.77-.31-8.91.15-13.21.24-2.16,2.15-4.31.38-6.38-.43-.5-2.42.22-3.65.54a3.93,3.93,0,0,0-2.42,6c3.25,5,.22,9-1.31,13.09-3.33,8.87-6.63,17.74-13.78,24.66C321.63,301.59,320.16,305.77,318.07,309.3ZM513,218.79c7.6-10.33,1.33-18.48.71-27-.7-9.59-2.16-18.1-8.26-26.47a16.26,16.26,0,0,0-.29,2.56c.82,9.66,5,19.08,2.1,29-.35,1.2.74,2.12,2,2.43,5.23,1.27,4.71,5.19,4.33,9.13C513.28,211.35,513.21,214.22,513,218.79ZM476.33,224c-.6-8.2.71-14.41-.95-20.62-.31-1.18-1-3.13,1.15-3.75s3,1.17,3.48,2.65c2.11,5.95.89,12.14,1,18.22.07,3,.89,5,4.25,6.59-1.49-9.63,4.88-19.45-2.9-28.1-1.33-1.47-.5-5.71-3.88-4.27-3,1.26-7.19,2.66-6.28,7.49.67,3.57.31,7.06.06,10.62C472.06,216.14,472.81,219.46,476.33,224ZM272.56,299.24a15.48,15.48,0,0,0,2.18-.87c9.23-5.54,15.23-14.46,22.68-21.85,1.95-1.93,3.16-5.81,1.81-8.19-1.73-3-1.62-5.85-1.07-9.14-7.5,3.27-8,9.68-8.71,16-.33,3.17.36,7.58-2.9,8.69C278.91,286.47,276.87,293.88,272.56,299.24Zm153.07-48.46c-3.34,8.31-2.25,17.37-4.28,25.93-.63,2.69-1.3,6.18,3.13,7.44,1.35.39,1.21,2.8-.11,3.24-3.47,1.17-3.25,4.32-3.88,6.78-.36,1.43-2.82,3.94-.3,4.52,1.79.41,5.93.05,5.87-3.5-.11-5.61,1.36-10.95,2.27-16-1.68-1.12-2.76,2.57-3.78.1-.55-1.36-1.58-4,1.16-5a3.61,3.61,0,0,0,2.47-3.78C428.1,263.83,429.41,257,425.63,250.78ZM355.46,274a2.55,2.55,0,0,0-2.56-2.73c-2.79-.32-2.9,1.9-3.57,3.74-1.61,4.4-.46,9.28-1.93,13.48-1.81,5.18-5.1,9.84-7.51,14.84-.49,1-2.68,2.48-.53,3.61,1.32.7,3.56.91,4.49-.89C348.86,296.23,354.25,286.56,355.46,274ZM411,283.45c.87,1.88-1,4.51,2.15,4.64,2.78.12,3-2.13,3.11-4.08a108.75,108.75,0,0,1,1.28-12.67c1.53-9.36,1.93-18.92,2.66-28.41a3.09,3.09,0,0,0-1.47-2.28c-1-.6-1.19.44-1.44,1.26C413.18,255.61,415.51,270.23,411,283.45ZM272.19,209.77c1,15.93-9,29.35-8.81,45C269.34,240.48,278.87,227,272.19,209.77Zm37,101.2a4.11,4.11,0,0,0,1.94-1.14c9.43-12.83,19.47-25.28,25.59-40.22.6-1.47,1.37-3.42.09-4-1.83-.82-1.95,1.29-2.54,2.67-1.16,2.68-2.91,5.1-4.2,7.73-6,12.22-12.49,24-24.2,31.91-.72.49-1.62.8-1.17,1.74C305.38,311,306.7,311.33,309.21,311Zm159.71-86.55a13.77,13.77,0,0,0-1.65,3.24c-1.46,6.78-2.42,13.63-4.72,20.26-1.52,4.38-1.69,9.24-2.28,13.91-.18,1.47-.66,3.55,2.15,3.38,2.46-.15,1.63-2,1.75-3.32.41-4.22-1.55-9.08.87-12.58C470.38,241.61,469.08,233.05,468.92,224.42Zm-62.56,58.17c-.36-1.15.61-2.74-.91-3.11-1.35-.32-1.91.92-2.16,2.15-1.78,8.45-6.57,15.44-11,22.63-.87,1.41-2.08,3.07-.94,4.6.25.34,3-.7,4.21-1.63C403.71,301,403.71,291.15,406.36,282.59Zm74-16.07c7.5-11.81,4.53-24.75,4.46-37.8C475.91,240.75,484.47,254.39,480.33,266.52Zm-4.62-32.93c-3.28,9.67-5.9,19.42-6.56,29.62-.11,1.78,1.12,2.68,2.21,3.65a9.84,9.84,0,0,0,2,1.14c.24-.87.89-1.86.66-2.58-2-6.31-.13-12.12,1.47-18.22C476.64,243,477.57,238.22,475.71,233.59Zm-38.5,18.49h0c0,3.3-.12,6.61.05,9.9.08,1.58,1.38,2.55,2.84,3,.22.07,1.12-.87,1.05-1.19-1.62-7.15,2.38-14,1.1-21.15-.28-1.54-.53-2.39-2.29-2.38s-2.87.27-2.81,2.38C437.28,245.8,437.21,248.94,437.21,252.08ZM442.84,236c5.51-10.61,4.72-21.92,3.51-33.63C441.63,213.45,443.83,224.92,442.84,236Zm11.38,55.84c-1.3-7.5-3.46-14.45-11-18.28-1.27-.65-2.5-2.39-3.69-.69-1,1.46-.06,2.7,1.55,3.88,5.27,3.87,10.88,7.68,9.23,15.77-.26,1.25.46,3.4,2.05,3.28C454.53,295.67,454.19,293.5,454.22,291.87Zm-86.5,8c-.35-1.32-.29-2.87-1-3.33-1.24-.85-1.89.79-2.72,1.47-4.27,3.49-4.66,9.19-7.54,13.49a1.74,1.74,0,0,0,2.7,2.12A27,27,0,0,0,367.72,299.89Zm89.45-75.24c-3.5,11.91-.89,24-1.89,36C454.66,248.59,463.26,237.09,457.17,224.65ZM498.66,242c1.36-3-.34-5.47-.5-8a27.91,27.91,0,0,1,2.69-14.24c.72-1.5,1.08-3.81-.41-5-1-.81-2,.68-2.36,1.81C495.39,225,493.62,233.43,498.66,242ZM464.88,227.7c2.13-8.85,1.61-16.46,4.2-23.5.31-.85-1.28-3.42-1.83-3.37-1.53.13-1.95,1.92-2,3.33-.26,4.39.46,9.07-.82,13.12C463.39,220.45,462.78,223,464.88,227.7Zm-70.68,65c-4.27,1.13-3.55,8.42-8.64,4a6.39,6.39,0,0,0-1.75,1.56c-.55.74-.5,1.37.6,1.83,4.53,1.86.76,3.34-.39,4.65s-3,2.47-4.37,3.83c-.32.31-.06,1.21-.06,1.84a5.11,5.11,0,0,0,1.6-.31C387.75,306.45,390.23,299.9,394.2,292.74ZM243.71,199.2c-2.93,6.46-5,11.72-5.08,17.58,0,.86-.44,2.28,1,2.29.65,0,1.67-1.06,1.9-1.82C243.09,211.89,245.91,206.7,243.71,199.2Zm93.15,96.42c-2.76,5.49-6.86,9.64-11.13,13.63a3.52,3.52,0,0,0-1,4,2.79,2.79,0,0,0,1.95-.23C331.8,308.23,337.08,303.5,336.86,295.62Zm76.63-1.09c-.23-1-.44-1.93-.64-2.83-1.11.62-2.79,1-3.24,1.91a102.24,102.24,0,0,0-4.25,10.86c-.23.68.5,1.69.79,2.54.87-.31,2.27-.39,2.54-1C410.44,302.25,411.93,298.35,413.49,294.53ZM400.6,191.94q-.57,12.59-1.15,25.16C403.27,208.89,403.39,200.53,400.6,191.94ZM507.23,212c-3.41,4.19-1.81,8.6-2.08,12.67-.08,1.2-1,3.42,1.35,3.52,2.05.09,2.5-2,2.57-3.52C509.28,220.6,509.73,216.44,507.23,212Zm-98.9,32.94c3.85-6.66,6-13.68,4.14-21.53Zm25.82,42.54c-.65-.63,1.18-3.08-1.26-3-1.72.08-1.58,2.13-1.71,3.65-.33,3.57-.7,7.16-1.34,10.69-.24,1.28-1.28,2.56.59,3.14s2.35-1.41,2.5-2.36C433.53,295.75,433.75,291.81,434.15,287.47Zm90.32-94.18c-.37,5.92-.91,10.39.31,14.84,0,0,2.33-.16,2.51-.64C529,202.88,527.61,198.66,524.47,193.29ZM387.67,295.6c1.19-4.48,4-5.79,7.49-6.2-.08-.62,0-1.61-.28-1.8-2.68-1.55-5.22-.62-7.74.63-2.14,1-2.18,2.74-1.5,4.59A15.61,15.61,0,0,0,387.67,295.6ZM238,287.09c-3.74,2-7.45,4.08-11.26,6a1.6,1.6,0,0,0-.9,2.35,2.21,2.21,0,0,0,2.09.65C231.86,293.87,235.75,291.58,238,287.09Zm117.79-36.48c-1.33,5.35-7.2,5-6.13,9.71.51,2.21,3.07-1.27,4.59.26C356.12,258.3,356.72,255.75,355.79,250.61Zm53.53-21c-3.33-.33-5.32-5.37-7.69-3.41-2.05,1.69,3.74,3.55.77,7.83ZM481,163.3c-4.59-2.4-7.76-4.58-7.42-9.12C473.74,158.36,471.38,164.27,481,163.3Zm-13.06.17c.11-3.56,1.36-6.1-1.38-7.75a2.4,2.4,0,0,0-1.76.19C464.45,158.48,465.49,160.56,467.9,163.47Zm-60,105.38c-2.29,1.8-3,3.49-2.43,5.52.12.39,1.74.86,2,.62C409,273.35,408.19,271.39,407.91,268.85Zm-283.5-70.37c-1.14-2.25-2.21-3.69-4.39-4.3C119.9,196.93,121.29,198,124.41,198.48ZM337.18,313.74c-1.59-1.8-3.16-2.22-5.41,0ZM117.47,190.82c-.17.21-.46.42-.48.64s.23.47.36.71c.21-.21.58-.4.61-.63S117.66,191.06,117.47,190.82Z"/><path class="cls-1" d="M271.82,41.59c-4.79,2.47-4.75,8.3-8,11.71-1.82,1.91-5-.33-6.64-2.47-1.76-2.38.25-3.44,2.17-4.3,3.34-1.48,4.19-5.73,7.9-6.93C269.26,38.94,270.88,38.17,271.82,41.59Z"/><path class="cls-1" d="M123.69,62.06c.12,1.74-.1,3.26-2,3.58s-2.69-.68-3-2.48c-.16-1.14.8-2.8-1.18-3.26s-1.93,1.46-2.65,2.35c-1.34,1.64-2.46,3.54-4.91,3.35-.44,0-1-1.07-1.17-1.72-.63-2.78,1.26-4.48,3.23-5.53,2.16-1.16,4.58-3.84,7.06-1.87C120.93,57.9,124.25,58.72,123.69,62.06Z"/><path class="cls-1" d="M338.43,54.74c-1,1.4,1.87,5.48-2.28,4.78-3.78-.64-4.61-5.36-6.21-8.23-1.38-2.44,2.49-2.4,4.5-2.42C338.44,48.82,338.44,48.87,338.43,54.74Z"/><path class="cls-1" d="M351.06,44c2,.7,5.29,1.39,4.95,4-.31,2.32-1,6-5.19,5.89s-3.19-3.24-3.34-5.67S347.56,43.77,351.06,44Z"/><path class="cls-1" d="M306,46.82c-4.18.38-6.76-.76-6.5-5.28A3.75,3.75,0,0,1,302,38.18c1.58-.6,2,1,2.62,2.16a5.25,5.25,0,0,0,2.07,2.4c1.36.65,4.07-.83,3.7,2.34C310,48.42,307.25,46.14,306,46.82Z"/><path class="cls-1" d="M22,95c-.14,2.52-1,4.29-2.64,3.58-3.9-1.69-7.53-4.07-9.17-8.29C9.66,89,11.22,88.38,12,88.88,15.42,91,20.23,91.22,22,95Z"/><path class="cls-1" d="M311.58,53.85c2.1,3.06,7.22-1.72,8.77,3.17.51,1.63-1.57,3.48-2.54,2.57-3.12-2.93-8.32,3.63-10.08-2.35C307.21,55.5,309.22,54.16,311.58,53.85Z"/><path class="cls-1" d="M547.88,80.8c-2.19.21-4-.52-3.82-3.74.17-2.72,1.55-4.43,4.28-4.19,3.14.28,4.38,3,4.49,5.53C553,81.25,550.29,80.69,547.88,80.8Z"/><path class="cls-1" d="M515,47.32c-.79,1.16,1.68,4.49-1.75,4.16-2.06-.19-3.92-2.45-5.88-3.78,1.94-1.94,1.93-6.17,4.7-6.37C515,41.12,515.24,44.42,515,47.32Z"/><path class="cls-1" d="M505,36.16c0,1.54-.89,3-2.25,2.58-3.43-1.17-4.7-4.59-6.33-7.44-.62-1.08.69-2.49,1.84-2.13A9.59,9.59,0,0,1,505,36.16Z"/><path class="cls-1" d="M189.66,111.31c-.41,1.87.94,5.25-2.13,5-2.46-.23-2.9-3.49-2.85-6,0-1.93-.37-4.52,2.5-4.35C190.75,106.11,189.24,109.28,189.66,111.31Z"/><path class="cls-1" d="M40,112.66c-2.47-1.24-5.39-2.25-5.91-5.63-.18-1.18,1.58-2.7,1.93-2.11,1.65,2.71,7,.11,6.87,4.92C42.87,111.6,42,112.55,40,112.66Z"/><path class="cls-1" d="M353.4,62.59c-.34,1.22.41,3.55-1.51,2.93-2.32-.75-5.59-1.48-6-4.34-.27-1.88,2-3.15,4.09-3.23C353.36,57.84,353,60.55,353.4,62.59Z"/><path class="cls-1" d="M348.45,19c2,1.73,7.59-.24,7.38,2.38-.27,3.48-5.53.71-8.32,2.37-1.25.74-3-.34-3-2.24C344.51,19.32,346.12,18.89,348.45,19Z"/><path class="cls-1" d="M258.72,22c2.38,0,4.46.83,3.58,2.63-1,2,.45,6-2.78,5.8-1.42-.09-3.13-3.82-3.71-6.14C255.3,22.25,257.5,21.9,258.72,22Z"/><path class="cls-1" d="M510.05,115.39c2.3,2,5.7,2,6.06,5.49.18,1.68-.23,3.18-2.33,2.65a7.36,7.36,0,0,1-5.52-5.53C508.1,117.36,509.35,116.36,510.05,115.39Z"/><path class="cls-1" d="M529.93,53.86c-2-.48-5.49,1-5.41-2,.08-3.24,3.64-1.91,5.69-1.88,1.62,0,4.68-1.52,4.64,1.78C534.81,55.51,531.46,52.94,529.93,53.86Z"/><path class="cls-1" d="M7.37,31.15c2.49,2.28,7,2,7.48,6.31.24,2-1.9,1.57-3,1.35C8,38,6,35.77,7.37,31.15Z"/><path class="cls-1" d="M388.35,40.53c-1.05,1.41-1.2,3.88-3.69,4.3-1.94.33-3.31-.6-3.22-2.71s.35-4,3.08-4.13C386.25,37.92,387.88,38,388.35,40.53Z"/><path class="cls-1" d="M368.51,70.71c-1.6-.8-3.28-1.71-2.95-3.58a4.94,4.94,0,0,1,4.28-4.2c1.8-.22,2.57,1.22,2.5,2.95C372.24,68.41,370.16,69.35,368.51,70.71Z"/><path class="cls-1" d="M520.81,22.88c1.65,2,3.7,3.92,5.08,6.27.84,1.43-.83,2-2,1.71-2.63-.55-5.14-1.49-5.69-4.59C517.88,24.63,518.58,23.37,520.81,22.88Z"/><path class="cls-1" d="M552.15,53.71a5.31,5.31,0,0,1-3.93-4.28c-.34-1.79,1.16-2.61,2.89-2.5A3.77,3.77,0,0,1,555,50.67C555.08,52.1,555.32,53.86,552.15,53.71Z"/><path class="cls-1" d="M549.09,148.73a5.63,5.63,0,0,1,3.87,4.7c.19,1.44-.55,2.17-2,2a4.92,4.92,0,0,1-4.86-4.52C545.85,149.41,546.35,148.33,549.09,148.73Z"/><path class="cls-1" d="M339.94,62c2.34-.26,3.44.1,3.45,2.25,0,2.56-1.07,3.63-3.6,3.53-1.89-.06-3.3-.52-3.34-2.73C336.39,62.14,338.74,62.37,339.94,62Z"/><path class="cls-1" d="M401.21,71.9C400,74.28,397,74.24,395,75.59c-1,.65-2.59.29-2.64-1.7-.1-3.72,3.22-3.07,5.18-3.93C398.84,69.39,400.45,69.84,401.21,71.9Z"/><path class="cls-1" d="M209.84,102.56c-1.47.14-2.31-1.09-2-1.2,3.47-1.24,4.66-5.18,7.86-6.53,1.36-.58,2,.7,1.86,2.08C217,102,211.41,99.73,209.84,102.56Z"/><path class="cls-1" d="M483.71,63.74a4.75,4.75,0,0,1-4.42-4.42c-.21-1.5.14-2.73,2-2.45A5.57,5.57,0,0,1,486,61.23C486.45,62.76,485.16,63.53,483.71,63.74Z"/><path class="cls-1" d="M488,36.7c.39,2.93-.82,3.12-2.32,3.13-2.55,0-4-1.17-4.37-3.71-.25-1.89.94-2.13,2.45-2.15C486.33,33.94,487.65,35.29,488,36.7Z"/><path class="cls-1" d="M71.18,165.55c2.53,0,4.32,1,4.38,3.18a2.72,2.72,0,0,1-3.17,2.79c-2.42-.14-3.58-1-3.55-3.5C68.86,166.1,69.58,165.32,71.18,165.55Z"/><path class="cls-1" d="M333.89,27.94c1.59.27,2.71,1,2.43,2.63-.41,2.24-1.83,4.08-4.17,4a2.73,2.73,0,0,1-2.42-3.19C330.24,29.32,331.91,28.3,333.89,27.94Z"/><path class="cls-1" d="M203.54,96.38c-.63,1.93-1.33,4.37-4.08,5.16-1.27.36-1.82-.59-1.7-1.75.27-2.6,1.31-4.87,3.84-5.86C203.06,93.37,203.65,94.5,203.54,96.38Z"/><path class="cls-1" d="M443.19,69.46c0,2.33-1,3.35-3.05,3.32-2.3,0-2.64-2-2.69-3.38s.34-3.61,2.54-3.4A3.52,3.52,0,0,1,443.19,69.46Z"/><path class="cls-1" d="M99.71,46.91c.58,2.29-.94,3.52-2.74,3.6a3,3,0,0,1-3-3.22c.12-2,1.52-3.13,3.57-3.3C99.81,43.8,99.82,45.32,99.71,46.91Z"/><path class="cls-1" d="M297.48,52.85c1.65,0,3.81-.15,3.68,2-.11,1.86-1.85,2.9-4,2.9-1.78,0-3.51-.19-3.56-2.38C293.59,52.85,295.58,52.79,297.48,52.85Z"/><path class="cls-1" d="M58.9,120.08c0,2-.53,3.69-2.35,3.25-1.54-.38-3.6-1-3.64-3.37,0-1.66.45-3.12,2.25-3.18C57.48,116.71,58.52,118.36,58.9,120.08Z"/><path class="cls-1" d="M454.13,59.86c2.76.14,3.14,1.77,3,3.76-.09,1.51-.37,3.47-2.24,2.88a4.75,4.75,0,0,1-3.52-4.26C451.36,60.38,452.8,59.88,454.13,59.86Z"/><path class="cls-1" d="M36.53,24.05c2.8-.45,3.69,1.78,4.15,3.73.36,1.51-1.27,1.94-2.68,2.07-2.72.25-3.2-2-3.81-3.69S34.91,23.93,36.53,24.05Z"/><path class="cls-1" d="M311.41,35.06c-1.12.2-1.61-1.82-1.6-2.88,0-1.9,1.5-3.12,3.57-3.23,1.71-.09,3.08.66,3,2.42C316.23,33.57,314.68,34.72,311.41,35.06Z"/><path class="cls-1" d="M441.29,46.93c1.62.94,3.5,2.07,3.77,4.36.17,1.36-.65,2.63-2.39,2.19a5.31,5.31,0,0,1-4.15-4.77C438.4,47.57,439.66,46.85,441.29,46.93Z"/><path class="cls-1" d="M199.56,25.07c0,1.58,0,3.2-2,2.62a5.49,5.49,0,0,1-3.66-4.78c-.2-1.46,1.29-2.25,2.77-1.85C198.77,21.62,200.19,22.81,199.56,25.07Z"/><path class="cls-1" d="M478.17,85.51c-.4,1,.95,3.28-1.55,3.08-2.15-.17-3.3-1.78-3.38-4-.07-1.71.36-2.66,2.39-2.74C478.54,81.7,478.15,83.6,478.17,85.51Z"/><path class="cls-1" d="M325.3,46.8c-2.05.17-3.73-.33-3.54-1.74A5,5,0,0,1,326,40.94c1.52-.29,2.59.19,2.41,2.06A4,4,0,0,1,325.3,46.8Z"/><path class="cls-1" d="M465.18,88.59c-.08,2.91-.76,4.44-2.87,4-1.45-.3-3.19-.88-3-3.09.16-2.44,1.7-2.74,3.71-2.77C465.22,86.69,465.2,88.08,465.18,88.59Z"/><path class="cls-1" d="M559,40.46c-.42,1.14.86,3.37-1.64,3.2a3.51,3.51,0,0,1-3.29-3.61c-.12-2,.8-3.07,2.85-3.12C559.73,36.86,558.73,39,559,40.46Z"/><path class="cls-1" d="M326.4,20.9c-.2,1.86.83,4-1.11,5.46a3.15,3.15,0,0,1-3.68.08,2.2,2.2,0,0,1-.93-3c1.21-2.41,3.36-2.84,5.8-2.49Z"/><path class="cls-1" d="M90.17,186.54c1.61,1.84,4.8,2.13,5.49,5.07.29,1.25-.59,1.81-1.76,1.72a5.34,5.34,0,0,1-5-4.54C88.71,188,88.47,186.71,90.17,186.54Z"/><path class="cls-1" d="M244.58,33.59a3.94,3.94,0,0,1-3.22,3.2c-1.8.24-2.7-.95-2.75-2.73-.05-2,.86-3.12,2.94-3.14A2.64,2.64,0,0,1,244.58,33.59Z"/><path class="cls-1" d="M78.77,56.87c-.79,1.19-.92,2.86-2.91,2.85s-3-.95-3-3c0-1.62.09-3,2.31-2.79C77.05,54.11,78,55.33,78.77,56.87Z"/><path class="cls-1" d="M202.09,74.78c2.08.31,3.59,2,4.41,4.17.6,1.56-.73,1.94-2,1.79-2.57-.3-4-2-4.68-4.31C199.44,75.15,200.53,74.83,202.09,74.78Z"/><path class="cls-1" d="M283.41,47.1c-.1,1.76-1,2.9-2.81,2.54a3.31,3.31,0,0,1-2.92-3.42,2.08,2.08,0,0,1,2.65-2.15C281.82,44.42,283.67,44.79,283.41,47.1Z"/><path class="cls-1" d="M395.32,61.8c-2.78-.11-4.05-.88-3.81-2.73A3.37,3.37,0,0,1,394.83,56a2.08,2.08,0,0,1,2.34,2.52C396.92,60,396.51,61.79,395.32,61.8Z"/><path class="cls-1" d="M216.4,38.49c.07,1.6-.93,2.23-2.38,2.35-1.9.16-3.21-.52-3.36-2.62-.12-1.64.39-3,2.2-3.23C215.36,34.67,215.38,37.07,216.4,38.49Z"/><path class="cls-1" d="M345.88,32.92c1.48-.1,2.6.09,2.52,2-.1,2.53-1.7,2.8-3.7,2.89-1.75.07-2.43-.61-2.26-2.3C342.65,33.43,344,32.83,345.88,32.92Z"/><path class="cls-1" d="M500.05,50.92c1.49.66,3,1.61,2.9,3.72a2.1,2.1,0,0,1-2.67,2.1c-2.11-.43-2.61-2.38-2.85-4C497.26,51.62,498.46,50.81,500.05,50.92Z"/><path class="cls-1" d="M384.4,60.8c-1.42.16-2-.43-2.08-1.9-.18-2.71,2.05-3.14,3.68-3.79A1.6,1.6,0,0,1,388,57C387.47,58.71,387.08,61,384.4,60.8Z"/><path class="cls-1" d="M355.66,32.92c-2.54-.16-3.34-1.36-3.24-3.31.08-1.52.85-2.58,2.39-2.59,2.28,0,2.48,1.66,2.52,3.43C357.36,32,357.11,33.12,355.66,32.92Z"/><path class="cls-1" d="M321.56,36.8c-2,.17-2.16-1-2-2.2A3.79,3.79,0,0,1,323.37,31c1-.08,2.16,0,1.94,1.45C325,34.71,323.15,35.84,321.56,36.8Z"/><path class="cls-1" d="M248.58,44.79c.06,1.74-.67,3-2.49,3s-2.46-1.29-2.43-3c0-1.52.68-2.59,2.25-2.68C247.73,42,248.57,43,248.58,44.79Z"/><path class="cls-1" d="M229.45,53.79c-2-.15-2.52-1.92-2.78-3.7-.12-.84-.25-2.37,1.28-1.93,1.87.54,4,1.43,4.44,3.49C232.74,53.19,231.18,53.72,229.45,53.79Z"/><path class="cls-1" d="M414.94,35.7c-1.46,1.28-2.4,2.75-3.55,2.93a2.71,2.71,0,0,1-3.1-2.28A2.63,2.63,0,0,1,411,33.19C412.14,33.14,413.3,34.58,414.94,35.7Z"/><path class="cls-1" d="M275.38,60.74a2.54,2.54,0,0,1-2.86,2.08c-1.74,0-2.88-.75-2.85-2.52s1.3-2.37,3-2.39C274.66,57.89,274.63,59.65,275.38,60.74Z"/><path class="cls-1" d="M94.08,32.9c-1.35.08-2.18-.32-2.17-1.88,0-2,.91-3,2.94-3,1.44,0,2.93.51,2.67,2A3.53,3.53,0,0,1,94.08,32.9Z"/><path class="cls-1" d="M397.34,46.84c-1.73.1-3.13.16-3-2.14a2.55,2.55,0,0,1,2.94-2.47,3.08,3.08,0,0,1,3,3.27C400.14,47.69,398.23,46.5,397.34,46.84Z"/><path class="cls-1" d="M54.37,38.9c1.56-.08,3.27.12,3.23,2a3.12,3.12,0,0,1-2.94,2.82c-1.83.2-2.57-.94-2.7-2.68S52.81,38.77,54.37,38.9Z"/><path class="cls-1" d="M408.09,58.68c-1.33-1-2.91-1.76-2.65-3.75a2.14,2.14,0,0,1,2.36-2c1.81.11,2.5,1.28,2.48,3A2.46,2.46,0,0,1,408.09,58.68Z"/><path class="cls-1" d="M501.06,76.73c.19,2-1.13,2-2.52,2.06-2,.15-2.46-.87-2.42-2.65s.63-2.41,2.32-2.26A2.54,2.54,0,0,1,501.06,76.73Z"/><path class="cls-1" d="M389.39,73.22c.31,1.43-1.48,2-2.92,2.37-1.22.29-2.12-.87-2.05-2.13A3.5,3.5,0,0,1,387.78,70C389.58,69.8,389.1,71.39,389.39,73.22Z"/><path class="cls-1" d="M304.64,34.09c-.9.81-1.83,2.29-3,2.55-1.53.33-2.06-1.23-2.06-2.68,0-1.68.57-3,2.49-3C303.64,31,304.28,32.12,304.64,34.09Z"/><path class="cls-1" d="M257.47,35.82c.1,1.51-.69,2-2.1,2-2.08-.08-2.84-1.21-2.81-3.19,0-1.72,1.13-1.75,2.34-1.7C256.75,33,257.46,34.11,257.47,35.82Z"/><path class="cls-1" d="M528.7,45.82c-1.37-.21-2.71-.76-2.4-2A3.43,3.43,0,0,1,529.82,41,2.14,2.14,0,0,1,532,43.17C532,45.49,529.88,45.12,528.7,45.82Z"/><path class="cls-1" d="M466.2,43.06c.13,1.32-.6,1.85-2,1.82a2.57,2.57,0,0,1-2.88-2.64c-.13-1.7.65-2.42,2.32-2.26S466.25,41.09,466.2,43.06Z"/><path class="cls-1" d="M90.15,21.91c-1-.44-3.25.75-2.91-1.27.38-2.28,2.84-1.72,4.57-1.65,1,0,2.88-.65,2.73,1C94.29,22.49,91.9,21.74,90.15,21.91Z"/><path class="cls-1" d="M490.08,22c1.71-.05,2.93.59,3,2.47A2.13,2.13,0,0,1,491,26.82c-1.8.15-2.72-.84-2.81-2.64C488.11,22.84,488.46,21.89,490.08,22Z"/><path class="cls-1" d="M146.66,85.41c-.11,1.59-1.15,2.11-2.59,2.24-1.7.15-2.31-.69-2.28-2.29,0-1.34-.06-2.51,1.9-2.63S145.79,84.36,146.66,85.41Z"/><path class="cls-1" d="M306.46,64.79c.15,1.53-.59,2.07-2,2-1.79,0-2.85-.85-2.78-2.68a2.12,2.12,0,0,1,2.23-2.19C305.73,61.9,306.47,63.05,306.46,64.79Z"/><path class="cls-1" d="M512.67,63.89a2.5,2.5,0,0,1,2.39,2.63c.13,1.71-.6,2.42-2.3,2.28a2.44,2.44,0,0,1-2.57-2.44C510.12,64.76,511.17,64.05,512.67,63.89Z"/><path class="cls-1" d="M340.69,43.8c-1.6.06-3.06-.39-3-1.94.09-1.22.4-2.93,2.46-3,1.73-.06,2.36.66,2.23,2.31C342.32,42.47,342.63,44,340.69,43.8Z"/><path class="cls-1" d="M186.63,48.59a2.38,2.38,0,0,1-2.73,2.16A2.21,2.21,0,0,1,181.84,48a2.13,2.13,0,0,1,2.4-2A2.31,2.31,0,0,1,186.63,48.59Z"/><path class="cls-1" d="M321.4,64c1.54-.13,1.91.63,1.93,1.76,0,2-.84,3.07-2.9,3-1,0-2.08,0-1.91-1.5C318.72,65.43,320.07,64.59,321.4,64Z"/><path class="cls-1" d="M94.78,180c.16,2-.65,2.45-2.06,2.46-2.06,0-1.83-1.35-1.89-2.68-.09-1.73.71-2.37,2.37-2.23C95.3,177.73,94.69,179.32,94.78,180Z"/><path class="cls-1" d="M294.38,61.87c-.34,1.34-1.37,1.85-2.83,1.88s-2-.66-2-2.06c0-2,1.44-1.77,2.72-1.8S294.61,60.06,294.38,61.87Z"/><path class="cls-1" d="M547,54.72c.14,1.39-.39,2.14-1.91,2.09s-2.73-.51-2.68-2.1c0-1.25,1.14-1.83,2.44-1.85S547.1,53.11,547,54.72Z"/><path class="cls-1" d="M358.4,44.71a2.38,2.38,0,0,1-2-2.43c-.05-1.22,0-2.27,1.69-2.35s2.37.65,2.23,2.31A2.48,2.48,0,0,1,358.4,44.71Z"/><path class="cls-1" d="M74.77,129.78a2.24,2.24,0,0,1,2,2,2.08,2.08,0,0,1-1.73,2.57c-1.6.14-2.17-1.17-2.18-2.65C72.91,130.68,73,129.7,74.77,129.78Z"/><path class="cls-1" d="M362.42,54a2.23,2.23,0,0,1,1.92,2.27c0,1.29-.71,2.4-2,2.31-1.58-.12-1.95-1.46-1.92-2.91C360.45,54.46,360.94,53.84,362.42,54Z"/><path class="cls-1" d="M306.4,26.07c.08,1.61-.95,1.75-2.2,1.75-1.66,0-1.69-1.13-1.65-2.31s.9-1.47,2-1.5C306,24,306.54,24.69,306.4,26.07Z"/><path class="cls-1" d="M364.3,63.78c.05,1.14-.3,1.89-1.64,1.93s-2.26-.29-2.22-1.89c0-1.13.32-1.89,1.66-1.92S364.41,62.16,364.3,63.78Z"/><path class="cls-1" d="M170.4,95.9c1.74-.23,2.3.38,2.27,1.62,0,1,.06,2.1-1.39,2.09-1.29,0-2.45-.59-2.35-1.92C169,97,170,96.32,170.4,95.9Z"/><path class="cls-1" d="M195.49,87.22c0,1-.58,1.44-1.5,1.45s-2.06.13-2.14-1.3c0-1,.56-1.45,1.5-1.48S195.38,85.81,195.49,87.22Z"/><path class="cls-1" d="M7,25.84c.3-3.39-.83-5.27,1-6.67.17-.13,1.23.46,1.46.92C10.53,22.32,8,22.78,7,25.84Z"/><path class="cls-1" d="M187.34,96.78c1.42,0,1.35,1.1,1.32,2.06,0,.77.07,1.84-1.07,1.69a2.12,2.12,0,0,1-1.83-2.42C185.78,97.11,186.42,96.76,187.34,96.78Z"/><path class="cls-1" d="M304.5,168.92c-.36,5.53-6.38,8.38-10.94,11.55s-7.25,10.4-14.94,9.16c-1.67-.27-1,2.07-1.11,3.26-.12,1.79-.35,3.23-2.56,3.56-2,.31-2.8-1.07-3.1-2.43-1.26-5.65-5.65-10.36-6.59-15.39s1.44-11.16-.9-16.32-1.82-9.23.62-13.83c1-2,1.91-4.08,4.39-3.76,2.85.38,1.78,3,2.14,4.81.32,1.61-1.05,4.54,1.11,4.59,2.7.07,2.16-3.06,1.81-4.77-1.06-5.22,3.29-6.74,6.2-8.45,2.7-1.58,3,1.43,2.79,3.42-.36,4,.28,6.16,5.39,6.48C295.82,151.24,304.42,161.2,304.5,168.92Zm-33-.63c0,8.35,3.47,12.19,11.07,12.18,5,0,16-9.74,15.93-14.13,0-4.16-8.87-11-14.11-10.83C276.17,155.69,271.49,160.33,271.48,168.29Z"/><path class="cls-1" d="M164.66,220.3c5.05-3.33,5.16-9.16,7.26-14,.78-1.78.33-5.7,3.79-4.49,2.15.74,1.62,4.41.71,5.71-6.18,8.84-8.76,19.55-15,28.3-1.08,1.51-2.27,3.94-4.54,3.15-2.08-.72-.13-3.7-.47-4-2.34-2.13-1.11-5.28-2-7-3-5.81.61-9.27,3.3-13,1.91-2.66.73-8.55,4.61-8,3.71.54-1.07,5.08.55,7.58,1.2,1.84,2.28,3.6,1.89,5.89l-1.66,1.31c-.81,1.87-1.63,3.73-2.44,5.6l-2,3.38.81.46,1.9-3.09a7.08,7.08,0,0,0,2.44-5.61Z"/><path class="cls-1" d="M445.75,158c-2.71-5.1-1.78-11.27-5.51-15.94-1.19-1.51-1-3.09-.65-4.69.07-.33,1.51-.73,1.58-.62a15.25,15.25,0,0,1,2,3.68c1.29,4.33,2.68,8.65,5.64,12.1,2.47,2.88,3.08,6.41,4.31,9.73.65,1.74-.84,3.56-1.91,3.56-8.31,0-2,4.62-2.25,7-.17,1.51,1.17,3.62-.83,4.31s-2.42-1.16-3-2.92c-1.06-3.43-5.06-5.66-3.22-10.46.71-1.83-2-1.43-3.07-.26-2.78,3.12-1.69,6.17.94,8.58,1.25,1.16,2.77,1.89,2.42,3.83-.32,1.79,1.16,4.73-1.1,5.11-1.85.3-2.66-2.54-2.84-4.52-.27-3-3.49-4.51-3.25-8,.18-2.59-2.89-5.83,2.49-6.21.14,0,.27-.19.41-.28,2.08-1.42-2.9-4.91,1.24-5.12,1.26-.06,2.38,4.29,4.11,4.82C446.94,162.84,444.22,159.18,445.75,158Z"/><path class="cls-1" d="M208.67,215.3c-4.77,5.26-7.69,11.75-11.63,17.49s-10.22,10.14-15.55,15a2.37,2.37,0,0,1-2.25.16c-.91-1.08-.4-2.36-.09-3.69,1.11-4.8,6-6,8.69-9.29,7.25-8.92,15.09-17.37,19.66-28.13.64-1.5,1.47-3,3.18-2.21s.9,2.46.37,3.86c-.85,2.27-1.63,4.56-2.44,6.85Z"/><path class="cls-1" d="M196.65,257.67c14.74-12.48,21-28.16,29.85-42.06.7-1.11,1.57-1.55,2.28-1,1.39,1.1.91,2.61.12,4-4.55,7.84-9.9,15.34-13.4,23.62-3.08,7.29-8.13,11.42-14.82,14.44C200.18,256.88,199.6,256.94,196.65,257.67Z"/><path class="cls-1" d="M306.66,211.28c-1-6.93,1.41-13.4-.1-19.94-.29-1.25-1.06-3.58,1.71-3.79,2.43-.18,3.15,1.23,3.15,3.41q0,18.48,0,37c0,1.39-.16,3-1.75,3-1.75.06-1-1.7-1.16-2.7C307.52,222.5,305.25,216.87,306.66,211.28Z"/><path class="cls-1" d="M204.57,192.92c-2.7,11-6.19,21.74-13.07,31-.56.74-2,1.86-2.34,1-.55-1.59-.79-3.88,0-5.24,5.76-10.16,11.8-20.16,11.55-32.44,0-.86.22-1.67,1.32-1.68a2.21,2.21,0,0,1,2.51,1.89A49.5,49.5,0,0,1,204.57,192.92Z"/><path class="cls-1" d="M346.59,172.1c-2.14,6.83.46,15.32-3.06,23.1-.49,1.08-.47,2.4-2.12,2-1.35-.33-1-1.58-1-2.46.72-10.63,1.07-21.31,2.51-31.84.47-3.46-1.55-6.33-.56-9.6.36-1.19.65-2.43,2-2.36s.87,1.5.93,2.36C345.74,159.19,346.12,165.08,346.59,172.1Z"/><path class="cls-1" d="M325.17,238.71c.54-1.55-.14-3.82,2.27-4.28.52-.1,1.51.21,1.67.59.73,1.71-.52,2.94-1.12,4.45-2.39,6.08-4.31,12.35-6.48,18.53-.71,2,.78,3.21,1.67,4.67-5.18,1.49-6.92.39-5.83-5.27s3.87-11,2.2-16.94c-.56-2,1.14-3.4,2.2-4.07C323.23,235.45,323.72,237.7,325.17,238.71Z"/><path class="cls-1" d="M330.46,180.47c-1.76-5.91,2.69-12.85.05-19.85a2.11,2.11,0,0,1,.91-1.89c1.06-.44,1.74.15,2,1.39.57,2.69,2.06,5.42,1.8,8-.8,7.89,0,15.72.09,23.57,0,1.39.91,3.64-1.93,3.59-2.14,0-2.75-1.79-2.85-3.35C330.31,188.46,330.46,185,330.46,180.47Z"/><path class="cls-1" d="M358.55,153c-.7,9.92.69,20.19-1.13,30.35-.38,2.16-.51,4.28-2.36,5.66-.48.36-1.95.32-2.17,0-1.33-2.09.21-4.06.51-6.11a119.54,119.54,0,0,0,1-27.26c-.17-2.08,0-4,1.56-5.47.38-.37,1.6-.22,2.22.1C359.18,150.71,359.49,151.67,358.55,153Z"/><path class="cls-1" d="M368.65,196.87a47.63,47.63,0,0,0-1.26,5.18,4.64,4.64,0,0,1-5.08,4.2c-3.1-.1-3-3.51-2.71-5.25.85-4.44.61-8.86.82-13.29,0-.69.43-1.75.93-1.93s2.13.24,2.15.5C363.85,190.4,369.61,192,368.65,196.87Z"/><path class="cls-1" d="M171,226.66a74.15,74.15,0,0,1,6.18-12.76c3.06-5,4.57-11,5.63-17,.31-1.76.83-4.73,3.21-4.16,2.69.64,1,3.08.73,5C185,209.18,178.86,218.33,171,226.66Z"/><path class="cls-1" d="M404.31,173.21v5.32c0,1.48-.53,2.77-2.16,2.68-1.25-.07-1.74-1.18-1.87-2.5-.71-7.38.32-15-3.81-21.9-.65-1.08-1.21-4.18.73-4.79s2.57,2,3.53,3.47C404.52,161.37,402.93,168.23,404.31,173.21Z"/><path class="cls-1" d="M213.65,212.39c-1.13-5.67,2.48-10.33,3.37-15.59.62-3.61,1.16-7.07-.09-10.56-.84-2.36.22-4.13,1.49-5.84.28-.39,1.12-.36,1.71-.53a24.3,24.3,0,0,0,.54,4.78c3.34,10.71-.68,19.48-7.1,27.67Z"/><path class="cls-1" d="M319.4,224c1.92-.56,3-2.43,4.5-1.29a2.85,2.85,0,0,1,.4,2.73c-1.4,2.58-4.73,4.26-3.52,8-.71.19-1.57.74-2.08.5-1.27-.59-3-.93-3.13-2.77-.4-4.05-.82-8.1-1.09-12.17-.13-1.93-.37-4.57,2.46-4.42,2.41.13,2.37,2.65,2.45,4.59C319.44,220.63,319.4,222.11,319.4,224Z"/><path class="cls-1" d="M324.53,190.12c-2.19,5.78-3.2,13-4.55,20.09-.11.59-.39,2.66-2.23,1.71a2.19,2.19,0,0,1-1.13-2.95c3.23-6.4,1.35-13.5,2.9-20.12.51-2.18-1.35-6,2.16-6.07S324.31,186.46,324.53,190.12Z"/><path class="cls-1" d="M455.27,146c-.33,1.61.34,3.14-1.39,3.35s-2.18-.89-2.64-2.34c-2.06-6.47-4.24-12.9-6.45-19.33-.38-1.11-1.15-2.25.37-2.89a2.15,2.15,0,0,1,2.84,1.41C450.54,132.94,453,139.72,455.27,146Z"/><path class="cls-1" d="M260.63,136.89c-.52,1.25.92,3.36-1.46,3.59s-2-2.26-2.14-3.23c-.59-4.16-.64-8.31-3.24-12-.61-.88-1.12-3.58.81-4.31,2.49-.93,3.14,1.7,3.52,3.15C259.22,128.29,259.83,132.63,260.63,136.89Z"/><path class="cls-1" d="M366.42,160.37c-.76,3.8-1.46,7.88-2.47,11.89-.16.63-.43,2.73-2.15,1.78a3,3,0,0,1-1.28-2.38c.51-4.81,1.25-9.6,1.87-14.4.19-1.5.94-2.91,2.38-2.37C367.17,155.78,366.2,158.22,366.42,160.37Z"/><path class="cls-1" d="M235.54,127.69c-.23,1,.55,2.43-1.16,2.83s-1.83-1.1-2.3-2c-1.7-3.3-2.31-7.2-5.59-9.61a1.45,1.45,0,0,1,0-2.5c1.24-1.08,2.31-.73,3.53.17C233.8,119.35,234.77,123.45,235.54,127.69Z"/><path class="cls-1" d="M225.53,134.64c0,2.22-.83,4.3-1.81,3.67-3.64-2.37-3.27-7-5-10.55a1.32,1.32,0,0,1,1.44-1.94C225.42,127,222.63,132.84,225.53,134.64Z"/><path class="cls-1" d="M425.12,147c.75-1.59-.66-4.76,1.57-4.11,5,1.46,1.37,6.89,3.47,10,.64,1-.14,3.19-1.83,2.46C424.46,153.71,426.36,149.62,425.12,147Z"/><path class="cls-1" d="M209.56,260.28c4.23.37,6.93-2.13,9.57-4.91.78-.82,1.6-2.71,3-1.49a2.36,2.36,0,0,1-.34,3.52c-3.11,2.29-6.14,4.93-9.63,6.4-3.05,1.29-1.61-2.39-2.56-3.58Z"/><path class="cls-1" d="M267.55,108.33c-.26,1.57-.19,3.77-1.38,3a30.56,30.56,0,0,1-7.48-6.59c-1-1.2.61-2.21,2.21-2.09C264.78,103,266.31,105.7,267.55,108.33Z"/><path class="cls-1" d="M456.12,119.72c1.82.22,4.42-.92,4.06,2.52-.19,1.89-.22,4.44-2.78,4.2s-5.12-1.29-5.14-4.65S454.77,120.21,456.12,119.72Z"/><path class="cls-1" d="M244.79,254.65c-2.19,3.48-4.44,7-8,9.43-.37.25-1.61,0-1.73-.31a2.64,2.64,0,0,1,0-2.23c2.36-2.92,4.85-5.73,7.38-8.5.35-.39,1.39-.68,1.69-.46S244.51,253.74,244.79,254.65Z"/><path class="cls-1" d="M462.45,141.37c-.49,1.49.29,2.91-1.24,3-.57,0-1.49-.79-1.73-1.42-1-2.72-1.67-5.59-2.8-8.26a1.8,1.8,0,0,1,1.06-2.72c.89-.41,2.35-.54,2.3.77C459.93,136.06,460.57,139.13,462.45,141.37Z"/><path class="cls-1" d="M244.46,122.38c1.72-1.22-2.74-4.22.82-4.3,2.12,0,2.92,3.42,3.24,5.8.24,1.82-.42,4.51-2,4.31C243.29,127.77,245.06,124.54,244.46,122.38Z"/><path class="cls-1" d="M316.69,272.85c1.73-2.17.16-6.37,4-6.43,2.95,0,5.28,4.67,3.06,5.56C321.69,272.81,318.93,269.27,316.69,272.85Z"/><path class="cls-1" d="M434.27,124.57c-.06,1.45.22,3.09-2.14,3s-2.89-1.67-2.82-3.69c.05-1.62.42-3.12,2.32-3.12C434.16,120.73,434.3,122.66,434.27,124.57Z"/><path class="cls-1" d="M248.12,134.81c2.32,1.88,1.22,5,2.29,7.46.44,1-1,2.54-2,2-3.3-1.66-1.31-4.92-1.74-7.47C246.49,136,246.23,134.67,248.12,134.81Z"/><path class="cls-1" d="M322,170.87c2.39,2.42,4.09,5,2.91,8.44-.17.49-1.72,1.1-1.95.89C320,177.49,322.33,174,322,170.87Z"/><path class="cls-1" d="M272.62,95.73c1.47,2.21,3.15,4.64,4.65,7.17.12.2-1.22,1.7-1.45,1.6-3.08-1.34-3.05-4.91-4.91-7.2C270.17,96.39,271.08,95.92,272.62,95.73Z"/><path class="cls-1" d="M323.47,215.78c.74-1.21.43-3.54,2.75-3.22,1.93.27,1.21,2.15,1,3.24-.21,1.45-.35,3.62-2.6,3.33C322.77,218.89,323.82,217,323.47,215.78Z"/><path class="cls-1" d="M258.38,146.12c.6-1.3-.64-3.59,1.45-3.22,2.3.4,1.66,2.87,1.64,4.61,0,1.17.51,3.21-1.53,2.87C257.07,149.9,259.52,147.24,258.38,146.12Z"/><path class="cls-1" d="M281,92.22a48.92,48.92,0,0,1,4.25,5.16c.57.91-.65,1.54-1.43,1.24a8.9,8.9,0,0,1-5-5A16.9,16.9,0,0,1,281,92.22Z"/><path class="cls-1" d="M208.61,215.36c2.75.82,2.91-2.74,5-3l-.08-.07c0,1.14.19,2.4-.23,3.39-.65,1.54-1,3.84-3.43,3.48-2.71-.4-.08-2.81-1.24-3.89Z"/><path class="cls-1" d="M227.51,144.78c-.1,1.09.27,2.52-1.48,2.59-1.45.06-1.4-1.14-1.38-2.1s-.42-2.52,1.41-2.57C227.46,142.67,227.52,143.74,227.51,144.78Z"/><path class="cls-1" d="M225.32,184.61c1.81-.17,2.26.56,2.17,1.69s.53,2.81-1.47,2.95c-1.38.09-1.35-1.08-1.36-2S224.35,185,225.32,184.61Z"/><path class="cls-1" d="M454.89,157.3a2.63,2.63,0,0,1-1.61-2.76c0-1.09.24-2,1.57-1.91,1.82.12,1.3,1.56,1.29,2.59C456.14,156.08,456.46,157.32,454.89,157.3Z"/><path class="cls-1" d="M183.78,215.58c1.37.65.77,1.95.87,3s-.37,1.91-1.7,1.72-1.22-1.32-1.21-2.26A2.28,2.28,0,0,1,183.78,215.58Z"/><path class="cls-1" d="M311.54,258.34c0-1.76-.61-3.75,1.51-4.78.23-.11,1.13.55,1.27,1,.79,2.51-1.39,2.86-2.86,3.71Z"/><path class="cls-1" d="M326.5,207.46c0-1.05.12-2.14,1.58-1.82.47.11,1.22,1,1.13,1.21-.34.84-.84,2-1.55,2.22C326.58,209.44,326.55,208.28,326.5,207.46Z"/><path class="cls-1" d="M249.46,107.49c.73,3,1,3.65,1,4.33s-.08,1.91-1.12,1.57a3,3,0,0,1-1.51-2.08C247.76,110.64,248.43,109.84,249.46,107.49Z"/><path class="cls-1" d="M227.92,252.72c-.58-.8-1.24-1.32-1.15-1.63a4.38,4.38,0,0,1,1.29-2.34c1-.7,1.5.31,1.34,1.1A12.9,12.9,0,0,1,227.92,252.72Z"/><path class="cls-1" d="M352.44,233.94c-.36,1.32.61,3.76-1.84,3.11-1.94-.51-4.38-1.38-4.22-4.44.1-2,.73-3.24,2.83-3.15C352.16,229.6,352.08,232,352.44,233.94Z"/><path class="cls-1" d="M295.18,266.32c2.54,4.91,2.54,4.91-2.38,8.33C291.29,271.47,294.87,270.3,295.18,266.32Z"/><path class="cls-1" d="M281.8,177.39c-2.81-.21-9-8.82-8.05-11,.44-1.06,1.73-2.38,2.74-2.46,1.5-.14,2.63,1.29,2.92,2.83.67,3.58,5.47,5.64,3.68,10C282.92,177.17,282,177.28,281.8,177.39Z"/></g></g></svg>