<svg xmlns="http://www.w3.org/2000/svg" viewBox="0 0 1024 1024"><path d="M1009.45 633.27C954.8 857.53 752.6 1024 511.52 1024c-164.15 0-310.28-77.18-404.06-197.23 0 0 690.8 153.6 902-193.5z" fill="#ff4800"/><path d="M983.8 312.08s-215-124.8-309.52-79.5-76 78.2-262.3 113c-185.6 34.67-338.63-97.35-338.63-97.35C163 99.47 326 0 512.28 0c211.8 0 393.57 128.63 471.53 312.08z" fill="#3DA8FF"/><path d="M263.47 279.12C196.94 350.4 101.84 338.9 86.7 336.54c17.62-13.25 33.9-30.1 47.55-46.28 52.33 11.56 129.23-11.14 129.23-11.14z" fill="#ff4800"/><path d="M273.35 469.7C165.77 552.7 31.52 685.36 30.48 686.4A511 511 0 0 1 0 512c66.34-32.5 273.35-42.3 273.35-42.3z" fill="#ffc840"/><path d="M191.82 475.64c-25 16.27-67.77 100.65-67.77 100.65-6.35-15.53 19.76-95.6 19.76-95.6l48-5.05zm139.4-372.52S275.7 307.5 64.42 263.2a512.65 512.65 0 0 1 74.39-101.72h0c1.2-.02 103.07-1.75 192.42-58.35z" fill="#ff4800"/><path d="M95.94 237.27s25.5-10.27 79.14-17.92 76.16-57.88 76.16-57.88-73 31.06-110.12 21.65c0 0-31.57 43.8-45.18 54.15zM338.34 60.3c-67.16 45.28-141.82 49.54-142.74 49.38C216.65 92.53 259.85 65.4 285 53c15.85 7.68 53.34 7.3 53.34 7.3z" fill="#ff7300"/><path d="M209.77 925.32C82.6 832.17 0 681.73 0 512c0 0 268.3 136.94 209.77 413.32z" fill="#fd8108"/><path d="M175 233.94S97.68 364.06 22.46 361.6A508.38 508.38 0 0 1 67 258.66c1-.01 68.77-.43 108-24.72z" fill="#fff"/><path d="M374.76 162.88s-2.82 49.65 3.77 64.7c0 0 46.35-10.83 70.6-6.83 0 0-49.88-50.35-74.36-57.88z" fill="#ffc840"/><path d="M278.3 325s30.36-28.7 44.47-105.38c0 0 82.06 39.5 75.23 108zM119.47 468.3s-53.67-14.4-117.2-4.85a508.4 508.4 0 0 1 47.63-172.2c1.24.84 99.6 67 162.73 64.63 0 0-60.7 54.53-158.6 55 0 0 45.18 21.65 65.42 57.4z" fill="#ff9700"/><path d="M502.53 175.12l34.82-34.83s35.3 22.12 53.18 42.36c0 0-40-12.24-88-7.53zm178.2-87.9s48.1 10.07 105.44 45.5c0 0-105.73-16.8-121.18-8 0-.03 4-27.65 15.74-37.5z" fill="#ff7300"/><path d="M326.54 326c-3.77-.08-3.78-39.16-3.78-39.16-10.35 28.7-24.47 38.55-24.47 38.55z" fill="#ff4800"/><path d="M364.18 284.53s5.76-21.93 20.35-35.1l66.94 45.7zM0 512h0l.06 7v2.1l.12 5.35.06 1.92q.1 3.42.26 6.83l.1 1.86q.12 2.58.27 5.16l.14 2.52.36 5.26c0 .58.08 1.16.13 1.73l.54 6.5.25 2.66.42 4.3.3 2.76q.33 3 .7 6l.35 2.8L5 584l.53 3.65.46 3.1q.45 2.9.93 5.78l.6 3.46.54 3 .66 3.63.54 2.83q.65 3.3 1.32 6.6l.5 2.43.86 4 .5 2.24q1.55 6.87 3.27 13.66l.43 1.68 1.15 4.4.32 1.17q2 7.25 4.1 14.4l.32 1.05q2.28 7.5 4.77 14.87c0 .07.05.14.07.22l1.73 5a1.07 1.07 0 0 0 .07.19q.87 2.5 1.77 5C31 685.86 67.27 650 117 604.1 60 542.62 0 512 0 512z" fill="#fff"/><path d="M123.06 428.3s59.47-15.05 111.7-72.47a54.53 54.53 0 0 1 36.24 9.42s-65.76 70.1-147.94 63.05z" fill="#ff4800"/></svg>